<svg xmlns="http://www.w3.org/2000/svg" xmlns:xlink="http://www.w3.org/1999/xlink" width="505" height="424" viewBox="0 0 505 424">
  <defs>
    <clipPath id="clip-path">
      <rect id="Rectángulo_407953" data-name="Rectángulo 407953" width="505" height="424" transform="translate(915 302)" fill="#fff" stroke="#707070" stroke-width="1" opacity="0.37"/>
    </clipPath>
    <clipPath id="clip-path-2">
      <path id="Trazado_987780" data-name="Trazado 987780" d="M54.21,375.174C34.163,356.34-.8,299.462,21.381,242.446s37.444-41.42,39.679-82.195S113.443,64.061,214.84,85.924s102.85-15.051,154.083-4.081,103.312,35.386,95,105.992,2.267,61.491,5.415,94.3S439.652,442.68,271.419,421.8,78.445,397.943,54.21,375.174Z" transform="translate(-14.269 -79.756)"/>
    </clipPath>
    <clipPath id="clip-path-7">
      <path id="Trazado_988015" data-name="Trazado 988015" d="M171.882,254.922c2.763-1.944,5.277-.812,8.323,3.451s16.036,21.384,16.036,21.384l3.011-3.114s-20.1-30.246-13.685-33.494,11.013,9.54,13.685,15.022a148.345,148.345,0,0,1,5.717,14.819l4.06-2.03s-12.789-33.9-6.5-35.118,9.54,6.575,10.556,13.944,3.045,19.347,3.045,19.347l4.06-.2s-2.639-33.088,4.466-32.276,5.887,10.353,5.887,22.532a184.5,184.5,0,0,0,2.436,26.378s15.63-23.332,22.735-19.476-14.006,37.757-26.389,43.238-23.141-1.218-36.945-20.1S166.4,258.779,171.882,254.922Z" transform="translate(-170.54 -235.714)"/>
    </clipPath>
  </defs>
  <g id="Enmascarar_grupo_1098657" data-name="Enmascarar grupo 1098657" transform="translate(-915 -302)" clip-path="url(#clip-path)">
    <g id="Grupo_1153227" data-name="Grupo 1153227" transform="translate(2952.747 1149.172)">
      <g id="Grupo_1153210" data-name="Grupo 1153210" transform="translate(-2027.746 -837.171)">
        <path id="Trazado_987738" data-name="Trazado 987738" d="M55.689,407.558C33.246,387.2-7.75,323.492,11.052,254.67s35.991-51.849,35.176-99.885S93.618,37.375,201.454,54.232s106.5-26.582,160.981-18.154S473.324,68.636,470.082,152.2s7.132,71.953,12.967,110.178S464.4,453.331,286.678,443.423,82.821,432.171,55.689,407.558Z" transform="translate(-6.254 -34.981)" fill="#f7c6ed" opacity="0.55"/>
        <path id="Trazado_987739" data-name="Trazado 987739" d="M54.21,375.174C34.163,356.34-.8,299.462,21.381,242.446s37.444-41.42,39.679-82.195S113.443,64.061,214.84,85.924s102.85-15.051,154.083-4.081,103.312,35.386,95,105.992,2.267,61.491,5.415,94.3S439.652,442.68,271.419,421.8,78.445,397.943,54.21,375.174Z" transform="translate(-6.374 -35.654)" fill="#f2bbe8" opacity="0.7"/>
      </g>
      <g id="Grupo_1153222" data-name="Grupo 1153222" transform="translate(-2019.852 -793.07)">
        <g id="Grupo_1153211" data-name="Grupo 1153211" transform="translate(0 0)" clip-path="url(#clip-path-2)">
          <path id="Trazado_987740" data-name="Trazado 987740" d="M382.751,431.473s-47.308,7.082-63.993-2.3c0,0-1.29-45.535-.621-77.212.246-12,.778-22,1.763-26.8,12.834,9.8,57.355,15.04,57.355,15.04l1.221,20.31Z" transform="translate(-18.833 -83.444)" fill="#ae7ef2"/>
          <path id="Trazado_987741" data-name="Trazado 987741" d="M378.479,360.506c-14.065,1.94-28.584,2.137-42.216-2.384-1.192-.394-2.354-.827-3.5-1.29a51.578,51.578,0,0,1-14.627-4.876c.246-12,.778-22,1.763-26.8,12.834,9.8,57.355,15.04,57.355,15.04Z" transform="translate(-18.836 -83.444)" fill="#985ff2"/>
          <path id="Trazado_987742" data-name="Trazado 987742" d="M305.034,162.671s-13.687-4.686-12.284,7.278,13.805,6.57,13.805,6.57Z" transform="translate(-18.453 -80.988)" fill="#e26842"/>
          <path id="Trazado_987743" data-name="Trazado 987743" d="M297.515,168.846a6.1,6.1,0,0,1,4.8,4.309" transform="translate(-18.526 -81.095)" fill="none" stroke="#000" stroke-miterlimit="10" stroke-width="0.5"/>
          <path id="Trazado_987744" data-name="Trazado 987744" d="M297.781,125.589c-.114-1.154.518-3.359,2.137-3.49a2.29,2.29,0,0,1,2.09,1.44,12.593,12.593,0,0,0,1.02,2.324,1.955,1.955,0,0,0,2.426.652,2.082,2.082,0,0,0,.716-1.132c.392-1.114.432-2.631,1.347-3.544,1.428-1.425,3.317.176,3.907,1.507.291.654.742,2.3,1.746,2.377,1.23.09,2.282-2.829,2.748-3.613a2.392,2.392,0,0,1,1.355-1.274A2.1,2.1,0,0,1,319.421,122c.33.573.506,1.207.831,1.782a2.407,2.407,0,0,0,1.57,1.256,2.1,2.1,0,0,0,2.416-1.231c.3-.629.385-1.319.648-1.959a2.242,2.242,0,0,1,1.53-1.425,2.57,2.57,0,0,1,2.5,1.317,12.751,12.751,0,0,0,1.271,2.314,1.627,1.627,0,0,0,1.525.482,1.868,1.868,0,0,0,1.141-1.452,2.425,2.425,0,0,1,.919-1.609,2.1,2.1,0,0,1,2.448.629c.582.676.583,1.709,1.27,2.316a1.466,1.466,0,0,0,2.422-.731c.218-.623.187-1.3.4-1.92a1.638,1.638,0,0,1,1.562-1.173,1.6,1.6,0,0,1,1.306,1.236c.163.582.131,1.2.339,1.772.638,1.748,2.313.75,2.583-.58.478-2.353,3.867-1.935,4.85-.115a5.138,5.138,0,0,1,.42,2.852c-.088,1.2-.1,2.391-.12,3.591l-.327,21.754s-46.375,12.133-49.429,12.1-2.827-.54-2.94-5.84S297.781,125.589,297.781,125.589Z" transform="translate(-18.53 -80.366)" fill="#3a56ff"/>
          <path id="Trazado_987745" data-name="Trazado 987745" d="M354.737,202.188s-7.732,29.5-30.111,27.559S300.8,214.894,300.8,214.894l13.08-8.766V184.665l24.693,2.2V203.1Z" transform="translate(-18.575 -81.333)" fill="#e26842"/>
          <path id="Trazado_987746" data-name="Trazado 987746" d="M338.773,186.861v12.115a56.751,56.751,0,0,1-24.693-4.1V184.665Z" transform="translate(-18.775 -81.333)" fill="#dd461d"/>
          <path id="Trazado_987747" data-name="Trazado 987747" d="M302.192,212.385s10.5,17.022,28.688,11.256a29.436,29.436,0,0,0,20.391-22.889s21.558.692,33.66,18.113c-.171,10.961-.979,12.341-.979,12.341L365.7,345.936s-32.46,6.136-41.5,0c-5.975-10.5-34.426-101.254-34.426-101.254S284.381,219.33,302.192,212.385Z" transform="translate(-18.398 -81.574)" fill="#99d82b"/>
          <path id="Trazado_987748" data-name="Trazado 987748" d="M330.631,341.126a30.454,30.454,0,0,0,22.973.706" transform="translate(-19.024 -83.684)" fill="none" stroke="#000" stroke-miterlimit="10" stroke-width="0.5"/>
          <path id="Trazado_987749" data-name="Trazado 987749" d="M332.6,324.247a94.983,94.983,0,0,1-3.28-11.506" transform="translate(-19.004 -83.258)" fill="none" stroke="#000" stroke-miterlimit="10" stroke-width="0.5"/>
          <path id="Trazado_987750" data-name="Trazado 987750" d="M335.7,323.69q-2.163-5.956-3.762-12.1" transform="translate(-19.044 -83.24)" fill="none" stroke="#000" stroke-miterlimit="10" stroke-width="0.5"/>
          <path id="Trazado_987751" data-name="Trazado 987751" d="M338.786,323.861,335.2,311.436" transform="translate(-19.093 -83.238)" fill="none" stroke="#000" stroke-miterlimit="10" stroke-width="0.5"/>
          <path id="Trazado_987752" data-name="Trazado 987752" d="M352.1,164.529c0,10.2-2.807,22.31-15.907,25.146s-32.524-.355-33.223-27.067a30.1,30.1,0,0,1,.177-5.752c.916-7.535,5.161-19.955,23.216-21.433,21.029-1.724,24.88,11.987,25.58,22.625C352.1,160.431,352.1,162.657,352.1,164.529Z" transform="translate(-18.607 -80.59)" fill="#e26842"/>
          <path id="Trazado_987753" data-name="Trazado 987753" d="M352.1,164.858c0,10.2-2.807,22.31-15.907,25.146s-32.524-.355-33.223-27.067a30.1,30.1,0,0,1,.177-5.752l2.039,1.428c.355,1,5.733,14.942,8.776,17.562,4.216.049,30.623-2.778,30.623-2.778l7.358-15.021C352.1,160.76,352.1,162.986,352.1,164.858Z" transform="translate(-18.607 -80.919)" fill="#3a56ff"/>
          <path id="Trazado_987754" data-name="Trazado 987754" d="M303.048,164.562a30.275,30.275,0,0,0,6.472-19.6c3.692-2.666,32.058-6.291,38.028-1.864,2.277-3.88-9.352-14.135-24.46-10.751s-21.158,13.228-21.158,20.562A51.2,51.2,0,0,0,303.048,164.562Z" transform="translate(-18.592 -80.536)" fill="#3a56ff"/>
          <ellipse id="Elipse_11551" data-name="Elipse 11551" cx="1.135" cy="2.699" rx="1.135" ry="2.699" transform="translate(301.071 78.984)"/>
          <path id="Trazado_987755" data-name="Trazado 987755" d="M338.247,161.331c0,1.49-.508,2.7-1.135,2.7s-1.135-1.209-1.135-2.7.508-2.7,1.135-2.7S338.247,159.84,338.247,161.331Z" transform="translate(-19.104 -80.941)"/>
          <path id="Trazado_987756" data-name="Trazado 987756" d="M316.456,151.51a10.142,10.142,0,0,1,2.814-3.245,3.468,3.468,0,0,1,4.036,0" transform="translate(-18.811 -80.776)" fill="none" stroke="#000" stroke-miterlimit="10" stroke-width="0.5"/>
          <path id="Trazado_987757" data-name="Trazado 987757" d="M335.978,149.17a5.144,5.144,0,0,1,6.24,1.95" transform="translate(-19.104 -80.793)" fill="none" stroke="#000" stroke-miterlimit="10" stroke-width="0.5"/>
          <path id="Trazado_987758" data-name="Trazado 987758" d="M332.04,153.231q1.491,8.622,2.982,17.245a1.106,1.106,0,0,1-.624,1.385l-2.878,2" transform="translate(-19.037 -80.86)" fill="none" stroke="#000" stroke-miterlimit="10" stroke-width="0.5"/>
          <path id="Trazado_987759" data-name="Trazado 987759" d="M321.666,174.385a9.718,9.718,0,0,0,8.021,8.91" transform="translate(-18.889 -81.178)" fill="none" stroke="#000" stroke-miterlimit="10" stroke-width="0.5"/>
          <path id="Trazado_987760" data-name="Trazado 987760" d="M318.47,249.389q3.08,10.217,5.754,20.55" transform="translate(-18.841 -82.305)" fill="none" stroke="#09b716" stroke-miterlimit="10" stroke-width="0.5"/>
          <path id="Trazado_987761" data-name="Trazado 987761" d="M323.053,253.52Q325.625,262,328,270.534" transform="translate(-18.91 -82.367)" fill="none" stroke="#09b716" stroke-miterlimit="10" stroke-width="0.5"/>
          <path id="Trazado_987762" data-name="Trazado 987762" d="M326.2,252.215q2.364,7.111,4.727,14.222" transform="translate(-18.957 -82.348)" fill="none" stroke="#09b716" stroke-miterlimit="10" stroke-width="0.5"/>
          <path id="Trazado_987763" data-name="Trazado 987763" d="M300.779,218.552c3.667,5.124,7.943,10.169,13.759,12.59,6.924,2.882,14.994,1.533,21.792-1.636,8.662-4.038,16.2-11.435,18.33-20.75" transform="translate(-18.575 -81.695)" fill="none" stroke="#09b716" stroke-miterlimit="10" stroke-width="0.5"/>
          <path id="Trazado_987764" data-name="Trazado 987764" d="M348.144,273.571q1,6.383,2.156,12.738" transform="translate(-19.287 -82.669)" fill="none" stroke="#09b716" stroke-miterlimit="10" stroke-width="0.5"/>
          <path id="Trazado_987765" data-name="Trazado 987765" d="M351.085,271.535q.887,6.378,2.307,12.668" transform="translate(-19.331 -82.638)" fill="none" stroke="#09b716" stroke-miterlimit="10" stroke-width="0.5"/>
          <path id="Trazado_987766" data-name="Trazado 987766" d="M354.193,271.018l1.693,11.923" transform="translate(-19.378 -82.63)" fill="none" stroke="#09b716" stroke-miterlimit="10" stroke-width="0.5"/>
          <path id="Trazado_987767" data-name="Trazado 987767" d="M302.536,132.459a8.835,8.835,0,0,0,3.14,5.453" transform="translate(-18.602 -80.548)" fill="none" stroke="#0939d3" stroke-miterlimit="10" stroke-width="0.5"/>
          <path id="Trazado_987768" data-name="Trazado 987768" d="M304.972,131.852a8.036,8.036,0,0,0,3.9,6.346" transform="translate(-18.638 -80.539)" fill="none" stroke="#0939d3" stroke-miterlimit="10" stroke-width="0.5"/>
          <path id="Trazado_987769" data-name="Trazado 987769" d="M307.559,132.476a11.462,11.462,0,0,0,3.238,4.387" transform="translate(-18.677 -80.548)" fill="none" stroke="#0939d3" stroke-miterlimit="10" stroke-width="0.5"/>
          <path id="Trazado_987770" data-name="Trazado 987770" d="M336.623,130.041a46.259,46.259,0,0,1,2.106,5.166" transform="translate(-19.114 -80.512)" fill="none" stroke="#0939d3" stroke-miterlimit="10" stroke-width="0.5"/>
          <path id="Trazado_987771" data-name="Trazado 987771" d="M339.345,130.407a23.259,23.259,0,0,1,2.1,5.246" transform="translate(-19.155 -80.517)" fill="none" stroke="#0939d3" stroke-miterlimit="10" stroke-width="0.5"/>
          <path id="Trazado_987772" data-name="Trazado 987772" d="M342.538,131.66a10.489,10.489,0,0,1,1.662,4.792" transform="translate(-19.203 -80.536)" fill="none" stroke="#0939d3" stroke-miterlimit="10" stroke-width="0.5"/>
          <path id="Trazado_987773" data-name="Trazado 987773" d="M311.429,179.637a8.171,8.171,0,0,0,5,4.271" transform="translate(-18.735 -81.257)" fill="none" stroke="#0939d3" stroke-miterlimit="10" stroke-width="0.5"/>
          <path id="Trazado_987774" data-name="Trazado 987774" d="M314.319,180.017a7.069,7.069,0,0,0,3.762,2.688" transform="translate(-18.779 -81.263)" fill="none" stroke="#0939d3" stroke-miterlimit="10" stroke-width="0.5"/>
          <path id="Trazado_987775" data-name="Trazado 987775" d="M345.738,130.252l1.551,4.352" transform="translate(-19.251 -80.515)" fill="none" stroke="#0939d3" stroke-miterlimit="10" stroke-width="0.5"/>
          <path id="Trazado_987776" data-name="Trazado 987776" d="M303.125,155.156a9.7,9.7,0,0,0,1.991-5.413" transform="translate(-18.61 -80.808)" fill="none" stroke="#0939d3" stroke-miterlimit="10" stroke-width="0.5"/>
          <path id="Trazado_987777" data-name="Trazado 987777" d="M302.726,150.914a12.583,12.583,0,0,0,1.228-3.806" transform="translate(-18.604 -80.768)" fill="none" stroke="#0939d3" stroke-miterlimit="10" stroke-width="0.5"/>
          <path id="Trazado_987778" data-name="Trazado 987778" d="M341,183.065a11.106,11.106,0,0,0,1.995-4.72" transform="translate(-19.18 -81.238)" fill="none" stroke="#0939d3" stroke-miterlimit="10" stroke-width="0.5"/>
          <path id="Trazado_987779" data-name="Trazado 987779" d="M343.448,182.214a40.527,40.527,0,0,0,1.35-4.954" transform="translate(-19.216 -81.221)" fill="none" stroke="#0939d3" stroke-miterlimit="10" stroke-width="0.5"/>
        </g>
        <g id="Grupo_1153213" data-name="Grupo 1153213" transform="translate(0 0)" clip-path="url(#clip-path-2)">
          <path id="Trazado_987781" data-name="Trazado 987781" d="M440.706,403.4a39.746,39.746,0,0,1-6.924,5.26c-23.344,14.361-71.223,20-71.223,20l-1.931-29.116-.818-12.292,80.9-3.349S440.469,395.173,440.706,403.4Z" transform="translate(-19.462 -84.327)" fill="#3c35f2"/>
          <path id="Trazado_987782" data-name="Trazado 987782" d="M440.706,403.4a39.746,39.746,0,0,1-6.924,5.26c-21.866-4.521-44.856-1.881-66.5-8-2.236-.305-4.462-.67-6.658-1.113l-.818-12.292,80.9-3.349S440.469,395.173,440.706,403.4Z" transform="translate(-19.462 -84.327)" fill="#0a0ae5"/>
          <path id="Trazado_987783" data-name="Trazado 987783" d="M435.818,205.743c-7.249,1.024-57.8,10.657-74.178-9.367.1-1.015.207-2.1.315-3.25,1.4-14.952,3.831-40.2,18.173-42.551,15.444-2.541,32.8-2.354,45.634,10.086,0,0,10.283-1.143,12.5,5.122a7.052,7.052,0,0,1,.364,1.586C439.561,175.406,434.419,195.362,435.818,205.743Z" transform="translate(-19.49 -80.801)" fill="#ae7ef2"/>
          <g id="Grupo_1153212" data-name="Grupo 1153212" transform="translate(373.682 70.601)">
            <path id="Trazado_987784" data-name="Trazado 987784" d="M415.527,164.28a28.486,28.486,0,0,1,2.392,11.695" transform="translate(-393.982 -151.628)" fill="none" stroke="#9666e2" stroke-miterlimit="10" stroke-width="0.5"/>
            <path id="Trazado_987785" data-name="Trazado 987785" d="M417.989,163.335a44.629,44.629,0,0,1,2.14,12.441" transform="translate(-394.019 -151.613)" fill="none" stroke="#9666e2" stroke-miterlimit="10" stroke-width="0.5"/>
            <path id="Trazado_987786" data-name="Trazado 987786" d="M420.282,163.689a19.2,19.2,0,0,1,1.875,12.29" transform="translate(-394.053 -151.619)" fill="none" stroke="#9666e2" stroke-miterlimit="10" stroke-width="0.5"/>
            <path id="Trazado_987787" data-name="Trazado 987787" d="M393.653,157.489a31.372,31.372,0,0,1,5.834-.3,10.5,10.5,0,0,1,5.475,1.829" transform="translate(-393.653 -151.52)" fill="none" stroke="#9666e2" stroke-miterlimit="10" stroke-width="0.5"/>
            <path id="Trazado_987788" data-name="Trazado 987788" d="M395.731,154.039a21.627,21.627,0,0,1,10.246,2.035" transform="translate(-393.684 -151.473)" fill="none" stroke="#9666e2" stroke-miterlimit="10" stroke-width="0.5"/>
            <path id="Trazado_987789" data-name="Trazado 987789" d="M397.415,151.478a13.294,13.294,0,0,1,9.41,2.922" transform="translate(-393.71 -151.435)" fill="none" stroke="#9666e2" stroke-miterlimit="10" stroke-width="0.5"/>
          </g>
          <path id="Trazado_987790" data-name="Trazado 987790" d="M435.818,206c-7.249,1.024-57.8,10.657-74.178-9.367.1-1.015.207-2.1.315-3.25,8.7,5.555,18.567,6.245,28.259,4.521q1.6-.355,3.191-.65a83.376,83.376,0,0,0,11.081-3.438c13.711-5.26,27.934-13.612,33.775-27.776a7.051,7.051,0,0,1,.364,1.586C439.561,175.658,434.419,195.614,435.818,206Z" transform="translate(-19.49 -81.053)" fill="#9666e2"/>
          <path id="Trazado_987791" data-name="Trazado 987791" d="M404.432,211.421v16.607S400.65,254,391.253,252.366s-7.515-27.264-7.515-27.264c0-.424.512-4.57.995-8.431.443-3.526.877-6.806.877-6.806Z" transform="translate(-19.82 -81.711)" fill="#f4a398"/>
          <path id="Trazado_987792" data-name="Trazado 987792" d="M404.452,211.421v8.884c-6.065.179-12.435-1.286-18.259-2.855a2.573,2.573,0,0,1-1.042-.459c-.7-.6.5-7.125.479-7.127Z" transform="translate(-19.84 -81.711)" fill="#f49187"/>
          <path id="Trazado_987793" data-name="Trazado 987793" d="M385.964,211.889s-9.359-2.474-9.828-18.552,6.318-32.564,29.249-29.586,13.805,31.61,9.126,38.119S402.108,218.207,385.964,211.889Z" transform="translate(-19.707 -81.013)" fill="#f4a398"/>
          <path id="Trazado_987794" data-name="Trazado 987794" d="M412.72,202.206s9.828,9.012,15.678-1.014,2.574-12.874,0-14.141-9.126-1.319-9.126-1.319Z" transform="translate(-20.258 -81.349)" fill="#f4a398"/>
          <path id="Trazado_987795" data-name="Trazado 987795" d="M383.738,176.723s4.68-2.9,8.891-.272" transform="translate(-19.822 -81.193)" fill="none" stroke="#000" stroke-miterlimit="10" stroke-width="0.5"/>
          <path id="Trazado_987796" data-name="Trazado 987796" d="M393.216,183.145q-.47,3.307-.941,6.612a31.394,31.394,0,0,1-1.037,5.182,9.537,9.537,0,0,0-.66,2.659,2.32,2.32,0,0,0,1.258,2.256c.3.118.8-.047.679-.348" transform="translate(-19.925 -81.31)" fill="none" stroke="#000" stroke-miterlimit="10" stroke-width="0.5"/>
          <path id="Trazado_987797" data-name="Trazado 987797" d="M400.62,177.776a6.516,6.516,0,0,1,5.006,1.1c.935.675,1.678,1.592,2.643,2.223" transform="translate(-20.076 -81.227)" fill="none" stroke="#000" stroke-miterlimit="10" stroke-width="0.5"/>
          <path id="Trazado_987798" data-name="Trazado 987798" d="M396.354,205.023a12.776,12.776,0,0,0,8.272-6.834" transform="translate(-20.012 -81.536)" fill="none" stroke="#000" stroke-miterlimit="10" stroke-width="0.5"/>
          <path id="Trazado_987799" data-name="Trazado 987799" d="M399.2,187.915a6.972,6.972,0,0,0,9.106,3.278" transform="translate(-20.054 -81.381)" fill="none" stroke="#000" stroke-miterlimit="10" stroke-width="0.5"/>
          <path id="Trazado_987800" data-name="Trazado 987800" d="M381.416,185.857a5.433,5.433,0,0,0,4.682,2.034,16.025,16.025,0,0,0,5.127-1.34" transform="translate(-19.787 -81.35)" fill="none" stroke="#000" stroke-miterlimit="10" stroke-width="0.5"/>
          <path id="Trazado_987801" data-name="Trazado 987801" d="M409.313,163.131c-.441,2.751-.336,11.768,4.844,17.6s7.4,4.415,7.4,4.415l1.463-14.61Z" transform="translate(-20.204 -81.009)" fill="#ae7ef2"/>
          <path id="Trazado_987802" data-name="Trazado 987802" d="M365.719,200.811a34.523,34.523,0,0,0,2.8-12.65" transform="translate(-19.551 -81.385)" fill="none" stroke="#000" stroke-miterlimit="10" stroke-width="0.5"/>
          <path id="Trazado_987803" data-name="Trazado 987803" d="M368.857,203.221a45.456,45.456,0,0,0,1.82-11.021" transform="translate(-19.598 -81.446)" fill="none" stroke="#000" stroke-miterlimit="10" stroke-width="0.5"/>
          <path id="Trazado_987804" data-name="Trazado 987804" d="M372.1,205.821a4.071,4.071,0,0,0,1.134-3.046q.284-3.623.566-7.246" transform="translate(-19.647 -81.496)" fill="none" stroke="#000" stroke-miterlimit="10" stroke-width="0.5"/>
          <path id="Trazado_987805" data-name="Trazado 987805" d="M429.654,168.151a13.008,13.008,0,0,1,2.524,10.82" transform="translate(-20.512 -81.084)" fill="none" stroke="#000" stroke-miterlimit="10" stroke-width="0.5"/>
          <path id="Trazado_987806" data-name="Trazado 987806" d="M433.162,168.672a14.884,14.884,0,0,1,2.764,10.067" transform="translate(-20.565 -81.092)" fill="none" stroke="#000" stroke-miterlimit="10" stroke-width="0.5"/>
          <path id="Trazado_987807" data-name="Trazado 987807" d="M372.764,169.46a11.87,11.87,0,0,1,7-11.4" transform="translate(-19.657 -80.933)" fill="none" stroke="#000" stroke-miterlimit="10" stroke-width="0.5"/>
          <path id="Trazado_987808" data-name="Trazado 987808" d="M376.109,171.139a13.153,13.153,0,0,1,7.019-9.878" transform="translate(-19.707 -80.981)" fill="none" stroke="#000" stroke-miterlimit="10" stroke-width="0.5"/>
          <path id="Trazado_987809" data-name="Trazado 987809" d="M404.165,209.257a8.3,8.3,0,0,0-1.186-2.8" transform="translate(-20.111 -81.66)" fill="none" stroke="#000" stroke-miterlimit="10" stroke-width="0.5"/>
          <path id="Trazado_987810" data-name="Trazado 987810" d="M404.7,204.984l2.289,3.079" transform="translate(-20.137 -81.638)" fill="none" stroke="#000" stroke-miterlimit="10" stroke-width="0.5"/>
          <path id="Trazado_987811" data-name="Trazado 987811" d="M406.547,204.311a10.132,10.132,0,0,0,2.563,1.66" transform="translate(-20.165 -81.628)" fill="none" stroke="#000" stroke-miterlimit="10" stroke-width="0.5"/>
          <path id="Trazado_987812" data-name="Trazado 987812" d="M446.624,394.616s-23.876,19.65-44.461,12.164a46.74,46.74,0,0,0-2.088-6.737c-.877-2.265-1.635-3.792-1.635-3.792l-8.49,9.357s-24.989-5.851-32.012-21.3c.207-14.735,4.137-77.172,5.122-92.548,0,0,.01,0,0-.01.138-2.2.217-3.428.217-3.428s-7.427-1.9-11.288-8.116a15,15,0,0,1-2.236-6.934s-4.216-38.483,3.27-45.033,30.189-2.925,30.189-2.925-1.271,19.069,6.737,18.133,13.957-15.208,13.957-15.208,33.115,8.894,34.641,17.316c.473,2.61,1.428,17.966,2.522,37.9C443.5,327.737,446.624,394.616,446.624,394.616Z" transform="translate(-19.293 -81.929)" fill="#f2ab27"/>
          <path id="Trazado_987813" data-name="Trazado 987813" d="M378.913,284.185l1.262-18.938" transform="translate(-19.75 -82.544)" fill="none" stroke="#f49600" stroke-miterlimit="10" stroke-width="0.5"/>
          <path id="Trazado_987814" data-name="Trazado 987814" d="M382.68,284.176a157.479,157.479,0,0,0,1.945-19.772" transform="translate(-19.806 -82.531)" fill="none" stroke="#f49600" stroke-miterlimit="10" stroke-width="0.5"/>
          <path id="Trazado_987815" data-name="Trazado 987815" d="M386.7,281.258a86.511,86.511,0,0,0,1.629-17.271" transform="translate(-19.867 -82.525)" fill="none" stroke="#f49600" stroke-miterlimit="10" stroke-width="0.5"/>
          <path id="Trazado_987816" data-name="Trazado 987816" d="M393.575,275.449l1.619-16.472" transform="translate(-19.97 -82.449)" fill="none" stroke="#f49600" stroke-miterlimit="10" stroke-width="0.5"/>
          <path id="Trazado_987817" data-name="Trazado 987817" d="M368.37,365.907q1.209-16.1,3.5-32.088" transform="translate(-19.591 -83.574)" fill="none" stroke="#f49600" stroke-miterlimit="10" stroke-width="0.5"/>
          <path id="Trazado_987818" data-name="Trazado 987818" d="M373.623,363.061A170.889,170.889,0,0,1,375.99,335.9" transform="translate(-19.67 -83.606)" fill="none" stroke="#f49600" stroke-miterlimit="10" stroke-width="0.5"/>
          <path id="Trazado_987819" data-name="Trazado 987819" d="M376.545,363.139a214.038,214.038,0,0,1,1.766-22.253" transform="translate(-19.714 -83.681)" fill="none" stroke="#f49600" stroke-miterlimit="10" stroke-width="0.5"/>
          <path id="Trazado_987820" data-name="Trazado 987820" d="M405.961,354.043a111.871,111.871,0,0,1-1.16-16.067" transform="translate(-20.139 -83.637)" fill="none" stroke="#f49600" stroke-miterlimit="10" stroke-width="0.5"/>
          <path id="Trazado_987821" data-name="Trazado 987821" d="M409.36,352.388l-.9-14.406" transform="translate(-20.194 -83.637)" fill="none" stroke="#f49600" stroke-miterlimit="10" stroke-width="0.5"/>
          <path id="Trazado_987822" data-name="Trazado 987822" d="M413.479,351.134q-.793-7.414-1.588-14.829" transform="translate(-20.245 -83.612)" fill="none" stroke="#f49600" stroke-miterlimit="10" stroke-width="0.5"/>
          <path id="Trazado_987823" data-name="Trazado 987823" d="M362.163,256.619a85.455,85.455,0,0,1,2.025-17.3" transform="translate(-19.498 -82.154)" fill="none" stroke="#f49600" stroke-miterlimit="10" stroke-width="0.5"/>
          <path id="Trazado_987824" data-name="Trazado 987824" d="M418.055,372.9q.672-5.758,1.344-11.515" transform="translate(-20.338 -83.989)" fill="none" stroke="#f49600" stroke-miterlimit="10" stroke-width="0.5"/>
          <path id="Trazado_987825" data-name="Trazado 987825" d="M421.63,371.7a67.016,67.016,0,0,1,1.4-9.508" transform="translate(-20.392 -84.001)" fill="none" stroke="#f49600" stroke-miterlimit="10" stroke-width="0.5"/>
          <path id="Trazado_987826" data-name="Trazado 987826" d="M425.521,372.079q.959-4.5,1.917-9" transform="translate(-20.45 -84.014)" fill="none" stroke="#f49600" stroke-miterlimit="10" stroke-width="0.5"/>
          <path id="Trazado_987827" data-name="Trazado 987827" d="M366.45,244.476c-.1.719-.2,1.438-.286,2.147-.8,15.011-.857,30.475-3.053,45.348.138-2.2.217-3.428.217-3.428s-7.427-1.9-11.288-8.116c1.182-11.209,2.758-22.369,4.235-33.538.079-1.182.148-2.354.227-3.526.374-6.038,9.4-6.314,9.83-.788A4.753,4.753,0,0,1,366.45,244.476Z" transform="translate(-19.346 -82.144)" fill="#f29500"/>
          <path id="Trazado_987828" data-name="Trazado 987828" d="M447.41,395.519s-23.876,19.65-44.462,12.164a46.748,46.748,0,0,0-2.088-6.737c14.43-15.277,22.566-34.927,28.013-54.991,3.1-11.406,5.427-23.019,7.84-34.592,1.862-8.963,4.088-17.9,5.142-27C444.287,328.639,447.41,395.519,447.41,395.519Z" transform="translate(-20.079 -82.831)" fill="#f29500"/>
          <path id="Trazado_987829" data-name="Trazado 987829" d="M397.341,294.259a38.57,38.57,0,0,1-5.24.857,49.846,49.846,0,0,1-12.883-.286,39.175,39.175,0,0,1-26.407-15.819c3.28-8.569,2.807-17.464,0-16.764s-5.851,8.421-5.851,8.421.7-24.565-3.27-24.1c-3.654.433-2.778,14.056-2.61,16.3-.315-2.59-2.571-20.32-6.048-17.936s.7,17.05,1.32,19.168c-.768-2.236-6.471-18.468-9.751-14.184-3.418,4.5,4.748,16.528,5.132,17.1-.571-.561-11.485-11.2-12.854-6.639-1.4,4.679,10.3,11.7,10.3,11.7s0,12.411,8.185,12.411a14.376,14.376,0,0,1,1.2,2.413c3.625,7.712,15.907,31.834,45.683,40.689a79.529,79.529,0,0,0,15.3,2.925C400.079,321.917,397.341,294.259,397.341,294.259Z" transform="translate(-18.845 -82.235)" fill="#f4a398"/>
          <path id="Trazado_987830" data-name="Trazado 987830" d="M392.462,298.222q-3.073,14.612-7.427,28.889a5.287,5.287,0,0,1-.483,1.123c-29.776-8.855-42.058-32.977-45.683-40.689a5.379,5.379,0,0,1,.443.483,50.45,50.45,0,0,0,22.91,16.547c3.969,1.359,10.845,4.255,13.79.118,1.8-2.531,2.768-5.91,3.506-9.219a49.849,49.849,0,0,0,12.883.286A5.142,5.142,0,0,1,392.462,298.222Z" transform="translate(-19.148 -82.879)" fill="#f48d82"/>
          <path id="Trazado_987831" data-name="Trazado 987831" d="M448.785,295.67c-1.635,10.49-13.071,48.756-54.035,34.533-.01-2.295-.01-6.028-.01-10.283,0-11.721.01-27.333.01-27.333s20.34-3.044,23.147-21.3,1.586-23.393,1.586-23.393c5.673-3.28,14.331-8.628,20.182-3.5a6.529,6.529,0,0,1,1.113,1.359C446.116,254.016,450.312,285.85,448.785,295.67Z" transform="translate(-19.987 -82.198)" fill="#f2ab27"/>
          <path id="Trazado_987832" data-name="Trazado 987832" d="M448.785,295.723c-1.635,10.49-13.071,48.756-54.035,34.533-.01-2.295-.01-6.028-.01-10.283,15.375,1.083,28.338-15.06,35.5-26.929a62.285,62.285,0,0,0,8.156-23.826c1.074-7.653.394-15.9,2.384-23.4C446.116,254.069,450.312,285.9,448.785,295.723Z" transform="translate(-19.987 -82.252)" fill="#f49600"/>
          <path id="Trazado_987833" data-name="Trazado 987833" d="M394.75,292.675s20.342-3.042,23.15-21.293,1.581-23.4,1.581-23.4" transform="translate(-19.988 -82.284)" fill="none" stroke="#000" stroke-miterlimit="10" stroke-width="0.5"/>
          <path id="Trazado_987834" data-name="Trazado 987834" d="M439.661,244.434c5.85,5.134,10.764,40.769,9.126,51.264s-13.072,48.761-54.035,34.542" transform="translate(-19.988 -82.231)" fill="none" stroke="#000" stroke-miterlimit="10" stroke-width="0.5"/>
          <path id="Trazado_987835" data-name="Trazado 987835" d="M396.133,335.7c-1.576.67-11.879-.571-13.425-2.728a.891.891,0,0,1-.167-.315c-.7-2.334-1.635-37.9,2.344-41.408,2.137-1.891,6.757-1.576,9.1,0a.116.116,0,0,1,.049.049C396.35,293.392,397.788,335,396.133,335.7Z" transform="translate(-19.795 -82.915)" fill="#f27127"/>
          <path id="Trazado_987836" data-name="Trazado 987836" d="M396.145,335.717c-1.576.67-11.879-.571-13.425-2.728,6.048-7.121,8.894-17.02,10.086-26.742.246-4.314.483-8.638.739-12.952a5.14,5.14,0,0,1,.5-1.98C396.362,293.413,397.8,335.018,396.145,335.717Z" transform="translate(-19.807 -82.936)" fill="#ed5103"/>
          <path id="Trazado_987837" data-name="Trazado 987837" d="M365.365,258.567q-1.426,14.346-1.812,28.769" transform="translate(-19.519 -82.443)" fill="none" stroke="#000" stroke-miterlimit="10" stroke-width="0.5"/>
          <path id="Trazado_987838" data-name="Trazado 987838" d="M423.2,362.77a48.354,48.354,0,0,0,.163,11.936" transform="translate(-20.411 -84.01)" fill="none" stroke="#000" stroke-miterlimit="10" stroke-width="0.5"/>
          <path id="Trazado_987839" data-name="Trazado 987839" d="M426.618,365.611a40.2,40.2,0,0,0,.816,10.3" transform="translate(-20.466 -84.052)" fill="none" stroke="#000" stroke-miterlimit="10" stroke-width="0.5"/>
          <path id="Trazado_987840" data-name="Trazado 987840" d="M430.208,366.32a18.977,18.977,0,0,0,1.056,8.421" transform="translate(-20.519 -84.063)" fill="none" stroke="#000" stroke-miterlimit="10" stroke-width="0.5"/>
          <path id="Trazado_987841" data-name="Trazado 987841" d="M424.354,322.071a3.453,3.453,0,0,0,2.4-1.13,41.838,41.838,0,0,0,4.745-4.872" transform="translate(-20.433 -83.308)" fill="none" stroke="#000" stroke-miterlimit="10" stroke-width="0.5"/>
          <path id="Trazado_987842" data-name="Trazado 987842" d="M425.812,317.607a10.983,10.983,0,0,0,4.632-4.739" transform="translate(-20.454 -83.259)" fill="none" stroke="#000" stroke-miterlimit="10" stroke-width="0.5"/>
          <path id="Trazado_987843" data-name="Trazado 987843" d="M425.519,313.473A46.5,46.5,0,0,0,431.057,308" transform="translate(-20.45 -83.186)" fill="none" stroke="#000" stroke-miterlimit="10" stroke-width="0.5"/>
          <path id="Trazado_987844" data-name="Trazado 987844" d="M351.995,294.128a5.457,5.457,0,0,0,9.8,3.5,3.2,3.2,0,0,0,.743-2.164,1.768,1.768,0,0,0-1.43-1.623,1.851,1.851,0,0,0-1.777,1.184,4.3,4.3,0,0,0-.183,2.252,9.4,9.4,0,0,0,2.183,5.186,5.811,5.811,0,0,0,5.119,1.956,4.238,4.238,0,0,0,3.543-3.895,1.992,1.992,0,0,0-1.146-1.978,1.788,1.788,0,0,0-2.021,1.082,4.455,4.455,0,0,0-.173,2.469,9.926,9.926,0,0,0,2.536,5.816,4.992,4.992,0,0,0,5.911.982" transform="translate(-19.345 -82.973)" fill="none" stroke="#000" stroke-miterlimit="10" stroke-width="0.5"/>
          <path id="Trazado_987845" data-name="Trazado 987845" d="M418.911,197.714a9.243,9.243,0,0,1,8.539-5.213" transform="translate(-20.351 -81.45)" fill="none" stroke="#000" stroke-miterlimit="10" stroke-width="0.5"/>
          <path id="Trazado_987846" data-name="Trazado 987846" d="M320.395,259.578a3.39,3.39,0,0,1,2.324.835q5.471,3.741,10.561,8" transform="translate(-18.87 -82.458)" fill="none" stroke="#000" stroke-miterlimit="10" stroke-width="0.5"/>
          <path id="Trazado_987847" data-name="Trazado 987847" d="M328.536,249.214a9.164,9.164,0,0,1,2.364,2.9,53.3,53.3,0,0,1,5.672,13.611c.031.115.1.258.215.247s.008-.251-.038-.141" transform="translate(-18.992 -82.303)" fill="none" stroke="#000" stroke-miterlimit="10" stroke-width="0.5"/>
          <path id="Trazado_987848" data-name="Trazado 987848" d="M336.677,244.82a38.521,38.521,0,0,1,2.87,7.985,73.485,73.485,0,0,1,2.043,11.9" transform="translate(-19.115 -82.237)" fill="none" stroke="#000" stroke-miterlimit="10" stroke-width="0.5"/>
          <path id="Trazado_987849" data-name="Trazado 987849" d="M345.027,246.713a18.16,18.16,0,0,1,1.256,5.974,142.911,142.911,0,0,1,.94,18.291" transform="translate(-19.24 -82.265)" fill="none" stroke="#000" stroke-miterlimit="10" stroke-width="0.5"/>
          <path id="Trazado_987850" data-name="Trazado 987850" d="M393.138,238.329s8.743-10.437,11.179-16.326c4.5,1.086,13.038,8.163,13.038,8.163s-12.71,24.577-17.174,27.807c-6.578-8.982-8.507-13.54-8.507-13.54L386.236,255.8s-15.882-18.593-8.366-33.485c5.166-3.854,6.455-3.176,6.455-3.176S389.854,236.122,393.138,238.329Z" transform="translate(-19.703 -81.85)" fill="#efefef"/>
          <path id="Trazado_987851" data-name="Trazado 987851" d="M353.5,262.425a2.093,2.093,0,0,1,1.921,1.172,5.032,5.032,0,0,1,.475,2.313c.1,4.552-1.5,8.948-3.071,13.219" transform="translate(-19.357 -82.501)" fill="none" stroke="#000" stroke-miterlimit="10" stroke-width="0.5"/>
        </g>
        <g id="Grupo_1153214" data-name="Grupo 1153214" transform="translate(0 0)" clip-path="url(#clip-path-2)">
          <path id="Trazado_987853" data-name="Trazado 987853" d="M211.664,155.452c-5.4,4.058,2.719,9.741-2.561,13.593s4.265,4.452-3.241,12.686-16.242,1.527-16.242,1.527,2.64,7.092-1.625,9.938c-2.7,1.8-5.23.256-6.727-1.133.532,1.044.611,2.522-1.389,4.206-3.861,3.231-6.7-1.842-6.7-1.842a4.551,4.551,0,0,1-2.443,5.88c-4.058,2.029-7.505-4.038-7.505-4.038a9.4,9.4,0,0,1-1.3,5.023,8.888,8.888,0,0,1-1.468,1.881,9.945,9.945,0,0,1-1.5,1.192,9.716,9.716,0,0,1-5.112,1.468,16.03,16.03,0,0,1-2.827-.187,17.6,17.6,0,0,1-3.428-.867s-10.963,7.308-16.439-4.068c-1.832,6.294-12.795,4.107-12.184-1.4-4.669.591-11.977-.305-11.17-8.786a8.878,8.878,0,0,1-6.836-4.728,6.815,6.815,0,0,1-.463-1.349c-.818-3.428,3.851-6.885,3.044-10.638s-6.7-1.31-6.7-5.782,2.837-5.073,2.837-5.073-6.087-2.64-4.876-8.116,8.126-4.393,8.126-4.393-4.669-2.3-3.25-6.57,10.963-5.073,11.977-9.338-5.89-2.847-3.447-12.381,13.8-21.925,28.013-21.925,23.748,8.323,26.387,8.116,6.9-7.1,15.021-4.058,6.7,10.559,6.087,11.367,8.934,3.044,10.352,6.5a9.887,9.887,0,0,1,0,6.895s4.472-2.226,6.7.818A6.269,6.269,0,0,1,202,135.556s4.551-3.969,7.919,1.665a13.091,13.091,0,0,1,.808,11.327S217.052,151.384,211.664,155.452Z" transform="translate(-15.477 -80.064)" fill="#3c35f2"/>
          <path id="Trazado_987854" data-name="Trazado 987854" d="M211.761,156.136c-5.4,4.058,2.718,9.741-2.561,13.593s4.265,4.452-3.241,12.686-16.242,1.527-16.242,1.527,2.64,7.092-1.625,9.938c-2.7,1.8-5.23.256-6.727-1.133.532,1.044.611,2.522-1.389,4.206-3.861,3.231-6.7-1.842-6.7-1.842a4.551,4.551,0,0,1-2.443,5.88c-4.058,2.029-7.505-4.038-7.505-4.038a9.4,9.4,0,0,1-1.3,5.023,3.067,3.067,0,0,1-.315-.305c-.079-.079-.158-.177-.236-.266a8.269,8.269,0,0,1-.916,2.453,9.946,9.946,0,0,1-1.5,1.192,9.716,9.716,0,0,1-5.112,1.468c-.5-.128-.985-.276-1.468-.443a6.8,6.8,0,0,1-1.349.246l-.01.01a17.6,17.6,0,0,1-3.428-.867s-10.963,7.308-16.439-4.068c-1.832,6.294-12.795,4.107-12.184-1.4-4.669.591-11.977-.305-11.17-8.786a8.878,8.878,0,0,1-6.836-4.728c.059.039.108.1.167.148,2.866,2.866,7.683.611,10.913-.492,4.147-1.418,8.441-3.1,11.721-6.117,6.491-5.949,5.506-14.972,10.293-21.65,4.452-6.215,13.839-6.392,20.645-5.437a52.46,52.46,0,0,1,13.3,3.713c.837.355,5.8,3.329,8.6,4.8a72.432,72.432,0,0,0,34.868-15.651c.039-.03.069-.059.108-.089a12.36,12.36,0,0,1-.857,3.526S217.149,152.068,211.761,156.136Z" transform="translate(-15.573 -80.747)" fill="#00d"/>
          <path id="Trazado_987855" data-name="Trazado 987855" d="M176.574,176.468c-2.764,1.176-4.012,4.719-3.175,7.6a4.662,4.662,0,0,0,.784,1.616c1.366,1.713,4.292,1.558,5.8-.031a5.824,5.824,0,0,0,.832-6.155" transform="translate(-16.657 -81.209)" fill="none" stroke="#000" stroke-miterlimit="10" stroke-width="0.5"/>
          <path id="Trazado_987856" data-name="Trazado 987856" d="M133.712,178.1a4.559,4.559,0,0,0-3.663,4.4,4.984,4.984,0,0,0,3.54,4.606,3.75,3.75,0,0,0,2.316-.011,3,3,0,0,0,1.914-2.466" transform="translate(-16.009 -81.234)" fill="none" stroke="#000" stroke-miterlimit="10" stroke-width="0.5"/>
          <path id="Trazado_987857" data-name="Trazado 987857" d="M118.843,120.189a9.585,9.585,0,0,0-.721,4.785c.161,1.5.929,3.181,2.412,3.448" transform="translate(-15.829 -80.363)" fill="none" stroke="#000" stroke-miterlimit="10" stroke-width="0.5"/>
          <path id="Trazado_987858" data-name="Trazado 987858" d="M121.509,122.868a4.408,4.408,0,0,0,1.68,4.977" transform="translate(-15.877 -80.404)" fill="none" stroke="#000" stroke-miterlimit="10" stroke-width="0.5"/>
          <path id="Trazado_987859" data-name="Trazado 987859" d="M124.472,122.489a4.062,4.062,0,0,0,2.041,3.9" transform="translate(-15.925 -80.398)" fill="none" stroke="#000" stroke-miterlimit="10" stroke-width="0.5"/>
          <path id="Trazado_987860" data-name="Trazado 987860" d="M198.551,142.015a8.384,8.384,0,0,1,2.054,6.335" transform="translate(-17.039 -80.692)" fill="none" stroke="#000" stroke-miterlimit="10" stroke-width="0.5"/>
          <path id="Trazado_987861" data-name="Trazado 987861" d="M202.028,142.663a5.793,5.793,0,0,1,.927,4.682" transform="translate(-17.091 -80.701)" fill="none" stroke="#000" stroke-miterlimit="10" stroke-width="0.5"/>
          <path id="Trazado_987862" data-name="Trazado 987862" d="M204.517,142.015a8.171,8.171,0,0,1,1.43,2.61,3.447,3.447,0,0,1-.356,2.875" transform="translate(-17.128 -80.692)" fill="none" stroke="#000" stroke-miterlimit="10" stroke-width="0.5"/>
          <path id="Trazado_987863" data-name="Trazado 987863" d="M200.766,278.986s-37.064-.03-64.732-1.458c-5.22-.256-10.116-.581-14.351-.955-7.811-.689-13.435-1.586-14.9-2.728,1.418-14.814,6.087-39.576,18.872-42.019,10.608-2.019,21.472-15.533,23.846-32.859a51.509,51.509,0,0,0,.315-11.13c2.837-.059,15.631-3.172,15.631-3.172.335.571-.394,6.737-.01,12.745.246,3.979.985,7.89,2.847,10.066,4.669,5.467,9.948,10.342,25.786,10.549C198.53,228.575,200.766,278.986,200.766,278.986Z" transform="translate(-15.659 -81.333)" fill="#f4a398"/>
          <path id="Trazado_987864" data-name="Trazado 987864" d="M166.087,197.41a30.231,30.231,0,0,1-12.47,1.5,25.7,25.7,0,0,1-3.467.059,51.511,51.511,0,0,0,.315-11.13c2.837-.059,15.631-3.172,15.631-3.172C166.431,185.236,165.7,191.4,166.087,197.41Z" transform="translate(-16.311 -81.333)" fill="#f28c81"/>
          <path id="Trazado_987865" data-name="Trazado 987865" d="M137.837,266.447a106.4,106.4,0,0,0-1.576,12.036c-5.22-.256-10.116-.581-14.351-.955q3.014-12.943,7.033-25.629c1.034-3.26,5.713-5.151,8.234-2.167C141.471,254.834,139.157,260.567,137.837,266.447Z" transform="translate(-15.887 -82.288)" fill="#f28c81"/>
          <path id="Trazado_987866" data-name="Trazado 987866" d="M140.084,219.012c-.08-.868,1.107-1.387,1.9-1.032a3.818,3.818,0,0,1,1.627,1.976q1,2.015,1.991,4.031a2.41,2.41,0,0,0,1.167,1.345,1.7,1.7,0,0,0,1.8-.692,7.993,7.993,0,0,0,.9-1.848c.7-1.636,2.451-3.2,4.1-2.52,1.086.448,1.6,1.659,2.15,2.695s1.506,2.119,2.667,1.94a2.506,2.506,0,0,0,1.8-2.152c.188-.979.084-2,.311-2.973a1.794,1.794,0,0,1,1.039-1.391c1.772-.558,2.3,3.169,4.157,3.134,1.292-.024,1.671-1.812,1.39-3.074s-.752-2.765.138-3.7c1.767-.284,1.68,3.464,3.466,3.586,1.24.086,1.645-1.624,1.6-2.866q-.108-3.206-.215-6.411" transform="translate(-16.16 -81.699)" fill="none" stroke="#000" stroke-miterlimit="10" stroke-width="0.5"/>
          <path id="Trazado_987867" data-name="Trazado 987867" d="M219.4,427.033l-5.132.069-63.777.886S142.739,376.563,139.5,354.7c-.857-5.782-1.4-9.5-1.4-9.643l65.2-5.959Z" transform="translate(-16.13 -83.654)" fill="#f2ab27"/>
          <path id="Trazado_987868" data-name="Trazado 987868" d="M219.4,427.033l-5.132.069a4.7,4.7,0,0,1-.68-1.33C202.448,391.8,176.937,359.513,139.5,354.7c-.857-5.782-1.4-9.5-1.4-9.643l65.2-5.959Z" transform="translate(-16.13 -83.654)" fill="#ed970f"/>
          <path id="Trazado_987869" data-name="Trazado 987869" d="M180.388,392.942a48.907,48.907,0,0,1,9.242,15.681" transform="translate(-16.766 -84.463)" fill="none" stroke="#e28f0a" stroke-miterlimit="10" stroke-width="0.5"/>
          <path id="Trazado_987870" data-name="Trazado 987870" d="M181.685,391.244a33.126,33.126,0,0,1,8.268,10.912c.862,1.834,1.556,3.75,2.561,5.51" transform="translate(-16.785 -84.437)" fill="none" stroke="#e28f0a" stroke-miterlimit="10" stroke-width="0.5"/>
          <path id="Trazado_987871" data-name="Trazado 987871" d="M184,388.919a48.931,48.931,0,0,1,11.664,18.473" transform="translate(-16.82 -84.403)" fill="none" stroke="#e28f0a" stroke-miterlimit="10" stroke-width="0.5"/>
          <path id="Trazado_987872" data-name="Trazado 987872" d="M166.916,373.928a23.181,23.181,0,0,0,7.3,8.736" transform="translate(-16.563 -84.177)" fill="none" stroke="#e28f0a" stroke-miterlimit="10" stroke-width="0.5"/>
          <path id="Trazado_987873" data-name="Trazado 987873" d="M167.96,371.219a24.707,24.707,0,0,0,7.09,8.942" transform="translate(-16.579 -84.137)" fill="none" stroke="#e28f0a" stroke-miterlimit="10" stroke-width="0.5"/>
          <path id="Trazado_987874" data-name="Trazado 987874" d="M170.475,371a22.261,22.261,0,0,0,7.353,8.04" transform="translate(-16.617 -84.133)" fill="none" stroke="#e28f0a" stroke-miterlimit="10" stroke-width="0.5"/>
          <path id="Trazado_987875" data-name="Trazado 987875" d="M197.228,413.437a27.449,27.449,0,0,1,3.083,8.486" transform="translate(-17.019 -84.771)" fill="none" stroke="#e28f0a" stroke-miterlimit="10" stroke-width="0.5"/>
          <path id="Trazado_987876" data-name="Trazado 987876" d="M199.439,412.024a22.312,22.312,0,0,1,3.005,8.84" transform="translate(-17.052 -84.75)" fill="none" stroke="#e28f0a" stroke-miterlimit="10" stroke-width="0.5"/>
          <path id="Trazado_987877" data-name="Trazado 987877" d="M201.506,411.2a23.854,23.854,0,0,1,3.412,9.859" transform="translate(-17.083 -84.737)" fill="none" stroke="#e28f0a" stroke-miterlimit="10" stroke-width="0.5"/>
          <path id="Trazado_987878" data-name="Trazado 987878" d="M204.172,266.576v84.855s-6.284,9.337-32.268,6.087-38.768-15.228-38.768-15.228-.1-1.911-.246-5.151c-.709-15.267-2.512-60.083-.167-73.814,2.847-16.646,0-36.237,0-36.237h1.231c.63,1.123,1.615,25.885,14.4,25.274S176.7,233.077,180.424,214.2A3.624,3.624,0,0,1,183,215.623s-3.585,23.147,10.618,26.791c1.182,1.862,2.226,3.6,3.152,5.21v.01C204.664,261.346,204.172,266.576,204.172,266.576Z" transform="translate(-16.032 -81.777)" fill="#e85dcc"/>
          <path id="Trazado_987879" data-name="Trazado 987879" d="M204.192,267.086v84.855s-6.284,9.337-32.268,6.087S133.156,342.8,133.156,342.8s-.1-1.911-.246-5.151h.02c20.684,4.639,34.976-15.247,42.551-31.45,8.7-18.636,15.484-38.335,21.315-58.054C204.685,261.856,204.192,267.086,204.192,267.086Z" transform="translate(-16.052 -82.287)" fill="#db3abd"/>
          <path id="Trazado_987880" data-name="Trazado 987880" d="M139.464,327.128l-.228-9.231" transform="translate(-16.147 -83.335)" fill="none" stroke="#db3abd" stroke-miterlimit="10" stroke-width="0.5"/>
          <path id="Trazado_987881" data-name="Trazado 987881" d="M141.6,326.543a47.406,47.406,0,0,0-.117-6.977" transform="translate(-16.181 -83.36)" fill="none" stroke="#db3abd" stroke-miterlimit="10" stroke-width="0.5"/>
          <path id="Trazado_987882" data-name="Trazado 987882" d="M144.043,326.1a28.493,28.493,0,0,0,.21-8.625" transform="translate(-16.219 -83.329)" fill="none" stroke="#db3abd" stroke-miterlimit="10" stroke-width="0.5"/>
          <path id="Trazado_987883" data-name="Trazado 987883" d="M173.207,242.551a70.037,70.037,0,0,0,5.3-11.713" transform="translate(-16.658 -82.027)" fill="none" stroke="#db3abd" stroke-miterlimit="10" stroke-width="0.5"/>
          <path id="Trazado_987884" data-name="Trazado 987884" d="M176.12,242.586a92.757,92.757,0,0,0,3.237-9.044" transform="translate(-16.701 -82.067)" fill="none" stroke="#db3abd" stroke-miterlimit="10" stroke-width="0.5"/>
          <path id="Trazado_987885" data-name="Trazado 987885" d="M179.41,240.726q1.22-3.426,2.125-6.955" transform="translate(-16.751 -82.071)" fill="none" stroke="#db3abd" stroke-miterlimit="10" stroke-width="0.5"/>
          <path id="Trazado_987886" data-name="Trazado 987886" d="M139.224,253.951a5.494,5.494,0,0,0,2.325,4.15,13.021,13.021,0,0,0,4.481,1.973" transform="translate(-16.147 -82.374)" fill="none" stroke="#db3abd" stroke-miterlimit="10" stroke-width="0.5"/>
          <path id="Trazado_987887" data-name="Trazado 987887" d="M138.538,257.52a8.023,8.023,0,0,0,6.005,5.136" transform="translate(-16.137 -82.428)" fill="none" stroke="#db3abd" stroke-miterlimit="10" stroke-width="0.5"/>
          <path id="Trazado_987888" data-name="Trazado 987888" d="M137.208,261.479a6.161,6.161,0,0,0,3.026,3.169,13.256,13.256,0,0,0,4.3,1.2" transform="translate(-16.117 -82.487)" fill="none" stroke="#db3abd" stroke-miterlimit="10" stroke-width="0.5"/>
          <path id="Trazado_987889" data-name="Trazado 987889" d="M169.224,295.016a10.134,10.134,0,0,0,8.27,3.426c5.534-.2,7.361-3.426,7.361-3.426" transform="translate(-16.598 -82.991)" fill="none" stroke="#000" stroke-miterlimit="10" stroke-width="0.5"/>
          <path id="Trazado_987890" data-name="Trazado 987890" d="M169.972,134.209s-33.775-9.947-36.211,14.819-.609,32.885,6.7,37.148,23.141,7.813,32.885-10.1S169.972,134.209,169.972,134.209Z" transform="translate(-16.049 -80.545)" fill="#f4a398"/>
          <path id="Trazado_987891" data-name="Trazado 987891" d="M133.274,154.083s9.189-26.948,34.766-16.437c-.812,12.338,1.665,22.295,8.851,24.522,6.982-5.486,1.908-23.35,1.908-23.35l-7.307-8.932s-34.513-8.323-38.774,12.383S133.274,154.083,133.274,154.083Z" transform="translate(-16.023 -80.484)" fill="#3c35f2"/>
          <path id="Trazado_987892" data-name="Trazado 987892" d="M172.934,176.513s3.857,5.734,11.976,0,2.874-15.141-1.624-15.142a11.3,11.3,0,0,0-7.1,2.3Z" transform="translate(-16.654 -80.982)" fill="#f4a398"/>
          <path id="Trazado_987893" data-name="Trazado 987893" d="M138.928,154.419c.2-1.055,2.842-5.361,6.7-3.208s4.466,4.386,4.466,4.386-2.842,13.195-1.827,18.066,3.451,5.236,3.451,5.236" transform="translate(-16.142 -80.821)" fill="none" stroke="#000" stroke-miterlimit="10" stroke-width="0.5"/>
          <path id="Trazado_987894" data-name="Trazado 987894" d="M155.159,154.428s1.876-3.534,5.734-3.208,4.466,4.386,4.466,4.386" transform="translate(-16.386 -80.83)" fill="none" stroke="#000" stroke-miterlimit="10" stroke-width="0.5"/>
          <path id="Trazado_987895" data-name="Trazado 987895" d="M156.147,164.974s1.667,2.41,4.127,2.613a10.373,10.373,0,0,0,5.1-1.306" transform="translate(-16.401 -81.037)" fill="none" stroke="#000" stroke-miterlimit="10" stroke-width="0.5"/>
          <path id="Trazado_987896" data-name="Trazado 987896" d="M138.928,163.917a3.786,3.786,0,0,0,3.045,3.673c3.045.59,4.466-2.632,4.466-2.632" transform="translate(-16.142 -81.021)" fill="none" stroke="#000" stroke-miterlimit="10" stroke-width="0.5"/>
          <path id="Trazado_987897" data-name="Trazado 987897" d="M156.238,172.742a5.34,5.34,0,0,1,.4-2.438" transform="translate(-16.402 -81.117)" fill="none" stroke="#000" stroke-miterlimit="10" stroke-width="0.5"/>
          <path id="Trazado_987898" data-name="Trazado 987898" d="M159.727,172.748a3.6,3.6,0,0,0-.163-1.834" transform="translate(-16.453 -81.126)" fill="none" stroke="#000" stroke-miterlimit="10" stroke-width="0.5"/>
          <path id="Trazado_987899" data-name="Trazado 987899" d="M162.662,172.942q-.1-1.319-.2-2.64" transform="translate(-16.496 -81.117)" fill="none" stroke="#000" stroke-miterlimit="10" stroke-width="0.5"/>
          <path id="Trazado_987900" data-name="Trazado 987900" d="M137.909,173.35a18.269,18.269,0,0,0,.791-3.253" transform="translate(-16.127 -81.114)" fill="none" stroke="#000" stroke-miterlimit="10" stroke-width="0.5"/>
          <path id="Trazado_987901" data-name="Trazado 987901" d="M140.788,173.153a7.223,7.223,0,0,1,.192-2.437" transform="translate(-16.17 -81.123)" fill="none" stroke="#000" stroke-miterlimit="10" stroke-width="0.5"/>
          <path id="Trazado_987902" data-name="Trazado 987902" d="M143.256,173.766v-2.842" transform="translate(-16.207 -81.126)" fill="none" stroke="#000" stroke-miterlimit="10" stroke-width="0.5"/>
          <path id="Trazado_987903" data-name="Trazado 987903" d="M150.47,184.539a6.671,6.671,0,0,0,6.467-8.25" transform="translate(-16.316 -81.207)" fill="none" stroke="#000" stroke-miterlimit="10" stroke-width="0.5"/>
          <path id="Trazado_987904" data-name="Trazado 987904" d="M178.671,172.521a4.107,4.107,0,0,1,4.293-2.4" transform="translate(-16.74 -81.113)" fill="none" stroke="#000" stroke-miterlimit="10" stroke-width="0.5"/>
          <path id="Trazado_987905" data-name="Trazado 987905" d="M191.829,151.08c1.123.079,4.462.512,3.1,3.2-1.6,3.142-5.536.128-5.693.01.1.286,1.7,4.6-1.625,5.014-2.462.305-2.748-2.413-2.709-3.969.02-.611.079-1.054.079-1.054s-4.669,4.1-5.683,0,5.683-4.708,5.683-4.708-9.535-3.851-6.294-7.1,8.284,5.476,8.284,5.476-.414-5.5,2-6.274a2.4,2.4,0,0,1,1.5.069c4.058,1.34,0,6.412,0,6.412s6.087-3.654,6.7-.207C197.69,150.913,193.139,151.09,191.829,151.08Z" transform="translate(-16.73 -80.685)" fill="#b2f252"/>
          <path id="Trazado_987906" data-name="Trazado 987906" d="M175.106,122.888A10.635,10.635,0,0,1,181.28,133.2" transform="translate(-16.686 -80.404)" fill="none" stroke="#00d" stroke-miterlimit="10" stroke-width="1"/>
          <path id="Trazado_987907" data-name="Trazado 987907" d="M179.434,121.53a8.164,8.164,0,0,1,4.194,4.262,22.351,22.351,0,0,1,1.574,5.9" transform="translate(-16.751 -80.384)" fill="none" stroke="#00d" stroke-miterlimit="10" stroke-width="1"/>
          <path id="Trazado_987908" data-name="Trazado 987908" d="M182.611,120.683a11.023,11.023,0,0,1,5.337,9.691" transform="translate(-16.799 -80.371)" fill="none" stroke="#00d" stroke-miterlimit="10" stroke-width="1"/>
          <path id="Trazado_987909" data-name="Trazado 987909" d="M105.462,167.953a5.543,5.543,0,0,1,2.891,2.6,11.207,11.207,0,0,1,1.158,3.781" transform="translate(-15.639 -81.081)" fill="none" stroke="#00d" stroke-miterlimit="10" stroke-width="1"/>
          <path id="Trazado_987910" data-name="Trazado 987910" d="M107.946,166.6a8.892,8.892,0,0,1,4.261,6.182,2.526,2.526,0,0,1-.123,1.55" transform="translate(-15.677 -81.061)" fill="none" stroke="#00d" stroke-miterlimit="10" stroke-width="1"/>
          <path id="Trazado_987911" data-name="Trazado 987911" d="M110.242,166.006a7.993,7.993,0,0,1,4.941,6.8" transform="translate(-15.711 -81.052)" fill="none" stroke="#00d" stroke-miterlimit="10" stroke-width="1"/>
          <path id="Trazado_987912" data-name="Trazado 987912" d="M112.945,165.554c2.379.683,3.89,3,4.858,5.281.213.5.347,1.207-.125,1.475" transform="translate(-15.752 -81.045)" fill="none" stroke="#00d" stroke-miterlimit="10" stroke-width="1"/>
          <path id="Trazado_987913" data-name="Trazado 987913" d="M114.408,151.044l-.6.4a9.2,9.2,0,0,1-.762-7.977" transform="translate(-15.745 -80.713)" fill="none" stroke="#00d" stroke-miterlimit="10" stroke-width="1"/>
          <path id="Trazado_987914" data-name="Trazado 987914" d="M117.231,151.891c-.538-.076-.88-.607-1.1-1.1a9.51,9.51,0,0,1-.23-7.14" transform="translate(-15.787 -80.716)" fill="none" stroke="#00d" stroke-miterlimit="10" stroke-width="1"/>
          <path id="Trazado_987915" data-name="Trazado 987915" d="M119.51,152.047a7.338,7.338,0,0,1-.928-8.222" transform="translate(-15.824 -80.719)" fill="none" stroke="#00d" stroke-miterlimit="10" stroke-width="1"/>
          <path id="Trazado_987916" data-name="Trazado 987916" d="M122.71,152.488a8.711,8.711,0,0,1-.34-9.678" transform="translate(-15.874 -80.703)" fill="none" stroke="#00d" stroke-miterlimit="10" stroke-width="1"/>
          <path id="Trazado_987917" data-name="Trazado 987917" d="M150.155,108.816a13.729,13.729,0,0,1,9.035,7.451" transform="translate(-16.311 -80.192)" fill="none" stroke="#00d" stroke-miterlimit="10" stroke-width="1"/>
          <path id="Trazado_987918" data-name="Trazado 987918" d="M150.115,112.35a17.646,17.646,0,0,1,6.862,6.045" transform="translate(-16.311 -80.246)" fill="none" stroke="#00d" stroke-miterlimit="10" stroke-width="1"/>
          <path id="Trazado_987919" data-name="Trazado 987919" d="M148.662,115.756a12.848,12.848,0,0,1,6.115,5.675" transform="translate(-16.289 -80.297)" fill="none" stroke="#00d" stroke-miterlimit="10" stroke-width="1"/>
          <path id="Trazado_987920" data-name="Trazado 987920" d="M147.5,119.395a14.68,14.68,0,0,1,5.757,6.856" transform="translate(-16.271 -80.352)" fill="none" stroke="#00d" stroke-miterlimit="10" stroke-width="1"/>
          <path id="Trazado_987921" data-name="Trazado 987921" d="M171.956,125.515a2.228,2.228,0,0,1,2.021.879,13.552,13.552,0,0,1,3.865,9.294" transform="translate(-16.639 -80.443)" fill="none" stroke="#00d" stroke-miterlimit="10" stroke-width="1"/>
          <path id="Trazado_987922" data-name="Trazado 987922" d="M191.934,151.08c1.123.079,4.462.512,3.1,3.2-1.6,3.142-5.536.128-5.693.01.1.286,1.7,4.6-1.625,5.014-2.462.305-2.748-2.413-2.709-3.969,3.467-2,4.629-9.19,4.117-12.4a5.006,5.006,0,0,1-.049-1.261,2.4,2.4,0,0,1,1.5.069c4.058,1.34,0,6.412,0,6.412s6.087-3.654,6.7-.207C197.795,150.913,193.244,151.09,191.934,151.08Z" transform="translate(-16.835 -80.685)" fill="#9bdb2c"/>
        </g>
        <g id="Grupo_1153215" data-name="Grupo 1153215" transform="translate(0 0)" clip-path="url(#clip-path-2)">
          <path id="Trazado_987924" data-name="Trazado 987924" d="M143.879,283.038s22.315,91.255,26.437,128.738c-11.112.528-13.218,0-13.218,0s-29.707-107.8-25.225-115.414S143.879,283.038,143.879,283.038Z" transform="translate(-16.029 -82.811)" fill="#f28f6b"/>
          <path id="Trazado_987925" data-name="Trazado 987925" d="M89.051,305.756c-25.58-7.643-7.919-26.87-5.476-36.483.857-3.369.5-8.51-.315-13.75a158.635,158.635,0,0,0-3.95-17.454c-.424-1.477-.689-2.354-.689-2.354l22.408,3.408s.069.689.236,1.852a98.6,98.6,0,0,0,4.1,18.311c1.842,5.161,4.334,9.426,7.643,9.988,8.934,1.527,24.151,7.042,24.151,7.042C140.811,280.856,114.631,313.4,89.051,305.756Z" transform="translate(-15.187 -82.1)" fill="#f28f6b"/>
          <path id="Trazado_987926" data-name="Trazado 987926" d="M118.477,292.682A4.491,4.491,0,0,0,115.782,291a62.879,62.879,0,0,1-28.99-15.486c-1.262-1.923-2.447-3.9-3.555-5.925-3.031-5.527-11.453-.652-8.552,4.875a3.948,3.948,0,0,0,.635,3.179c.02.177.025.349.061.533,1.907,9.795,13.766,16.734,21.47,21.79,4.438,2.913,9.847,6.341,15.19,7.19,5.7.905,7.973-4.094,9.442-8.728A4.407,4.407,0,0,0,118.477,292.682Z" transform="translate(-15.168 -82.572)" fill="#ef7550"/>
          <path id="Trazado_987927" data-name="Trazado 987927" d="M105.422,259.321c-7.84,1.911-15.346.108-22.1-3.763A158.638,158.638,0,0,0,79.37,238.1c.01.01.01.01.02.01.65.246,1.3.483,1.95.719a4.207,4.207,0,0,1,2.709-.591c5.8.571,11.485,2.315,17.276,2.768A98.6,98.6,0,0,0,105.422,259.321Z" transform="translate(-15.247 -82.136)" fill="#ef7550"/>
          <path id="Trazado_987928" data-name="Trazado 987928" d="M161.633,413.269S119.2,445.3,81.85,420.824c-.2-18.311,0-38.217,0-38.217l-7.21-56.37-1.31-10.214L55.67,312.359s6.7-36.72,23.541-37.468c1.428,15.73,26.929,27.185,26.929,27.185s6.067-12.775,4.9-35.222c6.954-3,29.48,3.181,33.548,16.676-6.1,12.125-12.588,15.139-12.184,16.607s4.462,8.618,4.462,17.286c0,6.264,12.933,53.5,20.1,79.241C159.722,406.552,161.633,413.269,161.633,413.269Z" transform="translate(-14.891 -82.557)" fill="#ae7ef2"/>
          <path id="Trazado_987929" data-name="Trazado 987929" d="M161.922,414.181s-42.432,32.031-79.783,7.555c-.2-18.311,0-38.217,0-38.217l-7.21-56.37c2.827-1.162,7,.305,7.279,4.354,1.349,19.906,9.879,38.916,26.4,50.716,14.3,10.214,31.381,14.4,48.648,15.356C160.012,407.464,161.922,414.181,161.922,414.181Z" transform="translate(-15.181 -83.468)" fill="#925de8"/>
          <path id="Trazado_987930" data-name="Trazado 987930" d="M89.681,396.219q-.459-5.477-.92-10.953" transform="translate(-15.388 -84.348)" fill="none" stroke="#000" stroke-miterlimit="10" stroke-width="0.5"/>
          <path id="Trazado_987931" data-name="Trazado 987931" d="M92.546,395.228a39.157,39.157,0,0,1-.825-8.526" transform="translate(-15.433 -84.369)" fill="none" stroke="#000" stroke-miterlimit="10" stroke-width="0.5"/>
          <path id="Trazado_987932" data-name="Trazado 987932" d="M95.45,395.621a56.51,56.51,0,0,1-.636-9.538" transform="translate(-15.479 -84.36)" fill="none" stroke="#000" stroke-miterlimit="10" stroke-width="0.5"/>
          <path id="Trazado_987933" data-name="Trazado 987933" d="M127.3,223.368c-.059,2.768-.246,4.482-.246,4.482l-14.9,3.812-48.638,12.43s-5.476-3.044-10.953-20.8,12.578-38.473,28.82-43.989,29.027-.975,38.571,12.814C126.831,202.053,127.481,216.227,127.3,223.368Z" transform="translate(-14.829 -81.217)" fill="#f2ab27"/>
          <path id="Trazado_987934" data-name="Trazado 987934" d="M128.045,223.536c-.059,2.768-.246,4.482-.246,4.482l-14.9,3.812a44.582,44.582,0,0,1-1.32-10.283,4.65,4.65,0,0,1,.522-2.206,57.544,57.544,0,0,0-2.384-8.687,83.176,83.176,0,0,0-7.368-13.159,4.745,4.745,0,0,1-.847-2.118c-2.778-4.482,4.5-9.869,7.929-5.683A104.3,104.3,0,0,1,128.045,223.536Z" transform="translate(-15.571 -81.385)" fill="#ea9206"/>
          <path id="Trazado_987935" data-name="Trazado 987935" d="M78.573,234.184A12.355,12.355,0,0,0,83.6,240.52" transform="translate(-15.235 -82.077)" fill="none" stroke="#000" stroke-miterlimit="10" stroke-width="0.5"/>
          <path id="Trazado_987936" data-name="Trazado 987936" d="M82.689,232.838A13.432,13.432,0,0,0,89,239.164" transform="translate(-15.297 -82.057)" fill="none" stroke="#000" stroke-miterlimit="10" stroke-width="0.5"/>
          <path id="Trazado_987937" data-name="Trazado 987937" d="M101.983,330.33a12.4,12.4,0,0,0,9.552-2.587,20.3,20.3,0,0,0,6-8.1" transform="translate(-15.587 -83.361)" fill="none" stroke="#000" stroke-miterlimit="10" stroke-width="0.5"/>
          <path id="Trazado_987938" data-name="Trazado 987938" d="M93.436,242.622s13.4-.2,19.082-9.338-1.217-30.855-1.217-30.855S101.151,185,93.437,187.423,65.018,195.441,71.108,216.9,83.9,243.434,93.436,242.622Z" transform="translate(-15.106 -81.371)" fill="#f28f6b"/>
          <path id="Trazado_987939" data-name="Trazado 987939" d="M84.6,208.4a4.693,4.693,0,0,1,7.861-2.068" transform="translate(-15.326 -81.637)" fill="none" stroke="#000" stroke-miterlimit="10" stroke-width="0.5"/>
          <path id="Trazado_987940" data-name="Trazado 987940" d="M106.531,202.035a6.539,6.539,0,0,0-1.449-.12,8.288,8.288,0,0,0-3.453.464,2.831,2.831,0,0,0-1.817,2.727" transform="translate(-15.554 -81.592)" fill="none" stroke="#000" stroke-miterlimit="10" stroke-width="0.5"/>
          <path id="Trazado_987941" data-name="Trazado 987941" d="M99.392,209.869a49.6,49.6,0,0,0,4.636,11.254,7.453,7.453,0,0,1,.99,2.274,2.3,2.3,0,0,1-.72,2.255" transform="translate(-15.548 -81.711)" fill="none" stroke="#000" stroke-miterlimit="10" stroke-width="0.5"/>
          <path id="Trazado_987942" data-name="Trazado 987942" d="M94.329,225.3a6.766,6.766,0,0,0,8.016,5.179" transform="translate(-15.472 -81.943)" fill="none" stroke="#000" stroke-miterlimit="10" stroke-width="0.5"/>
          <ellipse id="Elipse_11552" data-name="Elipse 11552" cx="1.135" cy="2.699" rx="1.135" ry="2.699" transform="translate(73.485 133.349)"/>
          <ellipse id="Elipse_11553" data-name="Elipse 11553" cx="1.135" cy="2.699" rx="1.135" ry="2.699" transform="translate(88.382 129.334)"/>
          <path id="Trazado_987943" data-name="Trazado 987943" d="M87.3,192.321c-.406,1.23-20.013,25.589,6.741,46.9-5.32,2.233-30.491,5.075-30.491,5.075s-17.351-28.373-7.154-43.62S87.3,192.321,87.3,192.321Z" transform="translate(-14.854 -81.424)" fill="#f2ab27"/>
          <path id="Trazado_987944" data-name="Trazado 987944" d="M64.879,235.045a13.962,13.962,0,0,0,3.044,7.241,3.3,3.3,0,0,0,2.5,1.5" transform="translate(-15.029 -82.09)" fill="none" stroke="#000" stroke-miterlimit="10" stroke-width="0.5"/>
          <path id="Trazado_987945" data-name="Trazado 987945" d="M68.651,234.4a16.442,16.442,0,0,0,5.025,8.379" transform="translate(-15.086 -82.08)" fill="none" stroke="#000" stroke-miterlimit="10" stroke-width="0.5"/>
          <path id="Trazado_987946" data-name="Trazado 987946" d="M72.744,233.378a15.211,15.211,0,0,0,4.9,7.509" transform="translate(-15.148 -82.065)" fill="none" stroke="#000" stroke-miterlimit="10" stroke-width="0.5"/>
          <path id="Trazado_987947" data-name="Trazado 987947" d="M116.717,207.905s-27.4-7.371-31.87-15.072c-1.415-2.441-7.034-1.573-5.277-3.322,3.784-3.772,21.986-8.677,27.811-2.485C115.9,196.09,116.717,207.905,116.717,207.905Z" transform="translate(-15.245 -81.324)" fill="#f2ab27"/>
          <path id="Trazado_987948" data-name="Trazado 987948" d="M99.866,316.3c.2,8.323-2.039,63.944-31.47,56.232-23.59-6.186-16.272-46.018-12.44-61.59.946-3.861,1.684-6.235,1.684-6.235l17.375,4.689s1.133,3.753,2.206,8.234c1.044,4.3,2.029,9.288,1.931,12.273,3.654-6.294,3.654-33.292,1.221-35.3s-7.919-10.372-2.837-20.675,15.218-6.55,19.887-1.477,2.64,18.478,1.014,22.152S99.66,307.976,99.866,316.3Z" transform="translate(-14.833 -82.576)" fill="#f28f6b"/>
          <path id="Trazado_987949" data-name="Trazado 987949" d="M79.453,330.851s-1.218,4.06-7.917,12.789" transform="translate(-15.13 -83.53)" fill="none" stroke="#000" stroke-miterlimit="10" stroke-width="0.5"/>
          <path id="Trazado_987950" data-name="Trazado 987950" d="M62.8,358.679a9.119,9.119,0,0,0,3.768,5.526,7.169,7.169,0,0,0,6.548.7" transform="translate(-14.998 -83.948)" fill="none" stroke="#000" stroke-miterlimit="10" stroke-width="0.5"/>
          <path id="Trazado_987951" data-name="Trazado 987951" d="M66.457,357.737a12.568,12.568,0,0,0,4.346,3.789c1.031.543,2.389.907,3.288.167" transform="translate(-15.053 -83.934)" fill="none" stroke="#000" stroke-miterlimit="10" stroke-width="0.5"/>
          <path id="Trazado_987952" data-name="Trazado 987952" d="M69.391,355.836a6.224,6.224,0,0,0,7.165,2.727" transform="translate(-15.097 -83.905)" fill="none" stroke="#000" stroke-miterlimit="10" stroke-width="0.5"/>
          <path id="Trazado_987953" data-name="Trazado 987953" d="M81.552,259.953s-17.615,2.168-18.755,9.2,3.39,25.1,7.418,23.682,2.9-6.914,2.9-6.914,1.735,4.9,4.172,3.976,2.032-6.4,2.032-6.4,1.745,4.409,4.466,3.388S85,281.268,85,281.268s1.561,5.481,3.826,3.654.46-10.353.46-10.353,3.794,1.421,5.032-2.233S88.175,258.65,81.552,259.953Z" transform="translate(-14.995 -82.462)" fill="#f4a398"/>
          <path id="Trazado_987954" data-name="Trazado 987954" d="M73.38,287.629,70.891,278.3" transform="translate(-15.12 -82.74)" fill="none" stroke="#000" stroke-miterlimit="10" stroke-width="0.5"/>
          <path id="Trazado_987955" data-name="Trazado 987955" d="M79.809,284.375a78.781,78.781,0,0,1-2.319-9.783" transform="translate(-15.219 -82.684)" fill="none" stroke="#000" stroke-miterlimit="10" stroke-width="0.5"/>
          <path id="Trazado_987956" data-name="Trazado 987956" d="M85.715,283.479q-1.547-5.778-3.092-11.558" transform="translate(-15.296 -82.644)" fill="none" stroke="#000" stroke-miterlimit="10" stroke-width="0.5"/>
          <path id="Trazado_987957" data-name="Trazado 987957" d="M89.671,274.784a33.92,33.92,0,0,0-3.491-9.734" transform="translate(-15.35 -82.541)" fill="none" stroke="#000" stroke-miterlimit="10" stroke-width="0.5"/>
          <path id="Trazado_987958" data-name="Trazado 987958" d="M77.285,318.2a5.7,5.7,0,0,1-3,.315c-6.639-1-12.5-3.841-18.261-7,.946-3.861,1.684-6.235,1.684-6.235l17.375,4.689S76.212,313.716,77.285,318.2Z" transform="translate(-14.896 -83.145)" fill="#ef7550"/>
          <path id="Trazado_987959" data-name="Trazado 987959" d="M139.4,377.526a89.919,89.919,0,0,0-2.263-14.625" transform="translate(-16.115 -84.011)" fill="none" stroke="#925de8" stroke-miterlimit="10" stroke-width="0.5"/>
          <path id="Trazado_987960" data-name="Trazado 987960" d="M142.754,377.055q-1.514-6.569-2.759-13.2" transform="translate(-16.158 -84.026)" fill="none" stroke="#925de8" stroke-miterlimit="10" stroke-width="0.5"/>
          <path id="Trazado_987961" data-name="Trazado 987961" d="M145.422,376.154q-1.188-6.66-2.748-13.247" transform="translate(-16.199 -84.012)" fill="none" stroke="#925de8" stroke-miterlimit="10" stroke-width="0.5"/>
          <path id="Trazado_987962" data-name="Trazado 987962" d="M122.66,280.613c4.806,6.171,6.742,14.172,11.41,20.447" transform="translate(-15.898 -82.775)" fill="none" stroke="#925de8" stroke-miterlimit="10" stroke-width="0.5"/>
          <path id="Trazado_987963" data-name="Trazado 987963" d="M129.493,279.176a15.135,15.135,0,0,0,4.7,6.028" transform="translate(-16.001 -82.753)" fill="none" stroke="#925de8" stroke-miterlimit="10" stroke-width="0.5"/>
          <path id="Trazado_987964" data-name="Trazado 987964" d="M131.336,278.252a13.916,13.916,0,0,0,4.492,5.333" transform="translate(-16.028 -82.739)" fill="none" stroke="#925de8" stroke-miterlimit="10" stroke-width="0.5"/>
          <path id="Trazado_987965" data-name="Trazado 987965" d="M105.117,366.045a56.8,56.8,0,0,1-.247-7.079" transform="translate(-15.63 -83.952)" fill="none" stroke="#925de8" stroke-miterlimit="10" stroke-width="0.5"/>
          <path id="Trazado_987966" data-name="Trazado 987966" d="M107.627,366.512a51.762,51.762,0,0,0-.109-6.859" transform="translate(-15.67 -83.963)" fill="none" stroke="#925de8" stroke-miterlimit="10" stroke-width="0.5"/>
          <path id="Trazado_987967" data-name="Trazado 987967" d="M72.6,297.716a87.053,87.053,0,0,0,2.916,12.847" transform="translate(-15.146 -83.032)" fill="none" stroke="#925de8" stroke-miterlimit="10" stroke-width="0.5"/>
          <path id="Trazado_987968" data-name="Trazado 987968" d="M61.479,227.2a30.554,30.554,0,0,1-2.268-19.8,15.727,15.727,0,0,1,2.359-5.76" transform="translate(-14.933 -81.588)" fill="none" stroke="#ea9000" stroke-miterlimit="10" stroke-width="1"/>
          <path id="Trazado_987969" data-name="Trazado 987969" d="M64.079,226.632a51.777,51.777,0,0,1-1.656-13.076,23.28,23.28,0,0,1,3.7-12.5" transform="translate(-14.992 -81.579)" fill="none" stroke="#ea9000" stroke-miterlimit="10" stroke-width="1"/>
          <path id="Trazado_987970" data-name="Trazado 987970" d="M68.23,226.162a33.465,33.465,0,0,1,.781-24.932" transform="translate(-15.049 -81.581)" fill="none" stroke="#ea9000" stroke-miterlimit="10" stroke-width="1"/>
          <path id="Trazado_987971" data-name="Trazado 987971" d="M72.988,226.233a29.861,29.861,0,0,1,.366-23.075" transform="translate(-15.119 -81.61)" fill="none" stroke="#ea9000" stroke-miterlimit="10" stroke-width="1"/>
          <path id="Trazado_987972" data-name="Trazado 987972" d="M76.886,203.383a38.55,38.55,0,0,0,5.566,31.936c.393.558,1.1,1.169,1.663.78" transform="translate(-15.19 -81.614)" fill="none" stroke="#ea9000" stroke-miterlimit="10" stroke-width="1"/>
          <path id="Trazado_987973" data-name="Trazado 987973" d="M90.375,188.152a36.218,36.218,0,0,0,17.244,11.79" transform="translate(-15.413 -81.385)" fill="none" stroke="#ea9000" stroke-miterlimit="10" stroke-width="1"/>
          <path id="Trazado_987974" data-name="Trazado 987974" d="M95.125,186.67c1.831,2.895,4.8,4.843,7.676,6.7,2.118,1.368,4.451,2.792,6.96,2.551" transform="translate(-15.484 -81.363)" fill="none" stroke="#ea9000" stroke-miterlimit="10" stroke-width="1"/>
          <path id="Trazado_987975" data-name="Trazado 987975" d="M100.475,184.808c.235,1.081,1.418,1.623,2.455,2.007l5.949,2.2" transform="translate(-15.564 -81.335)" fill="none" stroke="#ea9000" stroke-miterlimit="10" stroke-width="1"/>
          <path id="Trazado_987976" data-name="Trazado 987976" d="M108.727,185.406a32.632,32.632,0,0,1,9.5,9.272,12.394,12.394,0,0,1,2.2,4.978" transform="translate(-15.689 -81.344)" fill="none" stroke="#ea9000" stroke-miterlimit="10" stroke-width="1"/>
        </g>
        <g id="Grupo_1153221" data-name="Grupo 1153221" transform="translate(0 0)" clip-path="url(#clip-path-2)">
          <path id="Trazado_987978" data-name="Trazado 987978" d="M306.883,438.564s-23.657,0-28.533,2.645c-1.625-13.4-8.924-28.21-8.924-28.21s-17.867-1.428-23.886-1.625c-2.571,6.7,1.143,33.489,1.143,33.489a75.3,75.3,0,0,1-33.4-9.682c-1.576-.877-3.172-1.842-4.757-2.906-6.9-17.454-3.388-63.668-2.847-63.334,23.551,14.42,81.6,1.625,87.495-2.226a133.15,133.15,0,0,1,3.96,15.878C300.935,401.731,306.883,438.564,306.883,438.564Z" transform="translate(-17.125 -84.069)" fill="#3c35f2"/>
          <path id="Trazado_987979" data-name="Trazado 987979" d="M297.133,382.593c-15.543,6.974-33.765,8.284-50.421,9.209-6.412.364-12.834.5-19.266.483a91.305,91.305,0,0,0-9.288.187c-3.575.364-5.2.709-5.585,4.432a157.036,157.036,0,0,0,.709,36.867,5.176,5.176,0,0,1,0,1.408c-1.576-.877-3.172-1.842-4.757-2.906-6.9-17.454-3.388-63.668-2.847-63.333,23.551,14.42,81.6,1.625,87.495-2.226A133.143,133.143,0,0,1,297.133,382.593Z" transform="translate(-17.125 -84.069)" fill="#1212dd"/>
          <path id="Trazado_987980" data-name="Trazado 987980" d="M291.838,422.392a4.711,4.711,0,0,1-1.929-2.176c-1.549-3.351.178-7.2.6-10.871a15.284,15.284,0,0,0-2.734-10.539" transform="translate(-18.38 -84.551)" fill="none" stroke="#0b0bb5" stroke-miterlimit="10" stroke-width="0.5"/>
          <path id="Trazado_987981" data-name="Trazado 987981" d="M295.511,420.861a12.379,12.379,0,0,1-1.159-7.057c.264-1.983,1.009-3.884,1.2-5.875.4-4.219-1.712-8.254-4.077-11.771" transform="translate(-18.435 -84.511)" fill="none" stroke="#0b0bb5" stroke-miterlimit="10" stroke-width="0.5"/>
          <path id="Trazado_987982" data-name="Trazado 987982" d="M220.853,431.358c-1.083-2.345-2.151-4.865-1.8-7.424s2.08-4.811,2.146-7.385c.072-2.809-1.827-5.238-3.627-7.4" transform="translate(-17.324 -84.707)" fill="none" stroke="#0b0bb5" stroke-miterlimit="10" stroke-width="0.5"/>
          <path id="Trazado_987983" data-name="Trazado 987983" d="M223.8,427.994a10.434,10.434,0,0,1-.788-7.562c.564-2.012,1.742-3.874,1.872-5.96.16-2.57-1.291-4.932-2.686-7.1" transform="translate(-17.394 -84.68)" fill="none" stroke="#0b0bb5" stroke-miterlimit="10" stroke-width="0.5"/>
          <path id="Trazado_987984" data-name="Trazado 987984" d="M212.5,381.145a30.61,30.61,0,0,0,1.28,13.067" transform="translate(-17.245 -84.286)" fill="none" stroke="#0b0bb5" stroke-miterlimit="10" stroke-width="0.5"/>
          <path id="Trazado_987985" data-name="Trazado 987985" d="M215.625,382.687a47.944,47.944,0,0,0,1.644,10.228" transform="translate(-17.295 -84.309)" fill="none" stroke="#0b0bb5" stroke-miterlimit="10" stroke-width="0.5"/>
          <path id="Trazado_987986" data-name="Trazado 987986" d="M290.2,378.523a31.577,31.577,0,0,1,2.9,9.735" transform="translate(-18.416 -84.246)" fill="none" stroke="#0b0bb5" stroke-miterlimit="10" stroke-width="0.5"/>
          <path id="Trazado_987987" data-name="Trazado 987987" d="M293.551,379.317l2.423,9.73" transform="translate(-18.467 -84.258)" fill="none" stroke="#0b0bb5" stroke-miterlimit="10" stroke-width="0.5"/>
          <path id="Trazado_987988" data-name="Trazado 987988" d="M302.085,254.347a25.735,25.735,0,0,1-2.906,6.107c-9.633,14.755-30.426,17.976-46.579,18.557-12.736.453-21.719-3.457-34.336-5.23-9.554-.9-19.552-5.408-25.757-12.883a22.022,22.022,0,0,1-4.285-21.187c1.862-5.388,5.969-10.431,5.082-16.065-.749-4.748-4.984-8.55-5.1-13.356-.089-3.487,1.96-6.392,4.137-9.259,1.034-1.369,2.1-2.719,2.975-4.127,9.032-14.479-.03-33.824,12.371-47.19,9.613-10.362,25.57-11.948,38.867-10.884a86.951,86.951,0,0,1,13.78,2.226c5.063,1.251,10.116,2.955,14.321,6.038s7.5,7.732,7.949,12.923c.591,6.924-3.812,13.76-2.384,20.566,1.409,6.717,8.087,11.317,9.672,18,1.2,5.053-.749,10.382-.02,15.523,1.064,7.5,7.417,13,10.815,19.768A27.241,27.241,0,0,1,302.085,254.347Z" transform="translate(-16.867 -80.639)" fill="#8192ff"/>
          <path id="Trazado_987989" data-name="Trazado 987989" d="M269.062,197.833a74.332,74.332,0,0,0-2.295-17.208,3.434,3.434,0,0,0-2.927-2.863c-2.266-1.738-6.262-.559-6.11,3.1.209,5,.569,9.992,1.137,14.964q.375,3.281.837,6.55c.1.725.276,1.51.438,2.311-.094,1.269-.22,2.538-.39,3.807a5.221,5.221,0,0,0,.036,1.653c-1.253,1.738-3.362,2.363-5.922,3.28a31.1,31.1,0,0,1-10.831,2.187c-7.425-.154-11.272-7.229-13.248-14a38.43,38.43,0,0,1-.148-20.733q.083-.266.142-.536c.013-.046.024-.093.036-.138h-.008c.048-.244.087-.487.11-.72.011-.115.023-.23.035-.347a3.3,3.3,0,0,0-2.387-3.683,8.8,8.8,0,0,1,.149-4.965c1.309-4.655-4.524-6.552-6.936-3.095-2.855,4.093-2.6,10.2-2.895,15.065q-.072,1.214-.118,2.427c-.976,7.547-1.109,15.185,1.229,22.488,3.211,10.025,10.7,17.734,20.758,19.43a26.642,26.642,0,0,0,25.309-10.341,8.988,8.988,0,0,0,2.362-3.511C269.07,208.458,269.116,202.585,269.062,197.833Z" transform="translate(-17.317 -81.046)" fill="#3a76ff"/>
          <path id="Trazado_987990" data-name="Trazado 987990" d="M302.156,255.1a25.736,25.736,0,0,1-2.906,6.107c-9.633,14.755-30.426,17.976-46.579,18.557-12.736.453-21.719-3.457-34.336-5.23-9.554-.9-19.552-5.408-25.757-12.883a22.022,22.022,0,0,1-4.285-21.187c1.862-5.388,5.969-10.431,5.082-16.065-.749-4.748-4.984-8.55-5.1-13.356-.089-3.487,1.96-6.392,4.137-9.259,1.271,10.529,7.85,21.177,14.164,28.879a82.256,82.256,0,0,0,26.3,21.118C254.257,262.693,279.758,263.086,302.156,255.1Z" transform="translate(-16.868 -81.59)" fill="#3a76ff"/>
          <path id="Trazado_987991" data-name="Trazado 987991" d="M219.084,182.46s-11.582-1.6-10.215,7.7,10.415,5.815,10.415,5.815Z" transform="translate(-17.192 -81.298)" fill="#fcbfb9"/>
          <path id="Trazado_987992" data-name="Trazado 987992" d="M267.157,185.69s7.384-6.12,10.392,0,1.367,11.315-3.555,13.777-8.2,0-8.2,0Z" transform="translate(-18.049 -81.307)" fill="#fcbfb9"/>
          <path id="Trazado_987993" data-name="Trazado 987993" d="M284.314,238.14c-23.748,13.2-57.443,16.853-61.3-4.876,8.934-1.015,11.721-1.665,11.721-1.665v-4.905a23.019,23.019,0,0,0,3,.492,41.652,41.652,0,0,0,11.849.867,35.121,35.121,0,0,0,6.1-.965l.01.089S274.78,230.635,284.314,238.14Z" transform="translate(-17.406 -81.964)" fill="#fcbfb9"/>
          <path id="Trazado_987994" data-name="Trazado 987994" d="M255.86,229.03a30.475,30.475,0,0,1-6.1,1.127,35.862,35.862,0,0,1-11.849-1.012,19.98,19.98,0,0,1-3-.575V216.1l1.99-.184,15.218-1.449,2.738-.265Z" transform="translate(-17.585 -81.777)" fill="#f7a8a4"/>
          <path id="Trazado_987995" data-name="Trazado 987995" d="M294.234,358.824l1.083,8.825s-27.806,16.646-34.71,19.079c-6.087-9.338-7.1-11.367-7.1-11.367l-5.683,9.741s-27.816,3.044-45.072-16.843c-1.074-10.963-1.507-39.96-1.694-62.053-.128-15.553-.128-27.678-.128-27.678L185.09,267.566s2.2-26.584,44.058-37.754c.857-.227,17.454,13.6,17.454,13.6l12.381-17.05s19.9,1.625,30.445,12.588,20.911,51.356,20.911,51.356l-23.344,9.535Z" transform="translate(-16.836 -81.959)" fill="#fff7ff"/>
          <path id="Trazado_987996" data-name="Trazado 987996" d="M295.562,368.867s-27.806,16.646-34.71,19.079c-6.087-9.337-7.1-11.367-7.1-11.367l-5.683,9.741s-27.816,3.044-45.072-16.843c-1.074-10.963-1.507-39.96-1.694-62.053a4.836,4.836,0,0,1,.719,1.8c2.059,10.47,8.313,18.675,15.3,26.476a101.13,101.13,0,0,0,21.709,18.685c16.469,10.2,37.488,14.154,55.454,5.654Z" transform="translate(-17.08 -83.178)" fill="#e5e5e5" opacity="0.6"/>
          <path id="Trazado_987997" data-name="Trazado 987997" d="M322.668,399.855s-10.756-27.185-17.68-42.925-15.2-56.271-15.2-56.99c0,0,15.631-9.534,19.286-12.164q1.935,5.1,3.713,10.3c14.873,43.526,21.719,90.824,22.467,97.01.818,6.668,9.141,38.384,9.141,38.384H311.912s.207-3.812,2.236-16.449c1.31-8.165,4.482-12.943,6.58-15.306A12.181,12.181,0,0,1,322.668,399.855Z" transform="translate(-18.41 -82.882)" fill="#fcbfb9"/>
          <path id="Trazado_987998" data-name="Trazado 987998" d="M320.728,401.716a12.182,12.182,0,0,1,1.94-1.862s-10.756-27.185-17.68-42.925-15.2-56.271-15.2-56.99c0,0,15.631-9.534,19.286-12.164q1.935,5.1,3.713,10.3c-7.821,11.189-7.85,27.638-6.658,40.512a132.632,132.632,0,0,0,5.7,27.274c.256.719.512,1.448.768,2.167,2.925,8.008,6.136,15.917,9.2,23.748.1.227.187.453.276.67a4.439,4.439,0,0,1,.227.63c.394.995.778,1.99,1.152,2.975C324.481,398.732,322.9,400.849,320.728,401.716Z" transform="translate(-18.41 -82.882)" fill="#f7a8a4"/>
          <path id="Trazado_987999" data-name="Trazado 987999" d="M286.49,297.684l26.8-12.586s2.436,6.5,1.624,8.729-26.592,11.57-27.4,10.759S286.49,297.684,286.49,297.684Z" transform="translate(-18.36 -82.842)" fill="#8192ff"/>
          <path id="Trazado_988000" data-name="Trazado 988000" d="M315.19,329.32q.264,1.3.53,2.605a3.976,3.976,0,0,0,1.047,2.337" transform="translate(-18.792 -83.507)" fill="none" stroke="#000" stroke-miterlimit="10" stroke-width="0.5"/>
          <path id="Trazado_988001" data-name="Trazado 988001" d="M187.06,267.375c-.794,1.638-6.945,12.789,0,25.375s16.689,12.483,28.057,11.621c-.2-7.155-1.218-26.033-1.218-26.033Z" transform="translate(-16.817 -82.576)" fill="#fcbfb9"/>
          <path id="Trazado_988002" data-name="Trazado 988002" d="M279.864,219.142a5.719,5.719,0,0,0,2.667,6.1" transform="translate(-18.259 -81.851)" fill="none" stroke="#000" stroke-miterlimit="10" stroke-width="0.5"/>
          <path id="Trazado_988003" data-name="Trazado 988003" d="M282.6,219.156a4.341,4.341,0,0,0,2.155,4.762" transform="translate(-18.3 -81.851)" fill="none" stroke="#000" stroke-miterlimit="10" stroke-width="0.5"/>
          <path id="Trazado_988004" data-name="Trazado 988004" d="M285.875,218.531a5.4,5.4,0,0,0,2.361,4.169" transform="translate(-18.351 -81.842)" fill="none" stroke="#000" stroke-miterlimit="10" stroke-width="0.5"/>
          <path id="Trazado_988005" data-name="Trazado 988005" d="M200.772,219.329a6.133,6.133,0,0,1,2.19,7.832" transform="translate(-17.072 -81.854)" fill="none" stroke="#000" stroke-miterlimit="10" stroke-width="0.5"/>
          <path id="Trazado_988006" data-name="Trazado 988006" d="M204.024,219.389a7.323,7.323,0,0,1,2.36,6.683" transform="translate(-17.121 -81.854)" fill="none" stroke="#000" stroke-miterlimit="10" stroke-width="0.5"/>
          <path id="Trazado_988007" data-name="Trazado 988007" d="M206.809,219.689a7.832,7.832,0,0,1,2.315,4.554,1.977,1.977,0,0,1-.516,1.9" transform="translate(-17.163 -81.859)" fill="none" stroke="#000" stroke-miterlimit="10" stroke-width="0.5"/>
          <path id="Trazado_988008" data-name="Trazado 988008" d="M281.56,201.227a8.939,8.939,0,0,0,.5,6.936" transform="translate(-18.279 -81.581)" fill="none" stroke="#000" stroke-miterlimit="10" stroke-width="0.5"/>
          <path id="Trazado_988009" data-name="Trazado 988009" d="M283.815,202.457a8.359,8.359,0,0,0,.792,5.284" transform="translate(-18.318 -81.6)" fill="none" stroke="#000" stroke-miterlimit="10" stroke-width="0.5"/>
          <path id="Trazado_988010" data-name="Trazado 988010" d="M286.3,201.428a7.344,7.344,0,0,0,1.16,5.1" transform="translate(-18.356 -81.584)" fill="none" stroke="#000" stroke-miterlimit="10" stroke-width="0.5"/>
          <path id="Trazado_988011" data-name="Trazado 988011" d="M271.288,195.007a8.975,8.975,0,0,1,1.129-2.5,3.034,3.034,0,0,1,2.293-1.349" transform="translate(-18.132 -81.43)" fill="none" stroke="#000" stroke-miterlimit="10" stroke-width="0.5"/>
          <path id="Trazado_988012" data-name="Trazado 988012" d="M213.767,189.144a2.53,2.53,0,0,1,3.182,3.151" transform="translate(-17.267 -81.398)" fill="none" stroke="#000" stroke-miterlimit="10" stroke-width="0.5"/>
          <path id="Trazado_988013" data-name="Trazado 988013" d="M299.709,163.849" transform="translate(-18.559 -81.02)" fill="none" stroke="#000" stroke-miterlimit="10" stroke-width="0.5"/>
          <path id="Trazado_988014" data-name="Trazado 988014" d="M171.882,254.922c2.763-1.944,5.277-.812,8.323,3.451s16.036,21.384,16.036,21.384l3.011-3.114s-20.1-30.246-13.685-33.494,11.013,9.54,13.685,15.022a148.345,148.345,0,0,1,5.717,14.819l4.06-2.03s-12.789-33.9-6.5-35.118,9.54,6.575,10.556,13.944,3.045,19.347,3.045,19.347l4.06-.2s-2.639-33.088,4.466-32.276,5.887,10.353,5.887,22.532a184.5,184.5,0,0,0,2.436,26.378s15.63-23.332,22.735-19.476-14.006,37.757-26.389,43.238-23.141-1.218-36.945-20.1S166.4,258.779,171.882,254.922Z" transform="translate(-16.618 -82.1)" fill="none"/>
          <g id="Grupo_1153217" data-name="Grupo 1153217" transform="translate(153.922 153.615)">
            <g id="Grupo_1153216" data-name="Grupo 1153216" transform="translate(0 0)" clip-path="url(#clip-path-7)">
              <rect id="Rectángulo_407941" data-name="Rectángulo 407941" width="104.419" height="13.374" transform="translate(7.156 79.271) rotate(-19.093)" fill="#ae7ef2"/>
              <rect id="Rectángulo_407942" data-name="Rectángulo 407942" width="104.419" height="13.374" transform="translate(2.774 66.609) rotate(-19.093)" fill="#3a56ff"/>
              <rect id="Rectángulo_407943" data-name="Rectángulo 407943" width="104.419" height="13.374" transform="translate(-1.608 53.95) rotate(-19.093)" fill="#b2f252"/>
              <rect id="Rectángulo_407944" data-name="Rectángulo 407944" width="104.419" height="13.374" transform="translate(-5.991 41.289) rotate(-19.093)" fill="#f2e205"/>
              <rect id="Rectángulo_407945" data-name="Rectángulo 407945" width="104.419" height="13.374" transform="translate(-10.373 28.628) rotate(-19.093)" fill="#f2ab27"/>
              <rect id="Rectángulo_407946" data-name="Rectángulo 407946" width="104.419" height="13.374" transform="translate(-14.756 15.967) rotate(-19.093)" fill="#f20505"/>
            </g>
          </g>
          <path id="Trazado_988016" data-name="Trazado 988016" d="M224.142,279.534s-8.526,7.916-6.9,17.66" transform="translate(-17.316 -82.758)" fill="none" stroke="#000" stroke-miterlimit="10" stroke-width="0.5"/>
          <path id="Trazado_988017" data-name="Trazado 988017" d="M224.064,163.438c-.53.684-6.29,13.674-4.923,29.536s10.844,28.168,26.617,25.981S268.914,202,268.094,183.128,246.762,134.175,224.064,163.438Z" transform="translate(-17.345 -80.83)" fill="#fcbfb9"/>
          <path id="Trazado_988018" data-name="Trazado 988018" d="M218.151,152.931c5.68-4.086,21.541-7.2,29.472-5.832s20.785,4.376,22.7,8.2,0,16.682,0,16.682L246.8,169.525s.368-6.99-2.14-10.2c-1.962,4.179-1.9,9.922-1.9,9.922s-21.813,2.188-24.612,0S214.747,155.38,218.151,152.931Z" transform="translate(-17.298 -80.763)" fill="#8192ff"/>
          <path id="Trazado_988019" data-name="Trazado 988019" d="M258.362,177.968s-.547-3.664-5.469-2.931-6.932,2.443-6.748,4.641.683,17.588-1.481,20.763" transform="translate(-17.732 -81.186)" fill="none" stroke="#000" stroke-miterlimit="10" stroke-width="0.5"/>
          <path id="Trazado_988020" data-name="Trazado 988020" d="M229.361,178.495s2.735-3.556,5.743-3.556,5.2,3.556,5.2,3.556" transform="translate(-17.502 -81.186)" fill="none" stroke="#000" stroke-miterlimit="10" stroke-width="0.5"/>
          <path id="Trazado_988021" data-name="Trazado 988021" d="M234.692,200.83s0,9.2,7.11,8.155" transform="translate(-17.582 -81.575)" fill="none" stroke="#000" stroke-miterlimit="10" stroke-width="0.5"/>
          <path id="Trazado_988022" data-name="Trazado 988022" d="M251.515,195.239q.126,2.034.25,4.07" transform="translate(-17.835 -81.491)" fill="none" stroke="#000" stroke-miterlimit="10" stroke-width="0.5"/>
          <path id="Trazado_988023" data-name="Trazado 988023" d="M254.548,195.86q.3,1.523.6,3.046" transform="translate(-17.88 -81.501)" fill="none" stroke="#000" stroke-miterlimit="10" stroke-width="0.5"/>
          <path id="Trazado_988024" data-name="Trazado 988024" d="M257.392,194.844l1,2.847" transform="translate(-17.923 -81.486)" fill="none" stroke="#000" stroke-miterlimit="10" stroke-width="0.5"/>
          <path id="Trazado_988025" data-name="Trazado 988025" d="M226.571,195.008l1.717-3.506" transform="translate(-17.46 -81.435)" fill="none" stroke="#000" stroke-miterlimit="10" stroke-width="0.5"/>
          <path id="Trazado_988026" data-name="Trazado 988026" d="M230.835,196.22q.394-1.627.788-3.253" transform="translate(-17.524 -81.457)" fill="none" stroke="#000" stroke-miterlimit="10" stroke-width="0.5"/>
          <path id="Trazado_988027" data-name="Trazado 988027" d="M234.5,197.041q.2-1.624.407-3.247" transform="translate(-17.579 -81.47)" fill="none" stroke="#000" stroke-miterlimit="10" stroke-width="0.5"/>
          <path id="Trazado_988028" data-name="Trazado 988028" d="M238.267,188.431c0,1.49-.508,2.7-1.135,2.7s-1.135-1.209-1.135-2.7.508-2.7,1.135-2.7S238.267,186.941,238.267,188.431Z" transform="translate(-17.601 -81.349)"/>
          <path id="Trazado_988029" data-name="Trazado 988029" d="M253.163,188.431c0,1.49-.508,2.7-1.135,2.7s-1.135-1.209-1.135-2.7.508-2.7,1.135-2.7S253.163,186.941,253.163,188.431Z" transform="translate(-17.825 -81.349)"/>
          <path id="Trazado_988030" data-name="Trazado 988030" d="M253.114,159.592a8.712,8.712,0,0,0,1.113,6.754" transform="translate(-17.855 -80.956)" fill="none" stroke="#000" stroke-miterlimit="10" stroke-width="0.5"/>
          <path id="Trazado_988031" data-name="Trazado 988031" d="M255.61,160.839a6.332,6.332,0,0,0,.873,5.747" transform="translate(-17.891 -80.974)" fill="none" stroke="#000" stroke-miterlimit="10" stroke-width="0.5"/>
          <path id="Trazado_988032" data-name="Trazado 988032" d="M258.441,162.057A5.462,5.462,0,0,0,259.6,167" transform="translate(-17.936 -80.993)" fill="none" stroke="#000" stroke-miterlimit="10" stroke-width="0.5"/>
          <path id="Trazado_988033" data-name="Trazado 988033" d="M281.56,367.025a7.307,7.307,0,0,1-1.979-5.833c.222-1.919,1.2-3.653,1.861-5.468s.987-3.95-.028-5.594c-.584-.947-1.54-1.6-2.21-2.493-1.382-1.835-1.352-4.374-.871-6.621s1.35-4.429,1.446-6.724-.827-4.855-2.927-5.786" transform="translate(-18.215 -83.495)" fill="none" stroke="#dbdbdb" stroke-miterlimit="10" stroke-width="0.5"/>
          <path id="Trazado_988034" data-name="Trazado 988034" d="M285.758,364.841c-.31.183-.676-.137-.864-.444-1.6-2.608-.438-5.955.625-8.826s1.868-6.444-.191-8.707c-.8-.877-1.928-1.409-2.674-2.328-1.2-1.473-1.147-3.6-.707-5.445s1.212-3.638,1.266-5.535-.881-4.022-2.709-4.532" transform="translate(-18.27 -83.502)" fill="none" stroke="#dbdbdb" stroke-miterlimit="10" stroke-width="0.5"/>
          <path id="Trazado_988035" data-name="Trazado 988035" d="M288.6,254.7c7.083.494,2.064,10.641,3.453,14.072.99,2.447,3.907,3.364,4.977,5.824.74,1.7-.032,6.077-.009,6.134" transform="translate(-18.392 -82.385)" fill="none" stroke="#dbdbdb" stroke-miterlimit="10" stroke-width="0.5"/>
          <path id="Trazado_988036" data-name="Trazado 988036" d="M291.236,252.317c2.356,1.879,4.863,4.083,5.252,7.071.266,2.046-.529,4.058-1.031,6.059a2.8,2.8,0,0,0-.1,1.284c.193.853,1.057,1.344,1.793,1.815a12.159,12.159,0,0,1,5.186,7.277c.142.585.14,1.376-.423,1.593" transform="translate(-18.432 -82.349)" fill="none" stroke="#dbdbdb" stroke-miterlimit="10" stroke-width="0.5"/>
          <path id="Trazado_988037" data-name="Trazado 988037" d="M211.622,367.756a6.692,6.692,0,0,1-.209-5.121c.506-1.68,1.351-3.242,1.9-4.91a4.782,4.782,0,0,0,.218-2.871c-.511-1.64-2.367-2.511-3.093-4.068-.877-1.88.131-4.041.913-5.963s1.2-4.471-.407-5.782" transform="translate(-17.212 -83.653)" fill="none" stroke="#dbdbdb" stroke-miterlimit="10" stroke-width="0.5"/>
          <path id="Trazado_988038" data-name="Trazado 988038" d="M215.154,369.128c-1.363-1.96-.753-4.668.28-6.821s2.459-4.225,2.635-6.605a6.673,6.673,0,0,0-1.773-5c-.852-.905-2.019-1.672-2.247-2.895-.239-1.286.672-2.461,1.292-3.614,1.267-2.357,1.225-5.649-.826-7.366" transform="translate(-17.271 -83.62)" fill="none" stroke="#dbdbdb" stroke-miterlimit="10" stroke-width="0.5"/>
          <path id="Trazado_988039" data-name="Trazado 988039" d="M231.9,235.935q8.588,8.784,17.889,16.829a20.924,20.924,0,0,1-5.1.548L261.56,231" transform="translate(-17.54 -82.029)" fill="none" stroke="#dbdbdb" stroke-miterlimit="10" stroke-width="0.5"/>
          <path id="Trazado_988040" data-name="Trazado 988040" d="M203.088,364.309a53.7,53.7,0,0,0,38.55,17.561" transform="translate(-17.107 -84.033)" fill="none" stroke="#dbdbdb" stroke-miterlimit="10" stroke-width="0.5"/>
          <path id="Trazado_988041" data-name="Trazado 988041" d="M262.872,382.483a124.385,124.385,0,0,0,30.309-16.736" transform="translate(-18.005 -84.054)" fill="none" stroke="#dbdbdb" stroke-miterlimit="10" stroke-width="0.5"/>
          <path id="Trazado_988042" data-name="Trazado 988042" d="M276.089,252.036a204.237,204.237,0,0,1,11.92,44.243" transform="translate(-18.204 -82.345)" fill="none" stroke="#dbdbdb" stroke-miterlimit="10" stroke-width="0.5"/>
          <ellipse id="Elipse_11554" data-name="Elipse 11554" cx="1.026" cy="2.226" rx="1.026" ry="2.226" transform="translate(234.203 280.276)" fill="#dbdbdb"/>
          <ellipse id="Elipse_11555" data-name="Elipse 11555" cx="1.026" cy="2.226" rx="1.026" ry="2.226" transform="translate(233.981 257.834)" fill="#dbdbdb"/>
          <ellipse id="Elipse_11556" data-name="Elipse 11556" cx="1.026" cy="2.226" rx="1.026" ry="2.226" transform="translate(233.758 235.392)" fill="#dbdbdb"/>
          <ellipse id="Elipse_11557" data-name="Elipse 11557" cx="1.026" cy="2.226" rx="1.026" ry="2.226" transform="translate(233.535 212.951)" fill="#dbdbdb"/>
          <g id="Grupo_1153220" data-name="Grupo 1153220" transform="translate(153.922 153.615)">
            <g id="Grupo_1153218" data-name="Grupo 1153218" transform="translate(0 0)" clip-path="url(#clip-path-7)">
              <rect id="Rectángulo_407947" data-name="Rectángulo 407947" width="104.419" height="13.374" transform="translate(7.156 79.271) rotate(-19.093)" fill="#ae7ef2"/>
              <rect id="Rectángulo_407948" data-name="Rectángulo 407948" width="104.419" height="13.374" transform="translate(2.774 66.609) rotate(-19.093)" fill="#3a56ff"/>
              <rect id="Rectángulo_407949" data-name="Rectángulo 407949" width="104.419" height="13.374" transform="translate(-1.608 53.95) rotate(-19.093)" fill="#b2f252"/>
              <rect id="Rectángulo_407950" data-name="Rectángulo 407950" width="104.419" height="13.374" transform="translate(-5.991 41.289) rotate(-19.093)" fill="#f2e205"/>
              <rect id="Rectángulo_407951" data-name="Rectángulo 407951" width="104.419" height="13.374" transform="translate(-10.373 28.628) rotate(-19.093)" fill="#f2ab27"/>
              <rect id="Rectángulo_407952" data-name="Rectángulo 407952" width="104.419" height="13.374" transform="translate(-14.756 15.967) rotate(-19.093)" fill="#f20505"/>
            </g>
            <g id="Grupo_1153219" data-name="Grupo 1153219" transform="translate(0 0)" clip-path="url(#clip-path-7)">
              <path id="Trazado_988044" data-name="Trazado 988044" d="M255.514,285.84c-31.321,12.147-67.16-1.309-81.625-31.48-.52-1.311-1-2.639-1.409-4-1.081-3.637-4.934-4.161-7.454-2.681a3.962,3.962,0,0,0-2.335,5.472c.53,1.321,1.1,2.612,1.7,3.888a86.557,86.557,0,0,0,10.792,19.033c5.077,7.109,9.554,14.829,14.892,21.712,4.635,5.977,11.574,9.231,18.563,11.834.159.092.325.183.489.275.12.075.236.155.355.231q2.5,1.919,5.06,3.773a4.085,4.085,0,0,0,4.757.091c5.012,1.253,10.159,1.289,13.647-1.564a15.965,15.965,0,0,0,10.466-4.47,4.491,4.491,0,0,0,1.273-4.243c5.075-2.6,9.877-6,14.628-8.868C263.892,292.075,260.9,283.752,255.514,285.84Z" transform="translate(-170.416 -235.883)" fill="#d15ec6" opacity="0.3"/>
            </g>
          </g>
        </g>
      </g>
      <g id="Grupo_1153226" data-name="Grupo 1153226" transform="translate(-2012.692 -847.172)">
        <g id="Grupo_1153223" data-name="Grupo 1153223" transform="translate(19.248 0)">
          <path id="Trazado_988047" data-name="Trazado 988047" d="M51.081,80.164h0a10,10,0,0,0-10-10h0a10,10,0,0,0,10-10h0a10,10,0,0,0,10,10h0A10,10,0,0,0,51.081,80.164Z" transform="translate(-41.08 -25.359)" fill="#f2ab27"/>
          <path id="Trazado_988048" data-name="Trazado 988048" d="M63.616,61.239h0a10,10,0,0,0-10-10h0a10,10,0,0,0,10-10h0a10,10,0,0,0,10,10h0A10,10,0,0,0,63.616,61.239Z" transform="translate(-41.268 -25.075)" fill="#f2ab27"/>
          <path id="Trazado_988049" data-name="Trazado 988049" d="M416.417,439.507h0a10,10,0,0,0,10-10h0a10,10,0,0,0,10,10h0a10,10,0,0,0-10,10h0A10,10,0,0,0,416.417,439.507Z" transform="translate(1.564 -88.065)" fill="#f2ab27"/>
          <path id="Trazado_988050" data-name="Trazado 988050" d="M435.341,452.042h0a10,10,0,0,0,10-10h0a10,10,0,0,0,10,10h0a10,10,0,0,0-10,10h0A10,10,0,0,0,435.341,452.042Z" transform="translate(-11.531 -71.501)" fill="#f2ab27"/>
          <path id="Trazado_988051" data-name="Trazado 988051" d="M435.88,44.83h0a10,10,0,0,0-10-10h0a10,10,0,0,0,10-10h0a10,10,0,0,0,10,10h0A10,10,0,0,0,435.88,44.83Z" transform="translate(-46.864 -24.828)" fill="#f2ab27"/>
          <path id="Trazado_988052" data-name="Trazado 988052" d="M58.344,451.89h0a10,10,0,0,0-10-10h0a10,10,0,0,0,10-10h0a10,10,0,0,0,10,10h0A10,10,0,0,0,58.344,451.89Z" transform="translate(-41.189 -30.946)" fill="#f2ab27"/>
          <path id="Trazado_988053" data-name="Trazado 988053" d="M90.238,54.279S72.943,42.035,79.4,34.948s10.834,7.547,10.834,7.547,1.141-11.558,9.313-9.485S95.559,51.428,90.238,54.279Z" transform="translate(-41.634 -24.947)" fill="#ae7ef2"/>
          <path id="Trazado_988054" data-name="Trazado 988054" d="M394.093,476.654s-17.3-12.243-10.834-19.331,10.834,7.547,10.834,7.547,1.141-11.558,9.313-9.485S399.414,473.8,394.093,476.654Z" transform="translate(14.356 -78.058)" fill="#ae7ef2"/>
        </g>
        <g id="Grupo_1153225" data-name="Grupo 1153225" transform="translate(0 1.928)" opacity="0.5">
          <path id="Trazado_988057" data-name="Trazado 988057" d="M41,41.2a2.623,2.623,0,1,0-2.623,2.623A2.623,2.623,0,0,0,41,41.2Z" transform="translate(-21.752 -26.962)" fill="#fff7ff"/>
          <path id="Trazado_988058" data-name="Trazado 988058" d="M50.926,29.408A2.623,2.623,0,1,0,48.3,32.031,2.623,2.623,0,0,0,50.926,29.408Z" transform="translate(-21.901 -26.785)" fill="#fff7ff"/>
          <path id="Trazado_988059" data-name="Trazado 988059" d="M76.5,104.475a2.623,2.623,0,1,0-2.623,2.623A2.623,2.623,0,0,0,76.5,104.475Z" transform="translate(-22.285 -27.913)" fill="#fff7ff"/>
          <path id="Trazado_988060" data-name="Trazado 988060" d="M71.233,452.155a2.623,2.623,0,1,0-2.623,2.623A2.623,2.623,0,0,0,71.233,452.155Z" transform="translate(-22.206 -33.139)" fill="#fff7ff"/>
          <circle id="Elipse_11558" data-name="Elipse 11558" cx="2.623" cy="2.623" r="2.623" transform="translate(0 438.184)" fill="#fff7ff"/>
          <path id="Trazado_988061" data-name="Trazado 988061" d="M32.108,344.994a2.623,2.623,0,1,0-2.623,2.623A2.623,2.623,0,0,0,32.108,344.994Z" transform="translate(-21.618 -31.528)" fill="#fff7ff"/>
          <path id="Trazado_988062" data-name="Trazado 988062" d="M364.245,462.309a2.622,2.622,0,1,0-2.622,2.623A2.623,2.623,0,0,0,364.245,462.309Z" transform="translate(-26.61 -33.292)" fill="#fff7ff"/>
          <circle id="Elipse_11559" data-name="Elipse 11559" cx="2.623" cy="2.623" r="2.623" transform="translate(352.237 388.653)" fill="#fff7ff"/>
          <path id="Trazado_988063" data-name="Trazado 988063" d="M411.768,29.408a2.623,2.623,0,1,0-2.623,2.623A2.623,2.623,0,0,0,411.768,29.408Z" transform="translate(-27.324 -26.785)" fill="#fff7ff"/>
          <path id="Trazado_988064" data-name="Trazado 988064" d="M419,38.534a2.623,2.623,0,1,0-2.623,2.623A2.623,2.623,0,0,0,419,38.534Z" transform="translate(-27.433 -26.922)" fill="#fff7ff"/>
          <path id="Trazado_988065" data-name="Trazado 988065" d="M479.064,118.691a2.623,2.623,0,1,0-2.623,2.623A2.623,2.623,0,0,0,479.064,118.691Z" transform="translate(-28.336 -28.127)" fill="#fff7ff"/>
          <path id="Trazado_988066" data-name="Trazado 988066" d="M375.268,468.954a2.623,2.623,0,1,0-2.623,2.623A2.623,2.623,0,0,0,375.268,468.954Z" transform="translate(-26.776 -33.392)" fill="#fff7ff"/>
          <path id="Trazado_988067" data-name="Trazado 988067" d="M79.167,442a2.623,2.623,0,1,0-2.623,2.623A2.623,2.623,0,0,0,79.167,442Z" transform="translate(-22.325 -32.987)" fill="#fff7ff"/>
        </g>
      </g>
    </g>
  </g>
</svg>
