<svg xmlns="http://www.w3.org/2000/svg" xmlns:xlink="http://www.w3.org/1999/xlink" width="297.272" height="397.652" viewBox="0 0 297.272 397.652">
  <defs>
    <filter id="Trazado_990287" x="4.352" y="47.557" width="292.92" height="263.387" filterUnits="userSpaceOnUse">
      <feOffset dy="3" input="SourceAlpha"/>
      <feGaussianBlur stdDeviation="3" result="blur"/>
      <feFlood flood-opacity="0.161"/>
      <feComposite operator="in" in2="blur"/>
      <feComposite in="SourceGraphic"/>
    </filter>
  </defs>
  <g id="Grupo_1154011" data-name="Grupo 1154011" transform="translate(1169 -2270.017)">
    <g transform="matrix(1, 0, 0, 1, -1169, 2270.02)" filter="url(#Trazado_990287)">
      <path id="Trazado_990287-2" data-name="Trazado 990287" d="M21.641,240.134C-43.269,158.2,54.518,162.558,96.748,93.66c65.091-106.2,99.345-112.945,128.577-65.63s17.645,145.362-42.267,199.59S56.177,283.732,21.641,240.134Z" transform="translate(284.07 53.56) rotate(89)" fill="#fcd7db" fill-rule="evenodd"/>
    </g>
    <g id="Grupo_1154010" data-name="Grupo 1154010" transform="translate(-1169 2270.017)">
      <path id="Trazado_989165" data-name="Trazado 989165" d="M2490.249,735.121a288.612,288.612,0,0,0,38.146,8.647c22.167,3.269,45.534,3.784,42.666,5.17-5.4,2.612-58.535,3.29-61.835,3.427-4.853.2-3.9-4.616-11.051-7.9S2484.191,734.055,2490.249,735.121Z" transform="translate(-2290.929 -354.718)" fill="#360b1e" fill-rule="evenodd"/>
      <path id="Trazado_989166" data-name="Trazado 989166" d="M2392.279,750.086s83.277-.838,77.874,1.773-55.147,3.624-64.475,3.914S2382.808,748.423,2392.279,750.086Z" transform="translate(-2258.104 -359.644)" fill="#360b1e" fill-rule="evenodd"/>
      <g id="Grupo_1153617" data-name="Grupo 1153617">
        <path id="Trazado_989167" data-name="Trazado 989167" d="M2248.739,401.434c-35.133-36.509-22.609-105.564,27.971-154.239s120.065-58.539,155.2-22.03,22.61,105.564-27.972,154.239S2283.874,437.942,2248.739,401.434Z" transform="translate(-2204.891 -178.105)" fill="#8b454e" fill-rule="evenodd"/>
        <g id="Grupo_1153615" data-name="Grupo 1153615" transform="translate(114.714)">
          <path id="Trazado_989168" data-name="Trazado 989168" d="M2469.724,244.256l4.185,3.306s-10.009,3.151-13.413,5.379a30.414,30.414,0,0,0-6.354,6.15s4.772-1.563,6.863-3.152a78.924,78.924,0,0,1,8.73-5.586,10.359,10.359,0,0,1,5.461-.935l.8,4.189s-.535.184-.612.212c1.079-.207,1.928-.135,2.135.569.741,2.5.474,6.071-1.837,7.005a73.2,73.2,0,0,1-9.355,3.125,32.837,32.837,0,0,0-6.358,2.424s5.066.014,7.3-.691a51.5,51.5,0,0,0,6.245-2.849s-2.3,7.995-6.909,11.475-5.708,2.588-10.016,3.732-6.031.739-6.709-.458.247,8.627.271,22.632,2.334,44.418,2.712,49.575-.786,10.3.03,13.554,1.186,8.859,1.339,13.468,1.021,6.88.511,9.392-3.347,2.934-3.751.138a70.722,70.722,0,0,1-.979-15.44c.344-9.023-.585-13.214-.585-13.214s-2.581-6.853-5.607-10.986a41.009,41.009,0,0,0-6.479-6.925,13.316,13.316,0,0,1-5.544,1.148,11.557,11.557,0,0,0-2.766-.112s2.208-2.1,1.78-3.832a3.16,3.16,0,0,0-1.934-2.222s.469,1.325-1.205,3.12-2.595,3.029-2.595,3.03-2.9-.587-7.408-1.164-7.858-.792-7.858-.792,7.819-3.417,7.9-5.772-2.818-2.131-2.818-2.131a8.505,8.505,0,0,1-5.167,3.943c-3.55.86-7.981,1.964-11.9,1.691a35.073,35.073,0,0,1-6.639-1.063s5.277-1.345,7.284-3.024a42.783,42.783,0,0,1,4.982-3.407s-6.082-.04-9.461,1.371-6.152,3.674-9.662,4.13a25.565,25.565,0,0,1-7.665-.5s6.009-2.491,8.223-3.232,3.941-1.127,3.941-1.127-7.231-.024-10.123.622-8.216,2.164-8.216,2.163a2.516,2.516,0,0,0-2.641-.808,9.418,9.418,0,0,1-3.093.117s4.377-.975,6.425-3.566a12.725,12.725,0,0,1,4.052-3.529l10.309.239-8.112-1.8a23.629,23.629,0,0,1,5.5-2.546c2.779-.786,5.457-3.846,7.128-3.727s4.809,2.045,6.121,3.147a35.12,35.12,0,0,0,5.077,2.886,9.338,9.338,0,0,0-4-3.944c-2.992-1.63-5.1-2.636-5.1-2.636s5.668.239,8.5-.685a55.274,55.274,0,0,1,8.53-1.493,6.387,6.387,0,0,1,2.348,3.375c.979,2.612,2.244,5.156,2.244,5.156s1.372-3.838.063-6.319-2.024-4.43-3.226-4.922-2.643-1.138-2.643-1.138,4.583,1.249,7.468.776,7.341-1.057,7.341-1.057l1.814,2.206s.615-1.794-.635-2.482a35.808,35.808,0,0,0,5.01,2.18c3.313,1.131,7.741,2.615,7.741,2.615a2.753,2.753,0,0,1-.271,3.013,17.294,17.294,0,0,0-1.673,3.646,2.421,2.421,0,0,0,2.632-1.552c.648-1.858,1.223-3.593,1.223-3.594a60.708,60.708,0,0,1,6.182,5.416c1.762,2.013,3.079,4.5,2.484,7.308a14.33,14.33,0,0,1-1.55,4.327s-2.033.061-4.492.175a39.634,39.634,0,0,1-5.1-.16l7.652,1.409s.587.784-1.316,1.547A17.158,17.158,0,0,0,2439,338.7a34.244,34.244,0,0,1,4.359,4.252c1.8,2.2,6.693,10.4,6.693,10.4s-1.363-14.283-1.977-21.293-.888-30.821-.491-37.839,0-14.436,0-14.436-.317,1.435-5.581,1.675-6.94,1.117-10.611.638a67.551,67.551,0,0,1-8.847-2.073s5.739-1.914,8.21-2.471a33.031,33.031,0,0,0,6.623-2.95s-7.5-.319-9.889.8-9.408,1.754-9.408,1.754l-3.51-4.544a31.357,31.357,0,0,1,5.425-.638c2.337-.063,10.273-2.1,14.561-2.678-2.272-.136-5.285-.385-6.831-.51-2.948-.239-10.684-.24-10.684-.239a5,5,0,0,1,1.119-4.066,12.038,12.038,0,0,1,7.973-4.385c4.385-.638,8.934-.957,10.767-.4s6.776,2.631,6.776,2.631-7.815-4.868-11.883-5.825a90.933,90.933,0,0,0-9.171-1.514,29.848,29.848,0,0,1,4.786-2.392c2.232-.8,10.37-1.834,12.6-1.036s3.988.8,7.1-.638,6.615-5.5,9.488-5.74-4.255,6.873-4.93,8.823,3.52-2.761,6.226-4.459S2469.724,244.256,2469.724,244.256Zm2.211,10.753c-2.161.745-4.712,1.621-6.415,2.169-3.464,1.114-6.837,4.379-8.573,5.32a10.455,10.455,0,0,0-3.1,3.035s6.309-1.929,8.249-3.827a62.359,62.359,0,0,1,6.155-4.8S2469.978,255.9,2471.934,255.009Zm-19.971,6.41s-3.3,1.578-3.437,2.923,1.4.186,2.325-.835A4.634,4.634,0,0,0,2451.963,261.419ZM2425,314.9c-.348.11-.733,1.121-.835,2.306a18.514,18.514,0,0,0,.062,3.922,9.933,9.933,0,0,0,.81,3.444c.38.732,1.279-.407,1.543-1.36a15.7,15.7,0,0,0,.076-5.507,6.639,6.639,0,0,0-1.359-2.631.414.414,0,0,0-.153-.164A.186.186,0,0,0,2425,314.9Zm-11.242,9.8a1.214,1.214,0,0,0-.181.011,1.821,1.821,0,0,0-.908,1.754c.15,1.178.835,1.915,1.73,1.828s1.239-1.341.751-2.562A1.466,1.466,0,0,0,2413.756,324.7Z" transform="translate(-2364.746 -191.763)" fill="#ff7f8f" fill-rule="evenodd"/>
          <path id="Trazado_989169" data-name="Trazado 989169" d="M2428.207,165.668a54.254,54.254,0,0,0,6.713,1.09,58.138,58.138,0,0,0,8.209,0,46.863,46.863,0,0,0-4.358,4.587,5.94,5.94,0,0,0-1.379,4.306s1.316-1.032,3.728-2.753,3.673-6.485,3.673-6.485a22.176,22.176,0,0,0,6.025,2.3,20.673,20.673,0,0,0,6.024-.287c1.262-.172,3.039,2.52,4.7,4.241a22,22,0,0,1,2.415,2.87s-3.272.746-5.166,1.377a30.756,30.756,0,0,0-4.476,2.126s2.869-.175,4.879-.175,5.331-2.578,5.331-2.578a25.624,25.624,0,0,1,3.674,3.556c1.146,1.549.748,3.153-.113,4.932s-5.625,2.524-8.494,3.9-12.708,1.621-12.708,1.621a47.35,47.35,0,0,1,6.319,7.85c3.349,5.074,5.36,11.014,7.945,18.481s6.225,22.976,7.851,34.56,1.768,28.109.766,36.2-2.282,34.217-2.471,38.344-.148,35.272-.148,35.272c-.227,3.745-4.1,2.387-4.1,2.387s.181-16.137,0-20.192.635-7.75,1.447-15.861.758-20.191,1.42-37.2,1.829-30.786-1.176-49.256-6.891-29.555-10.4-36.994-10.094-13.766-10.094-13.766a21.532,21.532,0,0,1-7.393.3,48.815,48.815,0,0,1-8.881-2.152,12.112,12.112,0,0,1,4.671-1.664,6.328,6.328,0,0,0,4.019-1.946,50.11,50.11,0,0,0-4.987-.536c-1.974-.059-5.467,2.714-6.956,3.045s-5.425-1.338-8.708-2.727a58.651,58.651,0,0,1-7.963-4.6,82.509,82.509,0,0,0,8.377.149c2.882-.213,6.549-.537,6.549-.537a34.54,34.54,0,0,0-7.3-1.61c-2.588-.053-7.992.213-7.992.213l-6-2.365,8.507-.005s-5.888-.738-7.387-.786a39.661,39.661,0,0,1-6.407-.947c-1.837-.454-4.292-2.838-4.292-2.838a16.279,16.279,0,0,1,6.056-1.069c3.64,0,6.013,1.425,10.469,2.222a14.375,14.375,0,0,0,7.845-.435c1.456-.387-5.449-3.338-5.449-3.338s4.765-1.021,8.341-1.6,7-1.175,7-1.175a15.461,15.461,0,0,0,.17,3.274,27.85,27.85,0,0,1,.234,4.072s.746-1.034,1.833-2.584S2428.207,165.668,2428.207,165.668Zm25.054,5.517s-4.375,1.964-5.761,3.46a10.793,10.793,0,0,0-2,4.161,54.212,54.212,0,0,0,4.994-3.322A9.748,9.748,0,0,0,2453.261,171.185Zm-16.8,5.809a2.058,2.058,0,0,0-1.743.978,3.559,3.559,0,0,0-.548,2.376,8,8,0,0,0,2.167-1.238,1.588,1.588,0,0,0,.314-2.1A.942.942,0,0,0,2436.456,176.994Z" transform="translate(-2373.832 -165.668)" fill="#ff7f8f" fill-rule="evenodd"/>
          <path id="Trazado_989170" data-name="Trazado 989170" d="M2591.434,200s-4.919.446-7.294-.946-8.032.086-8.032.086l-1.407.164,3.25-2.415s-3.386,1.208-5.327.845-4.753-1.343-6.335-.979-7.084,4.219-8.821,5.847a25.552,25.552,0,0,0-3.69,3.867c-.912,1.294-3.026,5.884-3.277,4.885s.428-3.525,2.137-5.118,7.792-5.563,7.792-5.563-4.92,1.008-7.789,1.317a19.2,19.2,0,0,0-7.583,2.945c-1.721,1.1-4.152,3.477-4.649,5s-.868,4.122-1.17,5.267-.851,3.166-1.429,1.767a5.089,5.089,0,0,1,.063-4.318,23.6,23.6,0,0,1,2.255-3.318s3.437-3.352,1.423-2.26-4.181,1.571-5.718,2.458a8.68,8.68,0,0,1-3.995,1.061c-1.108.094-3.573,2.87-3.573,2.87a7.794,7.794,0,0,1,.719,2.671c.173,1.664,1.409,4.225.12,3.38s-2.118-3.244-1.8-4.128a2.715,2.715,0,0,0,.06-1.651,33.7,33.7,0,0,1-4.946,3.828,36.967,36.967,0,0,0-5.161,4,4.962,4.962,0,0,1,3.581.973c1.6,1.289,1.372,2.2,1.372,2.2s-1.2-.07-3.307-.365a10.829,10.829,0,0,1-3.325-.945,26.494,26.494,0,0,0-3.534,3.916c-1.316,1.925-2.725,5.375-2.629,6.241s2.712,1.605,2.712,1.605-1.129,3.366.157,2.959,7.1-1.564,9.345-3.224,4.084-2.754,4.084-2.754-2.231.438-6.7,10-7.172,14.833-8.427,19.8-2.889,9.829-2.889,9.829l.036,9.5s5.788-22.962,8.049-28.382,9.114-17.166,12.093-20.312a97.723,97.723,0,0,1,26.184-17.922c12.217-5.471,11.926-4.783,19.551-7.649S2591.434,200,2591.434,200Z" transform="translate(-2412.213 -175.963)" fill="#ff7f8f" fill-rule="evenodd"/>
          <path id="Trazado_989171" data-name="Trazado 989171" d="M2515.62,342.293c3.439.271,7.865,4.207,9,4.22,1.4.015,3.95,1.168,6.458,2.838a19.887,19.887,0,0,1,5.233,4.827c1.544,1.94,9.088,11.715,11.015,14.861s.144,8.5.144,8.5a9.723,9.723,0,0,1,3.235,4.6c1.167,3.218-3.653,7.45-4.853,10.922a13.426,13.426,0,0,0-.313,6.925,25.779,25.779,0,0,0-3.891-3.487c-2.3-1.668-5.818-2.553-8.95-5.512s-1.313-4.538-1.711-8.228-2.668-4.879-2.668-4.879-.314,6.528.415,9.461a12.923,12.923,0,0,0,3.306,5.364s-10.507-2.762-13.092-8.079.451-15.659.451-15.659a59.742,59.742,0,0,0-4.168,10.891,27.64,27.64,0,0,0-.13,12.018,61.346,61.346,0,0,1-10.313-9.328c-5.938-6.476-6.79-9.253-10.29-15.02s-5.084-11.271,1.563-18.088,14.485,1.924,14.485,1.924-.488-6.338,2.9-8.584A3.337,3.337,0,0,1,2515.62,342.293Zm-11.943,13.24a6.191,6.191,0,0,0-1.269.186c-3.457.883-2.808,3.859-2.808,3.859a5.456,5.456,0,0,1,4.508-1.6,8.736,8.736,0,0,0,4.736-.707A8.469,8.469,0,0,0,2503.677,355.533Zm27.933,4.587c-1.365-.079-2.484.436-2.257,1.445.3,1.346,1.323.9,2.448.723s3.326.995,4.047.085-.941-1.319-2.829-1.972A5.323,5.323,0,0,0,2531.61,360.12Zm-9.531.941c-.832-.06-1.673.454-1.3,1.445.6,1.587,3.123.551,2.516-.7A1.417,1.417,0,0,0,2522.079,361.061Zm-11.462,2.482c-1.446-.174-3.185,2.351-4.862,5-1.917,3.024-.805,7.362-.805,7.362a26.274,26.274,0,0,1,2.792-5.741c1.791-2.664,5.027-5.228,3.477-6.368A1.256,1.256,0,0,0,2510.616,363.543Zm23.292,5.342a.762.762,0,0,0-.316.1c-.848.488.91,2.483,2.991,3.168s4.507,3.459,4.029,2.148C2540.167,373.066,2535.677,368.725,2533.908,368.884Zm-12.117.192c-.467.215.251,2.025,1.577,1.929,1.516-.109-.368-1.555-1.306-1.914A.345.345,0,0,0,2521.791,369.076Z" transform="translate(-2406.826 -224.311)" fill="#ff7f8f" fill-rule="evenodd"/>
          <path id="Trazado_989172" data-name="Trazado 989172" d="M2524.763,284.18a10.8,10.8,0,0,1,3.67.537c2.669.89,7.027,0,7.027,0a28.422,28.422,0,0,1-4.711,4.534,6,6,0,0,0-2.668,3.736s4.8-3.114,6.312-3.736,2.314-3.024,2.314-3.024,1.512-1.156,3.734.712,2.759,2.4,2.759,2.4a63.208,63.208,0,0,0-6.94,4.534,52.151,52.151,0,0,1-7.558,4.539s2.846-.265,5.427-.532a22.673,22.673,0,0,0,7.912-2.759c2.224-1.245,2.5-1.512,3.563.979a26.039,26.039,0,0,1,1.51,4.889,5.714,5.714,0,0,1,1.159,4.805c-.625,2.847-4.008,4.716-7.3,8.185s-13.967,5.6-16.721,3.912-4.806-6.139-4.806-6.139a53.141,53.141,0,0,0-1.562,8.653c-.465,4.836-4.633,17.545-5.141,25.63s-1.5,21.638-1.428,27.915-.788,7.543-.738,9.371-.368,6.226-.558,13.325-.611,5.873-2.225,5.809-.344-3.733-.624-6.814-.1-10.727-.1-10.727a21.087,21.087,0,0,0,1.158-3.89c.491-2.381.1-8.217-.187-13.836s1.776-14.022,1.887-18.608,1.611-12.085,3.1-18.407,4.289-15.4,4.289-15.4l-4.276,1.425c-2.4.8-8-.711-11.829-4.624s-2.932-11.121-.441-17.258,6.049-3.556,6.049-3.556,1.512-1.514,5.069-.09,3.467,2.49,5.247,3.646,1.777-.977.621-3.912a20.678,20.678,0,0,0-3.821-5.692,19.956,19.956,0,0,1,6.222-.537C2522.119,284.27,2523.521,284.18,2524.763,284.18Zm-14.341,10.062a.641.641,0,0,0-.6.277c-.771.916.711,1.308,1.914,2.328s1.543,2.092,2.642,2.711-.608-1.991-1.763-3.226C2511.752,295.4,2511.043,294.333,2510.422,294.242Zm14.494,4.954a1.543,1.543,0,0,0-.958,1.557c.19.68,2.158-.635,1.5-1.366A.54.54,0,0,0,2524.917,299.2Zm16.886,2.057a34.456,34.456,0,0,0-5.959.968c-2.788.667-5.52.93-5.437,2.684s6.2-1.476,8.563-1.9,4.682-.126,4.578-1.233C2543.512,301.359,2542.812,301.224,2541.8,301.253Zm-23.706,1.531a.411.411,0,0,0-.284.027c-.571.341.681,2.692,1.68,2.158C2520.375,304.5,2518.872,302.938,2518.1,302.784Zm19.664,6.048s-3.506.225-6.723.484-5.176-.515-5.187.739,4.238.914,8.637,1.01S2537.761,308.832,2537.761,308.832Z" transform="translate(-2409.198 -205.011)" fill="#ff7f8f" fill-rule="evenodd"/>
          <path id="Trazado_989173" data-name="Trazado 989173" d="M2551.611,242.6s4.118.407,7.387,1.127,8.239,1.779,9.2,2.243-1.626.478-1.626.478a11.55,11.55,0,0,1,4.268,1.345c2.749,1.322,3.873,2.612,5.517,3.354s3.491,2.546,5.19,4.125,4.014,2.9,6.488,6.851,2.759,5.549,2.759,5.549,1.467-.22,2.125,2.546a46.823,46.823,0,0,1,.6,8.281s-2.6-1.087-7.822-2.966-6.022-3.061-8.626-2.573-5.094.776-5.094.776,4.129.736,8.637,1.951,10.974,3.865,10.861,7.053-2.571,5.15-3.33,7.8a13.589,13.589,0,0,0-.263,5.395,10.364,10.364,0,0,0-4.618-3.413c-3.064-1.136-5.555-2-6.687-3.433s-3.137-5.759-4.609-7.51-2.548-3.254-2.624-1.807-.111,2.837,1.509,4.092a48.024,48.024,0,0,1,4.64,4.831,12.6,12.6,0,0,0-4.743-1.94c-2.408-.315-5.277-.612-8.073-4.2s-3.785-6.494-4.061-8.6.224-3.109-.775-4.268a7.781,7.781,0,0,0-2.2-1.743s.351,3.959.752,5.847.811,7.112.811,7.112a11.946,11.946,0,0,1-7.8-3.051,37.063,37.063,0,0,1-6.74-7.85,5.641,5.641,0,0,1,.027-4.683,12.41,12.41,0,0,1,2.793-4.193s-2.474-1.015-3.755.5-.728,7.766-.728,7.766-2.491-1.84-6.245-4.784a39,39,0,0,1-6.94-7.707,4.049,4.049,0,0,1-5.678-.037c-2.986-2.692-3.029-4.837-3.029-4.837s-4.6-.866-4.842-3.183,2.341-2.365,5.507-1.818a97.075,97.075,0,0,1,10.463,3.157s-2.2-3.242.7-5.028,10.414-1.965,12.835-1.679a25.154,25.154,0,0,1,4.488.978A12.263,12.263,0,0,1,2551.611,242.6Zm-3.386,1.892a19.609,19.609,0,0,0-3.737,2.27c-1.146,1.051-1.9,2.769-1,2.328s1.128-1.175,3.413-3.46A12.577,12.577,0,0,1,2548.225,244.489Zm8.243,2.934a26.533,26.533,0,0,0-5.288,1.876c-1.382.891-2.047,1.612-1.205,1.817s1.669-1.1,3.119-1.94S2556.467,247.423,2556.467,247.423Zm9.558,5.7a22.86,22.86,0,0,0-5.386.579c-3.444.841-7.051,2.127-6.243,3.141s1.083.623,3.216-.212a32.027,32.027,0,0,1,7.15-2,18.39,18.39,0,0,1,7.633.175,15.4,15.4,0,0,0-2.371-1.154A12.407,12.407,0,0,0,2566.025,253.126Zm-6.9,7.728c-.371,0-.731.013-1.031.027-1.2.056-2.579.358-2.906,1.9s2.093.545,4.08-.037,1.971-.082,2.079-1.031C2561.423,261,2560.234,260.858,2559.125,260.854Zm11.535,1.207c-.724.041-1.589.164-2.868.3-2.563.269-4.83.852-4.2,1.642s4.146.107,7.569-.2,4.8.49,5.057-.112-2.038-1.016-3.508-1.419A5.955,5.955,0,0,0,2570.66,262.061Z" transform="translate(-2414.39 -191.212)" fill="#ff7f8f" fill-rule="evenodd"/>
          <path id="Trazado_989174" data-name="Trazado 989174" d="M2538.77,345.394c.551-1.13,2.943-2.2,2.956-.973Z" transform="translate(-2422.53 -224.841)" fill="#ff7f8f" fill-rule="evenodd"/>
        </g>
        <g id="Grupo_1153616" data-name="Grupo 1153616" transform="translate(0 36.621)">
          <path id="Trazado_989175" data-name="Trazado 989175" d="M2297.984,299.082l4.185,3.306s-10.01,3.151-13.409,5.379a30.5,30.5,0,0,0-6.359,6.15s4.772-1.562,6.864-3.152a78.618,78.618,0,0,1,8.734-5.586,10.348,10.348,0,0,1,5.458-.935l.8,4.189-.611.212c1.079-.207,1.927-.136,2.138.569.737,2.5.47,6.071-1.841,7.006a73.131,73.131,0,0,1-9.354,3.125,32.885,32.885,0,0,0-6.358,2.424s5.066.014,7.3-.691a51.757,51.757,0,0,0,6.246-2.849s-2.308,7.995-6.911,11.475-5.711,2.588-10.019,3.731-6.031.74-6.709-.457.247,8.627.27,22.632,2.335,44.418,2.713,49.575-.785,10.3.033,13.554,1.183,8.86,1.339,13.469,1.017,6.88.508,9.392-3.347,2.934-3.751.138a70.967,70.967,0,0,1-.977-15.441c.342-9.022-.587-13.213-.587-13.213s-2.58-6.853-5.606-10.986a41.038,41.038,0,0,0-6.48-6.925,13.312,13.312,0,0,1-5.543,1.148,11.572,11.572,0,0,0-2.765-.112s2.207-2.1,1.783-3.832a3.168,3.168,0,0,0-1.937-2.222s.468,1.325-1.206,3.12-2.594,3.029-2.594,3.029-2.9-.587-7.409-1.164-7.854-.792-7.854-.792,7.814-3.417,7.891-5.772-2.819-2.131-2.819-2.131a8.5,8.5,0,0,1-5.167,3.944c-3.55.86-7.982,1.964-11.9,1.691a35.055,35.055,0,0,1-6.64-1.063s5.278-1.345,7.285-3.024a42.719,42.719,0,0,1,4.982-3.407s-6.082-.04-9.458,1.371-6.155,3.675-9.665,4.13a25.579,25.579,0,0,1-7.666-.5s6.009-2.491,8.223-3.232,3.941-1.127,3.941-1.127-7.23-.024-10.123.622-8.216,2.164-8.216,2.163a2.516,2.516,0,0,0-2.642-.808,9.42,9.42,0,0,1-3.093.117s4.378-.976,6.427-3.567a12.727,12.727,0,0,1,4.051-3.53l10.309.239-8.108-1.8a23.684,23.684,0,0,1,5.5-2.546c2.779-.785,5.458-3.846,7.127-3.726s4.809,2.045,6.122,3.147a35.161,35.161,0,0,0,5.076,2.886,9.332,9.332,0,0,0-4-3.944c-2.993-1.63-5.1-2.636-5.1-2.636s5.668.239,8.5-.686a55.356,55.356,0,0,1,8.529-1.493,6.393,6.393,0,0,1,2.351,3.375c.975,2.611,2.241,5.156,2.241,5.156s1.373-3.838.065-6.32-2.025-4.43-3.226-4.921-2.642-1.138-2.642-1.138,4.582,1.249,7.467.776,7.341-1.057,7.341-1.057l1.813,2.206s.615-1.794-.635-2.482a35.907,35.907,0,0,0,5.011,2.179c3.313,1.131,7.742,2.615,7.742,2.615a2.757,2.757,0,0,1-.271,3.014,17.322,17.322,0,0,0-1.673,3.646,2.421,2.421,0,0,0,2.633-1.552c.647-1.858,1.223-3.593,1.223-3.593a60.769,60.769,0,0,1,6.182,5.416c1.763,2.012,3.079,4.5,2.489,7.308a14.408,14.408,0,0,1-1.555,4.326s-2.033.062-4.491.176a39.732,39.732,0,0,1-5.1-.16l7.654,1.409s.589.784-1.32,1.546a17.174,17.174,0,0,0-3.478,1.94,34.2,34.2,0,0,1,4.36,4.252c1.8,2.2,6.693,10.4,6.693,10.4s-1.362-14.283-1.978-21.293-.888-30.821-.49-37.839,0-14.436,0-14.436-.317,1.435-5.581,1.675-6.94,1.117-10.607.638a67.5,67.5,0,0,1-8.85-2.073s5.738-1.914,8.212-2.472a33.175,33.175,0,0,0,6.623-2.95s-7.5-.319-9.893.8-9.408,1.754-9.408,1.754l-3.51-4.545a31.41,31.41,0,0,1,5.425-.637c2.338-.064,10.273-2.1,14.566-2.679-2.272-.136-5.288-.385-6.834-.51-2.949-.239-10.681-.239-10.681-.239a5,5,0,0,1,1.116-4.066,12.043,12.043,0,0,1,7.973-4.385c4.384-.638,8.932-.956,10.767-.4s6.779,2.631,6.779,2.631-7.818-4.869-11.886-5.825a91.009,91.009,0,0,0-9.168-1.515,29.789,29.789,0,0,1,4.783-2.392c2.235-.8,10.371-1.834,12.6-1.037s3.988.8,7.1-.637,6.616-5.5,9.488-5.74-4.254,6.873-4.926,8.824,3.521-2.762,6.222-4.459S2297.984,299.082,2297.984,299.082Zm2.211,10.753c-2.161.745-4.712,1.621-6.412,2.168-3.467,1.115-6.841,4.38-8.578,5.321a10.518,10.518,0,0,0-3.1,3.035s6.312-1.929,8.249-3.827a62.466,62.466,0,0,1,6.156-4.8S2298.238,310.721,2300.195,309.835Zm-19.972,6.41s-3.3,1.578-3.433,2.924,1.392.186,2.321-.834A4.551,4.551,0,0,0,2280.223,316.245Zm-26.965,53.482c-.348.11-.732,1.121-.836,2.306a18.742,18.742,0,0,0,.064,3.922,9.979,9.979,0,0,0,.808,3.444c.382.731,1.279-.407,1.542-1.361a15.715,15.715,0,0,0,.08-5.507,6.662,6.662,0,0,0-1.362-2.631.4.4,0,0,0-.154-.164A.185.185,0,0,0,2253.259,369.727Zm-11.242,9.8a1.2,1.2,0,0,0-.18.011,1.82,1.82,0,0,0-.909,1.754c.151,1.178.835,1.915,1.734,1.828s1.236-1.34.748-2.562A1.466,1.466,0,0,0,2242.016,379.523Z" transform="translate(-2193.005 -246.589)" fill="#fef6e8" fill-rule="evenodd"/>
          <path id="Trazado_989176" data-name="Trazado 989176" d="M2256.478,220.494a54.221,54.221,0,0,0,6.712,1.09,58.257,58.257,0,0,0,8.209,0,46.822,46.822,0,0,0-4.359,4.587,5.931,5.931,0,0,0-1.376,4.3s1.316-1.032,3.724-2.753,3.673-6.484,3.673-6.484a22.159,22.159,0,0,0,6.029,2.3,20.623,20.623,0,0,0,6.021-.287c1.263-.172,3.039,2.52,4.7,4.241a22.121,22.121,0,0,1,2.414,2.87s-3.272.745-5.167,1.377a30.768,30.768,0,0,0-4.476,2.126s2.871-.175,4.879-.175,5.331-2.578,5.331-2.578a25.626,25.626,0,0,1,3.673,3.556c1.146,1.55.749,3.154-.113,4.933s-5.624,2.524-8.493,3.9-12.708,1.621-12.708,1.621a47.347,47.347,0,0,1,6.318,7.85c3.353,5.074,5.364,11.014,7.945,18.482s6.226,22.975,7.852,34.559,1.77,28.11.765,36.2-2.281,34.217-2.471,38.344-.147,35.272-.147,35.272c-.227,3.745-4.1,2.386-4.1,2.386s.181-16.137,0-20.193.634-7.749,1.446-15.861.758-20.191,1.419-37.2,1.831-30.786-1.175-49.255-6.89-29.555-10.4-36.994-10.092-13.766-10.092-13.766a21.531,21.531,0,0,1-7.395.3,48.822,48.822,0,0,1-8.881-2.153,12.139,12.139,0,0,1,4.673-1.663,6.325,6.325,0,0,0,4.017-1.946,49.954,49.954,0,0,0-4.986-.536c-1.971-.058-5.467,2.714-6.957,3.046s-5.423-1.339-8.707-2.727a58.692,58.692,0,0,1-7.962-4.6,82.9,82.9,0,0,0,8.376.149c2.882-.212,6.549-.537,6.549-.537a34.548,34.548,0,0,0-7.3-1.61c-2.589-.053-7.989.212-7.989.212l-6-2.365,8.506-.005s-5.887-.738-7.387-.787a39.645,39.645,0,0,1-6.406-.946c-1.836-.454-4.288-2.839-4.288-2.839a16.24,16.24,0,0,1,6.051-1.069c3.641,0,6.019,1.425,10.474,2.222a14.376,14.376,0,0,0,7.844-.436c1.456-.387-5.453-3.338-5.453-3.338s4.766-1.021,8.342-1.6,7-1.174,7-1.174a15.52,15.52,0,0,0,.171,3.274,27.932,27.932,0,0,1,.233,4.072s.745-1.034,1.833-2.583S2256.478,220.494,2256.478,220.494Zm25.047,5.517s-4.375,1.964-5.761,3.46a10.759,10.759,0,0,0-2,4.162,53.89,53.89,0,0,0,4.99-3.322A9.735,9.735,0,0,0,2281.525,226.011Zm-16.805,5.81a2.055,2.055,0,0,0-1.743.978,3.558,3.558,0,0,0-.547,2.376,7.948,7.948,0,0,0,2.167-1.238,1.588,1.588,0,0,0,.313-2.1A.939.939,0,0,0,2264.72,231.821Z" transform="translate(-2202.096 -220.494)" fill="#fef6e8" fill-rule="evenodd"/>
          <path id="Trazado_989177" data-name="Trazado 989177" d="M2419.7,254.824s-4.919.446-7.294-.947-8.032.086-8.032.086l-1.405.164,3.253-2.415s-3.39,1.208-5.328.845-4.756-1.343-6.339-.979-7.084,4.219-8.82,5.847a25.545,25.545,0,0,0-3.69,3.867c-.912,1.3-3.026,5.885-3.273,4.885s.424-3.526,2.135-5.118,7.792-5.563,7.792-5.563-4.917,1.008-7.788,1.317a19.2,19.2,0,0,0-7.585,2.945c-1.72,1.1-4.151,3.477-4.649,5s-.868,4.122-1.165,5.266-.856,3.167-1.433,1.767a5.089,5.089,0,0,1,.063-4.318,23.506,23.506,0,0,1,2.254-3.318s3.437-3.352,1.424-2.26-4.182,1.571-5.718,2.458a8.7,8.7,0,0,1-3.991,1.061c-1.112.094-3.578,2.869-3.578,2.869a7.794,7.794,0,0,1,.718,2.671c.174,1.664,1.413,4.226.121,3.38s-2.117-3.245-1.8-4.128a2.713,2.713,0,0,0,.061-1.65,33.765,33.765,0,0,1-4.947,3.828,36.925,36.925,0,0,0-5.16,4,4.958,4.958,0,0,1,3.579.972c1.6,1.289,1.374,2.2,1.374,2.2s-1.2-.07-3.306-.365a10.835,10.835,0,0,1-3.327-.944,26.467,26.467,0,0,0-3.532,3.916c-1.316,1.925-2.726,5.375-2.626,6.241s2.709,1.605,2.709,1.605-1.13,3.366.156,2.959,7.1-1.564,9.344-3.224,4.088-2.754,4.088-2.754-2.232.437-6.707,10-7.17,14.834-8.427,19.805-2.889,9.829-2.889,9.829l.037,9.5s5.791-22.962,8.052-28.382,9.111-17.166,12.09-20.312a97.732,97.732,0,0,1,26.183-17.922c12.218-5.471,11.927-4.783,19.552-7.649S2419.7,254.824,2419.7,254.824Z" transform="translate(-2240.476 -230.789)" fill="#fef6e8" fill-rule="evenodd"/>
          <path id="Trazado_989178" data-name="Trazado 989178" d="M2343.89,397.119c3.44.272,7.864,4.208,9,4.221,1.4.015,3.955,1.168,6.459,2.838a19.937,19.937,0,0,1,5.233,4.826c1.543,1.94,9.088,11.715,11.015,14.861s.144,8.5.144,8.5a9.725,9.725,0,0,1,3.236,4.6c1.165,3.218-3.65,7.451-4.853,10.923a13.423,13.423,0,0,0-.314,6.925,25.779,25.779,0,0,0-3.891-3.487c-2.3-1.668-5.818-2.553-8.95-5.512s-1.312-4.538-1.709-8.228-2.669-4.879-2.669-4.879-.314,6.528.414,9.461a12.925,12.925,0,0,0,3.307,5.363s-10.507-2.762-13.093-8.079.451-15.659.451-15.659a59.646,59.646,0,0,0-4.165,10.891,27.6,27.6,0,0,0-.133,12.018,61.409,61.409,0,0,1-10.313-9.328c-5.934-6.476-6.79-9.253-10.29-15.021s-5.083-11.271,1.563-18.088,14.484,1.924,14.484,1.924-.487-6.338,2.9-8.585A3.344,3.344,0,0,1,2343.89,397.119Zm-11.944,13.24a6.181,6.181,0,0,0-1.269.186c-3.456.883-2.808,3.859-2.808,3.859a5.459,5.459,0,0,1,4.509-1.6,8.728,8.728,0,0,0,4.736-.707A8.471,8.471,0,0,0,2331.946,410.359Zm27.928,4.587c-1.366-.079-2.486.436-2.258,1.445.3,1.346,1.322.9,2.451.723s3.323.995,4.044.086-.942-1.32-2.828-1.972A5.179,5.179,0,0,0,2359.874,414.946Zm-9.525.94c-.832-.059-1.674.454-1.3,1.446.6,1.587,3.122.551,2.514-.7A1.423,1.423,0,0,0,2350.349,415.887Zm-11.469,2.482c-1.445-.174-3.186,2.351-4.862,5-1.917,3.023-.805,7.361-.805,7.361a26.224,26.224,0,0,1,2.792-5.74c1.793-2.664,5.026-5.228,3.477-6.368A1.267,1.267,0,0,0,2338.88,418.369Zm23.3,5.342a.764.764,0,0,0-.317.1c-.848.489.911,2.483,2.992,3.168s4.506,3.459,4.028,2.148C2368.437,427.892,2363.948,423.552,2362.178,423.711Zm-12.117.191c-.467.214.251,2.025,1.58,1.929,1.513-.11-.371-1.555-1.309-1.914A.349.349,0,0,0,2350.061,423.9Z" transform="translate(-2235.09 -279.137)" fill="#fef6e8" fill-rule="evenodd"/>
          <path id="Trazado_989179" data-name="Trazado 989179" d="M2353.032,339.007a10.793,10.793,0,0,1,3.671.537c2.669.889,7.028,0,7.028,0a28.523,28.523,0,0,1-4.713,4.534,6.026,6.026,0,0,0-2.669,3.737s4.8-3.113,6.313-3.737,2.314-3.025,2.314-3.025,1.513-1.156,3.737.712,2.758,2.4,2.758,2.4a63.259,63.259,0,0,0-6.943,4.533,52.185,52.185,0,0,1-7.558,4.539s2.846-.265,5.428-.532a22.7,22.7,0,0,0,7.916-2.759c2.224-1.246,2.491-1.513,3.56.978a25.853,25.853,0,0,1,1.509,4.89,5.719,5.719,0,0,1,1.16,4.805c-.625,2.847-4.009,4.716-7.3,8.186s-13.963,5.6-16.721,3.912-4.806-6.139-4.806-6.139a53.143,53.143,0,0,0-1.563,8.653c-.461,4.837-4.632,17.545-5.14,25.63s-1.5,21.639-1.43,27.916-.784,7.542-.738,9.371-.367,6.227-.558,13.326-.611,5.873-2.221,5.809-.347-3.733-.628-6.814-.1-10.726-.1-10.726a21.059,21.059,0,0,0,1.158-3.891c.491-2.381.1-8.216-.187-13.835s1.777-14.022,1.887-18.608,1.61-12.085,3.1-18.407,4.289-15.4,4.289-15.4l-4.275,1.424c-2.4.8-8.005-.71-11.829-4.624s-2.932-11.121-.441-17.258,6.049-3.556,6.049-3.556,1.513-1.514,5.07-.09,3.466,2.49,5.248,3.646,1.776-.977.621-3.912a20.679,20.679,0,0,0-3.822-5.692,19.971,19.971,0,0,1,6.223-.537C2350.381,339.1,2351.784,339.007,2353.032,339.007Zm-14.34,10.061a.63.63,0,0,0-.594.277c-.775.916.708,1.309,1.914,2.328s1.539,2.092,2.641,2.711-.611-1.99-1.766-3.226C2340.021,350.231,2339.313,349.16,2338.692,349.069Zm14.494,4.954a1.543,1.543,0,0,0-.958,1.558c.194.679,2.157-.636,1.5-1.366A.543.543,0,0,0,2353.187,354.023Zm16.886,2.057a34.417,34.417,0,0,0-5.958.967c-2.79.667-5.521.93-5.438,2.684s6.2-1.476,8.563-1.9,4.683-.126,4.582-1.233C2371.782,356.185,2371.081,356.05,2370.073,356.079Zm-23.706,1.531a.394.394,0,0,0-.28.027c-.574.341.677,2.692,1.679,2.158C2348.638,359.328,2347.135,357.765,2346.367,357.61Zm19.665,6.049s-3.507.224-6.723.484-5.177-.515-5.187.739,4.238.914,8.636,1.01S2366.031,363.659,2366.031,363.659Z" transform="translate(-2237.461 -259.837)" fill="#fef6e8" fill-rule="evenodd"/>
          <path id="Trazado_989180" data-name="Trazado 989180" d="M2379.881,297.423s4.117.407,7.39,1.127,8.236,1.78,9.2,2.243-1.623.478-1.623.478a11.54,11.54,0,0,1,4.266,1.345c2.748,1.323,3.874,2.612,5.517,3.354s3.49,2.546,5.19,4.125,4.014,2.9,6.489,6.851,2.759,5.549,2.759,5.549,1.466-.22,2.127,2.546a47.1,47.1,0,0,1,.6,8.281s-2.6-1.088-7.822-2.966-6.019-3.061-8.627-2.572-5.093.776-5.093.776,4.128.736,8.636,1.951,10.975,3.865,10.861,7.054-2.572,5.15-3.33,7.8a13.574,13.574,0,0,0-.264,5.4,10.357,10.357,0,0,0-4.618-3.413c-3.063-1.136-5.551-2-6.687-3.434s-3.132-5.758-4.609-7.51-2.548-3.254-2.625-1.808-.11,2.837,1.51,4.092a47.916,47.916,0,0,1,4.64,4.831,12.6,12.6,0,0,0-4.743-1.94c-2.4-.314-5.277-.612-8.072-4.2s-3.783-6.494-4.061-8.6.224-3.109-.775-4.268a7.788,7.788,0,0,0-2.2-1.743s.354,3.959.751,5.847.811,7.112.811,7.112a11.935,11.935,0,0,1-7.794-3.05,36.95,36.95,0,0,1-6.74-7.851,5.622,5.622,0,0,1,.026-4.682,12.381,12.381,0,0,1,2.79-4.194s-2.475-1.015-3.755.5-.729,7.765-.729,7.766-2.491-1.84-6.245-4.784a38.993,38.993,0,0,1-6.94-7.707,4.048,4.048,0,0,1-5.677-.037c-2.986-2.692-3.029-4.837-3.029-4.837s-4.6-.866-4.842-3.184,2.342-2.365,5.508-1.818a97.228,97.228,0,0,1,10.466,3.157s-2.2-3.242.7-5.028,10.413-1.966,12.837-1.68a25.039,25.039,0,0,1,4.486.979A12.269,12.269,0,0,1,2379.881,297.423Zm-3.394,1.892a19.586,19.586,0,0,0-3.738,2.27c-1.145,1.052-1.9,2.768-.991,2.328s1.126-1.175,3.41-3.46A14.008,14.008,0,0,1,2376.488,299.315Zm8.243,2.934a26.532,26.532,0,0,0-5.287,1.876c-1.383.891-2.048,1.612-1.206,1.818s1.669-1.1,3.119-1.94S2384.73,302.249,2384.73,302.249Zm9.566,5.7a22.887,22.887,0,0,0-5.391.579c-3.439.841-7.05,2.127-6.241,3.141s1.085.622,3.216-.212a32.031,32.031,0,0,1,7.15-2,18.367,18.367,0,0,1,7.631.176,15.3,15.3,0,0,0-2.371-1.153A12.369,12.369,0,0,0,2394.3,307.953Zm-6.907,7.728c-.368,0-.732.013-1.032.027-1.2.057-2.579.358-2.905,1.9s2.094.545,4.081-.037,1.97-.081,2.078-1.031C2389.693,315.824,2388.5,315.683,2387.389,315.681Zm11.542,1.206c-.725.04-1.59.164-2.869.3-2.559.268-4.83.852-4.2,1.643s4.145.107,7.571-.2,4.792.49,5.053-.112-2.037-1.017-3.507-1.419A6,6,0,0,0,2398.931,316.887Z" transform="translate(-2242.654 -246.038)" fill="#fef6e8" fill-rule="evenodd"/>
          <path id="Trazado_989181" data-name="Trazado 989181" d="M2367.04,400.221c.552-1.13,2.944-2.2,2.96-.973Z" transform="translate(-2250.794 -279.667)" fill="#fef6e8" fill-rule="evenodd"/>
        </g>
      </g>
      <g id="Grupo_1153632" data-name="Grupo 1153632" transform="translate(133.948 74.645)">
        <path id="Trazado_989182" data-name="Trazado 989182" d="M2393.54,748.985s36.748-4.071,39.232-2.294,5.2,4.051,2.272,4.933-39.189,1.76-40.371.474A4.861,4.861,0,0,1,2393.54,748.985Z" transform="translate(-2393.539 -433.092)" fill="#fdaf2f" fill-rule="evenodd"/>
        <path id="Trazado_989183" data-name="Trazado 989183" d="M2503.168,728.662c-4.392-.043-8.6.244-8.6.244s-3.269.835-3.67,2.819a6,6,0,0,0,.49,4.178c2.321,3.46,10.89,6.155,13.162,8.867s3.136,5.708,8.1,4.389,15.419-.842,15.26-3.7a2.773,2.773,0,0,0-.775-2.371c-.081-.08-.2-.174-.284-.257-3.006-3.487-14.347-13.586-19.381-13.994C2506.113,728.732,2504.63,728.675,2503.168,728.662Z" transform="translate(-2425.812 -427.253)" fill="#fdaf2f" fill-rule="evenodd"/>
        <path id="Trazado_989184" data-name="Trazado 989184" d="M2498.72,611.3s-21.433-.3-22.62-.254-11.5,2.942-11.535,4.746,6.689,1.469,13.208,1.436S2500.851,613.707,2498.72,611.3Z" transform="translate(-2417.123 -388.197)" fill="#360b1e" fill-rule="evenodd"/>
        <path id="Trazado_989185" data-name="Trazado 989185" d="M2403.8,611.244a12.1,12.1,0,0,0,4.569,2.685c2.716.822,34.192.411,32.95-1.125s-6.5-3.29-11.6-2.805S2403.8,611.244,2403.8,611.244Z" transform="translate(-2396.947 -387.825)" fill="#360b1e" fill-rule="evenodd"/>
        <path id="Trazado_989186" data-name="Trazado 989186" d="M2496.579,329.7c-20.97,0-37.959,32.938-37.959,73.566s16.989,73.565,37.959,73.565,37.97-32.937,37.97-73.565S2517.546,329.7,2496.579,329.7Zm2.812,28.95c10.18,0,18.439,18.71,18.439,41.8s-8.259,41.808-18.439,41.808-18.426-18.719-18.426-41.808S2489.212,358.652,2499.391,358.652Z" transform="translate(-2415.15 -294.78)" fill="#f15d85" fill-rule="evenodd"/>
        <path id="Trazado_989187" data-name="Trazado 989187" d="M2431.983,324.27s3.163,12.585.985,13.856-24.678-.283-25.646,11.753-2.782,48.469-4.3,54.81-1.159,29.244-1.53,38.091,2.041,19.684,2.388,24,2.633,13.112,1.973,17.106-.152,27.406,1.172,35.568,13.653,68.482,12.535,72.416-9.575,8.827-11.83,9.328-8.7-.625-11.189-.778,1.519,5.651,4.165,6.035,15.382-1.957,21.2-1.136,8.814,1.854,10.151-1.339-3.421-11.863-2.936-14.144,3.537-34.994,3.41-45.441-3.02-23.612-3.02-23.612l4.876-16.131,11.323-40.067,2.822,50.036s0,4.355,2.177,12.6,12.374,52.14,12.147,55.463-3.666,12.491-1.262,13.636,8.824.8,10.544,3.437,3.323,6.189,7.1,6.3,15.73-.214,14.491-2.552-15.9-13.526-16.755-18.7-2.681-64.992-4.188-74.47-11.653-79.054-11.653-79.054-1.116-32.438.732-40.463,18.472-34.4,16.832-40.239-24.531-7.878-26.047-10.464.063-24.587-2.248-28.6-20.045,14.773-20.045,14.773Z" transform="translate(-2394.276 -288.556)" fill="#977063" fill-rule="evenodd"/>
        <path id="Trazado_989188" data-name="Trazado 989188" d="M2449.98,325.715l1.654,6.834s8.576-.645,12.507-5.806,4.989-12.9,4.989-12.9Z" transform="translate(-2412.28 -289.513)" fill="#360b1e" fill-rule="evenodd"/>
        <path id="Trazado_989189" data-name="Trazado 989189" d="M2464.277,278.426c-8.373-4.123-20.2,8.039-22.751,19.8s1.063,18.161,6.636,17.255,17.588-6.709,20.887-19.461S2468.459,280.486,2464.277,278.426Z" transform="translate(-2409.197 -277.482)" fill="#977063" fill-rule="evenodd"/>
        <path id="Trazado_989190" data-name="Trazado 989190" d="M2463.98,277.611c-4.91-.17-10.356,3.865-14.325,9.4,2.515,1.128,5.734,2.14,8.3,1.314,4.8-1.544,5.734-4.989,9.474-5.89,1.049-.253,2.548-.538,4.044-.9a11.319,11.319,0,0,0-4.225-3.111A7.929,7.929,0,0,0,2463.98,277.611Z" transform="translate(-2412.173 -277.482)" fill="#fdd9b7" fill-rule="evenodd"/>
        <path id="Trazado_989191" data-name="Trazado 989191" d="M2447,277.42s-4.372,7.407-.355,8.7,8.065-1.478,8.065-1.478-1.006,3.446,4.479,5.875,10.233-4.4,10.233-4.4-10.628-4.187-12.49-4.889S2447,277.42,2447,277.42Z" transform="translate(-2410.609 -277.42)" fill="#360b1e" fill-rule="evenodd"/>
        <path id="Trazado_989192" data-name="Trazado 989192" d="M2480.751,290.489l2.112,9.688-1.539.9-2.018-9.482Z" transform="translate(-2422.018 -281.759)" fill="#360b1e" fill-rule="evenodd"/>
        <path id="Trazado_989193" data-name="Trazado 989193" d="M2478.11,306.57s4.678-5.889,7.862-4.214-2.929,8.929-4.853,9.227a3.355,3.355,0,0,1-3.473-1.444A15.625,15.625,0,0,1,2478.11,306.57Z" transform="translate(-2421.454 -285.6)" fill="#977063" fill-rule="evenodd"/>
        <path id="Trazado_989194" data-name="Trazado 989194" d="M2461.328,299.587c.217-1.467,8.446.551,7.941,2.6s-3.5.079-4.712-.208S2461.208,300.413,2461.328,299.587Z" transform="translate(-2416.048 -284.614)" fill="#360b1e" fill-rule="evenodd"/>
        <path id="Trazado_989195" data-name="Trazado 989195" d="M2451.02,297.856c1.824.138-3.609-4.766-4.718-3.2S2449.332,297.728,2451.02,297.856Z" transform="translate(-2410.998 -283.041)" fill="#360b1e" fill-rule="evenodd"/>
        <path id="Trazado_989196" data-name="Trazado 989196" d="M2448.22,315.619l4.509.608s-1.533,1.627-2.719,1.35S2448.22,315.619,2448.22,315.619Z" transform="translate(-2411.696 -290.104)" fill="#360b1e" fill-rule="evenodd"/>
        <path id="Trazado_989197" data-name="Trazado 989197" d="M2446.17,320.774a5.428,5.428,0,0,0,4.716.357c2.979-.93,6.716-2.98,6.409-1.96s-3.881,7.3-7.945,6.93C2446.5,325.843,2446.17,320.774,2446.17,320.774Z" transform="translate(-2411.015 -291.191)" fill="#360b1e" fill-rule="evenodd"/>
        <path id="Trazado_989198" data-name="Trazado 989198" d="M2456.974,319.157c-1.229.365-3.48,1.436-5.483,2.061a6.228,6.228,0,0,1-3.177.208l-.3,2.335a9.933,9.933,0,0,0,4.01.1A6.627,6.627,0,0,0,2456.974,319.157Z" transform="translate(-2411.626 -291.279)" fill="#fff" fill-rule="evenodd"/>
        <g id="Grupo_1153618" data-name="Grupo 1153618" transform="translate(34.789 14.499)">
          <path id="Trazado_989199" data-name="Trazado 989199" d="M2450.618,302.523a.334.334,0,0,1-.271-.138c-2.068-2.853-4.255-2.594-4.345-2.581a.334.334,0,0,1-.095-.661c.108-.017,2.662-.349,4.981,2.85a.335.335,0,0,1-.075.466A.344.344,0,0,1,2450.618,302.523Z" transform="translate(-2445.623 -299.126)" fill="#360b1e"/>
        </g>
        <g id="Grupo_1153619" data-name="Grupo 1153619" transform="translate(44.509 18.149)">
          <path id="Trazado_989200" data-name="Trazado 989200" d="M2466.324,307.117a.334.334,0,0,1-.229-.09c-2.955-2.773-5.318-1.465-5.418-1.408a.334.334,0,0,1-.337-.577c.116-.068,2.877-1.632,6.212,1.5a.334.334,0,0,1,.015.472A.329.329,0,0,1,2466.324,307.117Z" transform="translate(-2460.175 -304.591)" fill="#360b1e"/>
        </g>
        <g id="Grupo_1153620" data-name="Grupo 1153620" transform="translate(58.72 18.655)">
          <path id="Trazado_989201" data-name="Trazado 989201" d="M2481.784,307.664a.334.334,0,0,1-.215-.59c.133-.111,3.262-2.69,5-1.331a.334.334,0,1,1-.412.526c-1.088-.854-3.369.663-4.155,1.318A.32.32,0,0,1,2481.784,307.664Z" transform="translate(-2481.45 -305.348)" fill="#360b1e"/>
        </g>
        <path id="Trazado_989202" data-name="Trazado 989202" d="M2454.542,326.036c-3.12,2.755-8.174,7.583-7.582,9.691.715,2.56,4.9,4.075,7.866,4.463C2454.662,336.273,2454.709,330.814,2454.542,326.036ZM2436.654,337.5c-.094,0-.2.019-.294.019.318,2.674.335,5.1-.556,5.616-1.123.655-7.629.578-13.814,1.976,1.446,1.6,3.895,3.891,6.692,4.217,4.286.5,5.118-.825,7.659-.312s3.212,3.215,5.25.208-.6-11.1-2.922-11.534A12.69,12.69,0,0,0,2436.654,337.5Zm-4.662,36.693a3.49,3.49,0,0,0-.935.009c-2.247.286-5.571,2.3-8.122,4.094-4.082,2.87-8.489,8.822-8.489,8.822a9.637,9.637,0,0,0-.264,4.595c.467,2.589,7.337,25.877,7.337,25.877s9.512-9.042,10.958-12.31-.668-6.37-2.281-10.059,3.811-15.281,3.35-19.25A1.772,1.772,0,0,0,2431.992,374.188Zm-27.339,54.1c-.137,7.471-.141,15.167-.321,19.495a72.037,72.037,0,0,0,.671,11.506c1.386-2.287,2.415-6.03,3.177-8.471,1.329-4.26,2.588-12.053,1.682-15.629C2409.342,433.143,2406.8,430.372,2404.653,428.287Zm67.81,73.044c-5.865.234-12.107,3.717-15.2,12.9,0,0,8.238,23.328,13.926,22.149,1.851-.381,3.794-2.284,5.665-4.876-.417-7.551-.832-13.666-1.229-16.158-.243-1.536-1.453-9.819-2.071-13.957C2473.19,501.379,2472.831,501.318,2472.463,501.332Zm-61.385,29.584c1.68,8.9,4.836,25.011,7.6,40.257a1.453,1.453,0,0,0,.361.01c6.569-1.322,3.028-14,1.6-18.749s1.973-9.068-.151-14.548C2419.4,535.083,2415.079,532.645,2411.079,530.915Zm51.432,40.117c1.794,8.289,3.263,15.446,3.179,16.659-.23,3.323-3.664,12.487-1.259,13.633,1.257.6,3.6.8,5.8,1.219,3.921-3.276,1.023-9.692-1.012-15.957C2468.195,583.393,2465.343,577.088,2462.51,571.033Z" transform="translate(-2397.111 -293.563)" fill="#fdd9b7" fill-rule="evenodd"/>
        <path id="Trazado_989203" data-name="Trazado 989203" d="M2446.191,301.015c.251-.929,1-1.536,1.673-1.355a1.562,1.562,0,0,1,.771,2.009c-.25.929-1,1.536-1.672,1.355A1.565,1.565,0,0,1,2446.191,301.015Z" transform="translate(-2410.997 -284.794)" fill="#360b1e" fill-rule="evenodd"/>
        <path id="Trazado_989204" data-name="Trazado 989204" d="M2415.6,482.988s-6.492,35.053-9.168,46.867-3.359,39.336-3.359,39.336,15.125,1.713,21.972,1.089c3.644-.334,8.54-1.376,11.786-1.162a7.021,7.021,0,0,1,4.3,1.61l1.035-31.638,1.477,9.151.521,25.215a61.432,61.432,0,0,1,14.2-1.8c7.808-.053,20.456-2.732,20.456-2.732s-3.264-39.362-6.922-60.21-7.71-23.179-7.71-23.179-23.77,4.68-31.5,2.848A164.411,164.411,0,0,1,2415.6,482.988Z" transform="translate(-2396.707 -345.679)" fill="#70e8ad" fill-rule="evenodd"/>
        <path id="Trazado_989205" data-name="Trazado 989205" d="M2460.759,306.147c.248-.929,1-1.536,1.67-1.355a1.564,1.564,0,0,1,.771,2.01c-.25.929-1,1.536-1.673,1.355A1.557,1.557,0,0,1,2460.759,306.147Z" transform="translate(-2415.831 -286.498)" fill="#360b1e" fill-rule="evenodd"/>
        <g id="Grupo_1153621" data-name="Grupo 1153621" transform="translate(57.461 146.936)">
          <path id="Trazado_989206" data-name="Trazado 989206" d="M2493.709,573.031a.335.335,0,0,1-.33-.287c-.013-.091-1.326-9.3-2.988-25.044-1.657-15.716-10.724-49.541-10.814-49.88a.334.334,0,1,1,.645-.174c.092.341,9.17,34.217,10.834,49.985,1.661,15.735,2.972,24.928,2.985,25.019a.334.334,0,0,1-.284.378Z" transform="translate(-2479.566 -497.399)" fill="#fff"/>
        </g>
        <g id="Grupo_1153622" data-name="Grupo 1153622" transform="translate(18.529 115.897)">
          <path id="Trazado_989207" data-name="Trazado 989207" d="M2421.615,474.512a.329.329,0,0,1-.173-.048.332.332,0,0,1-.113-.458,22.143,22.143,0,0,0,2.151-4.779c.489-2.022,1.853-17.831,1.866-17.991a.334.334,0,1,1,.665.057c-.055.653-1.381,16.019-1.882,18.09a22.231,22.231,0,0,1-2.229,4.967A.328.328,0,0,1,2421.615,474.512Z" transform="translate(-2421.28 -450.931)" fill="#360b1e"/>
        </g>
        <path id="Trazado_989208" data-name="Trazado 989208" d="M2496.579,329.7c-20.97,0-37.959,32.938-37.959,73.566s16.989,73.565,37.959,73.565,37.97-32.937,37.97-73.565S2517.546,329.7,2496.579,329.7Zm2.812,28.95c10.18,0,15.35,15.621,15.35,38.71s-5.17,36.155-15.35,36.155-18.426-9.978-18.426-33.066S2489.212,358.652,2499.391,358.652Z" transform="translate(-2415.15 -294.78)" fill="#f15d85" fill-rule="evenodd" opacity="0.605"/>
        <path id="Trazado_989209" data-name="Trazado 989209" d="M2522.105,374.819c-.38-.087-.263-.16-.35.219Z" transform="translate(-2436.113 -309.738)" fill="#977063" fill-rule="evenodd"/>
        <path id="Trazado_989210" data-name="Trazado 989210" d="M2485.706,373.089s10.88,49.1,6.265,54.183-42.087,25.978-45.457,27.6-14.484,9.554-18.773,11.264-11.929,2.35-11.929,2.35-1.366-14.249.831-15.991,19.648-2.17,23.4-6.1,17.113-16.941,22.877-21.159a108.709,108.709,0,0,1,10.568-6.859s-5.52-5.315-5.1-11.061S2482.266,371.1,2485.706,373.089Z" transform="translate(-2400.795 -309.156)" fill="#977063" fill-rule="evenodd"/>
        <g id="Grupo_1153623" data-name="Grupo 1153623" transform="translate(88.945 43.132)">
          <path id="Trazado_989211" data-name="Trazado 989211" d="M2533.46,465.85a.334.334,0,0,1-.247-.559c7.951-8.712,13.3-32.69,13.3-59.666,0-34.718-8.737-62.963-19.474-62.963a.334.334,0,1,1,0-.668c11.106,0,20.142,28.544,20.142,63.631,0,27.131-5.414,51.291-13.47,60.116A.326.326,0,0,1,2533.46,465.85Z" transform="translate(-2526.7 -341.994)" fill="#fdd9b7"/>
        </g>
        <g id="Grupo_1153624" data-name="Grupo 1153624" transform="translate(65.988 63.368)">
          <path id="Trazado_989212" data-name="Trazado 989212" d="M2492.692,422.586a.334.334,0,0,1-.334-.325c-.289-10.915,1.727-37.569,9.6-45.669,2.971-3.057,6.045-4.5,9.13-4.281,4.685.329,7.655,4.325,7.779,4.495a.333.333,0,0,1-.538.394c-.029-.04-2.922-3.92-7.294-4.223-2.878-.2-5.773,1.173-8.6,4.081-7.878,8.106-9.654,35.957-9.41,45.186a.335.335,0,0,1-.325.343Z" transform="translate(-2492.331 -372.289)" fill="#360b1e"/>
        </g>
        <g id="Grupo_1153625" data-name="Grupo 1153625" transform="translate(17.379 71.226)">
          <path id="Trazado_989213" data-name="Trazado 989213" d="M2426.526,440.679a.333.333,0,0,1-.332-.306,71.227,71.227,0,0,0-1.156-7.484c-.853-4.138-3.927-15.42-5.2-19.93-1.09-3.869,1.329-27.6,1.433-28.607a.336.336,0,0,1,.365-.3.332.332,0,0,1,.3.367c-.024.246-2.509,24.609-1.452,28.357,1.272,4.519,4.352,15.822,5.208,19.977a71.3,71.3,0,0,1,1.169,7.563.334.334,0,0,1-.3.361Z" transform="translate(-2419.559 -384.054)" fill="#360b1e"/>
        </g>
        <g id="Grupo_1153626" data-name="Grupo 1153626" transform="translate(36.116 106.992)">
          <path id="Trazado_989214" data-name="Trazado 989214" d="M2447.943,470.234a.334.334,0,0,1-.237-.57c.115-.116,11.552-11.639,20.845-18.708,1.613-1.228,3.07-2.38,4.479-3.494,6.6-5.221,11.374-8.993,19.305-9.862a.339.339,0,0,1,.368.3.334.334,0,0,1-.3.368c-7.741.847-12.206,4.377-18.964,9.721-1.412,1.116-2.871,2.27-4.49,3.5-9.254,7.04-20.661,18.531-20.774,18.647A.325.325,0,0,1,2447.943,470.234Z" transform="translate(-2447.61 -437.599)" fill="#360b1e"/>
        </g>
        <path id="Trazado_989215" data-name="Trazado 989215" d="M2507.736,387.821c-3.493,1.915-9.7,5.985-8.969,10.523,1,6.267,7.183,6.517,7.392,10.438.176,3.314,3.028,10.235,6.381,8.982C2511.557,408.147,2509.406,396.21,2507.736,387.821Zm-7.729,50.223c-4.718.216-12.728,3.294-16.5,5.493-4.528,2.634-6.947,8.49-7.879,11.27,8.005-4.486,19.357-11.029,27.409-16.167A4.8,4.8,0,0,0,2500.008,438.044Z" transform="translate(-2420.795 -314.078)" fill="#fdd9b7" fill-rule="evenodd"/>
        <path id="Trazado_989216" data-name="Trazado 989216" d="M2419.61,411.81s-2.292,9.491-1.229,12.523,4.271,24.361,3.955,26.346-1.761,10.35-1.761,10.35,2.271-3.183,2.445-4.5,1.513-15.657,1.513-15.657-4.583-16.265-4.836-19.407S2419.61,411.81,2419.61,411.81Z" transform="translate(-2401.696 -322.044)" fill="#360b1e" fill-rule="evenodd"/>
        <path id="Trazado_989217" data-name="Trazado 989217" d="M2488.694,339.894s-11.939,4.043-19.24,27.1c-1.771,5.583-3,13.756-3.877,21.585l4.725-3.215a130.174,130.174,0,0,1,5.778-25.613A52.35,52.35,0,0,1,2488.694,339.894Zm-19.137,51.716-4.632,3.328c-.815,9-1.125,16.29-1.125,16.29l4.565-1.4S2468.47,401.987,2469.558,391.61Z" transform="translate(-2416.869 -298.164)" fill="#fff" fill-rule="evenodd"/>
        <g id="Grupo_1153627" data-name="Grupo 1153627" transform="translate(85.899 308.045)">
          <path id="Trazado_989218" data-name="Trazado 989218" d="M2522.475,743.772a.334.334,0,0,1-.305-.471c.085-.19,2.135-4.644,6.57-4.7a.328.328,0,0,1,.338.33.335.335,0,0,1-.33.338c-4.012.05-5.949,4.262-5.969,4.305A.328.328,0,0,1,2522.475,743.772Z" transform="translate(-2522.14 -738.599)" fill="#fc9f07"/>
        </g>
        <g id="Grupo_1153628" data-name="Grupo 1153628" transform="translate(54.191 227.484)">
          <path id="Trazado_989219" data-name="Trazado 989219" d="M2498.65,702.1a.336.336,0,0,1-.293-.171c-.679-1.213-3.373-1.634-5.749-2.006-2.163-.338-4.206-.657-5.141-1.53-1.567-1.458-.59-5.811.641-10.526.211-.812.4-1.512.5-2.021.444-2.1-.557-7.781-2.818-15.994-1.672-6.078-11.022-51.013-11.116-51.466a.333.333,0,0,1,.259-.395.337.337,0,0,1,.395.259c.094.453,9.44,45.367,11.107,51.425,1.62,5.881,3.424,13.485,2.826,16.309-.11.524-.295,1.232-.509,2.051-.837,3.2-2.238,8.562-.833,9.869.786.732,2.821,1.051,4.789,1.359,2.651.415,5.391.843,6.229,2.34a.333.333,0,0,1-.128.454A.309.309,0,0,1,2498.65,702.1Z" transform="translate(-2474.67 -617.989)" fill="#360b1e"/>
        </g>
        <path id="Trazado_989220" data-name="Trazado 989220" d="M2400.087,747.7s-4.886-.017-4.4,1.894,4.025,2.254,6.1,1.907,16.058-.594,18.379-.655a6.961,6.961,0,0,0,4.232-2.111Z" transform="translate(-2394.241 -433.575)" fill="#977063" fill-rule="evenodd"/>
        <g id="Grupo_1153629" data-name="Grupo 1153629" transform="translate(6.731 37.924)">
          <path id="Trazado_989221" data-name="Trazado 989221" d="M2406.946,479.033a.334.334,0,0,1-.328-.273c-.029-.152-2.839-15.438-3-40.507-.032-4.712,1.014-15.74,1.7-23.037.283-2.988.507-5.349.6-6.673.058-.794.166-2.491.313-4.819.727-11.47,2.426-38.332,3.911-47.206,1.3-7.763,13.115-9.342,20.173-10.285,2.632-.352,5.119-.684,5.513-1.175,1.243-1.55-.206-8.06-.87-10.437a.334.334,0,1,1,.643-.18c.254.908,2.429,8.938.747,11.035-.536.668-2.407.946-5.945,1.419-6.875.919-18.384,2.457-19.6,9.733-1.48,8.84-3.18,35.678-3.9,47.139-.148,2.33-.256,4.03-.314,4.825-.1,1.331-.321,3.7-.6,6.688-.69,7.284-1.733,18.292-1.7,22.969.161,25,2.962,40.238,2.99,40.388a.335.335,0,0,1-.267.389A.291.291,0,0,1,2406.946,479.033Z" transform="translate(-2403.616 -334.196)" fill="#360b1e"/>
        </g>
        <path id="Trazado_989222" data-name="Trazado 989222" d="M2479.28,498.2s3.917,19.743,11.438,25.7,17.865,3.29,17.865,3.29l2.818-9.872s-11.124,1.254-18.489-2.35S2479.28,498.2,2479.28,498.2Z" transform="translate(-2422.009 -350.73)" fill="#f15d85" fill-rule="evenodd"/>
        <path id="Trazado_989223" data-name="Trazado 989223" d="M2424.282,555.819a.757.757,0,0,0-.532.227l-11.562,11.572-6.837-6.833c-.08.618-.15,1.262-.227,1.907l6.526,6.526a.733.733,0,0,0,.527.217.756.756,0,0,0,.537-.217l11.573-11.562,11.565,11.562a.735.735,0,0,0,.527.217.772.772,0,0,0,.542-.217l5.263-5.257.02-.691.094.578,6.195-6.192,11.563,11.562a.735.735,0,0,0,.528.217.773.773,0,0,0,.541-.217l11.572-11.562,2.93,2.929c-.092-.815-.181-1.593-.274-2.411l-2.127-2.127a.768.768,0,0,0-.538-.227.759.759,0,0,0-.531.227L2460.6,567.618l-11.573-11.572a.768.768,0,0,0-.538-.227.754.754,0,0,0-.531.227l-11.562,11.572-11.572-11.572A.774.774,0,0,0,2424.282,555.819Zm0,6.052a.757.757,0,0,0-.532.227l-11.562,11.572-7.461-7.458c-.063.645-.12,1.3-.177,1.957l7.1,7.1a.733.733,0,0,0,.527.217.759.759,0,0,0,.538-.217l11.572-11.565,11.565,11.565a.735.735,0,0,0,.528.217.771.771,0,0,0,.541-.217l5.057-5.06.077-2.2-5.665,5.664L2424.82,562.1A.776.776,0,0,0,2424.282,561.871Zm24.2,0a.751.751,0,0,0-.531.227l-5.113,5.116.3,1.844,5.353-5.354,11.562,11.565a.736.736,0,0,0,.528.217.773.773,0,0,0,.542-.217L2472.7,563.7l3.688,3.687c-.084-.781-.181-1.607-.264-2.4l-2.9-2.892a.767.767,0,0,0-.537-.227.758.758,0,0,0-.531.227l-11.562,11.572L2449.02,562.1A.762.762,0,0,0,2448.482,561.871Zm-24.2,6.052a.757.757,0,0,0-.532.227l-11.562,11.572-7.962-7.962c-.054.678-.083,1.333-.13,2l7.554,7.555a.719.719,0,0,0,.527.217.745.745,0,0,0,.538-.217l11.572-11.562,11.565,11.562a.722.722,0,0,0,.528.217.756.756,0,0,0,.541-.217l4.86-4.849.063-2.211-5.454,5.464-11.572-11.572A.773.773,0,0,0,2424.282,567.922Zm24.2,0a.751.751,0,0,0-.531.227l-4.272,4.272.047,2.1,4.766-4.766,11.562,11.562a.723.723,0,0,0,.528.217.758.758,0,0,0,.541-.217l11.573-11.562,4.395,4.4c-.087-.885-.134-1.449-.227-2.365l-3.641-3.64a.766.766,0,0,0-.537-.227.757.757,0,0,0-.531.227l-11.562,11.572-11.572-11.572A.766.766,0,0,0,2448.482,567.922Zm-24.2,6.052a.744.744,0,0,0-.532.227l-11.562,11.572-8.349-8.35c-.047.745-.07,1.3-.114,2.024l7.925,7.922a.733.733,0,0,0,.527.217.759.759,0,0,0,.538-.217l11.572-11.562,11.565,11.562a.735.735,0,0,0,.528.217.771.771,0,0,0,.541-.217l4.65-4.652.076-2.2-5.257,5.257L2424.82,574.2A.76.76,0,0,0,2424.282,573.974Zm24.2,0a.739.739,0,0,0-.531.227l-4.151,4.148.049,2.1,4.643-4.642,11.562,11.562a.736.736,0,0,0,.528.217.773.773,0,0,0,.542-.217l11.572-11.562,5.04,5.039c-.074-.751-.151-1.559-.229-2.365l-4.284-4.281a.753.753,0,0,0-.537-.227.744.744,0,0,0-.531.227l-11.563,11.572L2449.02,574.2A.749.749,0,0,0,2448.482,573.974Zm-24.2,6.052a.754.754,0,0,0-.532.224l-11.562,11.573-8.643-8.64c-.034.7-.074,1.389-.1,2.034l8.209,8.206a.733.733,0,0,0,.527.217.759.759,0,0,0,.538-.217l11.572-11.562,11.462,11.459c.37,0,.784-.043,1.121-.02.058,0,.091.023.144.03l4.348-4.352.077-2.2-5.05,5.046-11.572-11.572A.77.77,0,0,0,2424.282,580.026Zm24.2,0a.748.748,0,0,0-.531.224l-4.028,4.028.04,2.1,4.528-4.519,11.562,11.562a.736.736,0,0,0,.528.217.772.772,0,0,0,.541-.217l11.573-11.562,5.671,5.671c-.074-.821-.127-1.362-.218-2.354l-4.926-4.926a.763.763,0,0,0-.537-.224.754.754,0,0,0-.531.224l-11.562,11.573-11.572-11.573A.762.762,0,0,0,2448.482,580.026Zm-24.2,6.048a.758.758,0,0,0-.532.227l-8.071,8.086c.682.037,1.346.087,2.021.113l6.589-6.593,5.892,5.891c.657-.09,1.262-.147,1.911-.227l-7.271-7.271A.776.776,0,0,0,2424.282,586.074Zm24.2,0a.752.752,0,0,0-.531.227l-3.9,3.914.036,2.091,4.408-4.4,8.026,8.029c.642-.027,1.215-.1,1.881-.1.046,0,.1-.01.143-.01l-9.521-9.522A.763.763,0,0,0,2448.482,586.074Zm24.207,0a.76.76,0,0,0-.531.227l-9.264,9.275c.792-.07,1.57-.14,2.374-.234l7.432-7.434,5.35,5.354c.077-.017.811-.154.811-.154s-.1-1.1-.11-1.286l-5.524-5.521A.775.775,0,0,0,2472.688,586.074Zm-69.426,2.875c-.05,1.259-.053,1.313-.077,2.061l2.609,2.609c.59.063,1.382.127,2.354.217Zm37.979,4.075-1.153,1.152a5,5,0,0,1,1.086.738Z" transform="translate(-2396.742 -369.862)" fill="#ff7f8f" fill-rule="evenodd"/>
        <path id="Trazado_989224" data-name="Trazado 989224" d="M2456.71,530.633l2.535,52.319,1.372-25.639Z" transform="translate(-2414.515 -361.499)" fill="#360b1e" fill-rule="evenodd"/>
        <g id="Grupo_1153630" data-name="Grupo 1153630" transform="translate(41.156 165.049)">
          <path id="Trazado_989225" data-name="Trazado 989225" d="M2461.451,587.028a.334.334,0,0,1-.334-.33c0-.163-.216-16.366-.714-23.885s-5.2-37.61-5.243-37.913a.334.334,0,1,1,.659-.1c.048.3,4.748,30.433,5.25,37.972s.713,23.757.716,23.921a.334.334,0,0,1-.329.338Z" transform="translate(-2455.155 -524.517)" fill="#360b1e"/>
        </g>
        <path id="Trazado_989226" data-name="Trazado 989226" d="M2403.34,744.82s5.577-.8,7.581,2.408a20.667,20.667,0,0,0,3.243,3.677l-4.031.054a6.16,6.16,0,0,0-1.252-3.917C2407.909,745.835,2403.34,744.82,2403.34,744.82Z" transform="translate(-2396.794 -432.59)" fill="#fc9f07" fill-rule="evenodd"/>
        <path id="Trazado_989227" data-name="Trazado 989227" d="M2517.372,743.5s-3.881-3.24-6.133-2.912-5.049,2.732-5.049,2.732l2.18,2.1s2.952-2.448,4.833-2.548a8.584,8.584,0,0,1,4,1.142Z" transform="translate(-2430.945 -431.208)" fill="#fc9f07" fill-rule="evenodd"/>
        <g id="Grupo_1153631" data-name="Grupo 1153631" transform="translate(84.065 311.913)">
          <path id="Trazado_989228" data-name="Trazado 989228" d="M2521.575,750.808a.334.334,0,0,1-.135-.639c.066-.03,1.39-.662.939-2.663a3.4,3.4,0,0,0-2.7-2.453.335.335,0,0,1-.276-.383.331.331,0,0,1,.382-.276,4.068,4.068,0,0,1,3.248,2.965,2.838,2.838,0,0,1-1.321,3.422A.327.327,0,0,1,2521.575,750.808Z" transform="translate(-2519.394 -744.389)" fill="#360b1e"/>
        </g>
        <path id="Trazado_989229" data-name="Trazado 989229" d="M2413.271,478.78l3.89,10.374a11.157,11.157,0,0,0,6.068.109c3-.918,5.585-5.5,5.585-5.5l-1.884-13.177S2417.044,470.714,2413.271,478.78Z" transform="translate(-2400.091 -341.56)" fill="#fdaf2f" fill-rule="evenodd"/>
        <path id="Trazado_989230" data-name="Trazado 989230" d="M2419.808,473.732c-3.123,1.692-6.055,4.546-5.484,5.507s6.439-1.283,8.233-2.274,4.184-5.267,4.184-5.267A20.458,20.458,0,0,0,2419.808,473.732Z" transform="translate(-2400.418 -341.93)" fill="#360b1e" fill-rule="evenodd"/>
      </g>
      <g id="Grupo_1153646" data-name="Grupo 1153646" transform="translate(32.693 80.728)">
        <path id="Trazado_989231" data-name="Trazado 989231" d="M2241.95,743.644s47.135-1.606,46.456,2.244S2242.3,746.609,2241.95,743.644Z" transform="translate(-2241.95 -438.202)" fill="#360b1e" fill-rule="evenodd"/>
        <path id="Trazado_989232" data-name="Trazado 989232" d="M2284.64,743.644s47.133-1.606,46.456,2.244S2285,746.609,2284.64,743.644Z" transform="translate(-2256.125 -438.202)" fill="#360b1e" fill-rule="evenodd"/>
        <g id="Grupo_1153633" data-name="Grupo 1153633" transform="translate(62.036 33.405)">
          <path id="Trazado_989233" data-name="Trazado 989233" d="M2341.682,358.366a3.505,3.505,0,0,1-.846-.107c-3.166-.787-5.857-5.7-5.97-5.913a.334.334,0,1,1,.587-.318c.026.049,2.663,4.867,5.545,5.582a2.573,2.573,0,0,0,2.152-.38,7.414,7.414,0,0,0,3.2-6.145,6.642,6.642,0,0,0-3.326-5.625,13.765,13.765,0,0,1-6.25-8.53.333.333,0,0,1,.269-.387.337.337,0,0,1,.387.269,13.355,13.355,0,0,0,5.948,8.083,7.283,7.283,0,0,1,3.639,6.181,8.09,8.09,0,0,1-3.5,6.71A3.253,3.253,0,0,1,2341.682,358.366Z" transform="translate(-2334.826 -336.539)" fill="#360b1e"/>
        </g>
        <path id="Trazado_989234" data-name="Trazado 989234" d="M2298.1,289.535s-6.158-6.312-12.655-.647.345,14.116-2.5,16.387-14.221,2.223-13.8,9.842,8.9,12.442,8.9,12.442-13.934,1.884-9,10.571,43.313,12.043,48.693,5.027c8.76-11.419-4.081-13.727-3.37-18.165s8.887-16.734,5.935-21.977-6.577-6.1-6.577-6.1S2316.5,281.048,2298.1,289.535Z" transform="translate(-2250.6 -286.527)" fill="#360b1e" fill-rule="evenodd"/>
        <path id="Trazado_989235" data-name="Trazado 989235" d="M2286.345,329.657s5.113,18.892,2.22,20.089-19.595,2.509-22.259,6.738-7.739,33.5-7.2,45.077-1.229,24.626-.9,27.99,1.366,33.6.818,37.43-3.454,8.488-4.593,11.267-3.149,2.969-1.984,4.412,9.062,15.877,10.08,15.116.735-2.962.735-2.962,2.334.775,2.545-.571c.4-2.538-3.183-6.012-3.864-9.231s-1-5.471-.451-6.766a4.984,4.984,0,0,1,1.606-2.007s1.5,12.063,2.519,11.669,1.961-.07,2.2-1.994,1.35-9.188,1.127-12.017-3-4.118-2.4-7.3,3.554-20.984,4.181-26.972-2.086-12.138-2.086-12.138,4.036-20.069,6.508-27.745,3.837-11.645,3.837-11.645,7.061,13.37,5.034,19.216-12.117,29.989-13.169,36.343-4.415,12.945.855,23.73,25.622,44.882,25.622,44.882-9.809,13.66-10.183,28.752-.518,37.422-2.164,42.739-12.393,21.822-10.984,23.512c1.138,1.363,11.378,2.562,15.677,1.566a2.441,2.441,0,0,0,1.807-1.326c.807-2.465-1.376-15.583.684-21.157s4.916-12.274,4.916-12.274,1.984,15,1.974,19.491-2.612,11.756-.752,12.8,23.094,5.527,21.117,1.45-13.917-10.263-13.236-14.595,10.424-60.89,10.641-62.236,7.674-24.684,5.821-29.046-1.539-11.165-.06-15.717,6.415-41.723,4.6-50.612-12.734-23.378-13.693-24.955,1.85-27.243,3.28-31.732c.146-.458.681-2.059,1.693-1.577,1.186.562,1.085,10.467,1.679,9.99,3.888-3.115,10.017-17.035,9.946-21.238-.013-.737-3.212-6.874-7.02-9.059-5.944-3.409-16.845-4.358-18.412-6.051-2.565-2.776-1.763-13.119-3.216-14.466S2286.345,329.657,2286.345,329.657Z" transform="translate(-2245.318 -300.849)" fill="#ffbfbe" fill-rule="evenodd"/>
        <path id="Trazado_989236" data-name="Trazado 989236" d="M2304.52,334.3l1.009,4.549s8.305,8.9,11.669,9.027,3.109-1.921,3.109-1.921l-.708-4.856Z" transform="translate(-2262.727 -302.389)" fill="#f15d85" fill-rule="evenodd"/>
        <path id="Trazado_989237" data-name="Trazado 989237" d="M2300.26,310.5s.415,10.609,2.846,14.152,11.131,9.026,15.56,7.361,6.472-11.26,5.975-16.436a58.373,58.373,0,0,0-2.371-10.845s-2.087,2.557-4.241,2.566-8.06-4.914-8.06-4.914S2304.094,310.239,2300.26,310.5Z" transform="translate(-2261.312 -291.793)" fill="#ffbfbe" fill-rule="evenodd"/>
        <path id="Trazado_989238" data-name="Trazado 989238" d="M2298.787,319.624s-3.619-5.346-5.043-2.544.171,9.916,2.672,10.045,3.925.13,4.051-1.207S2298.787,319.624,2298.787,319.624Z" transform="translate(-2258.97 -296.403)" fill="#ffbfbe" fill-rule="evenodd"/>
        <g id="Grupo_1153634" data-name="Grupo 1153634" transform="translate(44.325 19.669)">
          <path id="Trazado_989239" data-name="Trazado 989239" d="M2308.644,319.316h-.009a.333.333,0,0,1-.325-.336c0-.074.063-1.82,3.071-2.761a4.206,4.206,0,0,1,4.461.977.334.334,0,0,1-.5.438,3.556,3.556,0,0,0-3.757-.778c-2.511.786-2.6,2.084-2.6,2.14A.334.334,0,0,1,2308.644,319.316Z" transform="translate(-2308.31 -315.975)" fill="#360b1e"/>
        </g>
        <g id="Grupo_1153635" data-name="Grupo 1153635" transform="translate(56.121 16.997)">
          <path id="Trazado_989240" data-name="Trazado 989240" d="M2326.3,315.314h-.009a.332.332,0,0,1-.325-.336c0-.074.063-1.82,3.07-2.761a4.217,4.217,0,0,1,4.463.977.334.334,0,0,1-.5.439,3.558,3.558,0,0,0-3.76-.778c-2.51.786-2.6,2.084-2.6,2.139A.335.335,0,0,1,2326.3,315.314Z" transform="translate(-2325.97 -311.973)" fill="#360b1e"/>
        </g>
        <path id="Trazado_989241" data-name="Trazado 989241" d="M2315.27,318.1c0-.895.478-1.62,1.066-1.62s1.068.725,1.068,1.62-.477,1.62-1.068,1.62S2315.27,318.993,2315.27,318.1Z" transform="translate(-2266.296 -296.473)" fill="#360b1e" fill-rule="evenodd"/>
        <path id="Trazado_989242" data-name="Trazado 989242" d="M2332.23,314.1c0-.894.477-1.62,1.065-1.62s1.069.725,1.069,1.62-.478,1.62-1.069,1.62S2332.23,314.991,2332.23,314.1Z" transform="translate(-2271.928 -295.144)" fill="#360b1e" fill-rule="evenodd"/>
        <path id="Trazado_989243" data-name="Trazado 989243" d="M2307.142,313.222a15.41,15.41,0,0,1,4.285-2.41c2.4-.836,5.44.353,4.191,1.264s-2.555.031-4.461.569S2306.908,314.568,2307.142,313.222Z" transform="translate(-2263.592 -294.497)" fill="#360b1e" fill-rule="evenodd"/>
        <path id="Trazado_989244" data-name="Trazado 989244" d="M2276.695,502.548s7.1-10.3,19.722-8.9,18.909.393,18.909.393l-36.861-12.522-1.84,11.072Z" transform="translate(-2253.464 -351.274)" fill="#f15d85" fill-rule="evenodd"/>
        <path id="Trazado_989245" data-name="Trazado 989245" d="M2354.263,485.559s-14.983,5.513-15.062,10.682c-.29,19.556,5.046,33.574,4.866,34.409-.227,1.045-10.076-36.395-10.076-36.395l10.824-10.815Z" transform="translate(-2272.511 -351.912)" fill="#f15d85" fill-rule="evenodd"/>
        <path id="Trazado_989246" data-name="Trazado 989246" d="M2316.09,396.472a7.006,7.006,0,0,1,2.635,2.289,9.49,9.49,0,0,1,1.383,4.473,17.145,17.145,0,0,1,1.1-3.955,8.6,8.6,0,0,1,2.417-2.884,7.568,7.568,0,0,1-3.385.791C2318.928,397.177,2317.305,396.288,2316.09,396.472Z" transform="translate(-2266.568 -323.009)" fill="#f15d85" fill-rule="evenodd"/>
        <path id="Trazado_989247" data-name="Trazado 989247" d="M2287.41,399.215s-.318,5.194.454,6.379a27.505,27.505,0,0,1,1.78,3.827l-6.884,23.192s2.234-16.175,3.146-20.731S2286.087,401.083,2287.41,399.215Z" transform="translate(-2255.501 -323.945)" fill="#f15d85" fill-rule="evenodd"/>
        <path id="Trazado_989248" data-name="Trazado 989248" d="M2325.112,309.378a15.425,15.425,0,0,1,4.287-2.409c2.4-.837,5.437.353,4.19,1.263s-2.559.031-4.462.569S2324.887,310.725,2325.112,309.378Z" transform="translate(-2269.559 -293.221)" fill="#360b1e" fill-rule="evenodd"/>
        <path id="Trazado_989249" data-name="Trazado 989249" d="M2283.67,403.009s8.79,17.355,7.846,22.051-10.126,19.164-11.85,22.748-3.055,14.768-3.055,14.768a47.427,47.427,0,0,1,21.33-1.748,78.655,78.655,0,0,1,17.494,4.614s9.806-6.464,14.6-7.879,5.447-.551,5.447-.551a51.461,51.461,0,0,0-4.817-12.647c-3.078-5.45-7.34-10.269-7.7-12.606a61.5,61.5,0,0,1,.891-13.585c.872-4.226,2.436-5.369,2.983-9.582a30.593,30.593,0,0,0-.584-9.76s-6.4-5.359-10.19-4.09-9.077,7.243-9.077,7.243-6.092-5.845-11.739-4.476S2283.67,403.009,2283.67,403.009Z" transform="translate(-2253.459 -322.396)" fill="#4b252a" fill-rule="evenodd"/>
        <path id="Trazado_989250" data-name="Trazado 989250" d="M2316.94,332.066s4.364,1.9,6.622,1.1a19.843,19.843,0,0,0,3.957-1.928s-.871,7.151-3.526,7.543S2316.94,332.066,2316.94,332.066Z" transform="translate(-2266.85 -301.374)" fill="#360b1e" fill-rule="evenodd"/>
        <path id="Trazado_989251" data-name="Trazado 989251" d="M2324.35,328.577l4.509-1.013a2.965,2.965,0,0,1-2,1.975A2.784,2.784,0,0,1,2324.35,328.577Z" transform="translate(-2269.31 -300.154)" fill="#f15d85" fill-rule="evenodd"/>
        <path id="Trazado_989252" data-name="Trazado 989252" d="M2299.215,323.668l-4.372-1.973s-.878,2.892,1.005,3.158A4.443,4.443,0,0,0,2299.215,323.668Z" transform="translate(-2259.446 -298.205)" fill="#f15d85" fill-rule="evenodd"/>
        <g id="Grupo_1153636" data-name="Grupo 1153636" transform="translate(34.82 22.852)">
          <path id="Trazado_989253" data-name="Trazado 989253" d="M2299.39,324.731a.334.334,0,0,1-.288-.165c-1.03-1.759-4.767-3.167-4.8-3.181a.334.334,0,0,1,.234-.626c.163.061,4,1.507,5.149,3.469a.335.335,0,0,1-.12.457A.323.323,0,0,1,2299.39,324.731Z" transform="translate(-2294.08 -320.739)" fill="#360b1e"/>
        </g>
        <g id="Grupo_1153637" data-name="Grupo 1153637" transform="translate(40.023 140.923)">
          <path id="Trazado_989254" data-name="Trazado 989254" d="M2304.762,665.139c-1.191,0-2.107-.613-2.867-2.481a.333.333,0,1,1,.617-.252c.955,2.343,1.9,2.43,4.662,1.522,1-.329.673-4.858.381-8.854-.094-1.277-.19-2.6-.26-3.906a26.193,26.193,0,0,1,1.786-10.477c.4-1.02.879-2.3,1.439-3.8a247.569,247.569,0,0,1,14.244-32.254c8.758-16.235,14.082-40.439,13.887-45.888-.2-5.512-15.767-60.264-15.925-60.816a.334.334,0,1,1,.642-.183c.643,2.258,15.746,55.381,15.95,60.975.2,5.5-5.158,29.9-13.966,46.229a246.736,246.736,0,0,0-14.207,32.171c-.562,1.507-1.04,2.789-1.445,3.813a25.508,25.508,0,0,0-1.74,10.2c.069,1.3.166,2.62.259,3.893.422,5.777.591,9.069-.839,9.537A8.847,8.847,0,0,1,2304.762,665.139Z" transform="translate(-2301.87 -497.505)" fill="#360b1e"/>
        </g>
        <path id="Trazado_989255" data-name="Trazado 989255" d="M2344.177,591.246c.651-2.341,2.269-3.938,3.614-3.564s1.911,2.575,1.263,4.916-2.268,3.934-3.614,3.56S2343.529,593.587,2344.177,591.246Z" transform="translate(-2275.805 -386.507)" fill="#f15d85" fill-rule="evenodd"/>
        <path id="Trazado_989256" data-name="Trazado 989256" d="M2299.238,311.141a7.369,7.369,0,0,0,5.514-1.612c5.287-4.071,6.005-8.762,6.005-8.762l1.773.774s-2.715,7.12-8.212,9.432C2298.952,313.232,2299.238,311.141,2299.238,311.141Z" transform="translate(-2260.972 -291.256)" fill="#360b1e" fill-rule="evenodd"/>
        <path id="Trazado_989257" data-name="Trazado 989257" d="M2327.125,332.387a19.1,19.1,0,0,1-2.6,1.163c-1.366.482-3.2.038-4.673-.435l.167,1.45s3.01,1.954,4.742,1.509c.063-.017.47-.144.6-.2a4.839,4.839,0,0,0,2.009-1.468Z" transform="translate(-2267.818 -301.755)" fill="#fff" fill-rule="evenodd"/>
        <path id="Trazado_989258" data-name="Trazado 989258" d="M2322.591,407.489l3.052,27.644s1.075,4.07,3.788,5.032,8.594-1.413,8.594-1.413L2343,406.415s-4.014-3-8.366-2.544S2322.591,407.489,2322.591,407.489Z" transform="translate(-2268.727 -325.476)" fill="#fdaf2f" fill-rule="evenodd"/>
        <path id="Trazado_989259" data-name="Trazado 989259" d="M2342.134,392.564s8.07-17.967,10.22-10.118,11.144,61.142,2.481,61.532c-5.975.269-17.423-16.08-17.423-16.08a40.8,40.8,0,0,1-6.486.746c-2.9.021-10.671-5.819-10.671-5.819a9.186,9.186,0,0,1-.518-4.135c.3-2.091-.521-8.734,1.269-10.526s1.35-1.819,1.35-1.819l.51,3.894a42.18,42.18,0,0,0,7.342,2.8,30.671,30.671,0,0,0,8.045,1.024c1.717-.224-.157-10.387,1.56-10.76s3.009,6.8,3.009,6.8l-1.306-14.453Z" transform="translate(-2267.757 -317.718)" fill="#ffbfbe" fill-rule="evenodd"/>
        <g id="Grupo_1153638" data-name="Grupo 1153638" transform="translate(17.583 1.863)">
          <path id="Trazado_989260" data-name="Trazado 989260" d="M2280.321,331.415h-.031c-2.444-.219-7.872-3.667-10.487-7.23-1.247-1.7-1.735-3.22-1.451-4.52.627-2.863,5.94-6.124,10.206-8.743,1.99-1.222,4.246-2.606,4.349-3.057a7.175,7.175,0,0,0-.426-1.637c-.853-2.646-2.441-7.573.314-13,3.621-7.126,15.1-2.383,15.586-2.177a.334.334,0,1,1-.26.616c-.113-.049-11.389-4.708-14.732,1.864-2.63,5.178-1.1,9.934-.272,12.489a6.727,6.727,0,0,1,.457,1.879c-.029.714-1.451,1.616-4.665,3.59-3.94,2.419-9.338,5.732-9.9,8.317-.237,1.09.224,2.466,1.337,3.982,2.519,3.434,7.7,6.752,10.009,6.959a.334.334,0,0,1,.3.362A.33.33,0,0,1,2280.321,331.415Z" transform="translate(-2268.274 -289.316)" fill="#360b1e"/>
        </g>
        <g id="Grupo_1153639" data-name="Grupo 1153639" transform="translate(39.783 207.334)">
          <path id="Trazado_989261" data-name="Trazado 989261" d="M2301.844,671.609h-.013a.335.335,0,0,1-.32-.348c.008-.2.853-19.9,1.834-41.474.99-21.729,13.86-32.673,13.989-32.781a.334.334,0,0,1,.428.513c-.127.106-12.773,10.878-13.751,32.3-.979,21.579-1.823,41.276-1.832,41.472A.333.333,0,0,1,2301.844,671.609Z" transform="translate(-2301.51 -596.93)" fill="#360b1e"/>
        </g>
        <path id="Trazado_989262" data-name="Trazado 989262" d="M2326.3,408.214s8.837-3.372,10.927-3.139,6.6,1.356,6,2.3-7.241,2.33-10.574,2.376S2324.344,408.631,2326.3,408.214Z" transform="translate(-2269.813 -325.887)" fill="#360b1e" fill-rule="evenodd"/>
        <g id="Grupo_1153640" data-name="Grupo 1153640" transform="translate(72.92 86.103)">
          <path id="Trazado_989263" data-name="Trazado 989263" d="M2362.422,440.15a.336.336,0,0,1-.229-.09,89.434,89.434,0,0,1-6.977-7.28,7.479,7.479,0,0,1-1.787-6.161c.027-.354.056-.711.064-1.077.055-2.1-2.334-9.6-2.358-9.673a.334.334,0,0,1,.636-.2c.1.313,2.448,7.684,2.39,9.894-.01.377-.037.745-.067,1.111a6.836,6.836,0,0,0,1.644,5.693,88.271,88.271,0,0,0,6.91,7.208.333.333,0,0,1-.227.577Z" transform="translate(-2351.12 -415.434)" fill="#360b1e"/>
        </g>
        <g id="Grupo_1153641" data-name="Grupo 1153641" transform="translate(12.238 48.949)">
          <path id="Trazado_989264" data-name="Trazado 989264" d="M2261.741,479.229a.331.331,0,0,1-.1-.017.335.335,0,0,1-.215-.421c.806-2.488.005-17.549-.579-28.546-.35-6.587-.653-12.276-.552-13.907.04-.627.1-1.51.169-2.578.419-6.33,1.29-19.5,1.014-23.225-.47-6.36,4.207-38.27,6.791-43.43,2.229-4.451,15.571-7.173,16.137-7.287a.334.334,0,1,1,.131.655c-.135.027-13.588,2.771-15.671,6.931-2.559,5.111-7.19,36.767-6.721,43.082.279,3.771-.6,16.974-1.014,23.319-.071,1.068-.13,1.95-.169,2.576-.1,1.592.2,7.263.552,13.83.621,11.665,1.392,26.182.548,28.788A.331.331,0,0,1,2261.741,479.229Z" transform="translate(-2260.272 -359.81)" fill="#360b1e"/>
        </g>
        <g id="Grupo_1153642" data-name="Grupo 1153642" transform="translate(23.03 84.58)">
          <path id="Trazado_989265" data-name="Trazado 989265" d="M2276.763,455.82a.306.306,0,0,1-.069-.007.334.334,0,0,1-.259-.4c.032-.154,3.237-15.424,4.79-21.3s5.735-20.569,5.777-20.716a.334.334,0,0,1,.642.183c-.042.148-4.226,14.835-5.773,20.7s-4.75,21.119-4.782,21.272A.332.332,0,0,1,2276.763,455.82Z" transform="translate(-2276.428 -413.153)" fill="#360b1e"/>
        </g>
        <path id="Trazado_989266" data-name="Trazado 989266" d="M2300.325,310.491l-.069.925a12.819,12.819,0,0,0,5.233-2.955,30.791,30.791,0,0,0,4.474-6.082,77.326,77.326,0,0,1-5.713,5.963A11,11,0,0,1,2300.325,310.491Z" transform="translate(-2261.312 -291.791)" fill="#f15d85" fill-rule="evenodd"/>
        <path id="Trazado_989267" data-name="Trazado 989267" d="M2333.49,434.221c0-.793.25-1.435.554-1.435s.555.643.555,1.435-.247,1.436-.555,1.436S2333.49,435.014,2333.49,434.221Z" transform="translate(-2272.346 -335.092)" fill="#f15d85" fill-rule="evenodd"/>
        <path id="Trazado_989268" data-name="Trazado 989268" d="M2333.49,440.669c0-.793.25-1.436.554-1.436s.555.643.555,1.436-.247,1.435-.555,1.435S2333.49,441.462,2333.49,440.669Z" transform="translate(-2272.346 -337.233)" fill="#f15d85" fill-rule="evenodd"/>
        <path id="Trazado_989269" data-name="Trazado 989269" d="M2333.49,446.9c0-.793.25-1.436.554-1.436s.555.643.555,1.436-.247,1.435-.555,1.435S2333.49,447.7,2333.49,446.9Z" transform="translate(-2272.346 -339.303)" fill="#f15d85" fill-rule="evenodd"/>
        <path id="Trazado_989270" data-name="Trazado 989270" d="M2339.78,399.146l6.829-20.65,8.3-1.521-.08,1.575-7.116,1.773-5.792,18.248S2340.542,399.747,2339.78,399.146Z" transform="translate(-2274.435 -316.56)" fill="#f15d85" fill-rule="evenodd"/>
        <g id="Grupo_1153643" data-name="Grupo 1153643" transform="translate(51.383 273.036)">
          <path id="Trazado_989271" data-name="Trazado 989271" d="M2326.125,730.578a.334.334,0,0,1-.1-.017,38.687,38.687,0,0,1-5.705-2.366c-2.272-1.374.415-12.358.442-12.469.473-1.906-1.021-13.95-1.88-20.053a.334.334,0,1,1,.662-.092c.1.725,2.49,17.8,1.866,20.306-1.071,4.333-1.953,11.006-.745,11.737a38.849,38.849,0,0,0,5.57,2.3.333.333,0,0,1,.211.422A.338.338,0,0,1,2326.125,730.578Z" transform="translate(-2318.876 -695.293)" fill="#360b1e"/>
        </g>
        <g id="Grupo_1153644" data-name="Grupo 1153644" transform="translate(43.098 52.571)">
          <path id="Trazado_989272" data-name="Trazado 989272" d="M2315.909,369.831c-.414,0-.844-.425-1.492-1.1a4.312,4.312,0,0,0-.994-.88c-3.332.637-6.516,1.31-6.548,1.317a.334.334,0,1,1-.138-.654c.032-.007,3.222-.681,6.589-1.321.436-.086.883.355,1.574,1.077.311.325.832.87,1.016.9.43-.047.762-.775,1.054-1.417a2.993,2.993,0,0,1,.965-1.419,6.419,6.419,0,0,1,1.974-.828c.231-.061.518-.137.913-.252a.334.334,0,1,1,.187.641c-.4.118-.695.195-.93.257a5.814,5.814,0,0,0-1.821.766,2.9,2.9,0,0,0-.682,1.111c-.367.8-.782,1.717-1.607,1.8A.277.277,0,0,1,2315.909,369.831Z" transform="translate(-2306.472 -365.233)" fill="#360b1e"/>
        </g>
        <g id="Grupo_1153645" data-name="Grupo 1153645" transform="translate(22.667 124.637)">
          <path id="Trazado_989273" data-name="Trazado 989273" d="M2283.377,523.223a.333.333,0,0,1-.294-.175c-.137-.256-13.693-25.86-3.244-49.726a.334.334,0,0,1,.611.269c-10.315,23.561,3.083,48.887,3.22,49.14a.333.333,0,0,1-.135.452A.337.337,0,0,1,2283.377,523.223Z" transform="translate(-2275.886 -473.123)" fill="#360b1e"/>
        </g>
      </g>
    </g>
  </g>
</svg>
