<svg xmlns="http://www.w3.org/2000/svg" xmlns:xlink="http://www.w3.org/1999/xlink" width="279" height="319" viewBox="0 0 279 319">
  <defs>
    <clipPath id="clip-path">
      <rect id="Rectángulo_407954" data-name="Rectángulo 407954" width="279" height="319" transform="translate(180 259)" fill="#fff" stroke="#707070" stroke-width="1" opacity="0.6"/>
    </clipPath>
    <filter id="Trazado_990260" x="-40.347" y="-32.783" width="352.02" height="359.74" filterUnits="userSpaceOnUse">
      <feOffset dy="3" input="SourceAlpha"/>
      <feGaussianBlur stdDeviation="3" result="blur"/>
      <feFlood flood-opacity="0.161"/>
      <feComposite operator="in" in2="blur"/>
      <feComposite in="SourceGraphic"/>
    </filter>
  </defs>
  <g id="Enmascarar_grupo_1098658" data-name="Enmascarar grupo 1098658" transform="translate(-180 -259)" clip-path="url(#clip-path)">
    <g id="Grupo_1153954" data-name="Grupo 1153954" transform="translate(148.653 232.217)">
      <g transform="matrix(1, 0, 0, 1, 31.35, 26.78)" filter="url(#Trazado_990260)">
        <path id="Trazado_990260-2" data-name="Trazado 990260" d="M20.6,228.546c-61.778-77.98,31.291-73.832,71.482-139.406C154.029-11.933,186.63-18.354,214.451,26.677s16.794,138.348-40.228,189.959S53.466,270.04,20.6,228.546Z" transform="translate(112.75 -26.78) rotate(34)" fill="#fcd7db" fill-rule="evenodd"/>
      </g>
      <path id="Trazado_989015" data-name="Trazado 989015" d="M2296.823,1145.456c-60.495-76.36,30.641-72.3,70-136.511,60.664-98.974,92.587-105.262,119.832-61.166s16.444,135.475-39.393,186.014S2329.01,1186.089,2296.823,1145.456Z" transform="translate(-2216.864 -891.164)" fill="#8b454e" fill-rule="evenodd"/>
      <g id="Grupo_1153606" data-name="Grupo 1153606" transform="translate(95.088 68.085)">
        <g id="Grupo_1153953" data-name="Grupo 1153953">
          <g id="Grupo_1153556" data-name="Grupo 1153556" transform="translate(57.733 179.852)">
            <path id="Trazado_989016" data-name="Trazado 989016" d="M2413.734,1317.63h89.056a4.175,4.175,0,0,1,4.174,4.174v.818a4.174,4.174,0,0,1-4.174,4.173h-89.056a4.174,4.174,0,0,1-4.174-4.173v-.818A4.174,4.174,0,0,1,2413.734,1317.63Z" transform="translate(-2409.208 -1317.282)" fill-rule="evenodd"/>
            <path id="Trazado_989017" data-name="Trazado 989017" d="M2502.642,1327h-89.057a4.53,4.53,0,0,1-4.525-4.525v-.819a4.53,4.53,0,0,1,4.525-4.525h89.057a4.53,4.53,0,0,1,4.524,4.525v.819A4.53,4.53,0,0,1,2502.642,1327Zm-89.057-9.169a3.826,3.826,0,0,0-3.822,3.822v.819a3.826,3.826,0,0,0,3.822,3.822h89.057a3.826,3.826,0,0,0,3.822-3.822v-.819a3.826,3.826,0,0,0-3.822-3.822Z" transform="translate(-2409.06 -1317.135)" fill="#360b1e"/>
          </g>
          <path id="Trazado_989018" data-name="Trazado 989018" d="M2515.625,1235.371l14.913-.348,4.8-.1-4.831,27.757-14.354-.865-4.908-25.642Z" transform="translate(-2381.715 -1112.835)" fill="#ff7f8f" fill-rule="evenodd"/>
          <g id="Grupo_1153557" data-name="Grupo 1153557" transform="translate(84.412 5.804)">
            <path id="Trazado_989019" data-name="Trazado 989019" d="M2513.336,1116.6l2.643,2.087s-6.324,1.992-8.47,3.4a19.2,19.2,0,0,0-4.015,3.885,19.612,19.612,0,0,0,4.332-1.992,50.681,50.681,0,0,1,5.515-3.527,6.529,6.529,0,0,1,3.45-.59l.5,2.646-.386.133c.682-.13,1.219-.084,1.349.358.47,1.581.3,3.836-1.159,4.426a46.682,46.682,0,0,1-5.909,1.975,20.809,20.809,0,0,0-4.016,1.528,21.744,21.744,0,0,0,4.609-.436,32.591,32.591,0,0,0,3.945-1.8s-1.458,5.048-4.363,7.248-3.608,1.633-6.331,2.357-3.807.467-4.233-.288.154,5.449.169,14.291,1.475,28.056,1.714,31.312-.5,6.506.017,8.558a48.442,48.442,0,0,1,.847,8.509c.1,2.909.646,4.346.323,5.93s-2.115,1.855-2.371.088a44.786,44.786,0,0,1-.618-9.752,36.786,36.786,0,0,0-.369-8.344,35.714,35.714,0,0,0-3.541-6.942,25.95,25.95,0,0,0-4.093-4.374,8.412,8.412,0,0,1-3.5.727,7.036,7.036,0,0,0-1.746-.07s1.395-1.325,1.125-2.421a2.01,2.01,0,0,0-1.223-1.4s.3.839-.763,1.971-1.637,1.915-1.637,1.915-1.831-.372-4.68-.734-4.96-.5-4.96-.5,4.936-2.157,4.985-3.643-1.781-1.349-1.781-1.349a5.363,5.363,0,0,1-3.263,2.491,26.012,26.012,0,0,1-7.515,1.068,22.138,22.138,0,0,1-4.194-.671s3.334-.85,4.6-1.911a27.171,27.171,0,0,1,3.148-2.15,19.658,19.658,0,0,0-5.976.864c-2.132.893-3.885,2.322-6.1,2.61a16.111,16.111,0,0,1-4.84-.32s3.793-1.574,5.192-2.041,2.487-.71,2.487-.71a44.124,44.124,0,0,0-6.39.39c-1.827.411-5.189,1.367-5.189,1.367a1.594,1.594,0,0,0-1.669-.509,5.992,5.992,0,0,1-1.956.074,8.252,8.252,0,0,0,4.061-2.252,8.056,8.056,0,0,1,2.557-2.231l6.513.151-5.126-1.135a15.049,15.049,0,0,1,3.475-1.605c1.756-.5,3.45-2.431,4.5-2.354a9.727,9.727,0,0,1,3.867,1.988,22.11,22.11,0,0,0,3.2,1.82,5.9,5.9,0,0,0-2.526-2.491c-1.89-1.029-3.225-1.665-3.225-1.662a20.624,20.624,0,0,0,5.368-.436,35.032,35.032,0,0,1,5.389-.942,4.026,4.026,0,0,1,1.483,2.133c.618,1.648,1.419,3.253,1.419,3.253s.864-2.424.039-3.991-1.278-2.8-2.038-3.109-1.669-.717-1.669-.717a14.356,14.356,0,0,0,4.718.488c1.821-.3,4.635-.667,4.635-.667l1.145,1.395s.39-1.135-.4-1.567a23.356,23.356,0,0,0,3.162,1.374c2.094.717,4.894,1.654,4.894,1.651a1.741,1.741,0,0,1-.172,1.9,10.836,10.836,0,0,0-1.057,2.3,1.527,1.527,0,0,0,1.662-.98c.408-1.173.773-2.269.773-2.269a38.069,38.069,0,0,1,3.9,3.422,5.329,5.329,0,0,1,1.571,4.612,8.946,8.946,0,0,1-.981,2.733s-1.285.039-2.835.112a25.269,25.269,0,0,1-3.221-.1l4.834.889s.373.5-.833.977a10.918,10.918,0,0,0-2.2,1.226,21.679,21.679,0,0,1,2.754,2.687c1.135,1.388,4.226,6.566,4.226,6.566s-.857-9.022-1.247-13.448-.562-19.466-.31-23.9,0-9.117,0-9.117-.2.906-3.527,1.058-4.381.706-6.7.4a42.65,42.65,0,0,1-5.589-1.31s3.625-1.208,5.185-1.56a20.957,20.957,0,0,0,4.185-1.866s-4.736-.2-6.247.506-5.944,1.107-5.944,1.107l-2.214-2.87a20.005,20.005,0,0,1,3.422-.4c1.479-.038,6.493-1.328,9.2-1.69-1.437-.088-3.337-.246-4.313-.323-1.866-.151-6.749-.151-6.749-.151a3.157,3.157,0,0,1,.706-2.568,7.6,7.6,0,0,1,5.034-2.768c2.771-.4,5.642-.6,6.8-.253s4.279,1.662,4.279,1.662-4.936-3.074-7.5-3.678a57.692,57.692,0,0,0-5.793-.959,19.076,19.076,0,0,1,3.021-1.51c1.412-.5,6.551-1.156,7.96-.654a5.185,5.185,0,0,0,4.482-.4c1.964-.906,4.177-3.474,5.99-3.626s-2.684,4.342-3.109,5.575,2.22-1.746,3.931-2.818A77.37,77.37,0,0,1,2513.336,1116.6Zm1.392,6.794c-1.367.471-2.976,1.026-4.051,1.37-2.188.7-4.317,2.765-5.417,3.359a6.658,6.658,0,0,0-1.96,1.918s3.987-1.219,5.209-2.417a39.826,39.826,0,0,1,3.889-3.035S2513.491,1123.949,2514.728,1123.394Zm-12.613,4.047s-2.079,1-2.167,1.848.881.116,1.465-.527A2.949,2.949,0,0,0,2502.115,1127.442Zm-17.031,33.775c-.221.07-.463.71-.527,1.458a11.666,11.666,0,0,0,.039,2.477,6.268,6.268,0,0,0,.51,2.175c.242.464.808-.257.973-.857a9.95,9.95,0,0,0,.052-3.478,4.2,4.2,0,0,0-.861-1.661.263.263,0,0,0-.1-.105A.122.122,0,0,0,2485.084,1161.216Zm-7.1,6.19a.811.811,0,0,0-.116.007,1.15,1.15,0,0,0-.573,1.11c.095.741.527,1.209,1.092,1.152s.78-.846.474-1.616A.924.924,0,0,0,2477.988,1167.406Z" transform="translate(-2447.031 -1083.451)" fill="#ff7f8f" fill-rule="evenodd"/>
            <path id="Trazado_989020" data-name="Trazado 989020" d="M2486.262,1069.42a34.27,34.27,0,0,0,4.24.688,36.677,36.677,0,0,0,5.182,0,29.886,29.886,0,0,0-2.754,2.9,3.756,3.756,0,0,0-.868,2.719s.829-.654,2.354-1.739,2.318-4.1,2.318-4.1a14.014,14.014,0,0,0,3.809,1.451,13.132,13.132,0,0,0,3.8-.182c.8-.109,1.922,1.591,2.972,2.68a13.743,13.743,0,0,1,1.525,1.813s-2.069.471-3.263.868a19.43,19.43,0,0,0-2.828,1.342s1.816-.109,3.084-.109,3.366-1.63,3.366-1.63a16.113,16.113,0,0,1,2.318,2.248c.727.977.474,1.992-.07,3.112s-3.552,1.6-5.365,2.466-8.028,1.022-8.028,1.022a29.947,29.947,0,0,1,3.995,4.957c2.115,3.207,3.383,6.956,5.016,11.674a142.583,142.583,0,0,1,4.961,21.827,107.828,107.828,0,0,1,.48,22.86c-.632,5.108-1.44,21.613-1.559,24.216s-.095,22.276-.095,22.276c-.141,2.368-2.593,1.507-2.593,1.507s.115-10.191,0-12.752.4-4.894.913-10.016.482-12.752.9-23.492,1.156-19.442-.741-31.108-4.353-18.665-6.566-23.366a34.319,34.319,0,0,0-6.372-8.691,13.61,13.61,0,0,1-4.672.189,30.869,30.869,0,0,1-5.607-1.36,7.627,7.627,0,0,1,2.951-1.05,3.987,3.987,0,0,0,2.537-1.229,31.339,31.339,0,0,0-3.148-.337c-1.247-.039-3.454,1.714-4.4,1.922s-3.425-.843-5.5-1.721a37.227,37.227,0,0,1-5.031-2.905,52.5,52.5,0,0,0,5.291.095c1.82-.133,4.135-.337,4.135-.337a21.848,21.848,0,0,0-4.605-1.019c-1.637-.031-5.048.134-5.048.134l-3.787-1.493,5.372,0s-3.717-.464-4.666-.5a25.412,25.412,0,0,1-4.043-.6,8.24,8.24,0,0,1-2.709-1.8,10.28,10.28,0,0,1,3.823-.675c2.3,0,3.8.9,6.611,1.406a9.07,9.07,0,0,0,4.957-.278c.92-.242-3.447-2.108-3.447-2.108s3.011-.643,5.273-1.008,4.419-.742,4.419-.742a9.742,9.742,0,0,0,.11,2.066,18.019,18.019,0,0,1,.147,2.572s.468-.653,1.156-1.63S2486.262,1069.42,2486.262,1069.42Zm15.823,3.485a16.055,16.055,0,0,0-3.641,2.185,6.791,6.791,0,0,0-1.26,2.628,34.335,34.335,0,0,0,3.151-2.1A6.175,6.175,0,0,0,2502.085,1072.905Zm-10.617,3.668a1.306,1.306,0,0,0-1.1.618,2.251,2.251,0,0,0-.344,1.5,5.088,5.088,0,0,0,1.37-.78,1.008,1.008,0,0,0,.2-1.328A.552.552,0,0,0,2491.468,1076.573Z" transform="translate(-2451.918 -1069.42)" fill="#ff7f8f" fill-rule="evenodd"/>
            <path id="Trazado_989021" data-name="Trazado 989021" d="M2585.747,1090.13s-3.105.281-4.609-.6-5.07.053-5.07.053l-.888.105,2.052-1.525a8.665,8.665,0,0,1-3.362.531c-1.226-.228-3-.847-4-.618s-4.476,2.667-5.572,3.7a15.973,15.973,0,0,0-2.333,2.442c-.573.819-1.911,3.717-2.066,3.085a4.155,4.155,0,0,1,1.35-3.232c1.078-1,4.918-3.513,4.918-3.513s-3.105.635-4.918.829a12.161,12.161,0,0,0-4.792,1.862,8.42,8.42,0,0,0-2.933,3.158c-.313.962-.549,2.6-.738,3.327s-.537,2-.9,1.113a3.219,3.219,0,0,1,.039-2.726,14.831,14.831,0,0,1,1.426-2.094s2.167-2.118.9-1.426-2.638.991-3.612,1.549a5.46,5.46,0,0,1-2.518.671c-.7.059-2.259,1.813-2.259,1.813a4.911,4.911,0,0,1,.453,1.686c.109,1.054.892,2.67.077,2.136a3.005,3.005,0,0,1-1.134-2.607,1.727,1.727,0,0,0,.035-1.044,21.172,21.172,0,0,1-3.123,2.417,23.509,23.509,0,0,0-3.26,2.529,3.133,3.133,0,0,1,2.263.615c1.011.815.867,1.391.867,1.391s-.755-.046-2.09-.232a6.81,6.81,0,0,1-2.1-.6,16.783,16.783,0,0,0-2.234,2.473,10.647,10.647,0,0,0-1.658,3.942c.063.548,1.711,1.015,1.711,1.015s-.713,2.125.1,1.869,4.483-.987,5.9-2.038,2.582-1.739,2.582-1.739-1.408.278-4.237,6.317-4.525,9.369-5.319,12.51-1.823,6.208-1.823,6.208l.021,6s3.657-14.5,5.083-17.927,5.758-10.842,7.638-12.826a61.708,61.708,0,0,1,16.536-11.319,118.585,118.585,0,0,1,12.349-4.83C2579.311,1092.765,2585.747,1090.13,2585.747,1090.13Z" transform="translate(-2472.556 -1074.954)" fill="#ff7f8f" fill-rule="evenodd"/>
            <path id="Trazado_989022" data-name="Trazado 989022" d="M2538.376,1175.466c2.171.172,4.964,2.659,5.684,2.666a9.612,9.612,0,0,1,4.079,1.792,12.59,12.59,0,0,1,3.306,3.049c.973,1.226,5.74,7.4,6.956,9.387s.091,5.368.091,5.368a6.156,6.156,0,0,1,2.045,2.905c.737,2.034-2.305,4.708-3.064,6.9a8.465,8.465,0,0,0-.2,4.374,16.3,16.3,0,0,0-2.456-2.2c-1.458-1.054-3.674-1.612-5.652-3.481s-.829-2.867-1.082-5.2a3.854,3.854,0,0,0-1.686-3.081,29.864,29.864,0,0,0,.263,5.976,8.171,8.171,0,0,0,2.086,3.387s-6.635-1.746-8.266-5.1.284-9.889.284-9.889a37.54,37.54,0,0,0-2.631,6.879,17.428,17.428,0,0,0-.085,7.592,38.9,38.9,0,0,1-6.513-5.891c-3.749-4.093-4.286-5.846-6.5-9.489s-3.211-7.118.987-11.421,9.149,1.212,9.149,1.212-.309-4,1.834-5.421A2.082,2.082,0,0,1,2538.376,1175.466Zm-7.546,8.361a3.841,3.841,0,0,0-.8.116,2.087,2.087,0,0,0-1.771,2.438,3.44,3.44,0,0,1,2.846-1.008,5.508,5.508,0,0,0,2.99-.446A5.378,5.378,0,0,0,2530.83,1183.827Zm17.643,2.9c-.865-.049-1.571.277-1.427.913.191.85.836.569,1.546.457s2.1.629,2.554.053-.594-.833-1.785-1.244A3.566,3.566,0,0,0,2548.473,1186.722Zm-6.021.6c-.528-.035-1.058.288-.823.913.38,1.005,1.975.348,1.588-.443A.888.888,0,0,0,2542.451,1187.319Zm-7.244,1.567c-.913-.113-2.01,1.482-3.07,3.155-1.209,1.907-.506,4.648-.506,4.648a16.468,16.468,0,0,1,1.763-3.625c1.131-1.683,3.172-3.3,2.192-4.019A.782.782,0,0,0,2535.207,1188.885Zm14.72,3.373a.532.532,0,0,0-.2.06c-.534.309.576,1.567,1.89,2s2.845,2.182,2.547,1.356C2553.875,1194.9,2551.037,1192.16,2549.927,1192.258Zm-7.659.12c-.295.137.158,1.279,1,1.219.956-.066-.235-.98-.825-1.208A.272.272,0,0,0,2542.268,1192.378Z" transform="translate(-2469.66 -1100.953)" fill="#ff7f8f" fill-rule="evenodd"/>
            <path id="Trazado_989023" data-name="Trazado 989023" d="M2543.921,1140.572a6.815,6.815,0,0,1,2.318.337,10.851,10.851,0,0,0,4.437,0,17.9,17.9,0,0,1-2.975,2.867,3.792,3.792,0,0,0-1.687,2.357s3.035-1.967,3.987-2.357,1.461-1.911,1.461-1.911.956-.731,2.361.45,1.742,1.518,1.742,1.518a39.884,39.884,0,0,0-4.384,2.863,32.938,32.938,0,0,1-4.775,2.867s1.8-.169,3.429-.337a14.314,14.314,0,0,0,5-1.742c1.405-.783,1.577-.956,2.252.618a16.273,16.273,0,0,1,.952,3.088,3.606,3.606,0,0,1,.73,3.035c-.393,1.8-2.529,2.979-4.609,5.171s-8.818,3.538-10.561,2.47-3.035-3.879-3.035-3.879a33.847,33.847,0,0,0-.987,5.466c-.292,3.053-2.922,11.08-3.246,16.188s-.945,13.666-.9,17.629-.5,4.763-.464,5.92-.232,3.931-.355,8.414-.387,3.71-1.4,3.671-.218-2.357-.4-4.3-.059-6.777-.059-6.777a13.255,13.255,0,0,0,.731-2.456c.313-1.5.063-5.189-.116-8.737s1.121-8.856,1.191-11.755a68.533,68.533,0,0,1,1.953-11.625c.938-3.991,2.709-9.724,2.709-9.724l-2.7.9c-1.517.506-5.056-.45-7.472-2.919s-1.851-7.023-.277-10.9,3.819-2.245,3.819-2.245.956-.955,3.2-.056,2.188,1.57,3.313,2.3,1.121-.615.394-2.47a13.1,13.1,0,0,0-2.414-3.6,12.62,12.62,0,0,1,3.928-.337C2542.25,1140.629,2543.135,1140.572,2543.921,1140.572Zm-9.057,6.359a.4.4,0,0,0-.376.172c-.489.579.446.829,1.208,1.472s.973,1.321,1.669,1.711-.387-1.254-1.114-2.038C2535.708,1147.662,2535.258,1146.987,2534.865,1146.931Zm9.155,3.127a.97.97,0,0,0-.6.984c.119.429,1.363-.4.945-.86A.334.334,0,0,0,2544.02,1150.057Zm10.666,1.3a21.84,21.84,0,0,0-3.763.611c-1.76.422-3.485.587-3.432,1.7s3.914-.934,5.406-1.2,2.958-.078,2.9-.777C2555.768,1151.421,2555.325,1151.336,2554.686,1151.358Zm-14.973.962a.252.252,0,0,0-.179.018c-.362.214.429,1.7,1.061,1.363C2541.146,1153.409,2540.2,1152.418,2539.713,1152.32Zm12.422,3.822s-2.217.141-4.247.306-3.267-.327-3.274.467,2.677.576,5.455.636S2552.135,1156.142,2552.135,1156.142Z" transform="translate(-2470.934 -1090.574)" fill="#ff7f8f" fill-rule="evenodd"/>
            <path id="Trazado_989024" data-name="Trazado 989024" d="M2560.4,1115.61s2.6.256,4.669.709,5.2,1.125,5.81,1.42-1.029.3-1.029.3a7.3,7.3,0,0,1,2.7.847c1.735.836,2.445,1.651,3.481,2.118a14.928,14.928,0,0,1,3.279,2.607,17.228,17.228,0,0,1,4.1,4.325,12.163,12.163,0,0,1,1.743,3.506s.927-.137,1.342,1.609a29.959,29.959,0,0,1,.38,5.231s-1.645-.688-4.943-1.876-3.8-1.933-5.445-1.623-3.218.488-3.218.488,2.606.467,5.456,1.233,6.931,2.441,6.858,4.455-1.623,3.253-2.1,4.929a8.571,8.571,0,0,0-.168,3.408,6.519,6.519,0,0,0-2.916-2.157c-1.936-.717-3.506-1.261-4.223-2.168s-1.981-3.636-2.913-4.743-1.608-2.055-1.658-1.141a2.6,2.6,0,0,0,.956,2.585,30.385,30.385,0,0,1,2.93,3.049,7.976,7.976,0,0,0-3-1.226,6.585,6.585,0,0,1-5.1-2.649,11.356,11.356,0,0,1-2.564-5.435c-.176-1.328.14-1.96-.492-2.695a4.934,4.934,0,0,0-1.384-1.1s.221,2.5.47,3.692.516,4.49.516,4.49a7.532,7.532,0,0,1-4.925-1.925,23.45,23.45,0,0,1-4.258-4.957,3.57,3.57,0,0,1,.018-2.958,7.751,7.751,0,0,1,1.763-2.649s-1.563-.643-2.371.316-.46,4.9-.46,4.9-1.574-1.163-3.945-3.021a24.784,24.784,0,0,1-4.385-4.869,2.554,2.554,0,0,1-3.583-.025c-1.886-1.7-1.915-3.053-1.915-3.053s-2.9-.548-3.056-2.009,1.479-1.5,3.478-1.149a61.187,61.187,0,0,1,6.608,1.992s-1.391-2.048.438-3.176,6.578-1.24,8.109-1.061a15.916,15.916,0,0,1,2.832.618A7.727,7.727,0,0,1,2560.4,1115.61Zm-2.143,1.194a12.412,12.412,0,0,0-2.361,1.433c-.724.664-1.2,1.75-.629,1.469s.713-.741,2.157-2.185A7.857,7.857,0,0,1,2558.252,1116.8Zm5.207,1.848a16.632,16.632,0,0,0-3.341,1.187c-.871.562-1.293,1.019-.762,1.149s1.058-.7,1.971-1.226S2563.459,1118.652,2563.459,1118.652Zm6.042,3.6a14.391,14.391,0,0,0-3.4.365c-2.174.531-4.451,1.342-3.941,1.985s.685.39,2.031-.137a20.319,20.319,0,0,1,4.514-1.261,11.592,11.592,0,0,1,4.824.113,9.42,9.42,0,0,0-1.5-.731A7.875,7.875,0,0,0,2569.5,1122.257Zm-4.364,4.883c-.235,0-.463.007-.653.018-.755.035-1.626.225-1.833,1.2s1.321.344,2.575-.025,1.248-.049,1.314-.65C2566.592,1127.231,2565.841,1127.14,2565.138,1127.14Zm7.286.759c-.46.025-1,.1-1.812.186-1.616.172-3.049.541-2.649,1.04s2.618.067,4.781-.13,3.028.309,3.194-.07-1.286-.639-2.217-.9A3.967,3.967,0,0,0,2572.424,1127.9Z" transform="translate(-2473.728 -1083.156)" fill="#ff7f8f" fill-rule="evenodd"/>
            <path id="Trazado_989025" data-name="Trazado 989025" d="M2551.52,1177.373c.348-.713,1.858-1.395,1.865-.615Z" transform="translate(-2478.104 -1101.238)" fill="#ff7f8f" fill-rule="evenodd"/>
          </g>
          <g id="Grupo_1153558" data-name="Grupo 1153558" transform="translate(103.941 29.774)">
            <path id="Trazado_989026" data-name="Trazado 989026" d="M2491.994,1154.907a.347.347,0,0,1-.079-.009.352.352,0,0,1-.263-.422c.078-.334,7.717-33.483,1.517-44.366a10.82,10.82,0,0,0-6.791-5.562c-5.385-1.333-10.955,2.16-11.011,2.2a.351.351,0,0,1-.378-.592c.237-.152,5.868-3.692,11.553-2.287a11.492,11.492,0,0,1,7.238,5.9c6.336,11.122-1.122,43.5-1.442,44.873A.35.35,0,0,1,2491.994,1154.907Z" transform="translate(-2474.826 -1103.536)" fill="#360b1e"/>
          </g>
          <path id="Trazado_989027" data-name="Trazado 989027" d="M2442.186,1178.846s-15.77.576-16.54,9.809-1.921,49.422,1.925,50.961,10.574,9.039,10.574,9.039-8.245,5.421-11.322,11.959-2.832,18.254,1.591,18.83,15.827,1.374,20.056.987,49.292-2.547,48.523-9.278-13.845-17.306-13.845-25.192-.415-8.828-.415-8.828,11.428.4,11.952-8.5c.478-8.144,3-49.4-15.623-50.817C2465.914,1176.816,2442.186,1178.846,2442.186,1178.846Z" transform="translate(-2355.997 -1095.769)" fill="#70e8ad" fill-rule="evenodd"/>
          <path id="Trazado_989028" data-name="Trazado 989028" d="M2469.072,1106.017s5.659-4.282,13.525,1.1c9.991,6.847,3.292,32.412,4.311,40.3a13.291,13.291,0,0,1-4.5,12.039l-28.734.791s.6-24.023.949-34.6C2455.083,1111.153,2464.575,1100.606,2469.072,1106.017Z" transform="translate(-2364.594 -1074.02)" fill="#360b1e" fill-rule="evenodd"/>
          <path id="Trazado_989029" data-name="Trazado 989029" d="M2499.4,1306.617s-6.981-13.469-12.162-14.671-19.575,3.46-19.575,3.46-.007-9.141-6.883-4.806-19.062,20.471-13.539,22.768S2503.281,1312.034,2499.4,1306.617Z" transform="translate(-2362.268 -1129.045)" fill="#360b1e" fill-rule="evenodd"/>
          <path id="Trazado_989030" data-name="Trazado 989030" d="M2464.634,1154.172s.45,11.86-1.542,12.956-14.207,4.37-14.207,4.37,14.878,6.756,20.74,5.927c8.71-1.233,17.274-8.846,17.274-8.846l-8.888-2.1s2.554-17.635,2.473-20.34S2464.634,1154.172,2464.634,1154.172Z" transform="translate(-2363.171 -1086.3)" fill="#ffbfbe" fill-rule="evenodd"/>
          <path id="Trazado_989031" data-name="Trazado 989031" d="M2471.021,1157.854s.225,2.751.144,3.714-.214,2.5-.214,2.5,8.916.3,12.639-6.819c2.59-4.943,3.268-12.9,3.268-12.9Z" transform="translate(-2369.732 -1085.9)" fill="#f15d85" fill-rule="evenodd"/>
          <path id="Trazado_989032" data-name="Trazado 989032" d="M2460.564,1128.041s-1.567,10.95.249,16.111,6.58,9.334,12.183,7.507c7.42-2.417,11.133-14.007,11.9-17.158a8.82,8.82,0,0,0,.094-4.872s-7.886-1.82-10.18-4.5-5.436-7.272-5.436-7.272S2466.776,1124.893,2460.564,1128.041Z" transform="translate(-2366.457 -1078.022)" fill="#ffbfbe" fill-rule="evenodd"/>
          <path id="Trazado_989033" data-name="Trazado 989033" d="M2493.768,1136.786s4.9-8.547,7.12-4.269-4.915,12.795-6.97,12.2S2493.458,1138.662,2493.768,1136.786Z" transform="translate(-2376.255 -1082.024)" fill="#ffbfbe" fill-rule="evenodd"/>
          <path id="Trazado_989034" data-name="Trazado 989034" d="M2460.682,1135.016s-3.527-9.2-6.376-5.315,2.887,13.4,5.009,13.132S2460.7,1136.912,2460.682,1135.016Z" transform="translate(-2364.552 -1081.258)" fill="#ffbfbe" fill-rule="evenodd"/>
          <g id="Grupo_1153559" data-name="Grupo 1153559" transform="translate(102.46 38.724)">
            <path id="Trazado_989035" data-name="Trazado 989035" d="M2486.835,1129.087a13.3,13.3,0,0,1-6.81-1.619c-4.031-2.462-7.152-10.379-7.283-10.715a.351.351,0,0,1,.654-.255c.031.08,3.165,8.033,6.995,10.371,3.813,2.331,9.557,1.266,9.616,1.254a.351.351,0,1,1,.132.69A19.052,19.052,0,0,1,2486.835,1129.087Z" transform="translate(-2472.719 -1116.274)" fill="#360b1e"/>
          </g>
          <path id="Trazado_989036" data-name="Trazado 989036" d="M2495.638,1139.8s3.977-4.616,4.634-3.675-1.525,4.953-2.716,5.372S2495.576,1140.679,2495.638,1139.8Z" transform="translate(-2377.073 -1083.416)" fill="#f15d85" fill-rule="evenodd"/>
          <g id="Grupo_1153560" data-name="Grupo 1153560" transform="translate(118.109 52.242)">
            <path id="Trazado_989037" data-name="Trazado 989037" d="M2495.342,1140.26a.346.346,0,0,1-.223-.08.349.349,0,0,1-.048-.494c.335-.408,3.322-3.991,4.91-4.171a.352.352,0,1,1,.08.7c-.985.111-3.25,2.462-4.448,3.918A.36.36,0,0,1,2495.342,1140.26Z" transform="translate(-2494.991 -1135.513)" fill="#360b1e"/>
          </g>
          <path id="Trazado_989038" data-name="Trazado 989038" d="M2471.78,1151.26l3.927.615a4.924,4.924,0,0,1-2.575,1.072C2471.97,1152.894,2471.78,1151.26,2471.78,1151.26Z" transform="translate(-2369.979 -1087.954)" fill="#f15d85" fill-rule="evenodd"/>
          <g id="Grupo_1153561" data-name="Grupo 1153561" transform="translate(101.305 66.606)">
            <path id="Trazado_989039" data-name="Trazado 989039" d="M2473.228,1158.566a2.993,2.993,0,0,1-2.051-.719.352.352,0,0,1,.494-.5c.081.076,1.883,1.722,5.392-1.3a.351.351,0,1,1,.458.532A6.746,6.746,0,0,1,2473.228,1158.566Z" transform="translate(-2471.073 -1155.958)" fill="#360b1e"/>
          </g>
          <g id="Grupo_1153562" data-name="Grupo 1153562" transform="translate(105.381 50.206)">
            <path id="Trazado_989040" data-name="Trazado 989040" d="M2483.308,1145.477a6.43,6.43,0,1,1,6.432-6.432A6.44,6.44,0,0,1,2483.308,1145.477Zm0-12.163a5.728,5.728,0,1,0,5.729,5.726A5.734,5.734,0,0,0,2483.308,1133.314Z" transform="translate(-2476.875 -1132.616)" fill="#360b1e"/>
          </g>
          <g id="Grupo_1153563" data-name="Grupo 1153563" transform="translate(94.29 50.22)">
            <path id="Trazado_989041" data-name="Trazado 989041" d="M2462.643,1139.124a.348.348,0,0,1-.256-.111,4.79,4.79,0,0,1-.268-6.244.351.351,0,1,1,.549.436,4.092,4.092,0,0,0,.23,5.327.351.351,0,0,1-.016.5A.343.343,0,0,1,2462.643,1139.124Z" transform="translate(-2461.09 -1132.635)" fill="#fff"/>
          </g>
          <g id="Grupo_1153564" data-name="Grupo 1153564" transform="translate(99.602 55.462)">
            <path id="Trazado_989042" data-name="Trazado 989042" d="M2469,1142.656a.351.351,0,0,1-.068-.7,4.069,4.069,0,0,0,2.576-1.712.352.352,0,1,1,.581.4,4.775,4.775,0,0,1-3.019,2A.25.25,0,0,1,2469,1142.656Z" transform="translate(-2468.651 -1140.096)" fill="#fff"/>
          </g>
          <g id="Grupo_1153565" data-name="Grupo 1153565" transform="translate(100.909 49.106)">
            <path id="Trazado_989043" data-name="Trazado 989043" d="M2473.117,1135.617a.352.352,0,0,1-.352-.352,4.092,4.092,0,0,0-2.077-3.558.352.352,0,1,1,.347-.612,4.8,4.8,0,0,1,2.433,4.171A.357.357,0,0,1,2473.117,1135.617Z" transform="translate(-2470.51 -1131.05)" fill="#fff"/>
          </g>
          <g id="Grupo_1153566" data-name="Grupo 1153566" transform="translate(107.535 56.284)">
            <path id="Trazado_989044" data-name="Trazado 989044" d="M2483.341,1146.138a.37.37,0,0,1-.106-.016,4.709,4.709,0,0,1-3.293-4.5.351.351,0,1,1,.7,0,4.01,4.01,0,0,0,2.8,3.835.351.351,0,0,1-.106.686Z" transform="translate(-2479.941 -1141.266)" fill="#fff"/>
          </g>
          <g id="Grupo_1153567" data-name="Grupo 1153567" transform="translate(115.72 54.783)">
            <path id="Trazado_989045" data-name="Trazado 989045" d="M2491.942,1143.472a.351.351,0,0,1-.306-.524,4.016,4.016,0,0,0,.274-3.348.352.352,0,1,1,.662-.239,4.734,4.734,0,0,1-.323,3.932A.357.357,0,0,1,2491.942,1143.472Z" transform="translate(-2491.59 -1139.13)" fill="#fff"/>
          </g>
          <g id="Grupo_1153568" data-name="Grupo 1153568" transform="translate(110.626 51.916)">
            <path id="Trazado_989046" data-name="Trazado 989046" d="M2488.408,1136.49a.342.342,0,0,1-.2-.06,4.075,4.075,0,0,0-3.419-.507.351.351,0,1,1-.2-.672,4.779,4.779,0,0,1,4.015.6.351.351,0,0,1,.1.487A.356.356,0,0,1,2488.408,1136.49Z" transform="translate(-2484.34 -1135.049)" fill="#fff"/>
          </g>
          <path id="Trazado_989047" data-name="Trazado 989047" d="M2485.11,1141.178a.975.975,0,1,1,.977.977A.974.974,0,0,1,2485.11,1141.178Z" transform="translate(-2373.943 -1084.667)" fill="#360b1e" fill-rule="evenodd"/>
          <path id="Trazado_989048" data-name="Trazado 989048" d="M2465.37,1136.708a.975.975,0,1,1,.976.973A.974.974,0,0,1,2465.37,1136.708Z" transform="translate(-2368.073 -1083.337)" fill="#360b1e" fill-rule="evenodd"/>
          <g id="Grupo_1153569" data-name="Grupo 1153569" transform="translate(96.947 52.046)">
            <path id="Trazado_989049" data-name="Trazado 989049" d="M2469.184,1136.721a.35.35,0,0,1-.177-.047,4.087,4.087,0,0,0-3.636-.538.354.354,0,0,1-.467-.168.349.349,0,0,1,.164-.466,4.747,4.747,0,0,1,4.291.564.352.352,0,0,1,.128.481A.338.338,0,0,1,2469.184,1136.721Z" transform="translate(-2464.871 -1135.234)" fill="#360b1e"/>
          </g>
          <path id="Trazado_989050" data-name="Trazado 989050" d="M2502.933,1292c5.825,1.546,10.346,7.16,5.431,21.524s-23.355,63.756-25.638,65.951-6.752.039-6.471-4.581,4.711-33.086,5.92-42.044S2482.269,1286.5,2502.933,1292Z" transform="translate(-2371.305 -1129.644)" fill="#ffbfbe" fill-rule="evenodd"/>
          <path id="Trazado_989051" data-name="Trazado 989051" d="M2466.6,1129.22l-6.865,8.217.942,1.237,7.2-9.215Z" transform="translate(-2366.398 -1081.4)" fill="#fff" fill-rule="evenodd"/>
          <g id="Grupo_1153570" data-name="Grupo 1153570" transform="translate(110.366 55.376)">
            <path id="Trazado_989052" data-name="Trazado 989052" d="M2488.284,1141.461a.343.343,0,0,1-.175-.047,4.092,4.092,0,0,0-3.638-.538.352.352,0,0,1-.466-.168.349.349,0,0,1,.163-.466,4.745,4.745,0,0,1,4.291.563.351.351,0,0,1-.175.655Z" transform="translate(-2483.97 -1139.975)" fill="#360b1e"/>
          </g>
          <g id="Grupo_1153571" data-name="Grupo 1153571" transform="translate(117.217 51.586)">
            <path id="Trazado_989053" data-name="Trazado 989053" d="M2494.071,1137.988a.36.36,0,0,1-.135-.027.351.351,0,0,1-.19-.459,9.32,9.32,0,0,1,1.813-2.836.351.351,0,0,1,.46.531,8.816,8.816,0,0,0-1.624,2.576A.362.362,0,0,1,2494.071,1137.988Z" transform="translate(-2493.72 -1134.58)" fill="#360b1e"/>
          </g>
          <g id="Grupo_1153572" data-name="Grupo 1153572" transform="translate(92.642 47.136)">
            <path id="Trazado_989054" data-name="Trazado 989054" d="M2465.177,1141.107a6.43,6.43,0,1,1,6.432-6.432A6.439,6.439,0,0,1,2465.177,1141.107Zm0-12.162a5.728,5.728,0,1,0,5.729,5.726A5.734,5.734,0,0,0,2465.177,1128.944Z" transform="translate(-2458.745 -1128.246)" fill="#360b1e"/>
          </g>
          <path id="Trazado_989055" data-name="Trazado 989055" d="M2427.534,1271.339l-.039-5.617,58.177-.527.418,3.815Z" transform="translate(-2356.809 -1121.837)" fill="#fff" fill-rule="evenodd"/>
          <g id="Grupo_1153579" data-name="Grupo 1153579" transform="translate(74.987 122.92)">
            <path id="Trazado_989056" data-name="Trazado 989056" d="M2437.818,1239.969s-3.833-.147-3.9,3.232.608,9.32,2.263,8.663.794-6.823,1.31-7.926S2437.818,1239.969,2437.818,1239.969Z" transform="translate(-2433.705 -1237.255)" fill="#ffbfbe" fill-rule="evenodd"/>
            <g id="Grupo_1153573" data-name="Grupo 1153573" transform="translate(0 2.447)">
              <path id="Trazado_989057" data-name="Trazado 989057" d="M2435.122,1251.45a.175.175,0,0,1-.082-.02c-1.305-.694-1.6-6.217-1.333-8.994.291-2.916,4.585-2.844,4.623-2.846a.176.176,0,0,1,0,.351h-.042c-.409,0-3.983.073-4.228,2.53-.289,2.948.118,8.1,1.147,8.649a.175.175,0,0,1-.083.33Z" transform="translate(-2433.616 -1239.59)" fill="#360b1e"/>
            </g>
            <path id="Trazado_989058" data-name="Trazado 989058" d="M2437.382,1256.031s.173-3.031-1.072-3.2-1.2,2.859-.688,3.446S2437.445,1256.656,2437.382,1256.031Z" transform="translate(-2434.112 -1241.077)" fill="#f15d85" fill-rule="evenodd"/>
            <path id="Trazado_989059" data-name="Trazado 989059" d="M2445.2,1236.44a19.6,19.6,0,0,1-3.141,1.556,19.489,19.489,0,0,0-3.25.878c-.766.376-3.341,2.182-3.366,2.775s5.132,1.679,6.914,1.279,5.59-.316,7-1.44S2445.2,1236.44,2445.2,1236.44Z" transform="translate(-2434.16 -1236.206)" fill="#ffbfbe" fill-rule="evenodd"/>
            <path id="Trazado_989060" data-name="Trazado 989060" d="M2440.68,1238.976s-.864,1.388-.685,5.157c.155,3.3.664,9.468,2.357,9.995s2.969-1.244,2.786-3.668-.892-4.321-.66-6,.091-5.46-.882-6.145S2441.7,1237.958,2440.68,1238.976Z" transform="translate(-2435.506 -1236.655)" fill="#ffbfbe" fill-rule="evenodd"/>
            <path id="Trazado_989061" data-name="Trazado 989061" d="M2449.117,1236.342s-1.7.913-1.815,2.23.917,3.148.885,4.325-.211,6.088-.183,6.977-.1,3.018.587,4.135a1.778,1.778,0,0,0,3.292-.689c.488-2.09.344-6.1.4-7.332s.576-5.056.092-6.317S2451.007,1235.941,2449.117,1236.342Z" transform="translate(-2437.683 -1236.164)" fill="#ffbfbe" fill-rule="evenodd"/>
            <path id="Trazado_989062" data-name="Trazado 989062" d="M2458.823,1249.49s3.71,2.283,3.3,4.535c-.229,1.251-2.494,2.312-3.573,1.521s-2.888-2.371-2.673-3.32S2458.823,1249.49,2458.823,1249.49Z" transform="translate(-2440.23 -1240.087)" fill="#f15d85" fill-rule="evenodd"/>
            <path id="Trazado_989063" data-name="Trazado 989063" d="M2451.54,1237.91s3.646.112,4.205.948,2.59,3.647,2.645,4.76-.977,8.994-1.95,9.412a2.051,2.051,0,0,1-2.979-1.5c-.226-1.753.889-3.675.945-4.929a13.631,13.631,0,0,0-.221-2.7l-1.922-1.753Z" transform="translate(-2438.946 -1236.643)" fill="#ffbfbe" fill-rule="evenodd"/>
            <path id="Trazado_989064" data-name="Trazado 989064" d="M2454.69,1257.911a25.02,25.02,0,0,1,.833-2.694,1.063,1.063,0,0,1,1.961.615,7.678,7.678,0,0,1-.651,2.617C2456.749,1258.7,2454.774,1258.523,2454.69,1257.911Z" transform="translate(-2439.883 -1241.644)" fill="#f15d85" fill-rule="evenodd"/>
            <g id="Grupo_1153574" data-name="Grupo 1153574" transform="translate(13.872 5.013)">
              <path id="Trazado_989065" data-name="Trazado 989065" d="M2453.535,1256.288a.176.176,0,0,1-.144-.278c.6-.838.547-3.281.506-5.243-.005-.292-.012-.573-.015-.839-.028-2.071.372-6.481.376-6.524a.168.168,0,0,1,.19-.159.176.176,0,0,1,.159.191c0,.044-.4,4.435-.374,6.488,0,.265.01.545.015.836.044,2.119.094,4.521-.571,5.455A.157.157,0,0,1,2453.535,1256.288Z" transform="translate(-2453.359 -1243.242)" fill="#360b1e"/>
            </g>
            <g id="Grupo_1153575" data-name="Grupo 1153575" transform="translate(4.17 0.961)">
              <path id="Trazado_989066" data-name="Trazado 989066" d="M2442.1,1253.99c-.875,0-1.87-3.531-2.005-4.972-.052-.543-.13-1.007-.211-1.5a20.176,20.176,0,0,1-.331-4.118,11.957,11.957,0,0,1,.66-4.646,2.476,2.476,0,0,1,2.014-1.28c.931.061,1.7.979,2.3,2.728a.175.175,0,0,1-.11.222.172.172,0,0,1-.222-.109c-.536-1.578-1.223-2.44-1.988-2.49-.024,0-.049,0-.073,0a2.215,2.215,0,0,0-1.6,1.087,11.7,11.7,0,0,0-.625,4.495,19.864,19.864,0,0,0,.326,4.055c.083.5.161.967.215,1.522.174,1.872,1.234,4.654,1.655,4.654a.176.176,0,0,1,0,.352Z" transform="translate(-2439.551 -1237.474)" fill="#360b1e"/>
            </g>
            <path id="Trazado_989067" data-name="Trazado 989067" d="M2443.018,1259.612s-.826-2.972.432-3.6,2.381,2.593,2.27,3.141S2443.136,1260.349,2443.018,1259.612Z" transform="translate(-2436.333 -1242.002)" fill="#f15d85" fill-rule="evenodd"/>
            <g id="Grupo_1153576" data-name="Grupo 1153576" transform="translate(10.026)">
              <path id="Trazado_989068" data-name="Trazado 989068" d="M2448.809,1254.054a.181.181,0,0,1-.088-.023c-1.064-.616-.872-3.379-.7-5.816.057-.823.111-1.6.105-2.186-.025-2.219.205-9.2.207-9.271a.175.175,0,0,1,.054-.121,2.043,2.043,0,0,1,1.693-.5c.9.178,1.7,1.033,2.365,2.539a.175.175,0,1,1-.321.143c-.617-1.393-1.327-2.18-2.109-2.337a1.7,1.7,0,0,0-1.334.36c-.025.775-.228,7.094-.2,9.179.006.6-.049,1.384-.106,2.214-.146,2.1-.346,4.982.528,5.488a.175.175,0,0,1-.088.327Z" transform="translate(-2447.886 -1236.107)" fill="#360b1e"/>
            </g>
            <path id="Trazado_989069" data-name="Trazado 989069" d="M2449.039,1260.383s-.077-2.786.8-3.415a1.261,1.261,0,0,1,1.968,1.029,8.208,8.208,0,0,1-.208,2.772C2451.428,1261.212,2449.1,1261.177,2449.039,1260.383Z" transform="translate(-2438.202 -1242.239)" fill="#f15d85" fill-rule="evenodd"/>
            <g id="Grupo_1153577" data-name="Grupo 1153577" transform="translate(14.417 6.808)">
              <path id="Trazado_989070" data-name="Trazado 989070" d="M2454.314,1253.254a.176.176,0,0,1-.175-.162,7.49,7.49,0,0,1,.5-2.221,9.838,9.838,0,0,0,.339-1.206,23.259,23.259,0,0,0-.121-3.238l-.393-.319a.176.176,0,0,1,.221-.273l.45.366a.175.175,0,0,1,.065.12,24.119,24.119,0,0,1,.125,3.4,9.813,9.813,0,0,1-.352,1.26,7.433,7.433,0,0,0-.483,2.088.175.175,0,0,1-.161.188Z" transform="translate(-2454.135 -1245.796)" fill="#360b1e"/>
            </g>
            <g id="Grupo_1153578" data-name="Grupo 1153578" transform="translate(13.492 1.066)">
              <path id="Trazado_989071" data-name="Trazado 989071" d="M2456.48,1253.24a.175.175,0,0,1-.011-.35c1.049-.067,1.887-5.875,2.173-9.549-.169-.4-1.646-3.866-2.728-4.646a5.149,5.149,0,0,0-2.907-.713.17.17,0,0,1-.187-.163.174.174,0,0,1,.162-.187,5.4,5.4,0,0,1,3.136.778c1.224.882,2.8,4.674,2.863,4.835a.173.173,0,0,1,.012.081c-.125,1.636-.837,9.808-2.5,9.914Z" transform="translate(-2452.819 -1237.624)" fill="#360b1e"/>
            </g>
          </g>
          <g id="Grupo_1153580" data-name="Grupo 1153580" transform="translate(77.715 141.739)">
            <path id="Trazado_989072" data-name="Trazado 989072" d="M2493.8,1262.89h5.533a.832.832,0,0,1,.833.832v1.423a.835.835,0,0,1-.833.836H2493.8a.838.838,0,0,1-.836-.836v-1.423A.832.832,0,0,1,2493.8,1262.89Z" transform="translate(-2453.993 -1262.89)" fill="#fff" fill-rule="evenodd"/>
            <path id="Trazado_989073" data-name="Trazado 989073" d="M2479.928,1262.89h5.533a.832.832,0,0,1,.833.832v1.423a.835.835,0,0,1-.833.836h-5.533a.835.835,0,0,1-.833-.836v-1.423A.836.836,0,0,1,2479.928,1262.89Z" transform="translate(-2449.87 -1262.89)" fill="#fff" fill-rule="evenodd"/>
            <path id="Trazado_989074" data-name="Trazado 989074" d="M2466.067,1262.89h5.533a.835.835,0,0,1,.836.832v1.423a.838.838,0,0,1-.836.836h-5.533a.835.835,0,0,1-.833-.836v-1.423A.827.827,0,0,1,2466.067,1262.89Z" transform="translate(-2445.748 -1262.89)" fill="#fff" fill-rule="evenodd"/>
            <path id="Trazado_989075" data-name="Trazado 989075" d="M2452.206,1262.89h5.53a.835.835,0,0,1,.836.832v1.423a.838.838,0,0,1-.836.836h-5.53a.836.836,0,0,1-.836-.836v-1.423A.833.833,0,0,1,2452.206,1262.89Z" transform="translate(-2441.624 -1262.89)" fill="#fff" fill-rule="evenodd"/>
            <path id="Trazado_989076" data-name="Trazado 989076" d="M2438.336,1262.89h5.53a.832.832,0,0,1,.836.832v1.423a.836.836,0,0,1-.836.836h-5.53a.838.838,0,0,1-.836-.836v-1.423A.837.837,0,0,1,2438.336,1262.89Z" transform="translate(-2437.5 -1262.89)" fill="#fff" fill-rule="evenodd"/>
          </g>
          <g id="Grupo_1153581" data-name="Grupo 1153581" transform="translate(86.525 81.783)">
            <path id="Trazado_989077" data-name="Trazado 989077" d="M2467.261,1187.516c-7.778,0-16.641-5.206-17.051-5.45a.351.351,0,1,1,.358-.6c.108.064,10.939,6.422,18.9,5.19,8.292-1.284,17.636-8.934,17.729-9.012a.351.351,0,1,1,.448.541c-.387.32-9.585,7.85-18.07,9.164A15.411,15.411,0,0,1,2467.261,1187.516Z" transform="translate(-2450.038 -1177.558)" fill="#360b1e"/>
          </g>
          <path id="Trazado_989078" data-name="Trazado 989078" d="M2494.967,1292.55c-12.411,4.971-11.765,33.026-12.791,40.629-1.208,8.958-5.632,37.425-5.916,42.045-.228,3.745,2.645,5.828,4.968,5.333.063-.625-1.869-.32-2.516-1.4-.681-1.135-.081-3.66-.06-4.486,0,0,4.118-21.469,6.548-42.617C2487.568,1311.492,2491.109,1299.014,2494.967,1292.55Z" transform="translate(-2371.307 -1129.972)" fill="#f15d85" fill-rule="evenodd"/>
          <g id="Grupo_1153582" data-name="Grupo 1153582" transform="translate(88.663 89.717)">
            <path id="Trazado_989079" data-name="Trazado 989079" d="M2465.819,1205.1a9.413,9.413,0,0,1-3.863-.673.351.351,0,0,1,.306-.633c.045.021,4.594,2.107,12.367-1.741,5.458-2.7,9.537-7.893,11.535-10.84-3.4,2.981-10.6,8.681-16.092,8.815-.115,0-.23,0-.347,0-7.192,0-16.089-5.163-16.47-5.385a.352.352,0,1,1,.355-.607c.093.054,9.37,5.454,16.445,5.285,7.013-.17,17.434-10.274,17.539-10.376a.352.352,0,0,1,.554.42c-.051.093-5.153,9.326-13.208,13.313A20.564,20.564,0,0,1,2465.819,1205.1Z" transform="translate(-2453.082 -1188.85)" fill="#360b1e"/>
          </g>
          <path id="Trazado_989080" data-name="Trazado 989080" d="M2470.586,1291.815c5.9,1.236,10.711,6.6,6.562,21.212s-19.94,64.9-22.1,67.216-5.793.074-5.755-4.556,2.849-31.109,3.583-40.12S2449.656,1287.424,2470.586,1291.815Z" transform="translate(-2363.291 -1129.651)" fill="#ffbfbe" fill-rule="evenodd"/>
          <g id="Grupo_1153586" data-name="Grupo 1153586" transform="translate(0 58.589)">
            <path id="Trazado_989081" data-name="Trazado 989081" d="M2329.479,1210.422l-2.08-59.441a2.617,2.617,0,0,1,2.512-2.705l86.411-3.222a2.569,2.569,0,0,1,2.67,2.509l1.528,61.676a2.572,2.572,0,0,1-2.54,2.642l-85.8,1.114A2.678,2.678,0,0,1,2329.479,1210.422Z" transform="translate(-2327.042 -1144.698)" fill="#fff" fill-rule="evenodd"/>
            <g id="Grupo_1153583" data-name="Grupo 1153583" transform="translate(32.403 36.436)">
              <path id="Trazado_989082" data-name="Trazado 989082" d="M2373.883,1251l-.373-50.462a3.536,3.536,0,0,1,3.52-3.562l16.487-.066a3.423,3.423,0,0,1,3.457,3.531l-1.268,51.158Z" transform="translate(-2373.158 -1196.554)" fill="#fff" fill-rule="evenodd"/>
              <path id="Trazado_989083" data-name="Trazado 989083" d="M2395.557,1251.8h-.009l-21.823-.6a.351.351,0,0,1-.342-.348l-.372-50.462a3.888,3.888,0,0,1,3.869-3.916l16.489-.067h.014a3.775,3.775,0,0,1,3.8,3.891l-1.27,51.157a.351.351,0,0,1-.109.246A.358.358,0,0,1,2395.557,1251.8Zm-21.478-1.286,21.132.578,1.259-50.806a3.072,3.072,0,0,0-3.092-3.17h-.011l-16.488.067a3.186,3.186,0,0,0-3.17,3.209Z" transform="translate(-2373.01 -1196.405)" fill="#360b1e"/>
            </g>
            <path id="Trazado_989084" data-name="Trazado 989084" d="M2371.608,1201.5l-3.618,27.961,4.1-.155Z" transform="translate(-2339.113 -1161.484)" fill="#360b1e" fill-rule="evenodd"/>
            <g id="Grupo_1153584" data-name="Grupo 1153584">
              <path id="Trazado_989085" data-name="Trazado 989085" d="M2327.986,1172.324a.352.352,0,0,1-.351-.339l-.742-21.145a2.976,2.976,0,0,1,2.85-3.068l86.412-3.222a2.92,2.92,0,0,1,3.034,2.851l.19,7.637a.352.352,0,0,1-.342.361.333.333,0,0,1-.361-.343l-.19-7.638a2.206,2.206,0,0,0-.7-1.564,2.175,2.175,0,0,0-1.609-.6l-86.411,3.221a2.27,2.27,0,0,0-2.174,2.342l.742,21.144a.352.352,0,0,1-.338.364S2327.994,1172.324,2327.986,1172.324Z" transform="translate(-2326.891 -1144.547)" fill="#360b1e"/>
            </g>
            <g id="Grupo_1153585" data-name="Grupo 1153585" transform="translate(1.123 37.978)">
              <path id="Trazado_989086" data-name="Trazado 989086" d="M2329.642,1222.173a.351.351,0,0,1-.351-.339l-.8-22.87a.352.352,0,0,1,.339-.364.36.36,0,0,1,.365.339l.8,22.87a.352.352,0,0,1-.339.364Z" transform="translate(-2328.489 -1198.6)" fill="#360b1e"/>
            </g>
          </g>
          <path id="Trazado_989087" data-name="Trazado 989087" d="M2339.417,1271.45h147.532a.833.833,0,0,1,.833.836v5.487a.833.833,0,0,1-.833.836H2339.417a.833.833,0,0,1-.832-.836v-5.487A.837.837,0,0,1,2339.417,1271.45Z" transform="translate(-2330.369 -1123.697)" fill="#360b1e" fill-rule="evenodd"/>
          <path id="Trazado_989088" data-name="Trazado 989088" d="M2537.859,1061.66h50.272a2.252,2.252,0,0,1,2.252,2.252v32.029a2.251,2.251,0,0,1-2.252,2.249h-50.272a2.248,2.248,0,0,1-2.248-2.249v-32.029A2.251,2.251,0,0,1,2537.859,1061.66Z" transform="translate(-2388.961 -1061.309)" fill="#fff" fill-rule="evenodd"/>
          <g id="Grupo_1153587" data-name="Grupo 1153587" transform="translate(78.006 248.129)">
            <path id="Trazado_989089" data-name="Trazado 989089" d="M2441.356,1414.81s-2.8,1.735-2.941,4.325,21.061,16.178,22.322,16.136,2.625-1.732.885-3.352S2441.356,1414.81,2441.356,1414.81Z" transform="translate(-2438.062 -1414.458)" fill="#fff" fill-rule="evenodd"/>
            <path id="Trazado_989090" data-name="Trazado 989090" d="M2460.592,1435.473c-1.383,0-17.235-10.231-21.437-14.517-.883-.9-1.265-1.512-1.24-1.989.149-2.741,2.985-4.529,3.106-4.6a.35.35,0,0,1,.41.029c.756.632,18.556,15.514,20.281,17.121a2.337,2.337,0,0,1,.811,2.547,2.23,2.23,0,0,1-1.923,1.414Zm-19.406-20.369c-.626.449-2.461,1.928-2.569,3.9-.11,2.075,20.207,15.558,21.976,15.766a1.522,1.522,0,0,0,1.273-.956,1.656,1.656,0,0,0-.631-1.787C2459.615,1430.526,2443.209,1416.8,2441.186,1415.1Z" transform="translate(-2437.913 -1414.309)" fill="#360b1e"/>
          </g>
          <g id="Grupo_1153589" data-name="Grupo 1153589" transform="translate(99.602 244.11)">
            <g id="Grupo_1153588" data-name="Grupo 1153588" transform="translate(0 2.892)">
              <path id="Trazado_989091" data-name="Trazado 989091" d="M2472.107,1413.2s-2.736,3.284-2.916,5.67c-.488,6.436,3.057,15.1,7.237,18.552,5.716,4.722,9.865-1.345,8.427-4.82S2472.107,1413.2,2472.107,1413.2Z" transform="translate(-2468.798 -1412.853)" fill="#fff" fill-rule="evenodd"/>
              <path id="Trazado_989092" data-name="Trazado 989092" d="M2480.349,1439.359a6.754,6.754,0,0,1-4.289-1.807c-4.408-3.638-7.849-12.447-7.363-18.85.186-2.469,2.882-5.731,3-5.869a.347.347,0,0,1,.284-.127.353.353,0,0,1,.272.148c.463.651,11.348,16,12.786,19.472a5.5,5.5,0,0,1-1.929,6.127A4.684,4.684,0,0,1,2480.349,1439.359Zm-8.4-25.716c-.692.9-2.416,3.312-2.55,5.11-.462,6.1,2.926,14.8,7.11,18.256,3.028,2.5,5.173,1.623,6.182.878a4.76,4.76,0,0,0,1.7-5.292C2483.1,1429.487,2473.675,1416.088,2471.946,1413.643Z" transform="translate(-2468.651 -1412.705)" fill="#360b1e"/>
            </g>
            <path id="Trazado_989093" data-name="Trazado 989093" d="M2474.853,1408.59s-4.574,3.871-4.037,7.644a46.786,46.786,0,0,0,6.116,17.4c1.391,2.252,7.051,3.207,8.382.583,1.127-2.227,1.328-3.858-.562-9.257a83.438,83.438,0,0,1-2.962-12.089,3.48,3.48,0,0,1-4.929.829C2475.331,1412.75,2474.853,1408.59,2474.853,1408.59Z" transform="translate(-2469.282 -1408.59)" fill="#360b1e" fill-rule="evenodd"/>
          </g>
          <path id="Trazado_989094" data-name="Trazado 989094" d="M2446.707,1405.17s-5.143,5.822-5.509,8.642,20.875,18.563,22.017,16.673c.468-.769-.907-4.279-2.691-8.168-2.6-5.649-6.074-12.1-6.074-12.1a12.631,12.631,0,0,1-4.845-1.205C2447.957,1407.973,2446.707,1405.17,2446.707,1405.17Z" transform="translate(-2360.883 -1163.463)" fill="#360b1e" fill-rule="evenodd"/>
          <g id="Grupo_1153590" data-name="Grupo 1153590" transform="translate(146.585 4.469)">
            <path id="Trazado_989095" data-name="Trazado 989095" d="M2590.359,1068.223H2535.87a.351.351,0,0,1,0-.7h54.489a.351.351,0,1,1,0,.7Z" transform="translate(-2535.52 -1067.52)" fill="#360b1e"/>
          </g>
          <path id="Trazado_989096" data-name="Trazado 989096" d="M2607.75,1064.743a1.1,1.1,0,1,1,1.1,1.1A1.1,1.1,0,0,1,2607.75,1064.743Z" transform="translate(-2410.415 -1061.898)" fill="#360b1e" fill-rule="evenodd"/>
          <path id="Trazado_989097" data-name="Trazado 989097" d="M2601.99,1064.743a1.1,1.1,0,1,1,1.1,1.1A1.1,1.1,0,0,1,2601.99,1064.743Z" transform="translate(-2408.701 -1061.898)" fill="#360b1e" fill-rule="evenodd"/>
          <g id="Grupo_1153591" data-name="Grupo 1153591" transform="translate(187.955 7.578)">
            <path id="Trazado_989098" data-name="Trazado 989098" d="M2599.915,1076.15a15.082,15.082,0,0,1-5.323-1.579.346.346,0,0,1-.191-.283.351.351,0,0,1,.141-.312,10.7,10.7,0,0,1,5.4-2.031h.122a5.889,5.889,0,0,1,4.254,1.917.35.35,0,0,1-.041.486,8.272,8.272,0,0,1-3.781,1.759A3.909,3.909,0,0,1,2599.915,1076.15Zm-4.447-1.946c1.075.481,3.457,1.443,4.924,1.211a7.56,7.56,0,0,0,3.133-1.363,5.34,5.34,0,0,0-3.472-1.4A9.365,9.365,0,0,0,2595.468,1074.2Z" transform="translate(-2594.4 -1071.945)" fill="#360b1e"/>
          </g>
          <g id="Grupo_1153592" data-name="Grupo 1153592" transform="translate(191.385 7.767)">
            <path id="Trazado_989099" data-name="Trazado 989099" d="M2601.191,1076.041a1.913,1.913,0,1,1,1.915-1.915A1.915,1.915,0,0,1,2601.191,1076.041Zm0-3.127a1.211,1.211,0,1,0,1.212,1.209A1.21,1.21,0,0,0,2601.191,1072.914Z" transform="translate(-2599.28 -1072.214)" fill="#360b1e"/>
          </g>
          <g id="Grupo_1153593" data-name="Grupo 1153593" transform="translate(85.576 161.492)">
            <path id="Trazado_989100" data-name="Trazado 989100" d="M2449.041,1372.456a.264.264,0,0,1-.042,0,.352.352,0,0,1-.308-.39c.041-.345,4.091-34.728,3.886-56.091-.211-22.409,10.816-24.868,11.286-24.961a.349.349,0,0,1,.413.275.352.352,0,0,1-.275.414c-.109.022-10.926,2.488-10.722,24.265.206,21.409-3.85,55.835-3.891,56.18A.354.354,0,0,1,2449.041,1372.456Z" transform="translate(-2448.688 -1291.003)" fill="#360b1e"/>
          </g>
          <path id="Trazado_989101" data-name="Trazado 989101" d="M2500.368,1240.31s4.339,13.49-1.514,14.523c-3.1.548-13.659.4-13.887-6.285S2490,1235.174,2500.368,1240.31Z" transform="translate(-2373.899 -1113.895)" fill="#360b1e" fill-rule="evenodd"/>
          <path id="Trazado_989102" data-name="Trazado 989102" d="M2466.27,1313.08s3.5,3.053,6.857,3.081a14.384,14.384,0,0,0,6.763-2.175s-4.911.639-7.167.678S2466.27,1313.08,2466.27,1313.08Z" transform="translate(-2368.341 -1136.077)" fill="#f15d85" fill-rule="evenodd"/>
          <g id="Grupo_1153594" data-name="Grupo 1153594" transform="translate(146.301)">
            <path id="Trazado_989103" data-name="Trazado 989103" d="M2590.239,1084.557a.352.352,0,0,1-.352-.351v-20.443a1.9,1.9,0,0,0-1.9-1.9h-50.273a1.9,1.9,0,0,0-1.9,1.9v10.462a.352.352,0,0,1-.7,0v-10.462a2.6,2.6,0,0,1,2.6-2.6h50.273a2.606,2.606,0,0,1,2.6,2.6v20.443A.352.352,0,0,1,2590.239,1084.557Z" transform="translate(-2535.115 -1061.16)" fill="#360b1e"/>
          </g>
          <g id="Grupo_1153601" data-name="Grupo 1153601" transform="translate(106.768 122.919)">
            <path id="Trazado_989104" data-name="Trazado 989104" d="M2504.186,1239.969s3.829-.147,3.9,3.229-.611,9.32-2.262,8.667-.794-6.823-1.311-7.926S2504.186,1239.969,2504.186,1239.969Z" transform="translate(-2486.374 -1237.253)" fill="#ffbfbe" fill-rule="evenodd"/>
            <g id="Grupo_1153595" data-name="Grupo 1153595" transform="translate(17.032 2.442)">
              <path id="Trazado_989105" data-name="Trazado 989105" d="M2506.47,1251.44a.174.174,0,0,1-.156-.093.176.176,0,0,1,.073-.238c1.034-.548,1.439-5.7,1.146-8.649-.254-2.6-4.217-2.53-4.264-2.53h0a.176.176,0,0,1,0-.351c.04,0,4.336-.076,4.623,2.846.276,2.775-.021,8.3-1.332,8.994A.177.177,0,0,1,2506.47,1251.44Z" transform="translate(-2503.09 -1239.579)" fill="#360b1e"/>
            </g>
            <path id="Trazado_989106" data-name="Trazado 989106" d="M2505.4,1256.031s-.172-3.031,1.068-3.2,1.205,2.859.688,3.446S2505.326,1256.649,2505.4,1256.031Z" transform="translate(-2486.742 -1241.075)" fill="#f15d85" fill-rule="evenodd"/>
            <path id="Trazado_989107" data-name="Trazado 989107" d="M2492.487,1236.43a19.369,19.369,0,0,0,3.14,1.56,19.486,19.486,0,0,1,3.25.878c.766.376,3.341,2.182,3.362,2.775s-5.132,1.676-6.91,1.279-5.589-.32-6.995-1.441S2492.487,1236.43,2492.487,1236.43Z" transform="translate(-2481.602 -1236.201)" fill="#ffbfbe" fill-rule="evenodd"/>
            <path id="Trazado_989108" data-name="Trazado 989108" d="M2500.8,1238.968s.861,1.391.685,5.161c-.154,3.3-.667,9.468-2.357,9.995s-2.969-1.244-2.786-3.671.889-4.321.66-6-.091-5.456.882-6.141S2499.777,1237.95,2500.8,1238.968Z" transform="translate(-2484.045 -1236.652)" fill="#ffbfbe" fill-rule="evenodd"/>
            <path id="Trazado_989109" data-name="Trazado 989109" d="M2492.306,1236.331s1.7.914,1.819,2.231-.916,3.148-.889,4.325.215,6.088.186,6.977.1,3.018-.586,4.135a1.778,1.778,0,0,1-3.292-.688c-.488-2.09-.344-6.1-.4-7.332s-.577-5.059-.088-6.317S2490.416,1235.931,2492.306,1236.331Z" transform="translate(-2481.822 -1236.159)" fill="#ffbfbe" fill-rule="evenodd"/>
            <path id="Trazado_989110" data-name="Trazado 989110" d="M2482.18,1249.49s-3.713,2.283-3.3,4.535c.232,1.251,2.5,2.312,3.573,1.518s2.891-2.368,2.677-3.316S2482.18,1249.49,2482.18,1249.49Z" transform="translate(-2478.849 -1240.085)" fill="#f15d85" fill-rule="evenodd"/>
            <path id="Trazado_989111" data-name="Trazado 989111" d="M2489.229,1237.91s-3.65.112-4.205.945-2.59,3.65-2.645,4.764.973,8.994,1.949,9.412a2.053,2.053,0,0,0,2.979-1.5c.222-1.757-.893-3.675-.948-4.929a13.514,13.514,0,0,1,.225-2.7l1.922-1.753Z" transform="translate(-2479.898 -1236.641)" fill="#ffbfbe" fill-rule="evenodd"/>
            <path id="Trazado_989112" data-name="Trazado 989112" d="M2487.788,1257.9a24.436,24.436,0,0,0-.833-2.7,1.064,1.064,0,0,0-1.96.615,7.614,7.614,0,0,0,.654,2.617C2485.737,1258.695,2487.71,1258.512,2487.788,1257.9Z" transform="translate(-2480.676 -1241.638)" fill="#f15d85" fill-rule="evenodd"/>
            <g id="Grupo_1153596" data-name="Grupo 1153596" transform="translate(6.802 5.017)">
              <path id="Trazado_989113" data-name="Trazado 989113" d="M2489.6,1256.289a.174.174,0,0,1-.143-.073c-.671-.942-.616-3.474-.572-5.509.006-.272.012-.535.015-.783.027-2.053-.371-6.443-.375-6.487a.175.175,0,0,1,.16-.19.167.167,0,0,1,.191.159c0,.044.4,4.453.376,6.524,0,.25-.01.513-.015.786-.042,1.878-.1,4.45.507,5.3a.176.176,0,0,1-.042.245A.16.16,0,0,1,2489.6,1256.289Z" transform="translate(-2488.53 -1243.244)" fill="#360b1e"/>
            </g>
            <g id="Grupo_1153597" data-name="Grupo 1153597" transform="translate(12.763 0.959)">
              <path id="Trazado_989114" data-name="Trazado 989114" d="M2499.449,1253.981a.176.176,0,0,1,0-.351c.42,0,1.48-2.78,1.658-4.65.054-.556.133-1.025.215-1.523a20.2,20.2,0,0,0,.327-4.058,11.615,11.615,0,0,0-.625-4.491,2.117,2.117,0,0,0-1.681-1.085c-.765.052-1.451.914-1.987,2.489a.171.171,0,0,1-.221.11.175.175,0,0,1-.11-.222c.592-1.746,1.364-2.664,2.295-2.728a2.486,2.486,0,0,1,2.02,1.279,11.876,11.876,0,0,1,.661,4.643,20.477,20.477,0,0,1-.331,4.12c-.082.491-.159.955-.211,1.5C2501.326,1250.454,2500.321,1253.981,2499.449,1253.981Z" transform="translate(-2497.015 -1237.469)" fill="#360b1e"/>
            </g>
            <path id="Trazado_989115" data-name="Trazado 989115" d="M2499.384,1259.6s.829-2.969-.428-3.6-2.383,2.593-2.273,3.141S2499.264,1260.348,2499.384,1259.6Z" transform="translate(-2484.151 -1241.998)" fill="#f15d85" fill-rule="evenodd"/>
            <g id="Grupo_1153598" data-name="Grupo 1153598" transform="translate(7.326)">
              <path id="Trazado_989116" data-name="Trazado 989116" d="M2492.925,1254.053a.176.176,0,0,1-.088-.328c.872-.5.673-3.377.527-5.474-.057-.835-.112-1.625-.1-2.227.019-2.086-.18-8.405-.2-9.179a1.692,1.692,0,0,0-1.337-.362c-.781.158-1.491.944-2.106,2.338a.177.177,0,0,1-.232.09.175.175,0,0,1-.09-.231c.666-1.508,1.46-2.362,2.363-2.542a2.05,2.05,0,0,1,1.7.5.175.175,0,0,1,.054.122c0,.07.228,7.051.207,9.271-.006.589.048,1.371.105,2.2.168,2.432.36,5.188-.7,5.8A.155.155,0,0,1,2492.925,1254.053Z" transform="translate(-2489.276 -1236.104)" fill="#360b1e"/>
            </g>
            <path id="Trazado_989117" data-name="Trazado 989117" d="M2493.434,1260.382s.077-2.786-.8-3.418a1.262,1.262,0,0,0-1.967,1.033,8.11,8.11,0,0,0,.208,2.772C2491.045,1261.211,2493.378,1261.176,2493.434,1260.382Z" transform="translate(-2482.354 -1242.236)" fill="#f15d85" fill-rule="evenodd"/>
            <g id="Grupo_1153599" data-name="Grupo 1153599" transform="translate(6.278 6.805)">
              <path id="Trazado_989118" data-name="Trazado 989118" d="M2488.828,1253.244h-.014a.175.175,0,0,1-.161-.189,7.433,7.433,0,0,0-.487-2.1,10.171,10.171,0,0,1-.347-1.237,24.1,24.1,0,0,1,.125-3.4.181.181,0,0,1,.065-.121l.454-.362a.176.176,0,1,1,.22.274l-.4.316a23.216,23.216,0,0,0-.121,3.241,10.076,10.076,0,0,0,.336,1.185,7.468,7.468,0,0,1,.5,2.239A.172.172,0,0,1,2488.828,1253.244Z" transform="translate(-2487.785 -1245.789)" fill="#360b1e"/>
            </g>
            <g id="Grupo_1153600" data-name="Grupo 1153600" transform="translate(2.249 1.063)">
              <path id="Trazado_989119" data-name="Trazado 989119" d="M2484.566,1253.231h-.011c-1.662-.1-2.378-8.274-2.5-9.91a.17.17,0,0,1,.013-.081c.066-.161,1.642-3.952,2.866-4.838a5.426,5.426,0,0,1,3.136-.778.175.175,0,0,1-.012.351h-.012a5.2,5.2,0,0,0-2.906.713c-1.082.783-2.562,4.245-2.731,4.649.287,3.674,1.126,9.48,2.172,9.544a.177.177,0,0,1,.165.187A.174.174,0,0,1,2484.566,1253.231Z" transform="translate(-2482.05 -1237.616)" fill="#360b1e"/>
            </g>
          </g>
          <g id="Grupo_1153602" data-name="Grupo 1153602" transform="translate(184.074 30.627)">
            <path id="Trazado_989120" data-name="Trazado 989120" d="M2603.971,1111.354h-14.744a.351.351,0,0,1,0-.7h14.744a1.9,1.9,0,0,0,1.9-1.9V1105.1a.351.351,0,0,1,.7,0v3.654A2.6,2.6,0,0,1,2603.971,1111.354Z" transform="translate(-2588.875 -1104.75)" fill="#360b1e"/>
          </g>
          <g id="Grupo_1153605" data-name="Grupo 1153605" transform="translate(151.237 12.984)">
            <path id="Trazado_989123" data-name="Trazado 989123" d="M2545.732,1083.62h-.4a.163.163,0,0,1-.112-.035.2.2,0,0,1-.063-.088l-.358-.924h-1.719l-.358.924a.182.182,0,0,1-.063.088.163.163,0,0,1-.113.035h-.4l1.532-3.825h.526Zm-2.508-1.419h1.43l-.6-1.556a3.52,3.52,0,0,1-.116-.362c-.018.074-.039.141-.056.2a1.084,1.084,0,0,1-.057.162Z" transform="translate(-2542.141 -1079.686)" fill="#360b1e" fill-rule="evenodd"/>
            <path id="Trazado_989124" data-name="Trazado 989124" d="M2549.6,1081.858a.184.184,0,0,1-.042.046.106.106,0,0,1-.063.014.15.15,0,0,1-.084-.032c-.032-.021-.073-.046-.12-.074a.91.91,0,0,0-.176-.074.867.867,0,0,0-.253-.032.781.781,0,0,0-.348.07.661.661,0,0,0-.256.2.9.9,0,0,0-.155.323,1.59,1.59,0,0,0-.053.425,1.5,1.5,0,0,0,.057.435.964.964,0,0,0,.158.319.674.674,0,0,0,.246.2.768.768,0,0,0,.327.066.843.843,0,0,0,.288-.042.833.833,0,0,0,.186-.091c.049-.035.091-.063.123-.092a.145.145,0,0,1,.094-.042.1.1,0,0,1,.092.046l.134.172a1.016,1.016,0,0,1-.439.316,1.589,1.589,0,0,1-.558.1,1.163,1.163,0,0,1-.471-.095,1.01,1.01,0,0,1-.38-.271,1.363,1.363,0,0,1-.253-.435,1.922,1.922,0,0,1-.007-1.149,1.241,1.241,0,0,1,.246-.443,1.061,1.061,0,0,1,.4-.288,1.348,1.348,0,0,1,.548-.105,1.3,1.3,0,0,1,.5.091,1.219,1.219,0,0,1,.389.26Z" transform="translate(-2543.752 -1080.144)" fill="#360b1e" fill-rule="evenodd"/>
            <path id="Trazado_989125" data-name="Trazado 989125" d="M2553.147,1081.858a.16.16,0,0,1-.042.046.1.1,0,0,1-.063.014.163.163,0,0,1-.084-.032c-.031-.021-.07-.046-.119-.074a.839.839,0,0,0-.175-.074.863.863,0,0,0-.253-.032.787.787,0,0,0-.348.07.687.687,0,0,0-.257.2.94.94,0,0,0-.154.323,1.56,1.56,0,0,0-.053.425,1.483,1.483,0,0,0,.057.435.964.964,0,0,0,.158.319.675.675,0,0,0,.246.2.771.771,0,0,0,.327.066.81.81,0,0,0,.474-.133c.049-.035.091-.063.123-.092a.143.143,0,0,1,.095-.042.093.093,0,0,1,.091.046l.134.172a1.021,1.021,0,0,1-.438.316,1.568,1.568,0,0,1-.559.1,1.163,1.163,0,0,1-.471-.095,1,1,0,0,1-.379-.271,1.345,1.345,0,0,1-.253-.435,1.914,1.914,0,0,1-.007-1.149,1.238,1.238,0,0,1,.246-.443,1.08,1.08,0,0,1,.4-.288,1.444,1.444,0,0,1,1.047-.014,1.242,1.242,0,0,1,.387.26Z" transform="translate(-2544.807 -1080.144)" fill="#360b1e" fill-rule="evenodd"/>
            <path id="Trazado_989126" data-name="Trazado 989126" d="M2555.925,1081.33a1.231,1.231,0,0,1,.446.081,1.08,1.08,0,0,1,.359.236,1.094,1.094,0,0,1,.231.38,1.449,1.449,0,0,1,.084.513.289.289,0,0,1-.025.151.1.1,0,0,1-.092.039h-1.8a1.487,1.487,0,0,0,.07.446.9.9,0,0,0,.176.316.683.683,0,0,0,.266.19.9.9,0,0,0,.348.06,1.024,1.024,0,0,0,.309-.039,1.632,1.632,0,0,0,.221-.091,1.145,1.145,0,0,0,.155-.088.215.215,0,0,1,.11-.042.1.1,0,0,1,.091.045l.134.172a.893.893,0,0,1-.211.186,1.31,1.31,0,0,1-.263.13,1.581,1.581,0,0,1-.288.077,1.732,1.732,0,0,1-.3.025,1.379,1.379,0,0,1-.517-.095,1.12,1.12,0,0,1-.407-.278,1.318,1.318,0,0,1-.271-.453,1.88,1.88,0,0,1-.094-.618,1.557,1.557,0,0,1,.088-.53,1.181,1.181,0,0,1,.647-.71A1.348,1.348,0,0,1,2555.925,1081.33Zm.007.351a.729.729,0,0,0-.544.2.968.968,0,0,0-.246.552h1.472a.937.937,0,0,0-.045-.3.638.638,0,0,0-.134-.239.6.6,0,0,0-.214-.155A.8.8,0,0,0,2555.932,1081.681Z" transform="translate(-2545.863 -1080.142)" fill="#360b1e" fill-rule="evenodd"/>
            <path id="Trazado_989127" data-name="Trazado 989127" d="M2560.37,1081.823a.11.11,0,0,1-.1.06.167.167,0,0,1-.088-.032l-.126-.063a1.077,1.077,0,0,0-.176-.067.8.8,0,0,0-.239-.032.7.7,0,0,0-.218.032.547.547,0,0,0-.162.084.379.379,0,0,0-.105.123.331.331,0,0,0-.035.155.24.24,0,0,0,.06.172.478.478,0,0,0,.158.12,1.23,1.23,0,0,0,.226.091c.084.025.168.053.256.081s.176.063.26.1a.952.952,0,0,1,.225.134.659.659,0,0,1,.158.2.623.623,0,0,1,.06.281.852.852,0,0,1-.067.344.793.793,0,0,1-.2.274.925.925,0,0,1-.323.183,1.275,1.275,0,0,1-.435.067,1.326,1.326,0,0,1-.514-.091,1.256,1.256,0,0,1-.39-.235l.113-.183a.229.229,0,0,1,.049-.053.13.13,0,0,1,.078-.018.179.179,0,0,1,.1.036c.035.024.081.052.13.084a.918.918,0,0,0,.183.081.777.777,0,0,0,.273.039.733.733,0,0,0,.243-.035.484.484,0,0,0,.172-.1.4.4,0,0,0,.1-.141.412.412,0,0,0,.035-.172.3.3,0,0,0-.059-.186.52.52,0,0,0-.159-.123,1.253,1.253,0,0,0-.228-.091c-.084-.028-.168-.053-.256-.081s-.176-.063-.26-.1a1,1,0,0,1-.225-.137.634.634,0,0,1-.162-.207.719.719,0,0,1,.007-.59.724.724,0,0,1,.187-.253.927.927,0,0,1,.3-.172,1.211,1.211,0,0,1,.408-.063,1.275,1.275,0,0,1,.478.084,1.1,1.1,0,0,1,.369.232Z" transform="translate(-2547.034 -1080.144)" fill="#360b1e" fill-rule="evenodd"/>
            <path id="Trazado_989128" data-name="Trazado 989128" d="M2563.669,1081.823a.115.115,0,0,1-.1.06.167.167,0,0,1-.087-.032l-.126-.063a1.084,1.084,0,0,0-.176-.067.8.8,0,0,0-.239-.032.7.7,0,0,0-.218.032.537.537,0,0,0-.162.084.379.379,0,0,0-.105.123.331.331,0,0,0-.035.155.241.241,0,0,0,.06.172.473.473,0,0,0,.158.12,1.205,1.205,0,0,0,.225.091c.084.025.169.053.256.081s.176.063.261.1a1.03,1.03,0,0,1,.225.134.664.664,0,0,1,.158.2.63.63,0,0,1,.059.281.856.856,0,0,1-.067.344.783.783,0,0,1-.2.274.926.926,0,0,1-.323.183,1.276,1.276,0,0,1-.436.067,1.322,1.322,0,0,1-.513-.091,1.252,1.252,0,0,1-.39-.235l.112-.183a.168.168,0,0,1,.049-.053.13.13,0,0,1,.077-.018.178.178,0,0,1,.1.036c.035.024.078.052.13.084a.92.92,0,0,0,.183.081.779.779,0,0,0,.274.039.728.728,0,0,0,.242-.035.512.512,0,0,0,.172-.1.391.391,0,0,0,.1-.141.409.409,0,0,0,.035-.172.293.293,0,0,0-.06-.186.505.505,0,0,0-.158-.123,1.27,1.27,0,0,0-.229-.091c-.084-.028-.168-.053-.256-.081s-.176-.063-.26-.1a1.007,1.007,0,0,1-.225-.137.631.631,0,0,1-.162-.207.677.677,0,0,1-.06-.3.713.713,0,0,1,.063-.3.764.764,0,0,1,.19-.253.931.931,0,0,1,.3-.172,1.208,1.208,0,0,1,.407-.063,1.28,1.28,0,0,1,.479.084,1.108,1.108,0,0,1,.368.232Z" transform="translate(-2548.015 -1080.144)" fill="#360b1e" fill-rule="evenodd"/>
            <path id="Trazado_989129" data-name="Trazado 989129" d="M2566.028,1080.886v2.705h-.475v-2.705Zm.1-.85a.26.26,0,0,1-.028.13.336.336,0,0,1-.074.109.491.491,0,0,1-.109.074.32.32,0,0,1-.13.025.329.329,0,0,1-.13-.025.56.56,0,0,1-.105-.074.31.31,0,0,1-.074-.109.307.307,0,0,1-.029-.13.326.326,0,0,1,.029-.13.283.283,0,0,1,.074-.109.35.35,0,0,1,.105-.074.332.332,0,0,1,.13-.028.322.322,0,0,1,.13.028.328.328,0,0,1,.109.074.3.3,0,0,1,.074.109A.3.3,0,0,1,2566.133,1080.036Z" transform="translate(-2549.074 -1079.656)" fill="#360b1e" fill-rule="evenodd"/>
            <path id="Trazado_989130" data-name="Trazado 989130" d="M2567.48,1083.575v-3.935h.478v1.62a1.364,1.364,0,0,1,.386-.313,1.016,1.016,0,0,1,.5-.12.973.973,0,0,1,.425.088.859.859,0,0,1,.323.264,1.24,1.24,0,0,1,.2.432,2.184,2.184,0,0,1,.073.593,1.922,1.922,0,0,1-.08.559,1.326,1.326,0,0,1-.232.446,1.063,1.063,0,0,1-.857.4.926.926,0,0,1-.447-.1.976.976,0,0,1-.316-.285l-.025.246a.113.113,0,0,1-.123.1h-.31Zm1.209-2.368a.779.779,0,0,0-.408.105,1.243,1.243,0,0,0-.323.3v1.311a.762.762,0,0,0,.285.246.811.811,0,0,0,.351.074.676.676,0,0,0,.579-.271,1.242,1.242,0,0,0,.2-.769,1.9,1.9,0,0,0-.045-.453.9.9,0,0,0-.137-.313.517.517,0,0,0-.214-.175A.736.736,0,0,0,2568.689,1081.207Z" transform="translate(-2549.675 -1079.64)" fill="#360b1e" fill-rule="evenodd"/>
            <path id="Trazado_989131" data-name="Trazado 989131" d="M2572.259,1079.64v3.935h-.474v-3.935Z" transform="translate(-2550.956 -1079.64)" fill="#360b1e" fill-rule="evenodd"/>
            <path id="Trazado_989132" data-name="Trazado 989132" d="M2574.645,1081.33a1.253,1.253,0,0,1,.45.081,1.059,1.059,0,0,1,.354.236,1.07,1.07,0,0,1,.232.38,1.454,1.454,0,0,1,.085.513.3.3,0,0,1-.025.151.1.1,0,0,1-.088.039h-1.8a1.535,1.535,0,0,0,.07.446.912.912,0,0,0,.176.316.72.72,0,0,0,.268.19.894.894,0,0,0,.347.06,1.029,1.029,0,0,0,.31-.039,1.72,1.72,0,0,0,.221-.091,1.578,1.578,0,0,0,.158-.088.2.2,0,0,1,.105-.042.1.1,0,0,1,.091.045l.134.172a.772.772,0,0,1-.211.186,1.3,1.3,0,0,1-.263.13,1.573,1.573,0,0,1-.288.077,1.682,1.682,0,0,1-.3.025,1.38,1.38,0,0,1-.519-.095,1.15,1.15,0,0,1-.408-.278,1.252,1.252,0,0,1-.267-.453,1.775,1.775,0,0,1-.1-.618,1.632,1.632,0,0,1,.088-.53,1.2,1.2,0,0,1,.249-.425,1.214,1.214,0,0,1,.4-.285A1.349,1.349,0,0,1,2574.645,1081.33Zm.014.351a.721.721,0,0,0-.541.2.928.928,0,0,0-.246.552h1.472a1.009,1.009,0,0,0-.046-.3.747.747,0,0,0-.133-.239.616.616,0,0,0-.218-.155A.828.828,0,0,0,2574.658,1081.681Z" transform="translate(-2551.43 -1080.142)" fill="#360b1e" fill-rule="evenodd"/>
            <path id="Trazado_989133" data-name="Trazado 989133" d="M2579.079,1083.6v-2.3l-.3-.035a.313.313,0,0,1-.1-.042.1.1,0,0,1-.034-.081v-.2h.428v-.26a1.248,1.248,0,0,1,.063-.415.808.808,0,0,1,.189-.3.75.75,0,0,1,.292-.19,1.084,1.084,0,0,1,.382-.063,1.031,1.031,0,0,1,.337.053l-.01.239a.06.06,0,0,1-.046.063.545.545,0,0,1-.12.01h-.084a.731.731,0,0,0-.222.032.391.391,0,0,0-.172.105.449.449,0,0,0-.112.19.981.981,0,0,0-.039.292v.246h.783v.344h-.766v2.308h-.478Z" transform="translate(-2552.998 -1079.662)" fill="#360b1e" fill-rule="evenodd"/>
            <path id="Trazado_989134" data-name="Trazado 989134" d="M2582.683,1081.33a1.365,1.365,0,0,1,.537.1,1.1,1.1,0,0,1,.4.281,1.2,1.2,0,0,1,.256.439,1.858,1.858,0,0,1,0,1.152,1.232,1.232,0,0,1-.256.439,1.1,1.1,0,0,1-.4.278,1.51,1.51,0,0,1-1.072,0,1.136,1.136,0,0,1-.407-.278,1.313,1.313,0,0,1-.26-.439,1.872,1.872,0,0,1,0-1.152,1.279,1.279,0,0,1,.26-.439,1.137,1.137,0,0,1,.407-.281A1.417,1.417,0,0,1,2582.683,1081.33Zm0,2.417a.7.7,0,0,0,.6-.267,1.255,1.255,0,0,0,.2-.748,1.271,1.271,0,0,0-.2-.755.7.7,0,0,0-.6-.271.833.833,0,0,0-.351.07.658.658,0,0,0-.25.2.948.948,0,0,0-.151.323,1.893,1.893,0,0,0,0,.861.932.932,0,0,0,.151.32.683.683,0,0,0,.25.2A.786.786,0,0,0,2582.683,1083.747Z" transform="translate(-2553.813 -1080.142)" fill="#360b1e" fill-rule="evenodd"/>
            <path id="Trazado_989135" data-name="Trazado 989135" d="M2585.9,1084.074v-2.705h.274a.158.158,0,0,1,.105.028.187.187,0,0,1,.042.1l.031.422a1.257,1.257,0,0,1,.341-.439.784.784,0,0,1,.685-.134.591.591,0,0,1,.169.07l-.063.355a.08.08,0,0,1-.084.067.52.52,0,0,1-.113-.025.692.692,0,0,0-.218-.028.6.6,0,0,0-.414.148,1.09,1.09,0,0,0-.281.418v1.721h-.474Z" transform="translate(-2555.153 -1080.139)" fill="#360b1e" fill-rule="evenodd"/>
            <path id="Trazado_989136" data-name="Trazado 989136" d="M2591.137,1083.766a.642.642,0,0,1-.491-.179.7.7,0,0,1-.173-.513v-1.658h-.327a.111.111,0,0,1-.074-.024.106.106,0,0,1-.028-.078v-.19l.442-.056.11-.836a.1.1,0,0,1,.108-.091h.243v.931h.773v.344h-.773v1.627a.357.357,0,0,0,.081.253.285.285,0,0,0,.214.081.368.368,0,0,0,.13-.017.4.4,0,0,0,.1-.046c.028-.014.049-.031.07-.042a.086.086,0,0,1,.05-.021c.025,0,.045.014.066.046l.137.225a.889.889,0,0,1-.295.183A1.066,1.066,0,0,1,2591.137,1083.766Z" transform="translate(-2556.386 -1079.789)" fill="#360b1e" fill-rule="evenodd"/>
            <path id="Trazado_989137" data-name="Trazado 989137" d="M2593.27,1083.575v-3.935h.474v1.591a1.626,1.626,0,0,1,.383-.3,1.045,1.045,0,0,1,.489-.109.958.958,0,0,1,.389.074.8.8,0,0,1,.285.207.977.977,0,0,1,.172.327,1.409,1.409,0,0,1,.06.418v1.721h-.478v-1.721a.725.725,0,0,0-.14-.478.522.522,0,0,0-.429-.169.811.811,0,0,0-.394.1,1.234,1.234,0,0,0-.337.274v1.992h-.474Z" transform="translate(-2557.345 -1079.64)" fill="#360b1e" fill-rule="evenodd"/>
            <path id="Trazado_989138" data-name="Trazado 989138" d="M2598.485,1081.33a1.249,1.249,0,0,1,.449.081,1.062,1.062,0,0,1,.355.236,1.081,1.081,0,0,1,.232.38,1.472,1.472,0,0,1,.084.513.291.291,0,0,1-.025.151.1.1,0,0,1-.088.039h-1.8a1.5,1.5,0,0,0,.07.446.92.92,0,0,0,.176.316.721.721,0,0,0,.267.19.9.9,0,0,0,.348.06,1.022,1.022,0,0,0,.309-.039,1.714,1.714,0,0,0,.222-.091,1.642,1.642,0,0,0,.158-.088.2.2,0,0,1,.108-.042.1.1,0,0,1,.088.045l.134.172a.78.78,0,0,1-.211.186,1.3,1.3,0,0,1-.264.13,1.565,1.565,0,0,1-.288.077,1.691,1.691,0,0,1-.3.025,1.383,1.383,0,0,1-.52-.095,1.149,1.149,0,0,1-.408-.278,1.252,1.252,0,0,1-.267-.453,1.78,1.78,0,0,1-.1-.618,1.651,1.651,0,0,1,.087-.53,1.181,1.181,0,0,1,.647-.71A1.347,1.347,0,0,1,2598.485,1081.33Zm.007.351a.721.721,0,0,0-.541.2.929.929,0,0,0-.246.552h1.472a1.033,1.033,0,0,0-.045-.3.744.744,0,0,0-.134-.239.619.619,0,0,0-.218-.155A.791.791,0,0,0,2598.492,1081.681Z" transform="translate(-2558.52 -1080.142)" fill="#360b1e" fill-rule="evenodd"/>
            <path id="Trazado_989139" data-name="Trazado 989139" d="M2542.14,1088.92h.416a.176.176,0,0,1,.108.035.2.2,0,0,1,.066.088l1.083,2.7c.024.06.045.127.067.2s.042.148.059.221l.053-.221a1.049,1.049,0,0,1,.067-.2l1.075-2.7a.3.3,0,0,1,.063-.084.174.174,0,0,1,.113-.039h.418l-1.559,3.829h-.468Z" transform="translate(-2542.14 -1082.4)" fill="#360b1e" fill-rule="evenodd"/>
            <path id="Trazado_989140" data-name="Trazado 989140" d="M2548.339,1090.016v2.705h-.474v-2.705Zm.112-.85a.325.325,0,0,1-.028.13.494.494,0,0,1-.077.105.339.339,0,0,1-.109.073.321.321,0,0,1-.13.028.335.335,0,0,1-.13-.028.373.373,0,0,1-.105-.073.386.386,0,0,1-.074-.105.347.347,0,0,1-.028-.13.354.354,0,0,1,.028-.134.344.344,0,0,1,.074-.109.365.365,0,0,1,.105-.074.327.327,0,0,1,.13-.025.317.317,0,0,1,.13.025.336.336,0,0,1,.109.074.422.422,0,0,1,.077.109A.413.413,0,0,1,2548.451,1089.166Z" transform="translate(-2543.814 -1082.371)" fill="#360b1e" fill-rule="evenodd"/>
            <path id="Trazado_989141" data-name="Trazado 989141" d="M2551.229,1090.943a.105.105,0,0,1-.1.056.162.162,0,0,1-.091-.028c-.035-.017-.077-.042-.123-.067s-.109-.045-.176-.066a.959.959,0,0,0-.242-.028.783.783,0,0,0-.215.028.528.528,0,0,0-.165.084.407.407,0,0,0-.106.126.324.324,0,0,0-.035.155.261.261,0,0,0,.06.172.54.54,0,0,0,.158.12,1.479,1.479,0,0,0,.225.091c.084.025.172.053.26.081s.173.063.257.1a.938.938,0,0,1,.225.133.576.576,0,0,1,.158.2.6.6,0,0,1,.06.278.857.857,0,0,1-.067.348.72.72,0,0,1-.2.274.973.973,0,0,1-.32.182,1.291,1.291,0,0,1-.439.067,1.407,1.407,0,0,1-.513-.092,1.317,1.317,0,0,1-.389-.235l.112-.183a.144.144,0,0,1,.049-.052.134.134,0,0,1,.077-.021.175.175,0,0,1,.1.038c.035.025.081.053.13.084a1.126,1.126,0,0,0,.186.081.905.905,0,0,0,.513,0,.549.549,0,0,0,.172-.1.4.4,0,0,0,.105-.141.478.478,0,0,0,.032-.172.275.275,0,0,0-.06-.186.475.475,0,0,0-.158-.126,1.482,1.482,0,0,0-.225-.091c-.084-.025-.172-.053-.26-.081a2.333,2.333,0,0,1-.26-.1.88.88,0,0,1-.225-.137.576.576,0,0,1-.158-.2.634.634,0,0,1-.059-.3.75.75,0,0,1,.063-.3.711.711,0,0,1,.187-.249.872.872,0,0,1,.3-.172,1.227,1.227,0,0,1,.408-.063,1.309,1.309,0,0,1,.481.084,1.106,1.106,0,0,1,.365.228Z" transform="translate(-2544.315 -1082.856)" fill="#360b1e" fill-rule="evenodd"/>
            <path id="Trazado_989142" data-name="Trazado 989142" d="M2553.459,1090.52v1.725a.717.717,0,0,0,.14.474.533.533,0,0,0,.429.169.819.819,0,0,0,.393-.1,1.229,1.229,0,0,0,.337-.274v-2h.474v2.705h-.281a.122.122,0,0,1-.13-.1l-.035-.292a1.453,1.453,0,0,1-.4.312,1,1,0,0,1-.5.12.961.961,0,0,1-.39-.074.762.762,0,0,1-.284-.207.86.86,0,0,1-.172-.323,1.409,1.409,0,0,1-.056-.418v-1.725Z" transform="translate(-2545.365 -1082.876)" fill="#360b1e" fill-rule="evenodd"/>
            <path id="Trazado_989143" data-name="Trazado 989143" d="M2559.227,1093.2h-.211a.255.255,0,0,1-.112-.021.116.116,0,0,1-.056-.091l-.052-.249c-.074.063-.141.119-.211.172a1.3,1.3,0,0,1-.21.126,1.4,1.4,0,0,1-.24.081,1.43,1.43,0,0,1-.284.025.993.993,0,0,1-.3-.042.713.713,0,0,1-.239-.133.671.671,0,0,1-.162-.225.779.779,0,0,1-.06-.316.609.609,0,0,1,.089-.309.794.794,0,0,1,.284-.263,1.847,1.847,0,0,1,.517-.19,3.871,3.871,0,0,1,.776-.084v-.211a.707.707,0,0,0-.137-.474.481.481,0,0,0-.4-.161.863.863,0,0,0-.291.042,1.006,1.006,0,0,0-.208.1c-.057.039-.108.07-.151.1a.19.19,0,0,1-.123.046.143.143,0,0,1-.084-.025.194.194,0,0,1-.056-.063l-.088-.151a1.492,1.492,0,0,1,.485-.323,1.453,1.453,0,0,1,.576-.109,1.022,1.022,0,0,1,.4.074.834.834,0,0,1,.3.211.816.816,0,0,1,.179.323,1.3,1.3,0,0,1,.063.414Zm-1.229-.295a.944.944,0,0,0,.229-.025.915.915,0,0,0,.2-.074,1.091,1.091,0,0,0,.176-.112,1.661,1.661,0,0,0,.165-.151v-.566a3.935,3.935,0,0,0-.558.052,1.494,1.494,0,0,0-.372.109.515.515,0,0,0-.211.158.321.321,0,0,0-.067.2.487.487,0,0,0,.035.183.359.359,0,0,0,.094.126.428.428,0,0,0,.137.074A.664.664,0,0,0,2558,1092.909Z" transform="translate(-2546.587 -1082.855)" fill="#360b1e" fill-rule="evenodd"/>
            <path id="Trazado_989144" data-name="Trazado 989144" d="M2561.708,1088.77v3.935h-.478v-3.935Z" transform="translate(-2547.817 -1082.355)" fill="#360b1e" fill-rule="evenodd"/>
            <path id="Trazado_989145" data-name="Trazado 989145" d="M2563.66,1088.77v3.935h-.475v-3.935Z" transform="translate(-2548.399 -1082.355)" fill="#360b1e" fill-rule="evenodd"/>
            <path id="Trazado_989146" data-name="Trazado 989146" d="M2565.693,1094.018a.26.26,0,0,1-.063.088.154.154,0,0,1-.109.032h-.351l.492-1.075-1.118-2.547h.411a.141.141,0,0,1,.1.032.174.174,0,0,1,.05.067l.724,1.7a.866.866,0,0,1,.042.116c.01.042.021.081.032.123.01-.042.024-.081.035-.123s.028-.078.046-.12l.7-1.7a.153.153,0,0,1,.053-.07.135.135,0,0,1,.085-.028h.38Z" transform="translate(-2548.802 -1082.874)" fill="#360b1e" fill-rule="evenodd"/>
            <path id="Trazado_989147" data-name="Trazado 989147" d="M2571.17,1092.749h-.52v-3.829h.52Z" transform="translate(-2550.618 -1082.4)" fill="#360b1e" fill-rule="evenodd"/>
            <path id="Trazado_989148" data-name="Trazado 989148" d="M2572.75,1093.207V1090.5h.281a.123.123,0,0,1,.13.1l.034.278a1.37,1.37,0,0,1,.334-.3.8.8,0,0,1,.433-.116.631.631,0,0,1,.442.151.839.839,0,0,1,.247.411.878.878,0,0,1,.147-.253.9.9,0,0,1,.208-.176.8.8,0,0,1,.246-.1,1.071,1.071,0,0,1,.26-.032,1.009,1.009,0,0,1,.383.067.76.76,0,0,1,.281.2.885.885,0,0,1,.178.319,1.427,1.427,0,0,1,.06.439v1.721h-.475v-1.721a.746.746,0,0,0-.137-.485.5.5,0,0,0-.4-.162.672.672,0,0,0-.225.039.588.588,0,0,0-.187.123.571.571,0,0,0-.126.2.784.784,0,0,0-.046.285v1.721h-.474v-1.721a.764.764,0,0,0-.133-.488.462.462,0,0,0-.38-.158.59.59,0,0,0-.326.1,1.049,1.049,0,0,0-.278.256v2.016Z" transform="translate(-2551.243 -1082.858)" fill="#360b1e" fill-rule="evenodd"/>
            <path id="Trazado_989149" data-name="Trazado 989149" d="M2578.99,1094.116v-3.622h.285a.12.12,0,0,1,.126.1l.039.32a1.441,1.441,0,0,1,.4-.337,1,1,0,0,1,.517-.13.978.978,0,0,1,.421.091.892.892,0,0,1,.323.263,1.241,1.241,0,0,1,.2.432,2.191,2.191,0,0,1,.073.6,1.841,1.841,0,0,1-.081.555,1.337,1.337,0,0,1-.228.446,1.127,1.127,0,0,1-.369.3,1.11,1.11,0,0,1-.489.109.941.941,0,0,1-.744-.319v1.2Zm1.2-3.281a.771.771,0,0,0-.407.106,1.177,1.177,0,0,0-.324.3v1.307a.77.77,0,0,0,.288.249.81.81,0,0,0,.348.074.679.679,0,0,0,.58-.27,1.243,1.243,0,0,0,.2-.77,1.879,1.879,0,0,0-.046-.453.876.876,0,0,0-.137-.313.486.486,0,0,0-.214-.175A.639.639,0,0,0,2580.191,1090.835Z" transform="translate(-2553.098 -1082.853)" fill="#360b1e" fill-rule="evenodd"/>
            <path id="Trazado_989150" data-name="Trazado 989150" d="M2585.107,1093.2h-.21a.255.255,0,0,1-.113-.021.124.124,0,0,1-.056-.091l-.053-.249c-.07.063-.14.119-.207.172a1.467,1.467,0,0,1-.214.126,1.367,1.367,0,0,1-.239.081,1.409,1.409,0,0,1-.284.025,1.022,1.022,0,0,1-.3-.042.713.713,0,0,1-.239-.133.678.678,0,0,1-.162-.225.783.783,0,0,1-.059-.316.611.611,0,0,1,.088-.309.8.8,0,0,1,.284-.263,1.861,1.861,0,0,1,.516-.19,3.886,3.886,0,0,1,.777-.084v-.211a.729.729,0,0,0-.133-.474.493.493,0,0,0-.4-.161.865.865,0,0,0-.292.042,1.1,1.1,0,0,0-.208.1c-.056.039-.109.07-.151.1a.19.19,0,0,1-.123.046.143.143,0,0,1-.084-.025.188.188,0,0,1-.056-.063l-.084-.151a1.452,1.452,0,0,1,1.058-.432,1.023,1.023,0,0,1,.4.074.823.823,0,0,1,.478.534,1.3,1.3,0,0,1,.063.414Zm-1.229-.295a.928.928,0,0,0,.228-.025.862.862,0,0,0,.2-.074,1.056,1.056,0,0,0,.176-.112,1.661,1.661,0,0,0,.165-.151v-.566a3.95,3.95,0,0,0-.559.052,1.491,1.491,0,0,0-.372.109.523.523,0,0,0-.211.158.324.324,0,0,0-.066.2.487.487,0,0,0,.035.183.357.357,0,0,0,.1.126.428.428,0,0,0,.137.074A.7.7,0,0,0,2583.878,1092.909Z" transform="translate(-2554.284 -1082.855)" fill="#360b1e" fill-rule="evenodd"/>
            <path id="Trazado_989151" data-name="Trazado 989151" d="M2587.547,1090.016v2.705h-.478v-2.705Zm.106-.85a.288.288,0,0,1-.028.13.363.363,0,0,1-.074.105.349.349,0,0,1-.239.1.33.33,0,0,1-.235-.1.366.366,0,0,1-.074-.105.333.333,0,0,1-.028-.13.35.35,0,0,1,.028-.134.328.328,0,0,1,.074-.109.306.306,0,0,1,.235-.1.328.328,0,0,1,.131.025.334.334,0,0,1,.109.074.326.326,0,0,1,.074.109A.292.292,0,0,1,2587.653,1089.166Z" transform="translate(-2555.473 -1082.371)" fill="#360b1e" fill-rule="evenodd"/>
            <path id="Trazado_989152" data-name="Trazado 989152" d="M2588.99,1093.2V1090.5h.271a.152.152,0,0,1,.105.028.172.172,0,0,1,.042.1l.031.422a1.232,1.232,0,0,1,.345-.443.748.748,0,0,1,.478-.158.712.712,0,0,1,.372.095l-.063.358a.079.079,0,0,1-.081.067.439.439,0,0,1-.116-.028.834.834,0,0,0-.214-.025.624.624,0,0,0-.418.144,1.1,1.1,0,0,0-.277.422v1.721Z" transform="translate(-2556.073 -1082.855)" fill="#360b1e" fill-rule="evenodd"/>
            <path id="Trazado_989153" data-name="Trazado 989153" d="M2593.037,1090.46a1.169,1.169,0,0,1,.449.081.974.974,0,0,1,.356.235,1.1,1.1,0,0,1,.235.379,1.45,1.45,0,0,1,.084.513.347.347,0,0,1-.024.151.105.105,0,0,1-.092.035h-1.8a1.488,1.488,0,0,0,.07.446.91.91,0,0,0,.175.316.746.746,0,0,0,.267.19.919.919,0,0,0,.348.063,1.017,1.017,0,0,0,.309-.042,1.211,1.211,0,0,0,.225-.088c.06-.031.112-.063.155-.091a.226.226,0,0,1,.109-.039.1.1,0,0,1,.091.045l.134.172a1,1,0,0,1-.211.186,1.545,1.545,0,0,1-.263.13,1.647,1.647,0,0,1-.292.074,1.713,1.713,0,0,1-.3.028,1.376,1.376,0,0,1-.516-.1,1.171,1.171,0,0,1-.411-.277,1.321,1.321,0,0,1-.268-.453,1.881,1.881,0,0,1-.095-.622,1.6,1.6,0,0,1,.085-.527,1.286,1.286,0,0,1,.249-.429,1.142,1.142,0,0,1,.4-.281A1.21,1.21,0,0,1,2593.037,1090.46Zm.014.344a.726.726,0,0,0-.541.2.926.926,0,0,0-.245.552h1.471a.912.912,0,0,0-.046-.3.659.659,0,0,0-.133-.239.587.587,0,0,0-.214-.154A.785.785,0,0,0,2593.051,1090.8Z" transform="translate(-2556.901 -1082.858)" fill="#360b1e" fill-rule="evenodd"/>
            <path id="Trazado_989154" data-name="Trazado 989154" d="M2597.851,1092.7a.118.118,0,0,1-.126-.1l-.042-.33a1.528,1.528,0,0,1-.4.341,1.027,1.027,0,0,1-.513.126.972.972,0,0,1-.421-.091.863.863,0,0,1-.324-.263,1.3,1.3,0,0,1-.208-.432,2.333,2.333,0,0,1-.071-.594,1.786,1.786,0,0,1,.081-.559,1.366,1.366,0,0,1,.229-.446,1.068,1.068,0,0,1,.86-.408.983.983,0,0,1,.425.084,1,1,0,0,1,.313.235v-1.5h.478v3.934h-.285Zm-.92-.352a.772.772,0,0,0,.407-.105,1.179,1.179,0,0,0,.32-.3v-1.31a.741.741,0,0,0-.284-.246.867.867,0,0,0-.348-.07.672.672,0,0,0-.58.271,1.248,1.248,0,0,0-.2.769,1.863,1.863,0,0,0,.046.45.819.819,0,0,0,.134.313.486.486,0,0,0,.214.176A.674.674,0,0,0,2596.931,1092.353Z" transform="translate(-2558.082 -1082.355)" fill="#360b1e" fill-rule="evenodd"/>
          </g>
        </g>
      </g>
    </g>
  </g>
</svg>
