<svg xmlns="http://www.w3.org/2000/svg" xmlns:xlink="http://www.w3.org/1999/xlink" width="108" height="108" viewBox="0 0 108 108">
  <defs>
    <filter id="Trazado_982547" x="0" y="0" width="108" height="108" filterUnits="userSpaceOnUse">
      <feOffset dy="3" input="SourceAlpha"/>
      <feGaussianBlur stdDeviation="3" result="blur"/>
      <feFlood flood-opacity="0.161"/>
      <feComposite operator="in" in2="blur"/>
      <feComposite in="SourceGraphic"/>
    </filter>
  </defs>
  <g id="Grupo_1153959" data-name="Grupo 1153959" transform="translate(-171 -1560)">
    <g id="Grupo_1153955" data-name="Grupo 1153955" transform="translate(-83 1047)">
      <g id="Grupo_1149598" data-name="Grupo 1149598" transform="translate(80 315)">
        <g id="Grupo_1148770" data-name="Grupo 1148770" transform="translate(-27 -2583)">
          <g id="Grupo_1146954" data-name="Grupo 1146954" transform="translate(-415 -1202)">
            <g transform="matrix(1, 0, 0, 1, 616, 3983)" filter="url(#Trazado_982547)">
              <g id="Trazado_982547-2" data-name="Trazado 982547" transform="translate(9 6)" fill="#f4f8fc">
                <path d="M 45 88.5 C 39.12687683105469 88.5 33.43022537231445 87.35007476806641 28.06830024719238 85.08217620849609 C 22.88852500915527 82.89131164550781 18.23629951477051 79.75458526611328 14.2408504486084 75.75914764404297 C 10.24541282653809 71.76370239257812 7.108687400817871 67.11147308349609 4.917825222015381 61.93170166015625 C 2.649924993515015 56.56977462768555 1.5 50.87312316894531 1.5 45 C 1.5 39.12687683105469 2.649924993515015 33.43022537231445 4.917825222015381 28.06830024719238 C 7.108687400817871 22.88852500915527 10.24541282653809 18.23629951477051 14.2408504486084 14.2408504486084 C 18.23629951477051 10.24541282653809 22.88852500915527 7.108687400817871 28.06830024719238 4.917825222015381 C 33.43022537231445 2.649924993515015 39.12687683105469 1.5 45 1.5 C 50.87312316894531 1.5 56.56977462768555 2.649924993515015 61.93170166015625 4.917825222015381 C 67.11147308349609 7.108687400817871 71.76370239257812 10.24541282653809 75.75914764404297 14.2408504486084 C 79.75458526611328 18.23629951477051 82.89131164550781 22.88852500915527 85.08217620849609 28.06830024719238 C 87.35007476806641 33.43022537231445 88.5 39.12687683105469 88.5 45 C 88.5 50.87312316894531 87.35007476806641 56.56977462768555 85.08217620849609 61.93170166015625 C 82.89131164550781 67.11147308349609 79.75458526611328 71.76370239257812 75.75914764404297 75.75914764404297 C 71.76370239257812 79.75458526611328 67.11147308349609 82.89131164550781 61.93170166015625 85.08217620849609 C 56.56977462768555 87.35007476806641 50.87312316894531 88.5 45 88.5 Z" stroke="none"/>
                <path d="M 45 3 C 39.32871246337891 3 33.82865524291992 4.110054016113281 28.65262985229492 6.299339294433594 C 23.65165710449219 8.414573669433594 19.15968322753906 11.44334411621094 15.301513671875 15.301513671875 C 11.44334411621094 19.15968322753906 8.414573669433594 23.65165710449219 6.299339294433594 28.65262985229492 C 4.110054016113281 33.82865524291992 3 39.32871246337891 3 45 C 3 50.67128753662109 4.110054016113281 56.17134475708008 6.299339294433594 61.34737396240234 C 8.414573669433594 66.34834289550781 11.44334411621094 70.84031677246094 15.301513671875 74.698486328125 C 19.15968322753906 78.55665588378906 23.65165710449219 81.58542633056641 28.65262985229492 83.70066070556641 C 33.82865524291992 85.88994598388672 39.32871246337891 87 45 87 C 50.67128753662109 87 56.17134475708008 85.88994598388672 61.34737396240234 83.70066070556641 C 66.34834289550781 81.58542633056641 70.84031677246094 78.55665588378906 74.698486328125 74.698486328125 C 78.55665588378906 70.84031677246094 81.58542633056641 66.34834289550781 83.70066070556641 61.34737396240234 C 85.88994598388672 56.17134475708008 87 50.67128753662109 87 45 C 87 39.32871246337891 85.88994598388672 33.82865524291992 83.70066070556641 28.65262985229492 C 81.58542633056641 23.65165710449219 78.55665588378906 19.15968322753906 74.698486328125 15.301513671875 C 70.84031677246094 11.44334411621094 66.34834289550781 8.414573669433594 61.34737396240234 6.299339294433594 C 56.17134475708008 4.110054016113281 50.67128753662109 3 45 3 M 45 0 C 69.85281372070312 0 90 20.14718627929688 90 45 C 90 69.85281372070312 69.85281372070312 90 45 90 C 20.14718627929688 90 0 69.85281372070312 0 45 C 0 20.14718627929688 20.14718627929688 0 45 0 Z" stroke="none" fill="#97c2e6"/>
              </g>
            </g>
          </g>
        </g>
      </g>
    </g>
    <g id="participacion-de-la-comunidad" transform="translate(197 1583)">
      <g id="Grupo_1153956" data-name="Grupo 1153956" transform="translate(0.816 0.816)">
        <path id="Trazado_990261" data-name="Trazado 990261" d="M14.386,10.37a7.492,7.492,0,0,0-1.1-2.411,3.94,3.94,0,0,0-5.326,5.326c.551.293,1.611,1.648,2.279,1.648C12.413,14.933,14.386,12.546,14.386,10.37Z" transform="translate(-7.5 -7.5)" fill="#60b7ff"/>
        <path id="Trazado_990262" data-name="Trazado 990262" d="M432.115,11.439a3.921,3.921,0,0,0,.459,1.847c.551.293,1.77,1.325,2.437,1.325,2.175,0,3.894-2.365,3.894-4.54,0-.667-.712-1.561-1.005-2.112a3.94,3.94,0,0,0-5.785,3.479Z" transform="translate(-385.909 -7.5)" fill="#918291"/>
        <path id="Trazado_990263" data-name="Trazado 990263" d="M439.228,435.4a10.366,10.366,0,0,0-1.328-2.823,3.94,3.94,0,0,0-5.326,5.326c.551.293,1.424,1.184,2.092,1.184C436.84,439.084,439.228,437.572,439.228,435.4Z" transform="translate(-385.908 -385.909)" fill="#ffe177"/>
        <path id="Trazado_990264" data-name="Trazado 990264" d="M14.44,434.784c0-.668-.861-1.658-1.154-2.209A3.94,3.94,0,0,0,7.959,437.9c.551.293,1.3,1.122,1.964,1.122C12.1,439.024,14.44,436.959,14.44,434.784Z" transform="translate(-7.5 -385.91)" fill="#5de1c4"/>
        <path id="Trazado_990265" data-name="Trazado 990265" d="M271.531,24.487V26.2a3.245,3.245,0,0,0,2.583,3.165,20.158,20.158,0,0,1,4.119,1.361.272.272,0,0,1,.077.439L275.3,34.176a.543.543,0,0,0,.182.889,15.256,15.256,0,0,1,8.492,8.489.543.543,0,0,0,.888.182l3.011-3.01a.272.272,0,0,1,.439.077,20.131,20.131,0,0,1,1.361,4.119,3.245,3.245,0,0,0,3.165,2.583h.173c0-.162.979-.473.979-.636,0-6.455-3.388-12.2-7.361-16.674a25.246,25.246,0,0,0-14.5-6.251A.545.545,0,0,0,271.531,24.487Z" transform="translate(-242.799 -22.153)" fill="#918291"/>
        <path id="Trazado_990266" data-name="Trazado 990266" d="M292.737,271.551a3.247,3.247,0,0,0-3.049,2.58,20.158,20.158,0,0,1-1.361,4.119.272.272,0,0,1-.439.077l-3.011-3.011a.543.543,0,0,0-.888.182,15.257,15.257,0,0,1-8.489,8.492.543.543,0,0,0-.182.888l3.01,3.011a.272.272,0,0,1-.077.439,20.133,20.133,0,0,1-4.119,1.361,3.247,3.247,0,0,0-2.581,3.049C282,292.738,294.354,284.332,292.737,271.551Z" transform="translate(-242.816 -242.817)" fill="#ffe177"/>
        <path id="Trazado_990267" data-name="Trazado 990267" d="M44.921,289.669a20.155,20.155,0,0,1-4.119-1.361.272.272,0,0,1-.077-.439l3.011-3.011a.543.543,0,0,0-.182-.888,15.257,15.257,0,0,1-8.492-8.489.543.543,0,0,0-.888-.182l-3.011,3.01a.272.272,0,0,1-.439-.077,20.13,20.13,0,0,1-1.361-4.119,3.245,3.245,0,0,0-3.165-2.583H24.486a.545.545,0,0,0-.543.593,25.251,25.251,0,0,0,6.252,14.5c4.475,3.973,10.178,8.149,16.633,8.149.162,0,.514-1.765.675-1.768v-.173a3.245,3.245,0,0,0-2.583-3.165Z" transform="translate(-22.152 -242.797)" fill="#5de1c4"/>
        <path id="Trazado_990268" data-name="Trazado 990268" d="M44.922,29.364A20.128,20.128,0,0,0,40.8,30.725a.272.272,0,0,0-.077.439l3.01,3.011a.543.543,0,0,1-.182.888,15.257,15.257,0,0,0-8.489,8.492.543.543,0,0,1-.889.182l-3.011-3.011a.272.272,0,0,0-.439.077,20.151,20.151,0,0,0-1.361,4.119A3.245,3.245,0,0,1,26.2,47.5H24.487a.545.545,0,0,1-.543-.593A25.358,25.358,0,0,1,46.912,23.944a.545.545,0,0,1,.593.543V26.2a3.245,3.245,0,0,1-2.583,3.165Z" transform="translate(-22.153 -22.153)" fill="#60b7ff"/>
        <path id="Trazado_990269" data-name="Trazado 990269" d="M416.637,98.718h1.54a.545.545,0,0,0,.543-.593,25.3,25.3,0,0,0-8.464-16.716,25.253,25.253,0,0,1,6.386,16.823Q416.641,98.475,416.637,98.718Z" transform="translate(-366.427 -73.366)" fill="#7a6d79"/>
        <path id="Trazado_990270" data-name="Trazado 990270" d="M294.548,271.531h-1.713l-.116,0a25.367,25.367,0,0,1-21.187,21.187q0,.058,0,.116v1.712a.545.545,0,0,0,.593.543,25.358,25.358,0,0,0,22.968-22.968A.545.545,0,0,0,294.548,271.531Z" transform="translate(-242.799 -242.799)" fill="#ffc344"/>
        <path id="Trazado_990271" data-name="Trazado 990271" d="M81.412,410.258a25.293,25.293,0,0,0,16.716,8.464.545.545,0,0,0,.593-.543v-1.54q-.243,0-.486,0A25.253,25.253,0,0,1,81.412,410.258Z" transform="translate(-73.369 -366.43)" fill="#0ed2b3"/>
        <path id="Trazado_990272" data-name="Trazado 990272" d="M17.045,11.719a3.94,3.94,0,0,1-5.326,5.326,3.939,3.939,0,1,0,5.326-5.326Z" transform="translate(-11.26 -11.26)" fill="#26a6fe"/>
        <path id="Trazado_990273" data-name="Trazado 990273" d="M438.181,17.5a3.921,3.921,0,0,1-1.847-.459,3.939,3.939,0,1,0,5.326-5.326,3.94,3.94,0,0,1-3.479,5.785Z" transform="translate(-389.668 -11.26)" fill="#7a6d79"/>
        <path id="Trazado_990274" data-name="Trazado 990274" d="M441.66,436.334a3.94,3.94,0,0,1-5.326,5.326,3.939,3.939,0,1,0,5.326-5.326Z" transform="translate(-389.668 -389.668)" fill="#ffc344"/>
        <path id="Trazado_990275" data-name="Trazado 990275" d="M17.045,436.334a3.94,3.94,0,0,1-5.326,5.326,3.939,3.939,0,1,0,5.326-5.326Z" transform="translate(-11.26 -389.668)" fill="#0ed2b3"/>
        <path id="Trazado_990276" data-name="Trazado 990276" d="M171.965,193.113l.645-1.264c1.444-1.254,1.6-3.459,1.437-5.555-.117-1.545-1.574-2.5-2.617-3.531a6.2,6.2,0,0,0-1.853-.407,6.285,6.285,0,0,0-4.953,1.929.484.484,0,0,1-.7,0,6.319,6.319,0,0,0-1.724-1.274.484.484,0,0,1-.453-.14l-.1-.107a6.3,6.3,0,0,0-6.4,10.638h0l7.026,6.1a.952.952,0,0,0,.453-.218Z" transform="translate(-137.231 -163.317)" fill="#fd8087"/>
        <path id="Trazado_990277" data-name="Trazado 990277" d="M250.773,191.587a6.329,6.329,0,0,0-4.024-5.39,6.287,6.287,0,0,1-.3,9.225h0l-8.4,7.3a.951.951,0,0,1-.453.218l1.378,1.2a.955.955,0,0,0,1.252,0l8.4-7.3h0A6.289,6.289,0,0,0,250.773,191.587Z" transform="translate(-212.549 -166.751)" fill="#fe646f"/>
      </g>
      <g id="Grupo_1153958" data-name="Grupo 1153958">
        <g id="Grupo_1153957" data-name="Grupo 1153957">
          <path id="Trazado_990278" data-name="Trazado 990278" d="M16.447,40.155A1.361,1.361,0,0,0,17.8,41.636h1.713a4.087,4.087,0,0,0,3.963-3.228,19.388,19.388,0,0,1,.992-3.223l2.444,2.444a1.359,1.359,0,0,0,2.224-.456,14.467,14.467,0,0,1,8.034-8.036,1.359,1.359,0,0,0,.456-2.223L35.186,24.47a19.366,19.366,0,0,1,3.223-.992,4.087,4.087,0,0,0,3.228-3.963V17.8a1.361,1.361,0,0,0-1.481-1.356,25.992,25.992,0,0,0-8.234,2.127.816.816,0,0,0,.661,1.492A24.355,24.355,0,0,1,40,18.1v1.414a2.416,2.416,0,0,1-1.938,2.367A21,21,0,0,0,33.781,23.3a1.088,1.088,0,0,0-.317,1.759l2.721,2.722a16.117,16.117,0,0,0-8.4,8.408l-2.723-2.723a1.088,1.088,0,0,0-1.759.317,21.022,21.022,0,0,0-1.416,4.286A2.416,2.416,0,0,1,19.516,40H18.1A24.689,24.689,0,0,1,29.366,21.789a.816.816,0,1,0-.876-1.378A26.177,26.177,0,0,0,16.447,40.155Z" transform="translate(-14.653 -14.652)"/>
          <path id="Trazado_990279" data-name="Trazado 990279" d="M4.755,9.509A4.755,4.755,0,1,0,0,4.755,4.76,4.76,0,0,0,4.755,9.509Zm0-7.877A3.122,3.122,0,1,1,1.632,4.755,3.126,3.126,0,0,1,4.755,1.632Z"/>
          <path id="Trazado_990280" data-name="Trazado 990280" d="M267.259,23.481a19.37,19.37,0,0,1,3.223.992l-2.444,2.444a1.359,1.359,0,0,0,.456,2.224,14.468,14.468,0,0,1,8.036,8.034,1.359,1.359,0,0,0,2.223.456l2.443-2.443a19.359,19.359,0,0,1,.992,3.223,4.087,4.087,0,0,0,3.963,3.228h1.712a1.361,1.361,0,0,0,1.356-1.481,26.174,26.174,0,0,0-23.708-23.708,1.361,1.361,0,0,0-1.481,1.356v1.713a4.087,4.087,0,0,0,3.228,3.963Zm-1.6-5.378a24.482,24.482,0,0,1,21.9,21.9h-1.414a2.416,2.416,0,0,1-2.367-1.938,20.985,20.985,0,0,0-1.416-4.286,1.088,1.088,0,0,0-1.759-.317l-2.722,2.721a16.117,16.117,0,0,0-8.408-8.4L272.2,25.06a1.088,1.088,0,0,0-.317-1.759,21.009,21.009,0,0,0-4.286-1.416,2.416,2.416,0,0,1-1.938-2.367V18.1Z" transform="translate(-235.299 -14.655)"/>
          <path id="Trazado_990281" data-name="Trazado 990281" d="M429.37,9.509a4.755,4.755,0,1,0-4.755-4.755A4.76,4.76,0,0,0,429.37,9.509Zm0-7.877a3.122,3.122,0,1,1-3.122,3.122A3.126,3.126,0,0,1,429.37,1.632Z" transform="translate(-378.409)"/>
          <path id="Trazado_990282" data-name="Trazado 990282" d="M289.22,265.513a1.361,1.361,0,0,0-1.356-1.481h-1.713a4.087,4.087,0,0,0-3.963,3.228,19.389,19.389,0,0,1-.992,3.223l-2.444-2.444a1.359,1.359,0,0,0-2.224.456,14.467,14.467,0,0,1-8.034,8.036,1.359,1.359,0,0,0-.456,2.223l2.443,2.443a19.369,19.369,0,0,1-3.223.992,4.087,4.087,0,0,0-3.228,3.963v1.712a1.361,1.361,0,0,0,1.361,1.361q.06,0,.12-.005a26.174,26.174,0,0,0,23.708-23.708Zm-23.557,22.054v-1.414a2.416,2.416,0,0,1,1.938-2.367,21.006,21.006,0,0,0,4.286-1.416,1.088,1.088,0,0,0,.317-1.759l-2.721-2.722a16.117,16.117,0,0,0,8.405-8.408l2.723,2.723a1.088,1.088,0,0,0,1.759-.317,21.019,21.019,0,0,0,1.416-4.286,2.416,2.416,0,0,1,2.367-1.938h1.414A24.482,24.482,0,0,1,265.663,287.567Z" transform="translate(-235.299 -235.3)"/>
          <path id="Trazado_990283" data-name="Trazado 990283" d="M429.37,424.615a4.755,4.755,0,1,0,4.755,4.755A4.76,4.76,0,0,0,429.37,424.615Zm0,7.877a3.122,3.122,0,1,1,3.122-3.122A3.126,3.126,0,0,1,429.37,432.492Z" transform="translate(-378.409 -378.409)"/>
          <path id="Trazado_990284" data-name="Trazado 990284" d="M38.408,282.187a19.366,19.366,0,0,1-3.223-.992l2.444-2.444a1.359,1.359,0,0,0-.456-2.224,14.5,14.5,0,0,1-5.263-3.633.816.816,0,1,0-1.2,1.1,16.152,16.152,0,0,0,5.478,3.886l-2.723,2.723a1.088,1.088,0,0,0,.317,1.759,21.007,21.007,0,0,0,4.286,1.416A2.416,2.416,0,0,1,40,286.15v1.414a24.482,24.482,0,0,1-21.9-21.9h1.414a2.416,2.416,0,0,1,2.367,1.938,20.983,20.983,0,0,0,1.416,4.286,1.088,1.088,0,0,0,1.759.317l2.722-2.721c.181.421.381.836.6,1.238a.816.816,0,0,0,1.438-.772,14.381,14.381,0,0,1-.678-1.454,1.359,1.359,0,0,0-2.223-.456L24.47,270.48a19.355,19.355,0,0,1-.992-3.223,4.087,4.087,0,0,0-3.963-3.228H17.8a1.361,1.361,0,0,0-1.356,1.481,26.174,26.174,0,0,0,23.708,23.708q.06.005.12.005a1.361,1.361,0,0,0,1.361-1.361V286.15A4.087,4.087,0,0,0,38.408,282.187Z" transform="translate(-14.652 -235.297)"/>
          <path id="Trazado_990285" data-name="Trazado 990285" d="M4.755,424.615a4.755,4.755,0,1,0,4.755,4.755A4.76,4.76,0,0,0,4.755,424.615Zm0,7.877a3.122,3.122,0,1,1,3.122-3.122A3.126,3.126,0,0,1,4.755,432.492Z" transform="translate(0 -378.409)"/>
          <path id="Trazado_990286" data-name="Trazado 990286" d="M162.163,190.6a.816.816,0,0,0,1.145.074l3.842-3.337a7.116,7.116,0,1,0-9.565-10.535,7.116,7.116,0,1,0-9.565,10.535l8.4,7.3a1.779,1.779,0,0,0,2.322,0l1.61-1.4a.839.839,0,0,0,.123-1.154.816.816,0,0,0-1.168-.1l-1.636,1.421a.139.139,0,0,1-.181,0l-8.4-7.3a5.484,5.484,0,1,1,7.554-7.936,1.3,1.3,0,0,0,1.881,0,5.484,5.484,0,1,1,7.554,7.936l-3.842,3.337A.816.816,0,0,0,162.163,190.6Z" transform="translate(-129.728 -155.818)"/>
        </g>
      </g>
    </g>
  </g>
</svg>
