<svg xmlns="http://www.w3.org/2000/svg" xmlns:xlink="http://www.w3.org/1999/xlink" width="108" height="108" viewBox="0 0 108 108">
  <defs>
    <filter id="Trazado_982547" x="0" y="0" width="108" height="108" filterUnits="userSpaceOnUse">
      <feOffset dy="3" input="SourceAlpha"/>
      <feGaussianBlur stdDeviation="3" result="blur"/>
      <feFlood flood-opacity="0.161"/>
      <feComposite operator="in" in2="blur"/>
      <feComposite in="SourceGraphic"/>
    </filter>
  </defs>
  <g id="Grupo_1154014" data-name="Grupo 1154014" transform="translate(9 6)">
    <g id="Grupo_1153134" data-name="Grupo 1153134">
      <g id="Grupo_1149598" data-name="Grupo 1149598">
        <g id="Grupo_1148770" data-name="Grupo 1148770">
          <g id="Grupo_1146954" data-name="Grupo 1146954">
            <g transform="matrix(1, 0, 0, 1, -9, -6)" filter="url(#Trazado_982547)">
              <g id="Trazado_982547-2" data-name="Trazado 982547" transform="translate(9 6)" fill="#fef6e8">
                <path d="M 45 88.5 C 39.12687683105469 88.5 33.43022537231445 87.35007476806641 28.06830024719238 85.08217620849609 C 22.88852500915527 82.89131164550781 18.23629951477051 79.75458526611328 14.2408504486084 75.75914764404297 C 10.24541282653809 71.76370239257812 7.108687400817871 67.11147308349609 4.917825222015381 61.93170166015625 C 2.649924993515015 56.56977462768555 1.5 50.87312316894531 1.5 45 C 1.5 39.12687683105469 2.649924993515015 33.43022537231445 4.917825222015381 28.06830024719238 C 7.108687400817871 22.88852500915527 10.24541282653809 18.23629951477051 14.2408504486084 14.2408504486084 C 18.23629951477051 10.24541282653809 22.88852500915527 7.108687400817871 28.06830024719238 4.917825222015381 C 33.43022537231445 2.649924993515015 39.12687683105469 1.5 45 1.5 C 50.87312316894531 1.5 56.56977462768555 2.649924993515015 61.93170166015625 4.917825222015381 C 67.11147308349609 7.108687400817871 71.76370239257812 10.24541282653809 75.75914764404297 14.2408504486084 C 79.75458526611328 18.23629951477051 82.89131164550781 22.88852500915527 85.08217620849609 28.06830024719238 C 87.35007476806641 33.43022537231445 88.5 39.12687683105469 88.5 45 C 88.5 50.87312316894531 87.35007476806641 56.56977462768555 85.08217620849609 61.93170166015625 C 82.89131164550781 67.11147308349609 79.75458526611328 71.76370239257812 75.75914764404297 75.75914764404297 C 71.76370239257812 79.75458526611328 67.11147308349609 82.89131164550781 61.93170166015625 85.08217620849609 C 56.56977462768555 87.35007476806641 50.87312316894531 88.5 45 88.5 Z" stroke="none"/>
                <path d="M 45 3 C 39.32871246337891 3 33.82865524291992 4.110054016113281 28.65262985229492 6.299339294433594 C 23.65165710449219 8.414573669433594 19.15968322753906 11.44334411621094 15.301513671875 15.301513671875 C 11.44334411621094 19.15968322753906 8.414573669433594 23.65165710449219 6.299339294433594 28.65262985229492 C 4.110054016113281 33.82865524291992 3 39.32871246337891 3 45 C 3 50.67128753662109 4.110054016113281 56.17134475708008 6.299339294433594 61.34737396240234 C 8.414573669433594 66.34834289550781 11.44334411621094 70.84031677246094 15.301513671875 74.698486328125 C 19.15968322753906 78.55665588378906 23.65165710449219 81.58542633056641 28.65262985229492 83.70066070556641 C 33.82865524291992 85.88994598388672 39.32871246337891 87 45 87 C 50.67128753662109 87 56.17134475708008 85.88994598388672 61.34737396240234 83.70066070556641 C 66.34834289550781 81.58542633056641 70.84031677246094 78.55665588378906 74.698486328125 74.698486328125 C 78.55665588378906 70.84031677246094 81.58542633056641 66.34834289550781 83.70066070556641 61.34737396240234 C 85.88994598388672 56.17134475708008 87 50.67128753662109 87 45 C 87 39.32871246337891 85.88994598388672 33.82865524291992 83.70066070556641 28.65262985229492 C 81.58542633056641 23.65165710449219 78.55665588378906 19.15968322753906 74.698486328125 15.301513671875 C 70.84031677246094 11.44334411621094 66.34834289550781 8.414573669433594 61.34737396240234 6.299339294433594 C 56.17134475708008 4.110054016113281 50.67128753662109 3 45 3 M 45 0 C 69.85281372070312 0 90 20.14718627929688 90 45 C 90 69.85281372070312 69.85281372070312 90 45 90 C 20.14718627929688 90 0 69.85281372070312 0 45 C 0 20.14718627929688 20.14718627929688 0 45 0 Z" stroke="none" fill="#fdaf2f"/>
              </g>
            </g>
          </g>
        </g>
      </g>
    </g>
    <g id="personas" transform="translate(15 15)">
      <path id="Trazado_990288" data-name="Trazado 990288" d="M67.541,256A28.77,28.77,0,1,1,10,256Z" transform="translate(-8.83 -226.06)" fill="#ccf5fc"/>
      <path id="Trazado_990289" data-name="Trazado 990289" d="M16.388,274.075l2.929-5.22a2.271,2.271,0,0,0,.29-1.111v-3.008a2.271,2.271,0,0,1,.668-1.608l1.576-1.571a2.271,2.271,0,0,0,.217-2.966L20.136,256H10a28.648,28.648,0,0,0,6.388,18.075Z" transform="translate(-8.83 -226.06)" fill="#a0e5a5"/>
      <g id="Grupo_1154012" data-name="Grupo 1154012" transform="translate(6.082 1.17)">
        <path id="XMLID_1072_" d="M198.349,120.7h-4.79A5.557,5.557,0,0,0,188,126.258v5.407h15.906v-5.407A5.558,5.558,0,0,0,198.349,120.7Z" transform="translate(-172.095 -107.754)" fill="#ff7d97"/>
        <path id="XMLID_1071_" d="M228.836,48.574a3.6,3.6,0,0,0-3.6,3.6v1.24a3.6,3.6,0,1,0,7.2,0v-1.24A3.6,3.6,0,0,0,228.836,48.574Z" transform="translate(-204.977 -44.063)" fill="#cc9081"/>
        <path id="XMLID_1069_" d="M160.836,10a3.6,3.6,0,0,0-3.6,3.6v1.24a3.6,3.6,0,1,0,7.2,0V13.6A3.6,3.6,0,0,0,160.836,10Z" transform="translate(-144.93 -10)" fill="#f2b394"/>
        <path id="XMLID_1067_" d="M296.836,10a3.6,3.6,0,0,1,3.6,3.6v1.24a3.6,3.6,0,1,1-7.2,0V13.6A3.6,3.6,0,0,1,296.836,10Z" transform="translate(-265.025 -10)" fill="#ffd0c7"/>
        <path id="XMLID_1064_" d="M62.348,120.7H57.557A5.557,5.557,0,0,0,52,126.258v5.407H67.906v-5.407A5.557,5.557,0,0,0,62.348,120.7Z" transform="translate(-52 -107.754)" fill="#66e0f7"/>
        <path id="XMLID_1063_" d="M92.836,48.574a3.6,3.6,0,0,0-3.6,3.6v1.24a3.6,3.6,0,1,0,7.2,0v-1.24A3.6,3.6,0,0,0,92.836,48.574Z" transform="translate(-84.883 -44.063)" fill="#ffd0c7"/>
        <path id="XMLID_1060_" d="M329.558,120.7h4.79a5.558,5.558,0,0,1,5.557,5.557v5.407H324v-5.407A5.558,5.558,0,0,1,329.558,120.7Z" transform="translate(-292.189 -107.754)" fill="#ffda8f"/>
        <path id="XMLID_1059_" d="M364.836,48.574a3.6,3.6,0,0,1,3.6,3.6v1.24a3.6,3.6,0,0,1-7.2,0v-1.24A3.6,3.6,0,0,1,364.836,48.574Z" transform="translate(-325.072 -44.063)" fill="#f2b394"/>
      </g>
      <path id="Trazado_990290" data-name="Trazado 990290" d="M300.706,256.672l2.4,3.656a1.485,1.485,0,0,0,.551.5l2.1,1.108a1.487,1.487,0,0,1,.732,1.74l-1.218,4.085a1.487,1.487,0,0,1-1.425,1.062h-.282a1.487,1.487,0,0,0-1.3.768l-2.8,5.06a1.487,1.487,0,0,0-.185.719v.108a1.437,1.437,0,0,1-2.365,1.1l-.6-.512a1.487,1.487,0,0,1-.516-.958l-.994-8.31a1.487,1.487,0,0,0-.554-.99l-2.066-1.633a1.487,1.487,0,0,1-.565-1.166v-5.518A1.487,1.487,0,0,1,293.1,256h6.36A1.487,1.487,0,0,1,300.706,256.672Z" transform="translate(-257.511 -226.06)" fill="#a0e5a5"/>
      <path id="Trazado_990291" data-name="Trazado 990291" d="M157.458,343.568c-.379,0-.841-.006-1.177-.01a1.946,1.946,0,0,0-.874.194l-2.757,1.333a1.947,1.947,0,0,0-1.1,1.753v1.108a1.947,1.947,0,0,0,1.947,1.948h2.629a1.948,1.948,0,0,1,1.39.583,1.948,1.948,0,0,0,2.756.024l1.307-1.287a1.948,1.948,0,0,0-.116-2.881l-2.761-2.311A1.946,1.946,0,0,0,157.458,343.568Z" transform="translate(-133.826 -303.377)" fill="#a0e5a5"/>
      <g id="Grupo_1154013" data-name="Grupo 1154013">
        <path id="Trazado_990292" data-name="Trazado 990292" d="M58.71,246H28.292a1.17,1.17,0,0,0,0,2.339h4.663a2.658,2.658,0,0,0-.02.317v5.518a2.642,2.642,0,0,0,1.009,2.084l2.066,1.633a.316.316,0,0,1,.118.211l.994,8.31a2.648,2.648,0,0,0,.921,1.712l.6.512a2.588,2.588,0,0,0,1.677.621,2.621,2.621,0,0,0,1.1-.246,2.581,2.581,0,0,0,1.51-2.364v-.108a.319.319,0,0,1,.04-.153l2.8-5.06a.318.318,0,0,1,.278-.164h.282a2.673,2.673,0,0,0,2.546-1.9L50.1,255.18a2.662,2.662,0,0,0-1.308-3.11l-2.1-1.108a.317.317,0,0,1-.118-.107l-1.649-2.517h12.6a27.6,27.6,0,0,1-47.093,18.347q-.76-.76-1.453-1.569l2.536-4.519a3.448,3.448,0,0,0,.44-1.683v-3.008a1.108,1.108,0,0,1,.324-.78l1.577-1.571a3.458,3.458,0,0,0,.329-4.493l-.539-.723h4.13a1.17,1.17,0,1,0,0-2.339H1.169A1.169,1.169,0,0,0,0,247.169,29.94,29.94,0,0,0,51.111,268.34a29.743,29.743,0,0,0,8.769-21.171A1.169,1.169,0,0,0,58.71,246Zm-16.493,2.483,2.4,3.656a2.662,2.662,0,0,0,.984.894l2.1,1.108a.318.318,0,0,1,.156.372L46.638,258.6a.32.32,0,0,1-.3.227h-.282a2.657,2.657,0,0,0-2.325,1.372l-2.8,5.06a2.663,2.663,0,0,0-.331,1.285v.108a.267.267,0,0,1-.44.2l-.6-.512a.316.316,0,0,1-.11-.2l-.994-8.31a2.64,2.64,0,0,0-.99-1.769L35.4,254.423a.316.316,0,0,1-.121-.249v-5.518a.318.318,0,0,1,.317-.317h6.36A.317.317,0,0,1,42.218,248.482Zm-31.5-.143L12.3,250.46A1.107,1.107,0,0,1,12.2,251.9l-1.576,1.571a3.463,3.463,0,0,0-1.012,2.437v3.008a1.1,1.1,0,0,1-.141.539l-2.058,3.668a27.359,27.359,0,0,1-5.045-14.782Z" transform="translate(0 -217.23)"/>
        <path id="Trazado_990293" data-name="Trazado 990293" d="M43.17,26.25H90.886a1.17,1.17,0,0,0,1.17-1.17V19.674a6.738,6.738,0,0,0-5.142-6.537,4.738,4.738,0,0,0,.786-2.619V9.278a4.764,4.764,0,0,0-7.953-3.543V4.767a4.767,4.767,0,1,0-9.534,0v.968a4.757,4.757,0,0,0-6.371,0V4.767a4.767,4.767,0,1,0-9.534,0v.968a4.764,4.764,0,0,0-7.953,3.543v1.24a4.739,4.739,0,0,0,.786,2.619A6.738,6.738,0,0,0,42,19.674v5.407a1.17,1.17,0,0,0,1.17,1.17ZM55.1,13.137a4.738,4.738,0,0,0,.786-2.619V9.55a4.757,4.757,0,0,0,6.371,0v.968a4.739,4.739,0,0,0,.786,2.619,6.747,6.747,0,0,0-3.972,2.751A6.746,6.746,0,0,0,55.1,13.137Zm5.142,6.537a4.393,4.393,0,0,1,4.388-4.388h4.79a4.393,4.393,0,0,1,4.388,4.388v4.237H60.245ZM71.8,10.519V9.55a4.757,4.757,0,0,0,6.371,0v.968a4.739,4.739,0,0,0,.786,2.619,6.747,6.747,0,0,0-3.972,2.751,6.746,6.746,0,0,0-3.972-2.751,4.737,4.737,0,0,0,.787-2.619Zm17.922,9.155v4.237H76.15V19.674a4.393,4.393,0,0,1,4.388-4.388h4.791A4.393,4.393,0,0,1,89.717,19.674Zm-9.211-10.4a2.428,2.428,0,1,1,4.856,0v1.24a2.428,2.428,0,1,1-4.856,0ZM72.553,4.767a2.428,2.428,0,1,1,4.856,0v1.24a2.428,2.428,0,1,1-4.856,0ZM64.6,9.278a2.428,2.428,0,1,1,4.856,0v1.24a2.428,2.428,0,1,1-4.856,0ZM56.647,4.767a2.428,2.428,0,1,1,4.856,0v1.24a2.428,2.428,0,1,1-4.856,0ZM48.694,9.278a2.428,2.428,0,0,1,4.856,0v1.24a2.428,2.428,0,1,1-4.856,0Zm-4.355,10.4a4.393,4.393,0,0,1,4.388-4.388h4.791a4.393,4.393,0,0,1,4.388,4.388v4.237H44.339Z" transform="translate(-37.088 0)"/>
        <path id="Trazado_990294" data-name="Trazado 990294" d="M143.311,335.2a3.134,3.134,0,0,0-1.76,2.806v1.108a3.121,3.121,0,0,0,3.117,3.117H147.3a.783.783,0,0,1,.555.233,3.1,3.1,0,0,0,2.2.934h.028a3.1,3.1,0,0,0,2.186-.9l1.307-1.286a3.117,3.117,0,0,0-.186-4.612l-2.761-2.311a3.12,3.12,0,0,0-1.993-.727c-.375,0-.832-.006-1.164-.01a3.142,3.142,0,0,0-1.4.311Zm4.114.695h.01c.34,0,.807.01,1.191.011h0a.776.776,0,0,1,.5.181l2.761,2.311a.778.778,0,0,1,.046,1.151l-1.307,1.286a.791.791,0,0,1-.552.224.773.773,0,0,1-.549-.233,3.135,3.135,0,0,0-2.225-.934h-2.629a.779.779,0,0,1-.778-.778v-1.108a.783.783,0,0,1,.439-.7l2.757-1.333A.784.784,0,0,1,147.425,335.9Z" transform="translate(-124.996 -294.548)"/>
        <circle id="Elipse_11560" data-name="Elipse 11560" cx="1.17" cy="1.17" r="1.17" transform="translate(21.86 28.77)"/>
      </g>
    </g>
  </g>
</svg>
