<svg xmlns="http://www.w3.org/2000/svg" xmlns:xlink="http://www.w3.org/1999/xlink" width="108" height="108" viewBox="0 0 108 108">
  <defs>
    <filter id="Trazado_982547" x="0" y="0" width="108" height="108" filterUnits="userSpaceOnUse">
      <feOffset dy="3" input="SourceAlpha"/>
      <feGaussianBlur stdDeviation="3" result="blur"/>
      <feFlood flood-opacity="0.161"/>
      <feComposite operator="in" in2="blur"/>
      <feComposite in="SourceGraphic"/>
    </filter>
  </defs>
  <g id="Grupo_1154027" data-name="Grupo 1154027" transform="translate(-171 -3301)">
    <g id="Grupo_1154017" data-name="Grupo 1154017">
      <g id="Grupo_1153175" data-name="Grupo 1153175" transform="translate(-83 2788)">
        <g id="Grupo_1149598" data-name="Grupo 1149598" transform="translate(80 315)">
          <g id="Grupo_1148770" data-name="Grupo 1148770" transform="translate(-27 -2583)">
            <g id="Grupo_1146954" data-name="Grupo 1146954" transform="translate(-415 -1202)">
              <g transform="matrix(1, 0, 0, 1, 616, 3983)" filter="url(#Trazado_982547)">
                <g id="Trazado_982547-2" data-name="Trazado 982547" transform="translate(9 6)" fill="#f4f8fc">
                  <path d="M 45 88.5 C 39.12687683105469 88.5 33.43022537231445 87.35007476806641 28.06830024719238 85.08217620849609 C 22.88852500915527 82.89131164550781 18.23629951477051 79.75458526611328 14.2408504486084 75.75914764404297 C 10.24541282653809 71.76370239257812 7.108687400817871 67.11147308349609 4.917825222015381 61.93170166015625 C 2.649924993515015 56.56977462768555 1.5 50.87312316894531 1.5 45 C 1.5 39.12687683105469 2.649924993515015 33.43022537231445 4.917825222015381 28.06830024719238 C 7.108687400817871 22.88852500915527 10.24541282653809 18.23629951477051 14.2408504486084 14.2408504486084 C 18.23629951477051 10.24541282653809 22.88852500915527 7.108687400817871 28.06830024719238 4.917825222015381 C 33.43022537231445 2.649924993515015 39.12687683105469 1.5 45 1.5 C 50.87312316894531 1.5 56.56977462768555 2.649924993515015 61.93170166015625 4.917825222015381 C 67.11147308349609 7.108687400817871 71.76370239257812 10.24541282653809 75.75914764404297 14.2408504486084 C 79.75458526611328 18.23629951477051 82.89131164550781 22.88852500915527 85.08217620849609 28.06830024719238 C 87.35007476806641 33.43022537231445 88.5 39.12687683105469 88.5 45 C 88.5 50.87312316894531 87.35007476806641 56.56977462768555 85.08217620849609 61.93170166015625 C 82.89131164550781 67.11147308349609 79.75458526611328 71.76370239257812 75.75914764404297 75.75914764404297 C 71.76370239257812 79.75458526611328 67.11147308349609 82.89131164550781 61.93170166015625 85.08217620849609 C 56.56977462768555 87.35007476806641 50.87312316894531 88.5 45 88.5 Z" stroke="none"/>
                  <path d="M 45 3 C 39.32871246337891 3 33.82865524291992 4.110054016113281 28.65262985229492 6.299339294433594 C 23.65165710449219 8.414573669433594 19.15968322753906 11.44334411621094 15.301513671875 15.301513671875 C 11.44334411621094 19.15968322753906 8.414573669433594 23.65165710449219 6.299339294433594 28.65262985229492 C 4.110054016113281 33.82865524291992 3 39.32871246337891 3 45 C 3 50.67128753662109 4.110054016113281 56.17134475708008 6.299339294433594 61.34737396240234 C 8.414573669433594 66.34834289550781 11.44334411621094 70.84031677246094 15.301513671875 74.698486328125 C 19.15968322753906 78.55665588378906 23.65165710449219 81.58542633056641 28.65262985229492 83.70066070556641 C 33.82865524291992 85.88994598388672 39.32871246337891 87 45 87 C 50.67128753662109 87 56.17134475708008 85.88994598388672 61.34737396240234 83.70066070556641 C 66.34834289550781 81.58542633056641 70.84031677246094 78.55665588378906 74.698486328125 74.698486328125 C 78.55665588378906 70.84031677246094 81.58542633056641 66.34834289550781 83.70066070556641 61.34737396240234 C 85.88994598388672 56.17134475708008 87 50.67128753662109 87 45 C 87 39.32871246337891 85.88994598388672 33.82865524291992 83.70066070556641 28.65262985229492 C 81.58542633056641 23.65165710449219 78.55665588378906 19.15968322753906 74.698486328125 15.301513671875 C 70.84031677246094 11.44334411621094 66.34834289550781 8.414573669433594 61.34737396240234 6.299339294433594 C 56.17134475708008 4.110054016113281 50.67128753662109 3 45 3 M 45 0 C 69.85281372070312 0 90 20.14718627929688 90 45 C 90 69.85281372070312 69.85281372070312 90 45 90 C 20.14718627929688 90 0 69.85281372070312 0 45 C 0 20.14718627929688 20.14718627929688 0 45 0 Z" stroke="none" fill="#526a7e"/>
                </g>
              </g>
            </g>
          </g>
        </g>
      </g>
    </g>
    <g id="protesta" transform="translate(191.379 3320.001)">
      <g id="Grupo_1154025" data-name="Grupo 1154025" transform="translate(3.511 0.92)">
        <g id="Grupo_1154019" data-name="Grupo 1154019" transform="translate(0 19.134)">
          <circle id="Elipse_11562" data-name="Elipse 11562" cx="17.049" cy="17.049" r="17.049" fill="#f5f8f9"/>
          <path id="Trazado_990352" data-name="Trazado 990352" d="M73.668,213.9a12.194,12.194,0,1,0-14.115,12.043v4.174h-2.73a1.921,1.921,0,1,0,0,3.841h2.73v3.108a1.921,1.921,0,1,0,3.841,0v-3.108h2.73a1.921,1.921,0,1,0,0-3.841h-2.73v-4.174A12.213,12.213,0,0,0,73.668,213.9Zm-20.547,0a8.353,8.353,0,1,1,8.353,8.353A8.362,8.362,0,0,1,53.12,213.9Z" transform="translate(-44.424 -196.92)" fill="#cb97e7"/>
          <g id="Grupo_1154018" data-name="Grupo 1154018" transform="translate(15.129 4.782)">
            <path id="Trazado_990353" data-name="Trazado 990353" d="M146.828,213.9a12.2,12.2,0,0,0-14.115-12.043,12.195,12.195,0,0,1,0,24.085v11.124a1.921,1.921,0,1,0,3.841,0v-3.108h2.73a1.921,1.921,0,1,0,0-3.841h-2.73v-4.174A12.213,12.213,0,0,0,146.828,213.9Z" transform="translate(-132.713 -201.702)" fill="#bd80e1"/>
          </g>
        </g>
        <g id="Grupo_1154024" data-name="Grupo 1154024" transform="translate(28.563)">
          <g id="Grupo_1154021" data-name="Grupo 1154021">
            <g id="Grupo_1154020" data-name="Grupo 1154020">
              <path id="Trazado_990354" data-name="Trazado 990354" d="M260.8,59.614h-1.293l.142-1.321H241.822v8.813a7.743,7.743,0,0,0,1.634,4.751l2.409,3.1v38.273h11.987V74.96l3.783-3.037A6.832,6.832,0,0,0,264.2,66.6V62.965a3.378,3.378,0,0,0-3.405-3.351Z" transform="translate(-241.822 -52.035)" fill="#fed2a4"/>
              <path id="Trazado_990355" data-name="Trazado 990355" d="M357.138,15V9.71a2.274,2.274,0,0,0-4.547,0V15a2.274,2.274,0,0,0,4.547,0Z" transform="translate(-338.951 -7.473)" fill="#fed2a4"/>
              <path id="Trazado_990356" data-name="Trazado 990356" d="M320.215,15V9.71a2.274,2.274,0,0,0-4.547,0V15a2.274,2.274,0,0,0,4.547,0Z" transform="translate(-306.575 -7.473)" fill="#ffbd86"/>
              <path id="Trazado_990357" data-name="Trazado 990357" d="M283.292,15V9.71a2.274,2.274,0,0,0-4.547,0V15a2.274,2.274,0,0,0,4.547,0Z" transform="translate(-274.198 -7.473)" fill="#fed2a4"/>
              <path id="Trazado_990358" data-name="Trazado 990358" d="M246.368,15V9.71a2.274,2.274,0,0,0-4.547,0V15a2.274,2.274,0,0,0,4.547,0Z" transform="translate(-241.821 -7.473)" fill="#ffbd86"/>
              <path id="Trazado_990359" data-name="Trazado 990359" d="M320.131,79.584c0-4.782,5.661-6.049,5.661-6.049v-.041h-5a2.238,2.238,0,1,1,0-4.474h7.26a3.379,3.379,0,0,1,3.405,3.351V76a6.832,6.832,0,0,1-2.57,5.327L325.1,84.366Z" transform="translate(-309.07 -61.441)" fill="#fed2a4"/>
            </g>
          </g>
          <g id="Grupo_1154023" data-name="Grupo 1154023" transform="translate(9.636 28.124)">
            <g id="Grupo_1154022" data-name="Grupo 1154022">
              <path id="Trazado_990360" data-name="Trazado 990360" d="M323.485,288.015h1.293l-.142-1.321h17.827v8.813a7.743,7.743,0,0,1-1.634,4.751l-2.409,3.1V313.51H326.433V303.361l-3.783-3.037A6.832,6.832,0,0,1,320.08,295v-3.631A3.378,3.378,0,0,1,323.485,288.015Z" transform="translate(-320.08 -280.436)" fill="#ea9b58"/>
              <path id="Trazado_990361" data-name="Trazado 990361" d="M354.157,243.4v-5.288a2.274,2.274,0,0,1,4.547,0V243.4a2.274,2.274,0,0,1-4.547,0Z" transform="translate(-349.961 -235.874)" fill="#ea9b58"/>
              <path id="Trazado_990362" data-name="Trazado 990362" d="M391.081,243.4v-5.288a2.274,2.274,0,0,1,4.547,0V243.4a2.274,2.274,0,0,1-4.547,0Z" transform="translate(-382.338 -235.874)" fill="#d88a55"/>
              <path id="Trazado_990363" data-name="Trazado 990363" d="M428,243.4v-5.288a2.274,2.274,0,0,1,4.547,0V243.4a2.274,2.274,0,0,1-4.547,0Z" transform="translate(-414.715 -235.874)" fill="#ea9b58"/>
              <path id="Trazado_990364" data-name="Trazado 990364" d="M464.927,243.4v-5.288a2.274,2.274,0,0,1,4.547,0V243.4a2.274,2.274,0,0,1-4.547,0Z" transform="translate(-447.091 -235.874)" fill="#d88a55"/>
              <path id="Trazado_990365" data-name="Trazado 990365" d="M331.4,307.985c0-4.782-5.661-6.049-5.661-6.049V301.9h5a2.237,2.237,0,1,0,0-4.474h-7.26a3.379,3.379,0,0,0-3.405,3.351V304.4a6.832,6.832,0,0,0,2.57,5.327l3.783,3.037Z" transform="translate(-320.079 -289.842)" fill="#ea9b58"/>
            </g>
          </g>
        </g>
      </g>
      <g id="Grupo_1154026" data-name="Grupo 1154026" transform="translate(2.621 -0.001)">
        <path id="Trazado_990366" data-name="Trazado 990366" d="M91.96,234.675a9.287,9.287,0,0,0-9.276-9.276c-12.289.466-12.286,18.088,0,18.553A9.287,9.287,0,0,0,91.96,234.675ZM82.684,242.1a7.438,7.438,0,0,1-7.429-7.429c.373-9.842,14.487-9.84,14.859,0A7.438,7.438,0,0,1,82.684,242.1Z" transform="translate(-64.744 -197.645)"/>
        <path id="Trazado_990367" data-name="Trazado 990367" d="M64.093,33.3a.924.924,0,0,0,.924-.924v-1.1a3.209,3.209,0,0,0-5.47-2.22,3.236,3.236,0,0,0-4.546,0,3.236,3.236,0,0,0-4.546,0,3.207,3.207,0,0,0-1.426-.828V24.287l3.438-2.76A7.725,7.725,0,0,0,55.38,15.48V11.849a4.3,4.3,0,0,0-4.2-4.272V3.157a3.209,3.209,0,0,0-5.47-2.22,3.236,3.236,0,0,0-4.546,0,3.236,3.236,0,0,0-4.546,0,3.209,3.209,0,0,0-5.47,2.22s0,4.02,0,4.02V15.99a8.714,8.714,0,0,0,1.828,5.317l2.215,2.853v2.511a18.1,18.1,0,0,0-22.876-5.544.924.924,0,0,0,.848,1.641,16.228,16.228,0,0,1,22.028,7.557V43.883a16.163,16.163,0,0,1-9.446,8.491,22.8,22.8,0,0,0-2.344-.052V49.836A13.207,13.207,0,0,0,33.678,37.03c-.659-17.377-25.578-17.375-26.235,0A13.207,13.207,0,0,0,17.716,49.836v2.487a22.983,22.983,0,0,0-2.341.051C3.426,48.4.569,32.424,10.426,24.559a.924.924,0,1,0-1.162-1.436C-1.26,31.5,1.134,48.468,13.512,53.639a2.855,2.855,0,0,0,2.4,4.372h1.807V60.2a2.844,2.844,0,1,0,5.689,0V58.011h1.807a2.855,2.855,0,0,0,2.4-4.372,18.02,18.02,0,0,0,7.586-6.1v14.58a.924.924,0,0,0,1.847,0V23.844a.923.923,0,0,0-.194-.566c-4.516-5.635-3.8-4.927-3.849-11.968a3.246,3.246,0,0,0,3.623-.645,3.245,3.245,0,0,0,4,.441A3.188,3.188,0,0,0,43.791,13.9h1.076a6.428,6.428,0,0,0-2.655,5.166.924.924,0,0,0,1.847,0C43.952,16.162,47,14.385,49,13.915a.951.951,0,0,0-.2-1.866h-5a1.314,1.314,0,1,1,0-2.627h7.26a2.458,2.458,0,0,1,2.482,2.428v3.631a5.887,5.887,0,0,1-2.224,4.606l-3.783,3.037a.924.924,0,0,0-.345.72v4.435a3.169,3.169,0,0,0-2.2,3V35.7a4.3,4.3,0,0,0-4.2,4.272V43.6A7.726,7.726,0,0,0,43.7,49.652l3.438,2.76v9.706a.924.924,0,0,0,1.847,0V51.968a.924.924,0,0,0-.345-.72l-3.783-3.037A5.887,5.887,0,0,1,42.634,43.6V39.974a2.458,2.458,0,0,1,2.482-2.428h7.26a1.314,1.314,0,1,1,0,2.628h-5a.951.951,0,0,0-.2,1.866c.049.011,4.939,1.152,4.939,5.148a.924.924,0,1,0,1.847,0A6.428,6.428,0,0,0,51.3,42.02h1.076a3.188,3.188,0,0,0,3.174-2.791,3.245,3.245,0,0,0,4-.441,3.246,3.246,0,0,0,3.623.645c-.046,7.049.657,6.345-3.849,11.968a.923.923,0,0,0-.194.566V62.118a.924.924,0,0,0,1.847,0V52.285l2.215-2.853a8.713,8.713,0,0,0,1.828-5.317V35.746a.924.924,0,0,0-1.847,0v.823a1.351,1.351,0,0,1-2.7,0V31.281a1.35,1.35,0,0,1,2.7,0v1.1A.923.923,0,0,0,64.093,33.3ZM25.211,56.165h-2.73a.924.924,0,0,0-.924.924V60.2a1,1,0,0,1-1.994,0V57.088a.924.924,0,0,0-.924-.924h-2.73a1,1,0,0,1-.3-1.948l.011,0a.994.994,0,0,1,.289-.043h2.73a.924.924,0,0,0,.924-.924V49.073a.924.924,0,0,0-.779-.912A11.349,11.349,0,0,1,9.289,37.03c.566-14.93,21.977-14.928,22.541,0a11.349,11.349,0,0,1-9.495,11.13.923.923,0,0,0-.779.912v4.174a.924.924,0,0,0,.924.924h2.73A1,1,0,0,1,25.211,56.165ZM47.987,1.843a1.334,1.334,0,0,1,1.35,1.314V7.575h-2.7V3.157a1.334,1.334,0,0,1,1.35-1.314ZM34.348,9.759A1.334,1.334,0,0,1,33,8.445V3.157a1.351,1.351,0,0,1,2.7,0V8.445A1.334,1.334,0,0,1,34.348,9.759Zm4.547,0a1.334,1.334,0,0,1-1.35-1.314V3.157a1.351,1.351,0,0,1,2.7,0V8.445A1.334,1.334,0,0,1,38.894,9.759Zm3.2-1.7v-4.9a1.351,1.351,0,0,1,2.7,0V7.575h-1A3.2,3.2,0,0,0,42.091,8.061ZM48.18,29.967a1.334,1.334,0,0,1,1.35,1.314V35.7h-2.7V31.281A1.334,1.334,0,0,1,48.18,29.967Zm4.2,5.732h-1V31.281a1.351,1.351,0,0,1,2.7,0v4.9A3.2,3.2,0,0,0,52.376,35.7Zm4.9,2.184a1.334,1.334,0,0,1-1.35-1.314V31.281a1.351,1.351,0,0,1,2.7,0v5.288A1.334,1.334,0,0,1,57.273,37.883Z" transform="translate(-2.621 0.001)"/>
      </g>
    </g>
  </g>
</svg>
