<svg xmlns="http://www.w3.org/2000/svg" xmlns:xlink="http://www.w3.org/1999/xlink" width="108" height="108" viewBox="0 0 108 108">
  <defs>
    <filter id="Trazado_982547" x="0" y="0" width="108" height="108" filterUnits="userSpaceOnUse">
      <feOffset dy="3" input="SourceAlpha"/>
      <feGaussianBlur stdDeviation="3" result="blur"/>
      <feFlood flood-opacity="0.161"/>
      <feComposite operator="in" in2="blur"/>
      <feComposite in="SourceGraphic"/>
    </filter>
  </defs>
  <g id="Grupo_1154033" data-name="Grupo 1154033" transform="translate(-616 -3910)">
    <g id="Grupo_1153177" data-name="Grupo 1153177" transform="translate(362 3397)">
      <g id="Grupo_1149598" data-name="Grupo 1149598" transform="translate(80 315)">
        <g id="Grupo_1148770" data-name="Grupo 1148770" transform="translate(-27 -2583)">
          <g id="Grupo_1146954" data-name="Grupo 1146954" transform="translate(-415 -1202)">
            <g transform="matrix(1, 0, 0, 1, 616, 3983)" filter="url(#Trazado_982547)">
              <g id="Trazado_982547-2" data-name="Trazado 982547" transform="translate(9 6)" fill="#fef4f5">
                <path d="M 45 88.5 C 39.12687683105469 88.5 33.43022537231445 87.35007476806641 28.06830024719238 85.08217620849609 C 22.88852500915527 82.89131164550781 18.23629951477051 79.75458526611328 14.2408504486084 75.75914764404297 C 10.24541282653809 71.76370239257812 7.108687400817871 67.11147308349609 4.917825222015381 61.93170166015625 C 2.649924993515015 56.56977462768555 1.5 50.87312316894531 1.5 45 C 1.5 39.12687683105469 2.649924993515015 33.43022537231445 4.917825222015381 28.06830024719238 C 7.108687400817871 22.88852500915527 10.24541282653809 18.23629951477051 14.2408504486084 14.2408504486084 C 18.23629951477051 10.24541282653809 22.88852500915527 7.108687400817871 28.06830024719238 4.917825222015381 C 33.43022537231445 2.649924993515015 39.12687683105469 1.5 45 1.5 C 50.87312316894531 1.5 56.56977462768555 2.649924993515015 61.93170166015625 4.917825222015381 C 67.11147308349609 7.108687400817871 71.76370239257812 10.24541282653809 75.75914764404297 14.2408504486084 C 79.75458526611328 18.23629951477051 82.89131164550781 22.88852500915527 85.08217620849609 28.06830024719238 C 87.35007476806641 33.43022537231445 88.5 39.12687683105469 88.5 45 C 88.5 50.87312316894531 87.35007476806641 56.56977462768555 85.08217620849609 61.93170166015625 C 82.89131164550781 67.11147308349609 79.75458526611328 71.76370239257812 75.75914764404297 75.75914764404297 C 71.76370239257812 79.75458526611328 67.11147308349609 82.89131164550781 61.93170166015625 85.08217620849609 C 56.56977462768555 87.35007476806641 50.87312316894531 88.5 45 88.5 Z" stroke="none"/>
                <path d="M 45 3 C 39.32871246337891 3 33.82865524291992 4.110054016113281 28.65262985229492 6.299339294433594 C 23.65165710449219 8.414573669433594 19.15968322753906 11.44334411621094 15.301513671875 15.301513671875 C 11.44334411621094 19.15968322753906 8.414573669433594 23.65165710449219 6.299339294433594 28.65262985229492 C 4.110054016113281 33.82865524291992 3 39.32871246337891 3 45 C 3 50.67128753662109 4.110054016113281 56.17134475708008 6.299339294433594 61.34737396240234 C 8.414573669433594 66.34834289550781 11.44334411621094 70.84031677246094 15.301513671875 74.698486328125 C 19.15968322753906 78.55665588378906 23.65165710449219 81.58542633056641 28.65262985229492 83.70066070556641 C 33.82865524291992 85.88994598388672 39.32871246337891 87 45 87 C 50.67128753662109 87 56.17134475708008 85.88994598388672 61.34737396240234 83.70066070556641 C 66.34834289550781 81.58542633056641 70.84031677246094 78.55665588378906 74.698486328125 74.698486328125 C 78.55665588378906 70.84031677246094 81.58542633056641 66.34834289550781 83.70066070556641 61.34737396240234 C 85.88994598388672 56.17134475708008 87 50.67128753662109 87 45 C 87 39.32871246337891 85.88994598388672 33.82865524291992 83.70066070556641 28.65262985229492 C 81.58542633056641 23.65165710449219 78.55665588378906 19.15968322753906 74.698486328125 15.301513671875 C 70.84031677246094 11.44334411621094 66.34834289550781 8.414573669433594 61.34737396240234 6.299339294433594 C 56.17134475708008 4.110054016113281 50.67128753662109 3 45 3 M 45 0 C 69.85281372070312 0 90 20.14718627929688 90 45 C 90 69.85281372070312 69.85281372070312 90 45 90 C 20.14718627929688 90 0 69.85281372070312 0 45 C 0 20.14718627929688 20.14718627929688 0 45 0 Z" stroke="none" fill="#ff7f8f"/>
              </g>
            </g>
          </g>
        </g>
      </g>
    </g>
    <g id="igualdad-de-genero" transform="translate(638 3926.912)">
      <g id="Grupo_1154031" data-name="Grupo 1154031" transform="translate(0.948 2.945)">
        <g id="Grupo_1154028" data-name="Grupo 1154028" transform="translate(21.261 4.628)">
          <path id="Trazado_990368" data-name="Trazado 990368" d="M193.327,49.2h1.505a2.817,2.817,0,0,1,2.817,2.817v4.76a11.268,11.268,0,0,1-3.238,7.9l-1.53,1.553V101.2a2.15,2.15,0,0,1-2.15,2.15H180.705a2.15,2.15,0,0,1-2.15-2.15V65.139l-.988-1.127a7.344,7.344,0,0,1-1.825-4.845V45.495h17.586v3.7Z" transform="translate(-175.742 -45.495)" fill="#ffe6c6"/>
        </g>
        <path id="Trazado_990369" data-name="Trazado 990369" d="M183.2,66.546a3.984,3.984,0,0,0-.988-2.626,7.344,7.344,0,0,1-1.825-4.845V45.5h-4.65V59.168a7.344,7.344,0,0,0,1.825,4.845l.988,1.127V101.2a2.15,2.15,0,0,0,2.15,2.15h2.5Z" transform="translate(-154.481 -40.868)" fill="#f8d3aa"/>
        <path id="Trazado_990370" data-name="Trazado 990370" d="M202.76,248.279H187.832a1.127,1.127,0,0,1-1.127-1.127v-1.418a1.127,1.127,0,0,1,1.127-1.127H202.76a1.127,1.127,0,0,1,1.127,1.127v1.418A1.127,1.127,0,0,1,202.76,248.279Z" transform="translate(-164.059 -214.817)" fill="#d2b3ea"/>
        <path id="Trazado_990371" data-name="Trazado 990371" d="M202.76,277.338H187.832a1.127,1.127,0,0,1-1.127-1.127v-1.418a1.127,1.127,0,0,1,1.127-1.127H202.76a1.127,1.127,0,0,1,1.127,1.127v1.418A1.127,1.127,0,0,1,202.76,277.338Z" transform="translate(-164.059 -240.204)" fill="#8aadde"/>
        <path id="Trazado_990372" data-name="Trazado 990372" d="M192.783,273.666h-4.951a1.127,1.127,0,0,0-1.127,1.127v1.418a1.127,1.127,0,0,0,1.127,1.127h4.951Z" transform="translate(-164.059 -240.204)" fill="#5f90d3"/>
        <path id="Trazado_990373" data-name="Trazado 990373" d="M192.783,244.607h-4.951a1.127,1.127,0,0,0-1.127,1.127v1.418a1.127,1.127,0,0,0,1.127,1.127h4.951Z" transform="translate(-164.059 -214.817)" fill="#c39be2"/>
        <path id="Trazado_990374" data-name="Trazado 990374" d="M202.76,306.4H187.832a1.127,1.127,0,0,1-1.127-1.127v-1.418a1.127,1.127,0,0,1,1.127-1.127H202.76a1.127,1.127,0,0,1,1.127,1.127v1.418A1.127,1.127,0,0,1,202.76,306.4Z" transform="translate(-164.059 -265.591)" fill="#b1f5d5"/>
        <path id="Trazado_990375" data-name="Trazado 990375" d="M202.76,335.456H187.832a1.127,1.127,0,0,1-1.127-1.127v-1.418a1.127,1.127,0,0,1,1.127-1.127H202.76a1.127,1.127,0,0,1,1.127,1.127v1.418A1.127,1.127,0,0,1,202.76,335.456Z" transform="translate(-164.059 -290.978)" fill="#fcf0b6"/>
        <path id="Trazado_990376" data-name="Trazado 990376" d="M202.76,364.515H187.832a1.127,1.127,0,0,1-1.127-1.127V361.97a1.127,1.127,0,0,1,1.127-1.127H202.76a1.127,1.127,0,0,1,1.127,1.127v1.418A1.127,1.127,0,0,1,202.76,364.515Z" transform="translate(-164.059 -316.365)" fill="#f3af90"/>
        <path id="Trazado_990377" data-name="Trazado 990377" d="M202.76,393.574H187.832a1.127,1.127,0,0,1-1.127-1.127v-1.418a1.127,1.127,0,0,1,1.127-1.127H202.76a1.127,1.127,0,0,1,1.127,1.127v1.418A1.127,1.127,0,0,1,202.76,393.574Z" transform="translate(-164.059 -341.752)" fill="#ea9a98"/>
        <g id="Grupo_1154029" data-name="Grupo 1154029" transform="translate(0 0)">
          <path id="Trazado_990378" data-name="Trazado 990378" d="M242.962,69.9a11.267,11.267,0,0,0,2.243-6.742V58.4a2.817,2.817,0,0,0-2.817-2.817h-1.505v-2.78h-4.978a5.2,5.2,0,0,0-3.736,8.823,10.091,10.091,0,0,0-1.933,4.778l-.052.687A2.613,2.613,0,0,0,232.79,69.9Z" transform="translate(-202.037 -47.253)" fill="#f8d3aa"/>
          <path id="Trazado_990379" data-name="Trazado 990379" d="M69.451,83.97a8.155,8.155,0,0,0,12.928-.622,1.148,1.148,0,0,0-.29-1.6L80.861,80.9a1.148,1.148,0,0,0-1.6.29,4.312,4.312,0,0,1-3.557,1.878h-.031a4.311,4.311,0,0,1-3.551-1.83l-.187-.263a1.9,1.9,0,0,0-1.543-.795H35.843a1.9,1.9,0,0,0-1.543.795l-.187.263a4.31,4.31,0,0,1-3.551,1.83H30.53a4.311,4.311,0,0,1-3.557-1.878,1.148,1.148,0,0,0-1.6-.29l-1.228.851a1.148,1.148,0,0,0-.29,1.6,8.155,8.155,0,0,0,12.928.622Z" transform="translate(-21.611 -71.168)" fill="#dfae91"/>
          <path id="Trazado_990380" data-name="Trazado 990380" d="M302.439,16.2a2.561,2.561,0,0,0-5.121,0v5.741a2.561,2.561,0,0,0,5.121,0Z" transform="translate(-260.694 -13.034)" fill="#ffe6c6"/>
          <path id="Trazado_990381" data-name="Trazado 990381" d="M299.727,21.938V16.2a2.561,2.561,0,0,1,1.359-2.259,2.561,2.561,0,0,0-3.766,2.259v5.741a2.56,2.56,0,0,0,3.764,2.259,2.56,2.56,0,0,1-1.357-2.259Z" transform="translate(-260.695 -13.034)" fill="#f8d3aa"/>
          <path id="Trazado_990382" data-name="Trazado 990382" d="M261.916,11.432a2.561,2.561,0,0,0-5.121,0v5.544a2.561,2.561,0,0,0,5.121,0Z" transform="translate(-225.292 -8.872)" fill="#ffe6c6"/>
          <path id="Trazado_990383" data-name="Trazado 990383" d="M259.356,16.979V11.434a2.562,2.562,0,0,1,1.283-2.216,2.561,2.561,0,0,0-3.843,2.217v5.544a2.557,2.557,0,0,0,3.841,2.215A2.558,2.558,0,0,1,259.356,16.979Z" transform="translate(-225.292 -8.874)" fill="#f8d3aa"/>
          <path id="Trazado_990384" data-name="Trazado 990384" d="M20.931,340.975H12.566A5.066,5.066,0,0,1,7.5,335.908V325.719a1.113,1.113,0,0,1,1.113-1.113H24.884A1.113,1.113,0,0,1,26,325.719v10.189a5.066,5.066,0,0,1-5.066,5.066Z" transform="translate(-7.5 -284.707)" fill="#b3e5ee"/>
          <path id="Trazado_990385" data-name="Trazado 990385" d="M364.092,340.975h8.365a5.066,5.066,0,0,0,5.066-5.066V325.719a1.113,1.113,0,0,0-1.113-1.113H360.139a1.113,1.113,0,0,0-1.113,1.113v10.189a5.066,5.066,0,0,0,5.066,5.066Z" transform="translate(-314.604 -284.707)" fill="#ffd1eb"/>
          <path id="Trazado_990386" data-name="Trazado 990386" d="M24.795,337.914H16.43a5.066,5.066,0,0,1-5.066-5.066v-8.24H8.613A1.113,1.113,0,0,0,7.5,325.72v10.189a5.066,5.066,0,0,0,5.066,5.066h8.365a5.067,5.067,0,0,0,4.682-3.129,5.1,5.1,0,0,1-.818.067Z" transform="translate(-7.5 -284.708)" fill="#86d7e5"/>
          <path id="Trazado_990387" data-name="Trazado 990387" d="M376.321,337.914h-8.365a5.066,5.066,0,0,1-5.066-5.066v-8.24h-2.751a1.113,1.113,0,0,0-1.113,1.113v10.189a5.066,5.066,0,0,0,5.066,5.066h8.365a5.067,5.067,0,0,0,4.682-3.129A5.1,5.1,0,0,1,376.321,337.914Z" transform="translate(-314.604 -284.708)" fill="#f2b2de"/>
        </g>
        <path id="Trazado_990388" data-name="Trazado 990388" d="M178.31,19.73a2.56,2.56,0,0,0-2.561,2.56v3.6a2.56,2.56,0,0,0,5.121,0v-3.6A2.56,2.56,0,0,0,178.31,19.73Z" transform="translate(-154.488 -18.358)" fill="#ffe6c6"/>
        <path id="Trazado_990389" data-name="Trazado 990389" d="M178.123,25.89v-3.6a2.561,2.561,0,0,1,1.375-2.268,2.561,2.561,0,0,0-3.749,2.268v3.6a2.561,2.561,0,0,0,3.751,2.267A2.562,2.562,0,0,1,178.123,25.89Z" transform="translate(-154.488 -18.358)" fill="#f8d3aa"/>
        <path id="Trazado_990390" data-name="Trazado 990390" d="M218.833,14.352a2.56,2.56,0,0,0-2.561,2.56v4.6a2.56,2.56,0,0,0,5.121,0v-4.6A2.56,2.56,0,0,0,218.833,14.352Z" transform="translate(-189.89 -13.659)" fill="#ffe6c6"/>
        <path id="Trazado_990391" data-name="Trazado 990391" d="M218.727,21.507v-4.6a2.56,2.56,0,0,1,1.334-2.247,2.561,2.561,0,0,0-3.787,2.247v4.6a2.561,2.561,0,0,0,3.787,2.248A2.56,2.56,0,0,1,218.727,21.507Z" transform="translate(-189.891 -13.659)" fill="#f8d3aa"/>
        <g id="XMLID_488_" transform="translate(30.561 8.332)">
          <g id="Grupo_1154030" data-name="Grupo 1154030">
            <path id="Trazado_990392" data-name="Trazado 990392" d="M255.5,79.653h-2.847a2.424,2.424,0,0,1,0-4.848h6.483a2.817,2.817,0,0,1,2.817,2.817v4.76a11.268,11.268,0,0,1-3.238,7.9l-1.321,1.341h-8.048l.32-5.056.076-.591a7.32,7.32,0,0,1,4.686-5.924Z" transform="translate(-249.341 -74.805)" fill="#ffe6c6"/>
          </g>
        </g>
        <path id="Trazado_990393" data-name="Trazado 990393" d="M192.783,389.9h-4.951a1.127,1.127,0,0,0-1.127,1.127v1.418a1.127,1.127,0,0,0,1.127,1.127h4.951Z" transform="translate(-164.059 -341.752)" fill="#e5827f"/>
        <path id="Trazado_990394" data-name="Trazado 990394" d="M192.783,360.843h-4.951a1.127,1.127,0,0,0-1.127,1.127v1.418a1.127,1.127,0,0,0,1.127,1.127h4.951Z" transform="translate(-164.059 -316.365)" fill="#f09971"/>
        <path id="Trazado_990395" data-name="Trazado 990395" d="M192.783,331.784h-4.951a1.127,1.127,0,0,0-1.127,1.127v1.418a1.127,1.127,0,0,0,1.127,1.127h4.951Z" transform="translate(-164.059 -290.978)" fill="#fbe88c"/>
        <path id="Trazado_990396" data-name="Trazado 990396" d="M192.783,302.725h-4.951a1.127,1.127,0,0,0-1.127,1.127v1.418a1.127,1.127,0,0,0,1.127,1.127h4.951Z" transform="translate(-164.059 -265.591)" fill="#91f2c5"/>
      </g>
      <g id="Grupo_1154032" data-name="Grupo 1154032" transform="translate(0 2.088)">
        <path id="Trazado_990397" data-name="Trazado 990397" d="M63.867,48.9a.948.948,0,0,0,.948-.948V43.957A2.063,2.063,0,0,0,62.754,41.9h-.437L58.01,19.074A9.11,9.11,0,0,0,62.5,15.665a2.1,2.1,0,0,0-.529-2.917L60.738,11.9a2.1,2.1,0,0,0-2.917.529,3.437,3.437,0,0,1-.9.891l-.191-1.011a1.972,1.972,0,0,0-1.96-1.625h0a1.972,1.972,0,0,0-1.96,1.625l-.128.676a3.488,3.488,0,0,1-.453-.518l-.187-.262a2.849,2.849,0,0,0-2.315-1.193H43.64V6.2a3.506,3.506,0,0,0-5.792-2.661,3.5,3.5,0,0,0-5.675,0,3.494,3.494,0,0,0-5.154.65,3.5,3.5,0,0,0-5.758,2.688v3.6a3.522,3.522,0,0,0,.04.531H15.18A2.848,2.848,0,0,0,12.865,12.2l-.187.263a3.484,3.484,0,0,1-.534.592L12,12.305a2,2,0,0,0-3.921,0l-.18.952a3.447,3.447,0,0,1-.814-.832A2.1,2.1,0,0,0,4.171,11.9l-1.228.851a2.1,2.1,0,0,0-.529,2.917,9.109,9.109,0,0,0,4.4,3.377L2.5,41.9H2.061A2.063,2.063,0,0,0,0,43.957V54.147a6.021,6.021,0,0,0,6.014,6.014h8.365a6.021,6.021,0,0,0,6.014-6.014V52.262a.948.948,0,0,0-1.9,0v1.885a4.123,4.123,0,0,1-4.118,4.118H6.014A4.123,4.123,0,0,1,1.9,54.147V43.957a.165.165,0,0,1,.165-.165H18.332a.166.166,0,0,1,.165.165v4.266a.948.948,0,0,0,1.9,0V43.957A2.063,2.063,0,0,0,18.332,41.9h-.746L13.255,18.942A9.082,9.082,0,0,0,16.547,16.7H21.26v4.55a8.29,8.29,0,0,0,2.06,5.471l.754.859v4.318a2.077,2.077,0,0,0-1.428,1.97V35.28a2.061,2.061,0,0,0,.335,1.127,2.061,2.061,0,0,0-.335,1.127v1.418a2.06,2.06,0,0,0,.335,1.127,2.06,2.06,0,0,0-.335,1.127v1.418a2.06,2.06,0,0,0,.335,1.127,2.06,2.06,0,0,0-.335,1.127V46.3a2.06,2.06,0,0,0,.335,1.127,2.06,2.06,0,0,0-.335,1.127v1.418a2.06,2.06,0,0,0,.335,1.127,2.06,2.06,0,0,0-.335,1.127v1.418a2.077,2.077,0,0,0,1.428,1.97v9.817a.948.948,0,1,0,1.9,0V55.716H38.4v9.712a.948.948,0,1,0,1.9,0V55.611a2.078,2.078,0,0,0,1.428-1.97V52.223a2.06,2.06,0,0,0-.335-1.127,2.061,2.061,0,0,0,.335-1.127V48.551a2.06,2.06,0,0,0-.335-1.127,2.061,2.061,0,0,0,.335-1.127V44.878a2.06,2.06,0,0,0-.335-1.127,2.061,2.061,0,0,0,.335-1.127V41.206a2.06,2.06,0,0,0-.335-1.127,2.061,2.061,0,0,0,.335-1.127V37.534a2.06,2.06,0,0,0-.335-1.127,2.061,2.061,0,0,0,.335-1.127V33.862a2.077,2.077,0,0,0-1.428-1.97V28.7l1.257-1.277a12.146,12.146,0,0,0,3.51-8.569V16.695h3.3a9.087,9.087,0,0,0,3.2,2.211L47.229,41.9h-.746a2.063,2.063,0,0,0-2.061,2.061V54.147a6.021,6.021,0,0,0,6.014,6.014H58.8a6.021,6.021,0,0,0,6.014-6.014V51.99a.948.948,0,1,0-1.9,0v2.157A4.123,4.123,0,0,1,58.8,58.265H50.436a4.123,4.123,0,0,1-4.118-4.118V43.957a.166.166,0,0,1,.165-.165H62.754a.166.166,0,0,1,.165.165v3.994a.948.948,0,0,0,.948.948ZM59.379,13.506a.2.2,0,0,1,.279-.051l1.228.851a.2.2,0,0,1,.051.279,7.216,7.216,0,0,1-5.877,3.1H55a7.2,7.2,0,0,1-1.254-.112l.351-1.861a5.45,5.45,0,0,0,.913.078h.037A5.248,5.248,0,0,0,59.379,13.506Zm-4.7-.849c.008-.045.015-.081.1-.081s.089.036.1.081l.233,1.237-.061,0h-.031a3.493,3.493,0,0,1-.561-.046ZM40.132,4.586A1.615,1.615,0,0,1,41.745,6.2v4.159a3.786,3.786,0,0,0-.446-.027H38.52V6.2a1.614,1.614,0,0,1,1.613-1.613ZM33.4,5.6a1.613,1.613,0,1,1,3.225,0V10.33H34.816a3.352,3.352,0,0,0-1.235.235,1.6,1.6,0,0,1-.182-.737V5.6Zm-5.121.6a1.613,1.613,0,1,1,3.225,0v4.6a1.613,1.613,0,1,1-3.225,0Zm-5.121.679a1.613,1.613,0,0,1,3.225,0v3.6a1.613,1.613,0,1,1-3.225,0ZM9.944,12.657c.008-.045.015-.081.1-.081s.089.036.1.081l.228,1.207A3.512,3.512,0,0,1,9.9,13.9H9.873c-.054,0-.108,0-.162-.006ZM3.973,14.585a.2.2,0,0,1,.051-.279l1.228-.851a.2.2,0,0,1,.15-.033.2.2,0,0,1,.129.083,5.252,5.252,0,0,0,4.336,2.286H9.9a5.456,5.456,0,0,0,.821-.064l.352,1.865a7.21,7.21,0,0,1-1.164.095H9.848A7.215,7.215,0,0,1,3.973,14.585ZM15.657,41.9H4.427L8.654,19.5a9.082,9.082,0,0,0,1.18.086h.075a9.1,9.1,0,0,0,1.514-.129Zm.465-27.1a.948.948,0,0,0-.723.336,7.209,7.209,0,0,1-2.5,1.9L12.53,15.1a5.313,5.313,0,0,0,1.691-1.536l.187-.263a.95.95,0,0,1,.772-.4h7.06a3.5,3.5,0,0,0,4.941.115,3.5,3.5,0,0,0,4.272.913,3.344,3.344,0,0,0,.176.867H16.122ZM39.828,37.534v1.418a.18.18,0,0,1-.179.179H24.721a.18.18,0,0,1-.179-.179V37.534a.18.18,0,0,1,.179-.179H39.649A.18.18,0,0,1,39.828,37.534Zm0,3.672v1.418a.18.18,0,0,1-.179.179H24.721a.18.18,0,0,1-.179-.179V41.206a.18.18,0,0,1,.179-.179H39.649A.18.18,0,0,1,39.828,41.206Zm0,3.672V46.3a.18.18,0,0,1-.179.179H24.721a.18.18,0,0,1-.179-.179V44.878a.18.18,0,0,1,.179-.179H39.649a.18.18,0,0,1,.179.179Zm0,3.672v1.418a.18.18,0,0,1-.179.179H24.721a.18.18,0,0,1-.179-.179V48.551a.18.18,0,0,1,.179-.179H39.649A.18.18,0,0,1,39.828,48.551Zm0,3.672v1.418a.18.18,0,0,1-.179.179H24.721a.18.18,0,0,1-.179-.179V52.223a.18.18,0,0,1,.179-.179H39.649A.18.18,0,0,1,39.828,52.223Zm3.339-33.369a10.261,10.261,0,0,1-2.965,7.24l-1.529,1.554a.947.947,0,0,0-.272.665v3.475H37a.948.948,0,1,0,0,1.9h2.647a.179.179,0,0,1,.179.179V35.28a.18.18,0,0,1-.179.179H24.721a.18.18,0,0,1-.179-.179V33.862a.179.179,0,0,1,.179-.179h8.243a.948.948,0,1,0,0-1.9H25.97v-4.57a.948.948,0,0,0-.235-.625l-.989-1.127a6.4,6.4,0,0,1-1.589-4.22V16.7H33.269a3.343,3.343,0,0,0,.685.265,8.249,8.249,0,0,0-2.989,5.371l-.076.592a.948.948,0,0,0,.82,1.06.963.963,0,0,0,.121.008.948.948,0,0,0,.939-.828l.076-.592a6.358,6.358,0,0,1,4.079-5.157l.912-.343h.526a.948.948,0,0,0,0-1.9H34.815a1.476,1.476,0,1,1,0-2.951H41.3a1.87,1.87,0,0,1,1.868,1.868v4.76Zm6.343-3.719a.947.947,0,0,0-.723-.336H45.063v-.706a3.748,3.748,0,0,0-.194-1.19H49.73a.949.949,0,0,1,.772.4l.187.262a5.321,5.321,0,0,0,1.606,1.487L51.928,17a7.21,7.21,0,0,1-2.417-1.86Zm3.885,4.3a9.089,9.089,0,0,0,1.6.145h.074a9.086,9.086,0,0,0,1.089-.073L60.388,41.9H49.158Z" transform="translate(0 -2.088)"/>
        <path id="Trazado_990398" data-name="Trazado 990398" d="M43.195,352.206a4.194,4.194,0,1,0-3.554-1.975l-.984.984-.208-.208a.948.948,0,0,0-1.34,1.34l.208.208-.388.388a.948.948,0,0,0,1.34,1.34l.388-.388.183.183a.948.948,0,0,0,1.34-1.34L40,352.555l.984-.984A4.161,4.161,0,0,0,43.195,352.206Zm0-6.482a2.293,2.293,0,1,1-2.293,2.293A2.3,2.3,0,0,1,43.195,345.725Z" transform="translate(-32.02 -300.644)"/>
        <path id="Trazado_990399" data-name="Trazado 990399" d="M401.451,351.977a.948.948,0,0,0,.948-.948v-2.557a.948.948,0,0,0-.948-.948h-2.557a.948.948,0,0,0,0,1.9h.269l-1.071,1.071a4.188,4.188,0,1,0,1.341,1.34l1.071-1.071v.268a.947.947,0,0,0,.948.948Zm-3.952,3.691a2.292,2.292,0,1,1,0-3.243A2.3,2.3,0,0,1,397.5,355.668Z" transform="translate(-342.193 -303.872)"/>
      </g>
    </g>
  </g>
</svg>
