<svg xmlns="http://www.w3.org/2000/svg" xmlns:xlink="http://www.w3.org/1999/xlink" width="485.9" height="476.471" viewBox="0 0 485.9 476.471">
  <defs>
    <clipPath id="clip-path">
      <path id="Trazado_990605" data-name="Trazado 990605" d="M321.228,152.152s-27.165-11.984-22.97-28.763,20.573-4.394,25.566,14.381c1.4-11.385,6.52-24.791,17.042-22.282S346.4,144.761,321.228,152.152Z" transform="translate(-297.818 -115.181)"/>
    </clipPath>
  </defs>
  <g id="Grupo_1154085" data-name="Grupo 1154085" transform="translate(-1143.029 -3984.962)">
    <g id="OBJECTS" transform="translate(1143.484 3985.433)">
      <g id="Grupo_1154040" data-name="Grupo 1154040" transform="translate(0 0)">
        <g id="Grupo_1154036" data-name="Grupo 1154036" transform="translate(0 0.001)">
          <g id="Grupo_1154034" data-name="Grupo 1154034">
            <path id="Trazado_990400" data-name="Trazado 990400" d="M26.44,394.118c-2.229-9.431-3.505-19.364-1.175-28.772,4.451-17.967,21.141-30.955,25.594-48.921,6.7-27.052-16.047-52.014-21.868-79.27-5.226-24.466,3.579-49.7,14.521-72.2,10.314-21.208,22.819-41.635,39.539-58.265C126.317,63.658,195.441,51.66,253.213,71.32c18.979,6.459,37.06,16.007,56.815,19.427,18.138,3.139,36.762.941,55.118,2.33s37.864,7.378,48.512,22.393c4.1,5.784,6.9,12.87,12.833,16.751,5.023,3.285,11.39,3.635,16.92,5.969,11.221,4.738,17.351,16.712,21.9,28.009a319.722,319.722,0,0,1,20.7,79.925c1.86,14.949,2.239,31.509-6.928,43.461-7.114,9.274-18.931,14.215-25.475,23.9-8.48,12.548-5.869,29.369-1.557,43.888s10.06,29.587,6.791,44.375c-3.465,15.673-16.76,27.72-31.586,33.871s-31.17,7.347-47.193,8.3q-79.29,4.7-158.778,3.868c-53.282-.56-106.3-3.734-159.439-7.272-9.642-.642-15.426-.014-20.852-8.894C34.087,420.306,29.475,406.956,26.44,394.118Z" transform="translate(-7.078 -19.409)" fill="#ffe1f4"/>
            <path id="Trazado_990401" data-name="Trazado 990401" d="M61.6,416.955c-5.918-12.842-10.129-27.441-5.862-40.887,2.349-7.4,7.081-13.831,10.8-20.681,13.48-24.81,13.343-54.695,7.422-82.151-3.415-15.835-8.663-31.652-7.544-47.794.894-12.913,5.829-25.208,11.059-37.11,10.337-23.522,22.53-47.077,42.118-64.168C149.542,98.035,192.08,90.9,232.29,89.083c15.478-.7,31.905-.549,45.173,7.224,21.5,12.6,28.3,41.286,49.531,54.311,24.556,15.062,59.543,3.959,83.75,19.546,18.362,11.824,24.373,35.023,27.469,56.21a469.8,469.8,0,0,1,2.267,117.862c-2.609,24.359-7.589,49.581-22.95,69-13.317,16.836-33.387,27.717-54.355,33.713s-42.989,7.5-64.823,8.5q-54.054,2.465-108.2,1.1-27.047-.685-54.057-2.331c-14.3-.871-33.124.74-46.654-4.209C76.131,445.135,67.03,428.737,61.6,416.955Z" transform="translate(-6.341 -18.753)" fill="#ffc2e9"/>
            <path id="Trazado_990402" data-name="Trazado 990402" d="M16.956,413.159c-7.375-15.37-12.622-32.842-7.3-48.935,2.927-8.859,8.824-16.553,13.462-24.752,16.8-29.693,16.627-65.46,9.248-98.321-4.255-18.952-10.794-37.882-9.4-57.2,1.115-15.454,7.263-30.17,13.782-44.414,12.881-28.152,28.075-56.343,52.485-76.8,37.316-31.271,90.323-39.809,140.429-41.985,19.287-.838,39.758-.657,56.291,8.646,26.8,15.08,35.261,49.413,61.721,65,30.6,18.026,74.2,4.738,104.361,23.393,22.881,14.15,30.37,41.916,34.229,67.273a540.253,540.253,0,0,1,2.826,141.06c-3.251,29.154-9.456,59.339-28.6,82.583-16.6,20.149-41.6,33.172-67.731,40.349s-53.57,8.975-80.777,10.17q-67.359,2.951-134.827,1.314-33.7-.821-67.362-2.79c-17.816-1.042-41.277.885-58.136-5.038C35.063,446.886,23.721,427.26,16.956,413.159Z" transform="translate(-7.484 -20.434)" fill="none" stroke="#fff" stroke-miterlimit="10" stroke-width="1"/>
            <path id="Trazado_990403" data-name="Trazado 990403" d="M30.156,421.18c-6.3-13.609-10.777-29.079-6.238-43.328,2.5-7.845,7.535-14.656,11.5-21.917,14.343-26.292,14.2-57.961,7.9-87.058-3.634-16.78-9.217-33.542-8.028-50.649.952-13.683,6.2-26.713,11.768-39.326,11-24.927,23.974-49.888,44.817-68C123.734,83.213,169,75.654,211.783,73.728c16.469-.742,33.949-.582,48.068,7.656,22.883,13.351,30.109,43.752,52.7,57.554,26.13,15.962,63.358,4.195,89.115,20.713,19.539,12.53,25.934,37.115,29.229,59.567a495.883,495.883,0,0,1,2.413,124.9c-2.776,25.814-8.075,52.541-24.421,73.122-14.171,17.841-35.525,29.371-57.837,35.726s-45.743,7.948-68.976,9q-57.518,2.613-115.13,1.164-28.781-.727-57.522-2.47c-15.214-.923-35.246.784-49.643-4.46C45.618,451.043,35.934,433.665,30.156,421.18Z" transform="translate(-7.126 -19.131)" fill="none" stroke="#fff" stroke-miterlimit="10" stroke-width="1"/>
            <path id="Trazado_990404" data-name="Trazado 990404" d="M83,436.336c-6.3-10.255-10.777-21.911-6.238-32.648,2.5-5.911,7.535-11.044,11.5-16.514,14.343-19.81,14.2-43.673,7.9-65.6-3.634-12.644-9.217-25.274-8.026-38.163.952-10.31,6.2-20.129,11.768-29.633,11-18.782,23.974-37.591,44.817-51.238,31.865-20.863,77.128-26.559,119.914-28.011,16.469-.558,33.949-.439,48.068,5.768,22.883,10.06,30.109,32.967,52.705,43.367,26.13,12.026,63.358,3.161,89.115,15.607,19.539,9.441,25.934,27.966,29.229,44.883a282.514,282.514,0,0,1,2.413,94.112c-2.776,19.451-8.075,39.589-24.421,55.1-14.171,13.443-35.526,22.131-57.837,26.92s-45.743,5.989-68.976,6.785q-57.519,1.969-115.13.877-28.781-.547-57.522-1.862c-15.214-.7-35.246.59-49.643-3.361C98.465,458.839,88.78,445.745,83,436.336Z" transform="translate(-5.828 -16.652)" fill="none" stroke="#fff" stroke-miterlimit="10" stroke-width="1"/>
          </g>
          <g id="Grupo_1154035" data-name="Grupo 1154035" transform="translate(20.568 395.6)">
            <ellipse id="Elipse_11563" data-name="Elipse 11563" cx="229.717" cy="33.667" rx="229.717" ry="33.667" fill="#ffa6ea"/>
            <ellipse id="Elipse_11564" data-name="Elipse 11564" cx="158.108" cy="22.802" rx="158.108" ry="22.802" transform="translate(20.051 10.098)" fill="#ff89ea"/>
            <ellipse id="Elipse_11565" data-name="Elipse 11565" cx="43.8" cy="10.796" rx="43.8" ry="10.796" transform="translate(354.42 15.352)" fill="#ff89ea"/>
          </g>
        </g>
        <g id="Grupo_1154037" data-name="Grupo 1154037" transform="translate(8.161)">
          <path id="Trazado_990405" data-name="Trazado 990405" d="M35.03,57.352h0A12.406,12.406,0,0,0,22.624,44.947h0A12.406,12.406,0,0,0,35.03,32.541h0A12.406,12.406,0,0,0,47.435,44.947h0A12.406,12.406,0,0,0,35.03,57.352Z" transform="translate(-15.274 -20.135)" fill="#81daff"/>
          <path id="Trazado_990406" data-name="Trazado 990406" d="M27.856,485.612h0A12.406,12.406,0,0,0,15.45,473.207h0A12.406,12.406,0,0,0,27.856,460.8h0a12.406,12.406,0,0,0,12.406,12.406h0A12.406,12.406,0,0,0,27.856,485.612Z" transform="translate(-15.45 -9.612)" fill="#81daff"/>
          <path id="Trazado_990407" data-name="Trazado 990407" d="M449.524,124.414h0a12.406,12.406,0,0,0-12.406-12.406h0A12.406,12.406,0,0,0,449.524,99.6h0a12.406,12.406,0,0,0,12.406,12.406h0A12.406,12.406,0,0,0,449.524,124.414Z" transform="translate(-5.089 -18.488)" fill="#81daff"/>
          <path id="Trazado_990408" data-name="Trazado 990408" d="M460.853,147.051h0a12.406,12.406,0,0,0-12.406-12.406h0a12.406,12.406,0,0,0,12.406-12.406h0a12.406,12.406,0,0,0,12.406,12.406h0A12.4,12.4,0,0,0,460.853,147.051Z" transform="translate(-4.81 -17.931)" fill="#81daff"/>
          <path id="Trazado_990409" data-name="Trazado 990409" d="M461.631,480.909h0A12.406,12.406,0,0,0,449.225,468.5h0A12.406,12.406,0,0,0,461.631,456.1h0A12.406,12.406,0,0,0,474.036,468.5h0A12.406,12.406,0,0,0,461.631,480.909Z" transform="translate(-4.791 -9.728)" fill="#81daff"/>
          <path id="Trazado_990410" data-name="Trazado 990410" d="M47.137,380.321h0a12.406,12.406,0,0,0-12.406-12.406h0A12.406,12.406,0,0,0,47.137,355.51h0a12.406,12.406,0,0,0,12.406,12.406h0A12.406,12.406,0,0,0,47.137,380.321Z" transform="translate(-14.976 -12.199)" fill="#81daff"/>
          <path id="Trazado_990411" data-name="Trazado 990411" d="M54.3,45.244h0A12.406,12.406,0,0,0,41.89,32.839h0A12.406,12.406,0,0,0,54.3,20.433h0A12.406,12.406,0,0,0,66.7,32.839h0A12.406,12.406,0,0,0,54.3,45.244Z" transform="translate(-14.8 -20.433)" fill="#81daff"/>
        </g>
        <g id="Grupo_1154039" data-name="Grupo 1154039" transform="translate(240.534 7.476)">
          <path id="Trazado_990412" data-name="Trazado 990412" d="M345.547,61.372H242.25s8.832-8.934,15.932-11.24a10.523,10.523,0,0,1,2.439-.523,8.074,8.074,0,0,1,8.094,4.436,10.282,10.282,0,0,1,.943,2.305,10.705,10.705,0,0,1,.092-1.988c.307-2.438,1.527-6.414,6.076-7.766,6.742-2.008,11.762,6.455,11.762,6.455S306.245,26.219,317.577,27.8c8.822,1.229,10.43,18.586,10.707,26.2.082,2.162.051,3.535.051,3.535a20.532,20.532,0,0,1,8.893-3.76C342.822,52.765,345.547,61.372,345.547,61.372Z" transform="translate(-242.25 -27.73)" fill="#ffc2e9"/>
          <path id="Trazado_990413" data-name="Trazado 990413" d="M463.13,74.361H355.54a19.8,19.8,0,0,1,5.072-6.916,20.5,20.5,0,0,1,5.83-3.7c7.971-3.361,16.086,2.838,16.485,3.145-.061-.225-.984-3.647,3.453-5.727,4.59-2.152,8.463,3.3,8.463,3.3s13.483-31.854,32.715-27.971a14.642,14.642,0,0,1,10.953,8.658c4.58,9.887.953,24.334.953,24.334s4.016-2.725,11.332-3.586S463.13,74.361,463.13,74.361Z" transform="translate(-239.466 -27.522)" fill="#ffc2e9"/>
          <g id="Grupo_1154038" data-name="Grupo 1154038" transform="translate(0 17.628)" opacity="0.25">
            <path id="Trazado_990414" data-name="Trazado 990414" d="M463.13,74.146H355.54a19.8,19.8,0,0,1,5.072-6.916c8.678.338,17.346,1.527,26,2.193,6.086-.154,12.131-.533,18.012-.984a90.71,90.71,0,0,0,13.77-2.059,34.831,34.831,0,0,0,11.5-7.2,45.862,45.862,0,0,0,7.131-12.08,5.6,5.6,0,0,1,1.486-2.162c4.58,9.887.953,24.334.953,24.334s4.016-2.725,11.332-3.586S463.13,74.146,463.13,74.146Z" transform="translate(-239.466 -44.935)" fill="#e58cd4"/>
            <path id="Trazado_990415" data-name="Trazado 990415" d="M345.547,60.835H242.25s8.832-8.934,15.932-11.24c3.463,1.475,6.977,2.8,10.533,3.914.338.113.686.215,1.035.318A77.965,77.965,0,0,0,296.2,57.4a246.859,246.859,0,0,0,32.079-3.945c.082,2.162.051,3.535.051,3.535a20.532,20.532,0,0,1,8.893-3.76C342.822,52.228,345.547,60.835,345.547,60.835Z" transform="translate(-242.25 -44.82)" fill="#e58cd4"/>
          </g>
        </g>
      </g>
      <g id="Grupo_1154084" data-name="Grupo 1154084" transform="translate(27.06 38.178)">
        <g id="Grupo_1154049" data-name="Grupo 1154049" transform="translate(16.26 29.068)">
          <g id="Grupo_1154041" data-name="Grupo 1154041" transform="translate(101.506 55.343)">
            <path id="Trazado_990416" data-name="Trazado 990416" d="M148.837,198.9s3.579-3.474,2.527-11.266c-1.346-9.973-6.746-40.147,8.68-41.5,1.6-3.54,11.44-8.765,24.222-4.383s15.478,14.676,15.478,24.278-4.214,15.727-1.011,21.6C198.228,189.625,183.057,202.1,148.837,198.9Z" transform="translate(-148.837 -140.081)" fill="#56b4ff"/>
            <path id="Trazado_990417" data-name="Trazado 990417" d="M154.9,186.288a21.834,21.834,0,0,1-.416,7.483" transform="translate(-148.698 -138.946)" fill="none" stroke="#000" stroke-miterlimit="10" stroke-width="0.5"/>
            <path id="Trazado_990418" data-name="Trazado 990418" d="M159.013,193.76l.652-7.994" transform="translate(-148.587 -138.959)" fill="none" stroke="#000" stroke-miterlimit="10" stroke-width="0.5"/>
            <path id="Trazado_990419" data-name="Trazado 990419" d="M189.334,148.942a23.262,23.262,0,0,1,4.486,10.618,46.316,46.316,0,0,1,.337,6.86" transform="translate(-147.842 -139.864)" fill="none" stroke="#000" stroke-miterlimit="10" stroke-width="0.5"/>
            <path id="Trazado_990420" data-name="Trazado 990420" d="M193.254,175.553a17.529,17.529,0,0,0,.769,10.578" transform="translate(-147.757 -139.21)" fill="none" stroke="#000" stroke-miterlimit="10" stroke-width="0.5"/>
            <path id="Trazado_990421" data-name="Trazado 990421" d="M191.32,186.643a6.654,6.654,0,0,1-.663-5.249" transform="translate(-147.816 -139.066)" fill="none" stroke="#000" stroke-miterlimit="10" stroke-width="0.5"/>
          </g>
          <g id="Grupo_1154043" data-name="Grupo 1154043">
            <path id="Trazado_990422" data-name="Trazado 990422" d="M240.28,106.167a8.581,8.581,0,0,1-1.967,4.508,9.315,9.315,0,0,1-2.684,2.234s1.68,36.239-6.065,67.048a54.575,54.575,0,0,1-37.09,39.559c.082.225.164.451.246.686,5.02,14.385,11.229,45.02,11.721,51.495-6.065,4.211-48.411,10.953-48.411,10.953s-.7-25.788-.84-39.272c-.041-3.75-.041-6.557.031-7.582-2.695,4.549-25.286,18.2-33.545,16.516a3.992,3.992,0,0,1-.471-.123c-7.971-2.049-12.674-14.211-12.674-14.211s12.305-1.68,27.243-10.994A97.305,97.305,0,0,0,150,215.8l.01-.01c4.037-3.77,7.643-7.592,10.451-10.809a55.642,55.642,0,0,0,6.055-7.787,4.046,4.046,0,0,0,.266-.932c.553-3.217-.963-10.072-1.117-10.533l7.52.369h.01l6.127.307s-.021.133-.041.379a30.542,30.542,0,0,0,2.09,13.2c.246.635.523,1.281.82,1.936,3.873,8.422,30.778-17.51,35.563-39.784,4.887-22.756,5.727-52.253,5.727-52.253s-8.084-4.047-8.084-7.254c0-3.125,8.35,1.465,8.75,1.68-.2-.533-6.68-17.367-3.7-18.2,2.93-.82,6.66,11.127,6.906,11.926-.113-.779-1.742-11.772,1.025-11.926,2.859-.174,3.535,11.629,3.535,11.629s.676-10.615,3.033-10.451S236.3,98.913,236.3,98.913s2.193-8.422,3.975-8.76S240.854,101.444,240.28,106.167Z" transform="translate(-48.321 -86.066)" fill="#e07553"/>
            <g id="Grupo_1154042" data-name="Grupo 1154042" transform="translate(117.349 24.366)">
              <path id="Trazado_990423" data-name="Trazado 990423" d="M233.8,112.324s1.68,36.239-6.065,67.048a54.575,54.575,0,0,1-37.09,39.559c.082.225.164.451.246.686-.994.1-1.988.143-3,.154-6.608.041-6.588-10.2,0-10.246,17.787-.1,30.522-19.641,36.178-34.436a105.267,105.267,0,0,0,6.229-27.407c.5-5.215.727-10.461.768-15.7.02-2.623-.01-5.256-.072-7.879-.02-.727-.43-4.18-.082-5.318a4.9,4.9,0,0,1-.943-1.824l-.123-.43a5.132,5.132,0,0,1,1.322-4.99c.092-.082.184-.174.277-.256a4.978,4.978,0,0,1,5.041-1.2A9.315,9.315,0,0,1,233.8,112.324Z" transform="translate(-163.842 -109.848)" fill="#d85b39"/>
              <path id="Trazado_990424" data-name="Trazado 990424" d="M180.007,197.587a22.792,22.792,0,0,1-6.721-1.086,42.4,42.4,0,0,1-5.359-1.609c-.85-.307-1.68-.645-2.51-1.025.553-3.217-.963-10.072-1.117-10.533l7.52.369h.01a21.181,21.181,0,0,0,2.367.625,30.009,30.009,0,0,0,3.719.061A30.542,30.542,0,0,0,180.007,197.587Z" transform="translate(-164.3 -108.042)" fill="#d85b39"/>
            </g>
            <path id="Trazado_990425" data-name="Trazado 990425" d="M162.385,207.658q-1.521,5.855-3.053,11.711a5.277,5.277,0,0,1,.379,3.5q-1.629,7.761-3.586,15.461a4.585,4.585,0,0,1-1.24,2.193c-.041-3.75-.041-6.557.031-7.582-2.695,4.549-25.286,18.2-33.545,16.516a4,4,0,0,1-.471-.123,83.7,83.7,0,0,0,28.8-36.393l.01-.01c4.037-3.77,7.643-7.592,10.451-10.809A4.752,4.752,0,0,1,162.385,207.658Z" transform="translate(-48.017 -83.214)" fill="#d85b39"/>
            <path id="Trazado_990426" data-name="Trazado 990426" d="M85.138,246.006s-15.141,4.352-18.6,3.2c-2.948-2.9-8.5-4.925-9.449-3.132s5.221,4.946,5.221,4.946S48.906,257.869,50,260.094s9.8-1.906,9.8-1.906-8.25,5.365-7.419,6.822,8.8-2.558,8.8-2.558-8.065,5.164-6.958,6.663,7.681-2.667,7.681-2.667-7.278,6.154-5.133,7.46,9.523-6.676,9.523-6.676,16.278.016,23.389-8.165C88.88,255.338,85.138,246.006,85.138,246.006Z" transform="translate(-49.761 -82.151)" fill="#e07553"/>
            <path id="Trazado_990427" data-name="Trazado 990427" d="M225.468,109.019a21.89,21.89,0,0,1,2.688-6.91,7.417,7.417,0,0,1,6.2-3.525" transform="translate(-45.448 -85.758)" fill="none" stroke="#000" stroke-miterlimit="10" stroke-width="0.5"/>
            <path id="Trazado_990428" data-name="Trazado 990428" d="M65.1,252.839a17.477,17.477,0,0,0-1.273,9.846" transform="translate(-49.425 -81.968)" fill="none" stroke="#000" stroke-miterlimit="10" stroke-width="0.5"/>
            <path id="Trazado_990429" data-name="Trazado 990429" d="M56.459,273.441a4.318,4.318,0,0,0,3.286-1.075,32.061,32.061,0,0,0,6.588-6.2" transform="translate(-49.601 -81.64)" fill="none" stroke="#000" stroke-miterlimit="10" stroke-width="0.5"/>
            <path id="Trazado_990430" data-name="Trazado 990430" d="M54.029,268.3a1.368,1.368,0,0,0,1.282.623,3.961,3.961,0,0,0,1.427-.442q3.121-1.431,6.163-3.03" transform="translate(-49.66 -81.658)" fill="none" stroke="#000" stroke-miterlimit="10" stroke-width="0.5"/>
            <path id="Trazado_990431" data-name="Trazado 990431" d="M52.3,264.4a2.028,2.028,0,0,0,1.5.476,5.5,5.5,0,0,0,1.566-.392,41.147,41.147,0,0,0,6.04-2.785" transform="translate(-49.703 -81.75)" fill="none" stroke="#000" stroke-miterlimit="10" stroke-width="0.5"/>
            <path id="Trazado_990432" data-name="Trazado 990432" d="M49.765,259.325a2.029,2.029,0,0,0,1.931,1.264,5.962,5.962,0,0,0,2.371-.609l6.024-2.475" transform="translate(-49.765 -81.853)" fill="none" stroke="#000" stroke-miterlimit="10" stroke-width="0.5"/>
            <path id="Trazado_990433" data-name="Trazado 990433" d="M58.151,245.524c-.077-.031-.066-.156,0-.2a.351.351,0,0,1,.241-.034,12.413,12.413,0,0,1,7.889,4.067" transform="translate(-49.56 -82.153)" fill="none" stroke="#000" stroke-miterlimit="10" stroke-width="0.5"/>
          </g>
          <path id="Trazado_990434" data-name="Trazado 990434" d="M96.888,239.241" transform="translate(-48.607 -82.302)" fill="none" stroke="#000" stroke-miterlimit="10" stroke-width="0.5"/>
          <g id="Grupo_1154044" data-name="Grupo 1154044" transform="translate(105.104 181.952)">
            <path id="Trazado_990435" data-name="Trazado 990435" d="M152.348,274.412s39.219-3.479,52.2-10.758c2.529,9.241,11.126,48.854,14.329,73.465S229.831,427.3,229.831,427.3s-14.5,6.912-22.251,5.562c-3.371-8.934-14.834-31.522-13.991-50.064s2.866-16.014,2.023-22.757-10.451-70.629-10.451-70.629l-2.7,1.18s0,55.627-1.011,74.843-1.011,66.247-1.011,66.247-15.34,7.586-25.791,2.192c1.011-8.934-2.7-65.4-1.348-82.934S152.348,274.412,152.348,274.412Z" transform="translate(-152.348 -263.654)" fill="#812cff"/>
            <path id="Trazado_990436" data-name="Trazado 990436" d="M175.4,352.079a4.411,4.411,0,1,0-4.411,4.411A4.41,4.41,0,0,0,175.4,352.079Z" transform="translate(-151.998 -261.59)" fill="none" stroke="#000" stroke-miterlimit="10" stroke-width="0.5"/>
            <path id="Trazado_990437" data-name="Trazado 990437" d="M214.506,347.774a4.411,4.411,0,1,0-4.411,4.411A4.41,4.41,0,0,0,214.506,347.774Z" transform="translate(-151.037 -261.695)" fill="none" stroke="#000" stroke-miterlimit="10" stroke-width="0.5"/>
            <path id="Trazado_990438" data-name="Trazado 990438" d="M184.374,288.865A22.449,22.449,0,0,0,188.42,286" transform="translate(-151.561 -263.105)" fill="none" stroke="#000" stroke-miterlimit="10" stroke-width="0.5"/>
            <path id="Trazado_990439" data-name="Trazado 990439" d="M159.139,280.549q-.449,76.3-.9,152.6" transform="translate(-152.203 -263.239)" fill="none" stroke="#000" stroke-miterlimit="10" stroke-width="0.5"/>
            <path id="Trazado_990440" data-name="Trazado 990440" d="M199.787,421.412a40.44,40.44,0,0,0,29.7-7.168" transform="translate(-151.182 -259.954)" fill="none" stroke="#000" stroke-miterlimit="10" stroke-width="0.5"/>
            <path id="Trazado_990441" data-name="Trazado 990441" d="M153.374,421.146a33.938,33.938,0,0,0,28.905.22" transform="translate(-152.323 -259.784)" fill="none" stroke="#000" stroke-miterlimit="10" stroke-width="0.5"/>
          </g>
          <g id="Grupo_1154045" data-name="Grupo 1154045" transform="translate(105.104 108.071)">
            <path id="Trazado_990442" data-name="Trazado 990442" d="M152.348,272.812s36.353-1.517,52.2-14.328c-2.192-8.428-5.9-24.779-5.9-24.779s5.057-2.866,4.046-6.912-8.091-4.72-8.091-4.72-6.177-15.475-10.421-22.739-5.173-6.1-5.173-6.1,8.065,23.1-.559,23.7-14.268-12.757-12.627-25.382c-4.09,3.894-9.05,21.467-10.891,32.209S152.348,272.812,152.348,272.812Z" transform="translate(-152.348 -191.545)" fill="#ff2dea"/>
            <path id="Trazado_990443" data-name="Trazado 990443" d="M174.2,241.688c3.358-1.45,6.013-5.207,5.538-8.939-.394-3.1-2.525-4.773-4.93-6.4" transform="translate(-151.811 -190.69)" fill="none" stroke="#000" stroke-miterlimit="10" stroke-width="0.5"/>
            <path id="Trazado_990444" data-name="Trazado 990444" d="M193.021,233.583c3.3.377,7.933-2.171,8.8-5.519,1.2-4.632-4.813-6.241-8.218-6.721" transform="translate(-151.349 -190.813)" fill="none" stroke="#000" stroke-miterlimit="10" stroke-width="0.5"/>
            <path id="Trazado_990445" data-name="Trazado 990445" d="M164.983,192.115c-5.811,8.454-8.082,18.8-9.692,28.932-2.787,17.521-2.332,30.951-2.913,50.326" transform="translate(-152.347 -191.531)" fill="none" stroke="#000" stroke-miterlimit="10" stroke-width="0.5"/>
            <path id="Trazado_990446" data-name="Trazado 990446" d="M176.338,217.087a5.764,5.764,0,0,0,4.732-3.71,13.433,13.433,0,0,0,.665-6.25A42.841,42.841,0,0,0,177.7,192" transform="translate(-151.759 -191.534)" fill="none" stroke="#000" stroke-miterlimit="10" stroke-width="0.5"/>
          </g>
          <g id="Grupo_1154046" data-name="Grupo 1154046" transform="translate(99.093 64.114)">
            <path id="Trazado_990447" data-name="Trazado 990447" d="M169.76,148.96c10.994-1.428,19.722,1.685,21.914,15.171s-1.348,20.9-18.037,23.094-18.374-14.56-18.711-19.333S156.779,150.645,169.76,148.96Z" transform="translate(-146.275 -148.642)" fill="#e07553"/>
            <path id="Trazado_990448" data-name="Trazado 990448" d="M157.1,167.577s-11.135-2.889-10.6,5.707,8.969,6.069,12,3.709C158.166,174.971,157.1,167.577,157.1,167.577Z" transform="translate(-146.481 -148.188)" fill="#e07553"/>
            <path id="Trazado_990449" data-name="Trazado 990449" d="M177.713,162.582a10.648,10.648,0,0,0,2.936,10.5" transform="translate(-145.723 -148.299)" fill="none" stroke="#000" stroke-miterlimit="10" stroke-width="0.5"/>
            <path id="Trazado_990450" data-name="Trazado 990450" d="M171.348,174.785A3.631,3.631,0,0,0,177.1,177.3" transform="translate(-145.87 -148)" fill="none" stroke="#000" stroke-miterlimit="10" stroke-width="0.5"/>
            <path id="Trazado_990451" data-name="Trazado 990451" d="M168.088,162.015a4.211,4.211,0,0,1,5.921-2.235" transform="translate(-145.951 -148.38)" fill="none" stroke="#000" stroke-miterlimit="10" stroke-width="0.5"/>
            <path id="Trazado_990452" data-name="Trazado 990452" d="M180.671,160.219a2.509,2.509,0,0,1,2.837-1.509A4.618,4.618,0,0,1,186.3,160.7" transform="translate(-145.641 -148.396)" fill="none" stroke="#000" stroke-miterlimit="10" stroke-width="0.5"/>
            <path id="Trazado_990453" data-name="Trazado 990453" d="M151.3,172.96a3.473,3.473,0,0,1,3.652,2.225" transform="translate(-146.363 -148.045)" fill="none" stroke="#000" stroke-miterlimit="10" stroke-width="0.5"/>
            <path id="Trazado_990454" data-name="Trazado 990454" d="M156.938,168.031s6.8-2.006,7.645-19.389c-7.754,1.834-12.7,11.779-11.493,16.331S153.506,167.213,156.938,168.031Z" transform="translate(-146.324 -148.642)" fill="#56b4ff"/>
            <ellipse id="Elipse_11566" data-name="Elipse 11566" cx="1.038" cy="1.743" rx="1.038" ry="1.743" transform="translate(26.262 17.79)"/>
            <ellipse id="Elipse_11567" data-name="Elipse 11567" cx="1.038" cy="1.743" rx="1.038" ry="1.743" transform="translate(35.03 17.18)"/>
            <path id="Trazado_990455" data-name="Trazado 990455" d="M152.428,164.413a12.966,12.966,0,0,0,7.332-12.5" transform="translate(-146.335 -148.562)" fill="none" stroke="#000" stroke-miterlimit="10" stroke-width="0.5"/>
            <path id="Trazado_990456" data-name="Trazado 990456" d="M160.293,182.435c2.145,2.353,5.44,3.307,8.612,3.6a27.382,27.382,0,0,0,10.1-.967" transform="translate(-146.142 -147.812)" fill="none" stroke="#000" stroke-miterlimit="10" stroke-width="0.5"/>
          </g>
          <g id="Grupo_1154047" data-name="Grupo 1154047" transform="translate(167.416 345.599)">
            <path id="Trazado_990457" data-name="Trazado 990457" d="M213.166,424.811c.62,3.636-.169,7.5,3.2,7.836s12.642.168,12.811-1.685-6.406-7.586-6.406-7.586Z" transform="translate(-213.166 -423.376)" fill="#81daff"/>
            <path id="Trazado_990458" data-name="Trazado 990458" d="M213.343,428.46c.409,1.514.947,3.2,2.339,3.921a5.613,5.613,0,0,0,2.708.412q4.437-.077,8.864-.42a4.487,4.487,0,0,0,2.02-.488l-.638-.14" transform="translate(-213.162 -423.251)" fill="none" stroke="#000" stroke-miterlimit="10" stroke-width="0.5"/>
          </g>
          <g id="Grupo_1154048" data-name="Grupo 1154048" transform="translate(117.874 349.308)">
            <path id="Trazado_990459" data-name="Trazado 990459" d="M164.965,427.993s-.9,5.24,1.658,6.42,13.176,3.54,14.019,1.348-5.2-8.765-5.2-8.765Z" transform="translate(-164.812 -426.996)" fill="#81daff"/>
            <path id="Trazado_990460" data-name="Trazado 990460" d="M165.464,431.579a1.52,1.52,0,0,0,.247,1.994,4.422,4.422,0,0,0,1.98.935,52.272,52.272,0,0,0,11.968,2.367" transform="translate(-164.802 -426.883)" fill="none" stroke="#000" stroke-miterlimit="10" stroke-width="0.5"/>
          </g>
        </g>
        <g id="Grupo_1154060" data-name="Grupo 1154060">
          <g id="Grupo_1154054" data-name="Grupo 1154054" transform="translate(28.474 258.604)">
            <g id="Grupo_1154052" data-name="Grupo 1154052" transform="translate(2.291 117.498)">
              <g id="Grupo_1154050" data-name="Grupo 1154050" transform="translate(80.454 10.354)">
                <path id="Trazado_990461" data-name="Trazado 990461" d="M142.769,436.86s-1.4,5.119,1.629,6.283,17.218,2.792,16.288,0-7.678-8.26-7.678-8.26Z" transform="translate(-142.447 -434.883)" fill="#8192ff"/>
                <path id="Trazado_990462" data-name="Trazado 990462" d="M143.392,442.56a28.462,28.462,0,0,1,5,1.222,33.534,33.534,0,0,0,9.347.576,4.263,4.263,0,0,0,2.335-.53" transform="translate(-142.424 -434.694)" fill="none" stroke="#000" stroke-miterlimit="10" stroke-width="0.5"/>
              </g>
              <g id="Grupo_1154051" data-name="Grupo 1154051">
                <path id="Trazado_990463" data-name="Trazado 990463" d="M67.916,424.777s-6.049,4.188-3.257,8.376,12.564,13.961,13.495,12.1-5.119-15.821-5.119-15.821Z" transform="translate(-63.922 -424.777)" fill="#8192ff"/>
                <path id="Trazado_990464" data-name="Trazado 990464" d="M64.042,430.173c-.121,2.192,1.326,4.134,2.78,5.779a64.213,64.213,0,0,0,10.752,9.7" transform="translate(-63.92 -424.644)" fill="none" stroke="#000" stroke-miterlimit="10" stroke-width="0.5"/>
              </g>
            </g>
            <g id="Grupo_1154053" data-name="Grupo 1154053">
              <path id="Trazado_990465" data-name="Trazado 990465" d="M159.184,438.763s-16.055,4.19-18.852,4.19c-4.416-5.82-11.168-33.975-10.932-42.817s2.787-14.19,5.584-19.774-3.022-33.5-3.914-38.626-7.49-6.516-11.209-5.113-3.729,13.022-8.617,43.739-30.245,55.614-33.5,58.4c-1.773,1.527-16.055-14.887-16.055-14.887s1.865-5.359,10.707-22.571,15.819-19.313,17.448-24.9c1.086-3.719.727-28.186.359-44.118-.174-7.981-.359-13.821-.359-13.821a62.327,62.327,0,0,0,14.026-.154c11.844-1.147,26.168-4.15,35.04-6.2,5.1-1.168,8.4-2.018,8.4-2.018s.84,4.856,2.1,12.387c2.111,12.735,5.42,33.124,7.91,50.665C161.273,401.069,159.184,438.763,159.184,438.763Z" transform="translate(-61.686 -310.097)" fill="#ff2dea"/>
              <path id="Trazado_990466" data-name="Trazado 990466" d="M100.386,318.362q1.371-.1,2.8-.245a18.59,18.59,0,0,1-13.668,13.975" transform="translate(-61.002 -309.9)" fill="none" stroke="#000" stroke-miterlimit="10" stroke-width="0.5"/>
              <path id="Trazado_990467" data-name="Trazado 990467" d="M147.558,322.436a12.525,12.525,0,0,1-10.5-10.369" transform="translate(-59.834 -310.049)" fill="none" stroke="#000" stroke-miterlimit="10" stroke-width="0.5"/>
              <path id="Trazado_990468" data-name="Trazado 990468" d="M151.822,381.718a4.411,4.411,0,1,0-4.411,4.411A4.41,4.41,0,0,0,151.822,381.718Z" transform="translate(-59.688 -308.446)" fill="none" stroke="#000" stroke-miterlimit="10" stroke-width="0.5"/>
              <path id="Trazado_990469" data-name="Trazado 990469" d="M106.412,384.216A4.411,4.411,0,1,0,102,388.627,4.41,4.41,0,0,0,106.412,384.216Z" transform="translate(-60.804 -308.384)" fill="none" stroke="#000" stroke-miterlimit="10" stroke-width="0.5"/>
              <path id="Trazado_990470" data-name="Trazado 990470" d="M63.8,416.422c-.39-.517-.726.662-.318,1.165a49.492,49.492,0,0,0,17.76,13.736" transform="translate(-61.647 -307.488)" fill="none" stroke="#000" stroke-miterlimit="10" stroke-width="0.5"/>
              <path id="Trazado_990471" data-name="Trazado 990471" d="M132.11,432.505a84.126,84.126,0,0,0,13.537,1.28,26.314,26.314,0,0,0,10.462-1.507" transform="translate(-59.956 -307.095)" fill="none" stroke="#000" stroke-miterlimit="10" stroke-width="0.5"/>
              <path id="Trazado_990472" data-name="Trazado 990472" d="M68.567,415.155,89.12,383.566a27.986,27.986,0,0,0,3.864-7.5,27.674,27.674,0,0,0,.7-7.447q.04-22.052-.693-44.1" transform="translate(-61.517 -309.743)" fill="none" stroke="#000" stroke-miterlimit="10" stroke-width="0.5"/>
            </g>
          </g>
          <g id="Grupo_1154055" data-name="Grupo 1154055" transform="translate(44.105 122.954)">
            <path id="Trazado_990473" data-name="Trazado 990473" d="M80.705,214.036a4.141,4.141,0,0,1-1-1.409c-.347-1.116.505-2.223.708-3.375.4-2.271-1.69-4.118-2.736-6.173a7.464,7.464,0,0,1,1.843-8.865c1.633-1.347,3.821-1.953,5.286-3.48,2.172-2.265,2.179-5.911,4.069-8.417,2.6-3.449,7.829-3.571,11.907-2.149a8.661,8.661,0,0,0,2.743.693c1.783.012,3.277-1.243,4.8-2.172s3.646-1.513,4.965-.314c1.237,1.126,1.182,3.369,2.662,4.15a4.784,4.784,0,0,0,2.929.051,11.284,11.284,0,0,1,9.025,2.691,2.971,2.971,0,0,1,1.127,1.762c.121,1.066-.762,2-.842,3.072-.143,1.9,2.044,2.954,3.457,4.226a6.588,6.588,0,0,1,1.9,6.493c-.708,2.583-3.025,4.932-2.329,7.519.475,1.764,2.218,2.873,3.1,4.474a5.617,5.617,0,0,1-.343,5.679,6.963,6.963,0,0,1-5,2.931c-3.175.36-6.446-1.222-9.517-.343a20,20,0,0,0-3.707,1.837,16.439,16.439,0,0,1-16.264-.71c-1.624-1.049-3.178-2.438-5.1-2.607-1.662-.145-3.239.658-4.745,1.376-2.222,1.06-5.64,2.035-6.875-.923C81.862,217.88,82.537,216.106,80.705,214.036Z" transform="translate(-76.942 -177.701)" fill="#8169ff"/>
            <path id="Trazado_990474" data-name="Trazado 990474" d="M118.453,188.938a13.77,13.77,0,0,1,7.663,14.924" transform="translate(-75.922 -177.424)" fill="none" stroke="#000" stroke-miterlimit="10" stroke-width="0.5"/>
          </g>
          <g id="Grupo_1154057" data-name="Grupo 1154057">
            <g id="Grupo_1154056" data-name="Grupo 1154056" transform="translate(0 66.444)">
              <path id="Trazado_990475" data-name="Trazado 990475" d="M156.07,310.9c-4.334-4.488-11.024-11.8-12.264-15.512-1.865-5.584-4.416-21.875-4.416-21.875s-40.717.932-49.794,2.1c-7.91-6.281-21.875-37-29.088-55.143s-16.28-67.939-16.28-67.939-9.549-6.516-10.246-9.549,3.033-3.484,3.033-3.484-3.033.225-3.033-2.561,3.729-2.8,3.729-2.8a3.826,3.826,0,0,1-2.1-3.484c0-2.561,4.191-1.393,4.191-1.393a4.88,4.88,0,0,1-1.629-5.359c1.168-3.258,7.449,2.8,7.449,2.8a4.627,4.627,0,0,1,1.393-3.955c1.865-2.1,8.842,12.561,10.707,18.606s14.651,54.681,22.8,78.882,16.752,26.526,19.549,24.9c1.414-.83.973-5.492.195-9.887-.758-4.262-1.824-8.258-1.824-8.258l12.8,1.619s.6,3.166,1.158,6.291c.328,1.834.758,3.2,3.494,4.057,1.926.6,5.01.963,10.02,1.055,12.11.236,15.809,12.572,20.225,25.594a65.872,65.872,0,0,0,9.262,17.551Z" transform="translate(-33.895 -122.546)" fill="#f28f6b"/>
              <path id="Trazado_990476" data-name="Trazado 990476" d="M114.338,236.452a25.049,25.049,0,0,1-9.805-1.486,29.247,29.247,0,0,1-5.82-2.223c-.758-4.262-1.824-8.258-1.824-8.258l12.8,1.619s.6,3.166,1.158,6.291C111.173,234.229,111.6,235.591,114.338,236.452Z" transform="translate(-32.347 -120.041)" fill="#e2714d"/>
              <path id="Trazado_990477" data-name="Trazado 990477" d="M38.1,144.984s5.119,2.327,6.283,0-7.446-5.584-7.446-5.584,6.731,2.792,7.554,0-6.855-5.351-6.855-5.351,5,2.813,6.917,0c1.248-1.83-4.824-4.886-4.824-4.886s6.515,3.722,7.213,1.629-1.4-4.188-1.4-4.188" transform="translate(-33.821 -122.446)" fill="none" stroke="#000" stroke-miterlimit="10" stroke-width="0.5"/>
              <path id="Trazado_990478" data-name="Trazado 990478" d="M47.857,136.78a18.2,18.2,0,0,0,1.512,9.045" transform="translate(-33.554 -122.196)" fill="none" stroke="#000" stroke-miterlimit="10" stroke-width="0.5"/>
            </g>
            <path id="Trazado_990479" data-name="Trazado 990479" d="M162.49,57.7l-1.178,8.729-.943,7.018-.051.4-1,7.408-.2,1.506-.789,5.891-.461,3.422-.533,3.945-.727,5.348-.266,1.988-.973,7.244s-1.557,1.393-11.793,4.334c-17.213,4.815-32.725-6.352-45.6-.922s-22.182,8.217-31.946,7.285A40.043,40.043,0,0,1,49.5,115.45c.625-2.52,1.25-5.061,1.875-7.592l.4-1.6q.753-3.028,1.5-5.994c.277-1.076.543-2.152.82-3.207.369-1.475.738-2.941,1.107-4.375.41-1.639.82-3.248,1.229-4.815.246-.932.482-1.844.717-2.746.584-2.244,1.158-4.385,1.711-6.4.092-.379.195-.758.3-1.127.748-2.777,1.445-5.3,2.09-7.49A39.615,39.615,0,0,0,76.4,75.123c9.764.932,19.078-1.865,31.946-7.285a19.108,19.108,0,0,1,4.037-1.178c6.967-1.3,15.543-2.479,22.039-1.67C143.1,66.076,162.49,57.7,162.49,57.7Z" transform="translate(-33.512 -57.695)" fill="#81daff"/>
          </g>
          <path id="Trazado_990480" data-name="Trazado 990480" d="M162.435,57.7l-1.178,8.729-.943,7.018-.051.4-1,7.408-.2,1.506-.789,5.891-.461,3.422-.533,3.945-.727,5.348c-.984.553-3.832,1.875-11.311,4.027-17.213,4.815-32.725-6.352-45.6-.922s-22.182,8.217-31.946,7.285A40.03,40.03,0,0,1,51.72,106.26q.753-3.028,1.5-5.994c.277-1.076.543-2.152.82-3.207.369-1.475.738-2.941,1.107-4.375.41-1.639.82-3.248,1.229-4.815.246-.932.482-1.844.717-2.746.584-2.244,1.158-4.385,1.711-6.4.092-.379.195-.758.3-1.127.748-2.777,1.445-5.3,2.09-7.49a39.615,39.615,0,0,0,15.153,5.02c9.764.932,19.078-1.865,31.946-7.285a19.108,19.108,0,0,1,4.037-1.178c6.967-1.3,15.543-2.479,22.039-1.67C143.05,66.076,162.435,57.7,162.435,57.7Z" transform="translate(-33.457 -57.695)" fill="#ffa6ea"/>
          <path id="Trazado_990481" data-name="Trazado 990481" d="M162.38,57.7,161.2,66.424l-.943,7.018-.051.4-1,7.408-.2,1.506-.789,5.891-.461,3.422a67.9,67.9,0,0,1-10.84,3.781c-17.213,4.815-32.725-6.352-45.6-.922s-22.182,8.217-31.946,7.285A39.758,39.758,0,0,1,53.98,97.059c.369-1.475.738-2.941,1.107-4.375.41-1.639.82-3.248,1.229-4.815.246-.932.482-1.844.717-2.746.584-2.244,1.158-4.385,1.711-6.4.092-.379.195-.758.3-1.127.748-2.777,1.445-5.3,2.09-7.49a39.615,39.615,0,0,0,15.153,5.02c9.764.932,19.078-1.865,31.946-7.285a19.108,19.108,0,0,1,4.037-1.178c6.967-1.3,15.543-2.479,22.039-1.67C142.995,66.076,162.38,57.7,162.38,57.7Z" transform="translate(-33.402 -57.695)" fill="#fff7ff"/>
          <path id="Trazado_990482" data-name="Trazado 990482" d="M162.324,57.7l-1.178,8.729-.943,7.018-.051.4-1,7.408-.2,1.506a75.15,75.15,0,0,1-10.369,3.555c-17.213,4.815-32.725-6.352-45.6-.922s-22.182,8.217-31.946,7.285A39.49,39.49,0,0,1,56.26,87.869c.246-.932.482-1.844.717-2.746.584-2.244,1.158-4.385,1.711-6.4.092-.379.195-.758.3-1.127.748-2.777,1.445-5.3,2.09-7.49a39.615,39.615,0,0,0,15.153,5.02c9.764.932,19.078-1.865,31.946-7.285a19.108,19.108,0,0,1,4.037-1.178c6.967-1.3,15.543-2.479,22.039-1.67C142.939,66.076,162.324,57.7,162.324,57.7Z" transform="translate(-33.346 -57.695)" fill="#ffa6ea"/>
          <path id="Trazado_990483" data-name="Trazado 990483" d="M162.266,57.7l-1.178,8.729-.943,7.018a81.317,81.317,0,0,1-9.9,3.34c-17.213,4.815-32.725-6.352-45.6-.922S82.462,84.078,72.7,83.145A39.3,39.3,0,0,1,58.63,78.719c.092-.379.195-.758.3-1.127.748-2.777,1.445-5.3,2.09-7.49a39.614,39.614,0,0,0,15.153,5.02c9.764.932,19.078-1.865,31.946-7.285a19.108,19.108,0,0,1,4.037-1.178c6.967-1.3,15.543-2.479,22.039-1.67C142.881,66.076,162.266,57.7,162.266,57.7Z" transform="translate(-33.288 -57.695)" fill="#81daff"/>
          <path id="Trazado_990484" data-name="Trazado 990484" d="M61.5,69.805c-.645,2.193-1.342,4.713-2.09,7.49-.1.369-.2.748-.3,1.127-.553,2.018-1.127,4.16-1.711,6.4-.236.9-.471,1.813-.717,2.746-.41,1.568-.82,3.176-1.229,4.815-.369,1.434-.738,2.9-1.107,4.375-.277,1.055-.543,2.131-.82,3.207q-.738,2.966-1.5,5.994l-.4,1.6c-.625,2.531-1.25,5.072-1.875,7.592-5.7,23.155-10.789,44.928-10.789,44.928" transform="translate(-33.771 -57.397)" fill="none" stroke="#000" stroke-linecap="round" stroke-miterlimit="10" stroke-width="2"/>
          <g id="Grupo_1154058" data-name="Grupo 1154058" transform="translate(34.758 174.606)">
            <path id="Trazado_990485" data-name="Trazado 990485" d="M67.82,242.539s12.1-7.448,17.916-14.426c1.862,3.49,9.323,13.521,11.867,12.564s11.867,4.654,11.867,4.654,4.886-9.54,6.748-10,18.381.465,22.337,7.911,9.307,23.034,9.307,23.034,3.49,3.025-6.748,7.911c1.862,9.075,7.322,39.787,7.322,39.787s-11.974,9.075-15.465,11.169c-3.257-4.188-4.421-5.584-4.421-5.584l-3.479,8.608s-34.314-.465-37.987-7.446c-.415-7.678,2.975-44.208,0-47.465S73.4,257.2,67.82,242.539Z" transform="translate(-67.82 -228.113)" fill="#fff7ff"/>
            <path id="Trazado_990486" data-name="Trazado 990486" d="M123.7,263.22s-.011,9.772,1.85,10.47,7.213,1.862,7.213,1.862,3.722-1.629,2.327-9.075-2.094-8.842-2.094-8.842Z" transform="translate(-66.447 -227.388)" fill="none" stroke="#000" stroke-miterlimit="10" stroke-width="0.5"/>
            <path id="Trazado_990487" data-name="Trazado 990487" d="M139.506,273.541c.233-1.629-2.327-11.634-6.283-19.312" transform="translate(-66.213 -227.471)" fill="none" stroke="#000" stroke-miterlimit="10" stroke-width="0.5"/>
            <path id="Trazado_990488" data-name="Trazado 990488" d="M88.2,259.708q-1.655,30.656-1.9,61.365" transform="translate(-67.366 -227.337)" fill="none" stroke="#000" stroke-miterlimit="10" stroke-width="0.5"/>
            <path id="Trazado_990489" data-name="Trazado 990489" d="M109.487,250.335q.181,8.264.364,16.528A7.863,7.863,0,0,0,115,264.927q-.052,5.444-.1,10.887c-.015,1.585.03,3.335,1.1,4.506s3.519.981,3.767-.585l-.738,12.1a1.709,1.709,0,0,0,.417,1.528c1.189.888,3.016-1.866,4.006-.761q.034,9.283.068,18.565" transform="translate(-66.796 -227.567)" fill="none" stroke="#000" stroke-miterlimit="10" stroke-width="0.5"/>
          </g>
          <g id="Grupo_1154059" data-name="Grupo 1154059" transform="translate(41.188 130.389)">
            <path id="Trazado_990490" data-name="Trazado 990490" d="M106.913,230.259c-9.534-.334-19.777-7.678-20.242-20.94s2.094-20.708,17.451-21.173,21.872,13.495,20.242,24.2S120.175,230.724,106.913,230.259Z" transform="translate(-73.788 -184.879)" fill="#f28f6b"/>
            <path id="Trazado_990491" data-name="Trazado 990491" d="M109.508,203.6a12.559,12.559,0,0,0,4.382,9.955" transform="translate(-73.226 -184.499)" fill="none" stroke="#000" stroke-miterlimit="10" stroke-width="0.5"/>
            <path id="Trazado_990492" data-name="Trazado 990492" d="M106.325,217.053a5.113,5.113,0,0,0,6.3,1.962" transform="translate(-73.304 -184.168)" fill="none" stroke="#000" stroke-miterlimit="10" stroke-width="0.5"/>
            <path id="Trazado_990493" data-name="Trazado 990493" d="M96.414,205.027a5.844,5.844,0,0,1,7.6-3.78" transform="translate(-73.547 -184.565)" fill="none" stroke="#000" stroke-miterlimit="10" stroke-width="0.5"/>
            <path id="Trazado_990494" data-name="Trazado 990494" d="M112.012,200.8a3.391,3.391,0,0,1,3.048-1.135,8.73,8.73,0,0,1,3.173,1.155" transform="translate(-73.164 -184.596)" fill="none" stroke="#000" stroke-miterlimit="10" stroke-width="0.5"/>
            <path id="Trazado_990495" data-name="Trazado 990495" d="M102.923,209.092c0-.963.465-1.743,1.038-1.743s1.038.781,1.038,1.743-.464,1.743-1.038,1.743S102.923,210.054,102.923,209.092Z" transform="translate(-73.387 -184.407)"/>
            <ellipse id="Elipse_11568" data-name="Elipse 11568" cx="1.038" cy="1.743" rx="1.038" ry="1.743" transform="translate(40.921 22.338)"/>
            <path id="Trazado_990496" data-name="Trazado 990496" d="M89.068,210.252s-3.641-5.049-8.815-3.487S72.4,213.534,75.27,218.5s7.09,5.349,10.54,4.583a14.454,14.454,0,0,0,6.132-3.4Z" transform="translate(-74.096 -184.428)" fill="#f28f6b"/>
            <path id="Trazado_990497" data-name="Trazado 990497" d="M81.038,213.309a6.893,6.893,0,0,1,5.9,2.554" transform="translate(-73.925 -184.261)" fill="none" stroke="#000" stroke-miterlimit="10" stroke-width="0.5"/>
            <path id="Trazado_990498" data-name="Trazado 990498" d="M84.864,208.233s9.235-3.132,12.714-9.26,4.509-14.016,4.509-14.016S86.951,189.549,85.9,196.872A85.4,85.4,0,0,0,84.864,208.233Z" transform="translate(-73.831 -184.957)" fill="#8169ff"/>
            <path id="Trazado_990499" data-name="Trazado 990499" d="M101.023,228.114a18.789,18.789,0,0,0,15.687-1.144" transform="translate(-73.434 -183.925)" fill="none" stroke="#000" stroke-miterlimit="10" stroke-width="0.5"/>
            <path id="Trazado_990500" data-name="Trazado 990500" d="M83.537,201.513a16.394,16.394,0,0,0,12.327-13.666" transform="translate(-73.864 -184.886)" fill="none" stroke="#000" stroke-miterlimit="10" stroke-width="0.5"/>
            <path id="Trazado_990501" data-name="Trazado 990501" d="M84.781,196.731a12.53,12.53,0,0,0,6.429-10.964" transform="translate(-73.833 -184.937)" fill="none" stroke="#000" stroke-miterlimit="10" stroke-width="0.5"/>
          </g>
          <path id="Trazado_990502" data-name="Trazado 990502" d="M66.33,100.7c6.55,3.745,15.023,1.457,21.311-2.712,4.241-2.811,8.446-6.586,13.532-6.436,3.518.1,6.655,2.112,9.989,3.242a20.826,20.826,0,0,0,18.008-2.4" transform="translate(-33.098 -56.863)" fill="none" stroke="#000" stroke-miterlimit="10" stroke-width="0.5"/>
          <path id="Trazado_990503" data-name="Trazado 990503" d="M70.558,85.5a21.808,21.808,0,0,0,18.307-.152c4.5-2.163,8.534-5.97,13.522-5.99,2.591-.01,5.05,1.034,7.551,1.709a27.2,27.2,0,0,0,17.5-1.182c2.18-.918,4.374-2.271,5.3-4.45" transform="translate(-32.994 -57.259)" fill="none" stroke="#000" stroke-miterlimit="10" stroke-width="0.5"/>
          <path id="Trazado_990504" data-name="Trazado 990504" d="M116.92,87.559a25.044,25.044,0,0,0,23.525-12.7" transform="translate(-31.855 -57.273)" fill="none" stroke="#000" stroke-miterlimit="10" stroke-width="0.5"/>
          <path id="Trazado_990505" data-name="Trazado 990505" d="M119.889,102.692c8.223-.305,17.219-2.5,21.921-9.25" transform="translate(-31.782 -56.817)" fill="none" stroke="#000" stroke-miterlimit="10" stroke-width="0.5"/>
        </g>
        <g id="Grupo_1154067" data-name="Grupo 1154067" transform="translate(333.893 91.25)">
          <g id="Grupo_1154062" data-name="Grupo 1154062" transform="translate(27.366 218.048)">
            <path id="Trazado_990506" data-name="Trazado 990506" d="M414.953,377.794c-.451,21.075-5.717,46.1-6.9,51.679-.113.492-.184.83-.215,1-.553,2.777-9.016,4.037-11.414,1.793-1.219-1.148-.113-.768,1.137-1.844a4.785,4.785,0,0,0,1.26-1.732c1.137-2.531-6.977-41.6-10.625-59.19-.953-4.611-1.609-7.746-1.7-8.35a.47.47,0,0,1-.01-.1.835.835,0,0,0,.1-.01c.646-.072,4.252-.441,9.19-.625a113.324,113.324,0,0,1,18.135.635c.256,1.383.461,2.838.6,4.354A98.357,98.357,0,0,1,414.953,377.794Z" transform="translate(-386.49 -359.556)" fill="#f28f6b"/>
            <path id="Trazado_990507" data-name="Trazado 990507" d="M455.842,379.1c-.143,19.733-4.887,41.813-6.024,47.264-.092.441-.164.768-.2.984a2.85,2.85,0,0,1-.195.656c0,.01-.01.02-.01.031-1.363,3.32-7.459,4.232-9.19,3.371-1.045-.523-.318-.635.543-1.322a1.884,1.884,0,0,0,.164-.133,3.867,3.867,0,0,0,.543-.594,4.168,4.168,0,0,0,.779-2.367c.133-2.838-9.026-36.618-13.934-54.466-1.783-6.506-3.012-10.9-3.012-10.9s1.957-.277,5.082-.635c3.688-.42,9-.943,14.58-1.219h.01c2.951-.143,5.973-.225,8.873-.184A74.693,74.693,0,0,1,455.842,379.1Z" transform="translate(-385.536 -359.575)" fill="#f28f6b"/>
            <g id="Grupo_1154061" data-name="Grupo 1154061" transform="translate(0.01)">
              <path id="Trazado_990508" data-name="Trazado 990508" d="M455.842,379.1a73.962,73.962,0,0,1-18.4-3.309,60.337,60.337,0,0,1-9.129-3.268c-1.783-6.506-3.012-10.9-3.012-10.9s1.957-.277,5.082-.635a4.315,4.315,0,0,1,2.551,2.428,1.334,1.334,0,0,0,.154.1,5.328,5.328,0,0,1,5.389-2.152c1.219.2,2.439.4,3.647.594a6.511,6.511,0,0,1,2.838-2.193h.01c2.951-.143,5.973-.225,8.873-.184A74.694,74.694,0,0,1,455.842,379.1Z" transform="translate(-385.547 -359.575)" fill="#e2714d"/>
              <path id="Trazado_990509" data-name="Trazado 990509" d="M395.783,360.415q5.84,1.629,11.67,3.268c2.111.594,4.662,1.025,7.07,1.721a98.363,98.363,0,0,1,.43,12.387A144.761,144.761,0,0,1,397.6,373.56c-3.1-.973-6.906-1.885-9.4-4.057l-.338-1.66-1.363-6.69c.031-.041.061-.072.092-.113Z" transform="translate(-386.5 -359.554)" fill="#e2714d"/>
            </g>
            <path id="Trazado_990510" data-name="Trazado 990510" d="M407.828,427.817c-.113.492-.184.83-.215,1-.553,2.777-9.016,4.037-11.414,1.793-1.219-1.147-.113-.768,1.137-1.844a4.886,4.886,0,0,0,2.787.881,67.964,67.964,0,0,0,7.223-1.742A3.645,3.645,0,0,1,407.828,427.817Z" transform="translate(-386.264 -357.898)" fill="#8169ff"/>
            <path id="Trazado_990511" data-name="Trazado 990511" d="M449.469,424.767c-.092.441-.164.768-.2.984a2.853,2.853,0,0,1-.195.656c0,.01-.01.02-.01.031-1.363,3.32-7.459,4.231-9.19,3.371-1.045-.523-.318-.635.543-1.322a1.955,1.955,0,0,0,.482.123c1.168.164,2.141-.574,3.135-1.086,1.557-.8,3.1-1.609,4.662-2.408A4.77,4.77,0,0,1,449.469,424.767Z" transform="translate(-385.191 -357.973)" fill="#8169ff"/>
            <path id="Trazado_990512" data-name="Trazado 990512" d="M403.719,377.413a4.411,4.411,0,1,0-4.411,4.411A4.41,4.41,0,0,0,403.719,377.413Z" transform="translate(-386.283 -359.245)" fill="none" stroke="#000" stroke-miterlimit="10" stroke-width="0.5"/>
            <path id="Trazado_990513" data-name="Trazado 990513" d="M444.634,375.046a4.411,4.411,0,1,0-4.411,4.411A4.41,4.41,0,0,0,444.634,375.046Z" transform="translate(-385.278 -359.303)" fill="none" stroke="#000" stroke-miterlimit="10" stroke-width="0.5"/>
            <path id="Trazado_990514" data-name="Trazado 990514" d="M395.8,430.524c-.011.078-.142-.026-.087-.082s.15-.024.22.012a11.7,11.7,0,0,0,10.554-.184" transform="translate(-386.264 -357.837)" fill="none" stroke="#000" stroke-miterlimit="10" stroke-width="0.5"/>
            <path id="Trazado_990515" data-name="Trazado 990515" d="M439.453,429.282a7.44,7.44,0,0,0,5.4.118,12.834,12.834,0,0,0,4.251-2.267" transform="translate(-385.189 -357.915)" fill="none" stroke="#000" stroke-miterlimit="10" stroke-width="0.5"/>
            <path id="Trazado_990516" data-name="Trazado 990516" d="M454.672,365.223c1.6,20.417-2.063,40.838-5.713,60.991" transform="translate(-384.955 -359.436)" fill="none" stroke="#000" stroke-miterlimit="10" stroke-width="0.5"/>
            <path id="Trazado_990517" data-name="Trazado 990517" d="M414.512,368.5c.874,14.36-1.415,28.7-3.695,42.908l-2.782,17.324" transform="translate(-385.961 -359.355)" fill="none" stroke="#000" stroke-miterlimit="10" stroke-width="0.5"/>
          </g>
          <g id="Grupo_1154063" data-name="Grupo 1154063" transform="translate(18.666)">
            <path id="Trazado_990518" data-name="Trazado 990518" d="M380.74,214.325c-1.549-3.206-3.468-6.706-2.461-10.122.535-1.815,1.832-3.286,2.819-4.9s1.674-3.66.869-5.371c-.489-1.038-1.456-1.786-1.961-2.816-.818-1.667-.249-3.7.7-5.294s2.249-2.977,3.05-4.652c1.316-2.752,1.126-5.98.548-8.975a40.346,40.346,0,0,1-1.129-6.825c-.1-4.975,2.71-9.713,6.623-12.788s8.814-4.655,13.729-5.432c3.844-.609,7.989-.713,11.4,1.157,2.476,1.356,4.31,3.607,6.373,5.534a2.763,2.763,0,0,0,1.456.859,3.808,3.808,0,0,0,1.755-.453c3.058-1.164,6.653.42,8.653,3.011s2.688,5.957,2.946,9.219a42.977,42.977,0,0,1-.431,10.314c-.391,2.388-.983,4.85-.366,7.19.654,2.476,2.555,4.409,3.7,6.7a11.8,11.8,0,0,1,.12,10.1c-1.015,2.169-2.746,4.215-2.551,6.6.216,2.649,2.68,4.451,4.13,6.678,2.682,4.121,1.666,9.87-1.335,13.765s-7.587,6.239-12.211,7.911a63.333,63.333,0,0,1-33.261,2.629c-3.577-.685-7.22-1.747-9.98-4.121-2.445-2.1-4.7-6.3-3.118-9.5.806-1.635,1.695-2.47,1.637-4.51A14.94,14.94,0,0,0,380.74,214.325Z" transform="translate(-377.999 -146.757)" fill="#8169ff"/>
            <path id="Trazado_990519" data-name="Trazado 990519" d="M391.864,159.1a10.771,10.771,0,0,0-2.752,9.978c.549,2.217,1.827,4.35,1.548,6.618-.387,3.16-3.7,5.568-3.5,8.744.1,1.619,1.121,3.018,1.65,4.552a7.92,7.92,0,0,1-2.016,8.162" transform="translate(-377.783 -146.453)" fill="none" stroke="#000" stroke-miterlimit="10" stroke-width="0.5"/>
            <path id="Trazado_990520" data-name="Trazado 990520" d="M428.963,187.936c-.929,2.06-1.86,4.466-.86,6.494.629,1.275,1.9,2.093,2.809,3.182s1.4,2.861.382,3.849" transform="translate(-376.778 -145.745)" fill="none" stroke="#000" stroke-miterlimit="10" stroke-width="0.5"/>
          </g>
          <g id="Grupo_1154065" data-name="Grupo 1154065" transform="translate(0 39.434)">
            <path id="Trazado_990521" data-name="Trazado 990521" d="M441.611,251.832a155.671,155.671,0,0,0-1.064-18.775c-5.24.306-18.341-.307-23.17-10.435.934-6.6,4.919-17.739,6.573-21.1-1.815-1.1-3.483-1.95-4.807-2.653-1.933,2.525-8.33,11.792-8.078,23.631-3.411.445-17.5,4.6-18.238-2.818a62.537,62.537,0,0,1-.088-11.147c-1.507.959-3.105,1.992-4.744,3.116-2.4,9.6-7.886,33.251-9.04,55.285,6.808-.584,14.224-4.663,16.392-6.625C404.689,267.432,441.611,251.832,441.611,251.832Z" transform="translate(-359.309 -184.91)" fill="#81daff"/>
            <g id="Grupo_1154064" data-name="Grupo 1154064" transform="translate(6.286)">
              <path id="Trazado_990522" data-name="Trazado 990522" d="M392.5,220.021c.741,7.414,14.828,3.262,18.238,2.818-.252-11.839,6.144-21.105,8.078-23.631-.462-.245-.887-.474-1.257-.687-4.893-2.818-2.372-12.9-2.224-13.275l-12.054,3.638a39.066,39.066,0,0,1-.7,11.564c-.632,2.527-4.82,5.021-10.171,8.425A62.549,62.549,0,0,0,392.5,220.021Z" transform="translate(-365.269 -185.245)" fill="#e07553"/>
              <path id="Trazado_990523" data-name="Trazado 990523" d="M374.168,224.273c-10.527,13.938-10.38,35.586-2.966,40.666a12.247,12.247,0,0,0,8.074,1.694c1.154-22.033,6.644-45.686,9.04-55.285A59.545,59.545,0,0,0,374.168,224.273Z" transform="translate(-365.915 -184.604)" fill="#e07553"/>
              <path id="Trazado_990524" data-name="Trazado 990524" d="M439.626,232.994c-.328-3.007-.753-6.295-1.308-9.812-1.89-11.969-9.353-18.136-15.288-21.719-1.654,3.357-5.638,14.494-6.573,21.1C421.285,232.687,434.386,233.3,439.626,232.994Z" transform="translate(-364.673 -184.846)" fill="#e07553"/>
              <path id="Trazado_990525" data-name="Trazado 990525" d="M392.758,206.162l-3.855.877c0,.063-.436,1.679-1.125,4.436,1.638-1.124,3.237-2.157,4.744-3.116C392.638,206.972,392.758,206.162,392.758,206.162Z" transform="translate(-365.378 -184.731)" fill="#81daff"/>
              <path id="Trazado_990526" data-name="Trazado 990526" d="M442.37,232.068c-.375.059-1,.127-1.805.174a155.663,155.663,0,0,1,1.064,18.775s-36.922,15.6-46.263,8.482c-2.168,1.962-9.585,6.041-16.392,6.625-.151,2.873-.228,5.718-.215,8.5.149,30.248-1.038,61.683-.3,71.767s3.558,23.873,6.969,24.17,3.707-3.432,3.707-3.432,1.186,3.911,3.707,3.449,3.855-3.449,3.855-3.449,1.483,2.988,4,2.839,3.114-2.839,3.114-2.839,2.373,5.211,6.524,1.208c2.52,3.114,7.265,4.256,11.121-1.208a5.168,5.168,0,0,0,9.787,0c2.373,4.915,6.525,3.728,8.156.615a4.058,4.058,0,0,0,7.414-.615c1.483,3.581,6.08,2.839,7.414-1.165,1.334,3.262,6.821,3.558,6.969-1.631S445.484,241.706,442.37,232.068Z" transform="translate(-365.613 -184.094)" fill="#81daff"/>
              <path id="Trazado_990527" data-name="Trazado 990527" d="M423.446,200.723c-1.483-2.076-4.719-2.52-4.719-2.52s-.2.24-.548.688c1.325.7,2.993,1.558,4.807,2.653A6.277,6.277,0,0,1,423.446,200.723Z" transform="translate(-364.631 -184.927)" fill="#81daff"/>
            </g>
            <path id="Trazado_990528" data-name="Trazado 990528" d="M421.533,208.218c2.349-3.662,13.58,1.335,14.32,11.269s3.262,30.4-6.376,39.739-27.579,8.9-38.7-3.558S376.1,240.4,371.8,241.729s-5.286,2.062-5.286,2.062a33.916,33.916,0,0,0-.447,5.2c-3.758-.149-6.427-1.483-6.279-6.227s4.152-17.4,16.459-17,18.238,7.07,22.983,9.59,13.938,6.821,16.9-4.3S417.549,214.427,421.533,208.218Z" transform="translate(-359.78 -184.71)" fill="#f28f6b"/>
            <path id="Trazado_990529" data-name="Trazado 990529" d="M400.216,235.839s11.934-11.084,20.323-6.932,8.39,14.976,7.055,16.014-3.114,0-3.114,0-1.631,4.037-4.6.461c-.593,3.839-2.52,3.691-4.3,2.653,0,2.52-2.966,3.486-4.893.63s-3.522-10.6-5.357-11.061A33.029,33.029,0,0,1,400.216,235.839Z" transform="translate(-358.787 -184.195)" fill="#e07553"/>
            <path id="Trazado_990530" data-name="Trazado 990530" d="M415.276,247.809s1.02-2.977-2.52-10.676" transform="translate(-358.479 -183.97)" fill="none" stroke="#000" stroke-miterlimit="10" stroke-width="0.5"/>
            <path id="Trazado_990531" data-name="Trazado 990531" d="M419.49,245.21s.889-2.834-3.262-10.248" transform="translate(-358.393 -184.023)" fill="none" stroke="#000" stroke-miterlimit="10" stroke-width="0.5"/>
            <path id="Trazado_990532" data-name="Trazado 990532" d="M423.994,244.774s.473-3.013-3.941-10.825" transform="translate(-358.299 -184.048)" fill="none" stroke="#000" stroke-miterlimit="10" stroke-width="0.5"/>
            <path id="Trazado_990533" data-name="Trazado 990533" d="M379.728,356.246a13.772,13.772,0,0,1,11.105-2.392c4.222.942,7.938,3.879,12.261,4.054,7.521.3,13.41-7.746,20.935-7.57,3.22.076,6.175,1.673,9.208,2.759s6.663,1.593,9.277-.29c1.981-1.427,3.091-4.046,5.4-4.842,4.456-1.537,9.85,4.77,13.373,1.637" transform="translate(-359.29 -181.253)" fill="none" stroke="#000" stroke-miterlimit="10" stroke-width="0.5"/>
            <path id="Trazado_990534" data-name="Trazado 990534" d="M437.082,245.06a995.154,995.154,0,0,1,13.935,119.571" transform="translate(-357.881 -183.775)" fill="none" stroke="#000" stroke-miterlimit="10" stroke-width="0.5"/>
            <path id="Trazado_990535" data-name="Trazado 990535" d="M366.246,242.842l.485.244c3.057-2.812,7.832-2.544,11.441-.49s6.236,5.428,8.988,8.54a48.722,48.722,0,0,0,12.384,10.533,25.345,25.345,0,0,0,15.689,3.374" transform="translate(-359.621 -183.875)" fill="none" stroke="#000" stroke-miterlimit="10" stroke-width="0.5"/>
            <path id="Trazado_990536" data-name="Trazado 990536" d="M365.761,247.1q.006-.329.013-.659a30.434,30.434,0,0,0,3.107,14.252,9.789,9.789,0,0,0,1.6,2.472c1.955,2.054,5.054,2.4,7.881,2.628" transform="translate(-359.633 -183.741)" fill="none" stroke="#000" stroke-miterlimit="10" stroke-width="0.5"/>
            <path id="Trazado_990537" data-name="Trazado 990537" d="M428.469,208.99a18.3,18.3,0,0,1,5.352,9.727,54.5,54.5,0,0,1,1,11.219q.081,4.134.163,8.269" transform="translate(-358.092 -184.662)" fill="none" stroke="#000" stroke-miterlimit="10" stroke-width="0.5"/>
          </g>
          <g id="Grupo_1154066" data-name="Grupo 1154066" transform="translate(34.83 7.652)">
            <path id="Trazado_990538" data-name="Trazado 990538" d="M393.8,175.959c.343-9.484.3-17.988,12.752-19.745s14.976,9.809,13.938,17.816-1.78,11.363-5.634,14.43S393.056,196.422,393.8,175.959Z" transform="translate(-393.775 -154.18)" fill="#f28f6b"/>
            <path id="Trazado_990539" data-name="Trazado 990539" d="M416.952,181.715s9.015,2.373,10.884-.889,1.276-10.535-.653-11.272-8.426,0-8.426,0Z" transform="translate(-393.206 -153.856)" fill="#f28f6b"/>
            <path id="Trazado_990540" data-name="Trazado 990540" d="M412.724,165.065c1.876,2.7,4.977,4.78,8.253,4.536a1.064,1.064,0,0,0,.633-.2,1.121,1.121,0,0,0,.285-.782,15.638,15.638,0,0,0-3.618-11.275,8.463,8.463,0,0,0-4.446-2.989c-2.345-.516-4.873.477-4.313,3.005A22.1,22.1,0,0,0,412.724,165.065Z" transform="translate(-393.39 -154.225)" fill="#8169ff"/>
            <path id="Trazado_990541" data-name="Trazado 990541" d="M421.313,178.364a6.438,6.438,0,0,1,5.023-5.479" transform="translate(-393.099 -153.766)" fill="none" stroke="#000" stroke-miterlimit="10" stroke-width="0.5"/>
            <path id="Trazado_990542" data-name="Trazado 990542" d="M396.132,165.888a25.559,25.559,0,0,1,5.221,3.1,1.373,1.373,0,0,1,.442.473,1.416,1.416,0,0,1,.091.568q.1,4.409.191,8.82a.7.7,0,0,0,.112.445.665.665,0,0,0,.413.181,7,7,0,0,0,3.154-.185" transform="translate(-393.717 -153.938)" fill="none" stroke="#000" stroke-miterlimit="10" stroke-width="0.5"/>
            <path id="Trazado_990543" data-name="Trazado 990543" d="M405.066,169.162c1.119-.73,2.027-1.759,3.183-2.426a3.264,3.264,0,0,1,3.742.019" transform="translate(-393.498 -153.932)" fill="none" stroke="#000" stroke-miterlimit="10" stroke-width="0.5"/>
            <path id="Trazado_990544" data-name="Trazado 990544" d="M404.534,183.074a3.052,3.052,0,0,1,5.294-1.621" transform="translate(-393.511 -153.58)" fill="none" stroke="#000" stroke-miterlimit="10" stroke-width="0.5"/>
            <ellipse id="Elipse_11569" data-name="Elipse 11569" cx="1.038" cy="1.743" rx="1.038" ry="1.743" transform="translate(4.523 18.708)"/>
            <ellipse id="Elipse_11570" data-name="Elipse 11570" cx="1.038" cy="1.743" rx="1.038" ry="1.743" transform="translate(12.423 18.577)"/>
          </g>
        </g>
        <g id="Grupo_1154083" data-name="Grupo 1154083" transform="translate(161.201 42.477)">
          <g id="Grupo_1154068" data-name="Grupo 1154068" transform="translate(50.599 251.699)">
            <path id="Trazado_990545" data-name="Trazado 990545" d="M261.3,363.995a4.411,4.411,0,1,0-4.411,4.411A4.41,4.41,0,0,0,261.3,363.995Z" transform="translate(-240.324 -344.452)" fill="none" stroke="#000" stroke-miterlimit="10" stroke-width="0.5"/>
            <path id="Trazado_990546" data-name="Trazado 990546" d="M266.511,344.815c0,.584,0,1.178-.01,1.762-.02,3.9-.061,7.777-.133,11.588-.707,41.147-3.924,75.654-3.924,75.654a4.236,4.236,0,0,1,.82.932,2.857,2.857,0,0,1,.4,2.346c-.533,1.9-11.373-.277-13.278-1.229a4.016,4.016,0,0,1-.932-1.66c-2.818-7.07-9.18-34.467-8.822-43.053.41-9.754,3.258-18.832,3.791-23.985a15.713,15.713,0,0,0-.072-3.289,75.078,75.078,0,0,0-2.428-11.229c-.369-1.25-.615-2.07-.615-2.131C241.307,350.522,258.694,347.376,266.511,344.815Z" transform="translate(-240.616 -344.815)" fill="#f28f6b"/>
            <path id="Trazado_990547" data-name="Trazado 990547" d="M266.47,346.535c-.02,3.9-.061,7.777-.133,11.588q-3.842,1.322-7.777,2.285a60.7,60.7,0,0,1-14.242,3.432,75.078,75.078,0,0,0-2.428-11.229c1.854-.225,3.678-.5,5.492-.84a4.018,4.018,0,0,1,3.412-2.428q5.886-.8,11.783-1.619c.84-.3,1.68-.594,2.51-.9A4.124,4.124,0,0,1,266.47,346.535Z" transform="translate(-240.584 -344.773)" fill="#e2714d"/>
            <path id="Trazado_990548" data-name="Trazado 990548" d="M263.447,434.956c-.533,1.9-11.373-.277-13.278-1.229a4.017,4.017,0,0,1-.932-1.66c2.818.82,9.836,2.52,13.811.543A2.857,2.857,0,0,1,263.447,434.956Z" transform="translate(-240.404 -342.671)" fill="#8169ff"/>
            <path id="Trazado_990549" data-name="Trazado 990549" d="M263.23,364.446a4.411,4.411,0,1,0-4.411,4.411A4.41,4.41,0,0,0,263.23,364.446Z" transform="translate(-240.277 -344.441)" fill="none" stroke="#000" stroke-miterlimit="10" stroke-width="0.5"/>
            <path id="Trazado_990550" data-name="Trazado 990550" d="M249.812,435.415c-3.849-9.158-5.605-19.036-7.333-28.819-.573-3.245-1.146-6.5-1.448-9.777a59.311,59.311,0,0,1,1.292-18.806c.981-4.216,2.432-8.4,2.359-12.727-.068-3.965-1.416-7.783-2.748-11.517" transform="translate(-240.612 -344.595)" fill="none" stroke="#000" stroke-miterlimit="10" stroke-width="0.5"/>
            <path id="Trazado_990551" data-name="Trazado 990551" d="M249.25,433.309a44.3,44.3,0,0,0,8.339,2.237c2.074.344,4.357.5,6.126-.633" transform="translate(-240.404 -342.64)" fill="none" stroke="#000" stroke-miterlimit="10" stroke-width="0.5"/>
          </g>
          <g id="Grupo_1154069" data-name="Grupo 1154069" transform="translate(96.688 243.43)">
            <path id="Trazado_990552" data-name="Trazado 990552" d="M312.535,359.69a4.411,4.411,0,1,0-4.411,4.411A4.41,4.41,0,0,0,312.535,359.69Z" transform="translate(-285.155 -336.29)" fill="none" stroke="#000" stroke-miterlimit="10" stroke-width="0.5"/>
            <path id="Trazado_990553" data-name="Trazado 990553" d="M334.247,431.057c-.953,1.762-8.268,2.029-9.9,1.629a5.308,5.308,0,0,1-1.3-1.189c-5.164-5.6-22.991-29.252-25.368-35.133-2.695-6.639-1.516-20.86-2.059-26.014-.277-2.664-2.951-9.354-5.461-15.194-2.357-5.451-4.559-10.143-4.559-10.143s1.322-.441,3.34-1.117c5.41-1.834,15.871-5.43,19.559-7.152a16.9,16.9,0,0,1,.707,1.824c.85,2.418,2.018,6.547,3.4,11.731,6.844,25.86,18.657,78.185,18.657,78.185a8.492,8.492,0,0,1,2.152.789C334.134,429.694,334.657,430.289,334.247,431.057Z" transform="translate(-285.6 -336.745)" fill="#f28f6b"/>
            <path id="Trazado_990554" data-name="Trazado 990554" d="M312.608,350.256a57.345,57.345,0,0,1-22.448,4.856c-2.357-5.451-4.559-10.143-4.559-10.143s1.322-.441,3.34-1.117a89.682,89.682,0,0,0,19.108-5.041,4.663,4.663,0,0,1,1.158-.287C310.057,340.943,311.225,345.072,312.608,350.256Z" transform="translate(-285.6 -336.701)" fill="#e2714d"/>
            <path id="Trazado_990555" data-name="Trazado 990555" d="M333.345,428.84c-.953,1.762-8.268,2.029-9.9,1.629a5.311,5.311,0,0,1-1.3-1.189c2.377.041,7.848-.123,10.369-2.223C333.232,427.477,333.754,428.071,333.345,428.84Z" transform="translate(-284.702 -334.526)" fill="#8169ff"/>
            <path id="Trazado_990556" data-name="Trazado 990556" d="M311.746,360.423a4.411,4.411,0,1,0-4.411,4.411A4.41,4.41,0,0,0,311.746,360.423Z" transform="translate(-285.174 -336.272)" fill="none" stroke="#000" stroke-miterlimit="10" stroke-width="0.5"/>
            <path id="Trazado_990557" data-name="Trazado 990557" d="M286.5,347.572a55.735,55.735,0,0,1,9.125,27.36c.4,6.888-.447,14.018,1.854,20.523,1.411,3.988,3.926,7.476,6.443,10.876q9.518,12.857,19.694,25.21" transform="translate(-285.578 -336.479)" fill="none" stroke="#000" stroke-miterlimit="10" stroke-width="0.5"/>
            <path id="Trazado_990558" data-name="Trazado 990558" d="M322.754,429.23a1.442,1.442,0,0,0,1.088,1.435,4.2,4.2,0,0,0,1.94-.025l4.035-.686a8.22,8.22,0,0,0,2.442-.681,2.772,2.772,0,0,0,1.536-1.913c-.04.246-.081.493-.121.739" transform="translate(-284.687 -334.518)" fill="none" stroke="#000" stroke-miterlimit="10" stroke-width="0.5"/>
          </g>
          <g id="Grupo_1154070" data-name="Grupo 1154070" transform="translate(0 201.428)">
            <path id="Trazado_990559" data-name="Trazado 990559" d="M209.321,295.75S195.5,301.441,195.5,303.2s6.911,0,6.911,0-12.2,7.588-11.111,9.756,11.247-4.608,11.247-4.608-9.214,6.1-7.588,7.723,9.756-4.878,9.756-4.878-7.723,7.859-6.369,8.672,8.672-5.691,8.672-5.691-5.5,6.369-3.426,7.318,18.06-14.634,18.06-14.634Z" transform="translate(-191.23 -295.75)" fill="#f28f6b"/>
            <path id="Trazado_990560" data-name="Trazado 990560" d="M208.831,300.5a13.889,13.889,0,0,0,.712,7.41,3.756,3.756,0,0,0,1.487,2.037" transform="translate(-190.803 -295.633)" fill="none" stroke="#000" stroke-miterlimit="10" stroke-width="0.5"/>
            <path id="Trazado_990561" data-name="Trazado 990561" d="M191.338,312.7a1.523,1.523,0,0,0,1.521.588,4.47,4.47,0,0,0,1.577-.676l8.477-5.012" transform="translate(-191.228 -295.459)" fill="none" stroke="#000" stroke-miterlimit="10" stroke-width="0.5"/>
            <path id="Trazado_990562" data-name="Trazado 990562" d="M194.9,315.315c-.091.147.034.349.2.4a.839.839,0,0,0,.506-.046,27.7,27.7,0,0,0,9.784-5.352" transform="translate(-191.141 -295.392)" fill="none" stroke="#000" stroke-miterlimit="10" stroke-width="0.5"/>
            <path id="Trazado_990563" data-name="Trazado 990563" d="M198.187,319.041c-.1.013-.041.18.049.236.89.545,2.017-.076,2.858-.7q3.06-2.259,5.887-4.81c.073-.066.167-.135.258-.1s.052.22-.034.175" transform="translate(-191.061 -295.31)" fill="none" stroke="#000" stroke-miterlimit="10" stroke-width="0.5"/>
            <path id="Trazado_990564" data-name="Trazado 990564" d="M202.767,321.466c2.3-.216,4.27-1.669,6.065-3.119A119.383,119.383,0,0,0,221.6,306.39" transform="translate(-190.947 -295.489)" fill="none" stroke="#000" stroke-miterlimit="10" stroke-width="0.5"/>
            <path id="Trazado_990565" data-name="Trazado 990565" d="M195.709,303.286a7.19,7.19,0,0,0,6.36-.449" transform="translate(-191.12 -295.576)" fill="none" stroke="#000" stroke-miterlimit="10" stroke-width="0.5"/>
          </g>
          <g id="Grupo_1154071" data-name="Grupo 1154071" transform="translate(152.643 69.026)">
            <path id="Trazado_990566" data-name="Trazado 990566" d="M340.213,196.757s4.878-3.523,4.471-7.859-2.168-10.7-.677-11.789,4.2,5.271,4.2,5.271,1.084-15.3,4.336-15.841,1.084,13,1.084,13,4.065-12.344,6.911-11.793-3.252,13.153-3.252,13.153,5.827-10.53,7.453-9.195-4.471,11.209-4.471,11.209,5.691-6.43,8.537-4.832-10.163,21.246-18.293,26.8C345.9,200.957,340.213,196.757,340.213,196.757Z" transform="translate(-340.213 -166.524)" fill="#f28f6b"/>
            <path id="Trazado_990567" data-name="Trazado 990567" d="M348.879,188.852a16.557,16.557,0,0,1,9.444-2.245" transform="translate(-340 -166.031)" fill="none" stroke="#000" stroke-miterlimit="10" stroke-width="0.5"/>
            <path id="Trazado_990568" data-name="Trazado 990568" d="M345.1,189.751c-.947-4.126-1.9-8.379-1.206-12.555" transform="translate(-340.128 -166.261)" fill="none" stroke="#000" stroke-miterlimit="10" stroke-width="0.5"/>
            <path id="Trazado_990569" data-name="Trazado 990569" d="M348.158,182.388c.108-6.311.739-10.387,3.238-15.232" transform="translate(-340.018 -166.508)" fill="none" stroke="#000" stroke-miterlimit="10" stroke-width="0.5"/>
            <path id="Trazado_990570" data-name="Trazado 990570" d="M353.424,179.5a22.129,22.129,0,0,1,5.515-11.39" transform="translate(-339.888 -166.485)" fill="none" stroke="#000" stroke-miterlimit="10" stroke-width="0.5"/>
            <path id="Trazado_990571" data-name="Trazado 990571" d="M356.877,180.781c1.978-3.445,3.828-7.258,6.677-9.315" transform="translate(-339.804 -166.402)" fill="none" stroke="#000" stroke-miterlimit="10" stroke-width="0.5"/>
            <path id="Trazado_990572" data-name="Trazado 990572" d="M359.786,182.644c1.851-1.959,4.179-4.2,7.349-4.978" transform="translate(-339.732 -166.25)" fill="none" stroke="#000" stroke-miterlimit="10" stroke-width="0.5"/>
          </g>
          <path id="Trazado_990573" data-name="Trazado 990573" d="M247.262,210.691s1.061-9.624,19.9-10.031,18.172,7.174,18.142,7.851S259.886,224.244,247.262,210.691Z" transform="translate(-189.854 -96.659)" fill="#812cff"/>
          <g id="Grupo_1154072" data-name="Grupo 1154072" transform="translate(66.279 95.164)">
            <path id="Trazado_990574" data-name="Trazado 990574" d="M269.7,222.987c-9.969-3.688-13.78-14.057-13.78-14.057a7.35,7.35,0,0,0,3.32-4.693c.615-2.346.943-5.973.973-12.08v-.123c2.141.922,15.123,4.139,15.123,4.139s-.01.082-.041.225c-.225,1.486-1.445,9.969.328,12.828a2.163,2.163,0,0,0,.2.3,43.046,43.046,0,0,0,3.576,3.934S279.67,226.686,269.7,222.987Z" transform="translate(-255.92 -192.035)" fill="#f28f6b"/>
            <path id="Trazado_990575" data-name="Trazado 990575" d="M275.543,209.224a21.489,21.489,0,0,1-14.662-4.088c-.584-.277-1.158-.574-1.721-.9.615-2.346.943-5.973.973-12.08.113.092.225.2.338.318.061.061.133.113.195.184a4.754,4.754,0,0,1,3.094,1.26c2.5,2.3,7.49,2.367,11.455,2.479C274.99,197.882,273.77,206.366,275.543,209.224Z" transform="translate(-255.84 -192.032)" fill="#e2714d"/>
          </g>
          <g id="Grupo_1154073" data-name="Grupo 1154073" transform="translate(44.833 191.438)">
            <path id="Trazado_990576" data-name="Trazado 990576" d="M238.552,295.99c-.135.949-3.426,34.586-.494,57.606,6.862-.423,29.9-2.727,29.9-2.727l4.878-41.985,1.9-.069s4.2,28.232,11.789,38.937c3.929-.542,26.287-7.046,26.287-7.046S304.27,300.129,293.837,286C287.6,287.453,238.552,295.99,238.552,295.99Z" transform="translate(-234.942 -286)" fill="#81daff"/>
            <path id="Trazado_990577" data-name="Trazado 990577" d="M236.023,349.651c-2.112.559-.567,4.471.869,4.743s31.245-1.626,32.871-3.117.542-4.743.542-4.743S240.63,348.432,236.023,349.651Z" transform="translate(-234.988 -284.513)" fill="#fff7ff"/>
            <path id="Trazado_990578" data-name="Trazado 990578" d="M282.96,344.607c-1.335.358.135,3.543,1.761,3.33s28.184-5.768,28.32-7.531a9.079,9.079,0,0,0-.677-3.659S288.516,343.117,282.96,344.607Z" transform="translate(-233.822 -284.753)" fill="#fff7ff"/>
            <path id="Trazado_990579" data-name="Trazado 990579" d="M273.822,308.311a50.313,50.313,0,0,0,8.83-1.849" transform="translate(-234.034 -285.497)" fill="none" stroke="#000" stroke-miterlimit="10" stroke-width="0.5"/>
            <path id="Trazado_990580" data-name="Trazado 990580" d="M242.112,301.383q-.689,22.935-.462,45.884" transform="translate(-234.826 -285.622)" fill="none" stroke="#000" stroke-miterlimit="10" stroke-width="0.5"/>
            <path id="Trazado_990581" data-name="Trazado 990581" d="M278.046,308.113a140.257,140.257,0,0,0,10.188,34.3" transform="translate(-233.93 -285.457)" fill="none" stroke="#000" stroke-miterlimit="10" stroke-width="0.5"/>
          </g>
          <g id="Grupo_1154074" data-name="Grupo 1154074" transform="translate(15.922 96.008)">
            <path id="Trazado_990582" data-name="Trazado 990582" d="M206.771,297.736a50.191,50.191,0,0,0,7.708,7.317c4.623,3.522,7.6,7.453,9.229,5.555a15.505,15.505,0,0,0,2.033-2.74s5.15-1.19,9.756-12.03c1.354,2.575,2.364,2.439,2.364,2.439l.936,2.438s57.133-6.931,58.352-9.563a21.879,21.879,0,0,0,0-4.935,9.451,9.451,0,0,0,3.387-7.318c.135-5.013-8.807-32.114-8.943-42.005,3.794,1.084,29.133,5.962,45.257-7.588S355.008,211.014,354.6,209.8a4.694,4.694,0,0,0-1.356-1.977s3.523-2.494,3.523-3.578-12.2-11.382-12.2-11.382A5.632,5.632,0,0,0,342,195.433c-.812-1.219-1.9-.407-8.13,4.743s-15.041,12.059-26.423,12.466a77.815,77.815,0,0,1-21.409-2.44s1.73-4.068-3.637-2.384-8.555,12.817-8.555,12.817-9.884-14.769-18.358-14.905-7.255,7.181-7.255,7.181-5.013,2.178-8.4,10.71-12.331,37.258-15.583,43.355-17.209,23.848-16.938,25.881a5.727,5.727,0,0,0,1.35,3.117Z" transform="translate(-206.771 -192.858)" fill="#812cff"/>
            <path id="Trazado_990583" data-name="Trazado 990583" d="M256.549,271.04s.677,12.6-2.168,18.374c4.065.213,32.656-4.36,37.4-9.186-.949-4.014-3.794-10.163-3.252-16.573C285.276,264.966,266.441,271.153,256.549,271.04Z" transform="translate(-205.601 -191.118)" fill="none" stroke="#000" stroke-miterlimit="10" stroke-width="0.5"/>
            <path id="Trazado_990584" data-name="Trazado 990584" d="M234.808,294.6s14.905-29.811,18.563-51.356" transform="translate(-206.082 -191.62)" fill="none" stroke="#000" stroke-miterlimit="10" stroke-width="0.5"/>
            <path id="Trazado_990585" data-name="Trazado 990585" d="M267.664,224.335a141.028,141.028,0,0,0,2.275,26.059" transform="translate(-205.275 -192.085)" fill="none" stroke="#000" stroke-miterlimit="10" stroke-width="0.5"/>
            <path id="Trazado_990586" data-name="Trazado 990586" d="M277.229,223.8a96.637,96.637,0,0,0,2.788,27.531" transform="translate(-205.042 -192.098)" fill="none" stroke="#000" stroke-miterlimit="10" stroke-width="0.5"/>
            <path id="Trazado_990587" data-name="Trazado 990587" d="M251.306,213.1a53.038,53.038,0,0,0,18.482,6.645" transform="translate(-205.677 -192.361)" fill="none" stroke="#000" stroke-miterlimit="10" stroke-width="0.5"/>
            <path id="Trazado_990588" data-name="Trazado 990588" d="M276.989,217.1a19.925,19.925,0,0,0,4.77-2.768,6.618,6.618,0,0,0,2.006-2.259,7.942,7.942,0,0,0,.457-3.738" transform="translate(-205.046 -192.478)" fill="none" stroke="#000" stroke-miterlimit="10" stroke-width="0.5"/>
          </g>
          <path id="Trazado_990589" data-name="Trazado 990589" d="M290.04,235.383a35.866,35.866,0,0,0,5.389,1.435c7.094,1.308,14.391.45,21.542-.5" transform="translate(-188.802 -95.805)" fill="none" stroke="#000" stroke-miterlimit="10" stroke-width="0.5"/>
          <g id="Grupo_1154075" data-name="Grupo 1154075" transform="translate(56.417 58.46)">
            <path id="Trazado_990590" data-name="Trazado 990590" d="M259.018,189.493V178.578a6.727,6.727,0,0,0-7.628-2.337c-5.125,1.495-6.2,6.5-4.052,10.314S254.37,191.714,259.018,189.493Z" transform="translate(-246.294 -155.727)" fill="#f28f6b"/>
            <path id="Trazado_990591" data-name="Trazado 990591" d="M255.244,178.22s-1.209-10.727,3.222-16.091,11.289-6.318,12.022-5.721,0,2.027,0,2.027,3.223-2.576,4.261-2.182.134,2.42.134,2.42,1.977-1.907,3.723-1.669,0,2.145,0,2.145,3.357-2.027,4.834-1.192,0,2.145,0,2.145,2.261-1.788,3.547-1.311,0,2.384,0,2.384,3.032-2.384,4.375-1.073-.94,2.622-.94,2.622,2.283-1.788,3.088-.358-4.968,8.463-4.968,8.463S261.42,184.3,255.244,178.22Z" transform="translate(-246.078 -156.211)" fill="#ff2dea"/>
            <path id="Trazado_990592" data-name="Trazado 990592" d="M287.838,185.889a19.756,19.756,0,0,1-1.8,4.631c-2.531,4.754-7.746,10.389-16.905,9.436C256.5,198.645,256.967,184.7,256.967,184.7a22.844,22.844,0,0,1,.9-8.238c1.609-5.164,5.758-10.676,15.789-12.141C289.988,161.935,288.791,181.719,287.838,185.889Z" transform="translate(-246.034 -156.017)" fill="#f28f6b"/>
            <path id="Trazado_990593" data-name="Trazado 990593" d="M286.035,190.224c-2.531,4.754-7.746,10.389-16.905,9.436C256.5,198.349,256.967,184.4,256.967,184.4a22.844,22.844,0,0,1,.9-8.238l.891.123,5.246,10.635Z" transform="translate(-246.034 -155.721)" fill="#ff2dea"/>
            <path id="Trazado_990594" data-name="Trazado 990594" d="M276.709,178.381a12.555,12.555,0,0,0,1.321,8.49" transform="translate(-245.553 -155.666)" fill="none" stroke="#000" stroke-miterlimit="10" stroke-width="0.5"/>
            <path id="Trazado_990595" data-name="Trazado 990595" d="M269.372,186.3a6.278,6.278,0,0,0,2.039,3.64,13.14,13.14,0,0,0,3.6,2.235" transform="translate(-245.727 -155.472)" fill="none" stroke="#000" stroke-miterlimit="10" stroke-width="0.5"/>
            <path id="Trazado_990596" data-name="Trazado 990596" d="M265.733,178.624a3.752,3.752,0,0,1,1.638-3.562,6.375,6.375,0,0,1,3.938-1" transform="translate(-245.818 -155.773)" fill="none" stroke="#000" stroke-miterlimit="10" stroke-width="0.5"/>
            <path id="Trazado_990597" data-name="Trazado 990597" d="M280.588,174.322a2.145,2.145,0,0,1,2.3.717,8.037,8.037,0,0,1,2.082,3.342" transform="translate(-245.452 -155.769)" fill="none" stroke="#000" stroke-miterlimit="10" stroke-width="0.5"/>
            <path id="Trazado_990598" data-name="Trazado 990598" d="M251.271,181.82c1.529.324,2.423,1.875,3.125,3.271" transform="translate(-246.172 -155.582)" fill="none" stroke="#000" stroke-miterlimit="10" stroke-width="0.5"/>
            <path id="Trazado_990599" data-name="Trazado 990599" d="M256.909,178.23s.489-14.619,11.408-17.576c4.679,4.763,3.7,7.509,0,12.46S256.909,178.23,256.909,178.23Z" transform="translate(-246.034 -156.102)" fill="#ff2dea"/>
            <ellipse id="Elipse_11571" data-name="Elipse 11571" cx="1.038" cy="1.743" rx="1.038" ry="1.743" transform="translate(25.947 24.681)"/>
            <ellipse id="Elipse_11572" data-name="Elipse 11572" cx="1.038" cy="1.743" rx="1.038" ry="1.743" transform="translate(34.098 24.681)"/>
            <path id="Trazado_990600" data-name="Trazado 990600" d="M260.9,173.158c2.591-.608,7.645-5.26,6.4-8.189" transform="translate(-245.936 -155.996)" fill="none" stroke="#000" stroke-miterlimit="10" stroke-width="0.5"/>
            <path id="Trazado_990601" data-name="Trazado 990601" d="M261.724,169.375a10.366,10.366,0,0,0,3.965-4.777" transform="translate(-245.915 -156.005)" fill="none" stroke="#000" stroke-miterlimit="10" stroke-width="0.5"/>
            <path id="Trazado_990602" data-name="Trazado 990602" d="M257.188,187.69l.692,2.422a17.314,17.314,0,0,0,.979,2.81,11.048,11.048,0,0,0,6.982,5.479,22.413,22.413,0,0,0,9.071.376" transform="translate(-246.027 -155.438)" fill="none" stroke="#000" stroke-miterlimit="10" stroke-width="0.5"/>
          </g>
          <g id="Grupo_1154082" data-name="Grupo 1154082" transform="translate(91.553)">
            <path id="Trazado_990603" data-name="Trazado 990603" d="M322.988,99.153c-23.417,0-42.4,14.729-42.4,32.9,0,11.766,7.966,22.084,19.936,27.9-.427,2.713-1.579,8.884-3.542,11.239,4.164.771,10.417-3.92,12.928-7.84a53.645,53.645,0,0,0,13.077,1.6c23.417,0,42.4-14.729,42.4-32.9S346.4,99.153,322.988,99.153Z" transform="translate(-280.588 -99.153)" fill="#8192ff"/>
            <g id="Grupo_1154081" data-name="Grupo 1154081" transform="translate(17.654 16.422)">
              <g id="Grupo_1154076" data-name="Grupo 1154076" clip-path="url(#clip-path)">
                <path id="Trazado_990604" data-name="Trazado 990604" d="M385.753,108.665l-2.544,8.488-2.041,6.825-.114.389-2.163,7.2-.441,1.464-1.711,5.729-1,3.328-1.15,3.835-1.565,5.2-.578,1.932-2.107,7.044s-1.766,1.139-12.4,2.451c-17.859,2.076-31.514-11.46-45.163-8.091s-23.331,4.674-32.886,2.211a40.284,40.284,0,0,1-15.491-8.4c1.017-2.406,2.038-4.832,3.057-7.248l.649-1.526q1.225-2.889,2.429-5.719c.445-1.026.878-2.052,1.319-3.057.6-1.408,1.2-2.805,1.788-4.172q1-2.347,1.979-4.591c.391-.887.768-1.756,1.144-2.615.933-2.137,1.84-4.175,2.708-6.093.152-.362.313-.722.472-1.073,1.18-2.641,2.268-5.036,3.255-7.113a39.856,39.856,0,0,0,14.265,7.372c9.554,2.463,19.248,1.149,32.886-2.211a19.217,19.217,0,0,1,4.2-.536c7.127-.2,15.833-.018,22.158,1.808C365.176,113.943,385.753,108.665,385.753,108.665Z" transform="translate(-298.639 -115.43)" fill="#81daff"/>
              </g>
              <g id="Grupo_1154077" data-name="Grupo 1154077" clip-path="url(#clip-path)">
                <path id="Trazado_990606" data-name="Trazado 990606" d="M385.664,108.665l-2.544,8.488-2.041,6.825-.114.389-2.163,7.2-.441,1.464-1.711,5.729-1,3.328-1.15,3.835-1.565,5.2c-1.065.394-4.1,1.26-11.872,2.22-17.859,2.076-31.514-11.46-45.163-8.091s-23.332,4.674-32.886,2.211a40.272,40.272,0,0,1-15-7.967q1.225-2.889,2.429-5.719c.445-1.026.878-2.052,1.319-3.057.6-1.408,1.2-2.805,1.788-4.172q1-2.347,1.979-4.591c.391-.887.768-1.756,1.144-2.615.933-2.137,1.84-4.175,2.708-6.093.152-.362.313-.722.472-1.073,1.18-2.641,2.268-5.036,3.255-7.113a39.856,39.856,0,0,0,14.265,7.372c9.554,2.463,19.248,1.149,32.886-2.211a19.217,19.217,0,0,1,4.2-.536c7.127-.2,15.833-.018,22.158,1.808C365.087,113.943,385.664,108.665,385.664,108.665Z" transform="translate(-298.551 -115.43)" fill="#ffa6ea"/>
              </g>
              <g id="Grupo_1154078" data-name="Grupo 1154078" clip-path="url(#clip-path)">
                <path id="Trazado_990608" data-name="Trazado 990608" d="M385.574,108.665l-2.544,8.488-2.041,6.825-.114.389-2.163,7.2-.441,1.464-1.711,5.729-1,3.328a68.321,68.321,0,0,1-11.365,2.05c-17.859,2.076-31.514-11.46-45.163-8.091s-23.332,4.674-32.886,2.211a39.981,39.981,0,0,1-14.468-7.54c.6-1.408,1.2-2.805,1.788-4.172q1-2.347,1.979-4.591c.391-.887.768-1.756,1.144-2.615.933-2.137,1.84-4.175,2.708-6.093.152-.362.313-.722.472-1.073,1.18-2.641,2.268-5.036,3.255-7.113a39.856,39.856,0,0,0,14.265,7.372c9.554,2.463,19.248,1.149,32.886-2.211a19.217,19.217,0,0,1,4.2-.536c7.127-.2,15.833-.018,22.158,1.808C365,113.943,385.574,108.665,385.574,108.665Z" transform="translate(-298.461 -115.43)" fill="#fff7ff"/>
              </g>
              <g id="Grupo_1154079" data-name="Grupo 1154079" clip-path="url(#clip-path)">
                <path id="Trazado_990610" data-name="Trazado 990610" d="M385.484,108.665l-2.544,8.488-2.041,6.825-.114.389-2.163,7.2-.441,1.464a75.557,75.557,0,0,1-10.86,1.9c-17.859,2.076-31.514-11.46-45.163-8.091s-23.332,4.674-32.886,2.211a39.729,39.729,0,0,1-13.913-7.1c.391-.887.768-1.756,1.144-2.615.933-2.137,1.84-4.175,2.708-6.093.152-.362.313-.722.472-1.073,1.18-2.641,2.268-5.036,3.255-7.113a39.856,39.856,0,0,0,14.265,7.372c9.554,2.463,19.248,1.149,32.886-2.211a19.217,19.217,0,0,1,4.2-.536c7.127-.2,15.833-.018,22.158,1.808C364.907,113.943,385.484,108.665,385.484,108.665Z" transform="translate(-298.37 -115.43)" fill="#ffa6ea"/>
              </g>
              <g id="Grupo_1154080" data-name="Grupo 1154080" clip-path="url(#clip-path)">
                <path id="Trazado_990612" data-name="Trazado 990612" d="M385.392,108.665l-2.544,8.488-2.041,6.825a81.871,81.871,0,0,1-10.358,1.761c-17.859,2.076-31.514-11.46-45.163-8.091s-23.331,4.674-32.886,2.211a39.528,39.528,0,0,1-13.279-6.611c.152-.362.313-.722.472-1.073,1.18-2.641,2.268-5.036,3.255-7.113a39.856,39.856,0,0,0,14.265,7.372c9.554,2.463,19.248,1.149,32.886-2.211a19.217,19.217,0,0,1,4.2-.536c7.127-.2,15.833-.018,22.158,1.808C364.814,113.943,385.392,108.665,385.392,108.665Z" transform="translate(-298.278 -115.43)" fill="#81daff"/>
              </g>
            </g>
            <path id="Trazado_990614" data-name="Trazado 990614" d="M298.528,122.246c-1.79,6.547-.709,12.4,6.043,18.218,5.255,4.529,9.147,8.159,16.659,11.515" transform="translate(-280.166 -98.586)" fill="none" stroke="#000" stroke-miterlimit="10" stroke-width="0.5"/>
            <path id="Trazado_990615" data-name="Trazado 990615" d="M350.417,115.513a24.051,24.051,0,0,1,6.3,14.786" transform="translate(-278.872 -98.751)" fill="none" stroke="#000" stroke-miterlimit="10" stroke-width="0.5"/>
            <path id="Trazado_990616" data-name="Trazado 990616" d="M354.4,117.073a19.138,19.138,0,0,1,4.611,11.974" transform="translate(-278.774 -98.713)" fill="none" stroke="#000" stroke-miterlimit="10" stroke-width="0.5"/>
          </g>
        </g>
      </g>
    </g>
  </g>
</svg>
