<svg xmlns="http://www.w3.org/2000/svg" xmlns:xlink="http://www.w3.org/1999/xlink" width="505" height="557" viewBox="0 0 505 557">
  <defs>
    <clipPath id="clip-path">
      <rect id="Rectángulo_407958" data-name="Rectángulo 407958" width="505" height="557" transform="translate(915 1369)" fill="#fff" stroke="#707070" stroke-width="1" opacity="0.7"/>
    </clipPath>
    <filter id="Trazado_990287" x="-55.54" y="-38.249" width="628.551" height="631.062" filterUnits="userSpaceOnUse">
      <feOffset dy="3" input="SourceAlpha"/>
      <feGaussianBlur stdDeviation="3" result="blur"/>
      <feFlood flood-opacity="0.161"/>
      <feComposite operator="in" in2="blur"/>
      <feComposite in="SourceGraphic"/>
    </filter>
  </defs>
  <g id="Enmascarar_grupo_1098661" data-name="Enmascarar grupo 1098661" transform="translate(-915 -1369)" clip-path="url(#clip-path)">
    <g id="Grupo_1154129" data-name="Grupo 1154129">
      <g transform="matrix(1, 0, 0, 1, 915, 1369)" filter="url(#Trazado_990287)">
        <path id="Trazado_990287-2" data-name="Trazado 990287" d="M36.632,406.478C-73.243,267.788,92.284,275.164,163.766,158.539,273.947-21.223,331.928-32.644,381.41,47.446S411.277,293.5,309.863,385.294,95.091,480.276,36.632,406.478Z" transform="translate(251.44 580.81) rotate(-137)" fill="#fcd7db" fill-rule="evenodd"/>
      </g>
      <g id="Grupo_1154128" data-name="Grupo 1154128">
        <path id="Trazado_988104" data-name="Trazado 988104" d="M612.28,609.145S496.51,597.651,499.84,613.467,629.477,611.789,612.28,609.145Z" transform="translate(769.226 1173.262)" fill="#360b1e" fill-rule="evenodd"/>
        <g id="Grupo_1153248" data-name="Grupo 1153248" transform="translate(896.749 1395.761)">
          <path id="Trazado_988079" data-name="Trazado 988079" d="M449.96,250.786S201.637,378.354,167.142,507.61c-28.7,107.55,476.508,65.84,484.484-58.494S537.264,200.128,449.96,250.786Z" transform="translate(-136.251 -219.359)" fill="#8b454e" fill-rule="evenodd"/>
          <path id="Trazado_988080" data-name="Trazado 988080" d="M327.017,300.116l-24.488,46.332,50.872-.168s7.5,2.344,7.884-9.493.037-61.8.037-61.8Z" transform="translate(-137.835 -219.774)" fill="#fff" fill-rule="evenodd"/>
          <path id="Trazado_988081" data-name="Trazado 988081" d="M317.257,311.089l141.8,1.819s-6.021-15.393-12.864-14.095a63.9,63.9,0,0,0-13.416,4.41s-4.913-16.154-13.923-15.677a38.3,38.3,0,0,0-15.891,4.564s-2.122-9.636-16.773-15S332.3,284.222,317.257,311.089Z" transform="translate(-138.006 -219.785)" fill="#fff" fill-rule="evenodd"/>
          <path id="Trazado_988082" data-name="Trazado 988082" d="M370.906,405.448l302.061-14.48s.2-93.891-27.779-96.125-64.9,50.82-64.9,50.82S548.815,313.8,525.9,321.507s-29.514,55.437-29.514,55.437-34.235-27.384-52.493-23.8-26.82,34.956-26.82,34.956S374.639,379.166,370.906,405.448Z" transform="translate(-138.629 -220.004)" fill="#fff" fill-rule="evenodd"/>
          <g id="Grupo_1153235" data-name="Grupo 1153235" transform="translate(230.678 183.1)">
            <path id="Trazado_988083" data-name="Trazado 988083" d="M477.674,409.628c-58.508,0-106.964-.979-107.9-1a.494.494,0,0,1-.484-.5.5.5,0,0,1,.5-.484c1.825.039,183.486,3.708,268.986-3.265a.5.5,0,0,1,.533.453.494.494,0,0,1-.453.533C597.284,408.753,532.987,409.628,477.674,409.628Z" transform="translate(-369.288 -404.375)" fill="#fff"/>
          </g>
          <g id="Grupo_1153236" data-name="Grupo 1153236" transform="translate(68.794 194.121)">
            <path id="Trazado_988084" data-name="Trazado 988084" d="M440.979,520.752a.5.5,0,0,1-.494-.481c-.008-.317-1.006-31.708-16.126-33.328-15.394-1.647-36.413,10.143-36.624,10.263a.495.495,0,0,1-.729-.34c-.1-.543-10.3-54.222-32-55.038-.267-.01-.542-.015-.819-.015-22.631,0-82.747,32.614-83.358,32.947a.5.5,0,0,1-.4.033.494.494,0,0,1-.293-.274c-.239-.563-24.371-56.358-64.157-58A.494.494,0,0,1,205.5,416a.5.5,0,0,1,.514-.473c38.375,1.586,62.287,52.492,64.806,58.108,6.206-3.357,62.795-33.586,84.216-32.8,21.4.8,31.521,48.615,32.808,55.176,3.582-1.925,22.385-11.585,36.615-10.056,15.976,1.712,16.975,32.955,17.009,34.284a.494.494,0,0,1-.481.507Z" transform="translate(-205.504 -415.526)" fill="#fff"/>
          </g>
          <path id="Trazado_988085" data-name="Trazado 988085" d="M437.965,516.669,135.9,502.189s-.2-93.891,27.782-96.124,64.9,50.82,64.9,50.82,31.475-31.864,54.388-24.155,29.514,55.436,29.514,55.436,34.235-27.384,52.494-23.8,26.819,34.956,26.819,34.956S434.231,490.387,437.965,516.669Z" transform="translate(-135.902 -221.294)" fill="#fff" fill-rule="evenodd"/>
          <g id="Grupo_1153237" data-name="Grupo 1153237" transform="translate(242.684 71.282)">
            <path id="Trazado_988086" data-name="Trazado 988086" d="M381.929,391.951a.493.493,0,0,1-.444-.71c.444-.913,10.989-22.28,25.576-22.28h.2c13.247.177,31.581,8.612,34.784,10.134,2.131-5.384,19.546-47.656,42.516-51.683,22.135-3.879,45.936,11.585,49.6,14.085,2.567-5.192,24.377-46.529,69.053-50.25a.494.494,0,0,1,.082.985c-46.854,3.9-68.281,49.744-68.492,50.207a.5.5,0,0,1-.323.273.49.49,0,0,1-.415-.077c-.256-.184-25.805-18.376-49.333-14.247-23.465,4.114-41.777,51.088-41.959,51.562a.5.5,0,0,1-.282.284.491.491,0,0,1-.4-.018c-.2-.1-20.582-10.075-34.845-10.265h-.181c-13.979,0-24.585,21.506-24.691,21.724A.494.494,0,0,1,381.929,391.951Z" transform="translate(-381.435 -291.244)" fill="#fff"/>
          </g>
          <g id="Grupo_1153238" data-name="Grupo 1153238" transform="translate(180.269 52.508)">
            <path id="Trazado_988087" data-name="Trazado 988087" d="M318.782,335.9a.514.514,0,0,1-.095-.009.494.494,0,0,1-.39-.579c.042-.219,4.3-22.128,6.29-33.669,2-11.651,13.4-28.465,13.881-29.175a.494.494,0,1,1,.816.557c-.118.172-11.756,17.347-13.724,28.786-1.988,11.55-6.252,33.469-6.294,33.69A.5.5,0,0,1,318.782,335.9Z" transform="translate(-318.288 -272.25)" fill="#12130f"/>
          </g>
          <g id="Grupo_1153239" data-name="Grupo 1153239" transform="translate(167.854 57.834)">
            <path id="Trazado_988088" data-name="Trazado 988088" d="M325.015,303.631a.49.49,0,0,1-.276-.084c-8.991-6.055-18.555-24.408-18.957-25.186a.494.494,0,0,1,.878-.455c.1.189,9.851,18.908,18.632,24.822a.494.494,0,0,1-.277.9Z" transform="translate(-305.726 -277.638)" fill="#12130f"/>
          </g>
          <g id="Grupo_1153240" data-name="Grupo 1153240" transform="translate(174.386 62.491)">
            <path id="Trazado_988089" data-name="Trazado 988089" d="M312.83,329h-.023a.5.5,0,0,1-.471-.516c.008-.166.8-16.732,4.123-30.113,1.616-6.514,4.4-11.066,6.851-15.083l.427-.7a.495.495,0,0,1,.845.515l-.428.7c-2.534,4.149-5.155,8.44-6.735,14.806-3.3,13.284-4.087,29.756-4.095,29.92A.493.493,0,0,1,312.83,329Z" transform="translate(-312.335 -282.351)" fill="#12130f"/>
          </g>
          <g id="Grupo_1153241" data-name="Grupo 1153241" transform="translate(161.154 58.999)">
            <path id="Trazado_988090" data-name="Trazado 988090" d="M319.877,314.633a.492.492,0,0,1-.267-.078c-13.258-8.51-20.349-34.032-20.645-35.114a.494.494,0,1,1,.954-.26c.071.262,7.286,26.239,20.225,34.542a.494.494,0,0,1-.267.909Z" transform="translate(-298.948 -278.818)" fill="#12130f"/>
          </g>
          <path id="Trazado_988091" data-name="Trazado 988091" d="M329.28,258.809s4.539,2.262,4.326,3.486-2.173,1.407-2.173,1.407l9.2,2.676a3.191,3.191,0,0,0,1.206-1.255,2.123,2.123,0,0,0-.388-2.279C340.333,261.8,333.366,259.451,329.28,258.809Z" transform="translate(-138.146 -219.586)" fill="#360b1e" fill-rule="evenodd"/>
          <path id="Trazado_988092" data-name="Trazado 988092" d="M304.753,271.577s-3.148,3.234-.652,4.84c1.877,1.208,23.329-.116,34.335-2.858,3.628-.9,5.8-2.83,5.978-3.63.314-1.4.728-4.11,0-5.349-.95-1.616-3.918-2.159-3.918-2.159s1.843,1.742,1.221,2.952c-.435.845-1.824,1.654-3.235,2.332a42.668,42.668,0,0,1-11.309,2.7C317.342,271.492,304.753,271.577,304.753,271.577Z" transform="translate(-137.842 -219.628)" fill="#ff7f8f" fill-rule="evenodd"/>
          <path id="Trazado_988093" data-name="Trazado 988093" d="M274.677,263.479s-1.655,3.41-.509,5.609c.8,1.541,9.885,4.7,18.029,6.373,3.48.717,12.275.8,13.55.968s-2.871-1.852-1.808-3.448c.691-1.037,3.914-1.543,2.814-1.393-2.924.4-16.624-.822-16.624-.822s-12.892-3.26-13.763-4.045c-.348-.313-1.122-.554-1.4-1.137A4.5,4.5,0,0,1,274.677,263.479Z" transform="translate(-137.502 -219.641)" fill="#360b1e" fill-rule="evenodd"/>
          <g id="Grupo_1153242" data-name="Grupo 1153242" transform="translate(418.869 184.71)">
            <path id="Trazado_988094" data-name="Trazado 988094" d="M590.264,461.295q-.546,0-1.078-.028c-18.746-1-29.5-10.159-29.5-25.131a30.88,30.88,0,0,1,.412-5.038.49.49,0,0,1,.568-.407.5.5,0,0,1,.407.568,29.913,29.913,0,0,0-.4,4.877c0,14.376,10.41,23.176,28.561,24.144,5.712.3,14.857-2.211,21.441-8.455a21.328,21.328,0,0,0,7.067-15.689c0-16.07-12.8-29.144-28.535-29.144a27.984,27.984,0,0,0-9.121,1.519.494.494,0,0,1-.321-.934A28.971,28.971,0,0,1,589.211,406c16.279,0,29.523,13.517,29.523,30.132a22.3,22.3,0,0,1-7.375,16.406C605.821,457.793,597.3,461.295,590.264,461.295Z" transform="translate(-559.688 -406.004)" fill="#ff6f59"/>
          </g>
          <g id="Grupo_1153243" data-name="Grupo 1153243" transform="translate(136.681 37.458)">
            <path id="Trazado_988095" data-name="Trazado 988095" d="M308.095,272.009c-16.437,0-33.908-2.626-33.908-7.493s17.47-7.492,33.908-7.492S342,259.649,342,264.516,324.532,272.009,308.095,272.009Zm0-14c-19.4,0-32.92,3.428-32.92,6.5s13.519,6.5,32.92,6.5,32.919-3.428,32.919-6.5S327.494,258.012,308.095,258.012Z" transform="translate(-274.187 -257.024)" fill="#360b1e"/>
          </g>
          <g id="Grupo_1153244" data-name="Grupo 1153244" transform="translate(139.251 42.298)">
            <path id="Trazado_988096" data-name="Trazado 988096" d="M310.695,276.905c-16.437,0-33.907-2.626-33.907-7.492s17.47-7.492,33.907-7.492c12.511,0,23.92,1.448,29.775,3.781a.494.494,0,0,1-.366.917c-5.747-2.288-17.015-3.709-29.41-3.709-19.4,0-32.919,3.428-32.919,6.5s13.519,6.5,32.919,6.5,32.92-3.428,32.92-6.5a.494.494,0,1,1,.988,0C344.6,274.279,327.132,276.905,310.695,276.905Z" transform="translate(-276.788 -261.921)" fill="#360b1e"/>
          </g>
          <path id="Trazado_988097" data-name="Trazado 988097" d="M255.7,266.788h37.448A3.379,3.379,0,0,1,296.5,270.2v2.852a3.379,3.379,0,0,1-3.344,3.414H255.7a3.38,3.38,0,0,1-3.344-3.414V270.2A3.38,3.38,0,0,1,255.7,266.788Z" transform="translate(-137.253 -219.679)" fill="#ff7f8f" fill-rule="evenodd"/>
          <g id="Grupo_1153245" data-name="Grupo 1153245" transform="translate(168.884 60.423)">
            <path id="Trazado_988098" data-name="Trazado 988098" d="M307.263,328.512h-.006a.494.494,0,0,1-.488-.5c0-.128.164-13.042.373-24.594.212-11.713,8.63-22.855,8.716-22.965a.495.495,0,0,1,.786.6c-.084.109-8.306,11-8.512,22.382-.209,11.55-.372,24.46-.373,24.589A.5.5,0,0,1,307.263,328.512Z" transform="translate(-306.769 -280.258)" fill="#12130f"/>
          </g>
          <g id="Grupo_1153246" data-name="Grupo 1153246" transform="translate(155.356 60.867)">
            <path id="Trazado_988099" data-name="Trazado 988099" d="M312.312,323.679a.494.494,0,0,1-.341-.136c-13.636-12.985-18.832-41.963-18.882-42.255a.495.495,0,1,1,.975-.17c.05.288,5.192,28.949,18.591,41.708a.495.495,0,0,1-.342.853Z" transform="translate(-293.082 -280.707)" fill="#12130f"/>
          </g>
        </g>
        <g id="Grupo_1153250" data-name="Grupo 1153250" transform="translate(933.506 1759.516)">
          <path id="Trazado_988101" data-name="Trazado 988101" d="M496.961,587.627S65.367,650.46,107.8,686.68s276.1,62.481,345.4,56.746S641.059,572.747,496.961,587.627Z" transform="translate(-104.868 -586.678)" fill="#ff7f8f" fill-rule="evenodd"/>
          <g id="Grupo_1153249" data-name="Grupo 1153249" transform="translate(135.492 21.268)">
            <path id="Trazado_988102" data-name="Trazado 988102" d="M262.027,628.612l316.59,48.042c1.679.254,2.9.935,2.738,1.523l-1.643,5.744c-.169.588-1.665.855-3.344.6L259.778,636.48c-1.68-.254-2.907-.935-2.739-1.523l1.641-5.744C258.848,628.626,260.346,628.358,262.027,628.612Z" transform="translate(-257.024 -612.528)" fill="#fff" fill-rule="evenodd"/>
            <path id="Trazado_988103" data-name="Trazado 988103" d="M431.432,610.675c-54.074-1.692-111.649,15.793-128.973,39.533-3.315,4.541-4.977,9.07-5.045,13.429-.112,7.266,4.19,14.065,12.6,19.729,12.977,8.731,34.74,14.088,61.275,14.916,54.073,1.692,111.648-15.788,128.972-39.529,3.317-4.541,4.978-9.065,5.045-13.424.111-7.266-4.2-14.07-12.609-19.733C479.722,616.859,457.968,611.508,431.432,610.675Zm-.216,5.49c24.762.775,44.694,5.681,56.106,13.362,10.931,7.355,13.219,16.7,5.948,26.661C477.5,677.8,422.822,694.4,371.51,692.8c-24.762-.779-44.7-5.681-56.113-13.362-10.929-7.355-13.222-16.692-5.951-26.657C325.216,631.165,379.9,614.558,431.216,616.165Z" transform="translate(-261.447 -610.562)" fill="#fff" fill-rule="evenodd"/>
          </g>
        </g>
        <g id="Grupo_1153305" data-name="Grupo 1153305" transform="translate(1199.374 1490.528)">
          <g id="Grupo_1153275" data-name="Grupo 1153275" transform="translate(107.692 166.813)">
            <g id="Grupo_1153274" data-name="Grupo 1153274" transform="translate(42.917 40.743)">
              <g id="Grupo_1153271" data-name="Grupo 1153271" transform="translate(15.18 0.593)">
                <path id="Trazado_988149" data-name="Trazado 988149" d="M594.273,527.713s2.517.024,3.212,1.871,1.34,9.51,1.294,10.863-2.65.587-3.478.418S594.273,527.713,594.273,527.713Z" transform="translate(-593.76 -527.197)" fill="#fff" fill-rule="evenodd"/>
                <path id="Trazado_988150" data-name="Trazado 988150" d="M597.584,541.757a9.735,9.735,0,0,1-2.055-.309l-.319-.071c-.432-.088-1.237-.251-1.437-13.645a.506.506,0,0,1,.149-.368.442.442,0,0,1,.367-.151c.117,0,2.877.052,3.686,2.2.728,1.95,1.374,9.682,1.327,11.06a1.194,1.194,0,0,1-.466.942A2.018,2.018,0,0,1,597.584,541.757Zm-1.989-1.342.162.036c.56.129,2.049.471,2.456.155.025-.019.062-.048.067-.167.047-1.389-.625-8.96-1.262-10.666a2.71,2.71,0,0,0-2.213-1.484C594.9,533.671,595.211,539.4,595.595,540.415Zm-.181-.04.016,0Z" transform="translate(-593.772 -527.209)" fill="#12130f"/>
              </g>
              <path id="Trazado_988151" data-name="Trazado 988151" d="M579.344,555.145s-1.386-11.038,8.752-12.343,12.087,5.836,12.087,5.836S583.15,561.207,579.344,555.145Z" transform="translate(-578.926 -526.26)" fill="#12130f" fill-rule="evenodd"/>
              <path id="Trazado_988152" data-name="Trazado 988152" d="M585,528.316s8.762-3.417,10.286-.525.885,8.091,3.166,11.265,5.279,10.627,2.2,13.256-19.662,9.509-19.9,5.79,5.1-13.243,4.256-16.032S582.329,528.628,585,528.316Z" transform="translate(-578.892 -526.629)" fill="#12130f" fill-rule="evenodd"/>
              <g id="Grupo_1153272" data-name="Grupo 1153272" transform="translate(0 14.187)">
                <path id="Trazado_988153" data-name="Trazado 988153" d="M598,549.4s-5.944,2.113-10.987,3.473c-3.427.921-7.524.517-7.565,2.752s-.189,6.087,3.146,5.376,19.274-4.358,19.8-7.969a15.377,15.377,0,0,0-.261-6.036,24.651,24.651,0,0,0-2.793-6S600.011,546.769,598,549.4Z" transform="translate(-578.922 -540.485)" fill="#fff" fill-rule="evenodd"/>
                <path id="Trazado_988154" data-name="Trazado 988154" d="M581.849,561.608a2.5,2.5,0,0,1-1.638-.549c-1.345-1.111-1.3-3.522-1.265-5.284l0-.149c.036-1.986,2.351-2.314,4.8-2.662a26.6,26.6,0,0,0,3.142-.575c4.528-1.221,9.854-3.076,10.8-3.41,1.752-2.489,1.152-7.858,1.146-7.912a.511.511,0,0,1,.933-.343,24.954,24.954,0,0,1,2.858,6.14,16.03,16.03,0,0,1,.275,6.251c-.545,3.774-14.3,7.129-20.195,8.4A4.079,4.079,0,0,1,581.849,561.608ZM599.97,543.1c.011,1.992-.231,4.9-1.552,6.623a.507.507,0,0,1-.234.171c-.059.021-6.021,2.135-11.025,3.485a27.162,27.162,0,0,1-3.265.6c-2.419.344-3.9.607-3.921,1.668l0,.15c-.028,1.465-.07,3.679.894,4.475a1.843,1.843,0,0,0,1.637.24c9.1-1.957,19.051-5.153,19.4-7.542a14.989,14.989,0,0,0-.246-5.822A22.265,22.265,0,0,0,599.97,543.1Zm-1.958,6.312h0Z" transform="translate(-578.934 -540.496)" fill="#12130f"/>
              </g>
              <g id="Grupo_1153273" data-name="Grupo 1153273" transform="translate(0.526 16.277)">
                <path id="Trazado_988155" data-name="Trazado 988155" d="M579.959,549.245a.51.51,0,0,1-.485-.672c.026-.079,2.707-7.824,12.17-5.647a.512.512,0,0,1-.23,1c-8.563-1.971-10.876,4.688-10.97,4.972A.51.51,0,0,1,579.959,549.245Z" transform="translate(-579.448 -542.54)" fill="#fff"/>
              </g>
              <path id="Trazado_988156" data-name="Trazado 988156" d="M585.855,536.677l5.959-2.023a1.177,1.177,0,0,1,1.56.536h0a1.212,1.212,0,0,1-.936,1.384l-5.954,2.023a1.175,1.175,0,0,1-1.56-.536h0A1.212,1.212,0,0,1,585.855,536.677Z" transform="translate(-578.797 -526.446)" fill="#fff" fill-rule="evenodd"/>
            </g>
            <path id="Trazado_988157" data-name="Trazado 988157" d="M536.983,493.721s22.64,28.111,27.412,34.449c7.038,9.362,18.256,6.858,22.813,7,4.23.135,11.218-2.071,4.757-5.28-9.09-4.518-15.627.389-23.284-9.318S545.367,486.8,545.367,486.8Z" transform="translate(-536.983 -486.803)" fill="#b57f6d" fill-rule="evenodd"/>
            <path id="Trazado_988158" data-name="Trazado 988158" d="M545.51,487.182l-7.862,7.323s6.194,8.017,13.535,16.928c-1.238-4.275-2.731-10.346-2.041-11.725.588-1.178,4.511,1.794,8.143,4.851C551.075,495.469,545.51,487.182,545.51,487.182Z" transform="translate(-536.968 -486.794)" fill="#360b1e" fill-rule="evenodd"/>
            <path id="Trazado_988159" data-name="Trazado 988159" d="M581.753,526.629c3.458,1.226,7.453,2.947,7.453,4.567,0,1.326-1.714,2.354-3.514,3.08.133,0,.363-.024.486-.019,4.23.134,11.218-2.068,4.757-5.276A25.171,25.171,0,0,0,581.753,526.629Z" transform="translate(-535.952 -485.886)" fill="#360b1e" fill-rule="evenodd"/>
          </g>
          <path id="Trazado_988160" data-name="Trazado 988160" d="M531.3,473.216s-11.78,15.308-9.535,17,14.005-2.1,19.954-4.8,18.65-11.151,16.1-13.008S535.657,470.373,531.3,473.216Z" transform="translate(-429.648 -320.353)" fill="#360b1e" fill-rule="evenodd"/>
          <path id="Trazado_988161" data-name="Trazado 988161" d="M526.053,488.115s6.645,8.667,12.67,7.97,12.333-9.185,8.542-16.4C544.519,474.455,527.347,481.7,526.053,488.115Z" transform="translate(-429.543 -320.195)" fill="#12130f" fill-rule="evenodd"/>
          <g id="Grupo_1153276" data-name="Grupo 1153276" transform="translate(23.867 3.954)">
            <path id="Trazado_988162" data-name="Trazado 988162" d="M472.5,349.932a16.719,16.719,0,0,1-6.7-1.5c-11.847-5.146-10.743-20.2-10.731-20.353a.5.5,0,0,1,.551-.468.512.512,0,0,1,.469.551c-.012.144-1.051,14.479,10.118,19.331,11.092,4.816,16.883-4.026,17.124-4.4a.512.512,0,0,1,.865.547C484.153,343.718,480.107,349.931,472.5,349.932Z" transform="translate(-455.044 -327.61)" fill="#360b1e"/>
          </g>
          <path id="Trazado_988163" data-name="Trazado 988163" d="M474.878,514.719s22.555,1.285,29.854-2.569,13.928-9.019,10.87-9.547-20.169-4.064-23.925-2.639S466.7,513.3,474.878,514.719Z" transform="translate(-430.764 -319.695)" fill="#360b1e" fill-rule="evenodd"/>
          <g id="Grupo_1153278" data-name="Grupo 1153278" transform="translate(43.644 185.404)">
            <path id="Trazado_988164" data-name="Trazado 988164" d="M505.4,570.323s-1.269-7.294.235-8.414,7.468-4.317,8.414-2.634,2.906,5.422,2.348,7.667S505.4,570.323,505.4,570.323Z" transform="translate(-473.674 -503.736)" fill="#12130f" fill-rule="evenodd"/>
            <path id="Trazado_988165" data-name="Trazado 988165" d="M474.635,512.249s9.8,19.5,18.456,33.15,14.862,30.348,20.585,28.64.778-6.65-.588-12.43c-5.57-23.594-7.12-47.588-11.084-55.485-1.545-3.077-6.435.854-11.163,2.2-2.8.8-6.736,1.247-9.385,1.878A51.507,51.507,0,0,0,474.635,512.249Z" transform="translate(-474.371 -504.975)" fill="#ef5e7f" fill-rule="evenodd"/>
            <g id="Grupo_1153277" data-name="Grupo 1153277" transform="translate(26.327 58.212)">
              <path id="Trazado_988166" data-name="Trazado 988166" d="M502.413,603.085s-3.376,4.322-.859,8.082,15.611,2.916,19.724-1.54,3.627-13.934,3.627-17.294.1-8.113,2.113-9.6,1.877-9.478,1.442-12.926-6.578-11.028-12.179-5.437S502.413,603.085,502.413,603.085Z" transform="translate(-500.1 -561.865)" fill="#fff" fill-rule="evenodd"/>
              <path id="Trazado_988167" data-name="Trazado 988167" d="M509.062,614.065c-.573,0-1.13-.02-1.665-.062-3.1-.241-5.324-1.144-6.258-2.538-2.517-3.76.314-7.912.813-8.591.6-2.385,8.445-33.332,13.978-38.854,2.512-2.505,4.987-2.363,6.623-1.8a10.932,10.932,0,0,1,6.425,7.54c.278,2.213.862,11.55-1.646,13.4-1.9,1.407-1.9,6.663-1.9,9.189l.007.967c.043,4.038.131,12.44-3.769,16.673C519.119,612.746,513.609,614.065,509.062,614.065Zm11.512-51.17a5.533,5.533,0,0,0-3.92,1.848c-5.432,5.422-13.65,38.149-13.732,38.478a.516.516,0,0,1-.093.19c-.032.04-3.115,4.081-.838,7.482.746,1.113,2.745,1.874,5.487,2.088,4.6.357,10.882-.924,13.436-3.69,3.624-3.934,3.539-12.063,3.5-15.968l-.007-.978c0-4.015.179-8.432,2.32-10.012,1.568-1.158,1.781-8.147,1.239-12.45a9.9,9.9,0,0,0-5.741-6.7A5.039,5.039,0,0,0,520.575,562.895Zm-18.15,40.2h0Z" transform="translate(-500.112 -561.877)" fill="#12130f"/>
            </g>
            <path id="Trazado_988168" data-name="Trazado 988168" d="M503.73,572.187s1.243,7.207.911,10.348-5.315,21.791-3.489,23.908,7.448,3.177,12.558,1.934c5.893-1.437,10.281-9.816,10.281-13.632s-2.077-10.092-.916-12.3,2.4-12.327.911-15.586-9.289-7.816-10.532-7.9,2.818,6.215-1,9.519c-2.3,1.99-7.31-.783-7.811-2.819S502.814,568.8,503.73,572.187Z" transform="translate(-473.77 -503.732)" fill="#12130f" fill-rule="evenodd"/>
            <path id="Trazado_988169" data-name="Trazado 988169" d="M505.945,574.194h9.437a.989.989,0,0,1,.977,1h0a.989.989,0,0,1-.977,1h-9.437a.992.992,0,0,1-.977-1h0A.992.992,0,0,1,505.945,574.194Z" transform="translate(-473.672 -503.381)" fill="#fff" fill-rule="evenodd"/>
            <path id="Trazado_988170" data-name="Trazado 988170" d="M505.945,579.089h9.437a.989.989,0,0,1,.977,1h0a.989.989,0,0,1-.977,1h-9.437a.992.992,0,0,1-.977-1h0A.992.992,0,0,1,505.945,579.089Z" transform="translate(-473.672 -503.269)" fill="#fff" fill-rule="evenodd"/>
            <path id="Trazado_988171" data-name="Trazado 988171" d="M505.945,584.349h9.437a.989.989,0,0,1,.977,1h0a.989.989,0,0,1-.977,1h-9.437a.992.992,0,0,1-.977-1h0A.992.992,0,0,1,505.945,584.349Z" transform="translate(-473.672 -503.147)" fill="#fff" fill-rule="evenodd"/>
            <path id="Trazado_988172" data-name="Trazado 988172" d="M505.945,589.339h9.437a.989.989,0,0,1,.977,1h0a.989.989,0,0,1-.977,1h-9.437a.992.992,0,0,1-.977-1h0A.993.993,0,0,1,505.945,589.339Z" transform="translate(-473.672 -503.033)" fill="#fff" fill-rule="evenodd"/>
            <path id="Trazado_988173" data-name="Trazado 988173" d="M474.377,511.86s3.2,6.478,7.923,15.113c8.9,16.263,22.45,39.887,23.637,41.048a7.375,7.375,0,0,0,4.184,2.179s-14.425-29.172-18.707-39.669-8.239-20.805-8.239-20.805S474.953,510.242,474.377,511.86Z" transform="translate(-474.377 -504.866)" fill="#ffbfbe" fill-rule="evenodd"/>
          </g>
          <path id="Trazado_988174" data-name="Trazado 988174" d="M520.7,392.626l-2.767-.82,11.974,11.621s1.765.226,6.159,3.219,30.527,17.693,32.757,19.21,23.289,5.48,23.289,5.48-13.637-16.4-25.632-26.521-18.491-11.358-21.018-14.144-10.21-10.329-10.21-10.329Z" transform="translate(-429.73 -322.442)" fill="#ffbfbe" fill-rule="evenodd"/>
          <g id="Grupo_1153279" data-name="Grupo 1153279" transform="translate(91.57 72.561)">
            <path id="Trazado_988175" data-name="Trazado 988175" d="M565.852,424.137a.519.519,0,0,1-.256-.069c-.321-.186-32.219-18.585-34.987-20.057-2.852-1.517-8.991-8.2-9.251-8.481a.512.512,0,1,1,.755-.692c.062.069,6.279,6.834,8.978,8.269,2.784,1.48,33.7,19.316,35.018,20.074a.512.512,0,0,1-.257.955Z" transform="translate(-521.224 -394.673)" fill="#12130f"/>
          </g>
          <path id="Trazado_988176" data-name="Trazado 988176" d="M469.16,426.539s-17.847-8.572-20.4-9.226-16.774,4.047-16.687,6.92S447.6,427.543,453.246,428,468.178,428.2,469.16,426.539Z" transform="translate(-431.707 -321.592)" fill="#360b1e" fill-rule="evenodd"/>
          <path id="Trazado_988177" data-name="Trazado 988177" d="M492.5,346.138s-.533-10.958-8.416-14.063-14.819-1.663-17.775-3.1-8.59-7.373-10.313-4.412-2.4,15.452,11.913,22.188a63.337,63.337,0,0,1,21.8,16.509s10.039-13.3,7.3-17.075C495.3,343.831,492.5,346.138,492.5,346.138Z" transform="translate(-431.176 -323.745)" fill="#360b1e" fill-rule="evenodd"/>
          <path id="Trazado_988178" data-name="Trazado 988178" d="M490.642,449.471s36.692-22.319,39.94-21.071-5.294,13.743-8.092,18.133S490.642,449.471,490.642,449.471Z" transform="translate(-430.358 -321.336)" fill="#360b1e" fill-rule="evenodd"/>
          <path id="Trazado_988179" data-name="Trazado 988179" d="M509.668,355.42,477.955,372.19c-6.343,3.354-26.076,6.2-28.693,10.142s-17.547,43.3-17.547,43.3,13.124-6.639,19.059-4.327,12.562,4.5,12.562,4.5l.742,6.112-.169,22.151s41.744-8.3,48.649-13.854,18.808-10.1,18.808-10.1-16.189.2-18.43-4.281-.486-10.16-.112-15.6,2.02-20.765,2.02-20.765l7.5,11.267s9.074-3.611,13.427-8.653a31.77,31.77,0,0,0,5.995-11.43S513.55,353.51,509.668,355.42Z" transform="translate(-431.715 -323.018)" fill="#fdaf2f" fill-rule="evenodd"/>
          <g id="Grupo_1153280" data-name="Grupo 1153280" transform="translate(13.035 31.529)">
            <path id="Trazado_988180" data-name="Trazado 988180" d="M444.969,392.277a.511.511,0,0,1-.5-.614c.077-.373,1.929-9.174,6.993-11.434,1.7-.757,5.419-1.929,10.134-3.414,8.659-2.726,20.518-6.46,25.317-9.52,7.317-4.666,23.521-12.6,23.684-12.678a.512.512,0,0,1,.45.919c-.163.08-16.316,7.987-23.584,12.621-4.913,3.132-16.846,6.89-25.559,9.634-4.5,1.416-8.383,2.639-10.025,3.372-4.583,2.045-6.39,10.619-6.408,10.7A.51.51,0,0,1,444.969,392.277Z" transform="translate(-444.457 -354.564)" fill="#12130f"/>
          </g>
          <path id="Trazado_988181" data-name="Trazado 988181" d="M471.182,374.4l4.858,10.5s5.888,3.618,8.689.584,5.716-15.523,5.029-20.251-7.888-4.085-7.888-4.085Z" transform="translate(-430.806 -322.884)" fill="#ffbfbe" fill-rule="evenodd"/>
          <path id="Trazado_988182" data-name="Trazado 988182" d="M470.693,373.355l3.2,6.977s7.868-3.271,11.49-10.928c2.744-5.8,2.275-9.053,2.275-9.053Z" transform="translate(-430.817 -322.902)" fill="#ef5e7f" fill-rule="evenodd"/>
          <path id="Trazado_988183" data-name="Trazado 988183" d="M467.378,344.264s-5.728,11.751-6.985,15.369c-.968,2.784,1.456,14.983,4.81,16.228s10.267-.519,13.316-2.8,8.132-9.445,8.132-9.445,4.27-11.209,2.745-12.87-9.1-.235-12.758-3.038S467.378,344.264,467.378,344.264Z" transform="translate(-431.06 -323.272)" fill="#ffbfbe" fill-rule="evenodd"/>
          <path id="Trazado_988184" data-name="Trazado 988184" d="M485.831,360.93s4.916-7.645,8.058-4.843S491.375,366.3,488,366.533,485.259,363.381,485.831,360.93Z" transform="translate(-430.479 -323.014)" fill="#ffbfbe" fill-rule="evenodd"/>
          <g id="Grupo_1153281" data-name="Grupo 1153281" transform="translate(60.124 11.81)">
            <path id="Trazado_988185" data-name="Trazado 988185" d="M491.47,346.528a.512.512,0,0,1-.477-.7c.028-.071,2.717-7.139-.321-9.635a.512.512,0,0,1,.65-.791c2.5,2.051,1.9,6.278,1.251,8.794,1.713-1.567,4.385-3.558,6.011-2.525a.512.512,0,1,1-.547.864c-1.164-.74-4.318,1.792-6.189,3.823A.514.514,0,0,1,491.47,346.528Z" transform="translate(-490.486 -335.289)" fill="#360b1e"/>
          </g>
          <g id="Grupo_1153282" data-name="Grupo 1153282" transform="translate(55.221 35.197)">
            <path id="Trazado_988186" data-name="Trazado 988186" d="M486.205,361.926a.511.511,0,0,1-.295-.93c.169-.119,4.183-2.913,7.032-2.845a.512.512,0,0,1,.5.522.526.526,0,0,1-.522.5c-2.54-.06-6.385,2.633-6.424,2.66A.513.513,0,0,1,486.205,361.926Z" transform="translate(-485.693 -358.15)" fill="#360b1e"/>
          </g>
          <g id="Grupo_1153283" data-name="Grupo 1153283" transform="translate(58.484 35.526)">
            <path id="Trazado_988187" data-name="Trazado 988187" d="M489.393,364.178a.511.511,0,0,1-.4-.828,9.713,9.713,0,0,0,1.641-4.416.512.512,0,0,1,1.019.093,10.607,10.607,0,0,1-1.856,4.954A.51.51,0,0,1,489.393,364.178Z" transform="translate(-488.883 -358.471)" fill="#360b1e"/>
          </g>
          <g id="Grupo_1153284" data-name="Grupo 1153284" transform="translate(127.713 95.829)">
            <path id="Trazado_988188" data-name="Trazado 988188" d="M557.053,436.951c0-10.513,10.808-19.034,21.1-19.034s17.514,8.365,17.514,18.877-9.683,19.192-19.98,19.192A18.838,18.838,0,0,1,557.053,436.951Z" transform="translate(-556.542 -417.405)" fill="#ff6f59" fill-rule="evenodd"/>
            <path id="Trazado_988189" data-name="Trazado 988189" d="M575.7,456.509a19.374,19.374,0,0,1-19.151-19.546c0-11.187,11.413-19.546,21.617-19.546,10.276,0,18.026,8.335,18.026,19.388C596.2,447.3,586.62,456.509,575.7,456.509Zm2.466-38.069c-9.721,0-20.594,7.921-20.594,18.523A18.349,18.349,0,0,0,575.7,455.486c10.371,0,19.468-8.729,19.468-18.681C595.172,426.335,587.863,418.44,578.169,418.44Z" transform="translate(-556.553 -417.417)" fill="#360b1e"/>
          </g>
          <path id="Trazado_988190" data-name="Trazado 988190" d="M467.214,344.177l-.378.89s5.635,5.088,9.533,5.283c4.469.224,11.007-.216,11.007-.216s-6.959-.628-8.824-1.491-2.96-1.926-5.489-2.994A25.732,25.732,0,0,0,467.214,344.177Z" transform="translate(-430.906 -323.274)" fill="#ef5e7f" fill-rule="evenodd"/>
          <g id="Grupo_1153285" data-name="Grupo 1153285" transform="translate(140.611 99.708)">
            <path id="Trazado_988191" data-name="Trazado 988191" d="M572.093,453.937s-4.727-5.259-.972-16.711c4.512-13.759,14.2-15.518,14.2-15.518Z" transform="translate(-569.15 -421.197)" fill="#ff6f59" fill-rule="evenodd"/>
            <path id="Trazado_988192" data-name="Trazado 988192" d="M572.1,454.459a.51.51,0,0,1-.38-.169c-.2-.223-4.881-5.612-1.077-17.212,4.555-13.889,14.191-15.787,14.6-15.862a.512.512,0,0,1,.184,1.007c-.094.017-9.458,1.9-13.811,15.174-3.6,10.995.823,16.161.868,16.212a.513.513,0,0,1-.041.722A.522.522,0,0,1,572.1,454.459Z" transform="translate(-569.161 -421.208)" fill="#360b1e"/>
          </g>
          <g id="Grupo_1153286" data-name="Grupo 1153286" transform="translate(34.846 20.128)">
            <path id="Trazado_988193" data-name="Trazado 988193" d="M489.652,350.782a.505.505,0,0,1-.278-.083c-.431-.275-3.231-.329-5.48-.373-3.427-.068-7.312-.143-9.225-.8-3.407-1.168-8.478-5.027-8.692-5.19a.512.512,0,0,1,.621-.813c.051.04,5.154,3.921,8.4,5.035,1.761.6,5.726.681,8.913.744,3.517.07,5.382.125,6.018.539a.512.512,0,0,1-.279.94Z" transform="translate(-465.777 -343.419)" fill="#360b1e"/>
          </g>
          <g id="Grupo_1153287" data-name="Grupo 1153287" transform="translate(35.901 26.42)">
            <path id="Trazado_988194" data-name="Trazado 988194" d="M472.044,352.279a.5.5,0,0,1-.224-.052,16.882,16.882,0,0,0-4.567-1.639.512.512,0,0,1,.13-1.015,17.416,17.416,0,0,1,4.887,1.735.511.511,0,0,1-.226.971Z" transform="translate(-466.808 -349.57)" fill="#360b1e"/>
          </g>
          <g id="Grupo_1153288" data-name="Grupo 1153288" transform="translate(45.878 30.949)">
            <path id="Trazado_988195" data-name="Trazado 988195" d="M481.8,356.708a.5.5,0,0,1-.224-.052,16.883,16.883,0,0,0-4.567-1.639.513.513,0,0,1-.442-.573.507.507,0,0,1,.571-.443,17.391,17.391,0,0,1,4.888,1.734.513.513,0,0,1-.226.973Z" transform="translate(-476.56 -353.998)" fill="#360b1e"/>
          </g>
          <path id="Trazado_988196" data-name="Trazado 988196" d="M477.5,358.915c-.552-.268-.594-1.359-.094-2.437s1.356-1.734,1.908-1.467.6,1.359.094,2.437S478.055,359.183,477.5,358.915Z" transform="translate(-430.671 -323.026)" fill="#360b1e" fill-rule="evenodd"/>
          <path id="Trazado_988197" data-name="Trazado 988197" d="M467.749,354.856c-.552-.268-.594-1.359-.094-2.437s1.354-1.735,1.908-1.467.6,1.359.094,2.437S468.3,355.124,467.749,354.856Z" transform="translate(-430.895 -323.12)" fill="#360b1e" fill-rule="evenodd"/>
          <g id="Grupo_1153289" data-name="Grupo 1153289" transform="translate(36.313 43.661)">
            <path id="Trazado_988198" data-name="Trazado 988198" d="M471.7,367.954a15.019,15.019,0,0,1-4.129-.532.511.511,0,0,1,.3-.976,15.3,15.3,0,0,0,5.978.339.512.512,0,0,1,.14,1.014A16.956,16.956,0,0,1,471.7,367.954Z" transform="translate(-467.21 -366.423)" fill="#360b1e"/>
          </g>
          <path id="Trazado_988199" data-name="Trazado 988199" d="M466.129,441.188s-5.146,14.733-1.834,28.015,8.95,46.084,8.95,46.084a5.82,5.82,0,0,1,3.481-4.1c5.137-1.869,14.447-2.565,18.6-5.2,6.5-4.121,20.711-2.016,20.711-2.016s-12.8-8.154-14.281-15.154-3.325-23.77-3.325-23.77,24.7,26.126,24.778,26.033,7.09-11.778,16.813-12.756a70.033,70.033,0,0,0,19.182-5.291s-21.2-18.949-26.67-25.334a152.121,152.121,0,0,0-11.9-12.175s-12.056,6.331-19.044,9.414S465.795,441.591,466.129,441.188Z" transform="translate(-430.99 -321.171)" fill="#70e8ad" fill-rule="evenodd"/>
          <path id="Trazado_988200" data-name="Trazado 988200" d="M469.188,360.412l4.536,1.785a7.3,7.3,0,0,1-3.439.3C468.861,362.119,469.188,360.412,469.188,360.412Z" transform="translate(-430.853 -322.9)" fill="#ef5e7f" fill-rule="evenodd"/>
          <path id="Trazado_988201" data-name="Trazado 988201" d="M440.206,422.471s-5.546,38.266,1.259,39.227,36.459-7.959,40.391-8.281,11.275,2.748,11.275,2.748,6.646.193,9.147.84,7.146,1.95,6.911.2-10.435-4.7-10.435-4.7,17.253.886,17.734-1.088-6.9-2.224-8.68-2.733-6.1-1.944-6.1-1.944,6.45.37,8.281-.574a11.32,11.32,0,0,0,6.634-.165c3.069-.924,1.78-4.469,1.78-4.469l-15.381.487s8.358-.848,10.01-1.067,5.4-1.386,5.637-2.985-8.726-1.49-17.187-.343-12.871,2.257-19.621,2.6-24.439,2.782-24.439,2.782l2.729-18.621a68.712,68.712,0,0,0-10.869-3.423C444.948,420.205,440.206,422.471,440.206,422.471Z" transform="translate(-431.568 -321.51)" fill="#ffbfbe" fill-rule="evenodd"/>
          <g id="Grupo_1153290" data-name="Grupo 1153290" transform="translate(69.128 52.088)">
            <path id="Trazado_988202" data-name="Trazado 988202" d="M500.366,430.429a.651.651,0,0,1-.357-.107c-.9-.588-.888-4.448-.35-19.476.1-2.854.21-5.851.3-8.858.4-13.1.38-26.68.379-26.815a.512.512,0,0,1,.51-.513h0a.512.512,0,0,1,.512.51c0,.136.021,13.729-.378,26.848-.09,3.01-.2,6.009-.3,8.864-.275,7.7-.559,15.628-.216,18.006.672-2.259,1.261-10.365,1.705-16.463.348-4.787.677-9.309,1.07-12.255,1.064-7.988,1.5-19.854,1.5-19.973a.5.5,0,0,1,.53-.492.512.512,0,0,1,.493.53c0,.12-.443,12.034-1.513,20.071-.389,2.917-.716,7.423-1.064,12.194-.956,13.148-1.43,17.327-2.529,17.86A.72.72,0,0,1,500.366,430.429Z" transform="translate(-499.287 -374.66)" fill="#fff"/>
          </g>
          <g id="Grupo_1153291" data-name="Grupo 1153291" transform="translate(25.736 59.747)">
            <path id="Trazado_988203" data-name="Trazado 988203" d="M464.693,431.219h-.036a.512.512,0,0,1-.475-.545,197.362,197.362,0,0,0-.037-22.129c-.692-12.353-7.155-25.527-7.221-25.658a.512.512,0,0,1,.917-.454c.067.133,6.622,13.49,7.325,26.055a198.784,198.784,0,0,1,.037,22.257A.513.513,0,0,1,464.693,431.219Z" transform="translate(-456.872 -382.147)" fill="#fff"/>
          </g>
          <g id="Grupo_1153292" data-name="Grupo 1153292" transform="translate(40.292 47.885)">
            <path id="Trazado_988204" data-name="Trazado 988204" d="M481.842,390.969c-4.122,0-10.309-5.651-10.577-5.9a.511.511,0,1,1,.693-.752c.064.058,6.437,5.9,10.127,5.618,3.394-.258,9.667-12.787,10.178-18.915a.5.5,0,0,1,.552-.468.513.513,0,0,1,.468.552c-.463,5.55-6.679,19.513-11.12,19.85C482.057,390.964,481.95,390.969,481.842,390.969Z" transform="translate(-471.1 -370.552)" fill="#fff"/>
          </g>
          <g id="Grupo_1153293" data-name="Grupo 1153293" transform="translate(75.733 43.533)">
            <path id="Trazado_988205" data-name="Trazado 988205" d="M506.254,430.284a.492.492,0,0,1-.152-.024.511.511,0,0,1-.336-.64c5.763-18.373,6.786-62.379,6.795-62.822a.526.526,0,0,1,.523-.5.512.512,0,0,1,.5.523c-.01.444-1.036,44.6-6.842,63.105A.512.512,0,0,1,506.254,430.284Z" transform="translate(-505.743 -366.298)" fill="#fff"/>
          </g>
          <path id="Trazado_988206" data-name="Trazado 988206" d="M440.884,454.96c-.3-3.336,7.346,1.031,5.469,2.37S441.181,458.3,440.884,454.96Z" transform="translate(-431.504 -320.752)" fill="#ef5e7f" fill-rule="evenodd"/>
          <g id="Grupo_1153294" data-name="Grupo 1153294" transform="translate(90.526 57.2)">
            <path id="Trazado_988207" data-name="Trazado 988207" d="M520.715,400.505a.511.511,0,0,1-.206-.98c.1-.043,9.894-4.352,13.467-8.56s5.263-10.853,5.281-10.92a.511.511,0,1,1,.992.248c-.07.281-1.765,6.945-5.493,11.334s-13.426,8.655-13.836,8.835A.532.532,0,0,1,520.715,400.505Z" transform="translate(-520.203 -379.657)" fill="#12130f"/>
          </g>
          <g id="Grupo_1153295" data-name="Grupo 1153295" transform="translate(129.858 109.492)">
            <path id="Trazado_988208" data-name="Trazado 988208" d="M580.3,442.094c-12.611,0-17.882-2.868-20.056-5.523a6.271,6.271,0,0,1-1.457-5.426.512.512,0,0,1,.985.277h0a5.273,5.273,0,0,0,1.285,4.526c2.454,2.968,9.188,6.206,27.338,4.782a.512.512,0,1,1,.081,1.02C585.453,441.986,582.738,442.094,580.3,442.094Z" transform="translate(-558.65 -430.772)" fill="#12130f"/>
          </g>
          <path id="Trazado_988209" data-name="Trazado 988209" d="M517.088,441.061l-3.437.107c.65.5,1.621,1.595-.143,2.837-2.4,1.7-18.174,2.177-18.174,2.177l5.4.194-.343-.106s6.445.371,8.281-.574a11.337,11.337,0,0,0,6.639-.165C518.377,444.606,517.088,441.061,517.088,441.061Z" transform="translate(-430.25 -321.043)" fill="#ef5e7f" fill-rule="evenodd"/>
          <g id="Grupo_1153296" data-name="Grupo 1153296" transform="translate(60.94 136.06)">
            <path id="Trazado_988210" data-name="Trazado 988210" d="M522.223,490.368a.511.511,0,0,1-.292-.091c-5.032-3.5-29.485-31.5-30.523-32.686a.512.512,0,0,1,.771-.673c.253.291,25.407,29.089,30.336,32.518a.512.512,0,0,1-.293.932Z" transform="translate(-491.283 -456.743)" fill="#12130f"/>
          </g>
          <g id="Grupo_1153297" data-name="Grupo 1153297" transform="translate(80.915 38.515)">
            <path id="Trazado_988211" data-name="Trazado 988211" d="M535.638,388.589a.512.512,0,0,1-.438-.246,99.138,99.138,0,0,0-8.122-10.488c-6.06-7.132-15.987-15.476-16.087-15.559a.512.512,0,1,1,.658-.785c.1.084,10.094,8.485,16.209,15.682a97.613,97.613,0,0,1,8.217,10.619.512.512,0,0,1-.171.7A.528.528,0,0,1,535.638,388.589Z" transform="translate(-510.808 -361.392)" fill="#fff"/>
          </g>
          <g id="Grupo_1153298" data-name="Grupo 1153298" transform="translate(112.162 70.674)">
            <path id="Trazado_988212" data-name="Trazado 988212" d="M577.6,418.034a.512.512,0,0,1-.341-.129c-.1-.091-10.322-9.168-16.619-13.6s-18.869-10.445-19-10.505a.512.512,0,1,1,.441-.924c.128.06,12.788,6.122,19.143,10.591s16.608,13.579,16.711,13.67a.511.511,0,0,1,.042.722A.5.5,0,0,1,577.6,418.034Z" transform="translate(-541.352 -392.829)" fill="#ef5e7f"/>
          </g>
          <path id="Trazado_988213" data-name="Trazado 988213" d="M536.418,400.031s11.238,5.509,11.637,4.056-8.143-9.293-8.143-9.293,4.235,4.158,3.5,6.161S536.418,400.031,536.418,400.031Z" transform="translate(-429.304 -322.109)" fill="#ef5e7f" fill-rule="evenodd"/>
          <g id="Grupo_1153299" data-name="Grupo 1153299" transform="translate(54.421 135.787)">
            <path id="Trazado_988214" data-name="Trazado 988214" d="M493.489,500.872a.573.573,0,0,1-.118-.011c-2.737-.529-6.826-30.814-8.456-43.809a.511.511,0,1,1,1.015-.128c2.353,18.749,5.621,39.129,7.366,42.51.415-3.957-1.622-24.688-3.11-37.741a.511.511,0,1,1,1.016-.116c1.292,11.323,4.142,37.8,2.713,39.125A.626.626,0,0,1,493.489,500.872Z" transform="translate(-484.911 -456.476)" fill="#12130f"/>
          </g>
          <g id="Grupo_1153300" data-name="Grupo 1153300" transform="translate(95.277 128.102)">
            <path id="Trazado_988215" data-name="Trazado 988215" d="M554.209,473.052a.433.433,0,0,1-.051,0c-4.307-.428-26.616-20.869-29.145-23.2a.512.512,0,0,1,.694-.753c6.8,6.266,25.2,22.6,28.553,22.933a.512.512,0,0,1-.05,1.021Z" transform="translate(-524.848 -448.963)" fill="#12130f"/>
          </g>
          <g id="Grupo_1153301" data-name="Grupo 1153301" transform="translate(20.779 114.887)">
            <path id="Trazado_988216" data-name="Trazado 988216" d="M452.537,443.771a.511.511,0,0,1-.063-1.019c.253-.032,25.382-3.169,33.334-3.87,2.953-.261,6.739-.736,10.4-1.195,6.364-.8,12.947-1.624,15.964-1.441a41.654,41.654,0,0,0,5.843-.2.511.511,0,0,1,.09,1.019,42.65,42.65,0,0,1-5.995.2c-2.928-.175-9.459.643-15.776,1.435-3.67.46-7.463.936-10.436,1.2-7.934.7-33.045,3.835-33.3,3.866A.3.3,0,0,1,452.537,443.771Z" transform="translate(-452.026 -436.045)" fill="#12130f"/>
          </g>
          <g id="Grupo_1153302" data-name="Grupo 1153302" transform="translate(28.393 86.71)">
            <path id="Trazado_988217" data-name="Trazado 988217" d="M463.269,443.043h-.007a.512.512,0,0,1-.5-.519l.169-11.7L459.475,409.1a.511.511,0,0,1,1.01-.161l3.458,21.819-.163,11.786A.51.51,0,0,1,463.269,443.043Z" transform="translate(-459.469 -408.504)" fill="#12130f"/>
          </g>
          <g id="Grupo_1153303" data-name="Grupo 1153303" transform="translate(28.681 19.875)">
            <path id="Trazado_988218" data-name="Trazado 988218" d="M467.921,376.913a9.1,9.1,0,0,1-2.964-.413c-3.779-1.347-5.607-14.648-5.133-16.527.443-1.749,7.044-15.9,7.325-16.507a.512.512,0,0,1,.928.432c-2.364,5.067-6.925,15-7.259,16.324-.4,1.574,1.516,14.255,4.484,15.312,3.12,1.112,10.6-.407,13.45-3.3a.511.511,0,1,1,.729.717C477.054,375.42,471.779,376.913,467.921,376.913Z" transform="translate(-459.751 -343.172)" fill="#12130f"/>
          </g>
          <path id="Trazado_988219" data-name="Trazado 988219" d="M465.787,369.561c.152-1,4.1-.335,3.737.886S465.626,370.616,465.787,369.561Z" transform="translate(-430.93 -322.701)" fill="#ef5e7f" fill-rule="evenodd"/>
          <g id="Grupo_1153304" data-name="Grupo 1153304" transform="translate(4.943 101.419)">
            <path id="Trazado_988220" data-name="Trazado 988220" d="M440.848,462.13a.5.5,0,0,1-.276-.082c-7.846-5.044-1.851-37.378-1.591-38.752a.511.511,0,0,1,1,.19c-.061.329-6.131,33.028,1.14,37.7a.511.511,0,0,1-.277.941Z" transform="translate(-436.546 -422.881)" fill="#12130f"/>
          </g>
        </g>
        <g id="Grupo_1153270" data-name="Grupo 1153270" transform="translate(920.467 1547.069)">
          <path id="Trazado_988105" data-name="Trazado 988105" d="M158.446,701.828s106.117,7.152,102.517,16.186S149.116,718,149.416,701.429Z" transform="translate(-147.268 -383.808)" fill="#12130f" fill-rule="evenodd"/>
          <path id="Trazado_988106" data-name="Trazado 988106" d="M411.15,714.786S290,700.433,293.2,715.658,427.712,717.333,411.15,714.786Z" transform="translate(-149.406 -383.915)" fill="#360b1e" fill-rule="evenodd"/>
          <g id="Grupo_1153251" data-name="Grupo 1153251" transform="translate(143.236 318.733)">
            <path id="Trazado_988107" data-name="Trazado 988107" d="M297.789,703.059s-4.053,4.748-4.595,8.088,2.551,5.773,6.329,7.019,22.9-.453,27.975.655,20.251.867,22.228-1.276,1.521-5.236-1.3-7.177S297.789,703.059,297.789,703.059Z" transform="translate(-292.641 -702.565)" fill="#fff" fill-rule="evenodd"/>
            <path id="Trazado_988108" data-name="Trazado 988108" d="M336.553,719.968a49.858,49.858,0,0,1-9.168-.674c-2.427-.529-8.3-.4-13.981-.273-6.188.138-12.032.267-14.042-.4-4.688-1.546-7.18-4.374-6.661-7.566.558-3.436,4.537-8.131,4.706-8.329a.491.491,0,0,1,.43-.169c4.906.552,48.012,5.439,50.857,7.393a5.869,5.869,0,0,1,2.7,4.1,4.792,4.792,0,0,1-1.309,3.814C348.714,719.354,342.4,719.968,336.553,719.968ZM320.7,717.925a38.576,38.576,0,0,1,6.895.408c5.488,1.2,20.077.7,21.761-1.129a3.823,3.823,0,0,0,1.055-3.037,4.908,4.908,0,0,0-2.277-3.4c-1.988-1.366-30.973-5.04-50.144-7.2-.758.925-3.865,4.859-4.318,7.648-.642,3.959,4.428,5.955,6,6.472,1.849.61,7.88.476,13.712.346C315.884,717.981,318.422,717.925,320.7,717.925Z" transform="translate(-292.634 -702.558)" fill="#360b1e"/>
          </g>
          <g id="Grupo_1153252" data-name="Grupo 1153252" transform="translate(144.694 299.575)">
            <path id="Trazado_988109" data-name="Trazado 988109" d="M303.9,683.609a84.145,84.145,0,0,0-7.594,13.92c-2.658,6.719-2.595,10.886,3.188,13.27s52.246,6.655,49.778.241c-3.063-7.96-28.015-23.609-31.723-25.377S303.9,683.609,303.9,683.609Z" transform="translate(-294.121 -683.117)" fill="#ff7f8f" fill-rule="evenodd"/>
            <path id="Trazado_988110" data-name="Trazado 988110" d="M335.273,714.883c-13.742,0-32.76-2.311-35.975-3.636-6.393-2.635-6.006-7.465-3.458-13.906a85.319,85.319,0,0,1,7.646-14.016.478.478,0,0,1,.421-.214c.41.012,10.086.314,13.844,2.1,4.091,1.951,28.9,17.657,31.971,25.645a1.653,1.653,0,0,1-.432,1.885C347.688,714.306,342.139,714.883,335.273,714.883ZM304.148,684.1a83.132,83.132,0,0,0-7.391,13.6c-2.871,7.255-2.107,10.562,2.917,12.632,5.72,2.359,44.756,5.774,48.928,1.7a.688.688,0,0,0,.2-.827c-2.957-7.686-27.892-23.4-31.476-25.109C314.091,684.561,305.756,684.167,304.148,684.1Z" transform="translate(-294.114 -683.11)" fill="#360b1e"/>
          </g>
          <path id="Trazado_988111" data-name="Trazado 988111" d="M236.973,587.206s-10.548,5.083-15.916,8.014c-1.455.8-2.86.428-3.173.965-1.47,2.522,27,22.456,30.894,23.471s31.654-1.281,30.834-10.117S246.78,583.438,236.973,587.206Z" transform="translate(-148.286 -382.101)" fill="#360b1e" fill-rule="evenodd"/>
          <path id="Trazado_988112" data-name="Trazado 988112" d="M170.643,653s13.153-16.757,25.1-26.6,31.323-25.377,31.323-25.377,15.686,5.788,28.971,8.979c10.263,2.468,19.411,2.044,16.794,4.635a22.066,22.066,0,0,1-3.529,2.837c-9.625,6.27-92.712,54.34-92.712,54.34S165.486,661.442,170.643,653Z" transform="translate(-147.564 -382.315)" fill="#b57f6d" fill-rule="evenodd"/>
          <path id="Trazado_988113" data-name="Trazado 988113" d="M294.178,426.18s-23.1-33.52-2.05-45,38.733,25.456,36.808,45.773S296.415,434.387,294.178,426.18Z" transform="translate(-149.259 -379.014)" fill="#b57f6d" fill-rule="evenodd"/>
          <g id="Grupo_1153253" data-name="Grupo 1153253" transform="translate(138.611 23.978)">
            <path id="Trazado_988114" data-name="Trazado 988114" d="M289.62,426.578c-.687,0-1.162-.042-1.234-.049a.492.492,0,1,1,.094-.98c.063.006,6.243.556,6.841-2.51.664-3.4-2.736-18.93-2.77-19.086a.493.493,0,1,1,.962-.212c.143.647,3.478,15.883,2.775,19.487C295.709,426.187,291.7,426.578,289.62,426.578Z" transform="translate(-287.94 -403.354)" fill="#360b1e"/>
          </g>
          <path id="Trazado_988115" data-name="Trazado 988115" d="M323.814,401.092a3.577,3.577,0,0,1,3.765,2.059c1.278,2.54,3.025,13.386.269,13.8S321.326,401.3,323.814,401.092Z" transform="translate(-149.85 -379.341)" fill="#7a5143" fill-rule="evenodd"/>
          <g id="Grupo_1153254" data-name="Grupo 1153254" transform="translate(169.722 20.81)">
            <path id="Trazado_988116" data-name="Trazado 988116" d="M326.908,418.34a2.462,2.462,0,0,1-1.217-.352c-2.453-1.392-4.794-6.882-5.837-11.586-.642-2.9-.361-4.821.839-5.722,1.882-1.414,5.184.369,5.324.446a.492.492,0,0,1-.473.864c-.8-.436-3.122-1.379-4.261-.522-.849.639-1.011,2.272-.468,4.72,1.143,5.153,3.448,9.858,5.361,10.943a1.263,1.263,0,0,0,1.05.171.492.492,0,1,1,.31.935A1.963,1.963,0,0,1,326.908,418.34Z" transform="translate(-319.52 -400.137)" fill="#360b1e"/>
          </g>
          <path id="Trazado_988117" data-name="Trazado 988117" d="M314.77,580.541s-.23,9.457,3.235,10.634,16.27-9.029,23.951-12.58,23.342-13.841,20.212-17.127c-2.228-2.335-15.336-3.9-20.57-1.3S314.77,580.541,314.77,580.541Z" transform="translate(-149.727 -381.687)" fill="#360b1e" fill-rule="evenodd"/>
          <path id="Trazado_988118" data-name="Trazado 988118" d="M346.442,556.944s26.187,7.177,22.933,15.141-52,115.295-52,115.295-15.023,6.925-15.662-.764,11.83-71,16.5-81.988,10.234-22.816,10.234-22.816L303.6,567.12Z" transform="translate(-149.533 -381.659)" fill="#b57f6d" fill-rule="evenodd"/>
          <path id="Trazado_988119" data-name="Trazado 988119" d="M265.22,469.021s4.56-8.226,3.884-9.347-19.96-7.584-23.375-3.74C242.964,459.049,259.039,465.8,265.22,469.021Z" transform="translate(-148.696 -380.139)" fill="#360b1e" fill-rule="evenodd"/>
          <path id="Trazado_988120" data-name="Trazado 988120" d="M252.942,459.7s-16.377,20.165-20.526,25.871-11.1,18.887-7.514,22.4,20.288,2.461,20.288,2.461l26.652-44.9S262.848,458.19,252.942,459.7Z" transform="translate(-148.376 -380.21)" fill="#7a5143" fill-rule="evenodd"/>
          <path id="Trazado_988121" data-name="Trazado 988121" d="M339.066,484.928S344.1,475.2,347.8,471.3s17.857-12.1,19.444-7.664C368.87,468.183,337.4,491.614,339.066,484.928Z" transform="translate(-150.087 -380.253)" fill="#360b1e" fill-rule="evenodd"/>
          <path id="Trazado_988122" data-name="Trazado 988122" d="M255.689,514.043s-18.413,7.389-21.054,13.143c-2.045,4.456,17.4,7.207,25.809,8.835s57.264.966,60.842-1.734,13.431-3.632,3.264-7.6S255.689,514.043,255.689,514.043Z" transform="translate(-148.533 -381.021)" fill="#360b1e" fill-rule="evenodd"/>
          <path id="Trazado_988123" data-name="Trazado 988123" d="M238.492,529.812s-5.037,10.668-1.793,16.27,9.057,24.21,9.057,24.21-22.924,24.214-27.041,24.421,7.859,1.128,13.648,4.123,43.8,6.5,47.268,10.836c1.876-7.334,10.722-32.455,10.722-32.455s10.1,5.778,17.967,9.413c4.445,2.054,8.187,4.118,9.123,3.448,5.346-3.8,15.423-25.884,24.11-26.052,8.856-.172,19.174-3.221,19.174-3.221s-31.952-26.6-40.05-32.843c-2.582-1.99-7.557,1.011-26.242-1.768C268.487,522.333,240.449,521.653,238.492,529.812Z" transform="translate(-148.286 -381.161)" fill="#fff" fill-rule="evenodd"/>
          <path id="Trazado_988124" data-name="Trazado 988124" d="M245.448,455.556s2.152-1.521,7.252-.4,13.147,4.873,13.147,4.873-9.363,17.515-12.927,24.879-18.33,41.089-18.33,41.089a38.233,38.233,0,0,1,36.156-6.845c13.951,4.347,54.489,6.376,54.489,6.376S308.5,512.7,312.913,502.608s17.723-35.833,17.723-35.833l6.868,18.352s12.564-17.09,18.536-19.9,9.738-2.126,9.738-2.126-12.926-33.915-25.672-34.2-48.921-9.228-61-3.544S245.448,455.556,245.448,455.556Z" transform="translate(-148.535 -379.675)" fill="#ff7f8f" fill-rule="evenodd"/>
          <g id="Grupo_1153255" data-name="Grupo 1153255" transform="translate(143.037 105.991)">
            <path id="Trazado_988125" data-name="Trazado 988125" d="M310.777,507.284c-3.79,0-11.145-4.62-12.808-5.7a.492.492,0,0,1,.536-.826c4.313,2.794,11.735,6.7,13.281,5.275a.119.119,0,0,0,.043-.116c-.067-1.226-4.51-4.489-8.429-7.368-4.851-3.563-9.867-7.248-10.763-9.7-.335-.917-.262-1.58.22-1.97,1.691-1.373,8.493,2.682,10.537,3.957a.493.493,0,1,1-.521.836c-3.92-2.446-8.634-4.649-9.394-4.028-.089.072-.1.368.085.866.794,2.17,5.908,5.927,10.421,9.241,5.416,3.979,8.741,6.5,8.829,8.108a1.1,1.1,0,0,1-.361.9A2.407,2.407,0,0,1,310.777,507.284Z" transform="translate(-292.432 -486.605)" fill="#360b1e"/>
          </g>
          <g id="Grupo_1153256" data-name="Grupo 1153256" transform="translate(163.171 50.039)">
            <path id="Trazado_988126" data-name="Trazado 988126" d="M313.362,500.537a.5.5,0,0,1-.168-.03.493.493,0,0,1-.294-.631,129.474,129.474,0,0,1,7.452-16.118c4.338-7.845,10.946-18.978,11.629-20.127.123-1.3,1.353-13.4,4.911-21.137a38.431,38.431,0,0,1,8.9-12.57.492.492,0,1,1,.635.753,38.218,38.218,0,0,0-8.647,12.229c-3.674,7.982-4.824,20.8-4.835,20.924a.492.492,0,0,1-.067.209c-.071.119-7.123,11.97-11.671,20.2a128.4,128.4,0,0,0-7.388,15.979A.493.493,0,0,1,313.362,500.537Z" transform="translate(-312.869 -429.807)" fill="#360b1e"/>
          </g>
          <g id="Grupo_1153257" data-name="Grupo 1153257" transform="translate(111.779 172.088)">
            <path id="Trazado_988127" data-name="Trazado 988127" d="M317.144,591.4a.487.487,0,0,1-.208-.046c-.221-.1-22.191-10.377-33.053-17.26l-.617-.39c-10.729-6.8-19.2-12.165-22.518-19.31a.493.493,0,0,1,.894-.415c3.193,6.881,11.56,12.181,22.152,18.892l.616.39c10.809,6.849,32.722,17.1,32.942,17.2a.493.493,0,0,1,.238.654A.487.487,0,0,1,317.144,591.4Z" transform="translate(-260.703 -553.699)" fill="#360b1e"/>
          </g>
          <path id="Trazado_988128" data-name="Trazado 988128" d="M364.422,467.693l9.028,17.846s13.567,7.6,20.885,10.981,29.676,13.629,29.676,13.629,9.3-3.811,12.936-4.288,17.051-3.07,17.442-.962-5.851,3.325-7.775,3.543-7.608,1.39-7.608,1.39,4.859,1.143,7.323,1.761,15.168,2.172,16.524,3.634,1.791,2.452-1.273,2-12.7-.459-12.7-.459,16.472,1.819,16.419,3.787c-.043,1.6-6.078,1.151-8.013.862s-8.682-.4-8.682-.4,5.845,1.019,10.363,2.214c3.655.966,5.909,2.608,5.257,3.136-1.489,1.208-18.038-1.674-18.038-1.674s8.48,2.534,8.55,5.084c.034,1.257-8.067-.389-11.153-1.269s-18.415-7.11-21.27-7.87-61.851-15.419-64.436-18.073-13.258-22.483-13.258-22.483,6.09-6.912,10.739-8.911S364.422,467.693,364.422,467.693Z" transform="translate(-150.171 -380.332)" fill="#b57f6d" fill-rule="evenodd"/>
          <path id="Trazado_988129" data-name="Trazado 988129" d="M359.576,501.009c-.495-1.318.888-3.082,3.085-3.941s4.38-.488,4.873.83-.888,3.081-3.085,3.941S360.07,502.327,359.576,501.009Z" transform="translate(-150.392 -380.762)" fill="#360b1e" fill-rule="evenodd"/>
          <path id="Trazado_988130" data-name="Trazado 988130" d="M194.7,627.854c-1.627,3.655-12.267,16.422-12.4,24.52a103.421,103.421,0,0,0,1.218,16.225l-9.023-3.241-.992-15.644S189.255,631.824,194.7,627.854Z" transform="translate(-147.627 -382.714)" fill="#360b1e" fill-rule="evenodd"/>
          <g id="Grupo_1153258" data-name="Grupo 1153258" transform="translate(163.324 189.017)">
            <path id="Trazado_988131" data-name="Trazado 988131" d="M323.331,653.871a.483.483,0,0,1-.165-.029.491.491,0,0,1-.3-.629c2.516-7.034,5.708-15.382,9.088-24.22,7.733-20.222,16.5-43.142,16.948-50.5.2-3.356-.637-5.536-2.438-6.3-3.251-1.386-9.274,1.834-14.983,8.019C322.26,590.2,314.077,622.585,314,622.911a.492.492,0,1,1-.955-.24c.335-1.341,8.325-32.96,17.72-43.137,6.084-6.591,12.4-9.832,16.093-8.256,1.547.66,3.33,2.458,3.035,7.271-.46,7.513-8.874,29.517-17.011,50.8-3.378,8.834-6.569,17.177-9.081,24.2A.5.5,0,0,1,323.331,653.871Z" transform="translate(-313.026 -570.884)" fill="#360b1e"/>
          </g>
          <g id="Grupo_1153259" data-name="Grupo 1153259" transform="translate(6.181 264.355)">
            <path id="Trazado_988132" data-name="Trazado 988132" d="M154.01,651.73s12.547-4.448,16.944-3.813,5.6,11.1,6.984,15.294a8.991,8.991,0,0,0,4.771,5.487s2.362,22.633,4.759,26.5,11.3,9.851,7.858,11.625-26.941.542-29.189-.665S154.01,651.73,154.01,651.73Z" transform="translate(-153.518 -647.365)" fill="#f25470" fill-rule="evenodd"/>
            <path id="Trazado_988133" data-name="Trazado 988133" d="M185.841,708.2c-8.185,0-18.536-.863-19.944-1.618-2.28-1.224-10.05-42.233-12.378-54.772a.493.493,0,0,1,.32-.555c.517-.183,12.717-4.479,17.179-3.835,3.705.539,5.206,6.852,6.411,11.924.336,1.413.653,2.747.969,3.7a8.6,8.6,0,0,0,4.481,5.183.494.494,0,0,1,.311.408c.024.226,2.378,22.564,4.688,26.291a29.682,29.682,0,0,0,4.041,4.492c2.634,2.6,4.91,4.837,4.653,6.523a1.752,1.752,0,0,1-1.028,1.307C194.21,707.943,190.354,708.2,185.841,708.2ZM154.565,652.05c3.888,20.913,10.189,52.174,11.83,53.69,2,1.069,25.232,2.423,28.7.639.406-.209.483-.432.506-.58.181-1.188-2.237-3.571-4.371-5.673a30.177,30.177,0,0,1-4.187-4.674c-2.309-3.725-4.507-23.677-4.8-26.425a9.585,9.585,0,0,1-4.779-5.666c-.33-1-.652-2.351-.992-3.785-1.077-4.53-2.551-10.734-5.595-11.177C167.084,647.853,156.723,651.308,154.565,652.05Z" transform="translate(-153.511 -647.358)" fill="#ff7f8f"/>
          </g>
          <path id="Trazado_988134" data-name="Trazado 988134" d="M155.5,648.322s4.771-.9,7.4,1.763,7.685,14.378,8.628,22.426,1.319,16.033,3.524,18.629-1.475-.448-3.849-.621S146.7,649.573,155.5,648.322Z" transform="translate(-147.328 -383.016)" fill="#fff" fill-rule="evenodd"/>
          <g id="Grupo_1153260" data-name="Grupo 1153260" transform="translate(0 267.454)">
            <path id="Trazado_988135" data-name="Trazado 988135" d="M153.917,704.935s-6.729-7.408-6.145-17.757-1.638-33.667,6.684-35.947,13.835,13.688,18.027,28.529c4.109,14.546,17.441,26.091,22.012,28S159.771,712.521,153.917,704.935Z" transform="translate(-147.243 -650.512)" fill="#fff" fill-rule="evenodd"/>
            <path id="Trazado_988136" data-name="Trazado 988136" d="M177.863,710.43c-10.008,0-21.248-1.227-24.331-5.187-.43-.478-6.841-7.8-6.259-18.1.122-2.16.121-4.948.12-7.9,0-11.848-.01-26.594,6.924-28.494,8.55-2.333,14.006,12.494,18.631,28.871,4.129,14.613,17.386,25.866,21.728,27.676.461.192.687.462.672.8-.023.518-.594.767-1.15.944C191.9,709.768,185.217,710.43,177.863,710.43ZM156.017,651.5a5.425,5.425,0,0,0-1.439.2c-6.209,1.7-6.2,16.638-6.2,27.543,0,2.966,0,5.768-.122,7.956-.565,10.011,5.951,17.326,6.017,17.4l.026.03c1.72,2.228,7.094,3.81,15.132,4.456,10.444.839,22.131-.118,24.592-1-4.722-2.2-17.887-13.56-22.022-28.2C168,665.716,163,651.5,156.017,651.5Zm38.424,56.779Z" transform="translate(-147.236 -650.504)" fill="#360b1e"/>
          </g>
          <g id="Grupo_1153261" data-name="Grupo 1153261" transform="translate(139.566 43.131)">
            <path id="Trazado_988137" data-name="Trazado 988137" d="M366.226,462.1a.493.493,0,0,1-.451-.294c-.082-.186-8.263-18.66-11.749-23.872-.872-1.3-1.646-2.658-2.4-3.967-2.242-3.92-4.186-7.3-7.409-6.949-4.68.515-52.811-3.081-54.857-3.234a.493.493,0,0,1-.454-.528.481.481,0,0,1,.528-.454c.5.037,50.086,3.747,54.675,3.237,3.873-.435,6.059,3.394,8.373,7.44.741,1.294,1.506,2.633,2.359,3.909,3.534,5.281,11.494,23.258,11.831,24.02a.494.494,0,0,1-.251.65A.51.51,0,0,1,366.226,462.1Z" transform="translate(-288.909 -422.796)" fill="#ef5e7f"/>
          </g>
          <path id="Trazado_988138" data-name="Trazado 988138" d="M267.714,562.549s15.892,16.107,16.862,19.353,2.314,10.9,2.314,10.9l4.6-14.742Z" transform="translate(-149.027 -381.743)" fill="#360b1e" fill-rule="evenodd"/>
          <g id="Grupo_1153262" data-name="Grupo 1153262" transform="translate(102.715 51.931)">
            <path id="Trazado_988139" data-name="Trazado 988139" d="M251.994,488.515a.493.493,0,0,1-.456-.679c7.627-18.764,31.234-55.514,31.471-55.883a.493.493,0,0,1,.829.533c-.237.368-23.794,37.042-31.386,55.721A.493.493,0,0,1,251.994,488.515Z" transform="translate(-251.501 -431.728)" fill="#360b1e"/>
          </g>
          <g id="Grupo_1153263" data-name="Grupo 1153263" transform="translate(149.224 297.947)">
            <path id="Trazado_988140" data-name="Trazado 988140" d="M299.281,691.337s-.717-10.393,2.757-9.3c4.938,1.547,12.276.783,12.633,4.66a11.291,11.291,0,0,1-2.059,7.068Z" transform="translate(-298.72 -681.465)" fill="#ef5e7f" fill-rule="evenodd"/>
            <path id="Trazado_988141" data-name="Trazado 988141" d="M312.605,694.251a.493.493,0,0,1-.393-.789,10.878,10.878,0,0,0,1.961-6.726c-.207-2.247-3.526-2.717-7.039-3.214a33.705,33.705,0,0,1-5.251-1.022.845.845,0,0,0-.836.12c-1.3,1.024-1.476,5.865-1.283,8.676a.493.493,0,0,1-.458.525.5.5,0,0,1-.525-.458c-.055-.8-.475-7.838,1.656-9.517a1.818,1.818,0,0,1,1.741-.286,33.132,33.132,0,0,0,5.094.985c3.91.554,7.6,1.076,7.882,4.1A11.7,11.7,0,0,1,313,694.056.493.493,0,0,1,312.605,694.251Z" transform="translate(-298.712 -681.458)" fill="#12130f"/>
          </g>
          <path id="Trazado_988142" data-name="Trazado 988142" d="M303.566,672.824l-1.486,9.078s1.826.566,4.16,1.088a9.232,9.232,0,0,0,4.16,0s-5.086-3.162-5.809-5.029A24.564,24.564,0,0,1,303.566,672.824Z" transform="translate(-149.538 -383.382)" fill="#12130f" fill-rule="evenodd"/>
          <g id="Grupo_1153264" data-name="Grupo 1153264" transform="translate(135.252 152.387)">
            <path id="Trazado_988143" data-name="Trazado 988143" d="M330.6,568.262a.484.484,0,0,1-.216-.05A162.726,162.726,0,0,1,308.348,554.6a296.541,296.541,0,0,1-23.666-20.049.493.493,0,1,1,.679-.714,295.307,295.307,0,0,0,23.571,19.971,161.554,161.554,0,0,0,21.882,13.519.493.493,0,0,1-.217.936Z" transform="translate(-284.53 -533.701)" fill="#12130f"/>
          </g>
          <g id="Grupo_1153265" data-name="Grupo 1153265" transform="translate(140.508 151.087)">
            <path id="Trazado_988144" data-name="Trazado 988144" d="M335.559,563.75a.516.516,0,0,1-.147-.022c-13.122-4.089-44.058-29.4-45.368-30.474a.493.493,0,0,1,.626-.762c.319.262,32.1,26.263,45.036,30.295a.492.492,0,0,1-.147.962Z" transform="translate(-289.865 -532.381)" fill="#12130f"/>
          </g>
          <g id="Grupo_1153266" data-name="Grupo 1153266" transform="translate(88.202 164.784)">
            <path id="Trazado_988145" data-name="Trazado 988145" d="M252.692,573.212a.488.488,0,0,1-.279-.087c-4.932-3.4-15.163-25.213-15.6-26.14a.492.492,0,1,1,.893-.416c.105.225,10.549,22.5,15.263,25.746a.491.491,0,0,1-.28.9Z" transform="translate(-236.77 -546.285)" fill="#12130f"/>
          </g>
          <g id="Grupo_1153267" data-name="Grupo 1153267" transform="translate(69.894 189.278)">
            <path id="Trazado_988146" data-name="Trazado 988146" d="M218.679,596.221a.492.492,0,0,1-.3-.887c.2-.154,20.577-15.453,26.824-23.983a.493.493,0,1,1,.8.582c-6.333,8.648-26.186,23.559-27.027,24.19A.5.5,0,0,1,218.679,596.221Z" transform="translate(-218.185 -571.149)" fill="#12130f"/>
          </g>
          <g id="Grupo_1153268" data-name="Grupo 1153268" transform="translate(254.459 121.006)">
            <path id="Trazado_988147" data-name="Trazado 988147" d="M425.791,511.125c-2.248,0-17-6.935-19.974-8.343a.492.492,0,1,1,.422-.89c6.883,3.261,18.281,8.343,19.536,8.249a24.635,24.635,0,0,0,4.33-1.647c2.71-1.177,5.782-2.512,7.445-2.538.88-.014,2.937-.338,5.319-.713,6.413-1.01,11.05-1.66,12.3-.818a.493.493,0,0,1-.551.817c-1.025-.694-7.643.351-11.6.974-2.418.381-4.508.71-5.457.725-1.466.022-4.571,1.371-7.066,2.456a23.5,23.5,0,0,1-4.617,1.723A.852.852,0,0,1,425.791,511.125Z" transform="translate(-405.535 -501.846)" fill="#12130f"/>
          </g>
          <g id="Grupo_1153269" data-name="Grupo 1153269" transform="translate(289.407 129.131)">
            <path id="Trazado_988148" data-name="Trazado 988148" d="M464.751,518.613a.493.493,0,0,1-.163-.958h0s.3-.119.362-.337c.049-.176-.058-.443-.3-.753-.8-1.014-8.9-2.248-12.356-2.776-.779-.119-1.449-.221-1.948-.3a80.589,80.589,0,0,1-8.994-2.431.492.492,0,0,1,.308-.935,81.236,81.236,0,0,0,8.846,2.395c.5.082,1.161.183,1.936.3,7.561,1.153,12.108,2.036,12.979,3.139a1.819,1.819,0,0,1,.475,1.642,1.619,1.619,0,0,1-.982.989A.509.509,0,0,1,464.751,518.613Z" transform="translate(-441.012 -510.094)" fill="#12130f"/>
          </g>
        </g>
      </g>
    </g>
  </g>
</svg>
