<svg xmlns="http://www.w3.org/2000/svg" xmlns:xlink="http://www.w3.org/1999/xlink" width="108" height="108" viewBox="0 0 108 108">
  <defs>
    <filter id="Trazado_982547" x="0" y="0" width="108" height="108" filterUnits="userSpaceOnUse">
      <feOffset dy="3" input="SourceAlpha"/>
      <feGaussianBlur stdDeviation="3" result="blur"/>
      <feFlood flood-opacity="0.161"/>
      <feComposite operator="in" in2="blur"/>
      <feComposite in="SourceGraphic"/>
    </filter>
  </defs>
  <g id="Grupo_1154208" data-name="Grupo 1154208" transform="translate(-161 -1167)">
    <g id="Grupo_1153186" data-name="Grupo 1153186" transform="translate(-93 654)">
      <g id="Grupo_1149598" data-name="Grupo 1149598" transform="translate(80 315)">
        <g id="Grupo_1148770" data-name="Grupo 1148770" transform="translate(-27 -2583)">
          <g id="Grupo_1146954" data-name="Grupo 1146954" transform="translate(-415 -1202)">
            <g transform="matrix(1, 0, 0, 1, 616, 3983)" filter="url(#Trazado_982547)">
              <g id="Trazado_982547-2" data-name="Trazado 982547" transform="translate(9 6)" fill="#fef6e8">
                <path d="M 45 88.5 C 39.12687683105469 88.5 33.43022537231445 87.35007476806641 28.06830024719238 85.08217620849609 C 22.88852500915527 82.89131164550781 18.23629951477051 79.75458526611328 14.2408504486084 75.75914764404297 C 10.24541282653809 71.76370239257812 7.108687400817871 67.11147308349609 4.917825222015381 61.93170166015625 C 2.649924993515015 56.56977462768555 1.5 50.87312316894531 1.5 45 C 1.5 39.12687683105469 2.649924993515015 33.43022537231445 4.917825222015381 28.06830024719238 C 7.108687400817871 22.88852500915527 10.24541282653809 18.23629951477051 14.2408504486084 14.2408504486084 C 18.23629951477051 10.24541282653809 22.88852500915527 7.108687400817871 28.06830024719238 4.917825222015381 C 33.43022537231445 2.649924993515015 39.12687683105469 1.5 45 1.5 C 50.87312316894531 1.5 56.56977462768555 2.649924993515015 61.93170166015625 4.917825222015381 C 67.11147308349609 7.108687400817871 71.76370239257812 10.24541282653809 75.75914764404297 14.2408504486084 C 79.75458526611328 18.23629951477051 82.89131164550781 22.88852500915527 85.08217620849609 28.06830024719238 C 87.35007476806641 33.43022537231445 88.5 39.12687683105469 88.5 45 C 88.5 50.87312316894531 87.35007476806641 56.56977462768555 85.08217620849609 61.93170166015625 C 82.89131164550781 67.11147308349609 79.75458526611328 71.76370239257812 75.75914764404297 75.75914764404297 C 71.76370239257812 79.75458526611328 67.11147308349609 82.89131164550781 61.93170166015625 85.08217620849609 C 56.56977462768555 87.35007476806641 50.87312316894531 88.5 45 88.5 Z" stroke="none"/>
                <path d="M 45 3 C 39.32871246337891 3 33.82865524291992 4.110054016113281 28.65262985229492 6.299339294433594 C 23.65165710449219 8.414573669433594 19.15968322753906 11.44334411621094 15.301513671875 15.301513671875 C 11.44334411621094 19.15968322753906 8.414573669433594 23.65165710449219 6.299339294433594 28.65262985229492 C 4.110054016113281 33.82865524291992 3 39.32871246337891 3 45 C 3 50.67128753662109 4.110054016113281 56.17134475708008 6.299339294433594 61.34737396240234 C 8.414573669433594 66.34834289550781 11.44334411621094 70.84031677246094 15.301513671875 74.698486328125 C 19.15968322753906 78.55665588378906 23.65165710449219 81.58542633056641 28.65262985229492 83.70066070556641 C 33.82865524291992 85.88994598388672 39.32871246337891 87 45 87 C 50.67128753662109 87 56.17134475708008 85.88994598388672 61.34737396240234 83.70066070556641 C 66.34834289550781 81.58542633056641 70.84031677246094 78.55665588378906 74.698486328125 74.698486328125 C 78.55665588378906 70.84031677246094 81.58542633056641 66.34834289550781 83.70066070556641 61.34737396240234 C 85.88994598388672 56.17134475708008 87 50.67128753662109 87 45 C 87 39.32871246337891 85.88994598388672 33.82865524291992 83.70066070556641 28.65262985229492 C 81.58542633056641 23.65165710449219 78.55665588378906 19.15968322753906 74.698486328125 15.301513671875 C 70.84031677246094 11.44334411621094 66.34834289550781 8.414573669433594 61.34737396240234 6.299339294433594 C 56.17134475708008 4.110054016113281 50.67128753662109 3 45 3 M 45 0 C 69.85281372070312 0 90 20.14718627929688 90 45 C 90 69.85281372070312 69.85281372070312 90 45 90 C 20.14718627929688 90 0 69.85281372070312 0 45 C 0 20.14718627929688 20.14718627929688 0 45 0 Z" stroke="none" fill="#fdaf2f"/>
              </g>
            </g>
          </g>
        </g>
      </g>
    </g>
    <g id="movimiento-por-los-derechos-civiles" transform="translate(183 1168.346)">
      <g id="Grupo_1154160" data-name="Grupo 1154160" transform="translate(0.925 32.196)">
        <path id="Trazado_990931" data-name="Trazado 990931" d="M28.162,129.5l-15.916,3.971a1.262,1.262,0,0,1-1.53-.919L7.538,119.818a1.262,1.262,0,0,1,.919-1.53l15.916-3.972a1.262,1.262,0,0,1,1.53.919l3.178,12.734A1.262,1.262,0,0,1,28.162,129.5Z" transform="translate(-7.5 -114.278)" fill="#f8f3f1"/>
        <path id="Trazado_990932" data-name="Trazado 990932" d="M123.352,115.238l3.178,12.734a1.262,1.262,0,0,1-.919,1.53l-3.17.791a1.261,1.261,0,0,0,.919-1.53l-3.178-12.734a1.261,1.261,0,0,0-1.53-.919l3.17-.791A1.262,1.262,0,0,1,123.352,115.238Z" transform="translate(-104.949 -114.28)" fill="#efe2dd"/>
      </g>
      <g id="Grupo_1154161" data-name="Grupo 1154161" transform="translate(40.985 30.828)">
        <path id="Trazado_990933" data-name="Trazado 990933" d="M349.527,121.8l-16.076-3.263a1.262,1.262,0,0,1-.986-1.488l2.611-12.862a1.262,1.262,0,0,1,1.488-.986l16.076,3.263a1.262,1.262,0,0,1,.986,1.488l-2.611,12.862a1.262,1.262,0,0,1-1.488.986Z" transform="translate(-332.439 -103.177)" fill="#fb3a82"/>
        <path id="Trazado_990934" data-name="Trazado 990934" d="M451.761,126.6l-2.611,12.862a1.261,1.261,0,0,1-1.488.986l-3.287-.667a1.262,1.262,0,0,0,1.488-.986l2.611-12.862a1.263,1.263,0,0,0-.986-1.488l3.287.667A1.262,1.262,0,0,1,451.761,126.6Z" transform="translate(-430.575 -121.821)" fill="#fb1466"/>
      </g>
      <g id="Grupo_1154163" data-name="Grupo 1154163" transform="translate(16.95 22.88)">
        <g id="Grupo_1154162" data-name="Grupo 1154162">
          <path id="Trazado_990935" data-name="Trazado 990935" d="M155.153,54.36h-16.4a1.263,1.263,0,0,1-1.263-1.262V39.974a1.263,1.263,0,0,1,1.262-1.263h16.4a1.263,1.263,0,0,1,1.263,1.262V53.1A1.262,1.262,0,0,1,155.153,54.36Z" transform="translate(-137.486 -38.71)" fill="#fcb44d"/>
          <path id="Trazado_990936" data-name="Trazado 990936" d="M258.189,39.975V53.1a1.261,1.261,0,0,1-1.262,1.263h-3.354a1.262,1.262,0,0,0,1.262-1.263V39.976a1.263,1.263,0,0,0-1.263-1.262h3.354A1.262,1.262,0,0,1,258.189,39.975Z" transform="translate(-239.26 -38.713)" fill="#fb9927"/>
        </g>
      </g>
      <g id="Grupo_1154207" data-name="Grupo 1154207" transform="translate(0 20.654)">
        <g id="Grupo_1154171" data-name="Grupo 1154171" transform="translate(32.893 23.755)">
          <g id="Grupo_1154170" data-name="Grupo 1154170">
            <g id="Grupo_1154169" data-name="Grupo 1154169">
              <g id="Grupo_1154168" data-name="Grupo 1154168">
                <g id="Grupo_1154167" data-name="Grupo 1154167">
                  <g id="Grupo_1154166" data-name="Grupo 1154166">
                    <g id="Grupo_1154165" data-name="Grupo 1154165" transform="translate(0 8.918)">
                      <g id="Grupo_1154164" data-name="Grupo 1154164">
                        <path id="Trazado_990937" data-name="Trazado 990937" d="M284.238,326.989H266.8l1.266-15.066a4.931,4.931,0,0,1,3.4-4.281l4.049-1.3,4.049,1.3a4.931,4.931,0,0,1,3.4,4.281Z" transform="translate(-266.805 -303.791)" fill="#fcb44d"/>
                        <path id="Trazado_990938" data-name="Trazado 990938" d="M361.13,331.795h-2.914l-1.266-15.909a5.236,5.236,0,0,0-2.44-4.067l1.953.629a4.93,4.93,0,0,1,3.4,4.28Z" transform="translate(-343.697 -308.596)" fill="#fb9927"/>
                        <path id="Trazado_990939" data-name="Trazado 990939" d="M327.533,285.675v3.586a1.632,1.632,0,0,1-3.265,0v-3.586Z" transform="translate(-317.184 -285.675)" fill="#c86f5c"/>
                      </g>
                    </g>
                    <path id="Trazado_990940" data-name="Trazado 990940" d="M306.723,213.338a4.329,4.329,0,0,0-4.329,4.329v1.881a4.329,4.329,0,0,0,8.658,0v-1.881A4.329,4.329,0,0,0,306.723,213.338Z" transform="translate(-298.006 -213.338)" fill="#d5887a"/>
                    <path id="Trazado_990941" data-name="Trazado 990941" d="M332.249,217.666v1.88a4.4,4.4,0,0,1-4.329,4.273,4.149,4.149,0,0,1-1.349-.226,4.405,4.405,0,0,0,2.98-4.047v-1.88a4.332,4.332,0,0,0-2.98-4.116,4.334,4.334,0,0,1,5.677,4.116Z" transform="translate(-319.204 -213.336)" fill="#c86f5c"/>
                  </g>
                </g>
              </g>
            </g>
          </g>
        </g>
        <g id="Grupo_1154179" data-name="Grupo 1154179" transform="translate(15.459 23.755)">
          <g id="Grupo_1154178" data-name="Grupo 1154178">
            <g id="Grupo_1154177" data-name="Grupo 1154177">
              <g id="Grupo_1154176" data-name="Grupo 1154176">
                <g id="Grupo_1154175" data-name="Grupo 1154175">
                  <g id="Grupo_1154174" data-name="Grupo 1154174">
                    <g id="Grupo_1154173" data-name="Grupo 1154173" transform="translate(0 8.918)">
                      <g id="Grupo_1154172" data-name="Grupo 1154172">
                        <path id="Trazado_990942" data-name="Trazado 990942" d="M142.83,326.989H125.4l1.266-15.066a4.931,4.931,0,0,1,3.4-4.281l4.049-1.3,4.049,1.3a4.931,4.931,0,0,1,3.4,4.281Z" transform="translate(-125.397 -303.791)" fill="#27d1b3"/>
                        <path id="Trazado_990943" data-name="Trazado 990943" d="M219.739,331.795h-2.916l-1.266-15.909a5.239,5.239,0,0,0-2.437-4.067l1.95.629a4.932,4.932,0,0,1,3.4,4.28Z" transform="translate(-202.305 -308.596)" fill="#20b69f"/>
                        <path id="Trazado_990944" data-name="Trazado 990944" d="M186.125,285.675v3.586a1.632,1.632,0,0,1-3.265,0v-3.586Z" transform="translate(-175.776 -285.675)" fill="#fdb0a0"/>
                      </g>
                    </g>
                    <path id="Trazado_990945" data-name="Trazado 990945" d="M165.316,213.338a4.329,4.329,0,0,0-4.329,4.329v1.881a4.329,4.329,0,0,0,8.658,0v-1.881A4.329,4.329,0,0,0,165.316,213.338Z" transform="translate(-156.599 -213.338)" fill="#ffcec0"/>
                    <path id="Trazado_990946" data-name="Trazado 990946" d="M190.842,217.666v1.88a4.4,4.4,0,0,1-4.329,4.273,4.149,4.149,0,0,1-1.349-.226,4.405,4.405,0,0,0,2.98-4.047v-1.88a4.332,4.332,0,0,0-2.98-4.116,4.334,4.334,0,0,1,5.677,4.116Z" transform="translate(-177.797 -213.336)" fill="#fdb0a0"/>
                  </g>
                </g>
              </g>
            </g>
          </g>
        </g>
        <g id="Grupo_1154196" data-name="Grupo 1154196" transform="translate(6.743 35.283)">
          <g id="Grupo_1154187" data-name="Grupo 1154187">
            <g id="Grupo_1154186" data-name="Grupo 1154186">
              <g id="Grupo_1154185" data-name="Grupo 1154185">
                <g id="Grupo_1154184" data-name="Grupo 1154184">
                  <g id="Grupo_1154183" data-name="Grupo 1154183">
                    <g id="Grupo_1154182" data-name="Grupo 1154182">
                      <g id="Grupo_1154181" data-name="Grupo 1154181" transform="translate(0 8.918)">
                        <g id="Grupo_1154180" data-name="Grupo 1154180">
                          <path id="Trazado_990947" data-name="Trazado 990947" d="M72.127,410.207H54.694l1.082-5.647a4.118,4.118,0,0,1,2.782-3.145l4.853-1.563,4.853,1.563a4.118,4.118,0,0,1,2.782,3.145Z" transform="translate(-54.694 -397.304)" fill="#fb3a82"/>
                          <path id="Trazado_990948" data-name="Trazado 990948" d="M155.017,416.938h-2.859l-1.081-6.365a4.692,4.692,0,0,0-1.837-3.044l1.913.616a4.122,4.122,0,0,1,2.783,3.145Z" transform="translate(-137.584 -404.035)" fill="#fb1466"/>
                          <path id="Trazado_990949" data-name="Trazado 990949" d="M115.422,379.188v3.586a1.632,1.632,0,1,1-3.265,0v-3.586Z" transform="translate(-105.073 -379.188)" fill="#873f30"/>
                        </g>
                      </g>
                      <path id="Trazado_990950" data-name="Trazado 990950" d="M94.612,306.852a4.329,4.329,0,0,0-4.329,4.329v1.881a4.329,4.329,0,0,0,8.658,0v-1.881A4.329,4.329,0,0,0,94.612,306.852Z" transform="translate(-85.895 -306.852)" fill="#a34f41"/>
                      <path id="Trazado_990951" data-name="Trazado 990951" d="M120.138,311.178v1.88a4.4,4.4,0,0,1-4.329,4.273,4.149,4.149,0,0,1-1.349-.226,4.405,4.405,0,0,0,2.98-4.047v-1.88a4.332,4.332,0,0,0-2.98-4.116,4.334,4.334,0,0,1,5.677,4.116Z" transform="translate(-107.093 -306.848)" fill="#873f30"/>
                    </g>
                  </g>
                </g>
              </g>
            </g>
          </g>
          <g id="Grupo_1154195" data-name="Grupo 1154195" transform="translate(17.433)">
            <g id="Grupo_1154194" data-name="Grupo 1154194">
              <g id="Grupo_1154193" data-name="Grupo 1154193">
                <g id="Grupo_1154192" data-name="Grupo 1154192">
                  <g id="Grupo_1154191" data-name="Grupo 1154191">
                    <g id="Grupo_1154190" data-name="Grupo 1154190">
                      <g id="Grupo_1154189" data-name="Grupo 1154189" transform="translate(0 8.918)">
                        <g id="Grupo_1154188" data-name="Grupo 1154188">
                          <path id="Trazado_990952" data-name="Trazado 990952" d="M213.534,410.207H196.1l1.082-5.647a4.118,4.118,0,0,1,2.782-3.145l4.853-1.563,4.853,1.563a4.119,4.119,0,0,1,2.782,3.145Z" transform="translate(-196.101 -397.304)" fill="#21c1f8"/>
                          <path id="Trazado_990953" data-name="Trazado 990953" d="M296.427,416.938h-2.859l-1.081-6.365a4.692,4.692,0,0,0-1.837-3.044l1.913.616a4.118,4.118,0,0,1,2.781,3.145Z" transform="translate(-278.994 -404.035)" fill="#1faaee"/>
                          <path id="Trazado_990954" data-name="Trazado 990954" d="M256.829,379.188v3.586a1.632,1.632,0,1,1-3.265,0v-3.586Z" transform="translate(-246.48 -379.188)" fill="#fdb0a0"/>
                        </g>
                      </g>
                      <path id="Trazado_990955" data-name="Trazado 990955" d="M236.02,306.852a4.329,4.329,0,0,0-4.329,4.329v1.881a4.329,4.329,0,0,0,8.658,0v-1.881A4.329,4.329,0,0,0,236.02,306.852Z" transform="translate(-227.303 -306.852)" fill="#ffcec0"/>
                      <path id="Trazado_990956" data-name="Trazado 990956" d="M261.545,311.178v1.88a4.4,4.4,0,0,1-4.329,4.273,4.149,4.149,0,0,1-1.349-.226,4.406,4.406,0,0,0,2.98-4.047v-1.88a4.332,4.332,0,0,0-2.98-4.116,4.334,4.334,0,0,1,5.677,4.116Z" transform="translate(-248.5 -306.848)" fill="#fdb0a0"/>
                    </g>
                  </g>
                </g>
              </g>
            </g>
          </g>
        </g>
        <g id="Grupo_1154206" data-name="Grupo 1154206" transform="translate(0)">
          <g id="Grupo_1154205" data-name="Grupo 1154205">
            <g id="Grupo_1154204" data-name="Grupo 1154204">
              <g id="Grupo_1154203" data-name="Grupo 1154203">
                <g id="Grupo_1154202" data-name="Grupo 1154202">
                  <g id="Grupo_1154201" data-name="Grupo 1154201">
                    <g id="Grupo_1154197" data-name="Grupo 1154197" transform="translate(41.609 46.749)">
                      <path id="Trazado_990957" data-name="Trazado 990957" d="M354.941,410.207H337.508l1.082-5.647a4.118,4.118,0,0,1,2.782-3.145l4.853-1.563,4.853,1.563a4.119,4.119,0,0,1,2.782,3.145Z" transform="translate(-337.508 -399.852)" fill="#bcea73"/>
                      <path id="Trazado_990958" data-name="Trazado 990958" d="M437.837,416.938h-2.859l-1.082-6.365a4.685,4.685,0,0,0-1.836-3.044l1.913.616a4.123,4.123,0,0,1,2.781,3.145Z" transform="translate(-420.403 -406.583)" fill="#a3e440"/>
                    </g>
                    <g id="Grupo_1154200" data-name="Grupo 1154200">
                      <path id="Trazado_990959" data-name="Trazado 990959" d="M398.236,379.188v3.586a1.632,1.632,0,1,1-3.265,0v-3.586Z" transform="translate(-346.278 -334.987)" fill="#f69583"/>
                      <g id="Grupo_1154199" data-name="Grupo 1154199">
                        <path id="Trazado_990960" data-name="Trazado 990960" d="M377.427,306.852a4.329,4.329,0,0,0-4.329,4.329v1.881a4.329,4.329,0,0,0,8.658,0v-1.881A4.329,4.329,0,0,0,377.427,306.852Z" transform="translate(-327.101 -271.569)" fill="#fdb0a0"/>
                        <path id="Trazado_990961" data-name="Trazado 990961" d="M402.953,311.178v1.88a4.4,4.4,0,0,1-4.329,4.273,4.149,4.149,0,0,1-1.349-.226,4.406,4.406,0,0,0,2.98-4.047v-1.88a4.332,4.332,0,0,0-2.98-4.116,4.334,4.334,0,0,1,5.677,4.116Z" transform="translate(-348.298 -271.565)" fill="#f69583"/>
                        <g id="Grupo_1154198" data-name="Grupo 1154198">
                          <path id="Trazado_990962" data-name="Trazado 990962" d="M62.161,152.378a5,5,0,1,0-2.586,9.3,5.04,5.04,0,0,0,1.221-.151,5.005,5.005,0,0,0,1.365-9.147Zm.485,3.527a3.168,3.168,0,0,1,.091.924l-2.429-1.076-.558-2.235a3.156,3.156,0,0,1,2.895,2.388Zm-3.228,3.916a3.124,3.124,0,0,1-1.163-.291l.827-1.056Zm-1.461-5.856.558,2.235-1.638,2.091a3.161,3.161,0,0,1,1.081-4.326Zm3.255,5.408-.336-1.347,1.226.543A3.124,3.124,0,0,1,61.212,159.373Z" transform="translate(-47.85 -135.511)"/>
                          <path id="Trazado_990963" data-name="Trazado 990963" d="M25.083,77.935l1.083-5.65a3.193,3.193,0,0,1,2.157-2.439l2.118-.682a2.555,2.555,0,0,0,4.9,0l2.118.682a3.193,3.193,0,0,1,2.157,2.439L40.7,77.932a.924.924,0,0,0,1.815,0l1.083-5.65a3.193,3.193,0,0,1,2.157-2.439l2.118-.682a2.555,2.555,0,0,0,4.9,0l2.118.682a3.193,3.193,0,0,1,2.157,2.439l1.082,5.647a.925.925,0,0,0,1.816-.348l-1.082-5.647a5.042,5.042,0,0,0-3.407-3.851l-2.579-.831v-.592a5.25,5.25,0,0,0,2.7-4.516V60.266A5.253,5.253,0,0,0,49.5,55.077l1.252-6.166,7.132,1.448a2.209,2.209,0,0,0,.439.044,2.189,2.189,0,0,0,2.139-1.753l.417-2.053a.925.925,0,1,0-1.812-.368l-.417,2.053a.339.339,0,0,1-.4.264L46.144,46.088a5.261,5.261,0,0,0-3.949-2.571l2.333-11.494a.338.338,0,0,1,.4-.264L61,35.023a.338.338,0,0,1,.264.4L59.94,41.949a.925.925,0,0,0,1.812.368l1.325-6.528a2.189,2.189,0,0,0-1.708-2.578l-7.132-1.448.075-.37a.925.925,0,0,0-1.812-.368l-.075.37-7.132-1.448a2.187,2.187,0,0,0-2.578,1.708l-2.436,12a5.263,5.263,0,0,0-3.923,5.082v1.881a5.25,5.25,0,0,0,2.7,4.516v.592l-1.775.572a5.876,5.876,0,0,0-.665.261,5.245,5.245,0,0,0-7.439,0,5.864,5.864,0,0,0-.665-.261l-1.775-.572v-.592a5.25,5.25,0,0,0,2.7-4.516V48.738a5.248,5.248,0,0,0-2.089-4.19V39.455h7.277A2.19,2.19,0,0,0,36.8,37.267V24.142a2.187,2.187,0,0,0-2.187-2.187H27.339v-.378a.925.925,0,0,0-1.849,0v.378H24.395a.925.925,0,0,0,0,1.849H34.616a.338.338,0,0,1,.338.338V37.267a.338.338,0,0,1-.338.338h-16.4a.338.338,0,0,1-.338-.338V24.144a.338.338,0,0,1,.338-.338h1.819a.925.925,0,0,0,0-1.849H18.212a2.19,2.19,0,0,0-2.187,2.187v7.579L10.513,33.1l-.091-.366a.925.925,0,0,0-1.794.448l.091.366L1.658,35.309A2.189,2.189,0,0,0,.066,37.96L3.243,50.694a2.186,2.186,0,0,0,2.651,1.592l7.061-1.762,1.163,4.662a5.263,5.263,0,0,0-3.913,5.08v1.881a5.25,5.25,0,0,0,2.7,4.516v.592l-2.579.831a5.015,5.015,0,0,0-3.172,3.026.925.925,0,1,0,1.731.651,3.176,3.176,0,0,1,2.008-1.916l2.118-.682a2.555,2.555,0,0,0,4.9,0l2.118.682a3.192,3.192,0,0,1,2.157,2.439l1.082,5.647a.924.924,0,0,0,1.815,0ZM41.609,55.817a5.093,5.093,0,0,0,.708-.051v1.147a.708.708,0,1,1-1.416,0V55.766A5.093,5.093,0,0,0,41.609,55.817Zm-8.717,1.045a3.408,3.408,0,0,1,3.4,3.4v1.881a3.4,3.4,0,0,1-6.809,0V60.266A3.408,3.408,0,0,1,32.893,56.862Zm-9.424-1.1a4.957,4.957,0,0,0,1.416,0v1.147a.708.708,0,1,1-1.416,0Zm4.112-5.147a3.4,3.4,0,0,1-6.809,0V48.738a3.4,3.4,0,0,1,6.809,0Zm-2.089-6.968a5.259,5.259,0,0,0-2.593-.009l-1.045-4.187h3.637ZM5.447,50.492a.339.339,0,0,1-.41-.246L1.86,37.512a.338.338,0,0,1,.246-.41l13.921-3.474v3.64a2.187,2.187,0,0,0,2.187,2.187h1.734l1.239,4.966a5.276,5.276,0,0,0-1.988,2.64Zm13.476-1.457v1.583a5.25,5.25,0,0,0,2.7,4.516v.592l-1.775.572a5.888,5.888,0,0,0-.665.261,5.241,5.241,0,0,0-3.191-1.52L14.75,50.077ZM12.055,60.266a3.4,3.4,0,1,1,6.809,0v1.881a3.4,3.4,0,0,1-6.809,0Zm3.4,8.883a.709.709,0,0,1-.708-.708V67.295a4.956,4.956,0,0,0,1.416,0v1.147A.709.709,0,0,1,15.46,69.149Zm12.3-1.063a5.041,5.041,0,0,0-3.407,3.851l-.174.907L24,71.937A5.041,5.041,0,0,0,20.6,68.086l-2.579-.831v-.592a5.25,5.25,0,0,0,2.7-4.516V60.266a5.221,5.221,0,0,0-.463-2.151c.053-.02.106-.039.16-.057l1.314-.423a2.555,2.555,0,0,0,4.9,0l1.314.423c.054.017.107.037.16.057a5.221,5.221,0,0,0-.463,2.151v1.881a5.25,5.25,0,0,0,2.7,4.516v.592Zm5.136,1.063a.709.709,0,0,1-.708-.708V67.295a4.956,4.956,0,0,0,1.416,0v1.147A.709.709,0,0,1,32.893,69.149Zm12.3-1.063a5.041,5.041,0,0,0-3.407,3.851l-.174.907-.174-.907a5.042,5.042,0,0,0-3.407-3.851l-2.579-.831v-.592a5.25,5.25,0,0,0,2.7-4.516V60.267a5.221,5.221,0,0,0-.463-2.151c.053-.02.106-.039.16-.057l1.314-.423a2.555,2.555,0,0,0,4.9,0l1.314.423c.054.017.107.037.16.057a5.221,5.221,0,0,0-.463,2.151v1.881a5.25,5.25,0,0,0,2.7,4.516v.592Zm5.844.356a.708.708,0,1,1-1.416,0V67.295a4.956,4.956,0,0,0,1.416,0Zm2.7-8.175v1.881a3.4,3.4,0,0,1-6.809,0V60.266a3.4,3.4,0,1,1,6.809,0ZM48.944,48.544l-1.487,7.325a5.3,5.3,0,0,0-.85.691,5.865,5.865,0,0,0-.665-.261l-1.775-.572v-.592a5.25,5.25,0,0,0,2.7-4.516V48.738a5.27,5.27,0,0,0-.038-.624Zm-3.93.194v1.881a3.4,3.4,0,0,1-6.809,0V48.738a3.4,3.4,0,0,1,6.809,0Z" transform="translate(0 -20.654)"/>
                          <path id="Trazado_990964" data-name="Trazado 990964" d="M383.87,138.313a5,5,0,1,0,3.177,2.141,4.972,4.972,0,0,0-3.177-2.141Zm-4.088,4.277a3.158,3.158,0,0,1,3.086-2.529,3.185,3.185,0,0,1,.634.064,3.139,3.139,0,0,1,1.4.67l-5.042,3.34A3.135,3.135,0,0,1,379.782,142.59Zm6.185,1.256a3.153,3.153,0,0,1-5.078,1.823l5.018-3.325A3.141,3.141,0,0,1,385.967,143.846Z" transform="translate(-331.284 -123.719)"/>
                          <path id="Trazado_990965" data-name="Trazado 990965" d="M166.58,60.23v2.836h-.14a.925.925,0,0,0,0,1.849h2.129a.925.925,0,0,0,0-1.849h-.14v-2.7H170.6v5.777h-1.3a.925.925,0,0,0,0,1.849h4.446a.925.925,0,1,0,0-1.849h-1.3V60.368h2.171v2.7h-.14a.925.925,0,1,0,0,1.849h2.128a.925.925,0,0,0,0-1.849h-.14V60.23a.924.924,0,0,0-.483-1.712H172.45V58.41a.925.925,0,0,0-1.849,0v.109h-3.537a.924.924,0,0,0-.483,1.712Z" transform="translate(-145.111 -52.944)"/>
                          <path id="Trazado_990966" data-name="Trazado 990966" d="M48.687,459.6a.925.925,0,0,0-1.082.734l-.4,2.066a.925.925,0,0,0,.734,1.082.936.936,0,0,0,.175.017.925.925,0,0,0,.907-.751l.4-2.066A.925.925,0,0,0,48.687,459.6Z" transform="translate(-41.375 -405.47)"/>
                        </g>
                      </g>
                    </g>
                  </g>
                </g>
              </g>
            </g>
          </g>
        </g>
      </g>
    </g>
  </g>
</svg>
