<svg xmlns="http://www.w3.org/2000/svg" xmlns:xlink="http://www.w3.org/1999/xlink" width="108" height="108" viewBox="0 0 108 108">
  <defs>
    <filter id="Trazado_982547" x="0" y="0" width="108" height="108" filterUnits="userSpaceOnUse">
      <feOffset dy="3" input="SourceAlpha"/>
      <feGaussianBlur stdDeviation="3" result="blur"/>
      <feFlood flood-opacity="0.161"/>
      <feComposite operator="in" in2="blur"/>
      <feComposite in="SourceGraphic"/>
    </filter>
  </defs>
  <g id="Grupo_1153234" data-name="Grupo 1153234" transform="translate(-201 -703)">
    <g id="Grupo_1153120" data-name="Grupo 1153120" transform="translate(0 338)">
      <g id="Grupo_1152564" data-name="Grupo 1152564" transform="translate(0 -68)">
        <g id="Grupo_1146955" data-name="Grupo 1146955" transform="translate(210 439)">
          <g id="Grupo_1146954" data-name="Grupo 1146954">
            <g transform="matrix(1, 0, 0, 1, -9, -6)" filter="url(#Trazado_982547)">
              <g id="Trazado_982547-2" data-name="Trazado 982547" transform="translate(9 6)" fill="#effcf6">
                <path d="M 45 88.5 C 39.12687683105469 88.5 33.43022537231445 87.35007476806641 28.06830024719238 85.08217620849609 C 22.88852500915527 82.89131164550781 18.23629951477051 79.75458526611328 14.2408504486084 75.75914764404297 C 10.24541282653809 71.76370239257812 7.108687400817871 67.11147308349609 4.917825222015381 61.93170166015625 C 2.649924993515015 56.56977462768555 1.5 50.87312316894531 1.5 45 C 1.5 39.12687683105469 2.649924993515015 33.43022537231445 4.917825222015381 28.06830024719238 C 7.108687400817871 22.88852500915527 10.24541282653809 18.23629951477051 14.2408504486084 14.2408504486084 C 18.23629951477051 10.24541282653809 22.88852500915527 7.108687400817871 28.06830024719238 4.917825222015381 C 33.43022537231445 2.649924993515015 39.12687683105469 1.5 45 1.5 C 50.87312316894531 1.5 56.56977462768555 2.649924993515015 61.93170166015625 4.917825222015381 C 67.11147308349609 7.108687400817871 71.76370239257812 10.24541282653809 75.75914764404297 14.2408504486084 C 79.75458526611328 18.23629951477051 82.89131164550781 22.88852500915527 85.08217620849609 28.06830024719238 C 87.35007476806641 33.43022537231445 88.5 39.12687683105469 88.5 45 C 88.5 50.87312316894531 87.35007476806641 56.56977462768555 85.08217620849609 61.93170166015625 C 82.89131164550781 67.11147308349609 79.75458526611328 71.76370239257812 75.75914764404297 75.75914764404297 C 71.76370239257812 79.75458526611328 67.11147308349609 82.89131164550781 61.93170166015625 85.08217620849609 C 56.56977462768555 87.35007476806641 50.87312316894531 88.5 45 88.5 Z" stroke="none"/>
                <path d="M 45 3 C 39.32871246337891 3 33.82865524291992 4.110054016113281 28.65262985229492 6.299339294433594 C 23.65165710449219 8.414573669433594 19.15968322753906 11.44334411621094 15.301513671875 15.301513671875 C 11.44334411621094 19.15968322753906 8.414573669433594 23.65165710449219 6.299339294433594 28.65262985229492 C 4.110054016113281 33.82865524291992 3 39.32871246337891 3 45 C 3 50.67128753662109 4.110054016113281 56.17134475708008 6.299339294433594 61.34737396240234 C 8.414573669433594 66.34834289550781 11.44334411621094 70.84031677246094 15.301513671875 74.698486328125 C 19.15968322753906 78.55665588378906 23.65165710449219 81.58542633056641 28.65262985229492 83.70066070556641 C 33.82865524291992 85.88994598388672 39.32871246337891 87 45 87 C 50.67128753662109 87 56.17134475708008 85.88994598388672 61.34737396240234 83.70066070556641 C 66.34834289550781 81.58542633056641 70.84031677246094 78.55665588378906 74.698486328125 74.698486328125 C 78.55665588378906 70.84031677246094 81.58542633056641 66.34834289550781 83.70066070556641 61.34737396240234 C 85.88994598388672 56.17134475708008 87 50.67128753662109 87 45 C 87 39.32871246337891 85.88994598388672 33.82865524291992 83.70066070556641 28.65262985229492 C 81.58542633056641 23.65165710449219 78.55665588378906 19.15968322753906 74.698486328125 15.301513671875 C 70.84031677246094 11.44334411621094 66.34834289550781 8.414573669433594 61.34737396240234 6.299339294433594 C 56.17134475708008 4.110054016113281 50.67128753662109 3 45 3 M 45 0 C 69.85281372070312 0 90 20.14718627929688 90 45 C 90 69.85281372070312 69.85281372070312 90 45 90 C 20.14718627929688 90 0 69.85281372070312 0 45 C 0 20.14718627929688 20.14718627929688 0 45 0 Z" stroke="none" fill="#3d7e5e"/>
              </g>
            </g>
          </g>
        </g>
      </g>
    </g>
    <g id="union" transform="translate(221.002 716.266)">
      <g id="Grupo_1153232" data-name="Grupo 1153232" transform="translate(0.92 7.658)">
        <g id="Grupo_1153229" data-name="Grupo 1153229" transform="translate(20.777 0)">
          <path id="Trazado_988068" data-name="Trazado 988068" d="M207.221,23.467a1.958,1.958,0,0,0-2.545,1.2l-.007.011,1.49-4.363a1.973,1.973,0,0,0-1.166-2.482l-.147-.055a1.96,1.96,0,0,0-2.555,1.229l-3.044,9.3a.847.847,0,0,1-1.641-.394c.282-1.851,1.247-8.159,1.741-11.383a1.969,1.969,0,0,0-1.624-2.244l-.182-.03a1.963,1.963,0,0,0-2.253,1.645L193.55,27.258a.851.851,0,0,1-.84.724h-.359a.851.851,0,0,1-.85-.853V16.361a1.966,1.966,0,0,0-1.961-1.97h-.184a1.966,1.966,0,0,0-1.961,1.97V28.767a1.686,1.686,0,0,1-.351,1.029,1.668,1.668,0,0,1-2.506.159l-2.783-2.8a3.532,3.532,0,0,0-5.011,0,1.57,1.57,0,0,0,0,2.214l5.581,5.606a7.118,7.118,0,0,1,1.948,3.7l.279,1.472a8.609,8.609,0,0,0,3.124,5.159,6.732,6.732,0,0,1,1.237,3.89V73.747h13.344V46.059a9.525,9.525,0,0,0,2.253-6.154,17.776,17.776,0,0,1,1.028-5.958l2.838-7.978a1.968,1.968,0,0,0-1.154-2.5Z" transform="translate(-176.288 -14.235)" fill="#fdb0a0"/>
          <g id="Grupo_1153228" data-name="Grupo 1153228" transform="translate(12.624 36.264)">
            <path id="Trazado_988069" data-name="Trazado 988069" d="M278.853,308.863v5.842l1.607,1.615a7.119,7.119,0,0,1,1.948,3.7l.279,1.472a8.609,8.609,0,0,0,3.124,5.159l1.248.985a2.542,2.542,0,0,1,.966,2v2.48H292.2V308.863Z" transform="translate(-278.853 -308.863)" fill="#f89f8e"/>
          </g>
          <path id="Trazado_988070" data-name="Trazado 988070" d="M360.133,110.933a9.525,9.525,0,0,0,2.253-6.154,17.777,17.777,0,0,1,1.028-5.958l2.838-7.978a1.96,1.96,0,0,0-3.017-2.236l0,0-.024.019-3.6,10.191a17.747,17.747,0,0,0-1.029,5.958,9.532,9.532,0,0,1-1.613,5.308,3.717,3.717,0,0,0-.639,2.068v26.467h3.808V110.933Z" transform="translate(-334.165 -79.109)" fill="#f89f8e"/>
        </g>
        <g id="Grupo_1153231" data-name="Grupo 1153231" transform="translate(0 15.164)">
          <g id="Grupo_1153230" data-name="Grupo 1153230">
            <path id="Trazado_988071" data-name="Trazado 988071" d="M38.42,146.663a1.958,1.958,0,0,0-2.545,1.2l0,0,1.484-4.356a1.973,1.973,0,0,0-1.165-2.482l-.147-.055a1.96,1.96,0,0,0-2.555,1.229l-3.044,9.3a.847.847,0,0,1-1.641-.394c.282-1.851,1.247-8.159,1.741-11.383a1.969,1.969,0,0,0-1.624-2.244l-.182-.03a1.963,1.963,0,0,0-2.253,1.645l-1.739,11.352a.851.851,0,0,1-.84.724h-.359a.851.851,0,0,1-.85-.853V139.557a1.966,1.966,0,0,0-1.961-1.97h-.184a1.966,1.966,0,0,0-1.961,1.97v12.406a1.686,1.686,0,0,1-.351,1.029,1.668,1.668,0,0,1-2.506.159l-2.783-2.8a3.532,3.532,0,0,0-5.011,0,1.57,1.57,0,0,0,0,2.214l5.581,5.606a7.118,7.118,0,0,1,1.948,3.7l.279,1.472a8.608,8.608,0,0,0,3.124,5.159l1.248.985a2.542,2.542,0,0,1,.966,2v10.294H33.455V169.255a9.526,9.526,0,0,0,2.253-6.154,17.776,17.776,0,0,1,1.028-5.958l2.838-7.978a1.967,1.967,0,0,0-1.154-2.5Z" transform="translate(-7.487 -137.431)" fill="#c86f5c"/>
            <path id="Trazado_988072" data-name="Trazado 988072" d="M191.332,234.127a9.526,9.526,0,0,0,2.253-6.154,17.777,17.777,0,0,1,1.028-5.958l2.838-7.978a1.96,1.96,0,0,0-3.006-2.244l-.038.031-3.6,10.191a17.747,17.747,0,0,0-1.029,5.958,9.532,9.532,0,0,1-1.635,5.34,3.632,3.632,0,0,0-.617,2.036v11.3h3.808V234.127Z" transform="translate(-165.364 -202.303)" fill="#ba5d4f"/>
          </g>
          <path id="Trazado_988073" data-name="Trazado 988073" d="M273.8,174.662a1.958,1.958,0,0,0-2.545,1.2l0,0,1.484-4.356a1.973,1.973,0,0,0-1.165-2.482l-.147-.055a1.96,1.96,0,0,0-2.555,1.229l-3.044,9.3a.847.847,0,0,1-1.641-.394c.282-1.851,1.247-8.159,1.741-11.383a1.969,1.969,0,0,0-1.624-2.244l-.182-.03a1.963,1.963,0,0,0-2.253,1.645l-1.739,11.352a.851.851,0,0,1-.84.724h-.359a.851.851,0,0,1-.85-.853V167.556a1.966,1.966,0,0,0-1.961-1.97h-.184a1.966,1.966,0,0,0-1.961,1.97v12.406a1.686,1.686,0,0,1-.351,1.029,1.669,1.669,0,0,1-2.506.159l-2.783-2.8a3.532,3.532,0,0,0-5.011,0,1.57,1.57,0,0,0,0,2.214l5.581,5.606a7.118,7.118,0,0,1,1.948,3.7l.279,1.472a8.609,8.609,0,0,0,3.124,5.159l1.248.985a2.542,2.542,0,0,1,.966,2v6.848h12.366v-9.078a9.525,9.525,0,0,0,2.253-6.154,17.776,17.776,0,0,1,1.028-5.958l2.838-7.978a1.967,1.967,0,0,0-1.154-2.5Z" transform="translate(-213.894 -161.984)" fill="#ffcec0"/>
          <path id="Trazado_988074" data-name="Trazado 988074" d="M426.71,262.127a9.525,9.525,0,0,0,2.253-6.154,17.777,17.777,0,0,1,1.028-5.958l2.838-7.978a1.959,1.959,0,0,0-3.028-2.227l-.016.014-3.6,10.191a17.746,17.746,0,0,0-1.029,5.958,9.532,9.532,0,0,1-1.635,5.34,3.632,3.632,0,0,0-.617,2.036v7.857h3.808v-9.078Z" transform="translate(-371.771 -226.857)" fill="#fdb0a0"/>
        </g>
      </g>
      <g id="Grupo_1153233" data-name="Grupo 1153233" transform="translate(-0.002 6.734)">
        <path id="Trazado_988075" data-name="Trazado 988075" d="M272.276,423.237a.923.923,0,0,0-.923.923v8.247a.923.923,0,1,0,1.846,0V424.16A.923.923,0,0,0,272.276,423.237Z" transform="translate(-237.953 -371.972)"/>
        <path id="Trazado_988076" data-name="Trazado 988076" d="M14.127,246.869l-1.248-.984a7.683,7.683,0,0,1-2.788-4.606l-.279-1.472a8.01,8.01,0,0,0-2.2-4.178l-5.581-5.606a.647.647,0,0,1,0-.911,2.619,2.619,0,0,1,3.121-.44.923.923,0,0,0,.9-1.612,4.472,4.472,0,0,0-5.33.749,2.5,2.5,0,0,0,0,3.516L6.3,236.931A6.169,6.169,0,0,1,8,240.15l.279,1.472a9.53,9.53,0,0,0,3.459,5.712l1.248.984a1.609,1.609,0,0,1,.615,1.271v10.294a.923.923,0,1,0,1.846,0V249.59A3.445,3.445,0,0,0,14.127,246.869Z" transform="translate(0.002 -199.45)"/>
        <path id="Trazado_988077" data-name="Trazado 988077" d="M115.7,34.636a2.871,2.871,0,0,0-1.128-.185l.614-1.8A2.882,2.882,0,0,0,113.471,29l-.146-.055a2.883,2.883,0,0,0-3.758,1.806l-2.756,8.423c.382-2.5,1.171-7.659,1.6-10.472a2.907,2.907,0,0,0-1.375-2.923L109.2,19.7a2.9,2.9,0,0,0-1.7-3.674,2.872,2.872,0,0,0-1.129-.185l.615-1.8a2.883,2.883,0,0,0-1.713-3.644l-.147-.056a2.883,2.883,0,0,0-3.758,1.806l-2.756,8.423c.382-2.5,1.171-7.659,1.6-10.472A2.9,2.9,0,0,0,97.83,6.8l-.182-.03a2.886,2.886,0,0,0-3.315,2.417L92.6,20.482h-.222V9.783A2.892,2.892,0,0,0,89.5,6.89h-.184a2.892,2.892,0,0,0-2.885,2.893V22.189a.766.766,0,0,1-.158.466.745.745,0,0,1-1.121.072l-2.783-2.8a4.429,4.429,0,0,0-3.16-1.314h0a4.429,4.429,0,0,0-3.16,1.314,2.489,2.489,0,0,0-.689,2.165,2.9,2.9,0,0,0-1.8,2.257l-1.73,11.293H71.6v-10.7a2.892,2.892,0,0,0-2.885-2.893h-.184a2.892,2.892,0,0,0-2.885,2.893V37.353a.767.767,0,0,1-.158.466.746.746,0,0,1-1.121.072l-.593-.6a.923.923,0,1,0-1.308,1.3l.593.6a2.6,2.6,0,0,0,4.434-1.84V24.947A1.044,1.044,0,0,1,68.536,23.9h.184a1.044,1.044,0,0,1,1.038,1.047V35.715a1.777,1.777,0,0,0,1.773,1.776h.359a1.764,1.764,0,0,0,1.752-1.507l1.739-11.352a1.042,1.042,0,0,1,.419-.69,1.025,1.025,0,0,1,.773-.184l.182.03a1.049,1.049,0,0,1,.86,1.193c-.493,3.224-1.458,9.532-1.741,11.383a1.77,1.77,0,0,0,3.431.821l3.044-9.3a1.035,1.035,0,0,1,.541-.618,1.022,1.022,0,0,1,.81-.035l.146.055a1.044,1.044,0,0,1,.618,1.321l-3.79,11.122a.923.923,0,1,0,1.748.6l2.307-6.768a1.036,1.036,0,0,1,.542-.608,1.021,1.021,0,0,1,.8-.032,1.045,1.045,0,0,1,.612,1.328l-1.217,3.421a4.47,4.47,0,0,0-1.226.875,2.5,2.5,0,0,0-.236,3.237l-.159.445a18.632,18.632,0,0,0-1.081,6.268,8.609,8.609,0,0,1-2.034,5.557.923.923,0,0,0-.218.6V67.169a.923.923,0,0,0,1.846,0v-12.2a10.46,10.46,0,0,0,2.252-6.484,16.79,16.79,0,0,1,.831-5.226l2.5,2.514v9.045a.923.923,0,0,0,1.846,0v-7.19l.03.03a6.169,6.169,0,0,1,1.7,3.218l.279,1.472a9.531,9.531,0,0,0,3.459,5.712l1.248.984a1.609,1.609,0,0,1,.615,1.271v6.848a.923.923,0,0,0,1.846,0V60.321A3.445,3.445,0,0,0,97.646,57.6L96.4,56.616A7.684,7.684,0,0,1,93.61,52.01l-.279-1.472a8.009,8.009,0,0,0-2.2-4.178L85.55,40.754a.647.647,0,0,1,0-.911,2.609,2.609,0,0,1,3.7,0l2.783,2.8a2.592,2.592,0,0,0,3.891-.247,2.622,2.622,0,0,0,.543-1.593v-4.92a.923.923,0,1,0-1.846,0V40.8a.767.767,0,0,1-.158.466.746.746,0,0,1-1.121.072l-2.783-2.8a4.426,4.426,0,0,0-2.979-1.31l.843-2.369A2.889,2.889,0,0,0,85.6,31l.614-1.8A2.882,2.882,0,0,0,84.5,25.559l-.146-.055a2.851,2.851,0,0,0-2.26.1,2.891,2.891,0,0,0-.765.534L79.405,24.2a2.9,2.9,0,0,0-2.152-2.2.645.645,0,0,1,.1-.773,2.609,2.609,0,0,1,3.7,0l2.783,2.8a2.592,2.592,0,0,0,3.891-.247,2.622,2.622,0,0,0,.543-1.593V9.783a1.044,1.044,0,0,1,1.038-1.047H89.5a1.044,1.044,0,0,1,1.038,1.047V20.551a1.777,1.777,0,0,0,1.773,1.776h.359a1.764,1.764,0,0,0,1.752-1.507L96.158,9.469a1.042,1.042,0,0,1,.419-.69,1.025,1.025,0,0,1,.773-.184l.182.03a1.049,1.049,0,0,1,.86,1.193C97.9,13.041,96.934,19.35,96.651,21.2a1.77,1.77,0,0,0,3.431.821l3.044-9.3a1.035,1.035,0,0,1,.541-.618,1.022,1.022,0,0,1,.81-.035l.147.056a1.044,1.044,0,0,1,.618,1.321l-3.7,10.843a.923.923,0,1,0,1.748.6l2.216-6.49a1.035,1.035,0,0,1,.542-.607,1.022,1.022,0,0,1,.8-.032,1.049,1.049,0,0,1,.61,1.328l-2.23,6.266a2.888,2.888,0,0,0-2.7,2.451L100.8,39.091h-.222v-10.7A2.892,2.892,0,0,0,97.692,25.5h-.184a2.892,2.892,0,0,0-2.885,2.893v3.386a.923.923,0,1,0,1.846,0V28.393a1.044,1.044,0,0,1,1.038-1.047h.184a1.044,1.044,0,0,1,1.038,1.047V39.161a1.777,1.777,0,0,0,1.773,1.776h.359a1.764,1.764,0,0,0,1.752-1.507l1.739-11.352a1.042,1.042,0,0,1,.419-.69,1.024,1.024,0,0,1,.773-.184l.182.03a1.049,1.049,0,0,1,.86,1.193c-.493,3.224-1.458,9.532-1.741,11.383a1.77,1.77,0,0,0,3.431.821l3.044-9.3a1.035,1.035,0,0,1,.541-.618,1.022,1.022,0,0,1,.811-.035l.146.055a1.044,1.044,0,0,1,.618,1.321l-3.79,11.122a.923.923,0,1,0,1.748.6l2.3-6.755a1.069,1.069,0,0,1,.547-.621,1.023,1.023,0,0,1,.8-.032,1.049,1.049,0,0,1,.61,1.328l-2.838,7.978a18.648,18.648,0,0,0-1.081,6.268,8.611,8.611,0,0,1-2.034,5.558.923.923,0,0,0-.218.6v9.078a.923.923,0,0,0,1.846,0V58.42a10.462,10.462,0,0,0,2.253-6.484,16.806,16.806,0,0,1,.975-5.649L117.4,38.31a2.9,2.9,0,0,0-1.7-3.674Zm-36.47-7.993,1.192,1.2-2.582,7.891C78.164,33.6,78.786,29.538,79.229,26.643Z" transform="translate(-54.546 -6.734)"/>
      </g>
    </g>
  </g>
</svg>
