<svg xmlns="http://www.w3.org/2000/svg" xmlns:xlink="http://www.w3.org/1999/xlink" width="505" height="394" viewBox="0 0 505 394">
  <defs>
    <clipPath id="clip-path">
      <rect id="Rectángulo_407955" data-name="Rectángulo 407955" width="505" height="394" transform="translate(180 4824)" fill="#fff" stroke="#707070" stroke-width="1" opacity="0.7"/>
    </clipPath>
    <clipPath id="clip-path-2">
      <path id="Trazado_990648" data-name="Trazado 990648" d="M45.332,423.207H476.639s14-21.91,3.369-21.853-14.181,3.92-14.181,3.92,28.819-56.439,0-58.223-35.352,48.415-35.352,48.415-.131-12.987-8.688-11.777-24.666,14.421-24.666,14.421-20.572-25.579-46.673-22.217-38.17,9.213-38.17,9.213-33.864-21.4-57.965-18.845-58,25.577-58,25.577-22.555-11.147-38.551-6.731a42.635,42.635,0,0,0-23.468,16.247s-3.757-21.516-11.683-17.665-5.944,14.421-5.944,14.421-9.226-55.989-28.391-47.149,14.076,54.314,14.076,54.314S75.054,394.145,45.332,423.207Z" transform="translate(-45.332 -347.005)"/>
    </clipPath>
    <clipPath id="clip-path-3">
      <path id="Trazado_990748" data-name="Trazado 990748" d="M272.751,194.206c2.288,1.314,3.61,3.788,4.822,6.132,3.475,6.72,7.035,13.445,11.633,19.453a68.471,68.471,0,0,0,30.986,22.662c-11.073,10.816-26.592,15.636-41.707,18.977-14.885,3.29-30.466,5.487-45.292,1.936s-28.824-13.929-32.855-28.631a11.8,11.8,0,0,0,6.659-.527c2.639-1.017,4.811-2.942,6.92-4.828a103.936,103.936,0,0,0,11.567-11.491c3.8-4.657,6.755-9.936,10.363-14.742s8.06-9.253,13.7-11.321a16.926,16.926,0,0,1,12.286.136c1.628.7,3.228,2.586,5.04,2.407C269.095,194.149,270.429,192.873,272.751,194.206Z" transform="translate(-200.338 -190.739)"/>
    </clipPath>
  </defs>
  <g id="Enmascarar_grupo_1098659" data-name="Enmascarar grupo 1098659" transform="translate(-180 -4824)" clip-path="url(#clip-path)">
    <g id="Grupo_1154108" data-name="Grupo 1154108" transform="translate(180 4801.577)">
      <g id="Grupo_1154089" data-name="Grupo 1154089" transform="translate(5.349)">
        <path id="Trazado_990617" data-name="Trazado 990617" d="M19.437,385.4a77.218,77.218,0,0,1,13.726-60.26c10.768-14.416,26.637-25.051,34.574-41.2,12.746-25.935,1.382-57.784,9.7-85.458,7.573-25.191,30.117-42.808,52.937-55.89,41.315-23.684,88.346-38.291,135.97-38.3s95.732,15.15,132.466,45.459c7.649,6.311,15.253,13.487,24.92,15.7,10.051,2.3,20.535-1.222,30.814-.433,16.147,1.238,29.632,12.853,39.608,25.609,13.4,17.128,22.973,38.659,20.2,60.226-3.888,30.251-30.449,53.057-37.9,82.633-6.525,25.888,1.958,55.477-11.521,78.522-8.1,13.849-23.028,22.629-38.535,26.739s-31.77,4.1-47.814,4.024q-80.56-.36-161.11-1.838-40.274-.736-80.542-1.749-20.545-.518-41.088-1.106c-11.994-.344-26.294,1.341-38.02-1.286C37.857,432.319,23,403.585,19.437,385.4Z" transform="translate(-18.059 -64.721)" fill="#ffe1f4"/>
        <path id="Trazado_990618" data-name="Trazado 990618" d="M437.415,359.683c.124,15.436-3.422,30.623-6.944,45.652-1.411,6.041-3,12.42-7.374,16.847-5.894,6-15.12,6.8-23.521,7.181q-83.926,3.946-167.988,1.31c-44.664-1.4-90.161-4.247-134.778-1.829-7.295.4-18.067,3.444-25.1,1.581-10.931-2.891-16.7-22.03-18.97-31.719-3.76-15.978-2.372-33.289,4.709-48.171,7.26-15.244,19.546-27.473,28.636-41.7,13.664-21.375,19.784-46.771,22.392-72.008,1.5-14.634,2.021-29.8,8.345-43.078,9.846-20.675,31.8-32.679,53.4-40.323a253.732,253.732,0,0,1,164.532-1.175c15.944,5.4,31.594,12.556,44.163,23.757s21.793,26.9,22.425,43.71c.451,12.116-3.467,23.893-5.973,35.761s-3.467,24.876,2.372,35.5c5.816,10.569,17.208,16.723,25.192,25.779C433.136,328.327,437.291,344.259,437.415,359.683Z" transform="translate(-15.72 -62.225)" fill="#ffc2e9"/>
        <g id="Grupo_1154086" data-name="Grupo 1154086" transform="translate(4.586 0)">
          <path id="Trazado_990619" data-name="Trazado 990619" d="M92.835,441.985C67.419,419.272,56.379,384.514,51.362,350.8S46.2,282.532,37.426,249.6C32.8,232.238,25.8,215.437,23.3,197.647c-3.459-24.618,2.425-50.863,17.951-70.278S82.23,96.261,106.9,99.342c13.775,1.72,26.873,7.736,40.744,8.265,21.162.8,40.378-11.053,59.618-19.9a225.577,225.577,0,0,1,76.514-19.892c16.312-1.271,33.98-.356,47.029,9.513,4.81,3.637,8.783,8.357,13.912,11.528,15.914,9.839,36.23,1.993,54.782-.44,48.266-6.331,95.228,29.262,113.443,74.4s12.376,96.815-3.283,142.907A359.451,359.451,0,0,1,433.52,433.654" transform="translate(-22.338 -67.367)" fill="none" stroke="#fff" stroke-miterlimit="10" stroke-width="0.5"/>
          <path id="Trazado_990620" data-name="Trazado 990620" d="M109.112,433.872A327.72,327.72,0,0,1,76.551,302.535c-.582-16.949.145-34.069-3.08-50.719-3.443-17.78-11.378-35.2-9.391-53.205,2.668-24.167,22.476-42.758,42.895-55.957a251.179,251.179,0,0,1,104.416-38.093c32.256-4.079,64.954-1.837,97.331,1.119,19.428,1.774,39.027,3.843,57.5,10.123,15.363,5.223,29.624,13.26,43.241,22.083,16.575,10.741,32.644,23.023,43.775,39.339,10.194,14.943,15.781,32.677,18.223,50.6,4.886,35.851-2.4,72.418-14.364,106.564a396.685,396.685,0,0,1-47.617,93.717" transform="translate(-19.37 -64.861)" fill="none" stroke="#fff" stroke-miterlimit="10" stroke-width="0.5"/>
          <path id="Trazado_990621" data-name="Trazado 990621" d="M135.925,423.488C108.069,361.782,93.94,292.335,105.99,225.714c2.673-14.776,6.727-29.6,14.912-42.186,6.93-10.659,16.542-19.286,26.461-27.24,12.247-9.821,25.509-19,40.688-23.007,14.145-3.734,29.1-2.752,43.529-5.166,16.09-2.692,31.252-9.557,47.339-12.262a94.075,94.075,0,0,1,44.943,3.445c18.152,6.008,34.264,17.5,52.8,22.2,8.9,2.257,18.348,2.947,26.521,7.132,11.358,5.815,18.484,17.461,23.68,29.116C444.8,217.96,446.25,264.306,436.3,307.2s-30.719,82.656-55.617,118.978" transform="translate(-16.655 -63.985)" fill="none" stroke="#fff" stroke-miterlimit="10" stroke-width="0.5"/>
          <path id="Trazado_990622" data-name="Trazado 990622" d="M188.182,416.019c-15.7-21.272-26.727-46.408-29.035-72.747-.967-11.035-.411-22.146.42-33.191,1.236-16.4,3.1-32.859,7.839-48.606,8.194-27.231,25.425-52.065,49.417-67.332s54.793-20.278,81.75-11.221c9.216,3.1,18.227,8.03,23.781,16.009,3.739,5.373,5.8,11.949,10.453,16.549,5.528,5.46,13.656,7.138,20.489,10.838,17.354,9.4,24.46,30.542,27.279,50.074a213.054,213.054,0,0,1-26.329,136.09c-.434.748-1.126,1.607-1.962,1.388s-.07-1.908.4-1.182" transform="translate(-12.573 -59.41)" fill="none" stroke="#fff" stroke-miterlimit="10" stroke-width="0.5"/>
        </g>
        <path id="Trazado_990623" data-name="Trazado 990623" d="M45.332,423.207H476.639s14-21.91,3.369-21.853-14.181,3.92-14.181,3.92,28.819-56.439,0-58.223-35.352,48.415-35.352,48.415-.131-12.987-8.688-11.777-24.666,14.421-24.666,14.421-20.572-25.579-46.673-22.217-38.17,9.213-38.17,9.213-33.864-21.4-57.965-18.845-58,25.577-58,25.577-22.555-11.147-38.551-6.731a42.635,42.635,0,0,0-23.468,16.247s-3.757-21.516-11.683-17.665-5.944,14.421-5.944,14.421-9.226-55.989-28.391-47.149,14.076,54.314,14.076,54.314S75.054,394.145,45.332,423.207Z" transform="translate(-16.105 -47.331)" fill="#ff89ea"/>
        <g id="Grupo_1154088" data-name="Grupo 1154088" transform="translate(29.227 299.673)">
          <g id="Grupo_1154087" data-name="Grupo 1154087" opacity="0.36" clip-path="url(#clip-path-2)">
            <path id="Trazado_990624" data-name="Trazado 990624" d="M85.857,350.509l30.174,65.273" transform="translate(-42.428 -346.754)" fill="none" stroke="#fff" stroke-miterlimit="10" stroke-width="0.5"/>
            <path id="Trazado_990625" data-name="Trazado 990625" d="M118.019,382.687a73.073,73.073,0,0,0,6.586,28.913" transform="translate(-40.124 -344.448)" fill="none" stroke="#fff" stroke-miterlimit="10" stroke-width="0.5"/>
            <path id="Trazado_990626" data-name="Trazado 990626" d="M157.525,410.191a52.185,52.185,0,0,1,3.689-28.689" transform="translate(-37.337 -344.533)" fill="none" stroke="#fff" stroke-miterlimit="10" stroke-width="0.5"/>
            <path id="Trazado_990627" data-name="Trazado 990627" d="M238.749,365.751c3.939,4.867,5.517,11.218,6.35,17.424s1.042,12.533,2.728,18.563c.065.234.2.518.444.5s.046-.515-.073-.3" transform="translate(-31.474 -345.662)" fill="none" stroke="#fff" stroke-miterlimit="10" stroke-width="0.5"/>
            <path id="Trazado_990628" data-name="Trazado 990628" d="M251.85,402.7a67.456,67.456,0,0,1,.352-38.58" transform="translate(-30.725 -345.778)" fill="none" stroke="#fff" stroke-miterlimit="10" stroke-width="0.5"/>
            <path id="Trazado_990629" data-name="Trazado 990629" d="M256.5,401.259a56.464,56.464,0,0,1-.522-17.894,32.022,32.022,0,0,1,7.117-16.249" transform="translate(-30.275 -345.564)" fill="none" stroke="#fff" stroke-miterlimit="10" stroke-width="0.5"/>
            <path id="Trazado_990630" data-name="Trazado 990630" d="M342.858,405.917a58.881,58.881,0,0,1,16.489-26.391" transform="translate(-24.015 -344.675)" fill="none" stroke="#fff" stroke-miterlimit="10" stroke-width="0.5"/>
            <path id="Trazado_990631" data-name="Trazado 990631" d="M350.052,402.531a38.555,38.555,0,0,1,12.469-15.87" transform="translate(-23.5 -344.163)" fill="none" stroke="#fff" stroke-miterlimit="10" stroke-width="0.5"/>
            <path id="Trazado_990632" data-name="Trazado 990632" d="M385.957,409.346a141.1,141.1,0,0,1,16.2-29.2" transform="translate(-20.927 -344.63)" fill="none" stroke="#fff" stroke-miterlimit="10" stroke-width="0.5"/>
            <path id="Trazado_990633" data-name="Trazado 990633" d="M444.717,349.782a234.279,234.279,0,0,0-32.609,65.81" transform="translate(-19.053 -346.806)" fill="none" stroke="#fff" stroke-miterlimit="10" stroke-width="0.5"/>
            <path id="Trazado_990634" data-name="Trazado 990634" d="M432.143,420.171a170.752,170.752,0,0,0,20.01-22.9" transform="translate(-17.618 -343.403)" fill="none" stroke="#fff" stroke-miterlimit="10" stroke-width="0.5"/>
            <path id="Trazado_990635" data-name="Trazado 990635" d="M80.792,367.472a.81.81,0,0,1-1.094-.316,139.312,139.312,0,0,1,18.1,7.614,139.534,139.534,0,0,1,1.767-18.618l-.493,1.058" transform="translate(-42.87 -346.349)" fill="none" stroke="#fff" stroke-miterlimit="10" stroke-width="0.5"/>
            <path id="Trazado_990636" data-name="Trazado 990636" d="M87.074,383.542l16.965,5.145,4.838-14.146" transform="translate(-42.341 -345.032)" fill="none" stroke="#fff" stroke-miterlimit="10" stroke-width="0.5"/>
            <path id="Trazado_990637" data-name="Trazado 990637" d="M145.953,384.961l-.757-.633a105.047,105.047,0,0,1,13.2,7.5,1.878,1.878,0,0,0,.774.361,1.911,1.911,0,0,0,1.261-.488,43.523,43.523,0,0,1,16.948-7.035l-.863.672" transform="translate(-38.177 -344.331)" fill="none" stroke="#fff" stroke-miterlimit="10" stroke-width="0.5"/>
            <path id="Trazado_990638" data-name="Trazado 990638" d="M232.292,366.4a43.4,43.4,0,0,0,35.125,5.329c.4-.114.848-.647.47-.818" transform="translate(-31.937 -345.615)" fill="none" stroke="#fff" stroke-miterlimit="10" stroke-width="0.5"/>
            <path id="Trazado_990639" data-name="Trazado 990639" d="M222.745,369.858a47.759,47.759,0,0,0,56.076,3.346" transform="translate(-32.621 -345.367)" fill="none" stroke="#fff" stroke-miterlimit="10" stroke-width="0.5"/>
            <path id="Trazado_990640" data-name="Trazado 990640" d="M343.052,378.346A26.583,26.583,0,0,0,370.6,390.74c.214-.044.462-.118.535-.324s-.261-.438-.357-.241" transform="translate(-24.001 -344.759)" fill="none" stroke="#fff" stroke-miterlimit="10" stroke-width="0.5"/>
            <path id="Trazado_990641" data-name="Trazado 990641" d="M335.153,383.757c2.875,4.789,8.031,7.885,13.432,9.306s11.081,1.339,16.653.97a24.523,24.523,0,0,0,7.113-1.235" transform="translate(-24.567 -344.371)" fill="none" stroke="#fff" stroke-miterlimit="10" stroke-width="0.5"/>
            <path id="Trazado_990642" data-name="Trazado 990642" d="M389.135,383.807l4.338,7.089a1.636,1.636,0,0,0,.85.826,1.607,1.607,0,0,0,1.031-.186,45.528,45.528,0,0,0,7.432-4.064c.154-.1.328-.26.275-.439s-.415-.029-.269.086" transform="translate(-20.699 -344.368)" fill="none" stroke="#fff" stroke-miterlimit="10" stroke-width="0.5"/>
            <path id="Trazado_990643" data-name="Trazado 990643" d="M422.243,355.157a47.3,47.3,0,0,1,7.627,11.023c.3.6.687,1.29,1.354,1.4a2.1,2.1,0,0,0,1.143-.257l18.668-8.123" transform="translate(-18.327 -346.421)" fill="none" stroke="#fff" stroke-miterlimit="10" stroke-width="0.5"/>
            <path id="Trazado_990644" data-name="Trazado 990644" d="M412.391,365.348q6.232,8.11,11.951,16.6,13.808-7.356,28.132-13.685" transform="translate(-19.033 -345.69)" fill="none" stroke="#fff" stroke-miterlimit="10" stroke-width="0.5"/>
            <path id="Trazado_990645" data-name="Trazado 990645" d="M406.206,381.937a111.866,111.866,0,0,1,13.221,13.093A64.8,64.8,0,0,1,448.6,382.1" transform="translate(-19.476 -344.502)" fill="none" stroke="#fff" stroke-miterlimit="10" stroke-width="0.5"/>
            <path id="Trazado_990646" data-name="Trazado 990646" d="M444.625,397.738l1.807,6.135,11.011,1.632" transform="translate(-16.724 -343.37)" fill="none" stroke="#fff" stroke-miterlimit="10" stroke-width="0.5"/>
            <path id="Trazado_990647" data-name="Trazado 990647" d="M65.94,403.047a52.053,52.053,0,0,1,39.194,17.583" transform="translate(-43.855 -342.99)" fill="none" stroke="#fff" stroke-miterlimit="10" stroke-width="0.5"/>
          </g>
        </g>
        <ellipse id="Elipse_11573" data-name="Elipse 11573" cx="178.784" cy="25.388" rx="178.784" ry="25.388" transform="translate(72.379 350.487)" fill="#ffa6ea"/>
      </g>
      <g id="Grupo_1154107" data-name="Grupo 1154107" transform="translate(32.829 57.578)">
        <g id="Grupo_1154096" data-name="Grupo 1154096" transform="translate(0 25.646)">
          <g id="Grupo_1154090" data-name="Grupo 1154090" transform="translate(38.537 141.852)">
            <path id="Trazado_990649" data-name="Trazado 990649" d="M156.829,321.845s11.377,21.645,21.1,37.092,36.4,50.2,35.991,52.887-3.723,4.757-1.655,5.584,7.447-3.516,6.826-5.584-4.55-34.957-14.272-49.023-12.824-14.893-13.859-19.03-8.895-39.3-8.895-39.3-30.2-22.753-48.816-25.442-50.41-4.394-53.367,14.6c-3.1,19.94,27.51,76.616,32.682,81.995-.827,3.309-3.309,6.413-1.241,7.861s9.722-6.825,8.274-9.308-3.309-3.93-3.516-7.24,3.309-34.543-8.274-56.676,22.546-11.79,43.438-2.275C155.175,318.329,156.049,320.372,156.829,321.845Z" transform="translate(-79.662 -277.395)" fill="#efb9ca"/>
            <path id="Trazado_990650" data-name="Trazado 990650" d="M199.833,412.131c-2.242.569,1.746-4.55,1.746-4.55s-5.79-2.593-1.976-5.586,7.884,0,7.884,0,2.482-3.072,4.343-1.33S212.865,408.821,199.833,412.131Z" transform="translate(-71.162 -268.601)" fill="#f2f4f4"/>
            <path id="Trazado_990651" data-name="Trazado 990651" d="M108.415,382.382c-4.508.5-2.275-9.308,0-11.17-2.482-2.482-2.275-6.563,4.757-4.316,2.3-2.354,4.757-2.518,5.791-.653S114,381.761,108.415,382.382Z" transform="translate(-77.789 -271.12)" fill="#f2f4f4"/>
            <path id="Trazado_990652" data-name="Trazado 990652" d="M89.806,291.165a3.947,3.947,0,1,0-3.947,3.947A3.947,3.947,0,0,0,89.806,291.165Z" transform="translate(-79.501 -276.691)" fill="#f26d9e"/>
            <path id="Trazado_990653" data-name="Trazado 990653" d="M183.466,353.19a3.947,3.947,0,1,0-3.947,3.947A3.947,3.947,0,0,0,183.466,353.19Z" transform="translate(-72.791 -272.247)" fill="#f26d9e"/>
            <path id="Trazado_990654" data-name="Trazado 990654" d="M199.182,412.036a19.2,19.2,0,0,0,13.893-8.675" transform="translate(-71.099 -268.37)" fill="none" stroke="#000" stroke-miterlimit="10" stroke-width="0.5"/>
            <path id="Trazado_990655" data-name="Trazado 990655" d="M198.353,403.3a2.66,2.66,0,0,0,.469,1.658,5.778,5.778,0,0,0,4.477,2.7" transform="translate(-71.159 -268.374)" fill="none" stroke="#000" stroke-miterlimit="10" stroke-width="0.5"/>
            <path id="Trazado_990656" data-name="Trazado 990656" d="M202.89,400.557a9.232,9.232,0,0,1,6.194,3.165" transform="translate(-70.834 -268.571)" fill="none" stroke="#000" stroke-miterlimit="10" stroke-width="0.5"/>
            <path id="Trazado_990657" data-name="Trazado 990657" d="M201.433,404.984a4.009,4.009,0,0,1,4.015-1.132" transform="translate(-70.938 -268.346)" fill="none" stroke="#000" stroke-miterlimit="10" stroke-width="0.5"/>
            <path id="Trazado_990658" data-name="Trazado 990658" d="M203.286,406.2a3.906,3.906,0,0,1,3.988-.223" transform="translate(-70.805 -268.215)" fill="none" stroke="#000" stroke-miterlimit="10" stroke-width="0.5"/>
            <path id="Trazado_990659" data-name="Trazado 990659" d="M107.277,382.817a5.017,5.017,0,0,0,3.431-.937,11.137,11.137,0,0,0,2.532-2.59,29.41,29.41,0,0,0,5.61-13.7c.035-.261-.068-.649-.321-.578" transform="translate(-77.684 -271.118)" fill="none" stroke="#000" stroke-miterlimit="10" stroke-width="0.5"/>
            <path id="Trazado_990660" data-name="Trazado 990660" d="M109.024,366.3a1.6,1.6,0,0,0-1.711.685,2.478,2.478,0,0,0-.291,1.9,5.831,5.831,0,0,0,.8,1.794c.737,1.2,1.786,2.423,3.195,2.528" transform="translate(-77.707 -271.029)" fill="none" stroke="#000" stroke-miterlimit="10" stroke-width="0.5"/>
            <path id="Trazado_990661" data-name="Trazado 990661" d="M107.872,373.4A3.59,3.59,0,0,0,111.141,375" transform="translate(-77.641 -270.516)" fill="none" stroke="#000" stroke-miterlimit="10" stroke-width="0.5"/>
            <path id="Trazado_990662" data-name="Trazado 990662" d="M107.58,375.082a2.155,2.155,0,0,0,1.538,1.408,3.715,3.715,0,0,0,2.143-.15" transform="translate(-77.662 -270.396)" fill="none" stroke="#000" stroke-miterlimit="10" stroke-width="0.5"/>
            <path id="Trazado_990663" data-name="Trazado 990663" d="M112.684,366.994a6.347,6.347,0,0,1,3.794-2.749" transform="translate(-77.297 -271.173)" fill="none" stroke="#000" stroke-miterlimit="10" stroke-width="0.5"/>
          </g>
          <path id="Trazado_990664" data-name="Trazado 990664" d="M59.263,218.224c-.4,1.63.559,3.262,1.545,4.62,6.045,8.328,14.5,14.536,22.811,20.6" transform="translate(-42.594 -139.782)" fill="none" stroke="#000" stroke-miterlimit="10" stroke-width="0.5"/>
          <g id="Grupo_1154091" data-name="Grupo 1154091" transform="translate(51.169 139.758)">
            <path id="Trazado_990665" data-name="Trazado 990665" d="M195.5,346.388c-9.313,6-20.479,10.963-29.17,10.556-3.719-6.2-13.235-34.55-15.721-36.4s-11.167-8.895-39.094-11.177c0,0-14.9-25.6-20.061-31.828,7.855-1.468,35.407-4.93,54.022,2.518,12.763,5.112,26,14.853,33.06,20.479,3.236,2.572,5.165,4.287,5.165,4.287s.9,2.347,2.229,5.926C189.784,321.28,197.189,342.53,195.5,346.388Z" transform="translate(-91.45 -275.441)" fill="#812cff"/>
            <path id="Trazado_990666" data-name="Trazado 990666" d="M106.439,300.653a98.907,98.907,0,0,1,41.55,8.361" transform="translate(-90.376 -273.636)" fill="none" stroke="#000" stroke-miterlimit="10" stroke-width="0.5"/>
            <path id="Trazado_990667" data-name="Trazado 990667" d="M147.065,283.754a55.283,55.283,0,0,0-.951,28.745c.75,3.178,1.781,6.282,2.81,9.38,2.3,6.929,4.606,13.864,7.362,20.625q2.762,6.775,6.114,13.288" transform="translate(-87.638 -274.846)" fill="none" stroke="#000" stroke-miterlimit="10" stroke-width="0.5"/>
            <path id="Trazado_990668" data-name="Trazado 990668" d="M95.259,276.7a77.048,77.048,0,0,1,6.192,9.714l13.175,23.142" transform="translate(-91.177 -275.351)" fill="none" stroke="#000" stroke-miterlimit="10" stroke-width="0.5"/>
            <path id="Trazado_990669" data-name="Trazado 990669" d="M159.857,349.75c10.626-2.848,21.436-6.7,29.256-14.434" transform="translate(-86.549 -271.152)" fill="none" stroke="#000" stroke-miterlimit="10" stroke-width="0.5"/>
            <path id="Trazado_990670" data-name="Trazado 990670" d="M167.8,296.393a24.757,24.757,0,0,0,13.229,18.886" transform="translate(-85.98 -273.94)" fill="none" stroke="#000" stroke-miterlimit="10" stroke-width="0.5"/>
          </g>
          <path id="Trazado_990671" data-name="Trazado 990671" d="M93.489,236.452a3.947,3.947,0,1,0-3.947,3.947A3.947,3.947,0,0,0,93.489,236.452Z" transform="translate(-40.701 -138.759)" fill="#038c3e"/>
          <g id="Grupo_1154092" data-name="Grupo 1154092" transform="translate(15.766 37.32)">
            <path id="Trazado_990672" data-name="Trazado 990672" d="M174.692,258.3c-.458.468,19.444,32.308,17.789,42.32s-5.868,12.473-5.868,12.473-7.764-9.3-30.338-20.441c-20.543-10.142-27.312-9.607-27.312-9.607s-1.637-5.922,3.533-7.163a78.088,78.088,0,0,1-1.448-12.173c-2.9,1.417-31.882-4.376-49.864-19.061S56.583,223.342,60.307,219c-2.275-3.309-3.309-5.78,1.655-10.13s6.826-6.536,10.136-2.857c3.516-1.079,14.893,4.92,27.3,14.849s29.382,22.011,37.853,20.892c10.963-1.448,25.235-8.07,33.3-30.3s10.136-29.061,15.306-28.026c1.448-3.309,1.654-3.309,6.722-3.516s10.86-.207,10.24,7.654c1.448,1.448,8.067,2.722,4.757,15.737S201.582,230.788,174.692,258.3Z" transform="translate(-58.414 -179.852)" fill="#f2ab27"/>
            <path id="Trazado_990673" data-name="Trazado 990673" d="M133.14,275.825c1.655.251,29.706,6.24,39.365,12.652-1.511-7.654-5.855-18.617-5.855-18.617s-26.683-1.034-32.062,1.448A14.5,14.5,0,0,1,133.14,275.825Z" transform="translate(-53.06 -173.418)" fill="none" stroke="#000" stroke-miterlimit="10" stroke-width="0.5"/>
            <path id="Trazado_990674" data-name="Trazado 990674" d="M127.218,237.923s9.7,8.2,14.876,9.234c7.861-4.137,14.125-15.72,11.2-19.651S121.857,225.379,127.218,237.923Z" transform="translate(-53.533 -176.57)" fill="#f29500"/>
            <path id="Trazado_990675" data-name="Trazado 990675" d="M146.525,242.823a26.836,26.836,0,0,0,3.962,7.285,16.5,16.5,0,0,0,6.49,5.072" transform="translate(-52.101 -175.34)" fill="none" stroke="#000" stroke-miterlimit="10" stroke-width="0.5"/>
            <path id="Trazado_990676" data-name="Trazado 990676" d="M137.83,245.519a25.006,25.006,0,0,0,7.478,15.77" transform="translate(-52.724 -175.147)" fill="none" stroke="#000" stroke-miterlimit="10" stroke-width="0.5"/>
            <path id="Trazado_990677" data-name="Trazado 990677" d="M176.926,187.406a20.483,20.483,0,0,0,15.769,5.962,30.17,30.17,0,0,0,1.172-5.75,10.119,10.119,0,0,0-1.088-5.692" transform="translate(-49.923 -179.703)" fill="none" stroke="#000" stroke-miterlimit="10" stroke-width="0.5"/>
            <path id="Trazado_990678" data-name="Trazado 990678" d="M154.328,231.755a66.181,66.181,0,0,0,4.179,12.818,25.761,25.761,0,0,0,8.4,10.375" transform="translate(-51.542 -176.133)" fill="none" stroke="#000" stroke-miterlimit="10" stroke-width="0.5"/>
            <path id="Trazado_990679" data-name="Trazado 990679" d="M171.63,251.765c6.823-7.782,13.251-15.976,18.308-25.007s8.724-18.949,9.753-29.248" transform="translate(-50.303 -178.587)" fill="none" stroke="#000" stroke-miterlimit="10" stroke-width="0.5"/>
            <path id="Trazado_990680" data-name="Trazado 990680" d="M128.4,238.024a16.05,16.05,0,0,0,10.174,4.569.407.407,0,0,0-.479-.268" transform="translate(-53.4 -175.684)" fill="none" stroke="#000" stroke-miterlimit="10" stroke-width="0.5"/>
            <path id="Trazado_990681" data-name="Trazado 990681" d="M129.034,232.551a12.637,12.637,0,0,0,8.7,7.8" transform="translate(-53.354 -176.076)" fill="none" stroke="#000" stroke-miterlimit="10" stroke-width="0.5"/>
            <path id="Trazado_990682" data-name="Trazado 990682" d="M147.767,229a11.163,11.163,0,0,1-3.924,11.746" transform="translate(-52.293 -176.331)" fill="none" stroke="#000" stroke-miterlimit="10" stroke-width="0.5"/>
            <path id="Trazado_990683" data-name="Trazado 990683" d="M147.41,240.243a17.111,17.111,0,0,0,4.83-11.993c0-.274-.092-.634-.366-.642" transform="translate(-52.038 -176.43)" fill="none" stroke="#000" stroke-miterlimit="10" stroke-width="0.5"/>
            <path id="Trazado_990684" data-name="Trazado 990684" d="M126.776,244.5c-2.33,8.605-.673,17.726.994,26.484a3.708,3.708,0,0,0-3.3,3.109" transform="translate(-53.681 -175.22)" fill="none" stroke="#000" stroke-miterlimit="10" stroke-width="0.5"/>
            <path id="Trazado_990685" data-name="Trazado 990685" d="M152.34,283.1c10.408,3.469,19.43,10.076,28.263,16.583" transform="translate(-51.685 -172.454)" fill="none" stroke="#000" stroke-miterlimit="10" stroke-width="0.5"/>
            <path id="Trazado_990686" data-name="Trazado 990686" d="M61.8,216.36a23.791,23.791,0,0,0,6.124-3.64,16.312,16.312,0,0,0,4.4-6.063" transform="translate(-58.171 -177.931)" fill="none" stroke="#000" stroke-miterlimit="10" stroke-width="0.5"/>
            <path id="Trazado_990687" data-name="Trazado 990687" d="M183.466,223.685a3.947,3.947,0,1,0-3.947,3.947A3.947,3.947,0,0,0,183.466,223.685Z" transform="translate(-50.02 -176.994)" fill="#f29500"/>
          </g>
          <g id="Grupo_1154093" data-name="Grupo 1154093" transform="translate(0 32.849)">
            <path id="Trazado_990688" data-name="Trazado 990688" d="M57.43,207.664c.743-.216,5.171,6.232,5.171,6.232l8.274-8.081-4.137-6.169s5.172-15.306,2.689-16.754-3.93,6.826-3.93,6.826S61.919,174,59.468,175.858s1.043,12.68,1.043,12.68-6.182-11.646-8.251-9.991,4.114,12.943,4.114,12.943-5.769-11.5-7.838-9.841,4.735,13.15,4.735,13.15-7.424-12.737-9.286-10.668S49.776,209.889,57.43,207.664Z" transform="translate(-43.702 -175.678)" fill="#efb9ca"/>
            <path id="Trazado_990689" data-name="Trazado 990689" d="M60.295,188.432a16.321,16.321,0,0,0-3.51,11.371" transform="translate(-42.768 -174.766)" fill="none" stroke="#000" stroke-miterlimit="10" stroke-width="0.5"/>
            <path id="Trazado_990690" data-name="Trazado 990690" d="M64.9,198.862a31.063,31.063,0,0,0,3.588-15.236,1.916,1.916,0,0,0-.171-.891.681.681,0,0,0-.762-.362" transform="translate(-42.184 -175.202)" fill="none" stroke="#000" stroke-miterlimit="10" stroke-width="0.5"/>
            <path id="Trazado_990691" data-name="Trazado 990691" d="M58.545,175.725c.71-.231,1.365.47,1.732,1.122a23.439,23.439,0,0,1,2.053,5.948q.852,3.446,1.7,6.893" transform="translate(-42.639 -175.68)" fill="none" stroke="#000" stroke-miterlimit="10" stroke-width="0.5"/>
            <path id="Trazado_990692" data-name="Trazado 990692" d="M51.943,177.824c2.518.771,4,3.3,5.248,5.62l2.471,4.61" transform="translate(-43.112 -175.526)" fill="none" stroke="#000" stroke-miterlimit="10" stroke-width="0.5"/>
            <path id="Trazado_990693" data-name="Trazado 990693" d="M48.425,181.122c.961-.359,1.9.54,2.511,1.364a49.036,49.036,0,0,1,5.566,9.607" transform="translate(-43.364 -175.296)" fill="none" stroke="#000" stroke-miterlimit="10" stroke-width="0.5"/>
            <path id="Trazado_990694" data-name="Trazado 990694" d="M44.1,183.379a6.5,6.5,0,0,1,3.082,2.674q2.811,3.79,5.477,7.686" transform="translate(-43.673 -175.128)" fill="none" stroke="#000" stroke-miterlimit="10" stroke-width="0.5"/>
          </g>
          <path id="Trazado_990695" data-name="Trazado 990695" d="M59.444,212.654a14.932,14.932,0,0,0,3.443-2.644q3.255-3.064,6.4-6.241l-.451.359" transform="translate(-42.574 -140.818)" fill="none" stroke="#000" stroke-miterlimit="10" stroke-width="0.5"/>
          <g id="Grupo_1154094" data-name="Grupo 1154094" transform="translate(83.058 53.443)">
            <path id="Trazado_990696" data-name="Trazado 990696" d="M128.956,214.276s-5.155,1.9-6.262-1.127,2.352-2.78,2.352-2.78-3.459.1-3.736-2.979,3.183-2.456,3.183-2.456-2.937-.206-3.2-2.7,3.831-1.245,3.831-1.245-4.562-.595-3.843-3.688,21.2-1.709,22.721-.879c1.107-2.214,6.683-2.352,6.869,1.8s2.263,12.5.464,17.252-4.1,5.441-4.1,5.441l-.809-17.573S126.786,197.449,128.956,214.276Z" transform="translate(-121.207 -194.896)" fill="#f26d9e"/>
            <path id="Trazado_990697" data-name="Trazado 990697" d="M134.684,235.4a5.41,5.41,0,0,0,5.813,3.366,5.8,5.8,0,0,0,4.962-4.618l-2.087-12.622-8.688,1.106Z" transform="translate(-120.242 -192.989)" fill="#efb9ca"/>
            <path id="Trazado_990698" data-name="Trazado 990698" d="M126.644,208.284c.562,5.783.343,19.463,11.72,18.222s10.136-10.135,9.929-13.134,1.034-14.583-3.516-14.169S126.018,201.835,126.644,208.284Z" transform="translate(-120.819 -194.589)" fill="#efb9ca"/>
            <path id="Trazado_990699" data-name="Trazado 990699" d="M145.493,216.14s6.489,3.06,7.175-2.479-2-6.638-7.175-5.985Z" transform="translate(-119.467 -193.993)" fill="#efb9ca"/>
            <path id="Trazado_990700" data-name="Trazado 990700" d="M140.108,198.439s1.559,9.928,5.771,9.94c4.75.155,3.64-1.19,3.64-1.19s-2.07-9.166-3.64-9.442S140.108,198.439,140.108,198.439Z" transform="translate(-119.853 -194.696)" fill="#f26d9e"/>
            <path id="Trazado_990701" data-name="Trazado 990701" d="M134.607,209.1a13.8,13.8,0,0,1-1.4,7.765" transform="translate(-120.348 -193.879)" fill="none" stroke="#000" stroke-miterlimit="10" stroke-width="0.5"/>
            <path id="Trazado_990702" data-name="Trazado 990702" d="M136.72,207.28a2.589,2.589,0,0,1,3.7-.741" transform="translate(-120.096 -194.097)" fill="none" stroke="#000" stroke-miterlimit="10" stroke-width="0.5"/>
            <path id="Trazado_990703" data-name="Trazado 990703" d="M130.561,207.9a1.63,1.63,0,0,1,2.635-1.056" transform="translate(-120.537 -194.065)" fill="none" stroke="#000" stroke-miterlimit="10" stroke-width="0.5"/>
            <path id="Trazado_990704" data-name="Trazado 990704" d="M137.315,210.944c0-.655.271-1.185.605-1.185s.605.53.605,1.185-.271,1.185-.605,1.185S137.315,211.6,137.315,210.944Z" transform="translate(-120.053 -193.832)"/>
            <path id="Trazado_990705" data-name="Trazado 990705" d="M131.791,212.007c0-.655.271-1.185.605-1.185s.605.53.605,1.185-.271,1.185-.605,1.185S131.791,212.662,131.791,212.007Z" transform="translate(-120.449 -193.755)"/>
            <path id="Trazado_990706" data-name="Trazado 990706" d="M135.97,221.841a2.266,2.266,0,0,1-1.174-.767,1.3,1.3,0,0,1-.169-.259,1.656,1.656,0,0,1-.09-.214c-.689-2.044,3.331-2.7,4.189-4.009.7-1.062,1.073-2.7,2.258-3.331a1.8,1.8,0,0,1,2.213.305,4.128,4.128,0,0,1,1.185,2.439C144.857,220.126,139.482,222.892,135.97,221.841Z" transform="translate(-120.258 -193.599)"/>
            <path id="Trazado_990707" data-name="Trazado 990707" d="M143.2,213.565c0,4.709-4.686,7.938-8.4,7.509a1.3,1.3,0,0,1-.169-.259,1.657,1.657,0,0,1-.09-.214c-.689-2.044,3.331-2.7,4.189-4.009.7-1.062,1.073-2.7,2.258-3.331A1.8,1.8,0,0,1,143.2,213.565Z" transform="translate(-120.258 -193.599)" fill="#f2f4f4"/>
            <path id="Trazado_990708" data-name="Trazado 990708" d="M148.076,212.764a3.594,3.594,0,0,1,2.009-2.406" transform="translate(-119.282 -193.789)" fill="none" stroke="#000" stroke-miterlimit="10" stroke-width="0.5"/>
            <path id="Trazado_990709" data-name="Trazado 990709" d="M134.993,221.105c-.5-.035-.734-.7-.537-1.158a2.363,2.363,0,0,1,1.087-.987,8.914,8.914,0,0,0,3.257-2.628c.593-.925.865-2.108,1.752-2.756a2.247,2.247,0,0,1,2.322-.168" transform="translate(-120.263 -193.588)" fill="none" stroke="#000" stroke-miterlimit="10" stroke-width="0.5"/>
            <path id="Trazado_990710" data-name="Trazado 990710" d="M142.66,201.146a5.883,5.883,0,0,0,2.32,4.879" transform="translate(-119.671 -194.449)" fill="none" stroke="#000" stroke-miterlimit="10" stroke-width="0.5"/>
            <path id="Trazado_990711" data-name="Trazado 990711" d="M144.092,201.325a3.808,3.808,0,0,0,1.631,3.378" transform="translate(-119.568 -194.436)" fill="none" stroke="#000" stroke-miterlimit="10" stroke-width="0.5"/>
            <path id="Trazado_990712" data-name="Trazado 990712" d="M126.012,198.091a22.3,22.3,0,0,1,7.2-.014" transform="translate(-120.863 -194.689)" fill="none" stroke="#000" stroke-miterlimit="10" stroke-width="0.5"/>
            <path id="Trazado_990713" data-name="Trazado 990713" d="M126.635,199.572l2.546-.244a14.99,14.99,0,0,1,3.8-.041" transform="translate(-120.818 -194.59)" fill="none" stroke="#000" stroke-miterlimit="10" stroke-width="0.5"/>
            <path id="Trazado_990714" data-name="Trazado 990714" d="M125.758,201.7a23.728,23.728,0,0,1,5.577-1.028" transform="translate(-120.881 -194.482)" fill="none" stroke="#000" stroke-miterlimit="10" stroke-width="0.5"/>
            <path id="Trazado_990715" data-name="Trazado 990715" d="M145.565,196.9a4.8,4.8,0,0,1,2.059,2.807,14.2,14.2,0,0,1,.467,3.524l.077,1.6" transform="translate(-119.462 -194.753)" fill="none" stroke="#000" stroke-miterlimit="10" stroke-width="0.5"/>
            <path id="Trazado_990716" data-name="Trazado 990716" d="M134.684,225.2s12.036,1.741,13.127-9.133" transform="translate(-120.242 -193.379)" fill="none" stroke="#000" stroke-miterlimit="10" stroke-width="0.5"/>
          </g>
          <g id="Grupo_1154095" data-name="Grupo 1154095" transform="translate(135.181)">
            <path id="Trazado_990717" data-name="Trazado 990717" d="M181.572,186.145c.207-.62,0-9.308,0-9.308s-13.238-6.5-11.583-12.353,8.688,4.177,8.688,4.177-8.481-19.128-4.964-21.4,7.953,13.859,7.953,13.859-4.229-14.686-1.747-15.927,5.585,14.065,5.585,14.065-2.9-12.968,0-14.137,4.593,12.689,4.593,12.689-1.076-11.866,2.026-12.759,6.62,26.2,0,30.548a84.86,84.86,0,0,1-.207,11.79Z" transform="translate(-169.845 -145.027)" fill="#efb9ca"/>
            <path id="Trazado_990718" data-name="Trazado 990718" d="M181.965,170.457a17.229,17.229,0,0,1,8.864-10.693" transform="translate(-168.977 -143.971)" fill="none" stroke="#000" stroke-miterlimit="10" stroke-width="0.5"/>
            <path id="Trazado_990719" data-name="Trazado 990719" d="M173.817,147.12a3.214,3.214,0,0,0-1.313,2.44,8.942,8.942,0,0,0,.344,2.835,98.359,98.359,0,0,0,5.086,15.549" transform="translate(-169.656 -144.877)" fill="none" stroke="#000" stroke-miterlimit="10" stroke-width="0.5"/>
            <path id="Trazado_990720" data-name="Trazado 990720" d="M179.632,145.281c-1.2,1.242-.974,3.235-.665,4.935l1.868,10.292c.049.125.2-.073.171-.2" transform="translate(-169.21 -145.009)" fill="none" stroke="#000" stroke-miterlimit="10" stroke-width="0.5"/>
            <path id="Trazado_990721" data-name="Trazado 990721" d="M184.955,145.381a2.118,2.118,0,0,0-1.464,1.422,5.638,5.638,0,0,0-.2,2.111,38.576,38.576,0,0,0,1.4,8.868q-.1-.309-.2-.617" transform="translate(-168.883 -145.001)" fill="none" stroke="#000" stroke-miterlimit="10" stroke-width="0.5"/>
            <path id="Trazado_990722" data-name="Trazado 990722" d="M190.967,145.234c-1.631.794-2.089,2.874-2.244,4.68a45.322,45.322,0,0,0,.011,7.917" transform="translate(-168.505 -145.012)" fill="none" stroke="#000" stroke-miterlimit="10" stroke-width="0.5"/>
            <path id="Trazado_990723" data-name="Trazado 990723" d="M170.44,162.825a5.023,5.023,0,0,0,.859,4.151c2.2,3.565,5.878,5.929,9.577,7.891" transform="translate(-169.816 -143.752)" fill="none" stroke="#000" stroke-miterlimit="10" stroke-width="0.5"/>
          </g>
          <path id="Trazado_990724" data-name="Trazado 990724" d="M179.256,182.041a14.651,14.651,0,0,0,7.2,2.089l5.175.386" transform="translate(-33.99 -142.375)" fill="none" stroke="#000" stroke-miterlimit="10" stroke-width="0.5"/>
        </g>
        <g id="Grupo_1154099" data-name="Grupo 1154099" transform="translate(167.858 0)">
          <path id="Trazado_990725" data-name="Trazado 990725" d="M272.751,194.206c2.288,1.314,3.61,3.788,4.822,6.132,3.475,6.72,7.035,13.445,11.633,19.453a68.471,68.471,0,0,0,30.986,22.662c-11.073,10.816-26.592,15.636-41.707,18.977-14.885,3.29-30.466,5.487-45.292,1.936s-28.824-13.929-32.855-28.631a11.8,11.8,0,0,0,6.659-.527c2.639-1.017,4.811-2.942,6.92-4.828a103.936,103.936,0,0,0,11.567-11.491c3.8-4.657,6.755-9.936,10.363-14.742s8.06-9.253,13.7-11.321a16.926,16.926,0,0,1,12.286.136c1.628.7,3.228,2.586,5.04,2.407C269.095,194.149,270.429,192.873,272.751,194.206Z" transform="translate(-200.338 -116.105)" fill="#04bf55"/>
          <g id="Grupo_1154098" data-name="Grupo 1154098" transform="translate(0 74.634)">
            <g id="Grupo_1154097" data-name="Grupo 1154097" clip-path="url(#clip-path-3)">
              <path id="Trazado_990726" data-name="Trazado 990726" d="M264.406,222a81.512,81.512,0,0,0,19.087,35.648" transform="translate(-195.748 -188.499)" fill="none" stroke="#000" stroke-miterlimit="10" stroke-width="0.5"/>
              <path id="Trazado_990727" data-name="Trazado 990727" d="M266.391,221.5a74.329,74.329,0,0,0,22.931,35.639" transform="translate(-195.606 -188.535)" fill="none" stroke="#000" stroke-miterlimit="10" stroke-width="0.5"/>
              <path id="Trazado_990728" data-name="Trazado 990728" d="M267.886,221.163a71.838,71.838,0,0,0,26.7,34.934" transform="translate(-195.498 -188.56)" fill="none" stroke="#000" stroke-miterlimit="10" stroke-width="0.5"/>
              <path id="Trazado_990729" data-name="Trazado 990729" d="M269.135,220.443a76.229,76.229,0,0,0,27.578,32.4" transform="translate(-195.409 -188.611)" fill="none" stroke="#000" stroke-miterlimit="10" stroke-width="0.5"/>
              <path id="Trazado_990730" data-name="Trazado 990730" d="M270.27,219.605a88.992,88.992,0,0,0,21.813,25.775,24.866,24.866,0,0,0,8.43,4.9" transform="translate(-195.328 -188.671)" fill="none" stroke="#000" stroke-miterlimit="10" stroke-width="0.5"/>
              <path id="Trazado_990731" data-name="Trazado 990731" d="M271.9,218.965a117.123,117.123,0,0,0,18.488,19.658c4.962,4.183,10.487,8.048,16.85,9.322" transform="translate(-195.211 -188.717)" fill="none" stroke="#000" stroke-miterlimit="10" stroke-width="0.5"/>
              <path id="Trazado_990732" data-name="Trazado 990732" d="M272.96,218.249a174.434,174.434,0,0,0,20.7,18.909c5.623,4.362,11.822,8.5,18.886,9.368" transform="translate(-195.135 -188.768)" fill="none" stroke="#000" stroke-miterlimit="10" stroke-width="0.5"/>
              <path id="Trazado_990733" data-name="Trazado 990733" d="M274.7,217.2a136.952,136.952,0,0,0,26,20.829c3.943,2.436,8.212,4.729,12.844,4.881" transform="translate(-195.01 -188.843)" fill="none" stroke="#000" stroke-miterlimit="10" stroke-width="0.5"/>
              <path id="Trazado_990734" data-name="Trazado 990734" d="M262.077,223.135c4.009,12.816,8.259,26.065,17.257,36.032" transform="translate(-195.915 -188.418)" fill="none" stroke="#000" stroke-miterlimit="10" stroke-width="0.5"/>
              <path id="Trazado_990735" data-name="Trazado 990735" d="M199.686,236.067a23.65,23.65,0,0,0,7.794-.991c3.79-1.228,7.04-3.7,10.095-6.255a139.736,139.736,0,0,0,15.672-15.359" transform="translate(-200.385 -189.111)" fill="none" stroke="#000" stroke-miterlimit="10" stroke-width="0.5"/>
              <path id="Trazado_990736" data-name="Trazado 990736" d="M201.109,238.523a34.24,34.24,0,0,0,13.114-4.724,73.38,73.38,0,0,0,21.419-18.9c.1-.123-.241-.128-.215.027" transform="translate(-200.283 -189.015)" fill="none" stroke="#000" stroke-miterlimit="10" stroke-width="0.5"/>
              <path id="Trazado_990737" data-name="Trazado 990737" d="M202.442,242.169c1.432.644,3.095.079,4.54-.536A68.08,68.08,0,0,0,237,216.543" transform="translate(-200.187 -188.891)" fill="none" stroke="#000" stroke-miterlimit="10" stroke-width="0.5"/>
              <path id="Trazado_990738" data-name="Trazado 990738" d="M204.744,245.7a25.643,25.643,0,0,0,7.743-3.262,78.005,78.005,0,0,0,26.126-24.9" transform="translate(-200.022 -188.819)" fill="none" stroke="#000" stroke-miterlimit="10" stroke-width="0.5"/>
              <path id="Trazado_990739" data-name="Trazado 990739" d="M206.29,248.412a23.307,23.307,0,0,0,7.3-3.09,76.069,76.069,0,0,0,27.157-27.4" transform="translate(-199.912 -188.792)" fill="none" stroke="#000" stroke-miterlimit="10" stroke-width="0.5"/>
              <path id="Trazado_990740" data-name="Trazado 990740" d="M209.244,251.444a22.018,22.018,0,0,0,7.48-4.107,104.349,104.349,0,0,0,25.119-27.211" transform="translate(-199.7 -188.634)" fill="none" stroke="#000" stroke-miterlimit="10" stroke-width="0.5"/>
              <path id="Trazado_990741" data-name="Trazado 990741" d="M243.162,221.06a128.884,128.884,0,0,1-29.225,33.927" transform="translate(-199.364 -188.567)" fill="none" stroke="#000" stroke-miterlimit="10" stroke-width="0.5"/>
              <path id="Trazado_990742" data-name="Trazado 990742" d="M244.341,222.111a142.169,142.169,0,0,1-27.651,36.182c-.222.209-.537.433-.8.284s.114-.672.238-.393" transform="translate(-199.231 -188.492)" fill="none" stroke="#000" stroke-miterlimit="10" stroke-width="0.5"/>
              <path id="Trazado_990743" data-name="Trazado 990743" d="M245.012,221.868a42.1,42.1,0,0,1-6.235,14.6c-.05.075.069.176.146.13a.155.155,0,0,0,.009-.234" transform="translate(-197.585 -188.509)" fill="none" stroke="#000" stroke-miterlimit="10" stroke-width="0.5"/>
              <path id="Trazado_990744" data-name="Trazado 990744" d="M246.541,222.079a44.542,44.542,0,0,1-4.751,13.65" transform="translate(-197.368 -188.494)" fill="none" stroke="#000" stroke-miterlimit="10" stroke-width="0.5"/>
              <path id="Trazado_990745" data-name="Trazado 990745" d="M248.079,222.59a89.313,89.313,0,0,1-2.5,12.376" transform="translate(-197.097 -188.457)" fill="none" stroke="#000" stroke-miterlimit="10" stroke-width="0.5"/>
              <path id="Trazado_990746" data-name="Trazado 990746" d="M258.233,224.486c.11,4.511.322,9.33,2.968,12.984" transform="translate(-196.19 -188.322)" fill="none" stroke="#000" stroke-miterlimit="10" stroke-width="0.5"/>
              <path id="Trazado_990747" data-name="Trazado 990747" d="M260.139,223.971a31.8,31.8,0,0,0,2.135,10.484,8.077,8.077,0,0,0,2.508,3.782" transform="translate(-196.053 -188.358)" fill="none" stroke="#000" stroke-miterlimit="10" stroke-width="0.5"/>
            </g>
          </g>
          <path id="Trazado_990749" data-name="Trazado 990749" d="M253.647,223.261c-6.166.3-9.751-5.121-10.1-12.838s4.77-13.68,13.118-13.258,12.417,6.665,11.786,13.61S263.61,222.769,253.647,223.261Z" transform="translate(-197.243 -115.646)" fill="#f4a698"/>
          <path id="Trazado_990750" data-name="Trazado 990750" d="M319.929,451.53c.689,1.762,1.016,2.868.892,3.161-.767,1.784-7.226,1.592-8.864-3.557a8.744,8.744,0,0,1-.361-2.992c-5.364-3.873-30.217-24.854-35.873-37.8s-1.332-18.9-3.715-24.108-16.96-27.53-16.96-27.834-20.539-1.479-20.539-1.479-5.8,29.461-3.275,34.078,6.842,6.842,6.989,13.539c.124,5.7-1.8,30.939-2.552,39.126-.135,1.434-.226,2.337-.271,2.541-.305,1.344-7.588,6.4-6.842,2.981.237-1.085.429-2.1.587-2.981.316-1.874.451-3.116.451-3.116S215.752,409,212.782,388.76s-3.275-29.02-3.433-36.461,15.932-70.687,15.334-85.716-3.128-47.922-3.422-61.461-.892-48.216-.892-55.363c-3.726-2.529-15.628-16.226-14.137-18.756,1.355-2.327,8.627,4.641,9.812,5.792-1.073-1.152-7.136-7.758-5.645-9.654,1.536-1.954,7.644,5.635,8.4,6.595-.655-.892-5.623-7.758-4.234-9.282,1.355-1.5,6.842,5.861,7.758,7.125-.824-1.276-5.77-9.034-3.591-10.4,2.382-1.479,12.5,16.678,12.5,16.678s2.676-10.716,5.657-9.677-.892,16.666-4.167,21.126c.587,5.51,5.5,53.377,6.7,66.35s1.784,25.926,1.784,25.926,7.554-.192,9.654-2.7c1.75-2.1,1.2-12.206,1.2-12.206h10.162s-2.665,13.392-.9,15.153,11.857,3.432,11.857,3.432a271.541,271.541,0,0,1,15.956-36.427c6.109-11.721,14.837-26.773,21.2-37.545a13.766,13.766,0,0,0,6.108,4.11,15.575,15.575,0,0,0,5.319.993c-14.5,29.765-43.225,89.364-48.555,101.49C266.2,293.82,287.93,372.545,293.44,390.1,298.181,405.222,315.729,440.656,319.929,451.53Z" transform="translate(-199.925 -121.095)" fill="#f4a698"/>
          <path id="Trazado_990751" data-name="Trazado 990751" d="M242.434,232.172c0,.447-.595,10.566-.595,10.566s19.049-.744,27.681,4.167a115.413,115.413,0,0,1,2.015-11.757l.8.3s1.8,29.466,4.175,48.069,8.185,43.9,13.691,55.212,7.589,19.049,5.506,19.049-3.423-4.316-3.423-4.316,1.391,5.522-1.785,5.8-2.679-4.316-2.679-4.316-2.53,5.085-5.506,4.328-4.464-5.965-4.464-5.965-2.232,4.464-4.911,4.911-2.828-5.357-2.828-5.357-.893,6.131-3.87,6.489-4.018-4.851-4.018-4.851-1.34,5.72-6.548,4.87-5.06-4.274-5.06-4.274-1.489,6.846-5.06,6.1-1.934-4.613-1.934-4.613-1.785,4.316-7.887,3.721-4.613-4.464-4.613-4.464-1.042,5.769-5.953,5.414-4.316-5.712-4.316-5.712-.149,5.5-4.167,5.727-3.721-5.132-3.721-5.132-6.251,8.939-11.608,5.139c.149-8.561,1.636-37.135,7.44-59.458s32.637-70.214,32.637-70.214Z" transform="translate(-200.265 -113.177)" fill="#81daff"/>
          <path id="Trazado_990752" data-name="Trazado 990752" d="M230.8,258.1s.3,5.655,5.208,5.8a6.877,6.877,0,0,0,6.548-4.316" transform="translate(-198.155 -111.279)" fill="none" stroke="#000" stroke-miterlimit="10" stroke-width="0.5"/>
          <path id="Trazado_990753" data-name="Trazado 990753" d="M254.548,261.435a5.015,5.015,0,0,0,4.464,5.357c4.911.893,6.995-5.357,6.995-5.357" transform="translate(-196.455 -111.04)" fill="none" stroke="#000" stroke-miterlimit="10" stroke-width="0.5"/>
          <path id="Trazado_990754" data-name="Trazado 990754" d="M242.72,232.94a2.825,2.825,0,0,1,2.83.448c1.406,1.317-.025,3.432,1.062,4.92a.874.874,0,0,0,.4.329,1.335,1.335,0,0,0,1.19-.389,10.028,10.028,0,0,1,1.67-1.035,1.991,1.991,0,0,1,.984-.266,1.576,1.576,0,0,1,.889.379,4.424,4.424,0,0,1,1.07,1.6,3.072,3.072,0,0,0,1.283,1.485,1.675,1.675,0,0,0,2-.245c.246-.385.065-.853.021-1.288a.849.849,0,0,1,.752-1,1.37,1.37,0,0,1,.547.123c.964.391,2,1.118,2.951.747a1.308,1.308,0,0,0,.738-1.511,11.907,11.907,0,0,1-.4-1.72,1.262,1.262,0,0,1,1.15-1.283" transform="translate(-197.301 -113.096)" fill="none" stroke="#000" stroke-miterlimit="10" stroke-width="0.5"/>
          <path id="Trazado_990755" data-name="Trazado 990755" d="M255.923,203.8a36.2,36.2,0,0,0-.159,6.7" transform="translate(-196.373 -115.169)" fill="none" stroke="#000" stroke-miterlimit="10" stroke-width="0.5"/>
          <path id="Trazado_990756" data-name="Trazado 990756" d="M251.644,211.428a3.844,3.844,0,0,0,3.909,1.931,9.651,9.651,0,0,0,4.236-1.82" transform="translate(-196.662 -114.623)" fill="none" stroke="#000" stroke-miterlimit="10" stroke-width="0.5"/>
          <path id="Trazado_990757" data-name="Trazado 990757" d="M258.167,201.542a4.15,4.15,0,0,1,3.69.614" transform="translate(-196.195 -115.345)" fill="none" stroke="#000" stroke-miterlimit="10" stroke-width="0.5"/>
          <path id="Trazado_990758" data-name="Trazado 990758" d="M248.912,202.165a1.9,1.9,0,0,1,1.736-.82,5.592,5.592,0,0,1,1.928.558" transform="translate(-196.858 -115.345)" fill="none" stroke="#000" stroke-miterlimit="10" stroke-width="0.5"/>
          <path id="Trazado_990759" data-name="Trazado 990759" d="M247.667,207a3.589,3.589,0,0,1,5.1-.459" transform="translate(-196.947 -115.035)" fill="none" stroke="#000" stroke-miterlimit="10" stroke-width="0.5"/>
          <path id="Trazado_990760" data-name="Trazado 990760" d="M257.77,206.683a3.618,3.618,0,0,1,5.154-.152" transform="translate(-196.223 -115.046)" fill="none" stroke="#000" stroke-miterlimit="10" stroke-width="0.5"/>
          <path id="Trazado_990761" data-name="Trazado 990761" d="M266.553,207.783c.565.361,1.435.605,1.8.047a1.377,1.377,0,0,0,.171-.623,13.546,13.546,0,0,0-.409-6.285,5.411,5.411,0,0,0-4.695-3.7c-2.181,0-1.275,3.741-.895,5.06A9.76,9.76,0,0,0,266.553,207.783Z" transform="translate(-195.919 -115.641)" fill="#04bf55"/>
          <path id="Trazado_990762" data-name="Trazado 990762" d="M268.565,216.078a5.192,5.192,0,0,0,3.563-2.618,4.017,4.017,0,0,0-.4-4.677,5.727,5.727,0,0,0-2-1.131,4.686,4.686,0,0,0-3.021-.413,1.032,1.032,0,0,0-.553.348,1.28,1.28,0,0,0-.174.445c-.439,1.777-1.214,4.52-.991,6.329C265.187,215.981,266.937,216.371,268.565,216.078Z" transform="translate(-195.709 -114.931)" fill="#f4a698"/>
          <path id="Trazado_990763" data-name="Trazado 990763" d="M267.627,212.59a4.242,4.242,0,0,1,2.776-2.482" transform="translate(-195.517 -114.717)" fill="none" stroke="#000" stroke-miterlimit="10" stroke-width="0.5"/>
          <path id="Trazado_990764" data-name="Trazado 990764" d="M239.916,211.761a6.825,6.825,0,0,1-.034-3.933A1.16,1.16,0,0,1,241,206.777a10.929,10.929,0,0,1,3.235-.173.837.837,0,0,1,.376.1.859.859,0,0,1,.293.632c.221,1.511,1.041,5.962-.4,6.978C242.815,215.5,240.413,213.168,239.916,211.761Z" transform="translate(-197.524 -114.972)" fill="#f4a698"/>
          <path id="Trazado_990765" data-name="Trazado 990765" d="M241.081,209.759a3.462,3.462,0,0,1,2.22,1.808" transform="translate(-197.419 -114.742)" fill="none" stroke="#000" stroke-miterlimit="10" stroke-width="0.5"/>
          <circle id="Elipse_11574" data-name="Elipse 11574" cx="3.646" cy="3.646" r="3.646" transform="translate(79.673 259.629)" fill="#ed897c"/>
          <circle id="Elipse_11575" data-name="Elipse 11575" cx="3.646" cy="3.646" r="3.646" transform="translate(14.537 263.275)" fill="#ed897c"/>
          <circle id="Elipse_11576" data-name="Elipse 11576" cx="3.646" cy="3.646" r="3.646" transform="translate(25.353 89.127)" fill="#ed897c"/>
          <path id="Trazado_990766" data-name="Trazado 990766" d="M299.648,197.239A3.646,3.646,0,1,1,296,193.593,3.646,3.646,0,0,1,299.648,197.239Z" transform="translate(-193.745 -115.901)" fill="#ed897c"/>
          <path id="Trazado_990767" data-name="Trazado 990767" d="M233.132,158.283a1.742,1.742,0,0,1,.237.011c1.028.079,1.739.4,1.964.938.328.779-.384,1.909-1.8,3.094a23.5,23.5,0,0,1-6.018,3.489,21.337,21.337,0,0,1-7.7,1.874c-1.3-.011-2.2-.328-2.473-.96-.339-.813.44-2,1.965-3.241a4.587,4.587,0,0,1,.44-.35" transform="translate(-199.125 -118.431)" fill="none" stroke="#000" stroke-miterlimit="10" stroke-width="0.5"/>
          <path id="Trazado_990768" data-name="Trazado 990768" d="M232.7,154.374c.237,0,.463.011.667.022,1.028.079,1.739.4,1.964.937.339.813-.44,2-1.964,3.241a1.781,1.781,0,0,1-.226.181,25.251,25.251,0,0,1-5.623,3.173,21.52,21.52,0,0,1-7.758,1.864c-.159,0-.305-.011-.451-.023-1.028-.079-1.739-.4-1.965-.937-.339-.813.44-2,1.965-3.241.124-.1.249-.2.384-.305" transform="translate(-199.125 -118.711)" fill="none" stroke="#000" stroke-miterlimit="10" stroke-width="0.5"/>
          <path id="Trazado_990769" data-name="Trazado 990769" d="M232.273,150.508c1.626-.09,2.755.214,3.06.937.339.813-.44,2-1.964,3.23a5.4,5.4,0,0,1-.622.475v.011a25.368,25.368,0,0,1-5.229,2.868,21.45,21.45,0,0,1-7.814,1.864c-.135,0-.271-.012-.4-.022-1.038-.079-1.739-.373-1.965-.926-.361-.869.553-2.18,2.3-3.5" transform="translate(-199.125 -118.989)" fill="none" stroke="#000" stroke-miterlimit="10" stroke-width="0.5"/>
          <path id="Trazado_990770" data-name="Trazado 990770" d="M322.946,158.751c-.441.8-2.213,4.381-4.9,9.858-.5,1.016-1.028,2.1-1.581,3.241A15.688,15.688,0,0,1,311,170.844a14.279,14.279,0,0,1-5.792-3.715c.575-.971,1.118-1.9,1.637-2.755,2.823-4.731,4.641-7.713,4.641-7.713s-7.136-11.608-5.058-14.431,5.8,5.352,5.8,5.352,0-14.431,3.128-14.883c2.914-.406,2.337,9.124,2.247,10.423.147-1.276,1.22-10.434,3.85-10.434,2.676.011.971,8.616.767,9.6.271-.9,2.62-8.48,4.438-7.644,1.524.7-.147,5.861-.948,8.074.892-2.225,3.128-7.385,4.528-7.034C332.025,136.122,329.5,154.437,322.946,158.751Z" transform="translate(-192.824 -120.265)" fill="#f4a698"/>
          <path id="Trazado_990771" data-name="Trazado 990771" d="M319.958,171c-.575,1.558-2.541,2.394-5.1,2.4a15.575,15.575,0,0,1-5.319-.993,13.783,13.783,0,0,1-6.108-4.11,3.942,3.942,0,0,1-.948-3.693,3.127,3.127,0,0,1,1.682-1.717,6.187,6.187,0,0,0,1.254,2.078,14.28,14.28,0,0,0,5.792,3.715,15.688,15.688,0,0,0,5.465,1.005,7.719,7.719,0,0,0,3.275-.689A3.043,3.043,0,0,1,319.958,171Z" transform="translate(-193.031 -118.101)" fill="#f25c05"/>
          <path id="Trazado_990772" data-name="Trazado 990772" d="M304.038,162.932a7.221,7.221,0,0,1,2.89-.677c-.52.858-1.061,1.784-1.637,2.755A6.173,6.173,0,0,1,304.038,162.932Z" transform="translate(-192.908 -118.146)" fill="#ef1c00"/>
          <path id="Trazado_990773" data-name="Trazado 990773" d="M318.987,168.759a7.735,7.735,0,0,1-3.275.689c.553-1.14,1.085-2.225,1.581-3.241A6.61,6.61,0,0,1,318.987,168.759Z" transform="translate(-192.072 -117.863)" fill="#ef1c00"/>
          <path id="Trazado_990774" data-name="Trazado 990774" d="M313.745,432.63c-.767,1.784-7.226,1.592-8.864-3.557a7.174,7.174,0,0,1,.971-.067c1.208.011,2.372.451,3.579.553,1.118.09,2.292-.135,3.422-.09C313.541,431.231,313.869,432.337,313.745,432.63Z" transform="translate(-192.848 -99.034)" fill="#f25c05"/>
          <path id="Trazado_990775" data-name="Trazado 990775" d="M234.172,422.094c-.135,1.434-.226,2.337-.271,2.541-.305,1.344-7.588,6.4-6.842,2.981.237-1.085.429-2.1.587-2.981a3.654,3.654,0,0,0,1.344.373,6.436,6.436,0,0,0,3.579-1.7C233.111,422.907,233.642,422.489,234.172,422.094Z" transform="translate(-198.427 -99.529)" fill="#f25c05"/>
          <path id="Trazado_990776" data-name="Trazado 990776" d="M314.538,146.738c.492-.312,1.136-.017,1.616.313a11.537,11.537,0,0,1,4.5,6.2" transform="translate(-192.156 -119.267)" fill="none" stroke="#000" stroke-miterlimit="10" stroke-width="0.5"/>
          <path id="Trazado_990777" data-name="Trazado 990777" d="M306.634,141.226c-.747,1.872-.23,4,.447,5.894a37.393,37.393,0,0,0,4.3,8.467" transform="translate(-192.748 -119.653)" fill="none" stroke="#000" stroke-miterlimit="10" stroke-width="0.5"/>
          <path id="Trazado_990778" data-name="Trazado 990778" d="M315.1,132.583c1.106,1.237,1.3,3.015,1.446,4.668q.257,2.946.513,5.893a.417.417,0,0,0-.139-.522" transform="translate(-192.115 -120.272)" fill="none" stroke="#000" stroke-miterlimit="10" stroke-width="0.5"/>
          <path id="Trazado_990779" data-name="Trazado 990779" d="M320.959,132.783c1.087,1.672.827,3.847.528,5.819q-.317,2.09-.634,4.182" transform="translate(-191.703 -120.258)" fill="none" stroke="#000" stroke-miterlimit="10" stroke-width="0.5"/>
          <path id="Trazado_990780" data-name="Trazado 990780" d="M325.756,134.5a25.666,25.666,0,0,1-1.418,8.485" transform="translate(-191.454 -120.135)" fill="none" stroke="#000" stroke-miterlimit="10" stroke-width="0.5"/>
          <path id="Trazado_990781" data-name="Trazado 990781" d="M329.346,135.522a65.922,65.922,0,0,1-1.711,12.3,22.088,22.088,0,0,1-6.056,10.671" transform="translate(-191.651 -120.061)" fill="none" stroke="#000" stroke-miterlimit="10" stroke-width="0.5"/>
          <path id="Trazado_990782" data-name="Trazado 990782" d="M272.2,246.889a33.316,33.316,0,0,1,1.077-7.006" transform="translate(-195.189 -112.584)" fill="none" stroke="#000" stroke-miterlimit="10" stroke-width="0.5"/>
          <path id="Trazado_990783" data-name="Trazado 990783" d="M206.443,130.357c1.295-.469,2.716.168,3.886.9a23.055,23.055,0,0,1,5.637,4.941" transform="translate(-199.901 -120.443)" fill="none" stroke="#000" stroke-miterlimit="10" stroke-width="0.5"/>
          <path id="Trazado_990784" data-name="Trazado 990784" d="M210.591,126.394c1.375-.093,2.578.867,3.572,1.822a39.3,39.3,0,0,1,4.4,5.008" transform="translate(-199.603 -120.716)" fill="none" stroke="#000" stroke-miterlimit="10" stroke-width="0.5"/>
          <path id="Trazado_990785" data-name="Trazado 990785" d="M214.651,124.021a24.565,24.565,0,0,1,6.677,7.391" transform="translate(-199.313 -120.885)" fill="none" stroke="#000" stroke-miterlimit="10" stroke-width="0.5"/>
          <path id="Trazado_990786" data-name="Trazado 990786" d="M217.861,121.167c1.714.295,3,1.7,4.058,3.075a93.507,93.507,0,0,1,7.895,12.91" transform="translate(-199.083 -121.09)" fill="none" stroke="#000" stroke-miterlimit="10" stroke-width="0.5"/>
          <path id="Trazado_990787" data-name="Trazado 990787" d="M223.879,132.761a23.25,23.25,0,0,0,.076,11.627c.032.119.085.257.2.283s.208-.2.086-.21" transform="translate(-198.702 -120.259)" fill="none" stroke="#000" stroke-miterlimit="10" stroke-width="0.5"/>
          <path id="Trazado_990788" data-name="Trazado 990788" d="M231.007,149.081a53.943,53.943,0,0,0,5.348-18.533c.11-1.091.041-2.454-.949-2.925" transform="translate(-198.141 -120.627)" fill="none" stroke="#000" stroke-miterlimit="10" stroke-width="0.5"/>
          <path id="Trazado_990789" data-name="Trazado 990789" d="M250.621,221.769s11.607.864,15.869-6.9" transform="translate(-196.735 -114.377)" fill="none" stroke="#000" stroke-miterlimit="10" stroke-width="0.5"/>
          <path id="Trazado_990790" data-name="Trazado 990790" d="M233.586,241.964a83.734,83.734,0,0,1,33.945,3.6,7.636,7.636,0,0,1,3.195,1.657" transform="translate(-197.956 -112.465)" fill="none" stroke="#000" stroke-miterlimit="10" stroke-width="0.5"/>
          <path id="Trazado_990791" data-name="Trazado 990791" d="M220.894,266.96a113.768,113.768,0,0,0,53.186,7.575" transform="translate(-198.865 -110.644)" fill="none" stroke="#000" stroke-miterlimit="10" stroke-width="0.5"/>
          <path id="Trazado_990792" data-name="Trazado 990792" d="M219.5,268.882a119.612,119.612,0,0,0,54.5,8.55" transform="translate(-198.965 -110.507)" fill="none" stroke="#000" stroke-miterlimit="10" stroke-width="0.5"/>
          <path id="Trazado_990793" data-name="Trazado 990793" d="M219,270.316c.336-.066-.281-.514-.371-.183s.284.587.6.724A114.751,114.751,0,0,0,275.163,280" transform="translate(-199.028 -110.426)" fill="none" stroke="#000" stroke-miterlimit="10" stroke-width="0.5"/>
          <path id="Trazado_990794" data-name="Trazado 990794" d="M212.568,356.075c-.848-7.277-.1-14.633.656-21.92a259.457,259.457,0,0,1,3.847-27.578,129.819,129.819,0,0,1,10.362-29.972" transform="translate(-199.489 -109.953)" fill="none" stroke="#000" stroke-miterlimit="10" stroke-width="0.5"/>
          <path id="Trazado_990795" data-name="Trazado 990795" d="M219.522,354.67a181.139,181.139,0,0,1,14.515-76.731" transform="translate(-198.97 -109.858)" fill="none" stroke="#000" stroke-miterlimit="10" stroke-width="0.5"/>
          <path id="Trazado_990796" data-name="Trazado 990796" d="M228.827,353.851a186.345,186.345,0,0,1,10.232-74.568" transform="translate(-198.327 -109.761)" fill="none" stroke="#000" stroke-miterlimit="10" stroke-width="0.5"/>
          <path id="Trazado_990797" data-name="Trazado 990797" d="M240.49,354.238a477.339,477.339,0,0,0,6.256-72.406" transform="translate(-197.461 -109.579)" fill="none" stroke="#000" stroke-miterlimit="10" stroke-width="0.5"/>
          <path id="Trazado_990798" data-name="Trazado 990798" d="M246.943,352.135a32.618,32.618,0,0,0,1.749-9.485c1.585-19.935,1.679-39.955,1.772-59.952" transform="translate(-196.999 -109.517)" fill="none" stroke="#000" stroke-miterlimit="10" stroke-width="0.5"/>
          <path id="Trazado_990799" data-name="Trazado 990799" d="M257.971,351.8c.8-7.593.5-15.254.2-22.882q-.926-23.281-1.852-46.562" transform="translate(-196.327 -109.541)" fill="none" stroke="#000" stroke-miterlimit="10" stroke-width="0.5"/>
          <path id="Trazado_990800" data-name="Trazado 990800" d="M265.4,350.169c.652-5.529-.1-11.114-.764-16.641q-3-24.8-3.931-49.8" transform="translate(-196.013 -109.443)" fill="none" stroke="#000" stroke-miterlimit="10" stroke-width="0.5"/>
          <path id="Trazado_990801" data-name="Trazado 990801" d="M273.491,350.732a527.149,527.149,0,0,1-8.762-67.34" transform="translate(-195.725 -109.467)" fill="none" stroke="#000" stroke-miterlimit="10" stroke-width="0.5"/>
          <path id="Trazado_990802" data-name="Trazado 990802" d="M268.385,284.571a217.948,217.948,0,0,0,7.476,40.966c2.5,8.808,5.552,17.469,7.488,26.417" transform="translate(-195.463 -109.382)" fill="none" stroke="#000" stroke-miterlimit="10" stroke-width="0.5"/>
          <path id="Trazado_990803" data-name="Trazado 990803" d="M270.429,284.243A212.834,212.834,0,0,0,288.286,352" transform="translate(-195.316 -109.406)" fill="none" stroke="#000" stroke-miterlimit="10" stroke-width="0.5"/>
          <path id="Trazado_990804" data-name="Trazado 990804" d="M263.967,197.307a5.811,5.811,0,0,0,.444,4.34,8,8,0,0,0,4.187,4.584" transform="translate(-195.798 -115.635)" fill="none" stroke="#000" stroke-miterlimit="10" stroke-width="0.5"/>
          <path id="Trazado_990805" data-name="Trazado 990805" d="M265.068,196.479a15.734,15.734,0,0,0,1.25,5.085,6.522,6.522,0,0,0,3.73,3.5" transform="translate(-195.7 -115.694)" fill="none" stroke="#000" stroke-miterlimit="10" stroke-width="0.5"/>
          <path id="Trazado_990806" data-name="Trazado 990806" d="M266.848,196.617a3.469,3.469,0,0,0,.507,2.62c.84,1.7,1.921,3.6,3.783,3.981" transform="translate(-195.581 -115.684)" fill="none" stroke="#000" stroke-miterlimit="10" stroke-width="0.5"/>
          <path id="Trazado_990807" data-name="Trazado 990807" d="M242.53,204.468a12.937,12.937,0,0,1,10.835-8.818" transform="translate(-197.315 -115.753)" fill="none" stroke="#000" stroke-miterlimit="10" stroke-width="0.5"/>
          <path id="Trazado_990808" data-name="Trazado 990808" d="M240.246,203.663a26.212,26.212,0,0,1,4.457-5.8,14.138,14.138,0,0,1,6.315-3.572,11.415,11.415,0,0,1,2.425-.308" transform="translate(-197.479 -115.873)" fill="none" stroke="#000" stroke-miterlimit="10" stroke-width="0.5"/>
          <path id="Trazado_990809" data-name="Trazado 990809" d="M238.554,201.084a25.739,25.739,0,0,1,7-6.66,12.448,12.448,0,0,1,9.322-1.658" transform="translate(-197.6 -115.983)" fill="none" stroke="#000" stroke-miterlimit="10" stroke-width="0.5"/>
          <path id="Trazado_990810" data-name="Trazado 990810" d="M305.273,429.636a8.745,8.745,0,0,0,5.052,4.036c.858.257,1.965.3,2.464-.45" transform="translate(-192.82 -98.989)" fill="none" stroke="#000" stroke-miterlimit="10" stroke-width="0.5"/>
          <path id="Trazado_990811" data-name="Trazado 990811" d="M227.7,428.772a17.758,17.758,0,0,0,5.844-4.267" transform="translate(-198.378 -99.357)" fill="none" stroke="#000" stroke-miterlimit="10" stroke-width="0.5"/>
        </g>
        <g id="Grupo_1154106" data-name="Grupo 1154106" transform="translate(289.106 33.411)">
          <path id="Trazado_990812" data-name="Trazado 990812" d="M347.432,243.177c2.643-5.211,7.716-8.913,10.173-14.214,1.863-4.021,2.32-9.051,5.861-11.716,2.544-1.916,6.066-2.05,8.715-3.817,4.527-3.019,5.107-9.68,9.169-13.3,2.75-2.451,6.64-3.1,10.316-3.346,3.779-.253,7.891-.088,10.865,2.255,2.386,1.88,3.629,4.865,4.322,7.823a30.154,30.154,0,0,1,.485,11.146c-.572,3.974-1.935,8.047-.815,11.9,1.086,3.742,4.324,6.518,5.648,10.182,2.4,6.651-2.062,14.005-.888,20.98.51,3.033,2.055,6.238.723,9.01-1.3,2.713-4.735,3.566-7.742,3.73a73.268,73.268,0,0,1-14.073-1.045c-7.861-1.1-15.762-2.2-23.349-4.526a53.5,53.5,0,0,1-17.147-8.516c-2.767-2.141-3.865-3.532-4.128-7.105A18.06,18.06,0,0,1,347.432,243.177Z" transform="translate(-311.184 -149.09)" fill="#f26d9e"/>
          <g id="Grupo_1154101" data-name="Grupo 1154101" transform="translate(17.307)">
            <g id="Grupo_1154100" data-name="Grupo 1154100">
              <path id="Trazado_990813" data-name="Trazado 990813" d="M386.831,232.512c-.648,1.239.177,7.079-2.3,9.557S361.17,240.6,353.56,217.618s-8.672-36.961-8.672-36.961,13.1-9.025,11.326-11.5-7.256,2.124-7.256,2.124,7.61-18.759,4.6-18.937-7.61,12.211-7.61,12.211,3.716-12.215,1.062-12.214-5.664,11.505-5.664,11.505,2.654-10.087,0-10.619-4.425,10.441-4.425,10.441,2.3-12.393-1.239-11.328-10.087,20.354-2.654,24.955c-.885,7.079.177,29.732,7.963,48.315s24.423,35.042,24.423,35.042-10.973,27.431-12.211,40.174c17.7.354,43.36-10.264,43.36-10.264l7.079-25.131s20,5.309,39.289-10.8,35.926-40.382,35.926-40.382,3.716,1.8,8.141-5.986,7.256-17.52,5.132-17.7-7.61,9.631-7.61,9.631,5.487-11.577,2.831-12.285-6.726,9.38-6.726,9.38,4.955-10.619,2.3-11.326-6.371,8.495-6.371,8.495,3.54-10.8.354-10.973-6.548,14.689-6.548,14.689-2.831-9.2-6.017-7.079,4.425,14.817,4.425,14.817-13.1,24.826-33.271,35.8-38.616,9.2-43.736.354c.67-6.951,0-9.2,0-9.2Z" transform="translate(-329.629 -152.273)" fill="#efb9ca"/>
              <path id="Trazado_990814" data-name="Trazado 990814" d="M346.539,189.641a3.781,3.781,0,0,1,.914.429,2.748,2.748,0,0,1,1.016,1.118c.553,1.13.237,2.541-.734,3.952v.012a13.522,13.522,0,0,1-5.16,4.189c-3.026,1.479-6.086,1.874-8.085,1.209a3.163,3.163,0,0,1-1.964-1.558,3.491,3.491,0,0,1,.249-3.139,7.764,7.764,0,0,1,.813-1.276" transform="translate(-329.44 -149.595)" fill="none" stroke="#000" stroke-miterlimit="10" stroke-width="0.5"/>
              <path id="Trazado_990815" data-name="Trazado 990815" d="M345.779,185.647a4.037,4.037,0,0,1,.948.429,2.817,2.817,0,0,1,1.028,1.13,3.515,3.515,0,0,1-.249,3.151,7.644,7.644,0,0,1-.62,1.005,13.788,13.788,0,0,1-5.025,4c-2.97,1.446-5.985,1.852-7.983,1.242a4.052,4.052,0,0,1-1.05-.463,2.824,2.824,0,0,1-1.028-1.13,3.491,3.491,0,0,1,.249-3.139,7.489,7.489,0,0,1,1.1-1.6" transform="translate(-329.492 -149.881)" fill="none" stroke="#000" stroke-miterlimit="10" stroke-width="0.5"/>
              <path id="Trazado_990816" data-name="Trazado 990816" d="M345.163,181.706a3.085,3.085,0,0,1,1.874,1.513,3.5,3.5,0,0,1-.259,3.139,7.625,7.625,0,0,1-.677,1.073,11.351,11.351,0,0,1-2.574,2.5,16.279,16.279,0,0,1-2.394,1.434,14.827,14.827,0,0,1-4.991,1.479,8.26,8.26,0,0,1-2.745-.159,4.7,4.7,0,0,1-1.3-.53,2.779,2.779,0,0,1-1.016-1.13c-.712-1.456.034-3.41,1.75-5.206" transform="translate(-329.543 -150.164)" fill="none" stroke="#000" stroke-miterlimit="10" stroke-width="0.5"/>
              <circle id="Elipse_11577" data-name="Elipse 11577" cx="2.448" cy="2.448" r="2.448" transform="translate(15.393 73.78)" fill="#f26d9e"/>
              <circle id="Elipse_11578" data-name="Elipse 11578" cx="2.448" cy="2.448" r="2.448" transform="translate(112.495 89.378)" fill="#f26d9e"/>
            </g>
            <path id="Trazado_990817" data-name="Trazado 990817" d="M336.7,173.254a9.893,9.893,0,0,1,7.369-6.1" transform="translate(-329.122 -151.207)" fill="none" stroke="#000" stroke-miterlimit="10" stroke-width="0.5"/>
            <path id="Trazado_990818" data-name="Trazado 990818" d="M465.659,195.328a5.562,5.562,0,0,1,3.618,2.884,16.437,16.437,0,0,1,1.483,4.522" transform="translate(-319.882 -149.188)" fill="none" stroke="#000" stroke-miterlimit="10" stroke-width="0.5"/>
            <path id="Trazado_990819" data-name="Trazado 990819" d="M457.5,188.27a17.463,17.463,0,0,1,3.935,6.817" transform="translate(-320.467 -149.693)" fill="none" stroke="#000" stroke-miterlimit="10" stroke-width="0.5"/>
            <path id="Trazado_990820" data-name="Trazado 990820" d="M467.716,181.712c.714.158.809,1.128.723,1.854a41.944,41.944,0,0,1-1.539,7.294" transform="translate(-319.793 -150.163)" fill="none" stroke="#000" stroke-miterlimit="10" stroke-width="0.5"/>
            <path id="Trazado_990821" data-name="Trazado 990821" d="M472.794,183.691a14.8,14.8,0,0,1-1.915,9.134" transform="translate(-319.508 -150.021)" fill="none" stroke="#000" stroke-miterlimit="10" stroke-width="0.5"/>
            <path id="Trazado_990822" data-name="Trazado 990822" d="M477.06,186a15.656,15.656,0,0,1-2.023,10.114" transform="translate(-319.21 -149.856)" fill="none" stroke="#000" stroke-miterlimit="10" stroke-width="0.5"/>
            <path id="Trazado_990823" data-name="Trazado 990823" d="M482.342,188.184c1.492,1.123.894,3.455.152,5.17l-4.4,10.179a18.124,18.124,0,0,1-3.232,5.552,6.152,6.152,0,0,1-5.823,1.989" transform="translate(-319.64 -149.7)" fill="none" stroke="#000" stroke-miterlimit="10" stroke-width="0.5"/>
          </g>
          <g id="Grupo_1154102" data-name="Grupo 1154102" transform="translate(97.762 215.632)">
            <path id="Trazado_990824" data-name="Trazado 990824" d="M414.44,379.967c.485,2.608-5.375-1.626-8.8-6.018a6.209,6.209,0,0,1-.938-3.862c.067-6.346,4.55-16.519,4.686-16.6l10.907,3.85-7.656,17.1s.429.96.881,2.27A22.878,22.878,0,0,1,414.44,379.967Z" transform="translate(-404.705 -353.488)" fill="#efb9ca"/>
            <path id="Trazado_990825" data-name="Trazado 990825" d="M405.644,372.839a6.209,6.209,0,0,1-.938-3.862c1.321,1.107,2.28,3.206,3.206,4.156a7.686,7.686,0,0,0,5.612,2.462,22.884,22.884,0,0,1,.914,3.263C414.925,381.466,409.066,377.232,405.644,372.839Z" transform="translate(-404.705 -352.378)" fill="#f24b4b"/>
          </g>
          <g id="Grupo_1154103" data-name="Grupo 1154103" transform="translate(0.24 253.516)">
            <path id="Trazado_990826" data-name="Trazado 990826" d="M321.852,412.5a20.36,20.36,0,0,1,.418,2.721c.158,2.28-6.188-3.907-8.231-6.516a3.975,3.975,0,0,1-.2-2.8c.914-5.578,6.21-16.666,6.481-17.062,0,0,9.609,3.579,9.609,5.533s-8.639,15.966-8.639,15.966S321.582,411.265,321.852,412.5Z" transform="translate(-313.703 -388.839)" fill="#efb9ca"/>
            <path id="Trazado_990827" data-name="Trazado 990827" d="M322.27,414.077c.158,2.28-6.188-3.907-8.231-6.516a3.975,3.975,0,0,1-.2-2.8c1.1.938,1.491,2.766,2.45,3.885a7.222,7.222,0,0,0,4.031,2.529c.508.09,1.028.124,1.536.181A20.3,20.3,0,0,1,322.27,414.077Z" transform="translate(-313.703 -387.698)" fill="#f24b4b"/>
          </g>
          <path id="Trazado_990828" data-name="Trazado 990828" d="M386.065,231.326c4.835,1.209,11.681-2.654,12.92-12.388s-1.062-13.4-6.46-15.108-15.662,1.428-15.132,12.6S381.11,230.088,386.065,231.326Z" transform="translate(-308.901 -148.61)" fill="#efb9ca"/>
          <path id="Trazado_990829" data-name="Trazado 990829" d="M380.534,222.87s-9.2,3.893-9.911-2.831,9.025-4.451,9.025-4.451Z" transform="translate(-309.387 -147.763)" fill="#efb9ca"/>
          <g id="Grupo_1154104" data-name="Grupo 1154104" transform="translate(0 135.1)">
            <path id="Trazado_990830" data-name="Trazado 990830" d="M436.661,368.6c-12.748-1.062-29.731-11.5-29.731-11.5s24.424-48.5,21.589-51.152-40.176,8.141-45.664,17.525-12.206,28.319-22.47,45.122-23.543,37.353-23.543,37.353-15.391,3.715-23.363-13.99c5.838-13.617,23.712-39.815,26.547-47.956,1.942-5.578,7.046-30.3,10.061-45.291,1.377-6.877,2.325-11.7,2.325-11.7l13.788-2.507,26.649-4.833,7.35-1.332v3.546a124.953,124.953,0,0,1,13.008-1.954c11.5-1.129,27.9-1.23,37.613,5.488C466.923,296.576,460.193,329.661,436.661,368.6Z" transform="translate(-313.479 -278.34)" fill="#99d82b"/>
            <path id="Trazado_990831" data-name="Trazado 990831" d="M363.752,284.093a16.952,16.952,0,0,1-16.113,14.2c1.377-6.877,2.326-11.7,2.326-11.7Z" transform="translate(-311.032 -277.928)" fill="#038c3e"/>
            <path id="Trazado_990832" data-name="Trazado 990832" d="M407.9,279.931a10.59,10.59,0,0,1-20.359-.259l7.35-1.332v3.546A124.413,124.413,0,0,1,407.9,279.931Z" transform="translate(-308.173 -278.34)" fill="#038c3e"/>
            <path id="Trazado_990833" data-name="Trazado 990833" d="M357.779,347.309a3.908,3.908,0,1,0-3.908,3.908A3.909,3.909,0,0,0,357.779,347.309Z" transform="translate(-310.865 -273.679)" fill="#038c3e"/>
            <path id="Trazado_990834" data-name="Trazado 990834" d="M444.7,296.453a3.908,3.908,0,1,0-3.908,3.908A3.909,3.909,0,0,0,444.7,296.453Z" transform="translate(-304.637 -277.322)" fill="#038c3e"/>
          </g>
          <path id="Trazado_990835" data-name="Trazado 990835" d="M386.455,206.052c.285-1.13.389-2.5-.47-3.288-.837-.764-2.157-.572-3.225-.191a13.03,13.03,0,0,0-7.662,7.481c-1.437,3.734,1.069,8.574,5.106,5.565A17.435,17.435,0,0,0,386.455,206.052Z" transform="translate(-309.094 -148.693)" fill="#f26d9e"/>
          <path id="Trazado_990836" data-name="Trazado 990836" d="M389.907,214.711a9.164,9.164,0,0,0-.314,5.607" transform="translate(-308.047 -147.799)" fill="none" stroke="#000" stroke-miterlimit="10" stroke-width="0.5"/>
          <path id="Trazado_990837" data-name="Trazado 990837" d="M391.906,212.917a2.787,2.787,0,0,1,3.139.345" transform="translate(-307.86 -147.951)" fill="none" stroke="#000" stroke-miterlimit="10" stroke-width="0.5"/>
          <path id="Trazado_990838" data-name="Trazado 990838" d="M384.2,212.035a3.287,3.287,0,0,1,4.579.781" transform="translate(-308.412 -148.034)" fill="none" stroke="#000" stroke-miterlimit="10" stroke-width="0.5"/>
          <path id="Trazado_990839" data-name="Trazado 990839" d="M384.947,220.329a5.851,5.851,0,0,0,.887,3.049,2.615,2.615,0,0,0,2.793,1.113" transform="translate(-308.359 -147.396)" fill="none" stroke="#000" stroke-miterlimit="10" stroke-width="0.5"/>
          <path id="Trazado_990840" data-name="Trazado 990840" d="M374.033,218.966a3.389,3.389,0,0,1,2.7,2.2" transform="translate(-309.14 -147.494)" fill="none" stroke="#000" stroke-miterlimit="10" stroke-width="0.5"/>
          <path id="Trazado_990841" data-name="Trazado 990841" d="M386.1,216.605c0-.655.271-1.185.605-1.185s.606.53.606,1.185-.271,1.185-.606,1.185S386.1,217.26,386.1,216.605Z" transform="translate(-308.276 -147.748)"/>
          <path id="Trazado_990842" data-name="Trazado 990842" d="M391.906,217.406c0-.655.271-1.185.605-1.185s.605.53.605,1.185-.271,1.185-.605,1.185S391.906,218.061,391.906,217.406Z" transform="translate(-307.86 -147.691)"/>
          <path id="Trazado_990843" data-name="Trazado 990843" d="M315.417,394.79c5.737-11.945,11.492-23.925,18.637-35.085a81.375,81.375,0,0,0,6.548-11.188,61.936,61.936,0,0,0,3.233-10.785q5.753-24.845,9.465-50.1" transform="translate(-313.34 -142.575)" fill="none" stroke="#000" stroke-miterlimit="10" stroke-width="0.5"/>
          <path id="Trazado_990844" data-name="Trazado 990844" d="M315.072,379.71c-.1.2-.3-.253-.079-.283s.365.227.444.438a22.2,22.2,0,0,0,24.184,14.226" transform="translate(-313.378 -135.998)" fill="none" stroke="#000" stroke-miterlimit="10" stroke-width="0.5"/>
          <path id="Trazado_990845" data-name="Trazado 990845" d="M378.829,314.62c12.254-7.918,27.166-16.95,41.754-17.279,2.4-.054,4.967.14,6.86,1.612a8.032,8.032,0,0,1,2.7,6.624,23.033,23.033,0,0,1-1.782,7.174c-5.761,15.621-12.312,31.064-21.4,45.012" transform="translate(-308.797 -141.879)" fill="none" stroke="#000" stroke-miterlimit="10" stroke-width="0.5"/>
          <path id="Trazado_990846" data-name="Trazado 990846" d="M401.848,347.891c3.9,3.437,9.113,4.9,14.132,6.263l16.5,4.481c.265.072.632.094.727-.163s-.519-.185-.294-.029" transform="translate(-307.148 -138.257)" fill="none" stroke="#000" stroke-miterlimit="10" stroke-width="0.5"/>
          <path id="Trazado_990847" data-name="Trazado 990847" d="M379.863,281.115c2.21,5.913,2.135,12.4,2.031,18.711-.149,9.084-3,23.449-13.114,44.684" transform="translate(-309.517 -143.041)" fill="none" stroke="#000" stroke-miterlimit="10" stroke-width="0.5"/>
          <g id="Grupo_1154105" data-name="Grupo 1154105" transform="translate(43.893 88.912)">
            <path id="Trazado_990848" data-name="Trazado 990848" d="M354.437,275.944s36.988,6.017,43.714,3.363c1.062-4.955,7.256-37.7,7.256-37.7h-3.54s-4.248,21.768-17.875,18.405-4.976-24.776-4.976-24.776h-3.166s-4.425,20.353-14.159,21.414C359.392,261.077,354.437,275.944,354.437,275.944Z" transform="translate(-354.437 -235.24)" fill="#ff2dea"/>
            <path id="Trazado_990849" data-name="Trazado 990849" d="M368.233,261.141a5.025,5.025,0,0,0,8.512-1.094" transform="translate(-353.449 -233.463)" fill="none" stroke="#000" stroke-miterlimit="10" stroke-width="0.5"/>
            <path id="Trazado_990850" data-name="Trazado 990850" d="M385.17,264a4.658,4.658,0,0,0,7.731-1.616" transform="translate(-352.235 -233.295)" fill="none" stroke="#000" stroke-miterlimit="10" stroke-width="0.5"/>
          </g>
          <path id="Trazado_990851" data-name="Trazado 990851" d="M379.952,235.415a4.768,4.768,0,0,0,8.7,1.033" transform="translate(-308.716 -146.316)" fill="none" stroke="#000" stroke-miterlimit="10" stroke-width="0.5"/>
          <path id="Trazado_990852" data-name="Trazado 990852" d="M377.774,237.35a8.292,8.292,0,0,0,14.866,2.813" transform="translate(-308.872 -146.177)" fill="none" stroke="#000" stroke-miterlimit="10" stroke-width="0.5"/>
          <path id="Trazado_990853" data-name="Trazado 990853" d="M336.263,152.343a14.454,14.454,0,0,1,.533,8.939" transform="translate(-311.847 -152.267)" fill="none" stroke="#000" stroke-miterlimit="10" stroke-width="0.5"/>
          <path id="Trazado_990854" data-name="Trazado 990854" d="M341.049,153.074a15.6,15.6,0,0,1-.2,9.15" transform="translate(-311.518 -152.215)" fill="none" stroke="#000" stroke-miterlimit="10" stroke-width="0.5"/>
          <path id="Trazado_990855" data-name="Trazado 990855" d="M346.124,152.748a20,20,0,0,1-1.281,9.863" transform="translate(-311.232 -152.238)" fill="none" stroke="#000" stroke-miterlimit="10" stroke-width="0.5"/>
          <path id="Trazado_990856" data-name="Trazado 990856" d="M351.755,152.473c1.147.975.8,2.795.359,4.233q-2.231,7.232-4.461,14.464" transform="translate(-311.031 -152.258)" fill="none" stroke="#000" stroke-miterlimit="10" stroke-width="0.5"/>
          <path id="Trazado_990857" data-name="Trazado 990857" d="M354.485,167.565c.4,2.6-1.73,4.826-3.677,6.59l-6.271,5.682" transform="translate(-311.254 -151.177)" fill="none" stroke="#000" stroke-miterlimit="10" stroke-width="0.5"/>
          <path id="Trazado_990858" data-name="Trazado 990858" d="M378.5,222.833c2.4,6.986,7.151,7.806,10.937,7.316" transform="translate(-308.82 -147.217)" fill="none" stroke="#000" stroke-miterlimit="10" stroke-width="0.5"/>
          <path id="Trazado_990859" data-name="Trazado 990859" d="M398.14,228.435a9.419,9.419,0,0,0,2.964,8.79" transform="translate(-307.426 -146.816)" fill="none" stroke="#000" stroke-miterlimit="10" stroke-width="0.5"/>
          <path id="Trazado_990860" data-name="Trazado 990860" d="M394.96,231.09a7.075,7.075,0,0,0,3.48,7.089" transform="translate(-307.646 -146.625)" fill="none" stroke="#000" stroke-miterlimit="10" stroke-width="0.5"/>
          <path id="Trazado_990861" data-name="Trazado 990861" d="M361.9,224.579a9.67,9.67,0,0,1,4.34-6.365" transform="translate(-310.01 -147.548)" fill="none" stroke="#000" stroke-miterlimit="10" stroke-width="0.5"/>
          <path id="Trazado_990862" data-name="Trazado 990862" d="M364.7,226.146a5.912,5.912,0,0,1,3.89-5.109" transform="translate(-309.809 -147.346)" fill="none" stroke="#000" stroke-miterlimit="10" stroke-width="0.5"/>
          <path id="Trazado_990863" data-name="Trazado 990863" d="M378.5,211.47a10.345,10.345,0,0,0,4.252-6.373" transform="translate(-308.82 -148.488)" fill="none" stroke="#000" stroke-miterlimit="10" stroke-width="0.5"/>
          <path id="Trazado_990864" data-name="Trazado 990864" d="M378.487,208.413a26.316,26.316,0,0,0,3.136-5.31" transform="translate(-308.821 -148.631)" fill="none" stroke="#000" stroke-miterlimit="10" stroke-width="0.5"/>
          <path id="Trazado_990865" data-name="Trazado 990865" d="M350.558,247.223a3.96,3.96,0,0,0,.645,4.609" transform="translate(-310.856 -145.47)" fill="none" stroke="#000" stroke-miterlimit="10" stroke-width="0.5"/>
          <path id="Trazado_990866" data-name="Trazado 990866" d="M353.117,248.2a7.551,7.551,0,0,0,2.212,5.925" transform="translate(-310.641 -145.4)" fill="none" stroke="#000" stroke-miterlimit="10" stroke-width="0.5"/>
          <path id="Trazado_990867" data-name="Trazado 990867" d="M313.676,406.347a17.007,17.007,0,0,0,8.959,8.456" transform="translate(-313.465 -134.069)" fill="none" stroke="#000" stroke-miterlimit="10" stroke-width="0.5"/>
          <path id="Trazado_990868" data-name="Trazado 990868" d="M404.865,371.813a20.389,20.389,0,0,0,5.379,5.824,9.208,9.208,0,0,0,4.638,1.966" transform="translate(-306.931 -136.543)" fill="none" stroke="#000" stroke-miterlimit="10" stroke-width="0.5"/>
        </g>
      </g>
      <g id="Grupo_1154037" data-name="Grupo 1154037" transform="translate(0 69.053)">
        <path id="Trazado_990405" data-name="Trazado 990405" d="M35.918,59.13h0A13.294,13.294,0,0,0,22.624,45.835h0A13.294,13.294,0,0,0,35.918,32.541h0A13.294,13.294,0,0,0,49.213,45.835h0A13.294,13.294,0,0,0,35.918,59.13Z" transform="translate(51.695 -12.817)" fill="#81daff"/>
        <path id="Trazado_990406" data-name="Trazado 990406" d="M28.744,487.39h0A13.294,13.294,0,0,0,15.45,474.1h0A13.294,13.294,0,0,0,28.744,460.8h0A13.294,13.294,0,0,0,42.039,474.1h0A13.294,13.294,0,0,0,28.744,487.39Z" transform="translate(-15.45 -155.179)" fill="#81daff"/>
        <path id="Trazado_990407" data-name="Trazado 990407" d="M450.412,126.192h0A13.294,13.294,0,0,0,437.118,112.9h0A13.294,13.294,0,0,0,450.412,99.6h0A13.294,13.294,0,0,0,463.707,112.9h0A13.294,13.294,0,0,0,450.412,126.192Z" transform="translate(-17.001 -79.878)" fill="#81daff"/>
        <path id="Trazado_990408" data-name="Trazado 990408" d="M461.741,148.829h0a13.294,13.294,0,0,0-13.294-13.294h0a13.294,13.294,0,0,0,13.294-13.294h0a13.294,13.294,0,0,0,13.294,13.294h0A13.294,13.294,0,0,0,461.741,148.829Z" transform="translate(5.542 -102.515)" fill="#81daff"/>
        <path id="Trazado_990409" data-name="Trazado 990409" d="M462.519,482.687h0a13.294,13.294,0,0,0-13.294-13.294h0A13.294,13.294,0,0,0,462.519,456.1h0a13.294,13.294,0,0,0,13.294,13.294h0A13.294,13.294,0,0,0,462.519,482.687Z" transform="translate(27.051 -155.64)" fill="#81daff"/>
        <path id="Trazado_990410" data-name="Trazado 990410" d="M48.025,382.1h0A13.294,13.294,0,0,0,34.731,368.8h0A13.294,13.294,0,0,0,48.025,355.51h0A13.294,13.294,0,0,0,61.32,368.8h0A13.294,13.294,0,0,0,48.025,382.1Z" transform="translate(-13.561 -165.495)" fill="#81daff"/>
        <path id="Trazado_990411" data-name="Trazado 990411" d="M55.184,47.022h0A13.294,13.294,0,0,0,41.89,33.727h0A13.294,13.294,0,0,0,55.184,20.433h0A13.294,13.294,0,0,0,68.479,33.727h0A13.294,13.294,0,0,0,55.184,47.022Z" transform="translate(5.869 -20.433)" fill="#81daff"/>
      </g>
      <g id="Grupo_1154039" data-name="Grupo 1154039" transform="translate(258.587 28.331)">
        <path id="Trazado_990412" data-name="Trazado 990412" d="M342.034,60.228H242.25s8.531-8.63,15.39-10.857a10.166,10.166,0,0,1,2.356-.5,7.8,7.8,0,0,1,7.819,4.286,9.935,9.935,0,0,1,.911,2.227,10.34,10.34,0,0,1,.089-1.92c.3-2.356,1.475-6.2,5.869-7.5,6.512-1.94,11.362,6.235,11.362,6.235s18.023-25.921,28.969-24.4c8.521,1.188,10.075,17.954,10.343,25.307.079,2.088.049,3.415.049,3.415A19.834,19.834,0,0,1,334,52.884C339.4,51.914,342.034,60.228,342.034,60.228Z" transform="translate(-242.25 -27.73)" fill="#ffc2e9"/>
        <path id="Trazado_990413" data-name="Trazado 990413" d="M459.471,73.062H355.54a19.13,19.13,0,0,1,4.9-6.681,19.8,19.8,0,0,1,5.632-3.573c7.7-3.246,15.539,2.742,15.925,3.038-.059-.218-.95-3.523,3.335-5.533,4.434-2.078,8.175,3.187,8.175,3.187s13.025-30.771,31.6-27.02a14.144,14.144,0,0,1,10.58,8.363c4.424,9.551.92,23.506.92,23.506s3.88-2.633,10.946-3.464S459.471,73.062,459.471,73.062Z" transform="translate(-243.414 -27.816)" fill="#ffc2e9"/>
        <g id="Grupo_1154038" data-name="Grupo 1154038" transform="translate(0 17.029)" opacity="0.25">
          <path id="Trazado_990414" data-name="Trazado 990414" d="M459.471,73.152H355.54a19.13,19.13,0,0,1,4.9-6.681c8.383.327,16.756,1.475,25.119,2.118,5.879-.148,11.718-.515,17.4-.95a87.627,87.627,0,0,0,13.3-1.989,33.647,33.647,0,0,0,11.1-6.958,44.3,44.3,0,0,0,6.888-11.669,5.414,5.414,0,0,1,1.435-2.088c4.424,9.551.92,23.506.92,23.506s3.88-2.633,10.946-3.464S459.471,73.152,459.471,73.152Z" transform="translate(-243.414 -44.935)" fill="#e58cd4"/>
          <path id="Trazado_990415" data-name="Trazado 990415" d="M342.034,60.452H242.25s8.531-8.63,15.39-10.857c3.345,1.425,6.74,2.7,10.174,3.781.327.109.663.208,1,.307a75.314,75.314,0,0,0,25.555,3.454,238.464,238.464,0,0,0,30.988-3.81c.079,2.088.049,3.415.049,3.415A19.834,19.834,0,0,1,334,53.109C339.4,52.139,342.034,60.452,342.034,60.452Z" transform="translate(-242.25 -44.983)" fill="#e58cd4"/>
        </g>
      </g>
    </g>
  </g>
</svg>
