<svg xmlns="http://www.w3.org/2000/svg" xmlns:xlink="http://www.w3.org/1999/xlink" width="108" height="108" viewBox="0 0 108 108">
  <defs>
    <filter id="Trazado_982547" x="0" y="0" width="108" height="108" filterUnits="userSpaceOnUse">
      <feOffset dy="3" input="SourceAlpha"/>
      <feGaussianBlur stdDeviation="3" result="blur"/>
      <feFlood flood-opacity="0.161"/>
      <feComposite operator="in" in2="blur"/>
      <feComposite in="SourceGraphic"/>
    </filter>
  </defs>
  <g id="Grupo_1154123" data-name="Grupo 1154123" transform="translate(-205 -5354)">
    <g id="Grupo_1153179" data-name="Grupo 1153179" transform="translate(214 5360)">
      <g id="Grupo_1149598" data-name="Grupo 1149598">
        <g id="Grupo_1148770" data-name="Grupo 1148770">
          <g id="Grupo_1146954" data-name="Grupo 1146954">
            <g transform="matrix(1, 0, 0, 1, -9, -6)" filter="url(#Trazado_982547)">
              <g id="Trazado_982547-2" data-name="Trazado 982547" transform="translate(9 6)" fill="#fef6e8">
                <path d="M 45 88.5 C 39.12687683105469 88.5 33.43022537231445 87.35007476806641 28.06830024719238 85.08217620849609 C 22.88852500915527 82.89131164550781 18.23629951477051 79.75458526611328 14.2408504486084 75.75914764404297 C 10.24541282653809 71.76370239257812 7.108687400817871 67.11147308349609 4.917825222015381 61.93170166015625 C 2.649924993515015 56.56977462768555 1.5 50.87312316894531 1.5 45 C 1.5 39.12687683105469 2.649924993515015 33.43022537231445 4.917825222015381 28.06830024719238 C 7.108687400817871 22.88852500915527 10.24541282653809 18.23629951477051 14.2408504486084 14.2408504486084 C 18.23629951477051 10.24541282653809 22.88852500915527 7.108687400817871 28.06830024719238 4.917825222015381 C 33.43022537231445 2.649924993515015 39.12687683105469 1.5 45 1.5 C 50.87312316894531 1.5 56.56977462768555 2.649924993515015 61.93170166015625 4.917825222015381 C 67.11147308349609 7.108687400817871 71.76370239257812 10.24541282653809 75.75914764404297 14.2408504486084 C 79.75458526611328 18.23629951477051 82.89131164550781 22.88852500915527 85.08217620849609 28.06830024719238 C 87.35007476806641 33.43022537231445 88.5 39.12687683105469 88.5 45 C 88.5 50.87312316894531 87.35007476806641 56.56977462768555 85.08217620849609 61.93170166015625 C 82.89131164550781 67.11147308349609 79.75458526611328 71.76370239257812 75.75914764404297 75.75914764404297 C 71.76370239257812 79.75458526611328 67.11147308349609 82.89131164550781 61.93170166015625 85.08217620849609 C 56.56977462768555 87.35007476806641 50.87312316894531 88.5 45 88.5 Z" stroke="none"/>
                <path d="M 45 3 C 39.32871246337891 3 33.82865524291992 4.110054016113281 28.65262985229492 6.299339294433594 C 23.65165710449219 8.414573669433594 19.15968322753906 11.44334411621094 15.301513671875 15.301513671875 C 11.44334411621094 19.15968322753906 8.414573669433594 23.65165710449219 6.299339294433594 28.65262985229492 C 4.110054016113281 33.82865524291992 3 39.32871246337891 3 45 C 3 50.67128753662109 4.110054016113281 56.17134475708008 6.299339294433594 61.34737396240234 C 8.414573669433594 66.34834289550781 11.44334411621094 70.84031677246094 15.301513671875 74.698486328125 C 19.15968322753906 78.55665588378906 23.65165710449219 81.58542633056641 28.65262985229492 83.70066070556641 C 33.82865524291992 85.88994598388672 39.32871246337891 87 45 87 C 50.67128753662109 87 56.17134475708008 85.88994598388672 61.34737396240234 83.70066070556641 C 66.34834289550781 81.58542633056641 70.84031677246094 78.55665588378906 74.698486328125 74.698486328125 C 78.55665588378906 70.84031677246094 81.58542633056641 66.34834289550781 83.70066070556641 61.34737396240234 C 85.88994598388672 56.17134475708008 87 50.67128753662109 87 45 C 87 39.32871246337891 85.88994598388672 33.82865524291992 83.70066070556641 28.65262985229492 C 81.58542633056641 23.65165710449219 78.55665588378906 19.15968322753906 74.698486328125 15.301513671875 C 70.84031677246094 11.44334411621094 66.34834289550781 8.414573669433594 61.34737396240234 6.299339294433594 C 56.17134475708008 4.110054016113281 50.67128753662109 3 45 3 M 45 0 C 69.85281372070312 0 90 20.14718627929688 90 45 C 90 69.85281372070312 69.85281372070312 90 45 90 C 20.14718627929688 90 0 69.85281372070312 0 45 C 0 20.14718627929688 20.14718627929688 0 45 0 Z" stroke="none" fill="#fdaf2f"/>
              </g>
            </g>
          </g>
        </g>
      </g>
    </g>
    <g id="rompecabezas" transform="translate(226.923 5373)">
      <path id="Trazado_990869" data-name="Trazado 990869" d="M217.061,442.422h-12.8v5.135A2.548,2.548,0,0,0,206.8,450.1h7.709a2.548,2.548,0,0,0,2.548-2.548Z" transform="translate(-178.929 -387.707)" fill="#d8ecfe"/>
      <path id="Trazado_990870" data-name="Trazado 990870" d="M210.512,450.1H206.8a2.548,2.548,0,0,1-2.548-2.548v-5.136h3.71v5.136A2.548,2.548,0,0,0,210.512,450.1Z" transform="translate(-178.926 -387.703)" fill="#b3dafe"/>
      <path id="Trazado_990871" data-name="Trazado 990871" d="M195.655,415.1H180.289a1.921,1.921,0,1,1,0-3.841h15.366a1.921,1.921,0,1,1,0,3.841Z" transform="translate(-156.241 -360.398)" fill="#eaf6ff"/>
      <path id="Trazado_990872" data-name="Trazado 990872" d="M184,415.1h-3.71a1.921,1.921,0,1,1,0-3.841H184a1.921,1.921,0,1,0,0,3.841Z" transform="translate(-156.238 -360.397)" fill="#d8ecfe"/>
      <path id="Trazado_990873" data-name="Trazado 990873" d="M123.122,234.562a3.2,3.2,0,0,1-3.2,3.2v9.315h-6.4V245.2a3.181,3.181,0,0,0-1.809-2.878,19.21,19.21,0,0,1-11-17.366v-.022h6.4v.021a3.2,3.2,0,1,0,6.4,0v-.021h6.4v6.423a3.2,3.2,0,0,1,3.2,3.2Z" transform="translate(-88.191 -197.12)" fill="#aee69c"/>
      <path id="Trazado_990874" data-name="Trazado 990874" d="M115.992,245.2v1.875h-2.473V245.2a3.181,3.181,0,0,0-1.809-2.878,19.21,19.21,0,0,1-11-17.366v-.022h2.473v.022a19.21,19.21,0,0,0,11,17.366A3.181,3.181,0,0,1,115.992,245.2Z" transform="translate(-88.191 -197.12)" fill="#89daa4"/>
      <path id="Trazado_990875" data-name="Trazado 990875" d="M275.231,202.4v.021a19.208,19.208,0,0,1-10.988,17.363,3.186,3.186,0,0,0-1.817,2.882v2.783h-6.4V215.225a3.2,3.2,0,0,0,0-6.4V202.4h6.4a3.2,3.2,0,0,1,6.4,0Z" transform="translate(-224.294 -174.58)" fill="#8ac9fe"/>
      <path id="Trazado_990876" data-name="Trazado 990876" d="M252.552,88.984h-6.4a3.2,3.2,0,0,0-6.4,0h-6.4V82.6a3.2,3.2,0,0,1,0-6.4V69.8A19.207,19.207,0,0,1,252.552,88.984Z" transform="translate(-201.614 -61.166)" fill="#ffe177"/>
      <path id="Trazado_990877" data-name="Trazado 990877" d="M116.721,79.4a3.2,3.2,0,0,0,3.2,3.2v6.381h-6.4v.021a3.2,3.2,0,1,1-6.4,0v-.021h-6.4A19.171,19.171,0,0,1,119.921,69.8v6.4A3.2,3.2,0,0,0,116.721,79.4Z" transform="translate(-88.191 -61.166)" fill="#fe646f"/>
      <path id="Trazado_990878" data-name="Trazado 990878" d="M119.921,69.8v.157a19.167,19.167,0,0,0-16.734,19.029h-2.473A19.171,19.171,0,0,1,119.921,69.8Z" transform="translate(-88.191 -61.166)" fill="#fd4755"/>
      <g id="Grupo_1154122" data-name="Grupo 1154122" transform="translate(0.077)">
        <path id="Trazado_990879" data-name="Trazado 990879" d="M130.465,71.881a.928.928,0,0,0-1.579.973,18.215,18.215,0,0,1,2.679,8.628h-4.63a4.129,4.129,0,0,0-8.037,0H114.24V76.028a.927.927,0,0,0-.928-.928,2.273,2.273,0,0,1,0-4.547.927.927,0,0,0,.928-.928V64.173a18.111,18.111,0,0,1,12.274,5.611.928.928,0,0,0,1.339-1.283A19.966,19.966,0,0,0,113.326,62.3H113.3a20.138,20.138,0,0,0-13.265,4.977.928.928,0,0,0,1.222,1.4,18.27,18.27,0,0,1,11.128-4.494V68.8a4.129,4.129,0,0,0,0,8.047v4.632h-5.475a.927.927,0,0,0-.928.928v.022a2.274,2.274,0,0,1-4.548,0v-.022a.927.927,0,0,0-.928-.928h-5.45A18.121,18.121,0,0,1,98.644,71.5a.928.928,0,0,0-1.487-1.109A20,20,0,0,0,93.178,82.41c-.185,7.65,4.7,14.99,11.526,18.226a2.261,2.261,0,0,1,1.279,2.04v1.849c-1.9,0-3.2,1.02-3.2,2.848s1.257,2.85,3.2,2.848v4.221a3.593,3.593,0,0,0,3.475,3.475h7.71a3.593,3.593,0,0,0,3.475-3.475v-4.221c2.172,0,3.2-1.153,3.2-2.848,0-1.768-1.112-2.848-3.2-2.848v-1.849a2.268,2.268,0,0,1,1.287-2.043,20.471,20.471,0,0,0,11.518-18.224,20.087,20.087,0,0,0-2.982-10.528ZM105.5,98.959a18.381,18.381,0,0,1-10.44-15.623H99.68a4.13,4.13,0,0,0,8.058,0h4.647v5.5a.927.927,0,0,0,.928.928,2.273,2.273,0,1,1,0,4.547.927.927,0,0,0-.928.928v9.289h-4.547v-1.849a4.124,4.124,0,0,0-2.34-3.716Zm11.67,17.1h-7.71a1.7,1.7,0,0,1-1.62-1.979h10.95C118.79,115.072,118.476,116.062,117.168,116.062Zm3.828-7.7h-5.733a.927.927,0,0,0-.928.928s0,0,0,.006,0,0,0,.006a.927.927,0,0,0,.928.928h3.526v1.995h-10.95v-1.995h3.382a.927.927,0,0,0,.928-.928s0,0,0-.006,0,0,0-.006a.927.927,0,0,0-.928-.928h-5.59a1,1,0,1,1,0-1.986H121A.994.994,0,1,1,121,108.366Zm.139-9.41a4.131,4.131,0,0,0-2.347,3.72v1.849H114.24V96.057a4.129,4.129,0,0,0,0-8.047V83.336h5.475a.928.928,0,0,0,.928-.922,2.274,2.274,0,0,1,4.548,0,.928.928,0,0,0,.928.922h5.449A18.38,18.38,0,0,1,121.135,98.956Z" transform="translate(-81.659 -54.591)"/>
        <g id="Grupo_1154121" data-name="Grupo 1154121">
          <g id="Grupo_1154109" data-name="Grupo 1154109" transform="translate(30.726)">
            <path id="Trazado_990880" data-name="Trazado 990880" d="M249.451,5.7a.927.927,0,0,1-.928-.928V.928a.928.928,0,1,1,1.855,0V4.769A.927.927,0,0,1,249.451,5.7Z" transform="translate(-248.524)"/>
          </g>
          <g id="Grupo_1154110" data-name="Grupo 1154110" transform="translate(44.168 4.116)">
            <path id="Trazado_990881" data-name="Trazado 990881" d="M357.677,38.342a.926.926,0,0,1-.339-1.267l1.921-3.327a.928.928,0,0,1,1.607.928L358.944,38a1,1,0,0,1-1.267.339Z" transform="translate(-357.213 -33.284)"/>
          </g>
          <g id="Grupo_1154113" data-name="Grupo 1154113" transform="translate(4.125 15.363)">
            <g id="Grupo_1154111" data-name="Grupo 1154111" transform="translate(49.884)">
              <path id="Trazado_990882" data-name="Trazado 990882" d="M436.908,127.534a.928.928,0,0,1,.339-1.267l3.327-1.921a.928.928,0,0,1,.928,1.606l-3.327,1.921A.966.966,0,0,1,436.908,127.534Z" transform="translate(-436.784 -124.222)"/>
            </g>
            <g id="Grupo_1154112" data-name="Grupo 1154112" transform="translate(0 28.805)">
              <path id="Trazado_990883" data-name="Trazado 990883" d="M33.545,360.45a.942.942,0,0,1,.339-1.267l3.327-1.921a.927.927,0,1,1,.928,1.606l-3.327,1.921A.871.871,0,0,1,33.545,360.45Z" transform="translate(-33.429 -357.138)"/>
            </g>
          </g>
          <g id="Grupo_1154114" data-name="Grupo 1154114" transform="translate(15.363 4.116)">
            <path id="Trazado_990884" data-name="Trazado 990884" d="M126.344,38l-1.921-3.327a.928.928,0,0,1,1.606-.928l1.921,3.327a.941.941,0,0,1-.339,1.267A.966.966,0,0,1,126.344,38Z" transform="translate(-124.299 -33.284)"/>
          </g>
          <g id="Grupo_1154117" data-name="Grupo 1154117" transform="translate(4.116 15.363)">
            <g id="Grupo_1154115" data-name="Grupo 1154115">
              <path id="Trazado_990885" data-name="Trazado 990885" d="M37.153,127.874l-3.327-1.921a.928.928,0,0,1,.928-1.607l3.327,1.921a.883.883,0,0,1,.339,1.267A.945.945,0,0,1,37.153,127.874Z" transform="translate(-33.362 -124.222)"/>
            </g>
            <g id="Grupo_1154116" data-name="Grupo 1154116" transform="translate(49.892 28.805)">
              <path id="Trazado_990886" data-name="Trazado 990886" d="M440.575,360.79l-3.327-1.921a.928.928,0,0,1,.928-1.607l3.327,1.921a.913.913,0,0,1,.339,1.267A.854.854,0,0,1,440.575,360.79Z" transform="translate(-436.784 -357.139)"/>
            </g>
          </g>
          <g id="Grupo_1154120" data-name="Grupo 1154120" transform="translate(0 30.726)">
            <g id="Grupo_1154118" data-name="Grupo 1154118">
              <path id="Trazado_990887" data-name="Trazado 990887" d="M4.846,250.3H1a.928.928,0,0,1,0-1.855H4.846a.928.928,0,1,1,0,1.855Z" transform="translate(-0.077 -248.447)"/>
            </g>
            <g id="Grupo_1154119" data-name="Grupo 1154119" transform="translate(57.61)">
              <path id="Trazado_990888" data-name="Trazado 990888" d="M470.677,250.3h-3.842a.928.928,0,1,1,0-1.855h3.842a.928.928,0,0,1,0,1.855Z" transform="translate(-465.908 -248.447)"/>
            </g>
          </g>
        </g>
      </g>
    </g>
  </g>
</svg>
