<svg xmlns="http://www.w3.org/2000/svg" xmlns:xlink="http://www.w3.org/1999/xlink" width="208" height="223" viewBox="0 0 208 223">
  <defs>
    <filter id="error-image" x="0" y="54.962" width="208" height="114" filterUnits="userSpaceOnUse">
      <feOffset dy="3" input="SourceAlpha"/>
      <feGaussianBlur stdDeviation="3" result="blur"/>
      <feFlood flood-opacity="0.161"/>
      <feComposite operator="in" in2="blur"/>
      <feComposite in="SourceGraphic"/>
    </filter>
    <filter id="error-image-2" x="33" y="36.962" width="142" height="150" filterUnits="userSpaceOnUse">
      <feOffset dy="3" input="SourceAlpha"/>
      <feGaussianBlur stdDeviation="3" result="blur-2"/>
      <feFlood flood-opacity="0.161"/>
      <feComposite operator="in" in2="blur-2"/>
      <feComposite in="SourceGraphic"/>
    </filter>
    <clipPath id="clip-path">
      <rect id="Rectángulo_407956" data-name="Rectángulo 407956" width="148" height="223" transform="translate(1163.498 6144.731)" fill="#fff" stroke="#707070" stroke-width="1" opacity="0.68"/>
    </clipPath>
    <filter id="Trazado_990287" x="21.8" y="1.003" width="171.408" height="180.881" filterUnits="userSpaceOnUse">
      <feOffset dy="3" input="SourceAlpha"/>
      <feGaussianBlur stdDeviation="3" result="blur-3"/>
      <feFlood flood-opacity="0.161"/>
      <feComposite operator="in" in2="blur-3"/>
      <feComposite in="SourceGraphic"/>
    </filter>
  </defs>
  <g id="Grupo_1154125" data-name="Grupo 1154125" transform="translate(-1215 -6100)">
    <g id="Grupo_1153180" data-name="Grupo 1153180" transform="translate(1224 6142.962)">
      <g transform="matrix(1, 0, 0, 1, -9, -42.96)" filter="url(#error-image)">
        <rect id="error-image-3" data-name="error-image" width="190" height="96" rx="5" transform="translate(9 60.96)" fill="#4b252a"/>
      </g>
      <g transform="matrix(1, 0, 0, 1, -9, -42.96)" filter="url(#error-image-2)">
        <path id="error-image-4" data-name="error-image" d="M119,0H5C2.239,0,0,1.6,0,3.568V128.432C0,130.4,2.239,132,5,132H119c2.761,0,5-1.6,5-3.568V3.568C124,1.6,121.761,0,119,0Z" transform="translate(42 42.96)" fill="#ff7f8f"/>
      </g>
    </g>
    <g id="Enmascarar_grupo_1098660" data-name="Enmascarar grupo 1098660" transform="translate(69.502 -44.731)" clip-path="url(#clip-path)">
      <g id="Grupo_1154124" data-name="Grupo 1154124" transform="translate(1167.165 6151.183)">
        <g transform="matrix(1, 0, 0, 1, -21.67, -6.45)" filter="url(#Trazado_990287)">
          <path id="Trazado_990287-2" data-name="Trazado 990287" d="M10.621,117.851c-31.856-40.21,16.135-38.072,36.86-71.885,31.945-52.119,48.755-55.43,63.1-32.209s8.66,71.339-20.743,97.953S27.57,139.247,10.621,117.851Z" transform="matrix(0.95, -0.31, 0.31, 0.95, 30.8, 43.51)" fill="#fcd7db" fill-rule="evenodd"/>
        </g>
        <g id="Grupo_1153812" data-name="Grupo 1153812" transform="translate(0 7.541)">
          <path id="Trazado_989658" data-name="Trazado 989658" d="M1980.122,294.958c18.091-16.6,10.1-54.745-17.838-85.2s-65.263-41.7-83.354-25.1-10.105,54.745,17.838,85.2S1962.033,311.555,1980.122,294.958Z" transform="translate(-1869.245 -176.987)" fill="#8b454e" fill-rule="evenodd"/>
          <path id="Trazado_989659" data-name="Trazado 989659" d="M1906.8,199.614a16.361,16.361,0,0,1,3.952.5c11.331,2.791,13.7,15.622,13.7,15.622s19.639-3.624,21.16,4.18-12.839,8.609-38.433,7.683c-8.486-.307-15.6-.21-21.5.04-.966-10.783,1.208-20.317,6.82-27.183a49.32,49.32,0,0,1,2.089,6.728S1898.28,199.631,1906.8,199.614Zm59.573,28.361c6.875.129,15.425,4.766,15.425,4.766s.437-2.032,1.31-4.648a113.59,113.59,0,0,1,15.992,25.6,255.1,255.1,0,0,0-29.889-.54c-25.594.925-39.953.115-38.435-7.689s21.153-4.174,21.153-4.174a30.752,30.752,0,0,1,8.506-11.606A8.772,8.772,0,0,1,1966.37,227.975Z" transform="translate(-1885.437 -189.979)" fill="#fff" fill-rule="evenodd"/>
          <g id="Grupo_1153810" data-name="Grupo 1153810" transform="translate(2.459 37.185)">
            <path id="Trazado_989660" data-name="Trazado 989660" d="M2032.864,270.567a80.855,80.855,0,0,0,10.424-.631c16.092-2.107,24.065-5.184,24.144-5.215a.213.213,0,0,0-.155-.4c-.079.031-8.011,3.089-24.044,5.189s-33.84-1.737-34.018-1.776a.213.213,0,1,0-.091.416A125.836,125.836,0,0,0,2032.864,270.567Z" transform="translate(-2008.955 -264.311)" fill="#fff"/>
          </g>
          <g id="Grupo_1153811" data-name="Grupo 1153811" transform="translate(10.204 66.483)">
            <path id="Trazado_989661" data-name="Trazado 989661" d="M1880.986,339.164h.021c.308-.029,31.077-2.969,51.357-4.853,20.26-1.883,53.3.272,53.634.293a.215.215,0,0,0,.226-.2.212.212,0,0,0-.2-.227c-.332-.022-33.407-2.178-53.7-.293s-51.049,4.824-51.358,4.854a.213.213,0,0,0-.192.232A.208.208,0,0,0,1880.986,339.164Z" transform="translate(-1880.774 -333.113)" fill="#fff"/>
          </g>
          <path id="Trazado_989662" data-name="Trazado 989662" d="M2081.009,294.535s-4.209-.039-6.336,1.573a13.628,13.628,0,0,0-2.919,2.79,8.7,8.7,0,0,0-3.447-2.868c-2.335-1.1-6.376-.392-6.376-.392a10.363,10.363,0,0,1,6.622,3.26,10.52,10.52,0,0,1,3.2,6.189,12.526,12.526,0,0,1,3.043-6.619A17.531,17.531,0,0,1,2081.009,294.535Z" transform="translate(-2042.498 -244.48)" fill="#fff" fill-rule="evenodd"/>
          <path id="Trazado_989663" data-name="Trazado 989663" d="M2112.1,282.416s-3.317-.031-4.995,1.24a10.731,10.731,0,0,0-2.3,2.2,6.856,6.856,0,0,0-2.717-2.26c-1.84-.865-5.025-.309-5.025-.309a8.167,8.167,0,0,1,5.218,2.569,8.284,8.284,0,0,1,2.523,4.877,9.867,9.867,0,0,1,2.4-5.216A13.807,13.807,0,0,1,2112.1,282.416Z" transform="translate(-2088.544 -237.521)" fill="#fff" fill-rule="evenodd"/>
          <path id="Trazado_989664" data-name="Trazado 989664" d="M2116.154,303.866s-3.507-.033-5.278,1.31a11.422,11.422,0,0,0-2.434,2.325,7.233,7.233,0,0,0-2.872-2.39c-1.944-.914-5.31-.327-5.31-.327a8.635,8.635,0,0,1,5.516,2.716,8.766,8.766,0,0,1,2.666,5.156,10.435,10.435,0,0,1,2.536-5.514A14.63,14.63,0,0,1,2116.154,303.866Z" transform="translate(-2093.964 -249.837)" fill="#fff" fill-rule="evenodd"/>
        </g>
        <g id="Grupo_1153834" data-name="Grupo 1153834" transform="translate(35.843 7.541)">
          <g id="Grupo_1153813" data-name="Grupo 1153813" transform="translate(33.215 191.766)">
            <path id="Trazado_989665" data-name="Trazado 989665" d="M1936.623,725.46h24.587a.213.213,0,1,0,0-.426h-24.587a.213.213,0,0,0,0,.426Z" transform="translate(-1936.41 -725.034)" fill="#360b1e"/>
          </g>
          <path id="Trazado_989666" data-name="Trazado 989666" d="M2022.663,529.205s-1.7,9.939-1.571,11.448,6.1,5.157,6.1,5.157l7.171-8.491-3.27-7.485Z" transform="translate(-2012.192 -420.829)" fill="#977063" fill-rule="evenodd"/>
          <path id="Trazado_989667" data-name="Trazado 989667" d="M1992.539,459.766s3.56,10.979,1.833,16.8-11.919,25.459-11.919,25.459l15,54.219-6.758,3.138-15.675-33.445-.826,18.375-4.589,20.5-5.589,1.164s-3.023-48.7-2.34-52.392c.554-2.985,5.123-20.523,5.123-20.523s-9.867-30.113-6.01-32.753S1992.539,459.766,1992.539,459.766Z" transform="translate(-1949.233 -380.504)" fill="#fee6bf" fill-rule="evenodd"/>
          <path id="Trazado_989668" data-name="Trazado 989668" d="M1976.964,337.676s-.577-1.086-1.282-1.177a4.894,4.894,0,0,0-1.682.215l.179,1.2Z" transform="translate(-1934.743 -310.174)" fill="#360b1e" fill-rule="evenodd"/>
          <path id="Trazado_989669" data-name="Trazado 989669" d="M1969.814,338.473s16.067-3.086,19.124,3.273,7.833,42.984,4.757,45.019-10.4-4.515-10.4-4.515a38.373,38.373,0,0,1-.213,5.775c-.345,2.018,3.141,6.055,1,6.291s-14.944-2.779-18.33-1.84-9.969,1.1-9.969,1.1l-.873,14.95,2.372,13.3s-9.5,3.656-9.813-.081,1.989-36.8,1.167-40.862-5.351-34.111-1.767-36.673S1969.814,338.473,1969.814,338.473Z" transform="translate(-1940.334 -310.887)" fill="#fdaf2f" fill-rule="evenodd"/>
          <path id="Trazado_989670" data-name="Trazado 989670" d="M2008.412,314.76s1.337,8.036,2.606,8.46-2.4,4.7-4.682,5.772-8.042-2.443-8.042-2.443-5.274-10.573-5.161-13.755S2008.412,314.76,2008.412,314.76Z" transform="translate(-1977.203 -295.977)" fill="#977063" fill-rule="evenodd"/>
          <g id="Grupo_1153815" data-name="Grupo 1153815" transform="translate(0 183.021)">
            <g id="Grupo_1153814" data-name="Grupo 1153814" transform="translate(0 6.158)">
              <path id="Trazado_989671" data-name="Trazado 989671" d="M2021.916,723.181s-1.329,1.25-.941,2.376.039,1.241,2.061,1.19,17.433-2.453,19.011-3.383.856-3.7-.59-3.9S2021.916,723.181,2021.916,723.181Z" transform="translate(-2020.69 -719.244)" fill="#fff" fill-rule="evenodd"/>
              <path id="Trazado_989672" data-name="Trazado 989672" d="M2022.152,726.684c.178,0,.379,0,.608-.01,1.758-.044,17.446-2.429,19.114-3.413a2.25,2.25,0,0,0,.938-2.455,2.149,2.149,0,0,0-1.606-1.84c-1.466-.211-18.876,3.56-19.616,3.72a.217.217,0,0,0-.1.053c-.058.055-1.424,1.358-1,2.6.06.174.1.323.138.451C2020.836,726.53,2021,726.684,2022.152,726.684Zm18.868-7.3a.947.947,0,0,1,.127.007,1.758,1.758,0,0,1,1.248,1.5,1.838,1.838,0,0,1-.737,2c-1.532.9-16.76,3.3-18.908,3.353-1.538.039-1.54.027-1.709-.572-.038-.135-.082-.291-.145-.474-.3-.879.636-1.9.845-2.112C2026.666,722.024,2039.254,719.382,2041.021,719.382Z" transform="translate(-2020.41 -718.959)" fill="#360b1e"/>
            </g>
            <path id="Trazado_989673" data-name="Trazado 989673" d="M2037.042,704.931s-14,7.414-14.033,9.119-.009,1.437,2.021,1.544,18.334-.941,18.726-3.464-.834-7.631-.834-7.631A27.458,27.458,0,0,1,2037.042,704.931Z" transform="translate(-2022.478 -704.499)" fill="#360b1e" fill-rule="evenodd"/>
            <path id="Trazado_989674" data-name="Trazado 989674" d="M2027.125,712.652a12.214,12.214,0,0,0,3.049,1.1c.832,0,2.54-1.9,2.54-1.9s-1.625,3.617-2.766,3.622S2027.457,712.648,2027.125,712.652Z" transform="translate(-2013.115 -708.719)" fill="#fff" fill-rule="evenodd"/>
          </g>
          <g id="Grupo_1153817" data-name="Grupo 1153817" transform="translate(32.389 174.166)">
            <g id="Grupo_1153816" data-name="Grupo 1153816" transform="translate(0.139 5.468)">
              <path id="Trazado_989675" data-name="Trazado 989675" d="M1951.628,705.9s-.854,1.505-.187,2.419.381,1.116,2.2.5,15.132-7.1,16.3-8.393-.26-3.592-1.626-3.372S1951.628,705.9,1951.628,705.9Z" transform="translate(-1950.972 -696.832)" fill="#fff" fill-rule="evenodd"/>
              <path id="Trazado_989676" data-name="Trazado 989676" d="M1952.019,709.1a5.305,5.305,0,0,0,1.409-.362c1.585-.534,15.159-7.094,16.393-8.452a2.148,2.148,0,0,0,.164-2.5,2.047,2.047,0,0,0-1.982-1.224c-1.391.223-16.136,8.515-16.763,8.867a.207.207,0,0,0-.08.081c-.038.066-.914,1.636-.174,2.649.1.141.182.265.25.37C1951.491,708.925,1951.674,709.1,1952.019,709.1Zm16.2-12.13a1.756,1.756,0,0,1,1.4,1.017,1.736,1.736,0,0,1-.1,2.013c-1.132,1.246-14.278,7.682-16.213,8.334-1.377.461-1.376.461-1.7-.038-.073-.112-.156-.242-.265-.39-.516-.707.042-1.882.175-2.138,4.294-2.415,15.48-8.613,16.567-8.787A.913.913,0,0,1,1968.218,696.971Z" transform="translate(-1950.69 -696.545)" fill="#360b1e"/>
            </g>
            <path id="Trazado_989677" data-name="Trazado 989677" d="M1964.294,685.742s-10.631,10.646-10.179,12.2.394,1.305,2.264.835,16.373-5.985,16.022-8.385-2.894-6.69-2.894-6.69A26.067,26.067,0,0,1,1964.294,685.742Z" transform="translate(-1954.1 -683.704)" fill="#360b1e" fill-rule="evenodd"/>
          </g>
          <g id="Grupo_1153818" data-name="Grupo 1153818" transform="translate(0 196.479)">
            <path id="Trazado_989678" data-name="Trazado 989678" d="M2014.619,736.53h24.589a.213.213,0,0,0,0-.426h-24.589a.213.213,0,0,0,0,.426Z" transform="translate(-2014.406 -736.104)" fill="#360b1e"/>
          </g>
          <path id="Trazado_989679" data-name="Trazado 989679" d="M2012.311,318.146c.172.288.728,3.552.728,3.552s-1.333,3.579-4.224,4.339c-3.975,1.045-11.193-5.31-12.247-11.919C1995.768,309.092,2012.136,317.858,2012.311,318.146Z" transform="translate(-1980.417 -296.442)" fill="#360b1e" fill-rule="evenodd"/>
          <path id="Trazado_989680" data-name="Trazado 989680" d="M2003.4,274.85c-7.22,1.042-8.261,8.689-5.683,14.955s8.9,14.846,14.163,12.266,4.25-14.912,2.248-19.176S2010.82,273.78,2003.4,274.85Z" transform="translate(-1983.086 -274.7)" fill="#977063" fill-rule="evenodd"/>
          <path id="Trazado_989681" data-name="Trazado 989681" d="M1991.484,295.439s1.644-3.6,3.1-3,1.473,5.947.668,6.9-1.81,1.456-2.512.5S1991.484,295.439,1991.484,295.439Z" transform="translate(-1961.016 -284.848)" fill="#977063" fill-rule="evenodd"/>
          <path id="Trazado_989682" data-name="Trazado 989682" d="M1991.484,295.439s1.644-3.6,3.1-3,1.473,5.947.668,6.9-1.81,1.456-2.512.5S1991.484,295.439,1991.484,295.439Z" transform="translate(-1961.016 -284.848)" fill="#977063" fill-rule="evenodd"/>
          <path id="Trazado_989683" data-name="Trazado 989683" d="M2040.125,307.057s-2.764-3.905-4.428-2.61,2.2,7.213,4.033,6.86S2040.125,307.057,2040.125,307.057Z" transform="translate(-2024.539 -291.629)" fill="#977063" fill-rule="evenodd"/>
          <path id="Trazado_989684" data-name="Trazado 989684" d="M2039.228,309.967a17.46,17.46,0,0,1,.894,1.989,1.727,1.727,0,0,1-1.733-.1c-1.1-.547-2.93-2.657-2.6-3.057S2038.4,309.471,2039.228,309.967Z" transform="translate(-2024.195 -294.23)" fill="#360b1e" fill-rule="evenodd"/>
          <g id="Grupo_1153819" data-name="Grupo 1153819" transform="translate(13.169 11.408)">
            <path id="Trazado_989685" data-name="Trazado 989685" d="M2029.584,316.639a.213.213,0,0,0,.122-.387c-5.366-3.763-8.677-14.5-8.709-14.61a.213.213,0,0,0-.407.124c.135.447,3.386,10.988,8.873,14.835A.211.211,0,0,0,2029.584,316.639Z" transform="translate(-2020.58 -301.49)" fill="#360b1e"/>
          </g>
          <g id="Grupo_1153820" data-name="Grupo 1153820" transform="translate(11.493 14.201)">
            <path id="Trazado_989686" data-name="Trazado 989686" d="M2041.072,310.03a.212.212,0,0,0,.134-.378c-.638-.517-2.775-2.147-3.476-1.416a.213.213,0,1,0,.307.295c.291-.3,1.734.508,2.9,1.453A.208.208,0,0,0,2041.072,310.03Z" transform="translate(-2037.67 -308.05)" fill="#360b1e"/>
          </g>
          <g id="Grupo_1153821" data-name="Grupo 1153821" transform="translate(24.161 9.813)">
            <path id="Trazado_989687" data-name="Trazado 989687" d="M1999.191,304.269a1.654,1.654,0,0,0,.5-.076l4.4-1.374a1.655,1.655,0,0,0,1.085-2.074l-.575-1.839a1.654,1.654,0,0,0-2.074-1.087h0l-4.4,1.374a1.655,1.655,0,0,0-1.084,2.074l.574,1.839a1.658,1.658,0,0,0,1.576,1.163Zm3.824-6.1a1.229,1.229,0,0,1,1.171.863l.575,1.84a1.228,1.228,0,0,1-.805,1.541l-4.4,1.374a1.227,1.227,0,0,1-1.539-.807l-.575-1.84a1.228,1.228,0,0,1,.805-1.541l4.394-1.373A1.222,1.222,0,0,1,2003.015,298.17Z" transform="translate(-1996.963 -297.744)" fill="#360b1e"/>
          </g>
          <g id="Grupo_1153822" data-name="Grupo 1153822" transform="translate(15.502 12.463)">
            <path id="Trazado_989688" data-name="Trazado 989688" d="M2019.824,310.383a1.633,1.633,0,0,0,.488-.075l4.316-1.349a1.632,1.632,0,0,0,1.07-2.041l-.566-1.806a1.627,1.627,0,0,0-2.041-1.069h0l-4.316,1.349a1.634,1.634,0,0,0-1.07,2.041l.566,1.806a1.629,1.629,0,0,0,1.552,1.144Zm3.756-5.989a1.2,1.2,0,0,1,1.146.845l.566,1.806a1.206,1.206,0,0,1-.79,1.508l-4.316,1.349a1.2,1.2,0,0,1-1.506-.789l-.566-1.806a1.206,1.206,0,0,1,.791-1.508l4.315-1.349A1.211,1.211,0,0,1,2023.58,304.394Z" transform="translate(-2017.632 -303.968)" fill="#360b1e"/>
          </g>
          <g id="Grupo_1153823" data-name="Grupo 1153823" transform="translate(26.257 12.11)">
            <path id="Trazado_989689" data-name="Trazado 989689" d="M2001.283,305.165a.211.211,0,0,0,.157-.07c1.879-2.074,3.7-1.447,3.78-1.419a.213.213,0,0,0,.147-.4c-.086-.032-2.162-.764-4.242,1.533a.212.212,0,0,0,.157.356Z" transform="translate(-2001.07 -303.14)" fill="#360b1e"/>
          </g>
          <g id="Grupo_1153824" data-name="Grupo 1153824" transform="translate(17.178 14.856)">
            <path id="Trazado_989690" data-name="Trazado 989690" d="M2021.844,311.212a.21.21,0,0,0,.135-.049c2.241-1.845,4.023-.924,4.1-.884a.213.213,0,0,0,.2-.374c-.084-.046-2.1-1.107-4.572.93a.212.212,0,0,0-.029.3A.205.205,0,0,0,2021.844,311.212Z" transform="translate(-2021.631 -309.588)" fill="#360b1e"/>
          </g>
          <path id="Trazado_989691" data-name="Trazado 989691" d="M2003.193,304.208c-.233-.582-.686-.948-1.014-.818s-.4.708-.17,1.29.683.948,1.012.818S2003.427,304.789,2003.193,304.208Z" transform="translate(-1972.975 -291.158)" fill="#360b1e" fill-rule="evenodd"/>
          <path id="Trazado_989692" data-name="Trazado 989692" d="M2024.19,310.782c-.149-.632-.558-1.076-.913-.992s-.52.664-.371,1.3.558,1.076.913.991S2024.339,311.414,2024.19,310.782Z" transform="translate(-2002.826 -294.842)" fill="#360b1e" fill-rule="evenodd"/>
          <path id="Trazado_989693" data-name="Trazado 989693" d="M2012.945,322.268a9.048,9.048,0,0,1-2.961,1.179,24.4,24.4,0,0,1-5.063-.561s3.044,5.066,7.072,4.189C2014.768,326.471,2012.945,322.268,2012.945,322.268Z" transform="translate(-1984.478 -302.012)" fill="#360b1e" fill-rule="evenodd"/>
          <path id="Trazado_989694" data-name="Trazado 989694" d="M1990.111,367.95s-1.26-5.562-3.077-6.714a1.9,1.9,0,0,0-2.989,1.35c.091.63,1.656,5.112,2.521,5.562S1990.111,367.95,1990.111,367.95Z" transform="translate(-1952.165 -324.176)" fill="#977063" fill-rule="evenodd"/>
          <path id="Trazado_989695" data-name="Trazado 989695" d="M2011.556,322.63l.369,1.791a3.689,3.689,0,0,1-1.056.673c.483-.149.845-.281.845-.281l.617,1.024a1.767,1.767,0,0,1-1.439,1.447,5.37,5.37,0,0,1-4.5-1.329l.04-.243s1.846-.074,2.847-.227c.207-.032.428-.109.656-.164a2.793,2.793,0,0,1-.328.055,15.382,15.382,0,0,1-3.385-.485l-1.065-1.564a15.018,15.018,0,0,0,3.722.328A7.715,7.715,0,0,0,2011.556,322.63Z" transform="translate(-1983.379 -302.22)" fill="#fff" fill-rule="evenodd"/>
          <path id="Trazado_989696" data-name="Trazado 989696" d="M1989.333,336.077s-2.167,2.078-4.083,9.453c-2.065,7.943-3.387,14.235-3.136,18.874a18.261,18.261,0,0,0,2.459,8.767s-7.007-2.924-7.475-10.738c-.986-16.4,6.792-26.684,6.792-26.684Z" transform="translate(-1948.393 -309.753)" fill="#360b1e" fill-rule="evenodd"/>
          <path id="Trazado_989697" data-name="Trazado 989697" d="M1994.766,372.921s-.413-4.059-1.333-4.818-3.986-1.462-4.7-2.083-2.3-2.447-2.589-1.976a10.553,10.553,0,0,0,.013,3.016s-1.839-1.764-2.07-.978,1.478,3.514,1.478,3.514-2.2-2.731-2.761-2.034,1.444,4.838,2.138,6.139,4.861,6.988,5.51,6.931S1994.766,372.921,1994.766,372.921Z" transform="translate(-1956.249 -325.955)" fill="#977063" fill-rule="evenodd"/>
          <g id="Grupo_1153825" data-name="Grupo 1153825" transform="translate(9.843 49.769)">
            <path id="Trazado_989698" data-name="Trazado 989698" d="M2042.418,424.73h0a.213.213,0,0,0,.212-.214c0-.106-.07-10.615-.441-14.78s-4.46-17.446-4.634-18.009a.213.213,0,1,0-.406.126c.042.138,4.249,13.788,4.616,17.921s.439,14.64.44,14.745A.212.212,0,0,0,2042.418,424.73Z" transform="translate(-2037.14 -391.577)" fill="#360b1e"/>
          </g>
          <g id="Grupo_1153826" data-name="Grupo 1153826" transform="translate(20.633 27.563)">
            <path id="Trazado_989699" data-name="Trazado 989699" d="M2000.788,345.341q.114,0,.223-.007c2.685-.164,5.241-5.38,5.348-5.6a.213.213,0,1,0-.383-.186c-.026.052-2.554,5.214-4.991,5.362-2.5.151-7.822-2.688-7.875-2.716a.213.213,0,1,0-.2.375C1993.127,342.685,1998.1,345.341,2000.788,345.341Z" transform="translate(-1992.796 -339.427)" fill="#360b1e"/>
          </g>
          <g id="Grupo_1153827" data-name="Grupo 1153827" transform="translate(34.134 46.456)">
            <path id="Trazado_989700" data-name="Trazado 989700" d="M1964.294,414.151a2.433,2.433,0,0,0,1.9-.754.213.213,0,0,0-.316-.285,2.091,2.091,0,0,1-1.724.611c-3.176-.128-8.257-4.2-9.855-6.281-1.969-2.57-6.94-14.15-7.438-15.315l4.178-7.825a37.069,37.069,0,0,1,7.956,5.956,20.341,20.341,0,0,1,3.748,5.589.213.213,0,1,0,.4-.151,20.33,20.33,0,0,0-3.828-5.723c-2.83-3.144-8.2-6.121-8.255-6.151a.214.214,0,0,0-.164-.018.216.216,0,0,0-.127.1l-4.328,8.108a.215.215,0,0,0-.008.184c.221.52,5.437,12.765,7.532,15.5,1.639,2.139,6.877,6.315,10.175,6.448C1964.188,414.15,1964.243,414.151,1964.294,414.151Z" transform="translate(-1946.408 -383.796)" fill="#360b1e"/>
          </g>
          <g id="Grupo_1153828" data-name="Grupo 1153828" transform="translate(22.659 13.239)">
            <path id="Trazado_989701" data-name="Trazado 989701" d="M2015.471,306.68a.2.2,0,0,0,.06-.009l1.568-.464a.213.213,0,0,0-.12-.408l-1.568.464a.213.213,0,0,0-.144.265A.21.21,0,0,0,2015.471,306.68Z" transform="translate(-2015.258 -305.79)" fill="#360b1e"/>
          </g>
          <g id="Grupo_1153829" data-name="Grupo 1153829" transform="translate(14.104 14.07)">
            <path id="Trazado_989702" data-name="Trazado 989702" d="M2037.095,310.163a.213.213,0,0,0,.167-.346l-1.593-2a.213.213,0,1,0-.333.266l1.593,2A.211.211,0,0,0,2037.095,310.163Z" transform="translate(-2035.29 -307.741)" fill="#360b1e"/>
          </g>
          <path id="Trazado_989703" data-name="Trazado 989703" d="M2012.068,319.139l-2.638.962a2.763,2.763,0,0,0,1.755.222A1.434,1.434,0,0,0,2012.068,319.139Z" transform="translate(-1984.934 -300.216)" fill="#360b1e" fill-rule="evenodd"/>
          <path id="Trazado_989704" data-name="Trazado 989704" d="M2029.889,299.086c-.4-.544-5.1.517-4.946,1.57S2030.578,300.026,2029.889,299.086Z" transform="translate(-2009.419 -288.617)" fill="#360b1e" fill-rule="evenodd"/>
          <path id="Trazado_989705" data-name="Trazado 989705" d="M2007.847,294.788c-.4-.544-5.1.516-4.944,1.57S2008.537,295.728,2007.847,294.788Z" transform="translate(-1977.992 -286.15)" fill="#360b1e" fill-rule="evenodd"/>
          <g id="Grupo_1153830" data-name="Grupo 1153830" transform="translate(27.595 71.13)">
            <path id="Trazado_989706" data-name="Trazado 989706" d="M1983.952,454.322a1.8,1.8,0,0,0,1.009-.187c1.125-.88-.913-4.827-1.413-5.752l.413-6.419a.212.212,0,0,0-.2-.226.222.222,0,0,0-.226.2l-.417,6.48a.215.215,0,0,0,.026.115c1.028,1.887,2.191,4.769,1.554,5.267-.52.408-5.226-.432-8.66-1.044a54.787,54.787,0,0,0-7.637-1.08.213.213,0,0,0-.2.221.21.21,0,0,0,.222.2,54.883,54.883,0,0,1,7.545,1.073A61.587,61.587,0,0,0,1983.952,454.322Z" transform="translate(-1968.197 -441.738)" fill="#360b1e"/>
          </g>
          <g id="Grupo_1153831" data-name="Grupo 1153831" transform="translate(12.1 94.256)">
            <path id="Trazado_989707" data-name="Trazado 989707" d="M2024.321,585.947h.01a.213.213,0,0,0,.2-.222l-2.351-51,9.352-38.418a.213.213,0,1,0-.413-.1l-9.359,38.447a.179.179,0,0,0-.006.06l2.352,51.027A.217.217,0,0,0,2024.321,585.947Z" transform="translate(-2021.755 -496.047)" fill="#360b1e"/>
          </g>
          <g id="Grupo_1153832" data-name="Grupo 1153832" transform="translate(20.052 98.472)">
            <path id="Trazado_989708" data-name="Trazado 989708" d="M1968.322,591.783a.213.213,0,0,0,.206-.158c.031-.118,3.179-11.885,4.327-18.03,1.129-6.025,1.685-30.012,1.713-31.255l18.2-36.082a.213.213,0,0,0-.38-.192l-18.219,36.125a.2.2,0,0,0-.023.091c-.006.25-.56,25.114-1.706,31.234s-4.289,17.881-4.321,18a.213.213,0,0,0,.207.268Z" transform="translate(-1968.108 -505.949)" fill="#360b1e"/>
          </g>
          <g id="Grupo_1153833" data-name="Grupo 1153833" transform="translate(29.423 85.475)">
            <path id="Trazado_989709" data-name="Trazado 989709" d="M1988.262,485.46a.213.213,0,0,0,.088-.407l-8.944-4.073-2.074-5.417a.213.213,0,1,0-.4.153l2.105,5.5a.214.214,0,0,0,.111.118l9.023,4.109A.218.218,0,0,0,1988.262,485.46Z" transform="translate(-1976.92 -475.427)" fill="#360b1e"/>
          </g>
        </g>
        <g id="Grupo_1153874" data-name="Grupo 1153874" transform="translate(75.859)">
          <path id="Trazado_989710" data-name="Trazado 989710" d="M1932.621,407.064s4.6,22.984,4.776,25.372,1.254,10.745,1.254,10.745l1.878-16.536-2.331-19.639Z" transform="translate(-1920.702 -343.125)" fill="#ffbfbe" fill-rule="evenodd"/>
          <g id="Grupo_1153835" data-name="Grupo 1153835" transform="translate(10.873 151.799)">
            <path id="Trazado_989711" data-name="Trazado 989711" d="M1947.4,614.763l-1.7,35.616-2.57-.5.779-35.908Z" transform="translate(-1942.92 -613.756)" fill="#360b1e" fill-rule="evenodd"/>
            <path id="Trazado_989712" data-name="Trazado 989712" d="M1945.408,650.305a.216.216,0,0,0,.132-.045.213.213,0,0,0,.081-.158l1.7-35.616a.212.212,0,0,0-.165-.218l-3.488-.794a.212.212,0,0,0-.26.2l-.779,35.908a.213.213,0,0,0,.172.214l2.57.5A.182.182,0,0,0,1945.408,650.305Zm1.473-35.661-1.677,35.192-2.153-.421.77-35.468Z" transform="translate(-1942.625 -613.469)" fill="#360b1e"/>
          </g>
          <path id="Trazado_989713" data-name="Trazado 989713" d="M1943.377,417.774s-1.546-4.141-2.9-5.446a14.7,14.7,0,0,1-2.359-3.206l3.164-.8Z" transform="translate(-1925.893 -343.878)" fill="#f15d85" fill-rule="evenodd"/>
          <g id="Grupo_1153839" data-name="Grupo 1153839" transform="translate(10.546 186.802)">
            <path id="Trazado_989714" data-name="Trazado 989714" d="M1909.938,695.669s2.47,7.256,2.84,9.485-.76,5.825-.76,5.825l-27.489-.911s-2.225-3.3-1.056-4.98,10.742-4.239,10.742-4.239,8.295-2.561,8.9-3.1S1909.938,695.669,1909.938,695.669Z" transform="translate(-1882.501 -695.669)" fill="#fdaf2f" fill-rule="evenodd"/>
            <g id="Grupo_1153836" data-name="Grupo 1153836" transform="translate(0 12.941)">
              <path id="Trazado_989715" data-name="Trazado 989715" d="M1912.157,727.836a6.026,6.026,0,0,1,.8,3.192c.136,2.349-1.213,1.556-4.458,1.544s-25.535-.683-25.846-2.606a4.663,4.663,0,0,1,.924-3.411s.213,1.122,2.323,1.433S1912.157,727.836,1912.157,727.836Z" transform="translate(-1882.395 -726.343)" fill="#fff" fill-rule="evenodd"/>
              <path id="Trazado_989716" data-name="Trazado 989716" d="M1911.256,732.638a1.715,1.715,0,0,0,1.271-.361,1.923,1.923,0,0,0,.363-1.546,6.183,6.183,0,0,0-.85-3.312.2.2,0,0,0-.171-.081c-.241,0-24.147.458-26.217.154-1.911-.282-2.136-1.225-2.146-1.265a.214.214,0,0,0-.373-.093,4.839,4.839,0,0,0-.97,3.58c.381,2.358,25.8,2.784,26.055,2.785.74,0,1.373.046,1.931.084C1910.57,732.613,1910.937,732.638,1911.256,732.638Zm.506-4.871a6.658,6.658,0,0,1,.706,2.988c.036.635-.039,1.022-.238,1.22-.307.3-1,.257-2.048.185-.565-.039-1.2-.083-1.959-.086-6.288-.025-25.394-.924-25.637-2.427a4.381,4.381,0,0,1,.675-2.949,3.084,3.084,0,0,0,2.331,1.216C1887.644,728.216,1909.731,727.8,1911.762,727.766Z" transform="translate(-1882.111 -726.059)" fill="#360b1e"/>
            </g>
            <g id="Grupo_1153837" data-name="Grupo 1153837" transform="translate(0.547 4.091)">
              <path id="Trazado_989717" data-name="Trazado 989717" d="M1920.007,714.884a.209.209,0,0,0,.106-.029.213.213,0,0,0,.079-.29,6.037,6.037,0,0,1-.57-3.3c.131-1.386,8.564-4.154,13.848-5.571a.213.213,0,1,0-.11-.411c-1.428.383-13.96,3.807-14.162,5.943a6.34,6.34,0,0,0,.626,3.552A.207.207,0,0,0,1920.007,714.884Z" transform="translate(-1919.164 -705.276)" fill="#360b1e"/>
            </g>
            <g id="Grupo_1153838" data-name="Grupo 1153838" transform="translate(19.486 3.559)">
              <path id="Trazado_989718" data-name="Trazado 989718" d="M1896.959,710.351c.094,0,.187,0,.282-.012a3.165,3.165,0,0,0,2.876-3.422h0a3.162,3.162,0,1,0-3.158,3.435Zm2.734-3.4a2.738,2.738,0,0,1-2.489,2.961,2.733,2.733,0,0,1-2.962-2.487,2.736,2.736,0,1,1,5.451-.474Z" transform="translate(-1893.806 -704.028)" fill="#360b1e"/>
            </g>
          </g>
          <g id="Grupo_1153843" data-name="Grupo 1153843" transform="translate(33.573 164.806)">
            <path id="Trazado_989719" data-name="Trazado 989719" d="M1865.313,644.014s6.818.841,8.759,1.409a14.624,14.624,0,0,1,4.4,2.887l-11.461,21.82s-3.53.507-4.431-1.092.773-10.32.773-10.32,1.171-7.69.973-8.387S1865.313,644.014,1865.313,644.014Z" transform="translate(-1862.282 -644.014)" fill="#fdaf2f" fill-rule="evenodd"/>
            <g id="Grupo_1153840" data-name="Grupo 1153840" transform="translate(3.179 3.519)">
              <path id="Trazado_989720" data-name="Trazado 989720" d="M1866.718,652.8a5.412,5.412,0,0,1,2.889.6c1.946.807.782,1.586-.5,4.2s-10.515,20.329-12.187,19.831a4.171,4.171,0,0,1-2.391-2.076s.988.266,2.063-1.316S1866.718,652.8,1866.718,652.8Z" transform="translate(-1854.317 -652.564)" fill="#fff" fill-rule="evenodd"/>
              <path id="Trazado_989721" data-name="Trazado 989721" d="M1856.682,677.36c2.28,0,12.242-19.752,12.341-19.955.291-.595.573-1.088.821-1.522.522-.914.867-1.517.682-2.056-.123-.36-.468-.641-1.117-.911a5.573,5.573,0,0,0-3.017-.609.214.214,0,0,0-.147.119c-.091.2-9.054,19.656-10.1,21.205-.964,1.418-1.8,1.237-1.834,1.229a.214.214,0,0,0-.246.295,4.355,4.355,0,0,0,2.524,2.191A.374.374,0,0,0,1856.682,677.36ZM1866.77,652.7a6.645,6.645,0,0,1,2.478.606c.52.216.8.423.877.655.122.357-.185.894-.649,1.707-.252.44-.537.94-.834,1.547-2.861,5.86-10.715,20.085-11.935,19.721a3.883,3.883,0,0,1-2.086-1.656,2.824,2.824,0,0,0,1.873-1.412c1.041-1.535,9.3-19.435,10.09-21.16C1866.629,652.707,1866.693,652.7,1866.77,652.7Z" transform="translate(-1854.041 -652.278)" fill="#360b1e"/>
            </g>
            <g id="Grupo_1153841" data-name="Grupo 1153841" transform="translate(0 11.663)">
              <path id="Trazado_989722" data-name="Trazado 989722" d="M1894.659,686.232c.086,0,.138,0,.148,0a.213.213,0,0,0,.2-.227.208.208,0,0,0-.227-.2,5.413,5.413,0,0,1-2.87-.824c-1.057-.642,0-8.513.921-13.324a.213.213,0,0,0-.418-.08c-.405,2.126-2.345,12.783-.723,13.767A5.9,5.9,0,0,0,1894.659,686.232Z" transform="translate(-1891.049 -671.403)" fill="#360b1e"/>
            </g>
            <g id="Grupo_1153842" data-name="Grupo 1153842" transform="translate(3.723 3.631)">
              <path id="Trazado_989723" data-name="Trazado 989723" d="M1881.038,658.253a2.856,2.856,0,0,0,1.014-5.524h0a2.855,2.855,0,1,0-2.032,5.335A2.877,2.877,0,0,0,1881.038,658.253Zm.865-5.126a2.429,2.429,0,1,1-1.859.054,2.408,2.408,0,0,1,1.859-.054Z" transform="translate(-1878.18 -652.54)" fill="#360b1e"/>
            </g>
          </g>
          <path id="Trazado_989724" data-name="Trazado 989724" d="M1929.424,491.1l-14.408,24.93,17.725,22.188-1.829,13.607S1899,519.46,1898.319,516.828s17.953-48.374,17.953-48.374l10.638,1.372Z" transform="translate(-1898.3 -378.407)" fill="#70e8ad" fill-rule="evenodd"/>
          <path id="Trazado_989725" data-name="Trazado 989725" d="M1892.693,470.12s1.144,23.33,1.371,27.9-4.688,75.251-4.688,75.251a88.547,88.547,0,0,0-10.178-3.545c-3.547-.8-7.777-1.488-7.777-1.488s4.918-14.753,4.918-18.411c0-1.459-.108-10.177-.313-20.516-.034-1.727.439-3.368.4-5.161-.313-14.4-1.3-30.152-1.916-33.334-1.144-5.947-2.63-24.245-2.63-24.245Z" transform="translate(-1848.186 -377.328)" fill="#70e8ad" fill-rule="evenodd"/>
          <path id="Trazado_989726" data-name="Trazado 989726" d="M1852.891,394.824a7.525,7.525,0,0,1-1,1.358c-.735.83-11.883,1.493-12.1.47s5.34-3.862,7.7-3.99S1852.334,392.983,1852.891,394.824Z" transform="translate(-1793.531 -334.878)" fill="#360b1e" fill-rule="evenodd"/>
          <path id="Trazado_989727" data-name="Trazado 989727" d="M1858.371,337.365s23.014-1.376,27.954,4.124,5.059,21.558,5.059,21.558-.7-1.677-3.756-1.314a37.2,37.2,0,0,0-7.111,1.507,4.033,4.033,0,0,0-1.842,1.272l.884,35.508-31.648-2.178,2.955-5.925-.368-10.377-2.579-13.163-2.389.126-2.153-.447s-4.735-22.724-2.212-25.317S1858.371,337.365,1858.371,337.365Z" transform="translate(-1832.298 -303.051)" fill="#fff" fill-rule="evenodd"/>
          <g id="Grupo_1153844" data-name="Grupo 1153844" transform="translate(46.222 61.237)">
            <path id="Trazado_989728" data-name="Trazado 989728" d="M1868.9,417.053h.022a.212.212,0,0,0,.19-.233l-.7-7.025.429-8.773a.213.213,0,0,0-.2-.223.205.205,0,0,0-.222.2l-.428,8.8.7,7.057A.211.211,0,0,0,1868.9,417.053Z" transform="translate(-1867.989 -400.797)" fill="#360b1e"/>
          </g>
          <path id="Trazado_989729" data-name="Trazado 989729" d="M1861.142,389.942a1.117,1.117,0,0,1,1.139,1.088l1.2,53.409A2.845,2.845,0,0,0,1867,447.3l3.457-.649a5.043,5.043,0,0,0,3.914-4.627l.937-46.332a1.111,1.111,0,0,1,2.221.043l-.931,46.332a7.278,7.278,0,0,1-5.736,6.775l-3.451.641a5.8,5.8,0,0,1-1.211.1,5.031,5.031,0,0,1-4.95-5.1l-1.2-53.41A1.114,1.114,0,0,1,1861.142,389.942Z" transform="translate(-1826.804 -333.327)" fill="#360b1e" fill-rule="evenodd"/>
          <g id="Grupo_1153845" data-name="Grupo 1153845" transform="translate(32.529 96.303)">
            <path id="Trazado_989730" data-name="Trazado 989730" d="M1874.5,483.645H1860.03a2.24,2.24,0,0,0-2.24,2.239h0a2.24,2.24,0,0,0,2.24,2.239H1874.5a2.239,2.239,0,0,0,2.24-2.239h0A2.241,2.241,0,0,0,1874.5,483.645Z" transform="translate(-1857.575 -483.432)" fill="#fdd9b7" fill-rule="evenodd"/>
            <path id="Trazado_989731" data-name="Trazado 989731" d="M1859.747,488.049h14.468a2.452,2.452,0,1,0,0-4.9h-14.468a2.452,2.452,0,1,0,0,4.9Zm14.47-4.478a2.026,2.026,0,1,1,0,4.053h-14.468a2.026,2.026,0,1,1,0-4.053Z" transform="translate(-1857.294 -483.145)" fill="#360b1e"/>
          </g>
          <g id="Grupo_1153846" data-name="Grupo 1153846" transform="translate(7.85 33.568)">
            <path id="Trazado_989732" data-name="Trazado 989732" d="M1843.464,367.257a.206.206,0,0,0,.05-.006.212.212,0,0,0,.156-.257c-.049-.2-4.947-20.417-2.618-24.471,1.614-2.808,15.656-5.881,20.663-6.209,9.131-.6,21.573,2.851,24.224,4.152,2.269,1.113,4.417,16.09,5.054,21.766a.218.218,0,0,0,.236.188.212.212,0,0,0,.188-.236c-.094-.843-2.349-20.658-5.29-22.1-2.678-1.314-15.245-4.8-24.44-4.2-5.366.351-19.263,3.393-21,6.422-2.414,4.2,2.369,23.946,2.573,24.785A.215.215,0,0,0,1843.464,367.257Z" transform="translate(-1840.005 -335.819)" fill="#360b1e"/>
          </g>
          <path id="Trazado_989733" data-name="Trazado 989733" d="M1904.011,268.888s5.391-.044,4.771,2.342-7.069,6.583-7.069,6.583l-13.986-8.885s-12.6-6.009-11.889-7.123,10.792,2.686,10.792,2.686-5.736-5.884-4.218-6.724,8.592,3.14,8.592,3.14-2.787-4.38-.162-3.876S1902.563,265.215,1904.011,268.888Z" transform="translate(-1864.814 -256.99)" fill="#fc9f07" fill-rule="evenodd"/>
          <path id="Trazado_989734" data-name="Trazado 989734" d="M1904.011,268.888s5.391-.044,4.771,2.342-7.069,6.583-7.069,6.583l-13.986-8.885s-12.6-6.009-11.889-7.123,10.792,2.686,10.792,2.686-5.736-5.884-4.218-6.724,8.592,3.14,8.592,3.14-2.787-4.38-.162-3.876S1902.563,265.215,1904.011,268.888Z" transform="translate(-1864.814 -256.99)" fill="#fc9f07" fill-rule="evenodd"/>
          <g id="Grupo_1153847" data-name="Grupo 1153847" transform="translate(37.311 205.897)">
            <path id="Trazado_989735" data-name="Trazado 989735" d="M1833.029,740.935h24.589a.213.213,0,0,0,0-.426h-24.589a.213.213,0,0,0,0,.426Z" transform="translate(-1832.816 -740.509)" fill="#360b1e"/>
          </g>
          <g id="Grupo_1153848" data-name="Grupo 1153848" transform="translate(39.41 209.589)">
            <path id="Trazado_989736" data-name="Trazado 989736" d="M1865.843,749.6h8.516a.213.213,0,1,0,0-.426h-8.516a.213.213,0,0,0,0,.426Z" transform="translate(-1865.63 -749.179)" fill="#360b1e"/>
          </g>
          <path id="Trazado_989737" data-name="Trazado 989737" d="M1902.156,305.934s1.714,7.18,1.725,10.44a25.746,25.746,0,0,0,.358,4.835s-4.294,6.329-8.042,5.906-3.7-4.763-3.7-4.763.2-6.556-.087-7.208S1902.156,305.934,1902.156,305.934Z" transform="translate(-1867.285 -285.092)" fill="#ffbfbe" fill-rule="evenodd"/>
          <path id="Trazado_989738" data-name="Trazado 989738" d="M1887.008,298.423s.453-3.847,2.729-2.722,1.757,7.732-.206,8.28-3.149.693-3.234-.412A37.3,37.3,0,0,1,1887.008,298.423Z" transform="translate(-1851.681 -279.099)" fill="#ffbfbe" fill-rule="evenodd"/>
          <path id="Trazado_989739" data-name="Trazado 989739" d="M1906.55,307.236s-1.08,8.3-4.286,11.6-5.557,2.654-5.557,2.654l-.117-5.782Z" transform="translate(-1871.381 -285.84)" fill="#f15d85" fill-rule="evenodd"/>
          <path id="Trazado_989740" data-name="Trazado 989740" d="M1911.174,288.344s-.027,6.887-2,9.92-4.816,7.059-9.213,6.317c-4.067-.687-4.925-10.268-4.15-14.765a70.61,70.61,0,0,1,1.66-7.471s4.1,2.356,5.941,3.374S1910.876,286.682,1911.174,288.344Z" transform="translate(-1875.563 -271.548)" fill="#ffbfbe" fill-rule="evenodd"/>
          <path id="Trazado_989741" data-name="Trazado 989741" d="M1889.045,303.752s1.9-2.336,2.68-1.844-.128,3.079-1.112,3.278A1.375,1.375,0,0,1,1889.045,303.752Z" transform="translate(-1853.638 -282.742)" fill="#f15d85" fill-rule="evenodd"/>
          <g id="Grupo_1153849" data-name="Grupo 1153849" transform="translate(34.679 18.672)">
            <path id="Trazado_989742" data-name="Trazado 989742" d="M1889.068,304.226a.214.214,0,0,0,.2-.132c.772-1.871,3.213-2.834,3.238-2.844a.213.213,0,0,0-.154-.4,6.688,6.688,0,0,0-3.478,3.078.213.213,0,0,0,.115.278A.217.217,0,0,0,1889.068,304.226Z" transform="translate(-1888.855 -300.839)" fill="#360b1e"/>
          </g>
          <g id="Grupo_1153850" data-name="Grupo 1153850" transform="translate(36.433 4.512)">
            <path id="Trazado_989743" data-name="Trazado 989743" d="M1888.759,275.786l.031,0a.213.213,0,0,0,.182-.193c.023-.274.539-6.717-1.894-7.777-.408-.178-.985-.377-1.288-.062-.4.416,0,1.341.655,2.7.157.327.306.636.409.887.553,1.352,1.7,4.277,1.709,4.307A.214.214,0,0,0,1888.759,275.786Zm-2.525-7.774a1.818,1.818,0,0,1,.672.192c1.633.712,1.736,4.531,1.688,6.366-.386-.983-.99-2.513-1.348-3.387-.107-.264-.259-.578-.419-.911-.334-.7-.957-1.99-.732-2.224A.207.207,0,0,1,1886.234,268.012Z" transform="translate(-1885.629 -267.586)" fill="#fc9f07"/>
          </g>
          <g id="Grupo_1153851" data-name="Grupo 1153851" transform="translate(39.269 9.227)">
            <path id="Trazado_989744" data-name="Trazado 989744" d="M1875.938,281.876a.213.213,0,0,0,.176-.092,16.869,16.869,0,0,1,2.091-2.509c.745-.634,1.927.56,1.939.573a.213.213,0,0,0,.305-.3c-.06-.061-1.474-1.49-2.52-.6a16.942,16.942,0,0,0-2.167,2.592.213.213,0,0,0,.175.334Z" transform="translate(-1875.725 -278.659)" fill="#fc9f07"/>
          </g>
          <g id="Grupo_1153852" data-name="Grupo 1153852" transform="translate(17.088 0.984)">
            <path id="Trazado_989745" data-name="Trazado 989745" d="M1917.77,271.512a.213.213,0,0,0,.068-.415c-.129-.043-12.927-4.385-15.061-11.644a.213.213,0,0,0-.408.12c2.2,7.473,14.8,11.749,15.334,11.928A.193.193,0,0,0,1917.77,271.512Z" transform="translate(-1902.359 -259.301)" fill="#fdd9b7"/>
          </g>
          <g id="Grupo_1153853" data-name="Grupo 1153853" transform="translate(28.072 3.375)">
            <path id="Trazado_989746" data-name="Trazado 989746" d="M1899.07,274.714a.21.21,0,0,0,.125-.04.213.213,0,0,0,.048-.3c-.765-1.065-7.544-10.372-10.184-9.388a.213.213,0,1,0,.149.4c1.979-.736,7.664,6.418,9.689,9.238A.215.215,0,0,0,1899.07,274.714Z" transform="translate(-1888.921 -264.916)" fill="#fdd9b7"/>
          </g>
          <g id="Grupo_1153854" data-name="Grupo 1153854" transform="translate(33.713 15.582)">
            <path id="Trazado_989747" data-name="Trazado 989747" d="M1895.914,304.354a.214.214,0,0,0,.2-.148,40.184,40.184,0,0,0,1.381-10.469.213.213,0,0,0-.41.116,41.072,41.072,0,0,1-1.377,10.224.213.213,0,0,0,.138.267A.209.209,0,0,0,1895.914,304.354Z" transform="translate(-1895.701 -293.582)" fill="#360b1e"/>
          </g>
          <g id="Grupo_1153855" data-name="Grupo 1153855" transform="translate(15.546 85.157)">
            <path id="Trazado_989748" data-name="Trazado 989748" d="M1932.278,466.811a.212.212,0,0,0,.182-.1,43.467,43.467,0,0,0,4.113-9.467.213.213,0,1,0-.41-.114,43.011,43.011,0,0,1-4.067,9.361.213.213,0,0,0,.072.292A.209.209,0,0,0,1932.278,466.811Z" transform="translate(-1932.065 -456.97)" fill="#360b1e"/>
          </g>
          <g id="Grupo_1153856" data-name="Grupo 1153856" transform="translate(11.817 46.729)">
            <path id="Trazado_989749" data-name="Trazado 989749" d="M1941.837,409.19a.214.214,0,0,0,.213-.212c0-.067.04-6.729,0-8.674a86.21,86.21,0,0,0-2.124-11.692c-.671-2.406-4.343-21.521-4.38-21.713a.213.213,0,1,0-.418.08c.151.788,3.712,19.325,4.388,21.748a85.516,85.516,0,0,1,2.109,11.587c.038,1.94,0,8.6,0,8.663a.213.213,0,0,0,.212.214Z" transform="translate(-1935.126 -366.726)" fill="#360b1e"/>
          </g>
          <g id="Grupo_1153857" data-name="Grupo 1153857" transform="translate(27.293 18.207)">
            <path id="Trazado_989750" data-name="Trazado 989750" d="M1908.64,301.69a.21.21,0,0,0,.154-.066.212.212,0,0,0-.008-.3c-.088-.083-2.161-2.021-4.393-1.481a.213.213,0,1,0,.1.414c2.008-.484,3.981,1.358,4,1.376A.218.218,0,0,0,1908.64,301.69Z" transform="translate(-1904.23 -299.747)" fill="#360b1e"/>
          </g>
          <g id="Grupo_1153858" data-name="Grupo 1153858" transform="translate(20.392 16.69)">
            <path id="Trazado_989751" data-name="Trazado 989751" d="M1924.843,298.128a.213.213,0,0,0,.147-.367c-.088-.083-2.159-2.021-4.4-1.481a.213.213,0,1,0,.1.414c2.007-.484,3.983,1.358,4,1.376A.215.215,0,0,0,1924.843,298.128Z" transform="translate(-1920.431 -296.185)" fill="#360b1e"/>
          </g>
          <path id="Trazado_989752" data-name="Trazado 989752" d="M1911.134,301.372c.062-.574-.2-1.073-.575-1.114s-.739.391-.8.966.2,1.073.575,1.114S1911.073,301.947,1911.134,301.372Z" transform="translate(-1881.577 -281.832)" fill="#360b1e" fill-rule="evenodd"/>
          <path id="Trazado_989753" data-name="Trazado 989753" d="M1927.243,297.8c.062-.574-.2-1.073-.575-1.114s-.739.391-.8.966.2,1.073.575,1.114S1927.184,298.378,1927.243,297.8Z" transform="translate(-1904.547 -279.783)" fill="#360b1e" fill-rule="evenodd"/>
          <path id="Trazado_989754" data-name="Trazado 989754" d="M1907.162,295.286c.468-1.063-4.52-2.641-5.083-1.391S1906.732,296.266,1907.162,295.286Z" transform="translate(-1874.344 -277.916)" fill="#fc9f07" fill-rule="evenodd"/>
          <path id="Trazado_989755" data-name="Trazado 989755" d="M1924.748,290.193c.466-1.063-4.016-2.523-4.576-1.274-.285.638.645.784,1.965,1.092C1923.4,290.307,1924.534,290.673,1924.748,290.193Z" transform="translate(-1899.633 -275.047)" fill="#fc9f07" fill-rule="evenodd"/>
          <path id="Trazado_989756" data-name="Trazado 989756" d="M1921.892,312.308l-3.062-1.186s.179,1.367,1.139,1.66A2.386,2.386,0,0,0,1921.892,312.308Z" transform="translate(-1896.194 -288.071)" fill="#f15d85" fill-rule="evenodd"/>
          <path id="Trazado_989757" data-name="Trazado 989757" d="M1919.5,318.439s-3,.539-4.207.14a15.247,15.247,0,0,1-2.5-1.156s.027,3.308,2.076,4.315S1919.358,319.167,1919.5,318.439Z" transform="translate(-1891.237 -291.689)" fill="#360b1e" fill-rule="evenodd"/>
          <path id="Trazado_989758" data-name="Trazado 989758" d="M1915.543,318.172a12.261,12.261,0,0,0,1.9.836,8.1,8.1,0,0,0,3.066.017l-.185.869a5.644,5.644,0,0,1-2.932.551,3.3,3.3,0,0,1-1.9-1.278Z" transform="translate(-1893.383 -292.119)" fill="#fff" fill-rule="evenodd"/>
          <g id="Grupo_1153859" data-name="Grupo 1153859" transform="translate(43.255 52.067)">
            <path id="Trazado_989759" data-name="Trazado 989759" d="M1873.2,389.206a.22.22,0,0,0,.092-.021.213.213,0,0,0,.1-.285c-.931-1.933-2.649-9.4-2.667-9.473a.21.21,0,0,0-.255-.16.212.212,0,0,0-.159.255c.07.309,1.747,7.587,2.7,9.563A.217.217,0,0,0,1873.2,389.206Z" transform="translate(-1870.3 -379.261)" fill="#360b1e"/>
          </g>
          <g id="Grupo_1153860" data-name="Grupo 1153860" transform="translate(30.988 54.863)">
            <path id="Trazado_989760" data-name="Trazado 989760" d="M1874.441,386.338l10.7,1.074c.537,1.761.594,2.97,1.248,4.858l-12.411-1.355a2.3,2.3,0,0,1,.46-4.577Z" transform="translate(-1871.704 -386.114)" fill="#fdd9b7" fill-rule="evenodd"/>
            <path id="Trazado_989761" data-name="Trazado 989761" d="M1886.1,392.2a.214.214,0,0,0,.2-.283,21.136,21.136,0,0,1-.715-2.7c-.143-.666-.29-1.355-.53-2.146a.213.213,0,0,0-.183-.15l-10.7-1.073a2.513,2.513,0,0,0-.5,5l12.409,1.355Zm-1.413-4.873c.212.719.349,1.357.481,1.976a22.763,22.763,0,0,0,.622,2.437l-12.08-1.319a2.087,2.087,0,0,1,.415-4.153h0Zm-10.54-1.271h0Z" transform="translate(-1871.409 -385.827)" fill="#360b1e"/>
          </g>
          <path id="Trazado_989762" data-name="Trazado 989762" d="M1871.185,388.5l1.6.158c.536,1.761.9,2.891,1.557,4.778l-2.545-.252Z" transform="translate(-1828.355 -332.501)" fill="#360b1e" fill-rule="evenodd"/>
          <path id="Trazado_989763" data-name="Trazado 989763" d="M1856.915,395.8s3.323,9.818,1.537,12.812-9.839,16.222-11.8,20.144c-1.31,2.616-2.938,5.606-2.938,5.606l-5.319-2.551s2.989-13.731,5.237-18.4a61.16,61.16,0,0,1,3.924-7.129s-1.684-6.585-2.02-8.147c-.219-1.021,5.071-2.241,8.514-2.594A6.309,6.309,0,0,1,1856.915,395.8Z" transform="translate(-1799.028 -336.518)" fill="#ffbfbe" fill-rule="evenodd"/>
          <path id="Trazado_989764" data-name="Trazado 989764" d="M1860.645,407.011a6.6,6.6,0,0,0-2.71.323,7.836,7.836,0,0,0-2.291,1.484l-2.033-8.357a1.631,1.631,0,0,1,.332-.322,2.69,2.69,0,0,1,.475-.257s1.032,5.322,2.678,5.678A14.931,14.931,0,0,1,1860.645,407.011Z" transform="translate(-1807.175 -339.034)" fill="#f15d85" fill-rule="evenodd"/>
          <path id="Trazado_989765" data-name="Trazado 989765" d="M1872.14,478.658a4.137,4.137,0,0,1,1.137-2.559,14.976,14.976,0,0,0,2.093-3.546s-3.794.32-5.54.221a6.118,6.118,0,0,0-2.251.112l-.724,3.225Z" transform="translate(-1827.539 -380.759)" fill="#f15d85" fill-rule="evenodd"/>
          <path id="Trazado_989766" data-name="Trazado 989766" d="M1876.991,490.6c1.069-.142.745-4.593.731-6.1s.224-7.228-.471-8.2-3.711.073-3.711.073a7.635,7.635,0,0,0-2.906-1.695,1.725,1.725,0,0,0-1.91,1.153s-1.6-1.154-2.655-.955-1.98,2.214-1.9,3.835,1.737,9.756,2.8,9.988.822-2.972.822-2.972.483,5.256,1.652,5.158.745-4.593.745-4.593,1.322,4.3,2.4,4.456,1.052-8.583,1.052-8.583a56.553,56.553,0,0,0,1.837,6.789C1876.19,490.551,1875.922,490.743,1876.991,490.6Z" transform="translate(-1828.801 -381.959)" fill="#ffbfbe" fill-rule="evenodd"/>
          <path id="Trazado_989767" data-name="Trazado 989767" d="M1880.38,524.455a1.462,1.462,0,0,1,1.388,1.523l-1.552,86.232a1.411,1.411,0,1,1-2.817-.06l1.55-86.23A1.447,1.447,0,0,1,1880.38,524.455Z" transform="translate(-1838.429 -410.56)" fill="#360b1e" fill-rule="evenodd"/>
          <g id="Grupo_1153861" data-name="Grupo 1153861" transform="translate(30.705 69.254)">
            <path id="Trazado_989768" data-name="Trazado 989768" d="M1872.844,429.159a.213.213,0,0,0,.1-.026l14.24-7.748a.213.213,0,0,0-.081-.4l-13.6-1.361a.213.213,0,0,0-.042.424l12.911,1.292-13.634,7.418a.213.213,0,0,0-.085.289A.218.218,0,0,0,1872.844,429.159Z" transform="translate(-1872.63 -419.624)" fill="#360b1e"/>
          </g>
          <g id="Grupo_1153862" data-name="Grupo 1153862" transform="translate(26.143 108.581)">
            <path id="Trazado_989769" data-name="Trazado 989769" d="M1914.452,576.932h0a.213.213,0,0,0,.213-.214c0-.255-.065-25.611-.169-30.131s-1.7-34.11-1.721-34.408a.2.2,0,0,0-.224-.2.213.213,0,0,0-.2.224c.016.3,1.617,29.879,1.72,34.395s.168,29.867.168,30.123A.212.212,0,0,0,1914.452,576.932Z" transform="translate(-1912.35 -511.977)" fill="#360b1e"/>
          </g>
          <path id="Trazado_989770" data-name="Trazado 989770" d="M1925.534,512.392l-9.219,27.931,9.758-16.809Z" transform="translate(-1899.304 -403.634)" fill="#360b1e" fill-rule="evenodd"/>
          <g id="Grupo_1153863" data-name="Grupo 1153863" transform="translate(1.388 95.942)">
            <path id="Trazado_989771" data-name="Trazado 989771" d="M1940,552.155a.213.213,0,0,0,.156-.358L1914.19,523.83l16.495-41.241a.213.213,0,1,0-.395-.158L1913.745,523.8a.213.213,0,0,0,.042.224l26.056,28.066A.207.207,0,0,0,1940,552.155Z" transform="translate(-1913.73 -482.297)" fill="#fff"/>
          </g>
          <g id="Grupo_1153864" data-name="Grupo 1153864" transform="translate(26.656 99.306)">
            <path id="Trazado_989772" data-name="Trazado 989772" d="M1904.051,580.444a.213.213,0,0,0,.2-.133c.059-.148,5.932-14.933,4.893-30.236-1.036-15.256-4.233-59.238-4.265-59.68a.213.213,0,0,0-.425.031c.032.442,3.229,44.423,4.264,59.678,1.032,15.2-4.8,29.9-4.863,30.048a.213.213,0,0,0,.118.277A.189.189,0,0,0,1904.051,580.444Z" transform="translate(-1903.837 -490.197)" fill="#fff"/>
          </g>
          <g id="Grupo_1153865" data-name="Grupo 1153865" transform="translate(44.245 95.616)">
            <path id="Trazado_989773" data-name="Trazado 989773" d="M1867.266,494.947a1.05,1.05,0,0,0,.261-.034c1.453-.375.761-10.189.514-13.187a.222.222,0,0,0-.229-.195.213.213,0,0,0-.195.229c.492,5.976.557,12.546-.2,12.74a.655.655,0,0,1-.563-.124c-1.647-1.152-2.742-8.165-3.092-11.712a.218.218,0,0,0-.233-.191.213.213,0,0,0-.191.233c.042.427,1.055,10.469,3.272,12.02A1.119,1.119,0,0,0,1867.266,494.947Z" transform="translate(-1863.341 -481.531)" fill="#360b1e"/>
          </g>
          <g id="Grupo_1153866" data-name="Grupo 1153866" transform="translate(41.346 100.448)">
            <path id="Trazado_989774" data-name="Trazado 989774" d="M1875.7,501.4a.571.571,0,0,0,.37-.14c.84-.7.934-6.93.945-8.172a.213.213,0,0,0-.211-.215h0a.213.213,0,0,0-.213.211c-.026,3.006-.288,7.427-.792,7.849a.136.136,0,0,1-.15.032c-.572-.2-1.512-2.435-1.971-4.689a.213.213,0,0,0-.418.085c.3,1.482,1.249,4.657,2.248,5.005A.594.594,0,0,0,1875.7,501.4Z" transform="translate(-1873.253 -492.877)" fill="#360b1e"/>
          </g>
          <g id="Grupo_1153867" data-name="Grupo 1153867" transform="translate(37.309 200.388)">
            <path id="Trazado_989775" data-name="Trazado 989775" d="M1882.413,728.18a2.988,2.988,0,0,1-1.963.558,3.092,3.092,0,0,1-1.869-.664l-1.056,8.319a5.161,5.161,0,0,0,2.71.881,7.577,7.577,0,0,0,3.053-.839Z" transform="translate(-1877.311 -727.861)" fill="#fff" fill-rule="evenodd"/>
            <path id="Trazado_989776" data-name="Trazado 989776" d="M1879.954,737.2a7.71,7.71,0,0,0,3.154-.864.212.212,0,0,0,.111-.21l-.875-8.255a.214.214,0,0,0-.348-.141,2.828,2.828,0,0,1-1.817.509,2.929,2.929,0,0,1-1.735-.607.213.213,0,0,0-.356.129l-1.055,8.319a.214.214,0,0,0,.086.2A5.346,5.346,0,0,0,1879.954,737.2Zm2.827-1.176a7.205,7.205,0,0,1-2.826.75,4.94,4.94,0,0,1-2.482-.773l.994-7.833a3.594,3.594,0,0,0,1.692.5,3.362,3.362,0,0,0,1.8-.4Z" transform="translate(-1877.031 -727.574)" fill="#360b1e"/>
          </g>
          <g id="Grupo_1153868" data-name="Grupo 1153868" transform="translate(9.485 186.09)">
            <path id="Trazado_989777" data-name="Trazado 989777" d="M1948.236,694.56a2.8,2.8,0,0,1-1.833.539,2.879,2.879,0,0,1-1.755-.6l-.913,7.795a4.84,4.84,0,0,0,2.542.8,7.084,7.084,0,0,0,2.851-.811Z" transform="translate(-1943.52 -694.282)" fill="#fff" fill-rule="evenodd"/>
            <path id="Trazado_989778" data-name="Trazado 989778" d="M1945.961,703.014H1946a7.218,7.218,0,0,0,2.951-.838.213.213,0,0,0,.109-.211l-.892-7.716a.213.213,0,0,0-.349-.138,2.614,2.614,0,0,1-1.686.488,2.712,2.712,0,0,1-1.62-.549.213.213,0,0,0-.355.133l-.914,7.795a.212.212,0,0,0,.089.2A5.059,5.059,0,0,0,1945.961,703.014Zm2.657-1.147a6.717,6.717,0,0,1-2.624.72h-.03a4.628,4.628,0,0,1-2.283-.693l.857-7.31a3.366,3.366,0,0,0,1.576.439,3.109,3.109,0,0,0,1.669-.383Z" transform="translate(-1943.238 -693.995)" fill="#360b1e"/>
          </g>
          <path id="Trazado_989779" data-name="Trazado 989779" d="M1883.378,727.479c.113-.056-.59-.247-1.16-.3s-2.875-.115-2.934.183,1.652.773,2.2.728a5.5,5.5,0,0,0,1.356-.213A2,2,0,0,0,1883.378,727.479Z" transform="translate(-1840.851 -526.937)" fill="#360b1e" fill-rule="evenodd"/>
          <g id="Grupo_1153869" data-name="Grupo 1153869" transform="translate(11.062 64.65)">
            <path id="Trazado_989780" data-name="Trazado 989780" d="M1944.8,409.781a11.879,11.879,0,0,0,1.857-.152.213.213,0,0,0-.073-.42c-.029.005-2.9.495-4.142-.361a.213.213,0,1,0-.242.35A4.807,4.807,0,0,0,1944.8,409.781Z" transform="translate(-1942.105 -408.811)" fill="#360b1e"/>
          </g>
          <g id="Grupo_1153870" data-name="Grupo 1153870" transform="translate(46.253 58.924)">
            <path id="Trazado_989781" data-name="Trazado 989781" d="M1838.1,430.721a.213.213,0,0,0,.183-.1c.475-.793,11.643-19.47,13.123-22.855,1.511-3.453-1.781-11.906-1.922-12.264a.213.213,0,1,0-.4.156c.034.086,3.368,8.646,1.927,11.938-1.47,3.36-12.982,22.613-13.1,22.807a.212.212,0,0,0,.073.292A.209.209,0,0,0,1838.1,430.721Z" transform="translate(-1837.883 -395.364)" fill="#360b1e"/>
          </g>
          <g id="Grupo_1153871" data-name="Grupo 1153871" transform="translate(18.318 8.678)">
            <path id="Trazado_989782" data-name="Trazado 989782" d="M1915.492,284.418a.213.213,0,0,0,.025-.424c-.04,0-4.04-.495-6.052-1.742s-7.309-4.147-8.619-4.855a.213.213,0,0,0-.2.374c1.307.708,6.6,3.6,8.6,4.843,2.092,1.3,6.058,1.783,6.225,1.8Z" transform="translate(-1900.532 -277.37)" fill="#360b1e"/>
          </g>
          <g id="Grupo_1153872" data-name="Grupo 1153872" transform="translate(35.452 24.994)">
            <path id="Trazado_989783" data-name="Trazado 989783" d="M1893.39,326.942h.01a.213.213,0,0,0,.2-.223c-.017-.368-.434-9.036-1.316-10.912a.213.213,0,1,0-.385.181c.847,1.8,1.272,10.662,1.277,10.751A.216.216,0,0,0,1893.39,326.942Z" transform="translate(-1891.88 -315.685)" fill="#360b1e"/>
          </g>
          <g id="Grupo_1153873" data-name="Grupo 1153873" transform="translate(34.108 16.211)">
            <path id="Trazado_989784" data-name="Trazado 989784" d="M1888.2,304.293a2.675,2.675,0,0,0,2.453-1.246,8.242,8.242,0,0,0,.612-5.794,3.046,3.046,0,0,0-1.419-1.979,1.643,1.643,0,0,0-1.454-.081c-1.162.509-1.692,2.325-1.714,2.4a.213.213,0,0,0,.409.117c.005-.017.5-1.7,1.477-2.13a1.223,1.223,0,0,1,1.091.072,2.641,2.641,0,0,1,1.2,1.718,7.76,7.76,0,0,1-.568,5.457c-1.11,1.862-4.029.661-4.059.649a.213.213,0,1,0-.165.393A6.265,6.265,0,0,0,1888.2,304.293Z" transform="translate(-1885.936 -295.06)" fill="#360b1e"/>
          </g>
        </g>
      </g>
    </g>
  </g>
</svg>
