<svg xmlns="http://www.w3.org/2000/svg" xmlns:xlink="http://www.w3.org/1999/xlink" width="108" height="108" viewBox="0 0 108 108">
  <defs>
    <filter id="Trazado_982547" x="0" y="0" width="108" height="108" filterUnits="userSpaceOnUse">
      <feOffset dy="3" input="SourceAlpha"/>
      <feGaussianBlur stdDeviation="3" result="blur"/>
      <feFlood flood-opacity="0.161"/>
      <feComposite operator="in" in2="blur"/>
      <feComposite in="SourceGraphic"/>
    </filter>
  </defs>
  <g id="Grupo_1154156" data-name="Grupo 1154156" transform="translate(-171 -2705)">
    <g id="Grupo_1153182" data-name="Grupo 1153182" transform="translate(-83 2192)">
      <g id="Grupo_1149598" data-name="Grupo 1149598" transform="translate(80 315)">
        <g id="Grupo_1148770" data-name="Grupo 1148770" transform="translate(-27 -2583)">
          <g id="Grupo_1146954" data-name="Grupo 1146954" transform="translate(-415 -1202)">
            <g transform="matrix(1, 0, 0, 1, 616, 3983)" filter="url(#Trazado_982547)">
              <g id="Trazado_982547-2" data-name="Trazado 982547" transform="translate(9 6)" fill="#fef6e8">
                <path d="M 45 88.5 C 39.12687683105469 88.5 33.43022537231445 87.35007476806641 28.06830024719238 85.08217620849609 C 22.88852500915527 82.89131164550781 18.23629951477051 79.75458526611328 14.2408504486084 75.75914764404297 C 10.24541282653809 71.76370239257812 7.108687400817871 67.11147308349609 4.917825222015381 61.93170166015625 C 2.649924993515015 56.56977462768555 1.5 50.87312316894531 1.5 45 C 1.5 39.12687683105469 2.649924993515015 33.43022537231445 4.917825222015381 28.06830024719238 C 7.108687400817871 22.88852500915527 10.24541282653809 18.23629951477051 14.2408504486084 14.2408504486084 C 18.23629951477051 10.24541282653809 22.88852500915527 7.108687400817871 28.06830024719238 4.917825222015381 C 33.43022537231445 2.649924993515015 39.12687683105469 1.5 45 1.5 C 50.87312316894531 1.5 56.56977462768555 2.649924993515015 61.93170166015625 4.917825222015381 C 67.11147308349609 7.108687400817871 71.76370239257812 10.24541282653809 75.75914764404297 14.2408504486084 C 79.75458526611328 18.23629951477051 82.89131164550781 22.88852500915527 85.08217620849609 28.06830024719238 C 87.35007476806641 33.43022537231445 88.5 39.12687683105469 88.5 45 C 88.5 50.87312316894531 87.35007476806641 56.56977462768555 85.08217620849609 61.93170166015625 C 82.89131164550781 67.11147308349609 79.75458526611328 71.76370239257812 75.75914764404297 75.75914764404297 C 71.76370239257812 79.75458526611328 67.11147308349609 82.89131164550781 61.93170166015625 85.08217620849609 C 56.56977462768555 87.35007476806641 50.87312316894531 88.5 45 88.5 Z" stroke="none"/>
                <path d="M 45 3 C 39.32871246337891 3 33.82865524291992 4.110054016113281 28.65262985229492 6.299339294433594 C 23.65165710449219 8.414573669433594 19.15968322753906 11.44334411621094 15.301513671875 15.301513671875 C 11.44334411621094 19.15968322753906 8.414573669433594 23.65165710449219 6.299339294433594 28.65262985229492 C 4.110054016113281 33.82865524291992 3 39.32871246337891 3 45 C 3 50.67128753662109 4.110054016113281 56.17134475708008 6.299339294433594 61.34737396240234 C 8.414573669433594 66.34834289550781 11.44334411621094 70.84031677246094 15.301513671875 74.698486328125 C 19.15968322753906 78.55665588378906 23.65165710449219 81.58542633056641 28.65262985229492 83.70066070556641 C 33.82865524291992 85.88994598388672 39.32871246337891 87 45 87 C 50.67128753662109 87 56.17134475708008 85.88994598388672 61.34737396240234 83.70066070556641 C 66.34834289550781 81.58542633056641 70.84031677246094 78.55665588378906 74.698486328125 74.698486328125 C 78.55665588378906 70.84031677246094 81.58542633056641 66.34834289550781 83.70066070556641 61.34737396240234 C 85.88994598388672 56.17134475708008 87 50.67128753662109 87 45 C 87 39.32871246337891 85.88994598388672 33.82865524291992 83.70066070556641 28.65262985229492 C 81.58542633056641 23.65165710449219 78.55665588378906 19.15968322753906 74.698486328125 15.301513671875 C 70.84031677246094 11.44334411621094 66.34834289550781 8.414573669433594 61.34737396240234 6.299339294433594 C 56.17134475708008 4.110054016113281 50.67128753662109 3 45 3 M 45 0 C 69.85281372070312 0 90 20.14718627929688 90 45 C 90 69.85281372070312 69.85281372070312 90 45 90 C 20.14718627929688 90 0 69.85281372070312 0 45 C 0 20.14718627929688 20.14718627929688 0 45 0 Z" stroke="none" fill="#fdaf2f"/>
              </g>
            </g>
          </g>
        </g>
      </g>
    </g>
    <g id="reunion" transform="translate(194 2726)">
      <g id="Grupo_1154154" data-name="Grupo 1154154" transform="translate(1.953 1.953)">
        <g id="Grupo_1154132" data-name="Grupo 1154132" transform="translate(32.417 47.414)">
          <path id="Trazado_990889" data-name="Trazado 990889" d="M38.117,54.829a8.247,8.247,0,0,1,5.253-2.708,1.806,1.806,0,0,0,.953-.391l.82.82a4.6,4.6,0,0,0,6.5,0l.82-.82a1.806,1.806,0,0,0,.953.391,8.294,8.294,0,0,1,7.37,8.238v1.163H36V60.359a8.245,8.245,0,0,1,2.117-5.53Z" transform="translate(-36 -51.73)" fill="#fcd770"/>
        </g>
        <g id="Grupo_1154133" data-name="Grupo 1154133" transform="translate(22.968 22.911)">
          <path id="Trazado_990890" data-name="Trazado 990890" d="M39.028,35.517l1.278,1.926h-.953a1.912,1.912,0,0,0-1.907,1.907,1.921,1.921,0,0,0,1.907,1.907h1.907v.953A6.667,6.667,0,0,0,44.987,48.2l-.486,1.44a1.92,1.92,0,0,1-1.592,1.287,8.294,8.294,0,0,0-7.37,8.238V50.876a9.614,9.614,0,0,0-7.523-9.382,1.432,1.432,0,0,1-.4-.143,1.9,1.9,0,0,1-.877-.829,1.985,1.985,0,0,1-.124-.286l-.524-1.573a6.632,6.632,0,0,0,3.652-5.034h1.983a1.921,1.921,0,0,0,1.907-1.907,1.912,1.912,0,0,0-1.907-1.907L32.869,28.1a4.6,4.6,0,0,0,.648-1.506l1.888-.372a1.911,1.911,0,0,0,.524-.191l1.039,2.584a1.9,1.9,0,0,0,1.764,1.2h2.527l-.315.1a3.769,3.769,0,0,0-1.84,1.354,3.73,3.73,0,0,0-.706,2.183,3.689,3.689,0,0,0,.629,2.059Z" transform="translate(-26.09 -26.03)" fill="#ef7385"/>
        </g>
        <g id="Grupo_1154134" data-name="Grupo 1154134" transform="translate(0 38.013)">
          <path id="Trazado_990891" data-name="Trazado 990891" d="M28.7,61.063H15.348V51.528l-1.84,1.84A6.742,6.742,0,0,1,2,48.6V41.994H7.721v6.674L8.9,46.6a9.312,9.312,0,0,1,3.347-3.375,9.172,9.172,0,0,1,4.586-1.23,1.717,1.717,0,0,0,.658-.124v.01l1.669,5.835,2.86-1.907,2.86,1.907,1.611-5.625a1.432,1.432,0,0,0,.4.143,9.614,9.614,0,0,1,7.523,9.382v9.449Z" transform="translate(-2 -41.87)" fill="#b4dd7f"/>
        </g>
        <g id="Grupo_1154135" data-name="Grupo 1154135" transform="translate(50.149 9.534)">
          <path id="Trazado_990892" data-name="Trazado 990892" d="M58.8,12a2.86,2.86,0,0,0-2.86,2.86v6.1A11.352,11.352,0,0,1,54.6,26.3l3.12,6.9a12.7,12.7,0,0,0,3.938-9.194V14.86A2.86,2.86,0,0,0,58.8,12Z" transform="translate(-54.598 -12)" fill="#ef7385"/>
        </g>
        <g id="Grupo_1154136" data-name="Grupo 1154136" transform="translate(15.493 37.355)">
          <path id="Trazado_990893" data-name="Trazado 990893" d="M22.779,44.822l3.594-3.594a1.9,1.9,0,0,0,.877.829l-1.611,5.625-2.86-1.907-2.86,1.907L18.25,41.847v-.01a1.894,1.894,0,0,0,.887-.658Z" transform="translate(-18.25 -41.18)" fill="#a0d468"/>
        </g>
        <g id="Grupo_1154137" data-name="Grupo 1154137" transform="translate(26.696)">
          <path id="Trazado_990894" data-name="Trazado 990894" d="M33.814,16.3a6.667,6.667,0,0,0,3.728,5.988l-.515,1.545a1.938,1.938,0,0,1-1.44,1.268l-1.888.372.114-1.02a4.561,4.561,0,0,0-2.031-3.785l-.829-.553A5.784,5.784,0,0,0,30,17.884v-5.4a10.488,10.488,0,1,1,20.976,0V24.949a5.239,5.239,0,0,0-.868-.067h-2.5a6.93,6.93,0,0,0-2.584.505L43.472,22.27a6.652,6.652,0,0,0,3.69-5.968V10.7a1.9,1.9,0,0,0-.925-1.63L42.395,6.767H37.627L34.576,9.055a1.919,1.919,0,0,0-.763,1.525Z" transform="translate(-30 -2)" fill="#fcd770"/>
        </g>
        <g id="Grupo_1154138" data-name="Grupo 1154138" transform="translate(35.277 22.882)">
          <path id="Trazado_990895" data-name="Trazado 990895" d="M53.893,26.925a6.581,6.581,0,0,1,3.223,5.663,6.218,6.218,0,0,1-.124,1.268,6.45,6.45,0,0,1-.982,2.384l-.8,1.2v-.829a1.9,1.9,0,0,0-.925-1.63l-3.842-2.307H45.674l-3.051,2.288a1.919,1.919,0,0,0-.763,1.525v.953h-.953l-1.278-1.926A3.689,3.689,0,0,1,39,33.456a3.73,3.73,0,0,1,.706-2.183,3.769,3.769,0,0,1,1.84-1.354l.315-.1a6.873,6.873,0,0,1,3.585-3.308A6.93,6.93,0,0,1,48.029,26h2.5a5.239,5.239,0,0,1,.868.067,6.234,6.234,0,0,1,2.5.858Z" transform="translate(-39 -26)" fill="#b27946"/>
        </g>
        <g id="Grupo_1154139" data-name="Grupo 1154139" transform="translate(9.534 13.348)">
          <path id="Trazado_990896" data-name="Trazado 990896" d="M32.213,27.632l-1.144,1.716H29.162V28.213a1.9,1.9,0,0,0-1.716-1.9l-4.967-.5a3.083,3.083,0,0,1-2.126-1.154l-.01.01-3.327,1.335a1.9,1.9,0,0,0-1.2,1.764v1.573H13.907l-1.278-1.926A3.689,3.689,0,0,1,12,25.363a3.73,3.73,0,0,1,.706-2.183,3.769,3.769,0,0,1,1.84-1.354l.315-.1a3.809,3.809,0,0,1,3.814-3.814h.953l1.363-.915A5.949,5.949,0,0,1,24.28,16H24.3a5.9,5.9,0,0,1,4.863,2.536,5.784,5.784,0,0,1,.953,2.231l.829.553a4.561,4.561,0,0,1,2.031,3.785l-.114,1.02a4.6,4.6,0,0,1-.648,1.506Z" transform="translate(-12 -16)" fill="#656d78"/>
        </g>
        <g id="Grupo_1154140" data-name="Grupo 1154140" transform="translate(0 32.417)">
          <path id="Trazado_990897" data-name="Trazado 990897" d="M7.721,38.86v2.86H2V38.86a2.86,2.86,0,0,1,5.721,0Z" transform="translate(-2 -36)" fill="#f0d0b4"/>
        </g>
        <g id="Grupo_1154141" data-name="Grupo 1154141" transform="translate(51.485 9.534)">
          <path id="Trazado_990898" data-name="Trazado 990898" d="M61.721,14.86v2.86H56V14.86a2.86,2.86,0,1,1,5.721,0Z" transform="translate(-56 -12)" fill="#f0d0b4"/>
        </g>
        <g id="Grupo_1154142" data-name="Grupo 1154142" transform="translate(51.485 34.324)">
          <path id="Trazado_990899" data-name="Trazado 990899" d="M57.907,38a1.912,1.912,0,0,1,1.907,1.907,1.921,1.921,0,0,1-1.907,1.907H56V38Z" transform="translate(-56 -38)" fill="#f0d0b4"/>
        </g>
        <g id="Grupo_1154143" data-name="Grupo 1154143" transform="translate(40.74 45.078)">
          <path id="Trazado_990900" data-name="Trazado 990900" d="M52.872,51.616l-.82.82a4.6,4.6,0,0,1-6.5,0l-.82-.82a1.8,1.8,0,0,0,.639-.9l.486-1.44a6.665,6.665,0,0,0,5.892,0l.486,1.44a1.8,1.8,0,0,0,.639.9Z" transform="translate(-44.73 -49.28)" fill="#f0d0b4"/>
        </g>
        <g id="Grupo_1154144" data-name="Grupo 1154144" transform="translate(38.137 29.556)">
          <path id="Trazado_990901" data-name="Trazado 990901" d="M55.348,41.581v.953a6.674,6.674,0,1,1-13.348,0V36.814a1.919,1.919,0,0,1,.763-1.525L45.814,33h4.767l3.842,2.307a1.9,1.9,0,0,1,.925,1.63v4.643Z" transform="translate(-42 -33)" fill="#f0d0b4"/>
        </g>
        <g id="Grupo_1154145" data-name="Grupo 1154145" transform="translate(34.324 34.324)">
          <path id="Trazado_990902" data-name="Trazado 990902" d="M41.814,38v3.814H39.907A1.921,1.921,0,0,1,38,39.907,1.912,1.912,0,0,1,39.907,38h1.907Z" transform="translate(-38 -38)" fill="#f0d0b4"/>
        </g>
        <g id="Grupo_1154146" data-name="Grupo 1154146" transform="translate(32.808 20.27)">
          <path id="Trazado_990903" data-name="Trazado 990903" d="M43.771,23.26l1.554,3.118a6.873,6.873,0,0,0-3.585,3.308H39.213a1.9,1.9,0,0,1-1.764-1.2L36.41,25.9a1.929,1.929,0,0,0,.915-1.077l.515-1.545a6.63,6.63,0,0,0,2.946.686,6.525,6.525,0,0,0,2.984-.706Z" transform="translate(-36.41 -23.26)" fill="#f0d0b4"/>
        </g>
        <g id="Grupo_1154147" data-name="Grupo 1154147" transform="translate(30.51 4.767)">
          <path id="Trazado_990904" data-name="Trazado 990904" d="M47.348,10.938v5.6a6.652,6.652,0,0,1-3.69,5.968,6.525,6.525,0,0,1-2.984.706A6.673,6.673,0,0,1,34,16.534V10.814a1.919,1.919,0,0,1,.763-1.525L37.814,7h4.767l3.842,2.307A1.9,1.9,0,0,1,47.348,10.938Z" transform="translate(-34 -7)" fill="#f0d0b4"/>
        </g>
        <g id="Grupo_1154148" data-name="Grupo 1154148" transform="translate(26.62 26.696)">
          <path id="Trazado_990905" data-name="Trazado 990905" d="M31.9,30a1.912,1.912,0,0,1,1.907,1.907A1.921,1.921,0,0,1,31.9,33.814H29.92A5.288,5.288,0,0,0,30,32.86V30Z" transform="translate(-29.92 -30)" fill="#f0d0b4"/>
        </g>
        <g id="Grupo_1154149" data-name="Grupo 1154149" transform="translate(16.38 35.544)">
          <path id="Trazado_990906" data-name="Trazado 990906" d="M22.822,39.966a6.63,6.63,0,0,0,2.946-.686l.524,1.573a1.985,1.985,0,0,0,.124.286l-3.594,3.594L19.18,41.092a2.259,2.259,0,0,0,.267-.524l.429-1.287Z" transform="translate(-19.18 -39.28)" fill="#f0d0b4"/>
        </g>
        <g id="Grupo_1154150" data-name="Grupo 1154150" transform="translate(9.534 26.696)">
          <path id="Trazado_990907" data-name="Trazado 990907" d="M15.814,32.86a5.288,5.288,0,0,0,.076.953H13.907A1.921,1.921,0,0,1,12,31.907,1.912,1.912,0,0,1,13.907,30h1.907Z" transform="translate(-12 -30)" fill="#f0d0b4"/>
        </g>
        <g id="Grupo_1154151" data-name="Grupo 1154151" transform="translate(13.348 22.015)">
          <path id="Trazado_990908" data-name="Trazado 990908" d="M20.538,25.09a3.083,3.083,0,0,0,2.126,1.154l4.967.5a1.9,1.9,0,0,1,1.716,1.9v3.995a5.288,5.288,0,0,1-.076.953,6.665,6.665,0,0,1-6.6,5.721l-2.946-.686a6.693,6.693,0,0,1-1.773-1.268,6.554,6.554,0,0,1-1.878-3.766A5.288,5.288,0,0,1,16,32.632V28.2a1.9,1.9,0,0,1,1.2-1.764L20.529,25.1Z" transform="translate(-16 -25.09)" fill="#f0d0b4"/>
        </g>
        <g id="Grupo_1154152" data-name="Grupo 1154152" transform="translate(34.324 13.348)">
          <path id="Trazado_990909" data-name="Trazado 990909" d="M38,16h5.721v1.316a2.377,2.377,0,0,1-.267,1.116,2.489,2.489,0,0,1-2.231,1.382H40.5a2.489,2.489,0,0,1-2.231-1.382A2.377,2.377,0,0,1,38,17.316Z" transform="translate(-38 -16)" fill="#ef7385"/>
        </g>
        <g id="Grupo_1154153" data-name="Grupo 1154153" transform="translate(41.951 38.137)">
          <path id="Trazado_990910" data-name="Trazado 990910" d="M46,42h5.721v1.316a2.377,2.377,0,0,1-.267,1.116,2.489,2.489,0,0,1-2.231,1.382H48.5a2.489,2.489,0,0,1-2.231-1.382A2.377,2.377,0,0,1,46,43.316Z" transform="translate(-46 -42)" fill="#ef7385"/>
        </g>
      </g>
      <g id="Grupo_1154155" data-name="Grupo 1154155" transform="translate(1 1)">
        <circle id="Elipse_11579" data-name="Elipse 11579" cx="1" cy="1" r="1" transform="translate(17 27)"/>
        <circle id="Elipse_11580" data-name="Elipse 11580" cx="1" cy="1" r="1" transform="translate(23 27)"/>
        <path id="Trazado_990911" data-name="Trazado 990911" d="M20.812,33.553l-1.706.853.1.2a4.039,4.039,0,0,0,7.225,0l.1-.2-1.706-.853-.1.2a2.132,2.132,0,0,1-3.814,0Z" transform="translate(-1.843 -2.516)"/>
        <circle id="Elipse_11581" data-name="Elipse 11581" cx="1" cy="1" r="1" transform="translate(42 34)"/>
        <circle id="Elipse_11582" data-name="Elipse 11582" cx="1" cy="1" r="1" transform="translate(48 34)"/>
        <ellipse id="Elipse_11583" data-name="Elipse 11583" cx="1" cy="0.5" rx="1" ry="0.5" transform="translate(34 10)"/>
        <ellipse id="Elipse_11584" data-name="Elipse 11584" cx="1" cy="0.5" rx="1" ry="0.5" transform="translate(40 10)"/>
        <path id="Trazado_990912" data-name="Trazado 990912" d="M37,17.271a3.466,3.466,0,0,0,.364,1.543,3.428,3.428,0,0,0,3.085,1.907h.728a3.43,3.43,0,0,0,3.085-1.907,3.465,3.465,0,0,0,.364-1.543V15H37Zm1.907-.364h3.814v.364a1.55,1.55,0,0,1-.163.69,1.534,1.534,0,0,1-1.38.852H40.45a1.544,1.544,0,0,1-1.543-1.543Z" transform="translate(-2.676 -1.652)"/>
        <path id="Trazado_990913" data-name="Trazado 990913" d="M45,43.271a3.465,3.465,0,0,0,.364,1.543,3.428,3.428,0,0,0,3.085,1.907h.728a3.43,3.43,0,0,0,3.085-1.907,3.465,3.465,0,0,0,.364-1.543V41H45Zm1.907-.364h3.814v.364a1.55,1.55,0,0,1-.163.69,1.534,1.534,0,0,1-1.38.852H48.45a1.544,1.544,0,0,1-1.543-1.543Z" transform="translate(-3.049 -2.863)"/>
        <path id="Trazado_990914" data-name="Trazado 990914" d="M60.113,23.5v-9.15a3.814,3.814,0,1,0-7.627,0v6.1a10.417,10.417,0,0,1-.825,4.02,7.393,7.393,0,0,0-1.082-.351V12.441a11.441,11.441,0,1,0-22.882,0V15.6a6.839,6.839,0,0,0-7.744-.093l-1.126.751h-.665a4.774,4.774,0,0,0-4.717,4.073,4.68,4.68,0,0,0-2.125,6.929l.581.871a2.853,2.853,0,0,0,1.494,5.289h1.2a7.641,7.641,0,0,0,3.278,4.515l-.184.553a.954.954,0,0,1-.9.652,10.1,10.1,0,0,0-8.16,4.183V37.23A3.814,3.814,0,0,0,1,37.23V46.7a7.7,7.7,0,0,0,13.136,5.441l.212-.212v6.279H6.721v1.907H60.113v-2.12A9.228,9.228,0,0,0,51.9,48.812a.954.954,0,0,1-.8-.645l-.234-.7a7.622,7.622,0,0,0,3.529-6.422h.953a2.86,2.86,0,0,0,0-5.721h-.154a7.471,7.471,0,0,0,.881-2.147,13.705,13.705,0,0,0,4.04-9.678ZM56.3,12.441a1.909,1.909,0,0,1,1.907,1.907v1.907H54.392V14.348A1.909,1.909,0,0,1,56.3,12.441Zm-1.907,8V18.162h3.814V23.5a11.8,11.8,0,0,1-2.033,6.59,7.539,7.539,0,0,0-2.86-4.66A12.322,12.322,0,0,0,54.392,20.445ZM39.137,2.907a9.545,9.545,0,0,1,9.534,9.534V23.882h-2.41a7.928,7.928,0,0,0-2.1.284l-.787-1.572a7.625,7.625,0,0,0,3.392-6.339V10.66a2.873,2.873,0,0,0-1.388-2.452L41.535,5.9l-.981,1.635,3.841,2.3a.957.957,0,0,1,.462.817v5.595a5.721,5.721,0,1,1-11.441,0V10.534a.959.959,0,0,1,.38-.763l2.48-1.859,3.242,2.431,1.144-1.525L36.277,5.529,32.653,8.247a2.875,2.875,0,0,0-1.143,2.287v5.721a7.62,7.62,0,0,0,3.529,6.421l-.269.808a.957.957,0,0,1-.718.634l-.645.129a5.487,5.487,0,0,0-2.442-4.415l-.519-.346a6.811,6.811,0,0,0-.844-1.91V12.441A9.547,9.547,0,0,1,39.137,2.907Zm3.294,45.26a.954.954,0,0,1-.8.645,9.21,9.21,0,0,0-6.31,3.561V49.707A10.5,10.5,0,0,0,27.05,39.394a.957.957,0,0,1-.7-.629l-.277-.833a7.644,7.644,0,0,0,3.277-4.515h1.2a2.853,2.853,0,0,0,1.493-5.289l.442-.664a5.491,5.491,0,0,0,.593-1.209l1.118-.224.708,1.772a2.846,2.846,0,0,0,2.233,1.767,4.684,4.684,0,0,0-.082,5.313l.368.553a2.854,2.854,0,0,0,.753,5.608h.953a7.62,7.62,0,0,0,3.529,6.421ZM21.051,43.375l-1.378.919-.918-3.215Zm4.146-2.3-.918,3.215L22.9,43.374ZM29.6,29.6h.953a.953.953,0,0,1,0,1.907H29.6Zm9.534,9.534h-.953a.953.953,0,1,1,0-1.907h.953Zm.4-11.441H37.568a.951.951,0,0,1-.886-.6l-.776-1.942a2.83,2.83,0,0,0,.672-1.068l.194-.584a7.52,7.52,0,0,0,4.892-.06l.728,1.457a7.811,7.811,0,0,0-2.855,2.8ZM13.395,31.51a.953.953,0,1,1,0-1.907h.953V31.51Zm.953-4.43V27.7H13.9l-1-1.5a2.773,2.773,0,0,1,1.43-4.168l.965-.321v-.687a2.864,2.864,0,0,1,2.86-2.86H19.4l1.607-1.072a4.992,4.992,0,0,1,7.657,3.165l.077.387,1.162.775a3.6,3.6,0,0,1,1,4.989L30.046,27.7H29.6v-.181a2.851,2.851,0,0,0-2.575-2.846l-4.971-.5a2.2,2.2,0,0,1-1.988-2.2H18.162a4.106,4.106,0,0,0,.291,1.526l-2.307.923a2.847,2.847,0,0,0-1.8,2.655Zm1.907,4.43V27.08a.949.949,0,0,1,.6-.885l2.739-1.1a4.112,4.112,0,0,0,2.274.97l4.971.5a.949.949,0,0,1,.858.949V31.51a5.721,5.721,0,0,1-11.441,0Zm5.721,7.627a7.61,7.61,0,0,0,2.365-.379l.12.361L21.976,41.6l-2.487-2.486c0-.01.009-.019.012-.029l.11-.33a7.609,7.609,0,0,0,2.365.379ZM4.814,35.324A1.909,1.909,0,0,1,6.721,37.23v1.907H2.907V37.23A1.909,1.909,0,0,1,4.814,35.324ZM15.022,46.09l-1.348,1.349a2.286,2.286,0,0,1,.674,1.628v.164l-1.56,1.56A5.788,5.788,0,0,1,2.907,46.7V41.044H6.721v7.627H8.627V47.017l1.058-1.853a8.193,8.193,0,0,1,7.075-4.119l1.8,6.283,3.418-2.279,3.418,2.279,1.7-5.951a8.6,8.6,0,0,1,6.322,8.33v8.5H29.6v-9.14a2.286,2.286,0,0,1,.674-1.628L28.929,46.09A4.181,4.181,0,0,0,27.7,49.066v9.14H16.255v-9.14A4.181,4.181,0,0,0,15.022,46.09Zm43.184,11.9v.214H54.392V55.74a2.286,2.286,0,0,1,.674-1.628l-1.348-1.349a4.181,4.181,0,0,0-1.233,2.977v2.466H41.044V55.74a4.181,4.181,0,0,0-1.233-2.977l-1.348,1.349a2.286,2.286,0,0,1,.674,1.628v2.466H35.324v-.214a7.323,7.323,0,0,1,6.521-7.285,2.822,2.822,0,0,0,.675-.167l.317.317a5.557,5.557,0,0,0,7.858,0l.317-.317a2.868,2.868,0,0,0,.675.167A7.323,7.323,0,0,1,58.206,57.992Zm-8.918-9.224a2.8,2.8,0,0,0,.256.543l-.2.2a3.651,3.651,0,0,1-5.162,0l-.2-.2a2.793,2.793,0,0,0,.255-.543l.159-.478a7.548,7.548,0,0,0,4.729,0Zm3.2-7.725a5.721,5.721,0,0,1-11.441,0V35.324a.959.959,0,0,1,.38-.763L43.9,32.7l3.242,2.431,1.143-1.525L43.9,30.318,40.28,33.036a2.876,2.876,0,0,0-1.067,1.638l-.564-.848a2.773,2.773,0,0,1,1.43-4.168l.687-.229.177-.354a5.913,5.913,0,0,1,5.317-3.286h2.5a5.634,5.634,0,0,1,5.1,8.034A2.818,2.818,0,0,0,53,33l-3.841-2.3-.981,1.635,3.841,2.3a.957.957,0,0,1,.462.817v5.595Zm3.814-2.86a.954.954,0,0,1-.953.953h-.953V37.23h.953A.954.954,0,0,1,56.3,38.184Z" transform="translate(-1 -1)"/>
      </g>
    </g>
  </g>
</svg>
