<svg xmlns="http://www.w3.org/2000/svg" xmlns:xlink="http://www.w3.org/1999/xlink" width="108" height="108" viewBox="0 0 108 108">
  <defs>
    <filter id="Trazado_982547" x="0" y="0" width="108" height="108" filterUnits="userSpaceOnUse">
      <feOffset dy="3" input="SourceAlpha"/>
      <feGaussianBlur stdDeviation="3" result="blur"/>
      <feFlood flood-opacity="0.161"/>
      <feComposite operator="in" in2="blur"/>
      <feComposite in="SourceGraphic"/>
    </filter>
  </defs>
  <g id="Grupo_1153207" data-name="Grupo 1153207" transform="translate(-161 -1452)">
    <g id="Grupo_1153117" data-name="Grupo 1153117" transform="translate(-93 939)">
      <g id="Grupo_1149598" data-name="Grupo 1149598" transform="translate(80 315)">
        <g id="Grupo_1148770" data-name="Grupo 1148770" transform="translate(-27 -2583)">
          <g id="Grupo_1146954" data-name="Grupo 1146954" transform="translate(-415 -1202)">
            <g transform="matrix(1, 0, 0, 1, 616, 3983)" filter="url(#Trazado_982547)">
              <g id="Trazado_982547-2" data-name="Trazado 982547" transform="translate(9 6)" fill="#fef4f5">
                <path d="M 45 88.5 C 39.12687683105469 88.5 33.43022537231445 87.35007476806641 28.06830024719238 85.08217620849609 C 22.88852500915527 82.89131164550781 18.23629951477051 79.75458526611328 14.2408504486084 75.75914764404297 C 10.24541282653809 71.76370239257812 7.108687400817871 67.11147308349609 4.917825222015381 61.93170166015625 C 2.649924993515015 56.56977462768555 1.5 50.87312316894531 1.5 45 C 1.5 39.12687683105469 2.649924993515015 33.43022537231445 4.917825222015381 28.06830024719238 C 7.108687400817871 22.88852500915527 10.24541282653809 18.23629951477051 14.2408504486084 14.2408504486084 C 18.23629951477051 10.24541282653809 22.88852500915527 7.108687400817871 28.06830024719238 4.917825222015381 C 33.43022537231445 2.649924993515015 39.12687683105469 1.5 45 1.5 C 50.87312316894531 1.5 56.56977462768555 2.649924993515015 61.93170166015625 4.917825222015381 C 67.11147308349609 7.108687400817871 71.76370239257812 10.24541282653809 75.75914764404297 14.2408504486084 C 79.75458526611328 18.23629951477051 82.89131164550781 22.88852500915527 85.08217620849609 28.06830024719238 C 87.35007476806641 33.43022537231445 88.5 39.12687683105469 88.5 45 C 88.5 50.87312316894531 87.35007476806641 56.56977462768555 85.08217620849609 61.93170166015625 C 82.89131164550781 67.11147308349609 79.75458526611328 71.76370239257812 75.75914764404297 75.75914764404297 C 71.76370239257812 79.75458526611328 67.11147308349609 82.89131164550781 61.93170166015625 85.08217620849609 C 56.56977462768555 87.35007476806641 50.87312316894531 88.5 45 88.5 Z" stroke="none"/>
                <path d="M 45 3 C 39.32871246337891 3 33.82865524291992 4.110054016113281 28.65262985229492 6.299339294433594 C 23.65165710449219 8.414573669433594 19.15968322753906 11.44334411621094 15.301513671875 15.301513671875 C 11.44334411621094 19.15968322753906 8.414573669433594 23.65165710449219 6.299339294433594 28.65262985229492 C 4.110054016113281 33.82865524291992 3 39.32871246337891 3 45 C 3 50.67128753662109 4.110054016113281 56.17134475708008 6.299339294433594 61.34737396240234 C 8.414573669433594 66.34834289550781 11.44334411621094 70.84031677246094 15.301513671875 74.698486328125 C 19.15968322753906 78.55665588378906 23.65165710449219 81.58542633056641 28.65262985229492 83.70066070556641 C 33.82865524291992 85.88994598388672 39.32871246337891 87 45 87 C 50.67128753662109 87 56.17134475708008 85.88994598388672 61.34737396240234 83.70066070556641 C 66.34834289550781 81.58542633056641 70.84031677246094 78.55665588378906 74.698486328125 74.698486328125 C 78.55665588378906 70.84031677246094 81.58542633056641 66.34834289550781 83.70066070556641 61.34737396240234 C 85.88994598388672 56.17134475708008 87 50.67128753662109 87 45 C 87 39.32871246337891 85.88994598388672 33.82865524291992 83.70066070556641 28.65262985229492 C 81.58542633056641 23.65165710449219 78.55665588378906 19.15968322753906 74.698486328125 15.301513671875 C 70.84031677246094 11.44334411621094 66.34834289550781 8.414573669433594 61.34737396240234 6.299339294433594 C 56.17134475708008 4.110054016113281 50.67128753662109 3 45 3 M 45 0 C 69.85281372070312 0 90 20.14718627929688 90 45 C 90 69.85281372070312 69.85281372070312 90 45 90 C 20.14718627929688 90 0 69.85281372070312 0 45 C 0 20.14718627929688 20.14718627929688 0 45 0 Z" stroke="none" fill="#ff7f8f"/>
              </g>
            </g>
          </g>
        </g>
      </g>
    </g>
    <g id="social" transform="translate(182.999 1441.223)">
      <g id="Grupo_1153206" data-name="Grupo 1153206" transform="translate(0.939 34.719)">
        <path id="Trazado_987704" data-name="Trazado 987704" d="M307.141,100.446,304.095,88.4l-9.088-.267-2.462,12.251Z" transform="translate(-256.726 -82.246)" fill="#686564"/>
        <path id="Trazado_987705" data-name="Trazado 987705" d="M113.782,137.427v1.488l-2.474.447a1.243,1.243,0,0,0-1.243,1.243l-.6,7.7.006-.073v6.31h-9.2L99.6,140.6a1.243,1.243,0,0,0-1.243-1.243l-2.4-.447v-1.488a4.973,4.973,0,0,1,4.973-4.973h7.883A4.973,4.973,0,0,1,113.782,137.427Z" transform="translate(-84.835 -120.998)" fill="#bbf39b"/>
        <path id="Trazado_987706" data-name="Trazado 987706" d="M289.522,183.268l1.331,5.325a.622.622,0,0,1-.6.772H273.6l.647-6.876-.985-12.969c0-2.747,3.211-5.084,5.958-5.084h7.137a4.973,4.973,0,0,1,4.973,4.973v1.986Z" transform="translate(-239.87 -148.962)" fill="#fece85"/>
        <path id="Trazado_987707" data-name="Trazado 987707" d="M390.51,211.9v11.095a1.908,1.908,0,0,1-3.817,0V215.7A3.806,3.806,0,0,1,390.5,211.9Z" transform="translate(-339.046 -190.461)" fill="#e88f77"/>
        <path id="Trazado_987708" data-name="Trazado 987708" d="M207.8,183.88v10.473a2.156,2.156,0,1,1-4.313,0V193.2l-.006.073v-8.149a1.243,1.243,0,0,1,1.243-1.243Z" transform="translate(-178.856 -165.963)" fill="#ffb5a5"/>
        <path id="Trazado_987709" data-name="Trazado 987709" d="M100.266,185.123v11.743a2.157,2.157,0,1,1-4.314,0V183.88h3.071a1.243,1.243,0,0,1,1.243,1.243Z" transform="translate(-84.834 -165.963)" fill="#ffb5a5"/>
        <path id="Trazado_987710" data-name="Trazado 987710" d="M153.1,103h-4.634v3.762a2.317,2.317,0,1,0,4.634,0Z" transform="translate(-130.748 -95.247)" fill="#ff9d86"/>
        <path id="Trazado_987711" data-name="Trazado 987711" d="M195.439,264.392l-.189,7.87c0,.916-.927-.076-1.843-.076a1.66,1.66,0,0,1-1.66-1.66v-6.495l2.946-.385A.746.746,0,0,1,195.439,264.392Z" transform="translate(-168.594 -235.707)" fill="#ffdcd0"/>
        <path id="Trazado_987712" data-name="Trazado 987712" d="M292.125,262.827v6.495a1.66,1.66,0,0,1-1.66,1.66c-.459,0-1.235,1.122-1.536.821a1.5,1.5,0,0,1-.5-1.1v-7.688a.746.746,0,0,1,.746-.746Z" transform="translate(-253.131 -234.503)" fill="#ffdcd0"/>
        <path id="Trazado_987713" data-name="Trazado 987713" d="M218.167,308.331v14.552h8.793l.408-1.6V308.331l-4.6-.923Z" transform="translate(-191.694 -273.971)" fill="#b3dafe"/>
        <path id="Trazado_987714" data-name="Trazado 987714" d="M207.587,226.473v.99h-2.574a.746.746,0,0,0-.746.746v7.98h-9.2v-7.98a.746.746,0,0,0-.746-.746h-2.574v-.99a4.973,4.973,0,0,1,4.973-4.973h5.894A4.973,4.973,0,0,1,207.587,226.473Z" transform="translate(-168.594 -198.856)" fill="#f7786b"/>
        <path id="Trazado_987715" data-name="Trazado 987715" d="M241.984,203.746h-4.3v2.179a2.148,2.148,0,0,0,4.3,0v-2.179Z" transform="translate(-208.762 -183.333)" fill="#ffc7b6"/>
        <path id="Trazado_987716" data-name="Trazado 987716" d="M231.444,424.884h6.162v5.6h-6.162Z" transform="translate(-203.303 -376.687)" fill="#f2fbff"/>
        <g id="Grupo_1153205" data-name="Grupo 1153205" transform="translate(0 10.356)">
          <g id="Grupo_1153203" data-name="Grupo 1153203" transform="translate(33.103 0)">
            <path id="Trazado_987717" data-name="Trazado 987717" d="M434.025,127.976l-1.406,9.651-.939,1.927.279,2.608-7.8,2.554,5.451-16.993c.279-.983.6-2.194,1.6-2.324,0,0,.219-.021.327-.021a8.71,8.71,0,0,0,.975-.1A2.533,2.533,0,0,1,434.025,127.976Z" transform="translate(-404.905 -125.084)" fill="#ffc7b6"/>
            <path id="Trazado_987718" data-name="Trazado 987718" d="M432.62,136.248l-.033.226-.627,4.308-4.627,1.514-3.177,1.04,1.359-4.9,3.571-12.887a2.533,2.533,0,0,1,2.108-1.819h.006a2.452,2.452,0,0,1,.32-.021,2.506,2.506,0,0,1,.984.2l-3.4,12.059a.5.5,0,0,0,.664.605A5.233,5.233,0,0,1,432.62,136.248Z" transform="translate(-404.905 -123.705)" fill="#ffb5a5"/>
            <path id="Trazado_987719" data-name="Trazado 987719" d="M319.031,246.922a2.834,2.834,0,0,1-1.479,2.49l-1.393.873-.833,1.761.462.9-.065.471a4.961,4.961,0,0,1-2.471,3.632l-9.081,5.132a.38.38,0,0,0-.191.328v4.165l-5.586,1.563-6.008-1.563v-8.37c0-1.876.113-3.472,1.289-4.954l.049-.062a11.678,11.678,0,0,1,2.532-2.475,8.062,8.062,0,0,1,2.71-.764l1.865-.187a13.637,13.637,0,0,0,4.141-1.091l10.5-4.626a2.339,2.339,0,0,1,3.318,1.625A2.826,2.826,0,0,1,319.031,246.922Z" transform="translate(-289.691 -228.815)" fill="#ffc7b6"/>
            <path id="Trazado_987720" data-name="Trazado 987720" d="M290.659,298.819A8.307,8.307,0,0,0,289,303.8v11.575l-3.015-.692v-8.37a8.317,8.317,0,0,1,1.811-5.176l.049-.062A8.074,8.074,0,0,1,290.659,298.819Z" transform="translate(-284.095 -276.817)" fill="#ffb5a5"/>
            <path id="Trazado_987721" data-name="Trazado 987721" d="M274.98,425.27l3.349-.387H288.4a1.2,1.2,0,0,1,1.2,1.2v3.2a1.2,1.2,0,0,1-1.2,1.2H278.329L275,430.27a1.2,1.2,0,0,1-1.2-1.2l-.024-2.6A1.2,1.2,0,0,1,274.98,425.27Z" transform="translate(-273.424 -387.043)" fill="#72706f"/>
            <path id="Trazado_987722" data-name="Trazado 987722" d="M275.844,424.884v5.6h-3.705a1.2,1.2,0,0,1-1.2-1.2v-3.2a1.2,1.2,0,0,1,1.2-1.2Z" transform="translate(-270.939 -387.044)" fill="#686564"/>
            <path id="Trazado_987723" data-name="Trazado 987723" d="M411.957,300.623a1.155,1.155,0,0,0,1.452.291l6.7-3.653.371-2.663-7.345,3.887-.781.374A1.155,1.155,0,0,0,411.957,300.623Z" transform="translate(-394.016 -273.126)" fill="#ffb5a5"/>
          </g>
          <g id="Grupo_1153204" data-name="Grupo 1153204">
            <path id="Trazado_987724" data-name="Trazado 987724" d="M14.932,141.1l-2.107-14.026c-.22-1.526.516-2.856,2.058-2.856.11,0,.18-.36.287-.347a2.532,2.532,0,0,1,2.109,1.819l3.571,12.887-.432,1.871,1.792,3.033Z" transform="translate(-12.118 -123.853)" fill="#ffc7b6"/>
            <path id="Trazado_987725" data-name="Trazado 987725" d="M18.9,143.335l-4.273-1.4L11.1,140.781l-.627-4.308L9.031,126.6a2.53,2.53,0,0,1,2.832-2.871l1.546,12.42a.878.878,0,0,0,.524.7c1.053.454,3.549,1.564,3.609,1.587Z" transform="translate(-8.811 -123.704)" fill="#ffb5a5"/>
            <path id="Trazado_987726" data-name="Trazado 987726" d="M33.105,253.13l-.049-.062a8.082,8.082,0,0,0-5.525-3.018l-1.865-.187a13.64,13.64,0,0,1-4.141-1.09l-10.5-4.626a2.34,2.34,0,0,0-3.318,1.625,2.834,2.834,0,0,0,1.234,3.639l1.393.873.833,1.761-.462.9.065.471a4.958,4.958,0,0,0,2.471,3.633l9.081,5.132c.118.067.6.5.6.641l.095,3.853L28.1,268.24l6.812-1.563v-8.371a8.317,8.317,0,0,0-1.81-5.175Z" transform="translate(-7.465 -228.813)" fill="#ffc7b6"/>
            <path id="Trazado_987727" data-name="Trazado 987727" d="M128.95,390.461v3.155l-1.828,1.563-1.187-1.563v-4.165a.376.376,0,0,0-.191-.328l1.822-.026A1.364,1.364,0,0,1,128.95,390.461Z" transform="translate(-110.883 -355.753)" fill="#ffb5a5"/>
            <path id="Trazado_987728" data-name="Trazado 987728" d="M116.266,425.27l3.349-.387h10.074a1.2,1.2,0,0,1,1.2,1.2v3.2a1.2,1.2,0,0,1-1.2,1.2H119.615l-3.325-.215a1.2,1.2,0,0,1-1.2-1.2l-.024-2.6A1.2,1.2,0,0,1,116.266,425.27Z" transform="translate(-101.548 -387.042)" fill="#72706f"/>
            <path id="Trazado_987729" data-name="Trazado 987729" d="M117.129,424.884v5.6h-3.705a1.2,1.2,0,0,1-1.2-1.2v-3.2a1.2,1.2,0,0,1,1.2-1.2Z" transform="translate(-99.062 -387.043)" fill="#686564"/>
            <path id="Trazado_987730" data-name="Trazado 987730" d="M38.851,300.623a1.155,1.155,0,0,1-1.452.291l-6.7-3.653-.371-2.663,7.345,3.887.781.374A1.155,1.155,0,0,1,38.851,300.623Z" transform="translate(-27.451 -273.126)" fill="#ffb5a5"/>
          </g>
        </g>
        <path id="Trazado_987731" data-name="Trazado 987731" d="M142.533,45.286c0,2.584-1.8,5.762-4.01,5.762s-4.01-3.178-4.01-5.762a4.01,4.01,0,1,1,8.019,0Z" transform="translate(-118.551 -41.276)" fill="#ffb5a5"/>
        <path id="Trazado_987732" data-name="Trazado 987732" d="M231.112,143.326c0,2.316-1.855,5.162-4.143,5.162s-4.143-2.846-4.143-5.162a4.144,4.144,0,1,1,8.287,0Z" transform="translate(-195.767 -126.838)" fill="#ffdcd0"/>
        <path id="Trazado_987733" data-name="Trazado 987733" d="M336.579,132.5v3.847a2.358,2.358,0,0,1-4.717,0v-3.9Z" transform="translate(-291.104 -120.998)" fill="#e08369"/>
        <path id="Trazado_987734" data-name="Trazado 987734" d="M322.758,86.837c-.031,2.713-2.113,6.1-4.678,6.1s-4.646-3.39-4.678-6.1c1.23.291,2.62-.628,3.571-1.329a1.886,1.886,0,0,1,2.214,0C320.139,86.21,321.528,87.129,322.758,86.837Z" transform="translate(-274.965 -79.637)" fill="#e88f77"/>
        <path id="Trazado_987735" data-name="Trazado 987735" d="M322.758,63.782v.062a4.44,4.44,0,0,1-3.571-.55,1.886,1.886,0,0,0-2.214,0,4.441,4.441,0,0,1-3.571.55v-.062a4.684,4.684,0,1,1,9.355,0Z" transform="translate(-274.965 -56.644)" fill="#72706f"/>
      </g>
      <path id="Trazado_987736" data-name="Trazado 987736" d="M64,61.8a3.755,3.755,0,0,0-1.6-1.757l.578-4.009a.942.942,0,1,0-1.865-.269L60.56,59.56a3.747,3.747,0,0,0-1.536.319L55.07,61.622l4.059-14.3a1.589,1.589,0,0,1,3.1.66l-.495,3.429a.942.942,0,1,0,1.865.269l.495-3.429a3.474,3.474,0,0,0-6.779-1.444l-3.878,13.66v-5.3a5.886,5.886,0,0,0-1.177-3.549s-2.73-10.772-2.737-10.789a5.561,5.561,0,0,0-10.858-.153c-.018.043-2.066,7.718-2.084,7.779a5.049,5.049,0,0,0-7.709-1.434,6,6,0,0,0-3.95-1.486h-.711V43.5a8.394,8.394,0,0,0,1.616-4.878.942.942,0,0,0-.942-.927H24.87a.942.942,0,0,0-.927.958c.061,2.224-1.608,4.9-3.067,4.9s-3.067-2.522-3.067-4.82a2.851,2.851,0,0,1,3.067-3.067,3.527,3.527,0,0,1,1.421.279.942.942,0,1,0,.755-1.727,5.4,5.4,0,0,0-2.176-.437,4.738,4.738,0,0,0-4.952,4.952,8.2,8.2,0,0,0,1.686,4.859V45.54H16.9a6.01,6.01,0,0,0-6,5.824s0,8.888-.017,9.105l-1.428-5.03a.942.942,0,0,0-1.813.515l1.609,5.669L5.3,59.879a3.75,3.75,0,0,0-1.536-.319L2.091,47.983a1.589,1.589,0,0,1,3.1-.66L6.463,51.8a.942.942,0,1,0,1.813-.515l-1.27-4.475A3.474,3.474,0,0,0,.226,48.252l1.7,11.791A3.754,3.754,0,0,0,.323,61.8a3.8,3.8,0,0,0,1.644,4.85l.959.522.388,2.788a5.936,5.936,0,0,0,2.941,4.323l8.794,4.97v2.894a2.2,2.2,0,0,0-1.89,2.174V87.41a2.2,2.2,0,0,0,2.2,2.2H48.964a2.2,2.2,0,0,0,2.2-2.2V84.322a2.2,2.2,0,0,0-1.89-2.174V79.253l8.794-4.97a5.936,5.936,0,0,0,2.941-4.323l.388-2.788.959-.522A3.8,3.8,0,0,0,64,61.8ZM33.125,87.724H31.2a2.195,2.195,0,0,0,.025-.314V84.322a2.195,2.195,0,0,0-.025-.314h1.928a2.194,2.194,0,0,0-.025.314V87.41A2.193,2.193,0,0,0,33.125,87.724ZM25.03,66.889v-2.3H26.4a.391.391,0,0,1,.391.391v3.362A9.043,9.043,0,0,0,25.03,66.889ZM42.639,49.106a3.965,3.965,0,0,0,2.832.016V50.34a1.416,1.416,0,1,1-2.832,0V49.106Zm4.717-1.237a7.375,7.375,0,0,0,.8-.953,8.477,8.477,0,0,0,.679-1.151l1.011,3.987a6.209,6.209,0,0,0-2.156-.417h-.331Zm-3.28-.378c-1.664,0-3.173-2.068-3.609-4.1q.228.02.455.02a4.354,4.354,0,0,0,2.744-.9.638.638,0,0,1,.821,0,4.471,4.471,0,0,0,3.2.881C47.249,45.421,45.739,47.491,44.075,47.491ZM40,46.916a7.434,7.434,0,0,0,.757.912v1.507h-.331a6.02,6.02,0,0,0-2.24.43l1.094-4.087A8.487,8.487,0,0,0,40,46.916ZM30.9,56.852a3.764,3.764,0,0,0,2.488-.005v.968a1.244,1.244,0,0,1-2.487,0v-.963ZM29.02,55.631v1.01a5.963,5.963,0,0,0-2.49.6V54.322A.323.323,0,0,1,26.853,54h.988A6.775,6.775,0,0,0,29.02,55.631Zm-3.99,7.01A4.123,4.123,0,0,1,29.1,58.524a3.128,3.128,0,0,0,6.093,0,4.159,4.159,0,0,1,4.072,4.183H37.9a2.278,2.278,0,0,0-2.276,2.276v5.843H28.675V64.982A2.278,2.278,0,0,0,26.4,62.706H25.03v-.065Zm9.96,12.076v7.406H29.331V74.717a9.182,9.182,0,0,0-.225-2.007h6.107a9.19,9.19,0,0,0-.224,2.007Zm2.517-9.735a.392.392,0,0,1,.391-.391h1.369v2.314a9.034,9.034,0,0,0-1.76,1.466Zm3.644-2.341a6.009,6.009,0,0,0-5.874-6V55.615a8.214,8.214,0,0,0,1.476-2.147,4.105,4.105,0,0,1,3.67-2.248h.451a3.3,3.3,0,0,0,6.361,0h.451a3.976,3.976,0,0,1,3.833,3.445L49.71,55.9a4.939,4.939,0,0,0-2.159,4.084v4.859a12.686,12.686,0,0,1-2.464.5l-1.864.187a8.958,8.958,0,0,0-2.072.464V62.641Zm8.285-2.659a3.056,3.056,0,0,1,1.335-2.527l.782-.533v6.249l-2.117.933Zm-5.361-21.7a3.813,3.813,0,0,1,3.663,3.208,2.675,2.675,0,0,1-2.065-.441,2.515,2.515,0,0,0-3.2,0,2.676,2.676,0,0,1-2.065.441,3.813,3.813,0,0,1,3.663-3.208ZM32.14,47.7a3.23,3.23,0,0,1,3.2,3.251c0,1.86-1.507,4.22-3.2,4.22s-3.2-2.36-3.2-4.22A3.23,3.23,0,0,1,32.14,47.7ZM22.327,45.1v1.445a1.416,1.416,0,1,1-2.832,0V45.129a3.3,3.3,0,0,0,2.832-.03ZM16.9,47.424h.831a3.3,3.3,0,0,0,6.361,0h.831a4.117,4.117,0,0,1,2.76,1.063,5.143,5.143,0,0,0-.628,2.469,5.977,5.977,0,0,0,.119,1.158h-.32a2.21,2.21,0,0,0-2.208,2.208v4.356a5.977,5.977,0,0,0-1.5,3.964V65.98a8.963,8.963,0,0,0-2.047-.455l-1.864-.187a12.694,12.694,0,0,1-2.066-.383l0-10.633a2.21,2.21,0,0,0-2.208-2.208l-2.182,0v-.569A4.123,4.123,0,0,1,16.9,47.424ZM12.768,54h2.195a.323.323,0,0,1,.323.323l0,9.959-2.516-1.109ZM29.02,87.724H15.357a.314.314,0,0,1-.314-.314V84.322a.314.314,0,0,1,.314-.314h4.964a.942.942,0,1,0,0-1.885H16.933V78.7a.942.942,0,0,0-.479-.82l-9.273-5.24a4.04,4.04,0,0,1-2-2.942l-.2-1.406L10.7,71.411a.942.942,0,1,0,.9-1.655L2.868,65A1.892,1.892,0,0,1,4.536,61.6l10.083,4.444a14.559,14.559,0,0,0,4.427,1.166l1.864.187a7.4,7.4,0,0,1,6.536,7.318v7.406h-2.72a.942.942,0,1,0,0,1.885h4.3a.314.314,0,0,1,.314.314v3.089a.314.314,0,0,1-.314.314h0Zm20.259-.314a.314.314,0,0,1-.314.314H35.3a.314.314,0,0,1-.314-.314V84.322a.314.314,0,0,1,.314-.314H48.964a.314.314,0,0,1,.314.314ZM61.453,65l-8.739,4.761a.942.942,0,0,0,.9,1.655l5.721-3.117-.2,1.406a4.039,4.039,0,0,1-2,2.942l-9.273,5.24a.942.942,0,0,0-.479.82v3.42H36.874V74.717A7.426,7.426,0,0,1,43.411,67.4l1.864-.187A14.559,14.559,0,0,0,49.7,66.047L59.784,61.6A1.892,1.892,0,0,1,61.453,65Z" transform="translate(0)"/>
    </g>
  </g>
</svg>
