<svg xmlns="http://www.w3.org/2000/svg" xmlns:xlink="http://www.w3.org/1999/xlink" width="108" height="108" viewBox="0 0 108 108">
  <defs>
    <filter id="Trazado_982547" x="0" y="0" width="108" height="108" filterUnits="userSpaceOnUse">
      <feOffset dy="3" input="SourceAlpha"/>
      <feGaussianBlur stdDeviation="3" result="blur"/>
      <feFlood flood-opacity="0.161"/>
      <feComposite operator="in" in2="blur"/>
      <feComposite in="SourceGraphic"/>
    </filter>
  </defs>
  <g id="Grupo_1154233" data-name="Grupo 1154233" transform="translate(-616 -2808)">
    <g id="Grupo_1153189" data-name="Grupo 1153189" transform="translate(362 2295)">
      <g id="Grupo_1149598" data-name="Grupo 1149598" transform="translate(80 315)">
        <g id="Grupo_1148770" data-name="Grupo 1148770" transform="translate(-27 -2583)">
          <g id="Grupo_1146954" data-name="Grupo 1146954" transform="translate(-415 -1202)">
            <g transform="matrix(1, 0, 0, 1, 616, 3983)" filter="url(#Trazado_982547)">
              <g id="Trazado_982547-2" data-name="Trazado 982547" transform="translate(9 6)" fill="#effcf6">
                <path d="M 45 88.5 C 39.12687683105469 88.5 33.43022537231445 87.35007476806641 28.06830024719238 85.08217620849609 C 22.88852500915527 82.89131164550781 18.23629951477051 79.75458526611328 14.2408504486084 75.75914764404297 C 10.24541282653809 71.76370239257812 7.108687400817871 67.11147308349609 4.917825222015381 61.93170166015625 C 2.649924993515015 56.56977462768555 1.5 50.87312316894531 1.5 45 C 1.5 39.12687683105469 2.649924993515015 33.43022537231445 4.917825222015381 28.06830024719238 C 7.108687400817871 22.88852500915527 10.24541282653809 18.23629951477051 14.2408504486084 14.2408504486084 C 18.23629951477051 10.24541282653809 22.88852500915527 7.108687400817871 28.06830024719238 4.917825222015381 C 33.43022537231445 2.649924993515015 39.12687683105469 1.5 45 1.5 C 50.87312316894531 1.5 56.56977462768555 2.649924993515015 61.93170166015625 4.917825222015381 C 67.11147308349609 7.108687400817871 71.76370239257812 10.24541282653809 75.75914764404297 14.2408504486084 C 79.75458526611328 18.23629951477051 82.89131164550781 22.88852500915527 85.08217620849609 28.06830024719238 C 87.35007476806641 33.43022537231445 88.5 39.12687683105469 88.5 45 C 88.5 50.87312316894531 87.35007476806641 56.56977462768555 85.08217620849609 61.93170166015625 C 82.89131164550781 67.11147308349609 79.75458526611328 71.76370239257812 75.75914764404297 75.75914764404297 C 71.76370239257812 79.75458526611328 67.11147308349609 82.89131164550781 61.93170166015625 85.08217620849609 C 56.56977462768555 87.35007476806641 50.87312316894531 88.5 45 88.5 Z" stroke="none"/>
                <path d="M 45 3 C 39.32871246337891 3 33.82865524291992 4.110054016113281 28.65262985229492 6.299339294433594 C 23.65165710449219 8.414573669433594 19.15968322753906 11.44334411621094 15.301513671875 15.301513671875 C 11.44334411621094 19.15968322753906 8.414573669433594 23.65165710449219 6.299339294433594 28.65262985229492 C 4.110054016113281 33.82865524291992 3 39.32871246337891 3 45 C 3 50.67128753662109 4.110054016113281 56.17134475708008 6.299339294433594 61.34737396240234 C 8.414573669433594 66.34834289550781 11.44334411621094 70.84031677246094 15.301513671875 74.698486328125 C 19.15968322753906 78.55665588378906 23.65165710449219 81.58542633056641 28.65262985229492 83.70066070556641 C 33.82865524291992 85.88994598388672 39.32871246337891 87 45 87 C 50.67128753662109 87 56.17134475708008 85.88994598388672 61.34737396240234 83.70066070556641 C 66.34834289550781 81.58542633056641 70.84031677246094 78.55665588378906 74.698486328125 74.698486328125 C 78.55665588378906 70.84031677246094 81.58542633056641 66.34834289550781 83.70066070556641 61.34737396240234 C 85.88994598388672 56.17134475708008 87 50.67128753662109 87 45 C 87 39.32871246337891 85.88994598388672 33.82865524291992 83.70066070556641 28.65262985229492 C 81.58542633056641 23.65165710449219 78.55665588378906 19.15968322753906 74.698486328125 15.301513671875 C 70.84031677246094 11.44334411621094 66.34834289550781 8.414573669433594 61.34737396240234 6.299339294433594 C 56.17134475708008 4.110054016113281 50.67128753662109 3 45 3 M 45 0 C 69.85281372070312 0 90 20.14718627929688 90 45 C 90 69.85281372070312 69.85281372070312 90 45 90 C 20.14718627929688 90 0 69.85281372070312 0 45 C 0 20.14718627929688 20.14718627929688 0 45 0 Z" stroke="none" fill="#70e8ad"/>
              </g>
            </g>
          </g>
        </g>
      </g>
    </g>
    <g id="obediente" transform="translate(630.922 2834)">
      <g id="Grupo_1154209" data-name="Grupo 1154209" transform="translate(25.154 0.747)">
        <path id="Trazado_990967" data-name="Trazado 990967" d="M148.509,7.5h-31.7a.5.5,0,0,0-.5.5V21.8h3.264a2.439,2.439,0,0,1,.17,4.872v3.026h0a1,1,0,0,1,.844.983v6.178a1,1,0,0,1-.844.983h0v3.026a2.439,2.439,0,0,1-.17,4.872h-3.264v4.084h6.869a1,1,0,0,1,1,1V52.8h.758a1,1,0,0,1,1,1v3.174h23.074V8A.5.5,0,0,0,148.509,7.5Z" transform="translate(-116.315 -7.5)" fill="#fff3de"/>
      </g>
      <g id="Grupo_1154210" data-name="Grupo 1154210" transform="translate(25.154 0.747)">
        <path id="Trazado_990968" data-name="Trazado 990968" d="M119.579,21.8l.089,0V8a.5.5,0,0,1,.5-.5h-3.353a.5.5,0,0,0-.5.5V21.8Z" transform="translate(-116.315 -7.5)" fill="#ffe5c2"/>
        <path id="Trazado_990969" data-name="Trazado 990969" d="M119.579,391.629h-3.264v4.085h3.353v-4.087Z" transform="translate(-116.315 -353.394)" fill="#ffe5c2"/>
      </g>
      <g id="Grupo_1154228" data-name="Grupo 1154228" transform="translate(15.824 15.042)">
        <g id="Grupo_1154211" data-name="Grupo 1154211" transform="translate(13.608 10.268)">
          <path id="Trazado_990970" data-name="Trazado 990970" d="M159.3,254.29H163.9v3.4H159.3Z" transform="translate(-159.296 -254.29)" fill="#883f2e"/>
          <path id="Trazado_990971" data-name="Trazado 990971" d="M237.5,254.29h6.581v3.4H237.5Z" transform="translate(-229.718 -254.29)" fill="#883f2e"/>
        </g>
        <g id="Grupo_1154212" data-name="Grupo 1154212" transform="translate(13.608 12.031)">
          <path id="Trazado_990972" data-name="Trazado 990972" d="M159.3,272H163.9v1.641H159.3Z" transform="translate(-159.296 -272)" fill="#6d3326"/>
          <path id="Trazado_990973" data-name="Trazado 990973" d="M237.5,272h6.581v1.641H237.5Z" transform="translate(-229.718 -272)" fill="#6d3326"/>
        </g>
        <g id="Grupo_1154213" data-name="Grupo 1154213" transform="translate(27.972 9.474)">
          <path id="Trazado_990974" data-name="Trazado 990974" d="M322.11,248.806a2.5,2.5,0,0,1-2.5,2.5h-15.43a.567.567,0,0,1-.567-.567v-3.858a.567.567,0,0,1,.567-.567h15.43A2.5,2.5,0,0,1,322.11,248.806Z" transform="translate(-303.616 -246.31)" fill="#ca6e59"/>
        </g>
        <g id="Grupo_1154214" data-name="Grupo 1154214" transform="translate(27.972 9.474)">
          <path id="Trazado_990975" data-name="Trazado 990975" d="M307.008,249.166a.567.567,0,0,1-.567-.567V246.31h-2.258a.567.567,0,0,0-.567.567v3.858a.567.567,0,0,0,.567.567h15.43a2.5,2.5,0,0,0,2.47-2.137Z" transform="translate(-303.616 -246.31)" fill="#bb5d4c"/>
        </g>
        <g id="Grupo_1154215" data-name="Grupo 1154215" transform="translate(18.215 9.474)">
          <path id="Trazado_990976" data-name="Trazado 990976" d="M208.762,246.809v4a.5.5,0,0,1-.5.5h-2.181a.5.5,0,0,1-.5-.5v-4a.5.5,0,0,1,.5-.5h2.181A.5.5,0,0,1,208.762,246.809Z" transform="translate(-205.585 -246.311)" fill="#ca6e59"/>
        </g>
        <g id="Grupo_1154216" data-name="Grupo 1154216" transform="translate(18.215 9.474)">
          <path id="Trazado_990977" data-name="Trazado 990977" d="M207.028,250.805v-4a.5.5,0,0,1,.5-.5h-1.443a.5.5,0,0,0-.5.5v4a.5.5,0,0,0,.5.5h1.443A.5.5,0,0,1,207.028,250.805Z" transform="translate(-205.585 -246.311)" fill="#bb5d4c"/>
        </g>
        <g id="Grupo_1154217" data-name="Grupo 1154217" transform="translate(6.183 4.872)">
          <path id="Trazado_990978" data-name="Trazado 990978" d="M91.132,312.31H84.854a1,1,0,0,1-.151-.013v3.026c.056,0,.113-.007.17-.007h6.24c.057,0,.114,0,.17.007V312.3A.988.988,0,0,1,91.132,312.31Z" transform="translate(-84.703 -301.128)" fill="#883f2e"/>
          <path id="Trazado_990979" data-name="Trazado 990979" d="M84.854,312.31a1,1,0,0,1-.151-.013v3.026c.056,0,.113-.007.17-.007h2.336V312.31H84.854Z" transform="translate(-84.703 -301.128)" fill="#6d3326"/>
          <path id="Trazado_990980" data-name="Trazado 990980" d="M84.854,203.092h6.278a1,1,0,0,1,.151.013v-3.026c-.056,0-.113.007-.17.007h-6.24c-.057,0-.114,0-.17-.007V203.1A1,1,0,0,1,84.854,203.092Z" transform="translate(-84.703 -200.079)" fill="#883f2e"/>
          <path id="Trazado_990981" data-name="Trazado 990981" d="M84.854,203.091h2.355v-3.007H84.873c-.057,0-.114,0-.17-.007V203.1A1.014,1.014,0,0,1,84.854,203.091Z" transform="translate(-84.703 -200.078)" fill="#6d3326"/>
        </g>
        <g id="Grupo_1154218" data-name="Grupo 1154218" transform="translate(5.34 7.885)">
          <path id="Trazado_990982" data-name="Trazado 990982" d="M84.493,231.347v6.178a1,1,0,0,1-1,1H77.22a1,1,0,0,1-1-1v-6.178a1,1,0,0,1,1-1H83.5A1,1,0,0,1,84.493,231.347Z" transform="translate(-76.225 -230.352)" fill="#ca6e59"/>
        </g>
        <g id="Grupo_1154219" data-name="Grupo 1154219" transform="translate(5.34 7.885)">
          <path id="Trazado_990983" data-name="Trazado 990983" d="M79.587,237.526v-6.178a1,1,0,0,1,1-1H77.22a1,1,0,0,0-1,1v6.178a1,1,0,0,0,1,1h3.362A1,1,0,0,1,79.587,237.526Z" transform="translate(-76.225 -230.352)" fill="#bb5d4c"/>
        </g>
        <g id="Grupo_1154222" data-name="Grupo 1154222" transform="translate(0 28.024)">
          <path id="Trazado_990984" data-name="Trazado 990984" d="M55.63,435.763a1.021,1.021,0,0,0,.005-.1v-1.98a1,1,0,0,0-1-1H41.19a1,1,0,0,0-1,1v1.98a1.018,1.018,0,0,0,.005.1Z" transform="translate(-38.442 -432.685)" fill="#ca6e59"/>
          <path id="Trazado_990985" data-name="Trazado 990985" d="M43.565,435.763a1.019,1.019,0,0,1-.005-.1v-1.98a1,1,0,0,1,1-1H41.19a1,1,0,0,0-1,1v1.98a1.017,1.017,0,0,0,.005.1Z" transform="translate(-38.442 -432.685)" fill="#bb5d4c"/>
          <g id="Grupo_1154220" data-name="Grupo 1154220" transform="translate(0 2.978)">
            <path id="Trazado_990986" data-name="Trazado 990986" d="M41.525,466.778H23.076a.5.5,0,0,1-.5-.5V463.6a1,1,0,0,1,1-1H40.53a1,1,0,0,1,1,1Z" transform="translate(-22.578 -462.608)" fill="#883f2e"/>
          </g>
          <g id="Grupo_1154221" data-name="Grupo 1154221" transform="translate(0 2.978)">
            <path id="Trazado_990987" data-name="Trazado 990987" d="M25.9,466.28V463.6a1,1,0,0,1,1-1H23.573a1,1,0,0,0-1,1v2.677a.5.5,0,0,0,.5.5H26.4A.5.5,0,0,1,25.9,466.28Z" transform="translate(-22.578 -462.608)" fill="#6d3326"/>
          </g>
        </g>
        <g id="Grupo_1154227" data-name="Grupo 1154227" transform="translate(3.914)">
          <g id="Grupo_1154223" data-name="Grupo 1154223" transform="translate(0 19.061)">
            <path id="Trazado_990988" data-name="Trazado 990988" d="M73.024,345.072a2.439,2.439,0,0,1-2.439,2.439h-6.24a2.439,2.439,0,1,1,0-4.879h6.24A2.439,2.439,0,0,1,73.024,345.072Z" transform="translate(-61.905 -342.633)" fill="#ca6e59"/>
          </g>
          <g id="Grupo_1154224" data-name="Grupo 1154224" transform="translate(0 19.061)">
            <path id="Trazado_990989" data-name="Trazado 990989" d="M65.228,345.072a2.439,2.439,0,0,1,2.439-2.439H64.344a2.439,2.439,0,1,0,0,4.879h3.323A2.439,2.439,0,0,1,65.228,345.072Z" transform="translate(-61.905 -342.633)" fill="#bb5d4c"/>
          </g>
          <g id="Grupo_1154225" data-name="Grupo 1154225" transform="translate(0)">
            <path id="Trazado_990990" data-name="Trazado 990990" d="M73.024,153.567a2.439,2.439,0,0,1-2.439,2.439h-6.24a2.439,2.439,0,1,1,0-4.879h6.24A2.439,2.439,0,0,1,73.024,153.567Z" transform="translate(-61.905 -151.128)" fill="#ca6e59"/>
          </g>
          <g id="Grupo_1154226" data-name="Grupo 1154226">
            <path id="Trazado_990991" data-name="Trazado 990991" d="M65.228,153.567a2.439,2.439,0,0,1,2.439-2.439H64.344a2.439,2.439,0,1,0,0,4.879h3.323A2.439,2.439,0,0,1,65.228,153.567Z" transform="translate(-61.905 -151.128)" fill="#bb5d4c"/>
          </g>
        </g>
      </g>
      <g id="Grupo_1154231" data-name="Grupo 1154231" transform="translate(34.516 5.385)">
        <g id="Grupo_1154229" data-name="Grupo 1154229">
          <circle id="Elipse_11585" data-name="Elipse 11585" cx="6.984" cy="6.984" r="6.984" fill="#4fc123"/>
        </g>
        <g id="Grupo_1154230" data-name="Grupo 1154230" transform="translate(0)">
          <path id="Trazado_990992" data-name="Trazado 990992" d="M213.719,61.091a6.986,6.986,0,0,1,5.311-6.781,6.984,6.984,0,1,0,0,13.562A6.986,6.986,0,0,1,213.719,61.091Z" transform="translate(-210.372 -54.107)" fill="#47a920"/>
        </g>
      </g>
      <g id="Grupo_1154232" data-name="Grupo 1154232" transform="translate(15.078 0)">
        <path id="Trazado_990993" data-name="Trazado 990993" d="M59.794,23.769h-1.2V10.849a.747.747,0,0,0-.769-.746.767.767,0,0,0-.724.777V23.769h-5a.746.746,0,1,0,0,1.493h7.7a1.75,1.75,0,1,1,0,3.5H44.543v-3.5h4.069a.746.746,0,1,0,0-1.493H44.364a1.315,1.315,0,0,0-1.206.794H37.877a1.245,1.245,0,0,0-1.159-.794H34.537a1.245,1.245,0,0,0-1.159.794h-3.2v-.641a1.741,1.741,0,0,0-.844-1.49v-1.9a3.186,3.186,0,0,0-.917-6.237H25.9V1.493H57.1V7.365a.747.747,0,0,0,.769.746.767.767,0,0,0,.724-.777V1.244A1.244,1.244,0,0,0,57.348,0h-31.7a1.244,1.244,0,0,0-1.244,1.244V14.3h-2.23a3.186,3.186,0,0,0-.917,6.237v1.9a1.741,1.741,0,0,0-.844,1.49V30.1a1.741,1.741,0,0,0,.844,1.49v1.9a3.186,3.186,0,0,0,.917,6.237h2.23V42.32H18.573a1.744,1.744,0,0,0-1.742,1.742V45.3H16.82a1.744,1.744,0,0,0-1.742,1.742v2.677a1.245,1.245,0,0,0,1.244,1.244H57.348a1.244,1.244,0,0,0,1.244-1.244V30.254h1.2a3.243,3.243,0,0,0,0-6.485ZM37.963,26.057H43.05v1.911H37.963Zm-3.177-.794H36.47v3.5H34.786Zm-4.607.794h3.114v1.911H30.179Zm-9.694-8.575a1.7,1.7,0,0,1,1.693-1.693h6.24a1.693,1.693,0,0,1,0,3.386h-6.24A1.7,1.7,0,0,1,20.485,17.481ZM22.159,30.35a.249.249,0,0,1-.249-.249V23.923a.249.249,0,0,1,.249-.249h6.278a.249.249,0,0,1,.249.249V30.1a.249.249,0,0,1-.249.249Zm5.682,1.493v1.514H22.754V31.843Zm-5.087-9.662V20.667h5.087v1.514Zm-.576,16.054a1.693,1.693,0,0,1,0-3.386h6.24a1.693,1.693,0,1,1,0,3.386ZM34.025,49.467H16.571V47.04a.249.249,0,0,1,.249-.249h4.62a.746.746,0,0,0,0-1.493H18.324V44.061a.249.249,0,0,1,.249-.249h13.45a.249.249,0,0,1,.249.249V45.3H24.924a.746.746,0,1,0,0,1.493h8.853a.249.249,0,0,1,.249.249Zm23.074,0H35.518V47.04A1.744,1.744,0,0,0,33.777,45.3h-.012V44.061a1.744,1.744,0,0,0-1.742-1.742H25.9V39.728h2.518a3.186,3.186,0,0,0,.917-6.237v-1.9a1.741,1.741,0,0,0,.844-1.49V29.46h3.2a1.245,1.245,0,0,0,1.159.794h2.181a1.245,1.245,0,0,0,1.159-.794h5.281a1.315,1.315,0,0,0,1.206.794H57.1V49.467Z" transform="translate(-15.078 0)"/>
        <path id="Trazado_990994" data-name="Trazado 990994" d="M202.872,54.338a7.731,7.731,0,1,0,7.731-7.731A7.739,7.739,0,0,0,202.872,54.338Zm13.968,0A6.238,6.238,0,1,1,210.6,48.1,6.245,6.245,0,0,1,216.84,54.338Z" transform="translate(-184.18 -41.968)"/>
        <path id="Trazado_990995" data-name="Trazado 990995" d="M247.618,102.641a.746.746,0,0,0-1.056,1.056l2.3,2.3a.747.747,0,0,0,1.056,0l3.559-3.559a.746.746,0,1,0-1.056-1.056l-3.031,3.031Z" transform="translate(-223.325 -91.091)"/>
        <path id="Trazado_990996" data-name="Trazado 990996" d="M243.681,327.816a.746.746,0,0,0,.746.746h13.728a.746.746,0,1,0,0-1.493H244.428A.746.746,0,0,0,243.681,327.816Z" transform="translate(-220.928 -294.515)"/>
        <path id="Trazado_990997" data-name="Trazado 990997" d="M318.324,363.546h-7.078a.747.747,0,0,0,0,1.493h7.078a.747.747,0,1,0,0-1.493Z" transform="translate(-281.096 -327.362)"/>
        <path id="Trazado_990998" data-name="Trazado 990998" d="M244.428,365.039h4.063a.747.747,0,0,0,0-1.493h-4.063a.747.747,0,0,0,0,1.493Z" transform="translate(-220.928 -327.362)"/>
        <path id="Trazado_990999" data-name="Trazado 990999" d="M258.155,400.023H244.426a.746.746,0,0,0,0,1.493h13.728a.746.746,0,1,0,0-1.493Z" transform="translate(-220.927 -360.208)"/>
        <path id="Trazado_991000" data-name="Trazado 991000" d="M349.841,436.5h-3.594a.746.746,0,1,0,0,1.493h3.594a.746.746,0,1,0,0-1.493Z" transform="translate(-312.612 -393.054)"/>
        <path id="Trazado_991001" data-name="Trazado 991001" d="M252.273,436.5h-7.845a.746.746,0,1,0,0,1.493h7.845a.746.746,0,1,0,0-1.493Z" transform="translate(-220.928 -393.054)"/>
      </g>
    </g>
  </g>
</svg>
