<svg xmlns="http://www.w3.org/2000/svg" xmlns:xlink="http://www.w3.org/1999/xlink" width="313" height="142.611" viewBox="0 0 313 142.611">
  <defs>
    <filter id="error-image" x="0" y="32.852" width="313" height="71" filterUnits="userSpaceOnUse">
      <feOffset dy="3" input="SourceAlpha"/>
      <feGaussianBlur stdDeviation="3" result="blur"/>
      <feFlood flood-opacity="0.161"/>
      <feComposite operator="in" in2="blur"/>
      <feComposite in="SourceGraphic"/>
    </filter>
    <filter id="error-image-2" x="51" y="14.852" width="211" height="107" filterUnits="userSpaceOnUse">
      <feOffset dy="3" input="SourceAlpha"/>
      <feGaussianBlur stdDeviation="3" result="blur-2"/>
      <feFlood flood-opacity="0.161"/>
      <feComposite operator="in" in2="blur-2"/>
      <feComposite in="SourceGraphic"/>
    </filter>
  </defs>
  <g id="Grupo_1154234" data-name="Grupo 1154234" transform="translate(-1116 -3327.148)">
    <g id="Grupo_1153190" data-name="Grupo 1153190" transform="translate(1125 3348)">
      <g id="Grupo_1146978" data-name="Grupo 1146978" transform="translate(0 0)">
        <g transform="matrix(1, 0, 0, 1, -9, -20.85)" filter="url(#error-image)">
          <rect id="error-image-3" data-name="error-image" width="295" height="53" rx="5" transform="translate(9 38.85)" fill="#4b252a"/>
        </g>
        <g transform="matrix(1, 0, 0, 1, -9, -20.85)" filter="url(#error-image-2)">
          <rect id="error-image-4" data-name="error-image" width="193" height="89" rx="5" transform="translate(60 20.85)" fill="#ff7f8f"/>
        </g>
      </g>
    </g>
    <g id="Grupo_1153384" data-name="Grupo 1153384" transform="translate(593.231 2371.704)">
      <g id="Grupo_1153317" data-name="Grupo 1153317" transform="translate(632.383 955.444)">
        <path id="Trazado_988221" data-name="Trazado 988221" d="M886.859,1100.94v81.042l-14.026,8.355h1.025l13.076-6.786-.587,6.786h.591l1.213-7.156,12.388,7.156h.9l-12.847-8.613V1100.94Z" transform="translate(-834.807 -1059.907)" fill="#360b1e" fill-rule="evenodd"/>
        <g id="Grupo_1153316" data-name="Grupo 1153316" transform="translate(6.577 0.594)">
          <path id="Trazado_988222" data-name="Trazado 988222" d="M761.818,958.049h91.224v71.1H761.818Z" transform="translate(-761.677 -957.908)" fill="#fff" fill-rule="evenodd"/>
          <g id="Grupo_1153306" data-name="Grupo 1153306" transform="translate(0 33.354)">
            <path id="Trazado_988223" data-name="Trazado 988223" d="M791.194,1113.841H761.459a.141.141,0,0,1-.141-.141v-37.745a.141.141,0,0,1,.282,0v37.6h29.594a.141.141,0,1,1,0,.282Z" transform="translate(-761.318 -1075.815)" fill="#360b1e"/>
          </g>
          <g id="Grupo_1153307" data-name="Grupo 1153307" transform="translate(29.734 71.098)">
            <path id="Trazado_988224" data-name="Trazado 988224" d="M928.38,1209.932H866.891a.141.141,0,1,1,0-.282H928.38a.141.141,0,1,1,0,.282Z" transform="translate(-866.75 -1209.65)" fill="#360b1e"/>
          </g>
          <g id="Grupo_1153308" data-name="Grupo 1153308" transform="translate(52.577)">
            <path id="Trazado_988225" data-name="Trazado 988225" d="M986.535,1011.681a.141.141,0,0,1-.141-.141V957.831H947.889a.141.141,0,1,1,0-.282h38.647a.141.141,0,0,1,.141.141v53.851A.141.141,0,0,1,986.535,1011.681Z" transform="translate(-947.748 -957.549)" fill="#360b1e"/>
          </g>
          <g id="Grupo_1153309" data-name="Grupo 1153309" transform="translate(9.17 14.272)">
            <path id="Trazado_988226" data-name="Trazado 988226" d="M793.838,1024.457a16.007,16.007,0,1,1,16,16.3A16.155,16.155,0,0,1,793.838,1024.457Z" transform="translate(-793.837 -1008.155)" fill="#7a86f2" fill-rule="evenodd"/>
            <path id="Trazado_988227" data-name="Trazado 988227" d="M859.967,1019.03l-9.294,13.358,15.947-.821A16.344,16.344,0,0,0,859.967,1019.03Z" transform="translate(-834.643 -1015.963)" fill="#fc9f07" fill-rule="evenodd"/>
            <path id="Trazado_988228" data-name="Trazado 988228" d="M863.769,1062.78l-15.917,1.01-1.134,16.133c.362.024.725.058,1.093.058a16.156,16.156,0,0,0,16-16.305C863.814,1063.372,863.784,1063.079,863.769,1062.78Z" transform="translate(-831.803 -1047.375)" fill="#ef5e7f" fill-rule="evenodd"/>
            <path id="Trazado_988229" data-name="Trazado 988229" d="M795.125,1043.2a16.482,16.482,0,0,0-1.292,6.419,16.164,16.164,0,0,0,15.129,16.259l.921-16.146Z" transform="translate(-793.833 -1033.316)" fill="#ff6f59" fill-rule="evenodd"/>
          </g>
          <path id="Trazado_988230" data-name="Trazado 988230" d="M833.353,1053.359a4.861,4.861,0,1,1,4.861,4.951A4.9,4.9,0,0,1,833.353,1053.359Z" transform="translate(-813.038 -1022.785)" fill="#fff" fill-rule="evenodd"/>
          <g id="Grupo_1153310" data-name="Grupo 1153310" transform="translate(47.88 8.077)">
            <path id="Trazado_988231" data-name="Trazado 988231" d="M935.62,986.189q0,.9-.051,1.76t-.092,1.681q-.042.823-.042,1.747a15.823,15.823,0,0,0,.13,1.957.488.488,0,0,1-.079.31.326.326,0,0,1-.262.093q-.434,0-.433-.732v-.31a3.963,3.963,0,0,1-2.212,1,1.7,1.7,0,0,1-.733-.178,1.817,1.817,0,0,1-.705-.723,2.275,2.275,0,0,1-.046-.46,2.32,2.32,0,0,1,.087-.568,2.027,2.027,0,0,1,.36-.691,3.016,3.016,0,0,1,.66-.629,3.179,3.179,0,0,1,1.835-.582,2.477,2.477,0,0,1,.811.133c0-.113.007-.31.023-.592s.032-.578.051-.891c.037-.814.062-1.294.073-1.442a3.325,3.325,0,0,1,.051-.375.938.938,0,0,1,.1-.268A.509.509,0,0,1,935.62,986.189Zm-3.854,6.064c0,.495.176.742.526.742a1.014,1.014,0,0,0,.185-.018,2.556,2.556,0,0,0,.931-.226,3.342,3.342,0,0,0,1.282-.732v-1.249c0-.219-.176-.329-.526-.329a1.379,1.379,0,0,0-.171-.008,1.776,1.776,0,0,0-.327.047,2.519,2.519,0,0,0-.5.169,3.457,3.457,0,0,0-.544.3,2.062,2.062,0,0,0-.774.9A1.048,1.048,0,0,0,931.766,992.253Z" transform="translate(-931.093 -986.189)" fill="#360b1e" fill-rule="evenodd"/>
            <path id="Trazado_988232" data-name="Trazado 988232" d="M949.6,993.189q.121,1.755.2,4.065c-.037.194-.185.292-.443.292a.557.557,0,0,1-.207-.042.218.218,0,0,1-.134-.117v-4.2Zm-.857-1.276c0-.22.127-.328.378-.328a.672.672,0,0,1,.406.113.773.773,0,0,1,.027.2.306.306,0,0,1-.073.192.262.262,0,0,1-.221.095.689.689,0,0,1-.295-.071A.482.482,0,0,1,948.743,991.913Z" transform="translate(-943.765 -990.063)" fill="#360b1e" fill-rule="evenodd"/>
            <path id="Trazado_988233" data-name="Trazado 988233" d="M954.156,997.674a.287.287,0,0,1-.018-.109.43.43,0,0,1,.046-.164.505.505,0,0,1,.133-.179.278.278,0,0,1,.195-.07.208.208,0,0,1,.171.137l1.548,2.929c.049-.075.127-.214.234-.417s.231-.433.369-.69l.433-.8q.226-.417.42-.764c.295-.533.469-.8.524-.8a.3.3,0,0,1,.282.145.5.5,0,0,1,.087.22v.1q-.516,1.145-.955,2.113t-.581,1.253a4.353,4.353,0,0,1-.254.455c-.128.193-.254.29-.378.29s-.264-.1-.423-.3a7.412,7.412,0,0,1-.544-.792A27.764,27.764,0,0,1,954.156,997.674Z" transform="translate(-947.639 -993.768)" fill="#360b1e" fill-rule="evenodd"/>
            <path id="Trazado_988234" data-name="Trazado 988234" d="M972.979,1001.1a6.655,6.655,0,0,0,2.442-.752.219.219,0,0,1,.166.071.237.237,0,0,1,.065.164,2.458,2.458,0,0,1-1.411,1,3.325,3.325,0,0,1-1.945.123,1.573,1.573,0,0,1-1.244-1.175,4.717,4.717,0,0,1-.02-.478,2.845,2.845,0,0,1,.152-.794,2.671,2.671,0,0,1,.522-.933,2.736,2.736,0,0,1,.866-.7,2.3,2.3,0,0,1,1.06-.254,2.481,2.481,0,0,1,1.2.377,1.732,1.732,0,0,1,.5.4.72.72,0,0,1,.183.46,1,1,0,0,1-.009.131.7.7,0,0,1-.544.724,1.962,1.962,0,0,1-.534.066l-1.327-.056a1.552,1.552,0,0,0-1.014.29.863.863,0,0,0-.286.48A1.092,1.092,0,0,0,972.979,1001.1Zm1.64-2.9a1.452,1.452,0,0,0-.792-.282,1.983,1.983,0,0,0-.48.1,4.147,4.147,0,0,0-.589.221q-.637.3-.636.629c.491.044.86.066,1.105.066a3.567,3.567,0,0,0,1.383-.179c.147-.062.221-.141.221-.234A.414.414,0,0,0,974.619,998.2Z" transform="translate(-959.769 -994.217)" fill="#360b1e" fill-rule="evenodd"/>
            <path id="Trazado_988235" data-name="Trazado 988235" d="M993.9,997.973a1.65,1.65,0,0,0-1-.281,2.593,2.593,0,0,0-1.059.216,2.473,2.473,0,0,0-1.263,1.014,1.27,1.27,0,0,0-.148.6v.314a3.542,3.542,0,0,0,.093.7,4.331,4.331,0,0,1,.092.887,1.312,1.312,0,0,0-.313.047.7.7,0,0,1-.2.038.178.178,0,0,1-.142-.075,1.11,1.11,0,0,1-.134-.292c-.006-.037-.018-.144-.037-.319s-.042-.388-.069-.639-.059-.525-.093-.822-.065-.589-.1-.877q-.1-.939-.156-1.38c0-.149.107-.226.323-.226a.346.346,0,0,1,.3.165,1.343,1.343,0,0,1,.175.375,2.277,2.277,0,0,1,.089.417,2.808,2.808,0,0,0,.041.292,4.322,4.322,0,0,1,3.023-1.108c.135,0,.276,0,.424.01a.758.758,0,0,1,.138-.01.226.226,0,0,1,.167.113.516.516,0,0,1,.1.319C994.157,997.759,994.072,997.937,993.9,997.973Z" transform="translate(-972.938 -993.861)" fill="#360b1e" fill-rule="evenodd"/>
            <path id="Trazado_988236" data-name="Trazado 988236" d="M1010.874,999.548q1.013,0,1.014.526a1.417,1.417,0,0,1-.562.919,6.054,6.054,0,0,1-2.258,1.249q-.066,0-.144-.131l-.12-.2a.6.6,0,0,0-.059-.089,6.252,6.252,0,0,0,1.742-.863q.461-.338.461-.554c0-.144-.18-.216-.544-.216a7.191,7.191,0,0,0-1.594.262,1.252,1.252,0,0,1-.831-.347.831.831,0,0,1-.3-.587.971.971,0,0,1,.166-.546,2.035,2.035,0,0,1,.443-.464,3.581,3.581,0,0,1,.644-.395,4.213,4.213,0,0,1,1.871-.441,2.653,2.653,0,0,1,.554.056.231.231,0,0,1,.258.2,4.031,4.031,0,0,1,.037.647,2.863,2.863,0,0,0-1.227-.253,2.593,2.593,0,0,0-1.4.347,1.051,1.051,0,0,0-.591.883c0,.175.127.262.379.262l.673-.075A6.871,6.871,0,0,1,1010.874,999.548Z" transform="translate(-986.077 -994.432)" fill="#360b1e" fill-rule="evenodd"/>
            <path id="Trazado_988237" data-name="Trazado 988237" d="M1025.4,993.189q.12,1.755.2,4.065c-.037.194-.183.292-.442.292a.572.572,0,0,1-.209-.042.214.214,0,0,1-.132-.117v-4.2Zm-.857-1.276c0-.22.126-.328.378-.328a.672.672,0,0,1,.4.113.776.776,0,0,1,.028.2.314.314,0,0,1-.074.192.263.263,0,0,1-.221.095.69.69,0,0,1-.3-.071A.487.487,0,0,1,1024.54,991.913Z" transform="translate(-998.186 -990.063)" fill="#360b1e" fill-rule="evenodd"/>
            <path id="Trazado_988238" data-name="Trazado 988238" d="M1030.838,995.769l.02-1.5a2.523,2.523,0,0,0-.065-.611h-1.428l-.02-.647h1.383v-2.422a.442.442,0,0,1,.11-.169.354.354,0,0,1,.217-.131.546.546,0,0,1,.152.018.3.3,0,0,1,.138.131,8.7,8.7,0,0,1,.148,1.87c0,.206.009.409.027.609a4.908,4.908,0,0,1,.591-.037h.479a2.507,2.507,0,0,0,.322-.02l-.027.677-1.347-.038.047,3.239a.707.707,0,0,1-.286.076C1030.991,996.81,1030.838,996.463,1030.838,995.769Z" transform="translate(-1001.636 -989.13)" fill="#360b1e" fill-rule="evenodd"/>
            <path id="Trazado_988239" data-name="Trazado 988239" d="M1045.061,1005.2q-.193.442-.461.441a.2.2,0,0,1-.189-.117.347.347,0,0,1,0-.278,20.5,20.5,0,0,1,.585-1.99q.383-1.119.512-1.5a11.866,11.866,0,0,1-1.014-1.314,13.39,13.39,0,0,1-1.42-2.225.024.024,0,0,1,.01-.018l.35-.357a16.789,16.789,0,0,1,1.9,2.328c.2.275.352.508.469.7.13-.264.23-.491.3-.681s.133-.344.179-.46l.189-.465q.313-.778.867-1.981a.485.485,0,0,1,.506.085.167.167,0,0,1,.037.109.354.354,0,0,1-.019.117Z" transform="translate(-1011.49 -994.123)" fill="#360b1e" fill-rule="evenodd"/>
          </g>
          <g id="Grupo_1153311" data-name="Grupo 1153311" transform="translate(44.586 18.588)">
            <path id="Trazado_988240" data-name="Trazado 988240" d="M919.554,1024.058a.141.141,0,0,1,0-.282l33.221-.316h0a.141.141,0,0,1,0,.282l-33.221.316Z" transform="translate(-919.413 -1023.46)" fill="#360b1e"/>
          </g>
          <g id="Grupo_1153315" data-name="Grupo 1153315" transform="translate(45.613 38.643)">
            <g id="Grupo_1153312" data-name="Grupo 1153312" transform="translate(1.241 0.29)">
              <path id="Trazado_988241" data-name="Trazado 988241" d="M959.913,1120.573H927.594a.141.141,0,0,1-.141-.141v-24.691a.141.141,0,0,1,.282,0v24.549h32.177a.141.141,0,0,1,.141.141A.143.143,0,0,1,959.913,1120.573Z" transform="translate(-927.453 -1095.6)" fill="#360b1e"/>
            </g>
            <g id="Grupo_1153313" data-name="Grupo 1153313">
              <path id="Trazado_988242" data-name="Trazado 988242" d="M925.677,1097.377a.142.142,0,0,1-.127-.078l-1.116-2.272-1.115,2.272a.141.141,0,0,1-.253-.124l1.241-2.53a.147.147,0,0,1,.253,0l1.242,2.53a.142.142,0,0,1-.064.189A.159.159,0,0,1,925.677,1097.377Z" transform="translate(-923.052 -1094.571)" fill="#360b1e"/>
            </g>
            <g id="Grupo_1153314" data-name="Grupo 1153314" transform="translate(31.075 23.715)">
              <path id="Trazado_988243" data-name="Trazado 988243" d="M1033.38,1181.472a.141.141,0,0,1-.064-.266l2.236-1.139-2.236-1.139a.141.141,0,0,1,.128-.251l2.483,1.265a.141.141,0,0,1,0,.251l-2.483,1.265A.136.136,0,0,1,1033.38,1181.472Z" transform="translate(-1033.239 -1178.66)" fill="#360b1e"/>
            </g>
            <path id="Trazado_988244" data-name="Trazado 988244" d="M949.438,1147.061a1.094,1.094,0,1,1,1.094,1.114A1.105,1.105,0,0,1,949.438,1147.061Z" transform="translate(-941.997 -1131.457)" fill="#fc9f07" fill-rule="evenodd"/>
            <path id="Trazado_988245" data-name="Trazado 988245" d="M972.718,1162.874a1.094,1.094,0,1,1,1.094,1.114A1.1,1.1,0,0,1,972.718,1162.874Z" transform="translate(-958.711 -1142.811)" fill="#fc9f07" fill-rule="evenodd"/>
            <path id="Trazado_988246" data-name="Trazado 988246" d="M980.473,1123.354a1.094,1.094,0,1,1,1.094,1.114A1.1,1.1,0,0,1,980.473,1123.354Z" transform="translate(-964.279 -1114.437)" fill="#fc9f07" fill-rule="evenodd"/>
            <path id="Trazado_988247" data-name="Trazado 988247" d="M995.993,1154.964a1.095,1.095,0,1,1,1.094,1.115A1.1,1.1,0,0,1,995.993,1154.964Z" transform="translate(-975.422 -1137.132)" fill="#fc9f07" fill-rule="evenodd"/>
            <path id="Trazado_988248" data-name="Trazado 988248" d="M1003.75,1131.254a1.094,1.094,0,1,1,1.094,1.115A1.1,1.1,0,0,1,1003.75,1131.254Z" transform="translate(-980.991 -1120.109)" fill="#fc9f07" fill-rule="evenodd"/>
            <path id="Trazado_988249" data-name="Trazado 988249" d="M980.473,1139.164a1.094,1.094,0,1,1,1.094,1.114A1.105,1.105,0,0,1,980.473,1139.164Z" transform="translate(-964.279 -1125.788)" fill="#ef5e7f" fill-rule="evenodd"/>
            <path id="Trazado_988250" data-name="Trazado 988250" d="M949.438,1123.354a1.094,1.094,0,1,1,1.094,1.114A1.1,1.1,0,0,1,949.438,1123.354Z" transform="translate(-941.997 -1114.437)" fill="#ef5e7f" fill-rule="evenodd"/>
            <path id="Trazado_988251" data-name="Trazado 988251" d="M933.923,1170.77a1.094,1.094,0,1,1,1.094,1.114A1.1,1.1,0,0,1,933.923,1170.77Z" transform="translate(-930.857 -1148.48)" fill="#ef5e7f" fill-rule="evenodd"/>
            <path id="Trazado_988252" data-name="Trazado 988252" d="M1011.51,1147.061a1.094,1.094,0,1,1,1.093,1.114A1.1,1.1,0,0,1,1011.51,1147.061Z" transform="translate(-986.563 -1131.457)" fill="#ef5e7f" fill-rule="evenodd"/>
            <path id="Trazado_988253" data-name="Trazado 988253" d="M964.958,1147.061a1.094,1.094,0,1,1,1.094,1.114A1.1,1.1,0,0,1,964.958,1147.061Z" transform="translate(-953.14 -1131.457)" fill="#ef5e7f" fill-rule="evenodd"/>
            <path id="Trazado_988254" data-name="Trazado 988254" d="M995.993,1099.644a1.094,1.094,0,1,1,1.094,1.114A1.1,1.1,0,0,1,995.993,1099.644Z" transform="translate(-975.422 -1097.414)" fill="#7a86f2" fill-rule="evenodd"/>
            <path id="Trazado_988255" data-name="Trazado 988255" d="M1011.51,1115.454a1.094,1.094,0,1,1,1.093,1.115A1.1,1.1,0,0,1,1011.51,1115.454Z" transform="translate(-986.563 -1108.765)" fill="#7a86f2" fill-rule="evenodd"/>
            <path id="Trazado_988256" data-name="Trazado 988256" d="M988.233,1131.254a1.094,1.094,0,1,1,1.094,1.115A1.1,1.1,0,0,1,988.233,1131.254Z" transform="translate(-969.851 -1120.109)" fill="#7a86f2" fill-rule="evenodd"/>
            <path id="Trazado_988257" data-name="Trazado 988257" d="M972.718,1115.454a1.094,1.094,0,1,1,1.094,1.115A1.1,1.1,0,0,1,972.718,1115.454Z" transform="translate(-958.711 -1108.765)" fill="#7a86f2" fill-rule="evenodd"/>
          </g>
        </g>
        <path id="Trazado_988258" data-name="Trazado 988258" d="M739.637,955.444H841.019a1.654,1.654,0,0,1,1.639,1.67v2.19a1.654,1.654,0,0,1-1.639,1.668H739.637A1.654,1.654,0,0,1,738,959.3v-2.19A1.654,1.654,0,0,1,739.637,955.444Z" transform="translate(-737.998 -955.444)" fill="#fc9f07" fill-rule="evenodd"/>
      </g>
      <g id="Grupo_1153339" data-name="Grupo 1153339" transform="translate(590.898 962.069)">
        <path id="Trazado_988259" data-name="Trazado 988259" d="M615.794,1270.564s-3.335,14.992-5.268,23.886c-.994,4.566-3.239,13.885-5.129,17.56-1.791,3.483-2.8-.894-2.8-.894s.123-22.268,1.011-28.12,6.1-13.526,6.1-13.526Z" transform="translate(-599.298 -1187.532)" fill="#ffbfbe" fill-rule="evenodd"/>
        <path id="Trazado_988260" data-name="Trazado 988260" d="M603.8,1313.93c-.259,5.313-1.176,26.174.533,27.928.88.9,1.344.984,1.589.893-.176.42-.351.845-.523,1.179-1.791,3.483-2.8-.894-2.8-.894s.126-22.267,1.014-28.118C603.656,1314.6,603.723,1314.263,603.8,1313.93Z" transform="translate(-599.295 -1219.454)" fill="#ef5e7f" fill-rule="evenodd"/>
        <g id="Grupo_1153318" data-name="Grupo 1153318" transform="translate(0 131.686)">
          <path id="Trazado_988261" data-name="Trazado 988261" d="M605.562,1446.152H591.039a.141.141,0,1,1,0-.282h14.523a.141.141,0,1,1,0,.282Z" transform="translate(-590.898 -1445.87)" fill="#360b1e"/>
        </g>
        <path id="Trazado_988262" data-name="Trazado 988262" d="M674.425,1270.58s-.455,15.353-.682,24.451c-.117,4.67-.568,14.246-1.735,18.211-1.1,3.758-2.917-.353-2.917-.353s-4.067-21.895-4.294-27.807,3.449-14.433,3.449-14.433Z" transform="translate(-643.949 -1188.33)" fill="#ffbfbe" fill-rule="evenodd"/>
        <path id="Trazado_988263" data-name="Trazado 988263" d="M664.806,1318.44c.743,5.267,3.766,25.929,5.774,27.331,1.035.72,1.506.713,1.729.578-.094.444.427.943.322,1.3-1.1,3.758-3.641-.415-3.641-.415s-3.957-21.878-4.184-27.791C664.794,1319.12,664.8,1318.781,664.806,1318.44Z" transform="translate(-643.957 -1222.692)" fill="#ef5e7f" fill-rule="evenodd"/>
        <path id="Trazado_988264" data-name="Trazado 988264" d="M636.839,1153.351s3.883,11.244,3.527,17.26-2.079,24.529-2.079,24.529l-24.69-.766s3.621-15.627,3.312-19.481-1.657-14.668.306-17.764S633.115,1152.054,636.839,1153.351Z" transform="translate(-607.196 -1103.872)" fill="#360b1e" fill-rule="evenodd"/>
        <path id="Trazado_988265" data-name="Trazado 988265" d="M659.688,1128.557l3.756,7.554s-6.886,2.17-7.3.292S658.02,1128.221,659.688,1128.557Z" transform="translate(-637.705 -1086.351)" fill="#fff" fill-rule="evenodd"/>
        <path id="Trazado_988266" data-name="Trazado 988266" d="M633.5,982.4s1.086-2.565,4.4-.12,6.822,11.829,6.785,14.307a6.13,6.13,0,0,1-3.709,5.226c-1.779.774-13.5,1.9-14.662-2.986s2.552-6.437,2.421-9.012S629.812,980.557,633.5,982.4Z" transform="translate(-616.164 -980.581)" fill="#360b1e" fill-rule="evenodd"/>
        <path id="Trazado_988267" data-name="Trazado 988267" d="M633.85,1048.36s6.134-2.651,7.733.279,5.515,19.73,3.436,21.063-5.041-.079-5.041-.079-.042,5.036.491,6.742,3.076,5.91,3.221,10.291c.086,2.616.152,5.485.152,5.485s-7.7-.3-8.57-1.437-.825-4.515-1.746-10.15c-.6-3.675-1.806-8.854-1.806-8.854l-1.76.481s-2.558,10.55-2.93,13.428.054,4.583-2.078,4.957-7.727,1.385-7.994-.64.746-9.006,1.706-11.564,3.3-6.874,2.184-7.3-1.651-.746-2.238-2.984-2.612-15.721-1.758-17.213S626.6,1048.468,633.85,1048.36Z" transform="translate(-609.384 -1027.991)" fill="#7a86f2" fill-rule="evenodd"/>
        <path id="Trazado_988268" data-name="Trazado 988268" d="M648.116,1020.056s2.595,5.271.677,6.843-7.035,2.84-9.276.509S638.973,1013.3,648.116,1020.056Z" transform="translate(-625.168 -1006.974)" fill="#12130f" fill-rule="evenodd"/>
        <path id="Trazado_988269" data-name="Trazado 988269" d="M646.2,1029.82l5.873,1.544s-.439,3.431.094,3.789a3.61,3.61,0,0,0,.886.352,5.707,5.707,0,0,0,.1,1.169,2.1,2.1,0,0,1-.409.214,48.449,48.449,0,0,1-7.292.742,3.574,3.574,0,0,1-.477-.158c-.024-.367-.042-.677-.054-.845.567-.2,1.148-.478,1.2-.816C646.219,1035.167,646.2,1029.82,646.2,1029.82Z" transform="translate(-629.687 -1015.469)" fill="#ffbfbe" fill-rule="evenodd"/>
        <path id="Trazado_988270" data-name="Trazado 988270" d="M655.3,1034.36l-.138,2.494a6.4,6.4,0,0,1-1.571.921,5.079,5.079,0,0,1-2.087-.023c-.512-.187-2.033-3.518-2.033-3.518Z" transform="translate(-632.953 -1018.639)" fill="#ef5e7f" fill-rule="evenodd"/>
        <path id="Trazado_988271" data-name="Trazado 988271" d="M653.084,998.021l-.061,4.591s-2.613,4.088-3.35,4.058-2.275.154-2.982-.247-3.074-2.644-3.228-3.566-.43-6.178-.43-6.178,2.552-3.628,3.29-3.72S651.917,995.993,653.084,998.021Z" transform="translate(-628.33 -989.003)" fill="#ffbfbe" fill-rule="evenodd"/>
        <path id="Trazado_988272" data-name="Trazado 988272" d="M639.111,1010.809s-1.017-1.616-1.455-.938.925,4.353,1.766,3.847S639.32,1011.218,639.111,1010.809Z" transform="translate(-624.408 -1001.027)" fill="#ffbfbe" fill-rule="evenodd"/>
        <g id="Grupo_1153319" data-name="Grupo 1153319" transform="translate(17.739 3.705)">
          <path id="Trazado_988273" data-name="Trazado 988273" d="M663.078,1001.47a.141.141,0,0,1-.12-.067c-.268-.434-2.664-4.278-4.239-5.624-1.513-1.294-4.823-3.427-4.857-3.449a.141.141,0,1,1,.153-.237c.034.021,3.359,2.165,4.887,3.472,1.607,1.374,4.025,5.253,4.3,5.691a.141.141,0,0,1-.046.194A.133.133,0,0,1,663.078,1001.47Z" transform="translate(-653.798 -992.071)" fill="#360b1e"/>
        </g>
        <path id="Trazado_988274" data-name="Trazado 988274" d="M651.449,1016.99s-.12,1.043-.472,1.16a8.223,8.223,0,0,1-2.843-.013,1.978,1.978,0,0,1-.571-.867s.618.629,1.018.651a7.961,7.961,0,0,0,2.542-.262A5.27,5.27,0,0,0,651.449,1016.99Z" transform="translate(-631.582 -1006.257)" fill="#ef5e7f" fill-rule="evenodd"/>
        <path id="Trazado_988275" data-name="Trazado 988275" d="M653.082,1008.261c0-.478-2.934-.623-2.97-.082S653.078,1008.746,653.082,1008.261Z" transform="translate(-633.412 -999.683)" fill="#360b1e" fill-rule="evenodd"/>
        <path id="Trazado_988276" data-name="Trazado 988276" d="M671.112,1008.261c0-.478-2.935-.623-2.97-.082S671.109,1008.746,671.112,1008.261Z" transform="translate(-646.357 -999.683)" fill="#360b1e" fill-rule="evenodd"/>
        <path id="Trazado_988277" data-name="Trazado 988277" d="M653.111,1053.44a23.606,23.606,0,0,1,1.54,6.97c.147,3.56-1.953,10.27-1.953,10.27l-3.231.26a73.99,73.99,0,0,0-2.934-8.542c-1.443-3.156-1.55-8.3-1.55-8.3s3.531.072,4.776.037A16.8,16.8,0,0,0,653.111,1053.44Z" transform="translate(-629.73 -1032.428)" fill="#fff" fill-rule="evenodd"/>
        <g id="Grupo_1153320" data-name="Grupo 1153320" transform="translate(21.074 9.331)">
          <path id="Trazado_988278" data-name="Trazado 988278" d="M668.518,1014.435H666.83a1.207,1.207,0,1,1,0-2.414h1.688a1.207,1.207,0,1,1,0,2.414Zm-1.688-2.132a.925.925,0,1,0,0,1.85h1.688a.925.925,0,1,0,0-1.85Z" transform="translate(-665.623 -1012.021)" fill="#360b1e"/>
        </g>
        <g id="Grupo_1153321" data-name="Grupo 1153321" transform="translate(15.83 9.378)">
          <path id="Trazado_988279" data-name="Trazado 988279" d="M649.922,1014.6h-1.686a1.206,1.206,0,1,1,0-2.412h1.686a1.206,1.206,0,1,1,0,2.412Zm-1.687-2.132a.924.924,0,1,0,0,1.848h1.687a.924.924,0,1,0,0-1.848Z" transform="translate(-647.028 -1012.186)" fill="#360b1e"/>
        </g>
        <g id="Grupo_1153322" data-name="Grupo 1153322" transform="translate(19.563 9.891)">
          <path id="Trazado_988280" data-name="Trazado 988280" d="M661.92,1014.434a.147.147,0,0,1-.052-.01,2.066,2.066,0,0,0-1.407-.008.141.141,0,1,1-.114-.258,2.315,2.315,0,0,1,1.625,0,.141.141,0,0,1-.052.272Z" transform="translate(-660.264 -1014.007)" fill="#360b1e"/>
        </g>
        <g id="Grupo_1153323" data-name="Grupo 1153323" transform="translate(13.56 8.282)">
          <path id="Trazado_988281" data-name="Trazado 988281" d="M641.554,1010.085a.139.139,0,0,1-.076-.022c-.848-.546-2.251-1.433-2.407-1.489a.141.141,0,1,1,.1-.265c.236.086,2.236,1.371,2.463,1.517a.141.141,0,0,1-.076.26Z" transform="translate(-638.978 -1008.3)" fill="#360b1e"/>
        </g>
        <g id="Grupo_1153325" data-name="Grupo 1153325" transform="translate(24.044 124.179)">
          <g id="Grupo_1153324" data-name="Grupo 1153324" transform="translate(0 3.646)">
            <path id="Trazado_988282" data-name="Trazado 988282" d="M689.184,1434.226s.831.7.638,1.381.021.737-1.182.776-10.429-.867-11.4-1.368a1.339,1.339,0,0,1,.219-2.334C678.31,1432.511,689.184,1434.226,689.184,1434.226Z" transform="translate(-676.513 -1432.53)" fill="#fff" fill-rule="evenodd"/>
            <path id="Trazado_988283" data-name="Trazado 988283" d="M688.219,1436.172c-1.32,0-10.4-.864-11.4-1.384a1.351,1.351,0,0,1-.647-1.439,1.293,1.293,0,0,1,.9-1.159c.864-.17,11.328,1.474,11.773,1.545a.147.147,0,0,1,.069.031c.037.031.9.766.682,1.527-.029.1-.049.194-.066.271-.118.54-.252.575-1.247.607Zm-10.924-3.714a.953.953,0,0,0-.166.01,1.032,1.032,0,0,0-.678.922,1.077,1.077,0,0,0,.5,1.149c.93.481,10.216,1.389,11.329,1.352.9-.028.9-.028.981-.385.018-.081.039-.176.07-.288.148-.521-.428-1.085-.564-1.209C685.876,1433.552,678.629,1432.458,677.3,1432.458Z" transform="translate(-676.154 -1432.178)" fill="#360b1e"/>
          </g>
          <path id="Trazado_988284" data-name="Trazado 988284" d="M682.082,1419.309s8.562,3.926,8.637,4.938.054.852-1.146.983-10.913.062-11.23-1.423a16.621,16.621,0,0,1,.237-4.557A16.277,16.277,0,0,0,682.082,1419.309Z" transform="translate(-677.654 -1419.25)" fill="#360b1e" fill-rule="evenodd"/>
          <path id="Trazado_988285" data-name="Trazado 988285" d="M684.928,1426.028a7.293,7.293,0,0,1-1.774.755c-.494.031-1.571-1.042-1.571-1.042s1.086,2.093,1.763,2.056S684.732,1426.036,684.928,1426.028Z" transform="translate(-680.052 -1423.91)" fill="#fff" fill-rule="evenodd"/>
        </g>
        <g id="Grupo_1153327" data-name="Grupo 1153327" transform="translate(1.54 123.162)">
          <g id="Grupo_1153326" data-name="Grupo 1153326" transform="translate(0 3.635)">
            <path id="Trazado_988286" data-name="Trazado 988286" d="M609.295,1431.8s.752.78.489,1.438-.058.736-1.258.647-10.28-1.963-11.189-2.562a1.339,1.339,0,0,1,.462-2.3C598.664,1428.947,609.295,1431.8,609.295,1431.8Z" transform="translate(-596.715 -1428.886)" fill="#fff" fill-rule="evenodd"/>
            <path id="Trazado_988287" data-name="Trazado 988287" d="M608.758,1433.708c-.156,0-.351-.012-.6-.031-1.043-.077-10.294-1.951-11.256-2.585a1.351,1.351,0,0,1-.493-1.5,1.294,1.294,0,0,1,1.02-1.059c.878-.066,11.11,2.662,11.545,2.779a.136.136,0,0,1,.065.038c.033.035.812.854.519,1.588-.041.1-.07.189-.095.264C609.331,1433.595,609.222,1433.708,608.758,1433.708Zm-11.267-4.893-.037,0a1.033,1.033,0,0,0-.772.846,1.077,1.077,0,0,0,.374,1.194c.874.576,10,2.456,11.122,2.539.9.067.9.066,1.016-.28.026-.079.057-.172.1-.279.2-.5-.313-1.123-.435-1.26C605.926,1430.789,598.375,1428.815,597.491,1428.815Z" transform="translate(-596.357 -1428.534)" fill="#360b1e"/>
          </g>
          <path id="Trazado_988288" data-name="Trazado 988288" d="M603.147,1416.073s8.1,4.808,8.067,5.822-.037.853-1.244.857-10.858-1.091-11.017-2.6a16.653,16.653,0,0,1,.716-4.507A16.412,16.412,0,0,0,603.147,1416.073Z" transform="translate(-598.207 -1415.645)" fill="#360b1e" fill-rule="evenodd"/>
          <path id="Trazado_988289" data-name="Trazado 988289" d="M606.294,1422.954a7.3,7.3,0,0,1-1.843.563c-.495-.021-1.452-1.2-1.452-1.2s.86,2.2,1.536,2.231S606.1,1422.943,606.294,1422.954Z" transform="translate(-601.125 -1420.434)" fill="#fff" fill-rule="evenodd"/>
        </g>
        <g id="Grupo_1153329" data-name="Grupo 1153329" transform="translate(31.085 0)">
          <path id="Trazado_988290" data-name="Trazado 988290" d="M709.457,1032.243s-.671-5.035-1.382-4.522-.809,3.476-.809,3.476l-3.91,5.884-.178,1.383,4.522-.237s-.3-.454.415-1.7A20.777,20.777,0,0,0,709.457,1032.243Z" transform="translate(-702.597 -1013.936)" fill="#ef5e7f" fill-rule="evenodd"/>
          <g id="Grupo_1153328" data-name="Grupo 1153328">
            <path id="Trazado_988291" data-name="Trazado 988291" d="M753.516,978.983h0a.264.264,0,0,0-.368.061l-.687.957a.261.261,0,0,0,.061.367h0a.262.262,0,0,0,.367-.059l.687-.958A.262.262,0,0,0,753.516,978.983Z" transform="translate(-737.945 -978.934)" fill="#ef5e7f" fill-rule="evenodd"/>
            <path id="Trazado_988292" data-name="Trazado 988292" d="M716.259,980.775h0a.945.945,0,0,0-1.321.217L701.3,1000a.949.949,0,0,0,.217,1.323h0a.949.949,0,0,0,1.323-.217l13.641-19A.948.948,0,0,0,716.259,980.775Z" transform="translate(-701.119 -980.127)" fill="#360b1e" fill-rule="evenodd"/>
          </g>
          <path id="Trazado_988293" data-name="Trazado 988293" d="M702.944,1024.729l-.612.237a3.331,3.331,0,0,0-.474.987c-.118.493-.178,2.528-.355,3.081s-.572,1.323-.276,1.974a2.476,2.476,0,0,0,1.106,1.382c.553.278,3.772.14,4.266-.3s2.014-1.283,2.112-2.132.158-4.068.257-5.193.336-3.93-.3-3.969-1.165.1-1.165.809-.3,3.121-.316,3.831a7.508,7.508,0,0,1-.2,2.231c-.2.237-.513-1.678-.711-2.31s-.73-2.844-1.245-2.884-1.323-.316-1.007.513a11.928,11.928,0,0,1,.434,2.509s-.257-1.441-.829-1.421S702.944,1024.729,702.944,1024.729Z" transform="translate(-701.119 -1008.988)" fill="#ffbfbe" fill-rule="evenodd"/>
        </g>
        <path id="Trazado_988294" data-name="Trazado 988294" d="M688.867,1092.424a30.793,30.793,0,0,0-1.537,4.719c-.268,1.629-1.313,4.449-2.091,4.6s-1.386-.731-1.386-.731.51-5.639.973-6.759,2.844-4.449,3.16-4.3.024,1.118.024,1.118.778-1.167,1.07-.8-.681,1.945-.681,1.945S689.024,1091.84,688.867,1092.424Z" transform="translate(-657.638 -1058.637)" fill="#ffbfbe" fill-rule="evenodd"/>
        <path id="Trazado_988295" data-name="Trazado 988295" d="M701.646,1064.083s.931,16.19-.368,17.309c-1.792,1.543-6.257,1.058-6.682-.983s2.5-16.49,2.5-16.49S700.633,1064.631,701.646,1064.083Z" transform="translate(-665.32 -1039.952)" fill="#7a86f2" fill-rule="evenodd"/>
        <g id="Grupo_1153330" data-name="Grupo 1153330" transform="translate(14.686 37.174)">
          <path id="Trazado_988296" data-name="Trazado 988296" d="M643.831,1112.829q-.366,0-.723-.013a.142.142,0,0,1-.136-.146.144.144,0,0,1,.146-.136c5.124.195,11.88-1.763,11.947-1.782a.141.141,0,0,1,.079.271A48.715,48.715,0,0,1,643.831,1112.829Z" transform="translate(-642.973 -1110.747)" fill="#360b1e"/>
        </g>
        <g id="Grupo_1153331" data-name="Grupo 1153331" transform="translate(11.704 27.243)">
          <path id="Trazado_988297" data-name="Trazado 988297" d="M636.173,1087.575a.14.14,0,0,1-.1-.043c-1.186-1.242-3.568-11.393-3.669-11.825a.141.141,0,0,1,.275-.064c.025.105,2.465,10.507,3.6,11.693a.141.141,0,0,1,0,.2A.133.133,0,0,1,636.173,1087.575Z" transform="translate(-632.398 -1075.534)" fill="#360b1e"/>
        </g>
        <g id="Grupo_1153332" data-name="Grupo 1153332" transform="translate(29.117 23.921)">
          <path id="Trazado_988298" data-name="Trazado 988298" d="M694.284,1078.546a.141.141,0,0,1-.141-.135c-.076-1.9,2.2-14.025,2.292-14.54a.141.141,0,1,1,.277.052c-.023.126-2.362,12.611-2.288,14.478a.141.141,0,0,1-.135.147Z" transform="translate(-694.141 -1063.755)" fill="#360b1e"/>
        </g>
        <path id="Trazado_988299" data-name="Trazado 988299" d="M707.128,1034.76s.283,1.351.364,1.856a5.158,5.158,0,0,1-.186,1.5,11.394,11.394,0,0,0-.052-1.459c-.08-.673-.31-1.843-.31-1.843Z" transform="translate(-674.216 -1019.016)" fill="#ef5e7f" fill-rule="evenodd"/>
        <path id="Trazado_988300" data-name="Trazado 988300" d="M670.9,1014.684c0-.292-.158-.529-.351-.529s-.351.237-.351.529.157.529.351.529S670.9,1014.974,670.9,1014.684Z" transform="translate(-647.834 -1004.222)" fill="#360b1e" fill-rule="evenodd"/>
        <path id="Trazado_988301" data-name="Trazado 988301" d="M655,1014.084c0-.292-.156-.529-.351-.529s-.351.237-.351.529.156.527.351.527S655,1014.374,655,1014.084Z" transform="translate(-636.418 -1003.791)" fill="#360b1e" fill-rule="evenodd"/>
        <path id="Trazado_988302" data-name="Trazado 988302" d="M662.342,1025.362l-1.739-.062s.492.618,1.031.553A.865.865,0,0,0,662.342,1025.362Z" transform="translate(-640.945 -1012.224)" fill="#ef5e7f" fill-rule="evenodd"/>
        <g id="Grupo_1153333" data-name="Grupo 1153333" transform="translate(18.149 14.169)">
          <path id="Trazado_988303" data-name="Trazado 988303" d="M657.54,1030.335h-.02a4.442,4.442,0,0,1-2.233-.927.141.141,0,0,1,.215-.183,4.277,4.277,0,0,0,2.059.83.141.141,0,0,1-.02.281Z" transform="translate(-655.253 -1029.175)" fill="#360b1e"/>
        </g>
        <g id="Grupo_1153334" data-name="Grupo 1153334" transform="translate(18.09 43.531)">
          <path id="Trazado_988304" data-name="Trazado 988304" d="M655.184,1142.861l-.021,0a.141.141,0,0,1-.118-.16c.435-2.887,2.337-9.246,2.357-9.309a.141.141,0,0,1,.27.081c-.019.064-1.915,6.4-2.347,9.27A.142.142,0,0,1,655.184,1142.861Z" transform="translate(-655.042 -1133.289)" fill="#360b1e"/>
        </g>
        <g id="Grupo_1153335" data-name="Grupo 1153335" transform="translate(23.127 20.555)">
          <path id="Trazado_988305" data-name="Trazado 988305" d="M673.274,1068.29a.146.146,0,0,1-.044-.007.141.141,0,0,1-.089-.179,48.352,48.352,0,0,0,1.381-6.011c.705-3.954-1.586-10.021-1.609-10.082a.141.141,0,0,1,.263-.1c.023.062,2.342,6.2,1.623,10.232a48.547,48.547,0,0,1-1.391,6.051A.14.14,0,0,1,673.274,1068.29Z" transform="translate(-672.903 -1051.82)" fill="#360b1e"/>
        </g>
        <path id="Trazado_988306" data-name="Trazado 988306" d="M646.2,993.005a12.1,12.1,0,0,1-1.245,1.954c-.715.887-2.084,2.407-2.084,2.407l-.11-.671s1.89-2.393,2.172-2.723C645.436,993.382,646.049,992.845,646.2,993.005Z" transform="translate(-628.132 -989.016)" fill="#ef5e7f" fill-rule="evenodd"/>
        <g id="Grupo_1153336" data-name="Grupo 1153336" transform="translate(14.434 3.649)">
          <path id="Trazado_988307" data-name="Trazado 988307" d="M642.219,996.5a.141.141,0,0,1-.1-.241c1.084-1.074,3.591-4.305,3.616-4.338a.141.141,0,1,1,.223.173c-.1.133-2.544,3.278-3.64,4.365A.131.131,0,0,1,642.219,996.5Z" transform="translate(-642.078 -991.871)" fill="#360b1e"/>
        </g>
        <path id="Trazado_988308" data-name="Trazado 988308" d="M640.377,1014.054l-.021.97a5.062,5.062,0,0,1-.991-1.2c-.291-.58-.413-1.268-.24-1.231A5.793,5.793,0,0,1,640.377,1014.054Z" transform="translate(-625.467 -1003.098)" fill="#ef5e7f" fill-rule="evenodd"/>
        <g id="Grupo_1153337" data-name="Grupo 1153337" transform="translate(13.553 9.389)">
          <path id="Trazado_988309" data-name="Trazado 988309" d="M640.2,1013.907a.141.141,0,0,1-.123-.073,4.13,4.13,0,0,0-1.029-1.336.141.141,0,0,1,.1-.265c.448.167,1.1,1.332,1.177,1.464a.141.141,0,0,1-.055.192A.14.14,0,0,1,640.2,1013.907Z" transform="translate(-638.953 -1012.225)" fill="#360b1e"/>
        </g>
        <g id="Grupo_1153338" data-name="Grupo 1153338" transform="translate(21.785 131.537)">
          <path id="Trazado_988310" data-name="Trazado 988310" d="M682.808,1445.622H668.284a.141.141,0,1,1,0-.282h14.524a.141.141,0,1,1,0,.282Z" transform="translate(-668.143 -1445.34)" fill="#360b1e"/>
        </g>
      </g>
      <g id="Grupo_1153383" data-name="Grupo 1153383" transform="translate(712.573 1003.387)">
        <g id="Grupo_1153340" data-name="Grupo 1153340" transform="translate(6.327 58.244)">
          <path id="Trazado_988311" data-name="Trazado 988311" d="M1074.639,1335.159h-28.271a1.6,1.6,0,1,1,0-3.194h28.271a1.6,1.6,0,0,1,0,3.194Zm-28.273-2.913a1.315,1.315,0,1,0,0,2.63h28.271a1.315,1.315,0,0,0,0-2.63Z" transform="translate(-1044.77 -1331.965)" fill="#360b1e"/>
        </g>
        <g id="Grupo_1153341" data-name="Grupo 1153341" transform="translate(12.864 29.145)">
          <path id="Trazado_988312" data-name="Trazado 988312" d="M1086.859,1258.916h-15.035a3.879,3.879,0,0,1-3.875-3.875V1232.66a3.879,3.879,0,0,1,3.875-3.874h15.035a3.879,3.879,0,0,1,3.875,3.874v22.381A3.882,3.882,0,0,1,1086.859,1258.916Zm-15.035-29.849a3.6,3.6,0,0,0-3.593,3.591v22.381a3.6,3.6,0,0,0,3.593,3.593h15.035a3.6,3.6,0,0,0,3.593-3.593v-22.381a3.6,3.6,0,0,0-3.593-3.591Z" transform="translate(-1067.95 -1228.786)" fill="#360b1e"/>
        </g>
        <path id="Trazado_988313" data-name="Trazado 988313" d="M1028.08,1182.5s2.118-1.788,2.393-2.148,1.767.615,1.461,1.32S1028.08,1182.5,1028.08,1182.5Z" transform="translate(-1026.46 -1164.809)" fill="#ef5e7f" fill-rule="evenodd"/>
        <path id="Trazado_988314" data-name="Trazado 988314" d="M1161.756,1274.54s-5.58.147-5.48.755,7.08,1.668,7.186.84S1161.756,1274.54,1161.756,1274.54Z" transform="translate(-1118.501 -1232.492)" fill="#360b1e" fill-rule="evenodd"/>
        <path id="Trazado_988315" data-name="Trazado 988315" d="M1071.7,1274.865s-1,15.741-.12,16.078,15.765-.372,17.281-2.484.8-12.681-.161-13.719S1071.7,1274.865,1071.7,1274.865Z" transform="translate(-1057.436 -1232.326)" fill="#360b1e" fill-rule="evenodd"/>
        <g id="Grupo_1153347" data-name="Grupo 1153347" transform="translate(23.864 45.534)">
          <path id="Trazado_988316" data-name="Trazado 988316" d="M1153.008,1367.1h0a2.684,2.684,0,0,1,2.685,2.683v2.071a2.684,2.684,0,0,1-2.685,2.683h0a2.683,2.683,0,0,1-2.683-2.683v-2.071A2.682,2.682,0,0,1,1153.008,1367.1Z" transform="translate(-1138.094 -1344.482)" fill="#ef5e7f" fill-rule="evenodd"/>
          <path id="Trazado_988317" data-name="Trazado 988317" d="M1155.654,1301.88h0a1.644,1.644,0,0,1,1.644,1.644v39.115a1.644,1.644,0,0,1-1.644,1.644h0a1.644,1.644,0,0,1-1.644-1.644v-39.115A1.644,1.644,0,0,1,1155.654,1301.88Z" transform="translate(-1140.74 -1297.655)" fill="#360b1e" fill-rule="evenodd"/>
          <path id="Trazado_988318" data-name="Trazado 988318" d="M1108.1,1419.69h9.885a1.142,1.142,0,0,1,1.141,1.142h0a1.142,1.142,0,0,1-1.141,1.142H1108.1a1.142,1.142,0,0,1-1.141-1.142h0A1.141,1.141,0,0,1,1108.1,1419.69Z" transform="translate(-1106.955 -1382.24)" fill="#ef5e7f" fill-rule="evenodd"/>
          <path id="Trazado_988319" data-name="Trazado 988319" d="M1154.208,1286.9a2.21,2.21,0,0,0-2.208,2.212v6.035h4.421v-6.035A2.213,2.213,0,0,0,1154.208,1286.9Z" transform="translate(-1139.296 -1286.9)" fill="#fc9f07" fill-rule="evenodd"/>
          <path id="Trazado_988320" data-name="Trazado 988320" d="M1135.744,1433.52h0a1.923,1.923,0,0,1,1.923,1.924v.345a1.923,1.923,0,0,1-1.923,1.923h0a1.923,1.923,0,0,1-1.923-1.923v-.345A1.924,1.924,0,0,1,1135.744,1433.52Z" transform="translate(-1126.244 -1392.17)" fill="#ef5e7f" fill-rule="evenodd"/>
          <path id="Trazado_988321" data-name="Trazado 988321" d="M1137.337,1423.74h0a1.3,1.3,0,0,1,1.3,1.3v7.111a1.3,1.3,0,0,1-1.3,1.3h0a1.3,1.3,0,0,1-1.3-1.3v-7.111A1.3,1.3,0,0,1,1137.337,1423.74Z" transform="translate(-1127.837 -1385.148)" fill="#360b1e" fill-rule="evenodd"/>
          <g id="Grupo_1153342" data-name="Grupo 1153342" transform="translate(13.198 4.775)">
            <path id="Trazado_988322" data-name="Trazado 988322" d="M1154.773,1344.235a.141.141,0,0,1-.139-.118c-2.063-12.627.141-39.884.164-40.158a.141.141,0,0,1,.281.023c-.022.273-2.224,27.5-.166,40.089a.141.141,0,0,1-.116.162A.09.09,0,0,1,1154.773,1344.235Z" transform="translate(-1153.753 -1303.83)" fill="#fff"/>
          </g>
          <g id="Grupo_1153343" data-name="Grupo 1153343" transform="translate(15.54 18.988)">
            <path id="Trazado_988323" data-name="Trazado 988323" d="M1163.174,1367.7l-.041,0c-.8-.09-1.049-3.157-1.074-4.225-.056-2.369.678-8.28,1.138-9.166a.141.141,0,1,1,.25.13,41.126,41.126,0,0,0-1.107,9.03c.049,2.083.494,3.913.824,3.951.032,0,.327-.012.749-1.663a23.536,23.536,0,0,0-.246-10.1.141.141,0,0,1,.247-.137,23.343,23.343,0,0,1,.273,10.311C1163.857,1367.117,1163.544,1367.7,1163.174,1367.7Z" transform="translate(-1162.056 -1354.229)" fill="#fff"/>
          </g>
          <g id="Grupo_1153344" data-name="Grupo 1153344" transform="translate(13.128 46.488)">
            <path id="Trazado_988324" data-name="Trazado 988324" d="M1163.812,1452.022h-10.166a.141.141,0,0,1,0-.282h10.166a.141.141,0,0,1,0,.282Z" transform="translate(-1153.505 -1451.74)" fill="#360b1e"/>
          </g>
          <g id="Grupo_1153345" data-name="Grupo 1153345" transform="translate(25.836 46.488)">
            <path id="Trazado_988325" data-name="Trazado 988325" d="M1203.789,1452.022h-5.083a.141.141,0,0,1,0-.282h5.083a.141.141,0,0,1,0,.282Z" transform="translate(-1198.565 -1451.74)" fill="#360b1e"/>
          </g>
          <g id="Grupo_1153346" data-name="Grupo 1153346" transform="translate(8.062 48.158)">
            <path id="Trazado_988326" data-name="Trazado 988326" d="M1143.3,1457.942h-7.623a.141.141,0,0,1,0-.282h7.623a.141.141,0,0,1,0,.282Z" transform="translate(-1135.54 -1457.66)" fill="#360b1e"/>
          </g>
        </g>
        <path id="Trazado_988327" data-name="Trazado 988327" d="M1033.195,1369.56h0a2.685,2.685,0,0,0-2.685,2.685v2.07a2.685,2.685,0,0,0,2.685,2.685h0a2.685,2.685,0,0,0,2.685-2.685v-2.07A2.684,2.684,0,0,0,1033.195,1369.56Z" transform="translate(-1028.205 -1300.714)" fill="#ef5e7f" fill-rule="evenodd"/>
        <path id="Trazado_988328" data-name="Trazado 988328" d="M1035.844,1304.35h0a1.644,1.644,0,0,0-1.644,1.644v39.117a1.644,1.644,0,0,0,1.644,1.644h0a1.644,1.644,0,0,0,1.644-1.644v-39.117A1.644,1.644,0,0,0,1035.844,1304.35Z" transform="translate(-1030.854 -1253.895)" fill="#360b1e" fill-rule="evenodd"/>
        <path id="Trazado_988329" data-name="Trazado 988329" d="M1060.8,1422.16h-9.884a1.143,1.143,0,0,0-1.142,1.142h0a1.143,1.143,0,0,0,1.142,1.142h9.884a1.143,1.143,0,0,0,1.142-1.142h0A1.141,1.141,0,0,0,1060.8,1422.16Z" transform="translate(-1042.037 -1338.48)" fill="#ef5e7f" fill-rule="evenodd"/>
        <path id="Trazado_988330" data-name="Trazado 988330" d="M1054.337,1435.98h0a1.923,1.923,0,0,0-1.922,1.923v.347a1.923,1.923,0,0,0,1.922,1.923h0a1.923,1.923,0,0,0,1.923-1.923v-.347A1.924,1.924,0,0,0,1054.337,1435.98Z" transform="translate(-1043.932 -1348.402)" fill="#ef5e7f" fill-rule="evenodd"/>
        <g id="Grupo_1153348" data-name="Grupo 1153348" transform="translate(5.381 51.004)">
          <path id="Trazado_988331" data-name="Trazado 988331" d="M1041.721,1346.7l-.023,0a.141.141,0,0,1-.116-.162c2.057-12.593-.144-39.817-.166-40.09a.141.141,0,0,1,.281-.023c.023.274,2.227,27.532.164,40.159A.139.139,0,0,1,1041.721,1346.7Z" transform="translate(-1041.414 -1306.296)" fill="#fff"/>
        </g>
        <path id="Trazado_988332" data-name="Trazado 988332" d="M1055.927,1426.21h0a1.3,1.3,0,0,0-1.3,1.3v7.11a1.3,1.3,0,0,0,1.3,1.3h0a1.3,1.3,0,0,0,1.3-1.3v-7.11A1.3,1.3,0,0,0,1055.927,1426.21Z" transform="translate(-1045.523 -1341.387)" fill="#360b1e" fill-rule="evenodd"/>
        <path id="Trazado_988333" data-name="Trazado 988333" d="M1034.411,1289.37a2.209,2.209,0,0,1,2.208,2.211v6.035H1032.2v-6.035A2.211,2.211,0,0,1,1034.411,1289.37Z" transform="translate(-1029.418 -1243.139)" fill="#fc9f07" fill-rule="evenodd"/>
        <path id="Trazado_988334" data-name="Trazado 988334" d="M1028.127,1168.972l6.2,7.486s2.634-.485,2.5-1.629-4.158-8.595-4.158-8.595a3.63,3.63,0,0,0-2.912.381C1028.474,1167.516,1027.575,1168.244,1028.127,1168.972Z" transform="translate(-1026.375 -1154.623)" fill="#360b1e" fill-rule="evenodd"/>
        <g id="Grupo_1153349" data-name="Grupo 1153349" transform="translate(3.885 92.719)">
          <path id="Trazado_988335" data-name="Trazado 988335" d="M1046.415,1454.492h-10.164a.141.141,0,0,1,0-.282h10.164a.141.141,0,1,1,0,.282Z" transform="translate(-1036.11 -1454.21)" fill="#360b1e"/>
        </g>
        <g id="Grupo_1153350" data-name="Grupo 1153350" transform="translate(15.903 92.719)">
          <path id="Trazado_988336" data-name="Trazado 988336" d="M1083.949,1454.492h-5.083a.141.141,0,0,1,0-.282h5.083a.141.141,0,0,1,0,.282Z" transform="translate(-1078.725 -1454.21)" fill="#360b1e"/>
        </g>
        <g id="Grupo_1153351" data-name="Grupo 1153351" transform="translate(8.965 94.386)">
          <path id="Trazado_988337" data-name="Trazado 988337" d="M1061.891,1460.4h-7.624a.141.141,0,1,1,0-.282h7.624a.141.141,0,0,1,0,.282Z" transform="translate(-1054.125 -1460.12)" fill="#360b1e"/>
        </g>
        <path id="Trazado_988338" data-name="Trazado 988338" d="M1151.718,1265.7l-1.82,5.659s-2.315,1.2-2.293,2.338.128,5.189.872,4.92.96-4.514.96-4.514-.212,4.624.722,4.583,1.075-4.842,1.075-4.842-.181,4.29.364,4.34.329-3.6,1-4-.591,2.775.224,2.174,1.725-3.642,2-4.758,1.114-4.958,1.22-5.666S1151.718,1265.7,1151.718,1265.7Z" transform="translate(-1112.276 -1226.031)" fill="#ffbfbe" fill-rule="evenodd"/>
        <path id="Trazado_988339" data-name="Trazado 988339" d="M1047.992,1187.12s-4.1.508-3.559,1.2c-2.324.182-5.09.743-5.925,2.112-1.516,2.49-2.026,14.5-2.026,14.5l-5.5,5.085s1.037,2.867,2.741,3.693,6.415-2.078,6.415-2.078v4.593s19.334,1.973,20.568.329,1.3-15.517,2.244-14.8,4.127,3.847,4.3,5.542a6.723,6.723,0,0,1-.038,1.786c-.156.416-.529.038-.639.463-.386,1.489-.526,2.875-.165,2.777.777-.764,2.638-.836,4.273-.429a6.229,6.229,0,0,1,2.824,1.364,27.78,27.78,0,0,0,1.454-3.2c.065-.186-.085-.4-.134-.527a.859.859,0,0,1-.057-.708c.63-2.326.567-6.527-.335-7.513-1.55-1.693-10.435-11.339-12.391-12S1052.958,1185.876,1047.992,1187.12Z" transform="translate(-1028.542 -1169.497)" fill="#7a86f2" fill-rule="evenodd"/>
        <path id="Trazado_988340" data-name="Trazado 988340" d="M1096.017,1189.187s1.4.039.591.852-5.484,1.349-6.233,1.1-2.527-.509-2.679-1.258c-.145-.711,1.091-.95,2.777-1.06A31.1,31.1,0,0,1,1096.017,1189.187Z" transform="translate(-1069.254 -1170.928)" fill="#360b1e" fill-rule="evenodd"/>
        <path id="Trazado_988341" data-name="Trazado 988341" d="M1090.462,1171.94l-.007,6.032a8.361,8.361,0,0,0,3.476.9,19.859,19.859,0,0,0,4.064-1.352l1.007-6.259Z" transform="translate(-1071.244 -1158.342)" fill="#ffbfbe" fill-rule="evenodd"/>
        <path id="Trazado_988342" data-name="Trazado 988342" d="M1090.393,1174.941l-.023,1.6s1.268,2.369,2.71,2.5a4.557,4.557,0,0,0,4.432-2.19,10.16,10.16,0,0,0,1.082-3.36S1090.362,1174.614,1090.393,1174.941Z" transform="translate(-1071.183 -1159.947)" fill="#ef5e7f" fill-rule="evenodd"/>
        <path id="Trazado_988343" data-name="Trazado 988343" d="M1084.234,1126.827s6.589-.753,7.5.945-.778,8.988-.778,8.988l-9.514,1.665-2.327-.581s-1.488-3.53-1.193-5.244,1.751-5.384,3.018-5.739a5.3,5.3,0,0,1,2.181-.188s-1.915-1.18-1.149-1.228,1.478.86,1.478.86,1.282-.936,2.071-.78S1084.234,1126.827,1084.234,1126.827Z" transform="translate(-1062.221 -1125.443)" fill="#fc9f07" fill-rule="evenodd"/>
        <path id="Trazado_988344" data-name="Trazado 988344" d="M1118.926,1161.1c-.049-.189,1.106-2.325,2.231-1.148s-1.276,3.355-1.881,3.819-.94-.011-.94-.011a14.556,14.556,0,0,0,.395-2.427Z" transform="translate(-1091.261 -1149.968)" fill="#ffbfbe" fill-rule="evenodd"/>
        <path id="Trazado_988345" data-name="Trazado 988345" d="M1084.7,1148.82a13.384,13.384,0,0,0,.124,3.161c.276.955,2.39,5.99,3.345,6.173s3.327.386,4.319-.973a13.488,13.488,0,0,0,1.966-3.51,16.575,16.575,0,0,0,.406-3.415s-.425-.3-1.275-1a16.114,16.114,0,0,1-1.511-1.5,22.2,22.2,0,0,0,1.136,2.225,13.414,13.414,0,0,1-2.486-1.724c-.688-.738-2.176-2.537-2.176-2.537a18.393,18.393,0,0,1-1.275,1.512,16.547,16.547,0,0,1-2.324,1.776,16.542,16.542,0,0,1,.787-1.65C1086,1146.955,1084.7,1148.82,1084.7,1148.82Z" transform="translate(-1067.086 -1140.002)" fill="#ffbfbe" fill-rule="evenodd"/>
        <path id="Trazado_988346" data-name="Trazado 988346" d="M1081.632,1162.546s-1.058-.561-1.355.188.783,3.147,1.431,3.247a1.438,1.438,0,0,0,1.024-.176S1081.64,1162.568,1081.632,1162.546Z" transform="translate(-1063.9 -1151.937)" fill="#ffbfbe" fill-rule="evenodd"/>
        <path id="Trazado_988347" data-name="Trazado 988347" d="M1120,1164.249l-.3,1.654a10.564,10.564,0,0,0,1.7-1.618c.516-.713.432-1.4.267-1.4A3.675,3.675,0,0,0,1120,1164.249Z" transform="translate(-1092.241 -1152.329)" fill="#ef5e7f" fill-rule="evenodd"/>
        <g id="Grupo_1153352" data-name="Grupo 1153352" transform="translate(26.633 10.117)">
          <path id="Trazado_988348" data-name="Trazado 988348" d="M1116.912,1166.5a.141.141,0,0,1-.127-.2,12.706,12.706,0,0,0,1.036-4.844.141.141,0,0,1,.14-.142h0a.141.141,0,0,1,.141.14,13.02,13.02,0,0,1-1.063,4.967A.141.141,0,0,1,1116.912,1166.5Z" transform="translate(-1116.771 -1161.315)" fill="#360b1e"/>
        </g>
        <g id="Grupo_1153353" data-name="Grupo 1153353" transform="translate(27.552 10.4)">
          <path id="Trazado_988349" data-name="Trazado 988349" d="M1120.172,1164.052a.141.141,0,0,1-.12-.215c.163-.263,1.166-1.5,1.854-1.516a.14.14,0,0,1,.145.136.142.142,0,0,1-.137.146c-.495.015-1.42,1.055-1.623,1.383A.142.142,0,0,1,1120.172,1164.052Z" transform="translate(-1120.031 -1162.32)" fill="#360b1e"/>
        </g>
        <g id="Grupo_1153354" data-name="Grupo 1153354" transform="translate(23.898 9.617)">
          <path id="Trazado_988350" data-name="Trazado 988350" d="M1109.937,1160.1a.15.15,0,0,1-.05-.009,3.694,3.694,0,0,0-2.612-.048.141.141,0,0,1-.115-.258,3.9,3.9,0,0,1,2.828.042.141.141,0,0,1-.05.273Z" transform="translate(-1107.076 -1159.545)" fill="#360b1e"/>
        </g>
        <g id="Grupo_1153355" data-name="Grupo 1153355" transform="translate(18.689 9.753)">
          <path id="Trazado_988351" data-name="Trazado 988351" d="M1091.467,1160.578a.138.138,0,0,1-.05-.009,3.689,3.689,0,0,0-2.612-.048.141.141,0,0,1-.115-.258,3.9,3.9,0,0,1,2.828.042.141.141,0,0,1-.05.273Z" transform="translate(-1088.606 -1160.024)" fill="#360b1e"/>
        </g>
        <path id="Trazado_988352" data-name="Trazado 988352" d="M1108.81,1160.723c0-.375.172-.678.386-.678s.386.3.386.678-.173.677-.386.677S1108.81,1161.1,1108.81,1160.723Z" transform="translate(-1084.423 -1150.287)" fill="#360b1e" fill-rule="evenodd"/>
        <path id="Trazado_988353" data-name="Trazado 988353" d="M1090.71,1160.753c0-.374.173-.678.386-.678s.387.3.387.678-.172.677-.387.677S1090.71,1161.128,1090.71,1160.753Z" transform="translate(-1071.427 -1150.308)" fill="#360b1e" fill-rule="evenodd"/>
        <path id="Trazado_988354" data-name="Trazado 988354" d="M1100.43,1172.158l1.868-.028a1.175,1.175,0,0,1-.877.648C1100.813,1172.841,1100.43,1172.158,1100.43,1172.158Z" transform="translate(-1078.406 -1158.964)" fill="#ef5e7f" fill-rule="evenodd"/>
        <g id="Grupo_1153356" data-name="Grupo 1153356" transform="translate(21.612 1.032)">
          <path id="Trazado_988355" data-name="Trazado 988355" d="M1106.531,1134.674a.141.141,0,0,1-.123-.211c.058-.1,1.4-2.541-.584-4.211-2.024-1.7-6.627-.363-6.673-.349a.141.141,0,0,1-.08-.27c.195-.058,4.795-1.393,6.934.4,2.17,1.822.664,4.539.648,4.566A.141.141,0,0,1,1106.531,1134.674Z" transform="translate(-1098.97 -1129.102)" fill="#360b1e"/>
        </g>
        <g id="Grupo_1153357" data-name="Grupo 1153357" transform="translate(21.802 0.165)">
          <path id="Trazado_988356" data-name="Trazado 988356" d="M1106.6,1134.511a.149.149,0,0,1-.044-.007.14.14,0,0,1-.09-.178c.021-.066,2.116-6.582-.515-7.655-2.692-1.1-6.073.679-6.107.7a.141.141,0,0,1-.133-.249c.143-.076,3.533-1.855,6.346-.709,2.872,1.171.767,7.725.676,8A.142.142,0,0,1,1106.6,1134.511Z" transform="translate(-1099.641 -1126.027)" fill="#fc9f07"/>
        </g>
        <g id="Grupo_1153358" data-name="Grupo 1153358" transform="translate(20.135 4.413)">
          <path id="Trazado_988357" data-name="Trazado 988357" d="M1097.529,1145.464a.146.146,0,0,1-.041-.006c-2.125-.652-3.68-4.026-3.745-4.169a.141.141,0,0,1,.257-.117c.015.034,1.568,3.4,3.571,4.016a.141.141,0,0,1,.094.176A.138.138,0,0,1,1097.529,1145.464Z" transform="translate(-1093.73 -1141.09)" fill="#fc9f07"/>
        </g>
        <g id="Grupo_1153359" data-name="Grupo 1153359" transform="translate(20.537 4.176)">
          <path id="Trazado_988358" data-name="Trazado 988358" d="M1100.248,1145.873a.142.142,0,0,1-.061-.014c-2.62-1.253-5-5.284-5.028-5.44a.141.141,0,0,1,.273-.068c.1.256,2.406,4.073,4.876,5.253a.141.141,0,0,1-.061.268Z" transform="translate(-1095.156 -1140.25)" fill="#360b1e"/>
        </g>
        <path id="Trazado_988359" data-name="Trazado 988359" d="M1024.365,1188.726a69.565,69.565,0,0,0-.488,9.723c.244,3.54.855,7.292,1.342,7.475s4.117.609,5.368-.733a9.137,9.137,0,0,0,1.74-3.752s-1.8-5.735-2.533-7.565-1.22-4-.61-4.638a34.1,34.1,0,0,0,2.557-3.585c.518-.836,1.09-1.527.853-1.663s1.7-2.062,1.616-2.321a1.035,1.035,0,0,0-.264-.416s-.629-.495-.993-.477a3.153,3.153,0,0,0-.9.268,2.728,2.728,0,0,0-1.71-.121c-.668.292-3.6,1.558-4.027,1.619s-2.437-.357-2.855,0a4.016,4.016,0,0,0-1.1,2.4c.157.522.409,1.138.478,1.534s1.289,1.005,1.444,1.269A2.4,2.4,0,0,1,1024.365,1188.726Z" transform="translate(-1022.336 -1165.169)" fill="#ffbfbe" fill-rule="evenodd"/>
        <path id="Trazado_988360" data-name="Trazado 988360" d="M1029.5,1184.821s2.5.822,3.1.421,1.964-1.174,2.646-1.712a19.783,19.783,0,0,0,2.593-1.983,1.49,1.49,0,0,0,.1-.753,2.194,2.194,0,0,0-.429.078,3.316,3.316,0,0,0-.457.185s.426.111.082.635-3.158,1.712-3.744,2.124-1.163,1.041-1.6,1.039-2.331-.307-2.42-.319S1029.258,1184.694,1029.5,1184.821Z" transform="translate(-1027.345 -1165.185)" fill="#ef5e7f" fill-rule="evenodd"/>
        <path id="Trazado_988361" data-name="Trazado 988361" d="M1032.63,1188.551s3.938-1.389,4.435-1.688,2.618-2.344,3.047-2.591a8.346,8.346,0,0,0,1.255-1.177s.46.276.052.392-3.952,3.569-4.455,3.851S1032.63,1188.551,1032.63,1188.551Z" transform="translate(-1029.727 -1166.836)" fill="#ef5e7f" fill-rule="evenodd"/>
        <path id="Trazado_988362" data-name="Trazado 988362" d="M1037.777,1195.415c.073-.12,3.3-2.283,3.785-2.723s2.423-2.507,2.423-2.507-1.932,2.541-2.358,2.9A43.948,43.948,0,0,1,1037.777,1195.415Z" transform="translate(-1033.422 -1171.926)" fill="#ef5e7f" fill-rule="evenodd"/>
        <path id="Trazado_988363" data-name="Trazado 988363" d="M1096.81,1176.723a8.392,8.392,0,0,0,2.523-.339c.966-.368,1.792-.654,1.792-.654s-1.352,2.026-2.194,2.318S1096.81,1176.723,1096.81,1176.723Z" transform="translate(-1075.807 -1161.548)" fill="#360b1e" fill-rule="evenodd"/>
        <path id="Trazado_988364" data-name="Trazado 988364" d="M1101.738,1176.76c-.333.118-.463.159-1,.365a6.18,6.18,0,0,1-1.974.317,4.786,4.786,0,0,0,.17.6,1.842,1.842,0,0,0,1.259.07,4.8,4.8,0,0,0,1.561-.825Z" transform="translate(-1077.207 -1162.287)" fill="#fff" fill-rule="evenodd"/>
        <path id="Trazado_988365" data-name="Trazado 988365" d="M1088.369,1156.58c.018-.306,2.679-1,2.86-.237S1088.332,1157.184,1088.369,1156.58Z" transform="translate(-1069.746 -1147.382)" fill="#fc9f07" fill-rule="evenodd"/>
        <path id="Trazado_988366" data-name="Trazado 988366" d="M1108.67,1154.94c-.018-.306-2.679-1-2.86-.237S1108.707,1155.547,1108.67,1154.94Z" transform="translate(-1082.263 -1146.204)" fill="#fc9f07" fill-rule="evenodd"/>
        <path id="Trazado_988367" data-name="Trazado 988367" d="M1092.154,1197.36l-1.884,2.377,1.1.932,2.238-1.905Z" transform="translate(-1071.111 -1177.078)" fill="#360b1e" fill-rule="evenodd"/>
        <path id="Trazado_988368" data-name="Trazado 988368" d="M1093.315,1201.913s-1.316,2.028.857,6.805,3.569,4.742,3.112,9.711a33.853,33.853,0,0,1-2.186,9.046s4.55-1.987,5.281-5.849.8-9.079-1.486-11.708-5.5-6.395-4.955-8.675S1093.315,1201.913,1093.315,1201.913Z" transform="translate(-1073.014 -1179.245)" fill="#360b1e" fill-rule="evenodd"/>
        <g id="Grupo_1153360" data-name="Grupo 1153360" transform="translate(15.841 18.927)">
          <path id="Trazado_988369" data-name="Trazado 988369" d="M1081.682,1196.384h0a.141.141,0,0,1-.106-.049l-3.036-3.546a.141.141,0,0,1,.214-.183l2.932,3.424,1.877-2.093a.141.141,0,0,1,.21.188l-1.984,2.212A.136.136,0,0,1,1081.682,1196.384Z" transform="translate(-1078.505 -1192.556)" fill="#360b1e"/>
        </g>
        <path id="Trazado_988370" data-name="Trazado 988370" d="M1049.329,1318.814s-6.031-33.226.248-34.978,8.462,0,8.961,2.755.478,31.77.478,31.77S1052.443,1320.246,1049.329,1318.814Z" transform="translate(-1039.844 -1238.661)" fill="#360b1e" fill-rule="evenodd"/>
        <path id="Trazado_988371" data-name="Trazado 988371" d="M1102.23,1317.164s-6.293-31.577-.013-33.328,8.461,0,8.96,2.755.66,30.351.66,30.351S1105.343,1318.6,1102.23,1317.164Z" transform="translate(-1077.687 -1238.661)" fill="#360b1e" fill-rule="evenodd"/>
        <g id="Grupo_1153361" data-name="Grupo 1153361" transform="translate(37.912 38.663)">
          <path id="Trazado_988372" data-name="Trazado 988372" d="M1165.2,1264.815l-.021,0a.141.141,0,0,1-.119-.16c.007-.053.16-1.334-1.909-1.757-2.173-.443-6.149,1.136-6.189,1.152a.141.141,0,1,1-.1-.261c.166-.067,4.1-1.627,6.35-1.167,2.342.48,2.134,2.06,2.132,2.075A.142.142,0,0,1,1165.2,1264.815Z" transform="translate(-1156.764 -1262.535)" fill="#360b1e"/>
        </g>
        <path id="Trazado_988373" data-name="Trazado 988373" d="M1155.77,1284.408a2.334,2.334,0,0,1,1.255-.135c.318.123,1.961.235,2.87.5a1.27,1.27,0,0,1,.6.54l.295-1.589-4.847.131Z" transform="translate(-1118.139 -1239.083)" fill="#ef5e7f" fill-rule="evenodd"/>
        <g id="Grupo_1153362" data-name="Grupo 1153362" transform="translate(21.152 21.716)">
          <path id="Trazado_988374" data-name="Trazado 988374" d="M1098.3,1227.82l-.028,0a.141.141,0,0,1-.11-.167,46.478,46.478,0,0,0,.718-11.207c-.433-5.508-1.524-13.756-1.535-13.838a.141.141,0,0,1,.28-.037c.011.083,1.1,8.338,1.537,13.853a46.814,46.814,0,0,1-.723,11.287A.141.141,0,0,1,1098.3,1227.82Z" transform="translate(-1097.339 -1202.445)" fill="#360b1e"/>
        </g>
        <g id="Grupo_1153363" data-name="Grupo 1153363" transform="translate(21.105 18.839)">
          <path id="Trazado_988375" data-name="Trazado 988375" d="M1099.454,1196.471a.142.142,0,0,1-.106-.048l-2.143-2.444a.141.141,0,0,1,.212-.186l2.094,2.388c1.224-.156,4.273-.658,4.839-1.267a7.142,7.142,0,0,0,1.124-2.56.141.141,0,1,1,.275.063,7.256,7.256,0,0,1-1.192,2.689c-.765.823-4.909,1.342-5.085,1.364Z" transform="translate(-1097.17 -1192.245)" fill="#360b1e"/>
        </g>
        <g id="Grupo_1153364" data-name="Grupo 1153364" transform="translate(13.918 44.543)">
          <path id="Trazado_988376" data-name="Trazado 988376" d="M1076.746,1317.709h0a.141.141,0,0,1-.141-.142c0-.109.026-11.078-.494-23.285-.306-7.207-1.746-9.594-2.9-10.327a1.5,1.5,0,0,0-1.33-.221.141.141,0,0,1-.111-.259,1.77,1.77,0,0,1,1.581.235c1.216.763,2.73,3.215,3.042,10.56.52,12.215.494,23.189.494,23.3A.139.139,0,0,1,1076.746,1317.709Z" transform="translate(-1071.686 -1283.386)" fill="#fff"/>
        </g>
        <g id="Grupo_1153365" data-name="Grupo 1153365" transform="translate(20.121 23.252)">
          <path id="Trazado_988377" data-name="Trazado 988377" d="M1096.3,1231.262a.145.145,0,0,1-.04-.006.141.141,0,0,1-.1-.175c.022-.073,2.158-7.338,2.251-9.3.077-1.65-1.064-3.393-2.507-5.6-.266-.408-.543-.831-.824-1.272-1.822-2.861-1.342-6.851-1.337-6.892a.141.141,0,1,1,.28.035c-.005.039-.473,3.931,1.295,6.7.281.44.557.862.823,1.269,1.471,2.25,2.633,4.027,2.553,5.768-.094,2-2.173,9.07-2.262,9.37A.143.143,0,0,1,1096.3,1231.262Z" transform="translate(-1093.682 -1207.891)" fill="#fff"/>
        </g>
        <g id="Grupo_1153366" data-name="Grupo 1153366" transform="translate(32.143 21.047)">
          <path id="Trazado_988378" data-name="Trazado 988378" d="M1136.451,1224.012h-.008a.141.141,0,0,1-.133-.148c0-.058.325-5.866.535-8.709a11.168,11.168,0,0,1,1.285-4.612c-.3-.677-2.636-6.178-1.3-10.372a.141.141,0,1,1,.269.085c-1.382,4.349,1.293,10.178,1.32,10.237a.142.142,0,0,1-.008.135,10.846,10.846,0,0,0-1.282,4.549c-.209,2.84-.531,8.645-.534,8.7A.144.144,0,0,1,1136.451,1224.012Z" transform="translate(-1136.31 -1200.072)" fill="#fff"/>
        </g>
        <g id="Grupo_1153367" data-name="Grupo 1153367" transform="translate(2.376 36.178)">
          <path id="Trazado_988379" data-name="Trazado 988379" d="M1033.937,1258.957a7.237,7.237,0,0,1-3.1-.844.141.141,0,0,1,.137-.247c.028.016,2.826,1.537,4.672.35,1.868-1.2,2.566-4.349,2.573-4.381a.141.141,0,1,1,.275.06c-.029.134-.729,3.3-2.7,4.559A3.393,3.393,0,0,1,1033.937,1258.957Z" transform="translate(-1030.762 -1253.724)" fill="#360b1e"/>
        </g>
        <path id="Trazado_988380" data-name="Trazado 988380" d="M1032.78,1168.949a1.98,1.98,0,0,0,.866-.173,1.241,1.241,0,0,0,.567-.558,1.3,1.3,0,0,0-.914-.072C1032.811,1168.294,1032.78,1168.949,1032.78,1168.949Z" transform="translate(-1029.835 -1156.064)" fill="#ef5e7f" fill-rule="evenodd"/>
        <g id="Grupo_1153368" data-name="Grupo 1153368" transform="translate(10.791 29.068)">
          <path id="Trazado_988381" data-name="Trazado 988381" d="M1060.741,1242.347a.138.138,0,0,1-.068-.018.141.141,0,0,1-.056-.191c.025-.045,2.475-4.622,1.608-13.468a.141.141,0,0,1,.126-.154.143.143,0,0,1,.154.126c.877,8.942-1.616,13.586-1.641,13.631A.136.136,0,0,1,1060.741,1242.347Z" transform="translate(-1060.6 -1228.515)" fill="#360b1e"/>
        </g>
        <g id="Grupo_1153369" data-name="Grupo 1153369" transform="translate(40.276 42.551)">
          <path id="Trazado_988382" data-name="Trazado 988382" d="M1165.29,1284.408a.141.141,0,0,1-.073-.262c.666-.4,1.731-2.707,1.839-3.98a24.527,24.527,0,0,1,.866-3.743.141.141,0,1,1,.269.083,24.787,24.787,0,0,0-.854,3.683c-.108,1.281-1.167,3.712-1.974,4.2A.127.127,0,0,1,1165.29,1284.408Z" transform="translate(-1165.149 -1276.324)" fill="#360b1e"/>
        </g>
        <path id="Trazado_988383" data-name="Trazado 988383" d="M1153.444,1295.263s-.113,2.016-.094,2.534a9.063,9.063,0,0,0,.747,2,6.668,6.668,0,0,1-.376-1.956c-.059-1.159-.059-2.822-.059-2.822Z" transform="translate(-1116.4 -1247.196)" fill="#ef5e7f" fill-rule="evenodd"/>
        <path id="Trazado_988384" data-name="Trazado 988384" d="M1149.069,1292.881c-.021-.412.87-.254.935.073S1149.089,1293.293,1149.069,1292.881Z" transform="translate(-1113.327 -1245.483)" fill="#ef5e7f" fill-rule="evenodd"/>
        <path id="Trazado_988385" data-name="Trazado 988385" d="M1156.009,1293.54c-.021-.412.87-.255.935.073S1156.032,1293.949,1156.009,1293.54Z" transform="translate(-1118.31 -1245.955)" fill="#ef5e7f" fill-rule="evenodd"/>
        <g id="Grupo_1153370" data-name="Grupo 1153370" transform="translate(38.606 33.477)">
          <path id="Trazado_988386" data-name="Trazado 988386" d="M1159.49,1247.274c-.119,0-.2-.022-.228-.067a.2.2,0,0,1-.031-.161c.11-.5,3.333-2.333,4.318-2.883a.141.141,0,1,1,.137.246,29.223,29.223,0,0,0-4.116,2.609,37.142,37.142,0,0,0,5.346-1.879.141.141,0,1,1,.107.261C1161.977,1246.648,1160.121,1247.274,1159.49,1247.274Z" transform="translate(-1159.226 -1244.146)" fill="#360b1e"/>
        </g>
        <g id="Grupo_1153371" data-name="Grupo 1153371" transform="translate(37.803 47.606)">
          <path id="Trazado_988387" data-name="Trazado 988387" d="M1156.521,1299.419a.141.141,0,0,1-.006-.282c.094,0,.341-.153.614-1.434.2-.953.574-3.315.578-3.339a.141.141,0,1,1,.278.043c0,.024-.375,2.394-.581,3.354-.244,1.145-.506,1.64-.877,1.656Z" transform="translate(-1156.38 -1294.245)" fill="#360b1e"/>
        </g>
        <path id="Trazado_988388" data-name="Trazado 988388" d="M1029.339,1207.32s.094.534.455.66.643.015.847.266.283.943.739.959,1.538.235,1.868-.11a5.225,5.225,0,0,1,.785-.644,3.042,3.042,0,0,0-.266,1.414c.125.5.282.973.282.973s-3.047-.016-3.424-.565-1.461-2.073-1.461-2.073Z" transform="translate(-1027.239 -1184.229)" fill="#ef5e7f" fill-rule="evenodd"/>
        <g id="Grupo_1153376" data-name="Grupo 1153376" transform="translate(9.386 78.618)">
          <g id="Grupo_1153372" data-name="Grupo 1153372" transform="translate(0 2.577)">
            <path id="Trazado_988389" data-name="Trazado 988389" d="M1056.687,1413.85a4.57,4.57,0,0,0-.567,1.8c-.013.822,1.819,1.527,4.019,1.653s4.161-.6,4.432-1.139.144-1.713-.381-1.882S1056.687,1413.85,1056.687,1413.85Z" transform="translate(-1055.978 -1413.709)" fill="#fff" fill-rule="evenodd"/>
            <path id="Trazado_988390" data-name="Trazado 988390" d="M1060.268,1417.1c-.166,0-.332,0-.5-.014-2.024-.115-4.167-.784-4.152-1.8a4.65,4.65,0,0,1,.585-1.867.134.134,0,0,1,.127-.071c.716.027,7.014.265,7.542.437a.812.812,0,0,1,.468.5,2.161,2.161,0,0,1-.005,1.582C1064.036,1416.469,1062.22,1417.1,1060.268,1417.1Zm-3.858-3.46a4.258,4.258,0,0,0-.508,1.657c-.011.71,1.732,1.387,3.886,1.51,2.234.126,4.078-.625,4.3-1.062a1.873,1.873,0,0,0,0-1.347.567.567,0,0,0-.295-.339C1063.418,1413.937,1059.208,1413.742,1056.41,1413.638Z" transform="translate(-1055.617 -1413.35)" fill="#360b1e"/>
          </g>
          <path id="Trazado_988391" data-name="Trazado 988391" d="M1058.966,1405.091c-.954.539-2.281,2.606-1.428,3.19s6.8,1.263,7.493-.2c.53-1.11-.093-2.287-1.327-3.022A6.1,6.1,0,0,0,1058.966,1405.091Z" transform="translate(-1056.8 -1404.485)" fill="#360b1e" fill-rule="evenodd"/>
          <g id="Grupo_1153373" data-name="Grupo 1153373" transform="translate(0.472)">
            <path id="Trazado_988392" data-name="Trazado 988392" d="M1065.183,1406.929a.141.141,0,0,1-.141-.14c0-.089-.056-2.178-3.319-2.291-3.559-.127-4.133,2.18-4.156,2.278a.141.141,0,0,1-.275-.063c.006-.026.636-2.636,4.44-2.5,3.544.123,3.591,2.547,3.591,2.572a.141.141,0,0,1-.141.141Z" transform="translate(-1057.289 -1404.211)" fill="#fff"/>
          </g>
          <g id="Grupo_1153374" data-name="Grupo 1153374" transform="translate(0.864 1.563)">
            <path id="Trazado_988393" data-name="Trazado 988393" d="M1058.821,1411.558a.137.137,0,0,1-.043-.007.141.141,0,0,1-.091-.177,3.551,3.551,0,0,1,1.038-1.584.141.141,0,0,1,.187.211,3.272,3.272,0,0,0-.956,1.459A.139.139,0,0,1,1058.821,1411.558Z" transform="translate(-1058.68 -1409.754)" fill="#fff"/>
          </g>
          <g id="Grupo_1153375" data-name="Grupo 1153375" transform="translate(2.846 0.607)">
            <path id="Trazado_988394" data-name="Trazado 988394" d="M1065.851,1406.964a.141.141,0,0,1-.059-.269,4.225,4.225,0,0,1,1-.329.141.141,0,0,1,.044.279,3.969,3.969,0,0,0-.926.306A.127.127,0,0,1,1065.851,1406.964Z" transform="translate(-1065.71 -1406.365)" fill="#fff"/>
          </g>
        </g>
        <g id="Grupo_1153381" data-name="Grupo 1153381" transform="translate(25.063 77.697)">
          <g id="Grupo_1153377" data-name="Grupo 1153377" transform="translate(0 2.686)">
            <path id="Trazado_988395" data-name="Trazado 988395" d="M1112.3,1410.96a4.786,4.786,0,0,0-.591,1.874c-.013.857,1.894,1.591,4.185,1.722s4.334-.625,4.615-1.186.15-1.785-.4-1.961S1112.3,1410.96,1112.3,1410.96Z" transform="translate(-1111.564 -1410.821)" fill="#fff" fill-rule="evenodd"/>
            <path id="Trazado_988396" data-name="Trazado 988396" d="M1116.046,1414.36q-.261,0-.523-.015c-2.1-.12-4.334-.815-4.318-1.864a4.875,4.875,0,0,1,.609-1.942.151.151,0,0,1,.128-.071c.746.028,7.3.277,7.852.456a.838.838,0,0,1,.484.515,2.251,2.251,0,0,1,0,1.644C1119.963,1413.7,1118.076,1414.36,1116.046,1414.36Zm-4.027-3.607a4.473,4.473,0,0,0-.532,1.732c-.011.742,1.807,1.45,4.052,1.579,2.334.134,4.253-.652,4.481-1.108a1.962,1.962,0,0,0,0-1.409.6.6,0,0,0-.311-.356C1119.323,1411.067,1114.935,1410.861,1112.018,1410.754Z" transform="translate(-1111.205 -1410.468)" fill="#360b1e"/>
          </g>
          <path id="Trazado_988397" data-name="Trazado 988397" d="M1114.67,1401.838c-.993.56-2.375,2.715-1.486,3.321s7.077,1.316,7.8-.207c.551-1.158-.1-2.383-1.382-3.149A6.361,6.361,0,0,0,1114.67,1401.838Z" transform="translate(-1112.421 -1401.213)" fill="#360b1e" fill-rule="evenodd"/>
          <g id="Grupo_1153378" data-name="Grupo 1153378" transform="translate(0.49)">
            <path id="Trazado_988398" data-name="Trazado 988398" d="M1121.156,1403.764a.141.141,0,0,1-.141-.14c0-.093-.057-2.274-3.462-2.392-3.7-.134-4.31,2.275-4.333,2.377a.141.141,0,0,1-.275-.063c.006-.028.665-2.727,4.618-2.6,3.686.129,3.735,2.648,3.735,2.673a.141.141,0,0,1-.14.141Z" transform="translate(-1112.941 -1400.945)" fill="#fff"/>
          </g>
          <g id="Grupo_1153379" data-name="Grupo 1153379" transform="translate(0.898 1.629)">
            <path id="Trazado_988399" data-name="Trazado 988399" d="M1114.531,1408.587a.135.135,0,0,1-.043-.007.141.141,0,0,1-.091-.177,3.691,3.691,0,0,1,1.08-1.647.141.141,0,1,1,.187.211,3.418,3.418,0,0,0-1,1.523A.143.143,0,0,1,1114.531,1408.587Z" transform="translate(-1114.39 -1406.72)" fill="#fff"/>
          </g>
          <g id="Grupo_1153380" data-name="Grupo 1153380" transform="translate(2.962 0.635)">
            <path id="Trazado_988400" data-name="Trazado 988400" d="M1121.85,1403.808a.141.141,0,0,1-.06-.269,4.352,4.352,0,0,1,1.04-.343.141.141,0,0,1,.044.279,4.1,4.1,0,0,0-.965.32A.155.155,0,0,1,1121.85,1403.808Z" transform="translate(-1121.709 -1403.195)" fill="#fff"/>
          </g>
        </g>
        <path id="Trazado_988401" data-name="Trazado 988401" d="M1083.376,1166.112s-1.069-.988-1.172-.565a1.939,1.939,0,0,0,.9,1.6.45.45,0,0,0,.536-.347Z" transform="translate(-1065.312 -1154.161)" fill="#ef5e7f" fill-rule="evenodd"/>
        <g id="Grupo_1153382" data-name="Grupo 1153382" transform="translate(17.485 9.176)">
          <path id="Trazado_988402" data-name="Trazado 988402" d="M1088.374,1167.278h0c-.729-.014-1.513-.935-2.4-2.815a24.435,24.435,0,0,1-1.629-6.387.141.141,0,0,1,.268.088,25.959,25.959,0,0,0,1.616,6.179c1.022,2.178,1.731,2.645,2.146,2.653a.141.141,0,0,1,.138.144A.137.137,0,0,1,1088.374,1167.278Z" transform="translate(-1084.334 -1157.98)" fill="#360b1e"/>
        </g>
      </g>
    </g>
  </g>
</svg>
