<svg xmlns="http://www.w3.org/2000/svg" xmlns:xlink="http://www.w3.org/1999/xlink" width="108" height="108" viewBox="0 0 108 108">
  <defs>
    <filter id="Trazado_982547" x="0" y="0" width="108" height="108" filterUnits="userSpaceOnUse">
      <feOffset dy="3" input="SourceAlpha"/>
      <feGaussianBlur stdDeviation="3" result="blur"/>
      <feFlood flood-opacity="0.161"/>
      <feComposite operator="in" in2="blur"/>
      <feComposite in="SourceGraphic"/>
    </filter>
  </defs>
  <g id="Grupo_1154257" data-name="Grupo 1154257" transform="translate(-166 -5114)">
    <g id="Grupo_1153202" data-name="Grupo 1153202" transform="translate(-88 4601)">
      <g id="Grupo_1149598" data-name="Grupo 1149598" transform="translate(80 315)">
        <g id="Grupo_1148770" data-name="Grupo 1148770" transform="translate(-27 -2583)">
          <g id="Grupo_1146954" data-name="Grupo 1146954" transform="translate(-415 -1202)">
            <g transform="matrix(1, 0, 0, 1, 616, 3983)" filter="url(#Trazado_982547)">
              <g id="Trazado_982547-2" data-name="Trazado 982547" transform="translate(9 6)" fill="#fef4f5">
                <path d="M 45 88.5 C 39.12687683105469 88.5 33.43022537231445 87.35007476806641 28.06830024719238 85.08217620849609 C 22.88852500915527 82.89131164550781 18.23629951477051 79.75458526611328 14.2408504486084 75.75914764404297 C 10.24541282653809 71.76370239257812 7.108687400817871 67.11147308349609 4.917825222015381 61.93170166015625 C 2.649924993515015 56.56977462768555 1.5 50.87312316894531 1.5 45 C 1.5 39.12687683105469 2.649924993515015 33.43022537231445 4.917825222015381 28.06830024719238 C 7.108687400817871 22.88852500915527 10.24541282653809 18.23629951477051 14.2408504486084 14.2408504486084 C 18.23629951477051 10.24541282653809 22.88852500915527 7.108687400817871 28.06830024719238 4.917825222015381 C 33.43022537231445 2.649924993515015 39.12687683105469 1.5 45 1.5 C 50.87312316894531 1.5 56.56977462768555 2.649924993515015 61.93170166015625 4.917825222015381 C 67.11147308349609 7.108687400817871 71.76370239257812 10.24541282653809 75.75914764404297 14.2408504486084 C 79.75458526611328 18.23629951477051 82.89131164550781 22.88852500915527 85.08217620849609 28.06830024719238 C 87.35007476806641 33.43022537231445 88.5 39.12687683105469 88.5 45 C 88.5 50.87312316894531 87.35007476806641 56.56977462768555 85.08217620849609 61.93170166015625 C 82.89131164550781 67.11147308349609 79.75458526611328 71.76370239257812 75.75914764404297 75.75914764404297 C 71.76370239257812 79.75458526611328 67.11147308349609 82.89131164550781 61.93170166015625 85.08217620849609 C 56.56977462768555 87.35007476806641 50.87312316894531 88.5 45 88.5 Z" stroke="none"/>
                <path d="M 45 3 C 39.32871246337891 3 33.82865524291992 4.110054016113281 28.65262985229492 6.299339294433594 C 23.65165710449219 8.414573669433594 19.15968322753906 11.44334411621094 15.301513671875 15.301513671875 C 11.44334411621094 19.15968322753906 8.414573669433594 23.65165710449219 6.299339294433594 28.65262985229492 C 4.110054016113281 33.82865524291992 3 39.32871246337891 3 45 C 3 50.67128753662109 4.110054016113281 56.17134475708008 6.299339294433594 61.34737396240234 C 8.414573669433594 66.34834289550781 11.44334411621094 70.84031677246094 15.301513671875 74.698486328125 C 19.15968322753906 78.55665588378906 23.65165710449219 81.58542633056641 28.65262985229492 83.70066070556641 C 33.82865524291992 85.88994598388672 39.32871246337891 87 45 87 C 50.67128753662109 87 56.17134475708008 85.88994598388672 61.34737396240234 83.70066070556641 C 66.34834289550781 81.58542633056641 70.84031677246094 78.55665588378906 74.698486328125 74.698486328125 C 78.55665588378906 70.84031677246094 81.58542633056641 66.34834289550781 83.70066070556641 61.34737396240234 C 85.88994598388672 56.17134475708008 87 50.67128753662109 87 45 C 87 39.32871246337891 85.88994598388672 33.82865524291992 83.70066070556641 28.65262985229492 C 81.58542633056641 23.65165710449219 78.55665588378906 19.15968322753906 74.698486328125 15.301513671875 C 70.84031677246094 11.44334411621094 66.34834289550781 8.414573669433594 61.34737396240234 6.299339294433594 C 56.17134475708008 4.110054016113281 50.67128753662109 3 45 3 M 45 0 C 69.85281372070312 0 90 20.14718627929688 90 45 C 90 69.85281372070312 69.85281372070312 90 45 90 C 20.14718627929688 90 0 69.85281372070312 0 45 C 0 20.14718627929688 20.14718627929688 0 45 0 Z" stroke="none" fill="#ff7f8f"/>
              </g>
            </g>
          </g>
        </g>
      </g>
    </g>
    <g id="unir" transform="translate(190 5135)">
      <g id="Grupo_1154254" data-name="Grupo 1154254" transform="translate(0.877 0.877)">
        <g id="Grupo_1154244" data-name="Grupo 1154244" transform="translate(0 0.316)">
          <g id="Grupo_1154240" data-name="Grupo 1154240" transform="translate(0 30.089)">
            <g id="Grupo_1154239" data-name="Grupo 1154239">
              <g id="Grupo_1154237" data-name="Grupo 1154237">
                <path id="Trazado_991002" data-name="Trazado 991002" d="M25.767,286.016l8.632-8.632a1.708,1.708,0,0,0-2.415-2.415l2.2-2.2a1.708,1.708,0,1,0-2.415-2.415l-1.153,1.153a1.708,1.708,0,0,0-2.415-2.415l-1.426,1.426a1.708,1.708,0,1,0-2.415-2.415L15,277.465a6.153,6.153,0,0,0-1.743,3.5l-.265,1.9-5.49,5.49,6.62,6.62,5.16-5.16Z" transform="translate(-7.5 -267.602)" fill="#ffcec0"/>
                <g id="Grupo_1154236" data-name="Grupo 1154236" transform="translate(0)">
                  <path id="Trazado_991003" data-name="Trazado 991003" d="M156.868,277.382l-1.286,1.286-7.856-7.855a9.125,9.125,0,0,1-1.547-2.062l.65-.65a1.708,1.708,0,1,1,2.415,2.415l1.426-1.426a1.707,1.707,0,1,1,2.414,2.415l1.154-1.153a1.707,1.707,0,1,1,2.414,2.415l-2.2,2.2a1.708,1.708,0,0,1,2.415,2.415Z" transform="translate(-129.969 -267.6)" fill="#fdb0a0"/>
                  <path id="Trazado_991004" data-name="Trazado 991004" d="M34.4,329.255l-8.632,8.632-6.488,3.8-5.16,5.16-6.62-6.62h0l4.811,4.811,5.16-5.16,6.487-3.8,8.633-8.633a1.7,1.7,0,0,0,.5-1.1c.035,0,.069,0,.1,0a1.708,1.708,0,0,1,1.208,2.915Z" transform="translate(-7.5 -319.473)" fill="#fdb0a0"/>
                </g>
              </g>
              <g id="Grupo_1154238" data-name="Grupo 1154238" transform="translate(9.084 13.203)">
                <path id="Trazado_991005" data-name="Trazado 991005" d="M101.806,382.671l-5.142,5.6a5.083,5.083,0,0,1-2.08,1.364l-2.445.847a2.945,2.945,0,0,1-2.22-.119l-2.307-1.088-2.406-2.406,2.886-2.886a4.268,4.268,0,0,1,6.036,0l.5.5,3.1-3.1a2.856,2.856,0,0,1,4.038,0,.942.942,0,0,1,.039,1.291Z" transform="translate(-85.208 -380.544)" fill="#ffcec0"/>
                <path id="Trazado_991006" data-name="Trazado 991006" d="M107.353,382.458a.937.937,0,0,1-.237.624l-5.141,5.6a5.077,5.077,0,0,1-2.08,1.364l-2.445.848a2.952,2.952,0,0,1-2.22-.119l-2.306-1.088-1.7-1.7,2.306,1.088a2.946,2.946,0,0,0,2.22.118l2.445-.846a5.078,5.078,0,0,0,2.08-1.364l5.141-5.6a.94.94,0,0,0,.2-.369,2.838,2.838,0,0,1,1.464.782.939.939,0,0,1,.276.666Z" transform="translate(-90.517 -380.956)" fill="#fdb0a0"/>
              </g>
            </g>
          </g>
          <g id="Grupo_1154243" data-name="Grupo 1154243" transform="translate(30.698)">
            <g id="Grupo_1154242" data-name="Grupo 1154242">
              <g id="Grupo_1154241" data-name="Grupo 1154241">
                <path id="Trazado_991007" data-name="Trazado 991007" d="M279.243,19.166,270.61,27.8a1.708,1.708,0,0,0,2.415,2.415l-2.2,2.2a1.708,1.708,0,0,0,2.415,2.415l1.153-1.153a1.708,1.708,0,0,0,2.415,2.415l1.426-1.426a1.708,1.708,0,0,0,2.415,2.415l9.363-9.363a6.153,6.153,0,0,0,1.743-3.5l.265-1.9,5.49-5.49-6.62-6.62-5.16,5.16Z" transform="translate(-270.11 -10.203)" fill="#d5887a"/>
                <path id="Trazado_991008" data-name="Trazado 991008" d="M355.1,52.877l-5.491,5.491-.264,1.9a6.148,6.148,0,0,1-1.744,3.5l-9.362,9.363a1.707,1.707,0,0,1-2.908-1.354,1.706,1.706,0,0,0,1.061-.493l9.362-9.363a6.155,6.155,0,0,0,1.744-3.5l.264-1.9,5.491-5.491Z" transform="translate(-327.702 -46.257)" fill="#c86f5c"/>
              </g>
              <path id="Trazado_991009" data-name="Trazado 991009" d="M283.011,53.057l5.142-5.6a5.083,5.083,0,0,1,2.08-1.364l2.445-.847a2.946,2.946,0,0,1,2.22.119l2.307,1.088,2.406,2.406-2.886,2.886a4.268,4.268,0,0,1-6.036,0l-.5-.5-3.1,3.1a2.856,2.856,0,0,1-4.038,0A.942.942,0,0,1,283.011,53.057Z" transform="translate(-281.294 -41.01)" fill="#d5887a"/>
            </g>
          </g>
        </g>
        <g id="Grupo_1154253" data-name="Grupo 1154253" transform="translate(0.316)">
          <g id="Grupo_1154247" data-name="Grupo 1154247">
            <g id="Grupo_1154246" data-name="Grupo 1154246">
              <g id="Grupo_1154245" data-name="Grupo 1154245">
                <path id="Trazado_991010" data-name="Trazado 991010" d="M19.166,25.767,27.8,34.4a1.708,1.708,0,0,0,2.415-2.415l2.2,2.2a1.708,1.708,0,1,0,2.415-2.415l-1.153-1.153A1.708,1.708,0,1,0,36.09,28.2l-1.426-1.426a1.708,1.708,0,0,0,2.415-2.415L27.717,15a6.153,6.153,0,0,0-3.5-1.743l-1.9-.265L16.823,7.5,10.2,14.12l5.16,5.16Z" transform="translate(-10.203 -7.5)" fill="#a34f41"/>
                <path id="Trazado_991011" data-name="Trazado 991011" d="M71.8,25.569a1.707,1.707,0,0,1-2.149,1.649,1.7,1.7,0,0,0-.442-.767l-9.363-9.362a6.148,6.148,0,0,0-3.5-1.744l-1.9-.264L48.95,9.59,51.04,7.5l5.491,5.491,1.9.264A6.148,6.148,0,0,1,61.934,15L71.3,24.361A1.707,1.707,0,0,1,71.8,25.569Z" transform="translate(-44.421 -7.5)" fill="#873f30"/>
              </g>
              <path id="Trazado_991012" data-name="Trazado 991012" d="M53.057,101.806l-5.6-5.142a5.083,5.083,0,0,1-1.364-2.08L45.25,92.14a2.945,2.945,0,0,1,.119-2.22l1.088-2.307,2.406-2.406,2.886,2.886a4.268,4.268,0,0,1,0,6.036l-.5.5,3.1,3.1a2.856,2.856,0,0,1,0,4.038A.942.942,0,0,1,53.057,101.806Z" transform="translate(-41.01 -76.124)" fill="#a34f41"/>
            </g>
          </g>
          <g id="Grupo_1154252" data-name="Grupo 1154252" transform="translate(30.089 30.698)">
            <g id="Grupo_1154251" data-name="Grupo 1154251">
              <g id="Grupo_1154249" data-name="Grupo 1154249">
                <path id="Trazado_991013" data-name="Trazado 991013" d="M286.016,279.242l-8.632-8.632a1.708,1.708,0,0,0-2.415,2.415l-2.2-2.2a1.708,1.708,0,0,0-2.415,2.415l1.153,1.153a1.708,1.708,0,0,0-2.415,2.415l1.426,1.426a1.708,1.708,0,1,0-2.415,2.415l9.363,9.363a6.153,6.153,0,0,0,3.5,1.743l1.9.265,5.49,5.49,6.62-6.62-5.16-5.16Z" transform="translate(-267.602 -270.109)" fill="#ffdfd0"/>
                <g id="Grupo_1154248" data-name="Grupo 1154248">
                  <path id="Trazado_991014" data-name="Trazado 991014" d="M278.567,271.793a9.182,9.182,0,0,1-1.03,1.231l-8.53,8.529-.907-.907a1.708,1.708,0,1,1,2.415-2.415l-1.426-1.426a1.707,1.707,0,1,1,2.415-2.414l-1.153-1.154a1.707,1.707,0,1,1,2.415-2.414l2.2,2.2a1.708,1.708,0,0,1,2.415-2.415Z" transform="translate(-267.6 -270.107)" fill="#ffcec0"/>
                  <path id="Trazado_991015" data-name="Trazado 991015" d="M340.231,297.507l4.811-4.813-5.16-5.16-3.8-6.487-8.633-8.633a1.7,1.7,0,0,0-1.1-.5c0-.035,0-.069,0-.1a1.708,1.708,0,0,1,2.915-1.208l8.632,8.632,3.8,6.488,5.16,5.16Z" transform="translate(-319.473 -270.107)" fill="#ffcec0"/>
                </g>
              </g>
              <g id="Grupo_1154250" data-name="Grupo 1154250" transform="translate(13.203 1.48)">
                <path id="Trazado_991016" data-name="Trazado 991016" d="M382.671,283.011l5.6,5.142a5.083,5.083,0,0,1,1.364,2.08l.847,2.445a2.945,2.945,0,0,1-.119,2.22l-1.088,2.307-2.406,2.406-2.886-2.886a4.268,4.268,0,0,1,0-6.036l.5-.5-3.1-3.1a2.856,2.856,0,0,1,0-4.038.942.942,0,0,1,1.291-.039Z" transform="translate(-380.544 -282.774)" fill="#ffdfd0"/>
                <path id="Trazado_991017" data-name="Trazado 991017" d="M390.594,294.893l-1.088,2.306-1.807,1.807,1.087-2.306a2.94,2.94,0,0,0,.119-2.22l-.846-2.444a5.084,5.084,0,0,0-1.364-2.08l-5.6-5.142a.936.936,0,0,0-.289-.174,2.848,2.848,0,0,1,.805-1.594.941.941,0,0,1,1.291-.039l5.6,5.141a5.077,5.077,0,0,1,1.364,2.08l.848,2.446A2.952,2.952,0,0,1,390.594,294.893Z" transform="translate(-380.779 -282.77)" fill="#ffcec0"/>
              </g>
            </g>
          </g>
        </g>
      </g>
      <g id="Grupo_1154256" data-name="Grupo 1154256" transform="translate(0 0)">
        <path id="Trazado_991018" data-name="Trazado 991018" d="M177.792,193.092a6.815,6.815,0,0,0-9.638-9.638,6.815,6.815,0,0,0-9.638,9.638l8.713,8.713a1.308,1.308,0,0,0,1.85,0Z" transform="translate(-138.229 -160.251)" fill="#fc78a8"/>
        <path id="Trazado_991019" data-name="Trazado 991019" d="M250.564,193.114l-8.714,8.714a1.307,1.307,0,0,1-1.849,0l-1.071-1.071,8.5-8.5a6.82,6.82,0,0,0-1.5-10.763,6.815,6.815,0,0,1,4.628,11.624Z" transform="translate(-211 -160.274)" fill="#fc5a95"/>
        <g id="Grupo_1154255" data-name="Grupo 1154255" transform="translate(0)">
          <path id="Trazado_991020" data-name="Trazado 991020" d="M7.236,322.116l.265-1.9a5.308,5.308,0,0,1,1.495-3L12.8,313.4a.877.877,0,0,0-1.24-1.24l-3.807,3.807a7.071,7.071,0,0,0-1.992,4l-.224,1.611L.257,326.865a.877.877,0,1,0,1.24,1.24l5.49-5.49A.877.877,0,0,0,7.236,322.116Z" transform="translate(0 -275.446)"/>
          <path id="Trazado_991021" data-name="Trazado 991021" d="M26.372,46a3.852,3.852,0,0,0-2.123,1.086l-2.481,2.481a5.109,5.109,0,0,0-4.75-1.239.877.877,0,1,0,.419,1.7,3.369,3.369,0,0,1,3.213.895l.5.5a.877.877,0,0,0,1.24,0l3.1-3.1a1.981,1.981,0,0,1,2.8,0,.065.065,0,0,1,0,.087L23.159,54a4.222,4.222,0,0,1-1.721,1.129l-2.445.847a2.057,2.057,0,0,1-1.559-.084l-2.169-1.023-2.3-2.3a.877.877,0,1,0-1.24,1.24L13.8,55.887,9.264,60.426a.877.877,0,1,0,1.24,1.24L15.33,56.84l1.357.64a3.8,3.8,0,0,0,2.88.154l2.445-.847a5.979,5.979,0,0,0,2.438-1.6l5.141-5.6.011-.012a1.821,1.821,0,0,0-.076-2.492,3.712,3.712,0,0,0-1.032-.729l2.036-2.036.237.238a2.184,2.184,0,0,0,2.606.363,2.566,2.566,0,0,0,.176.2l9.363,9.363a7.071,7.071,0,0,0,4,1.992l1.611.224,5.282,5.282a.877.877,0,1,0,1.24-1.24l-5.49-5.49a.876.876,0,0,0-.5-.248l-1.9-.265a5.309,5.309,0,0,1-3-1.495L34.789,43.88a.834.834,0,0,1-.112-.14l1.161-1.161,5.43,5.43a.877.877,0,1,0,1.24-1.24l-5.43-5.43,1.175-1.175,5.6,5.6a.877.877,0,0,0,1.24-1.24l-5.6-5.6,1.175-1.175,5.545,5.545a.877.877,0,1,0,1.24-1.24L41.908,36.51l.662-.662h0c.172-.173.334-.353.486-.537l2.98,2.98a3.712,3.712,0,0,0,1.05,2.087l2.481,2.481a5.108,5.108,0,0,0-1.239,4.75.877.877,0,0,0,1.7-.419,3.37,3.37,0,0,1,.895-3.213l.5-.5a.877.877,0,0,0,0-1.24l-3.1-3.1a1.981,1.981,0,0,1,0-2.8.066.066,0,0,1,.087,0l1.529,1.4a.877.877,0,1,0,1.186-1.291l-1.538-1.413-.012-.011a1.822,1.822,0,0,0-2.492.076,3.718,3.718,0,0,0-.729,1.032l-2.289-2.289-.042-.039a7.684,7.684,0,0,0,.722-2.422,2.6,2.6,0,0,0,.37-.3l9.363-9.363a7.071,7.071,0,0,0,1.992-4L56.7,16.1l5.282-5.282a.877.877,0,0,0-1.24-1.24l-5.49,5.49a.876.876,0,0,0-.248.5l-.265,1.9a5.309,5.309,0,0,1-1.495,3L44.687,29.03a7.676,7.676,0,0,0-.558-1.792l3.88-3.88a.877.877,0,0,0-1.24-1.24l-3.575,3.575a7.721,7.721,0,0,0-.63-.717q-.254-.254-.525-.478l3.721-3.721a.877.877,0,1,0-1.24-1.24l-3.984,3.984a7.662,7.662,0,0,0-1.74-.61l4.5-4.5a.877.877,0,0,0-1.24-1.24s-5.568,5.57-5.579,5.583a7.739,7.739,0,0,0-1.367.24l-.027-.024a.832.832,0,0,1,0-1.175l3.207-3.207a3.711,3.711,0,0,0,2.087-1.05l2.481-2.481a5.108,5.108,0,0,0,4.75,1.239.877.877,0,0,0-.419-1.7,3.37,3.37,0,0,1-3.213-.895l-.5-.5a.877.877,0,0,0-1.24,0l-3.1,3.1a1.981,1.981,0,0,1-2.8,0,.065.065,0,0,1,0-.087l5.133-5.587a4.222,4.222,0,0,1,1.721-1.129l2.445-.847a2.057,2.057,0,0,1,1.559.084L49.36,9.754l2.3,2.3a.877.877,0,1,0,1.24-1.24L50.824,8.738,55.362,4.2a.877.877,0,1,0-1.24-1.24L49.3,7.786l-1.357-.64a3.8,3.8,0,0,0-2.88-.154l-2.445.847a5.979,5.979,0,0,0-2.438,1.6l-5.141,5.6-.011.012a1.821,1.821,0,0,0,.076,2.492,3.716,3.716,0,0,0,1.032.729l-2.289,2.289a2.587,2.587,0,0,0-.411,3.114,7.632,7.632,0,0,0-1.119.745,7.625,7.625,0,0,0-1.571-.973,2.579,2.579,0,0,0,.335-3.936l-1.892-1.892a.877.877,0,1,0-1.24,1.24l1.892,1.892a.831.831,0,1,1-1.175,1.175l-5.3-5.3a.877.877,0,1,0-1.24,1.24l4.889,4.889a7.725,7.725,0,0,0-1.966.384l-4.264-4.264a.877.877,0,0,0-1.24,1.24l3.827,3.827a7.68,7.68,0,0,0-1.3,1.044s-3.648-3.645-3.648-3.645a.877.877,0,0,0-1.24,1.24l3.792,3.792a7.63,7.63,0,0,0-.751,1.6s-1.59-1.584-1.622-1.609a3.712,3.712,0,0,0-1.053-2.1l-2.481-2.481a5.108,5.108,0,0,0,1.239-4.75.877.877,0,0,0-1.7.419A3.37,3.37,0,0,1,13.7,20.65l-.5.5a.877.877,0,0,0,0,1.24l3.1,3.1a1.981,1.981,0,0,1,0,2.8.066.066,0,0,1-.087,0l-5.587-5.133a4.222,4.222,0,0,1-1.129-1.721l-.847-2.445a2.057,2.057,0,0,1,.084-1.559l1.023-2.169,2.3-2.3a.877.877,0,1,0-1.24-1.24L8.738,13.8,4.2,9.264A.877.877,0,0,0,2.96,10.5l4.826,4.826-.64,1.357a3.8,3.8,0,0,0-.154,2.88l.847,2.445a5.979,5.979,0,0,0,1.6,2.438L15.046,29.6a1.821,1.821,0,0,0,2.492-.076,3.718,3.718,0,0,0,.729-1.032l1.555,1.555a7.735,7.735,0,0,0,.445,2.974,2.573,2.573,0,0,0-.761.526l-2.63,2.63a.877.877,0,1,0,1.24,1.24l2.63-2.63a.818.818,0,0,1,.3-.192,7.685,7.685,0,0,0,1,1.241l-5.43,5.43a.877.877,0,1,0,1.24,1.24l5.43-5.43,1.175,1.175-5.6,5.6a.877.877,0,1,0,1.24,1.24l5.6-5.6,1.175,1.175-5.545,5.545a.877.877,0,1,0,1.24,1.24l5.545-5.545,1.175,1.175Zm5.636-2.681L23.3,34.608a5.938,5.938,0,0,1,8.4-8.4.877.877,0,0,0,1.238,0,5.938,5.938,0,0,1,8.4,8.4l-8.713,8.713a.432.432,0,0,1-.61,0Z" transform="translate(-2.387 -2.387)"/>
          <path id="Trazado_991022" data-name="Trazado 991022" d="M65.079,6.987a.876.876,0,0,0,.5.248l1.9.265a5.309,5.309,0,0,1,3,1.495l4.545,4.545a.877.877,0,0,0,1.24-1.24L71.723,7.756a7.071,7.071,0,0,0-4-1.992L66.111,5.54,60.829.257a.877.877,0,0,0-1.24,1.24Z" transform="translate(-52.396 0)"/>
          <path id="Trazado_991023" data-name="Trazado 991023" d="M431.646,323.617l.64-1.357a3.8,3.8,0,0,0,.154-2.88l-.847-2.445a5.979,5.979,0,0,0-1.6-2.438l-1.011-.929a.877.877,0,0,0-1.186,1.291l1.011.929a4.223,4.223,0,0,1,1.129,1.721l.847,2.445a2.057,2.057,0,0,1-.084,1.559l-1.023,2.169-2.3,2.3a.877.877,0,1,0,1.24,1.24l2.074-2.074,4.538,4.538a.877.877,0,0,0,1.24-1.24Z" transform="translate(-377.194 -276.708)"/>
        </g>
      </g>
    </g>
  </g>
</svg>
