<svg xmlns="http://www.w3.org/2000/svg" xmlns:xlink="http://www.w3.org/1999/xlink" width="505" height="503" viewBox="0 0 505 503">
  <defs>
    <clipPath id="clip-path">
      <rect id="Rectángulo_407960" data-name="Rectángulo 407960" width="505" height="503" transform="translate(915 4530)" fill="#fff" stroke="#707070" stroke-width="1" opacity="0.44"/>
    </clipPath>
    <filter id="Trazado_990287" x="51.475" y="-33.984" width="457.391" height="482.155" filterUnits="userSpaceOnUse">
      <feOffset dy="3" input="SourceAlpha"/>
      <feGaussianBlur stdDeviation="3" result="blur"/>
      <feFlood flood-opacity="0.161"/>
      <feComposite operator="in" in2="blur"/>
      <feComposite in="SourceGraphic"/>
    </filter>
  </defs>
  <g id="Enmascarar_grupo_1098663" data-name="Enmascarar grupo 1098663" transform="translate(-915 -4530)" clip-path="url(#clip-path)">
    <g id="Grupo_1154258" data-name="Grupo 1154258" transform="translate(-6455.17 -1888.144)">
      <g transform="matrix(1, 0, 0, 1, 7370.17, 6418.14)" filter="url(#Trazado_990287)">
        <path id="Trazado_990287-2" data-name="Trazado 990287" d="M29.828,330.981c-89.467-112.93,45.315-106.924,103.521-201.888C223.065-17.281,270.277-26.581,310.568,38.634s24.32,200.355-58.258,275.1S77.429,391.072,29.828,330.981Z" transform="translate(499.87 322.7) rotate(160)" fill="#fcd7db" fill-rule="evenodd"/>
      </g>
      <g id="Grupo_1153617" data-name="Grupo 1153617" transform="translate(7447.491 6436.57)">
        <path id="Trazado_989167" data-name="Trazado 989167" d="M2256.318,476.84c-48.492-50.391-31.205-145.7,38.607-212.887s165.718-80.8,214.211-30.407,31.207,145.7-38.607,212.887S2304.813,527.229,2256.318,476.84Z" transform="translate(-2195.799 -168.592)" fill="#8b454e" fill-rule="evenodd"/>
        <g id="Grupo_1153615" data-name="Grupo 1153615" transform="translate(158.332)">
          <path id="Trazado_989168" data-name="Trazado 989168" d="M2509.64,244.256l5.776,4.563s-13.815,4.35-18.513,7.424a41.983,41.983,0,0,0-8.771,8.488s6.587-2.157,9.473-4.35a108.935,108.935,0,0,1,12.049-7.71,14.3,14.3,0,0,1,7.538-1.291l1.1,5.781s-.738.255-.845.293c1.49-.286,2.661-.186,2.947.785,1.024,3.454.655,8.379-2.535,9.669a101.034,101.034,0,0,1-12.913,4.314,45.335,45.335,0,0,0-8.776,3.346s6.992.019,10.073-.954a71.077,71.077,0,0,0,8.619-3.932s-3.18,11.035-9.537,15.839-7.878,3.571-13.825,5.151-8.325,1.021-9.26-.631.341,11.908.373,31.238,3.222,61.308,3.744,68.426-1.084,14.221.041,18.708,1.637,12.228,1.848,18.59,1.41,9.5.706,12.963-4.62,4.05-5.177.191a97.613,97.613,0,0,1-1.35-21.311c.475-12.453-.808-18.239-.808-18.239s-3.563-9.458-7.739-15.164a56.614,56.614,0,0,0-8.942-9.559s-4.157,1.887-7.652,1.585-3.817-.154-3.817-.154,3.047-2.893,2.457-5.289a4.361,4.361,0,0,0-2.669-3.066s.646,1.828-1.663,4.306-3.582,4.181-3.582,4.182-4-.81-10.225-1.607-10.846-1.093-10.846-1.093,10.792-4.716,10.9-7.967-3.89-2.942-3.89-2.942a11.739,11.739,0,0,1-7.132,5.443c-4.9,1.188-11.016,2.71-16.424,2.333a48.412,48.412,0,0,1-9.164-1.467s7.283-1.857,10.054-4.175a59.064,59.064,0,0,1,6.877-4.7s-8.394-.055-13.059,1.893-8.491,5.072-13.335,5.7a35.286,35.286,0,0,1-10.58-.7s8.293-3.438,11.349-4.46,5.439-1.555,5.439-1.555-9.98-.033-13.971.858-11.34,2.986-11.34,2.985-1.033-1.585-3.646-1.115a13,13,0,0,1-4.269.161s6.042-1.346,8.868-4.922a17.564,17.564,0,0,1,5.592-4.871l14.229.33-11.2-2.479a32.62,32.62,0,0,1,7.6-3.513c3.836-1.084,7.532-5.309,9.838-5.143s6.637,2.823,8.448,4.343,7.007,3.984,7.007,3.984a12.89,12.89,0,0,0-5.523-5.444c-4.13-2.25-7.043-3.639-7.043-3.639s7.823.33,11.732-.946,11.773-2.061,11.773-2.061,1.895,1.054,3.241,4.658,3.1,7.116,3.1,7.116,1.894-5.3.087-8.722-2.793-6.114-4.452-6.794-3.647-1.57-3.647-1.57,6.325,1.724,10.307,1.071,10.132-1.459,10.132-1.459l2.5,3.044s.848-2.476-.875-3.426a49.417,49.417,0,0,0,6.916,3.008c4.572,1.561,10.685,3.609,10.685,3.609s1.175,1.656-.375,4.159a23.877,23.877,0,0,0-2.309,5.033,3.341,3.341,0,0,0,3.633-2.142c.895-2.564,1.688-4.959,1.688-4.96a83.786,83.786,0,0,1,8.532,7.476c2.433,2.778,4.25,6.217,3.428,10.087a19.779,19.779,0,0,1-2.139,5.972s-2.806.085-6.2.242a54.714,54.714,0,0,1-7.034-.22l10.561,1.944s.811,1.082-1.817,2.135a23.67,23.67,0,0,0-4.8,2.677,47.275,47.275,0,0,1,6.016,5.869c2.48,3.033,9.238,14.35,9.238,14.35s-1.881-19.713-2.728-29.389-1.226-42.541-.678-52.227,0-19.926,0-19.926-.438,1.98-7.7,2.311-9.579,1.541-14.645.88a93.243,93.243,0,0,1-12.212-2.862s7.921-2.641,11.332-3.411,9.141-4.072,9.141-4.072-10.349-.441-13.649,1.1-12.985,2.421-12.985,2.421l-4.845-6.272a43.282,43.282,0,0,1,7.488-.881c3.226-.087,14.179-2.9,20.1-3.7-3.136-.187-7.294-.531-9.428-.7-4.07-.33-14.747-.331-14.747-.33a6.908,6.908,0,0,1,1.544-5.612,16.617,16.617,0,0,1,11-6.052c6.052-.88,12.331-1.321,14.862-.55s9.353,3.631,9.353,3.631-10.786-6.719-16.4-8.04a125.5,125.5,0,0,0-12.658-2.09,41.2,41.2,0,0,1,6.605-3.3c3.08-1.1,14.313-2.531,17.393-1.43s5.5,1.1,9.8-.88,9.13-7.593,13.1-7.923-5.874,9.487-6.8,12.178,4.858-3.811,8.593-6.155S2509.64,244.256,2509.64,244.256Zm3.051,14.841c-2.982,1.029-6.5,2.238-8.854,2.994-4.781,1.538-9.436,6.044-11.833,7.343a14.432,14.432,0,0,0-4.282,4.189s8.707-2.663,11.386-5.283a86.079,86.079,0,0,1,8.5-6.631S2509.991,260.321,2512.691,259.1Zm-27.565,8.848s-4.55,2.178-4.744,4.034,1.928.257,3.209-1.153A6.4,6.4,0,0,0,2485.126,267.945Zm-37.217,73.817c-.481.152-1.011,1.547-1.153,3.184a25.569,25.569,0,0,0,.086,5.414,13.713,13.713,0,0,0,1.117,4.753c.525,1.01,1.765-.562,2.13-1.878a21.672,21.672,0,0,0,.105-7.6,9.163,9.163,0,0,0-1.876-3.632.57.57,0,0,0-.212-.227A.257.257,0,0,0,2447.909,341.762Zm-15.517,13.52a1.681,1.681,0,0,0-.25.015,2.513,2.513,0,0,0-1.253,2.421c.208,1.625,1.152,2.643,2.388,2.523s1.711-1.85,1.037-3.536A2.023,2.023,0,0,0,2432.392,355.282Z" transform="translate(-2364.746 -171.803)" fill="#ff7f8f" fill-rule="evenodd"/>
          <path id="Trazado_989169" data-name="Trazado 989169" d="M2441.932,165.668a74.888,74.888,0,0,0,9.265,1.5,80.243,80.243,0,0,0,11.331,0,64.676,64.676,0,0,0-6.015,6.331,8.2,8.2,0,0,0-1.9,5.943s1.816-1.424,5.145-3.8,5.07-8.951,5.07-8.951,4.836,2.695,8.316,3.17a28.531,28.531,0,0,0,8.315-.4c1.742-.238,4.2,3.478,6.49,5.854a30.327,30.327,0,0,1,3.333,3.962s-4.516,1.03-7.13,1.9a42.453,42.453,0,0,0-6.178,2.934s3.96-.241,6.734-.241,7.357-3.558,7.357-3.558a35.374,35.374,0,0,1,5.071,4.908c1.581,2.138,1.032,4.352-.156,6.807s-7.763,3.484-11.724,5.384-17.54,2.238-17.54,2.238a65.3,65.3,0,0,1,8.721,10.835c4.624,7,7.4,15.2,10.967,25.508s8.592,31.712,10.836,47.7,2.44,38.8,1.057,49.959-3.149,47.228-3.41,52.924-.2,48.684-.2,48.684c-.313,5.169-5.666,3.294-5.666,3.294s.25-22.273,0-27.87.877-10.7,2-21.891,1.046-27.869,1.959-51.339,2.525-42.492-1.623-67.985-9.511-40.793-14.349-51.06-13.932-19-13.932-19a29.72,29.72,0,0,1-10.2.418,67.378,67.378,0,0,1-12.257-2.97,16.717,16.717,0,0,1,6.447-2.3,8.736,8.736,0,0,0,5.547-2.686,69.165,69.165,0,0,0-6.883-.74c-2.725-.081-7.546,3.746-9.6,4.2s-7.487-1.847-12.018-3.763a80.958,80.958,0,0,1-10.99-6.346,113.881,113.881,0,0,0,11.562.206c3.977-.294,9.039-.741,9.039-.741s-6.5-2.15-10.072-2.223-11.031.294-11.031.294l-8.275-3.265,11.741-.007s-8.127-1.019-10.2-1.085a54.751,54.751,0,0,1-8.843-1.306c-2.535-.627-5.924-3.917-5.924-3.917a22.466,22.466,0,0,1,8.359-1.475c5.024,0,8.3,1.966,14.45,3.066a19.842,19.842,0,0,0,10.829-.6c2.01-.534-7.521-4.607-7.521-4.607s6.576-1.41,11.512-2.208,9.664-1.622,9.664-1.622a21.314,21.314,0,0,0,.235,4.519,38.463,38.463,0,0,1,.322,5.62s1.029-1.427,2.531-3.566S2441.932,165.668,2441.932,165.668Zm34.581,7.615s-6.039,2.711-7.952,4.776a14.9,14.9,0,0,0-2.761,5.744,74.765,74.765,0,0,0,6.892-4.585A13.458,13.458,0,0,0,2476.513,173.283Zm-23.195,8.018a2.841,2.841,0,0,0-2.406,1.35,4.913,4.913,0,0,0-.756,3.279,11.048,11.048,0,0,0,2.991-1.709,2.192,2.192,0,0,0,.434-2.9A1.3,1.3,0,0,0,2453.318,181.3Z" transform="translate(-2366.882 -165.668)" fill="#ff7f8f" fill-rule="evenodd"/>
          <path id="Trazado_989170" data-name="Trazado 989170" d="M2623.272,201.261s-6.79.616-10.067-1.305-11.086.118-11.086.118l-1.942.226,4.486-3.333s-4.674,1.668-7.352,1.166-6.56-1.853-8.744-1.351-9.778,5.823-12.175,8.071a35.225,35.225,0,0,0-5.093,5.337c-1.259,1.787-4.177,8.121-4.523,6.742s.59-4.866,2.949-7.064,10.756-7.679,10.756-7.679-6.791,1.391-10.751,1.817a26.5,26.5,0,0,0-10.467,4.065c-2.375,1.517-5.73,4.8-6.417,6.9s-1.2,5.689-1.615,7.269-1.174,4.37-1.972,2.438a7.023,7.023,0,0,1,.087-5.959,32.557,32.557,0,0,1,3.112-4.579s4.744-4.626,1.964-3.119-5.771,2.168-7.892,3.393a11.978,11.978,0,0,1-5.514,1.465c-1.529.13-4.932,3.961-4.932,3.961a10.753,10.753,0,0,1,.991,3.687c.239,2.3,1.945,5.832.166,4.666s-2.924-4.478-2.48-5.7a3.748,3.748,0,0,0,.082-2.278,46.517,46.517,0,0,1-6.826,5.284,51.074,51.074,0,0,0-7.123,5.527,6.851,6.851,0,0,1,4.944,1.342c2.208,1.779,1.894,3.04,1.894,3.04s-1.652-.1-4.564-.5a14.947,14.947,0,0,1-4.59-1.3,36.545,36.545,0,0,0-4.878,5.405c-1.816,2.657-3.761,7.419-3.628,8.615s3.743,2.215,3.743,2.215-1.558,4.646.217,4.084,9.8-2.158,12.9-4.45,5.637-3.8,5.637-3.8-3.08.6-9.25,13.8-9.9,20.473-11.631,27.335-3.987,13.566-3.987,13.566l.05,13.106s7.989-31.693,11.11-39.174,12.579-23.693,16.691-28.036,19.273-17.186,36.14-24.737,16.461-6.6,26.985-10.557S2623.272,201.261,2623.272,201.261Z" transform="translate(-2375.905 -168.088)" fill="#ff7f8f" fill-rule="evenodd"/>
          <path id="Trazado_989171" data-name="Trazado 989171" d="M2524.8,342.3c4.747.374,10.855,5.807,12.428,5.825,1.936.021,5.452,1.612,8.914,3.917a27.45,27.45,0,0,1,7.223,6.662c2.131,2.678,12.543,16.169,15.2,20.512s.2,11.731.2,11.731a13.419,13.419,0,0,1,4.465,6.354c1.611,4.441-5.042,10.283-6.7,15.075a18.533,18.533,0,0,0-.432,9.559,35.562,35.562,0,0,0-5.37-4.812c-3.181-2.3-8.03-3.524-12.353-7.608s-1.812-6.263-2.362-11.356-3.683-6.735-3.683-6.735-.433,9.01.572,13.058,4.563,7.4,4.563,7.4-14.5-3.812-18.07-11.151.623-21.613.623-21.613a82.451,82.451,0,0,0-5.753,15.032,38.143,38.143,0,0,0-.179,16.587s-6.04-3.937-14.235-12.875-9.372-12.771-14.2-20.731-7.018-15.557,2.157-24.966,19.992,2.656,19.992,2.656-.674-8.748,4-11.848A4.607,4.607,0,0,1,2524.8,342.3Zm-16.484,18.274a8.548,8.548,0,0,0-1.752.257c-4.771,1.219-3.876,5.326-3.876,5.326a7.531,7.531,0,0,1,6.222-2.2,12.058,12.058,0,0,0,6.537-.975A11.69,11.69,0,0,0,2508.315,360.573Zm38.554,6.331c-1.884-.109-3.429.6-3.115,1.995.42,1.859,1.825,1.239,3.38,1s4.591,1.373,5.585.118-1.3-1.821-3.9-2.721A7.345,7.345,0,0,0,2546.869,366.9Zm-13.156,1.3c-1.148-.082-2.31.627-1.794,1.995.83,2.191,4.311.761,3.473-.969A1.956,1.956,0,0,0,2533.714,368.2Zm-15.821,3.426c-2-.24-4.4,3.245-6.711,6.9-2.646,4.174-1.111,10.162-1.111,10.162a36.252,36.252,0,0,1,3.853-7.924c2.471-3.677,6.938-7.216,4.8-8.789A1.734,1.734,0,0,0,2517.893,371.629ZM2550.041,379a1.053,1.053,0,0,0-.437.132c-1.17.674,1.257,3.427,4.128,4.373s6.22,4.774,5.56,2.964C2558.68,384.773,2552.483,378.782,2550.041,379Zm-16.724.265c-.645.3.347,2.794,2.177,2.662,2.093-.15-.508-2.146-1.8-2.641A.477.477,0,0,0,2533.317,379.266Z" transform="translate(-2374.638 -179.456)" fill="#ff7f8f" fill-rule="evenodd"/>
          <path id="Trazado_989172" data-name="Trazado 989172" d="M2534.7,284.191a14.912,14.912,0,0,1,5.065.741c3.684,1.228,9.7,0,9.7,0a39.244,39.244,0,0,1-6.5,6.258,8.287,8.287,0,0,0-3.683,5.157s6.629-4.3,8.712-5.157,3.194-4.174,3.194-4.174,2.088-1.595,5.154.983,3.808,3.316,3.808,3.316a87.235,87.235,0,0,0-9.579,6.258,71.982,71.982,0,0,1-10.432,6.265s3.927-.366,7.49-.734a31.292,31.292,0,0,0,10.92-3.807c3.07-1.719,3.444-2.087,4.918,1.351a35.942,35.942,0,0,1,2.083,6.748,7.886,7.886,0,0,1,1.6,6.633c-.862,3.929-5.531,6.509-10.073,11.3s-19.278,7.732-23.08,5.4-6.634-8.474-6.634-8.474a73.347,73.347,0,0,0-2.156,11.943c-.641,6.675-6.395,24.216-7.1,35.376s-2.068,29.866-1.971,38.529-1.088,10.411-1.02,12.934-.508,8.593-.77,18.391-.843,8.106-3.071,8.018-.474-5.152-.861-9.4-.133-14.805-.133-14.805a29.115,29.115,0,0,0,1.6-5.369c.678-3.286.134-11.341-.258-19.1s2.451-19.353,2.6-25.684,2.223-16.679,4.273-25.406,5.92-21.252,5.92-21.252l-5.9,1.966c-3.313,1.1-11.049-.981-16.327-6.383s-4.047-15.349-.608-23.821,8.349-4.907,8.349-4.907,2.087-2.089,7-.125,4.784,3.437,7.242,5.032,2.452-1.348.856-5.4a28.535,28.535,0,0,0-5.273-7.857,27.544,27.544,0,0,1,8.588-.741C2531.054,284.314,2532.99,284.191,2534.7,284.191Zm-19.794,13.888a.885.885,0,0,0-.826.382c-1.064,1.264.982,1.806,2.641,3.214s2.129,2.888,3.646,3.741-.839-2.747-2.434-4.453C2516.745,299.682,2515.767,298.2,2514.91,298.079Zm20.006,6.837a2.129,2.129,0,0,0-1.323,2.15c.262.938,2.978-.877,2.07-1.885A.745.745,0,0,0,2534.916,304.916Zm23.307,2.84a47.552,47.552,0,0,0-8.225,1.336c-3.849.921-7.619,1.284-7.5,3.7s8.556-2.037,11.82-2.619,6.463-.174,6.318-1.7C2560.582,307.9,2559.615,307.715,2558.223,307.755Zm-32.72,2.113a.566.566,0,0,0-.392.037c-.788.471.94,3.715,2.318,2.979C2528.648,312.238,2526.573,310.081,2525.5,309.868Zm27.141,8.348s-4.84.311-9.279.667-7.145-.711-7.159,1.02,5.85,1.261,11.921,1.394S2552.645,318.217,2552.645,318.217Z" transform="translate(-2375.196 -174.918)" fill="#ff7f8f" fill-rule="evenodd"/>
          <path id="Trazado_989173" data-name="Trazado 989173" d="M2565.814,242.6s5.683.561,10.2,1.555,11.372,2.456,12.7,3.1-2.244.66-2.244.66a15.942,15.942,0,0,1,5.891,1.857c3.794,1.825,5.345,3.6,7.615,4.629s4.818,3.514,7.164,5.693,5.54,4.009,8.955,9.456,3.808,7.66,3.808,7.66,2.024-.3,2.933,3.514.828,11.429.828,11.429-3.59-1.5-10.8-4.093-8.312-4.225-11.906-3.551-7.031,1.07-7.031,1.07,5.7,1.016,11.922,2.693,15.146,5.335,14.99,9.735-3.548,7.108-4.6,10.77a18.752,18.752,0,0,0-.364,7.446,14.307,14.307,0,0,0-6.374-4.71c-4.23-1.568-7.667-2.757-9.23-4.739s-4.329-7.949-6.361-10.366-3.517-4.492-3.622-2.495-.153,3.916,2.083,5.649a66.3,66.3,0,0,1,6.4,6.669,17.391,17.391,0,0,0-6.547-2.677c-3.323-.435-7.284-.845-11.142-5.8s-5.224-8.963-5.606-11.87.309-4.291-1.07-5.891a10.738,10.738,0,0,0-3.033-2.406s.485,5.464,1.039,8.07,1.119,9.816,1.119,9.816-5.316.358-10.764-4.211a51.16,51.16,0,0,1-9.3-10.835,7.784,7.784,0,0,1,.038-6.464,17.123,17.123,0,0,1,3.854-5.788s-3.415-1.4-5.182.689-1.005,10.718-1.005,10.718-3.438-2.54-8.62-6.6a53.841,53.841,0,0,1-9.578-10.637,5.589,5.589,0,0,1-7.837-.052c-4.121-3.715-4.18-6.676-4.18-6.676s-6.351-1.195-6.683-4.394,3.231-3.264,7.6-2.509,14.442,4.358,14.442,4.358-3.038-4.475.962-6.94,14.374-2.712,17.717-2.318a34.737,34.737,0,0,1,6.194,1.35A16.925,16.925,0,0,1,2565.814,242.6Zm-4.674,2.611a27.064,27.064,0,0,0-5.158,3.133c-1.582,1.451-2.628,3.821-1.374,3.214s1.557-1.622,4.71-4.776A17.362,17.362,0,0,1,2561.14,245.208Zm11.377,4.05s-5.394,1.36-7.3,2.59-2.826,2.225-1.663,2.508,2.3-1.524,4.3-2.678S2572.517,249.258,2572.517,249.258Zm13.192,7.871a31.55,31.55,0,0,0-7.434.8c-4.754,1.161-9.732,2.935-8.617,4.336s1.5.859,4.439-.293a44.208,44.208,0,0,1,9.869-2.759,25.383,25.383,0,0,1,10.535.242,21.271,21.271,0,0,0-3.273-1.592A17.127,17.127,0,0,0,2585.709,257.129Zm-9.523,10.667c-.512,0-1.009.018-1.423.037-1.656.077-3.56.494-4.011,2.619s2.889.752,5.632-.052,2.721-.113,2.87-1.423C2579.357,268,2577.716,267.8,2576.186,267.8Zm15.921,1.666c-1,.056-2.193.226-3.958.41-3.538.371-6.666,1.175-5.792,2.267s5.722.148,10.447-.278,6.621.676,6.979-.154-2.812-1.4-4.841-1.958A8.22,8.22,0,0,0,2592.107,269.462Z" transform="translate(-2376.417 -171.674)" fill="#ff7f8f" fill-rule="evenodd"/>
          <path id="Trazado_989174" data-name="Trazado 989174" d="M2538.771,345.972c.761-1.559,4.063-3.043,4.08-1.342Z" transform="translate(-2378.331 -179.58)" fill="#ff7f8f" fill-rule="evenodd"/>
        </g>
        <g id="Grupo_1153616" data-name="Grupo 1153616" transform="translate(0 50.546)">
          <path id="Trazado_989175" data-name="Trazado 989175" d="M2337.9,299.082l5.776,4.563s-13.816,4.35-18.508,7.424a42.1,42.1,0,0,0-8.777,8.488s6.587-2.156,9.473-4.351a108.507,108.507,0,0,1,12.055-7.71,14.282,14.282,0,0,1,7.533-1.291l1.1,5.782-.844.293c1.489-.286,2.659-.187,2.951.786,1.018,3.453.649,8.379-2.541,9.669a100.923,100.923,0,0,1-12.911,4.314,45.39,45.39,0,0,0-8.776,3.346s6.992.019,10.076-.954a71.462,71.462,0,0,0,8.621-3.932s-3.186,11.035-9.538,15.839-7.883,3.572-13.829,5.15-8.324,1.022-9.26-.631.34,11.908.372,31.238,3.223,61.307,3.744,68.425-1.083,14.221.046,18.708,1.632,12.229,1.849,18.59,1.4,9.5.7,12.963-4.619,4.049-5.177.19a97.974,97.974,0,0,1-1.348-21.312c.472-12.452-.81-18.238-.81-18.238s-3.562-9.459-7.739-15.164a56.639,56.639,0,0,0-8.944-9.559s-4.156,1.886-7.65,1.584-3.817-.154-3.817-.154,3.046-2.893,2.46-5.289a4.373,4.373,0,0,0-2.673-3.066s.646,1.829-1.664,4.306-3.58,4.181-3.58,4.181-4-.81-10.226-1.606-10.841-1.094-10.841-1.094,10.786-4.716,10.892-7.967-3.891-2.942-3.891-2.942a11.737,11.737,0,0,1-7.131,5.444c-4.9,1.187-11.017,2.71-16.424,2.333a48.384,48.384,0,0,1-9.165-1.468s7.284-1.857,10.055-4.174a58.958,58.958,0,0,1,6.877-4.7s-8.395-.055-13.054,1.893-8.495,5.072-13.34,5.7a35.3,35.3,0,0,1-10.58-.7s8.293-3.438,11.349-4.46,5.44-1.555,5.44-1.555-9.98-.033-13.972.858-11.34,2.986-11.34,2.985-1.033-1.586-3.646-1.115a13,13,0,0,1-4.269.161s6.042-1.347,8.871-4.923a17.567,17.567,0,0,1,5.591-4.872l14.229.33L2210.5,408.92a32.688,32.688,0,0,1,7.591-3.514c3.836-1.083,7.533-5.308,9.838-5.142s6.637,2.822,8.449,4.343,7.006,3.983,7.006,3.984a12.88,12.88,0,0,0-5.522-5.444c-4.131-2.249-7.044-3.639-7.044-3.639s7.824.33,11.733-.947,11.772-2.061,11.772-2.061,1.9,1.054,3.245,4.658,3.093,7.116,3.093,7.116,1.9-5.3.089-8.723-2.795-6.114-4.453-6.793-3.646-1.57-3.646-1.57,6.324,1.724,10.306,1.071,10.133-1.459,10.133-1.459l2.5,3.044s.848-2.476-.877-3.426a49.593,49.593,0,0,0,6.916,3.007c4.572,1.562,10.686,3.609,10.686,3.609s1.173,1.656-.374,4.16a23.916,23.916,0,0,0-2.31,5.033,3.342,3.342,0,0,0,3.634-2.142c.893-2.564,1.688-4.959,1.688-4.959a83.9,83.9,0,0,1,8.533,7.476c2.433,2.777,4.249,6.217,3.435,10.087a19.887,19.887,0,0,1-2.146,5.971s-2.806.086-6.2.242a54.85,54.85,0,0,1-7.034-.22l10.565,1.944s.812,1.082-1.822,2.134a23.7,23.7,0,0,0-4.8,2.678,47.209,47.209,0,0,1,6.018,5.869c2.48,3.033,9.238,14.35,9.238,14.35s-1.88-19.714-2.729-29.389-1.226-42.541-.677-52.226,0-19.925,0-19.925-.437,1.981-7.7,2.311-9.579,1.541-14.64.881a93.166,93.166,0,0,1-12.215-2.861s7.919-2.641,11.335-3.412,9.141-4.072,9.141-4.071-10.353-.441-13.654,1.1-12.986,2.421-12.986,2.421l-4.845-6.273a43.356,43.356,0,0,1,7.487-.879c3.227-.088,14.179-2.9,20.1-3.7-3.135-.187-7.3-.532-9.433-.7-4.07-.33-14.742-.33-14.742-.33a6.9,6.9,0,0,1,1.54-5.612,16.622,16.622,0,0,1,11-6.052c6.051-.88,12.328-1.32,14.861-.55s9.356,3.631,9.356,3.631-10.79-6.72-16.405-8.04a125.619,125.619,0,0,0-12.655-2.091,41.109,41.109,0,0,1,6.6-3.3c3.085-1.1,14.314-2.531,17.393-1.431s5.5,1.1,9.8-.88,9.131-7.593,13.1-7.923-5.871,9.487-6.8,12.179,4.859-3.812,8.588-6.155S2337.9,299.082,2337.9,299.082Zm3.052,14.841c-2.983,1.028-6.5,2.238-8.85,2.993-4.786,1.539-9.442,6.045-11.84,7.344a14.517,14.517,0,0,0-4.281,4.189s8.711-2.663,11.386-5.282a86.182,86.182,0,0,1,8.5-6.631S2338.251,315.147,2340.952,313.923Zm-27.565,8.848s-4.55,2.179-4.739,4.035,1.922.257,3.2-1.151A6.282,6.282,0,0,0,2313.387,322.771Zm-37.218,73.817c-.481.152-1.01,1.547-1.154,3.183a25.862,25.862,0,0,0,.089,5.413,13.766,13.766,0,0,0,1.115,4.754c.527,1.009,1.765-.562,2.129-1.878a21.7,21.7,0,0,0,.11-7.6,9.2,9.2,0,0,0-1.88-3.631.544.544,0,0,0-.212-.227A.255.255,0,0,0,2276.169,396.588Zm-15.517,13.521a1.646,1.646,0,0,0-.249.015,2.512,2.512,0,0,0-1.255,2.421c.209,1.625,1.153,2.643,2.394,2.523s1.706-1.849,1.033-3.537A2.023,2.023,0,0,0,2260.652,410.109Z" transform="translate(-2193.005 -226.629)" fill="#fef6e8" fill-rule="evenodd"/>
          <path id="Trazado_989176" data-name="Trazado 989176" d="M2270.2,220.494a74.853,74.853,0,0,0,9.265,1.5,80.4,80.4,0,0,0,11.331,0,64.634,64.634,0,0,0-6.016,6.331,8.184,8.184,0,0,0-1.9,5.942s1.816-1.424,5.139-3.8,5.07-8.95,5.07-8.95,4.836,2.695,8.322,3.17a28.467,28.467,0,0,0,8.311-.4c1.743-.237,4.195,3.478,6.491,5.854a30.511,30.511,0,0,1,3.333,3.962s-4.517,1.029-7.131,1.9a42.478,42.478,0,0,0-6.177,2.935s3.963-.242,6.734-.242,7.358-3.559,7.358-3.559a35.373,35.373,0,0,1,5.07,4.909c1.582,2.139,1.033,4.353-.156,6.808s-7.763,3.484-11.722,5.385-17.54,2.238-17.54,2.238a65.358,65.358,0,0,1,8.721,10.835c4.628,7,7.4,15.2,10.966,25.509s8.594,31.711,10.837,47.7,2.444,38.8,1.056,49.96-3.148,47.228-3.41,52.924-.2,48.684-.2,48.684c-.313,5.169-5.666,3.294-5.666,3.294s.25-22.273,0-27.871.875-10.7,2-21.891,1.047-27.868,1.959-51.339,2.527-42.492-1.622-67.984-9.51-40.793-14.35-51.06-13.929-19-13.929-19a29.719,29.719,0,0,1-10.206.418,67.38,67.38,0,0,1-12.258-2.971,16.754,16.754,0,0,1,6.45-2.3,8.729,8.729,0,0,0,5.545-2.686,68.924,68.924,0,0,0-6.882-.74c-2.72-.08-7.546,3.746-9.6,4.2s-7.485-1.847-12.017-3.763a81,81,0,0,1-10.989-6.346,114.409,114.409,0,0,0,11.561.206c3.978-.293,9.04-.741,9.04-.741s-6.5-2.15-10.072-2.223-11.026.293-11.026.293l-8.279-3.265,11.74-.007s-8.126-1.019-10.2-1.086a54.73,54.73,0,0,1-8.842-1.305c-2.534-.627-5.918-3.918-5.918-3.918a22.415,22.415,0,0,1,8.352-1.475c5.026,0,8.308,1.967,14.457,3.066a19.841,19.841,0,0,0,10.827-.6c2.01-.534-7.527-4.607-7.527-4.607s6.579-1.41,11.515-2.209,9.662-1.621,9.662-1.621a21.42,21.42,0,0,0,.236,4.519,38.545,38.545,0,0,1,.322,5.62s1.028-1.427,2.53-3.565S2270.2,220.494,2270.2,220.494Zm34.571,7.615s-6.038,2.711-7.951,4.776a14.851,14.851,0,0,0-2.756,5.745,74.406,74.406,0,0,0,6.887-4.586A13.436,13.436,0,0,0,2304.772,228.109Zm-23.195,8.019a2.837,2.837,0,0,0-2.406,1.35,4.911,4.911,0,0,0-.755,3.279,10.968,10.968,0,0,0,2.991-1.709,2.192,2.192,0,0,0,.433-2.9A1.3,1.3,0,0,0,2281.577,236.128Z" transform="translate(-2195.141 -220.494)" fill="#fef6e8" fill-rule="evenodd"/>
          <path id="Trazado_989177" data-name="Trazado 989177" d="M2451.543,256.088s-6.79.616-10.067-1.307-11.086.118-11.086.118l-1.939.226,4.49-3.333s-4.68,1.668-7.354,1.166-6.565-1.853-8.75-1.351-9.777,5.823-12.174,8.071a35.282,35.282,0,0,0-5.094,5.337c-1.259,1.788-4.177,8.122-4.517,6.743s.585-4.866,2.946-7.065,10.754-7.678,10.754-7.678-6.786,1.391-10.749,1.817a26.494,26.494,0,0,0-10.47,4.065c-2.374,1.517-5.729,4.8-6.417,6.9s-1.2,5.689-1.608,7.269-1.181,4.371-1.979,2.438a7.023,7.023,0,0,1,.088-5.959,32.425,32.425,0,0,1,3.111-4.579s4.744-4.626,1.965-3.119-5.772,2.168-7.892,3.393a12.011,12.011,0,0,1-5.509,1.465c-1.535.13-4.938,3.961-4.938,3.961a10.755,10.755,0,0,1,.99,3.687c.241,2.3,1.951,5.833.167,4.666s-2.923-4.479-2.48-5.7a3.743,3.743,0,0,0,.084-2.278,46.609,46.609,0,0,1-6.828,5.283,50.931,50.931,0,0,0-7.121,5.526,6.844,6.844,0,0,1,4.939,1.342c2.209,1.779,1.9,3.04,1.9,3.04s-1.651-.1-4.563-.5a14.964,14.964,0,0,1-4.593-1.3,36.524,36.524,0,0,0-4.875,5.4c-1.817,2.657-3.763,7.419-3.624,8.615s3.74,2.215,3.74,2.215-1.559,4.646.216,4.084,9.8-2.158,12.9-4.45,5.643-3.8,5.643-3.8-3.08.6-9.257,13.8-9.9,20.474-11.631,27.336-3.987,13.566-3.987,13.566l.051,13.106s7.992-31.693,11.114-39.174,12.575-23.693,16.687-28.036,19.274-17.186,36.139-24.737,16.462-6.6,26.986-10.557S2451.543,256.088,2451.543,256.088Z" transform="translate(-2204.166 -222.914)" fill="#fef6e8" fill-rule="evenodd"/>
          <path id="Trazado_989178" data-name="Trazado 989178" d="M2353.069,397.124c4.748.375,10.855,5.807,12.427,5.826,1.937.021,5.458,1.612,8.915,3.917a27.523,27.523,0,0,1,7.223,6.661c2.13,2.678,12.543,16.17,15.2,20.512s.2,11.73.2,11.73a13.422,13.422,0,0,1,4.467,6.353c1.608,4.442-5.038,10.284-6.7,15.076a18.523,18.523,0,0,0-.434,9.559,35.593,35.593,0,0,0-5.37-4.813c-3.18-2.3-8.03-3.524-12.354-7.608s-1.811-6.264-2.359-11.357-3.684-6.735-3.684-6.735-.433,9.01.571,13.058,4.565,7.4,4.565,7.4-14.5-3.812-18.072-11.151.623-21.613.623-21.613a82.343,82.343,0,0,0-5.749,15.032,38.092,38.092,0,0,0-.184,16.588s-6.038-3.937-14.235-12.875-9.372-12.772-14.2-20.732-7.016-15.557,2.157-24.965,19.992,2.655,19.992,2.655-.673-8.748,4.007-11.849A4.615,4.615,0,0,1,2353.069,397.124ZM2336.583,415.4a8.53,8.53,0,0,0-1.751.257c-4.771,1.219-3.876,5.326-3.876,5.326a7.534,7.534,0,0,1,6.223-2.2,12.048,12.048,0,0,0,6.537-.976A11.692,11.692,0,0,0,2336.583,415.4Zm38.548,6.332c-1.886-.109-3.431.6-3.116,2,.418,1.858,1.824,1.239,3.383,1s4.586,1.373,5.582.118-1.3-1.822-3.9-2.722A7.154,7.154,0,0,0,2375.131,421.731Zm-13.147,1.3c-1.149-.082-2.31.626-1.793,2,.83,2.19,4.31.761,3.47-.969A1.964,1.964,0,0,0,2361.984,423.029Zm-15.83,3.426c-2-.24-4.4,3.245-6.711,6.9-2.646,4.172-1.111,10.16-1.111,10.16a36.19,36.19,0,0,1,3.853-7.923c2.475-3.677,6.937-7.216,4.8-8.789A1.749,1.749,0,0,0,2346.154,426.455Zm32.157,7.373a1.052,1.052,0,0,0-.437.132c-1.171.675,1.258,3.427,4.13,4.373s6.219,4.774,5.56,2.964C2386.95,439.6,2380.754,433.609,2378.311,433.828Zm-16.724.264c-.645.3.347,2.794,2.181,2.663,2.088-.151-.512-2.146-1.807-2.641A.481.481,0,0,0,2361.587,434.092Z" transform="translate(-2202.9 -234.282)" fill="#fef6e8" fill-rule="evenodd"/>
          <path id="Trazado_989179" data-name="Trazado 989179" d="M2362.973,339.018a14.9,14.9,0,0,1,5.066.741c3.684,1.227,9.7,0,9.7,0a39.385,39.385,0,0,1-6.5,6.258,8.317,8.317,0,0,0-3.684,5.157s6.63-4.3,8.714-5.157,3.194-4.175,3.194-4.175,2.088-1.595,5.158.983,3.807,3.316,3.807,3.316a87.344,87.344,0,0,0-9.583,6.257,72.014,72.014,0,0,1-10.432,6.265s3.928-.365,7.492-.734a31.326,31.326,0,0,0,10.925-3.807c3.07-1.72,3.438-2.088,4.914,1.35a35.67,35.67,0,0,1,2.083,6.749,7.9,7.9,0,0,1,1.6,6.632c-.863,3.929-5.533,6.51-10.074,11.3s-19.272,7.732-23.079,5.4-6.634-8.474-6.634-8.474a73.352,73.352,0,0,0-2.157,11.944c-.636,6.676-6.394,24.216-7.094,35.375s-2.07,29.867-1.974,38.53-1.082,10.41-1.018,12.934-.508,8.594-.771,18.393-.843,8.106-3.065,8.018-.479-5.153-.867-9.406-.134-14.8-.134-14.8a29.06,29.06,0,0,0,1.6-5.37c.677-3.286.134-11.34-.258-19.1s2.453-19.353,2.6-25.684,2.222-16.68,4.272-25.406,5.919-21.252,5.919-21.252-2.581.861-5.9,1.966-11.049-.98-16.327-6.383-4.047-15.349-.608-23.821,8.349-4.908,8.349-4.908,2.089-2.089,7-.125,4.784,3.437,7.243,5.033,2.451-1.348.856-5.4a28.543,28.543,0,0,0-5.275-7.857,27.565,27.565,0,0,1,8.589-.741C2359.313,339.14,2361.25,339.018,2362.973,339.018ZM2343.18,352.9a.87.87,0,0,0-.821.382c-1.069,1.264.978,1.806,2.641,3.214s2.124,2.888,3.645,3.741-.843-2.746-2.437-4.453C2345.014,354.509,2344.037,353.031,2343.18,352.9Zm20.005,6.838a2.128,2.128,0,0,0-1.323,2.15c.268.938,2.978-.878,2.069-1.885A.749.749,0,0,0,2363.186,359.743Zm23.307,2.839a47.5,47.5,0,0,0-8.223,1.335c-3.851.921-7.621,1.284-7.506,3.705s8.555-2.037,11.819-2.619,6.463-.174,6.325-1.7C2388.853,362.727,2387.885,362.541,2386.493,362.581Zm-32.72,2.113a.545.545,0,0,0-.387.037c-.792.47.936,3.715,2.318,2.979C2356.908,367.065,2354.833,364.907,2353.773,364.695Zm27.142,8.349s-4.84.31-9.279.668-7.146-.711-7.159,1.02,5.849,1.261,11.92,1.394S2380.915,373.043,2380.915,373.043Z" transform="translate(-2203.458 -229.744)" fill="#fef6e8" fill-rule="evenodd"/>
          <path id="Trazado_989180" data-name="Trazado 989180" d="M2394.084,297.423s5.683.561,10.2,1.555,11.368,2.457,12.7,3.1-2.24.66-2.24.66a15.928,15.928,0,0,1,5.888,1.856c3.792,1.826,5.347,3.6,7.615,4.629s4.818,3.514,7.164,5.693,5.541,4.008,8.957,9.456,3.807,7.659,3.807,7.659,2.023-.3,2.936,3.515.826,11.43.826,11.43-3.591-1.5-10.8-4.093-8.307-4.225-11.907-3.55-7.029,1.07-7.029,1.07,5.7,1.016,11.92,2.693,15.148,5.334,14.991,9.736-3.55,7.108-4.6,10.769a18.74,18.74,0,0,0-.365,7.447,14.293,14.293,0,0,0-6.374-4.71c-4.227-1.568-7.662-2.757-9.229-4.739s-4.323-7.948-6.362-10.365-3.516-4.492-3.623-2.495-.152,3.916,2.084,5.648a66.145,66.145,0,0,1,6.4,6.669,17.4,17.4,0,0,0-6.547-2.678c-3.319-.434-7.283-.845-11.142-5.8s-5.222-8.963-5.6-11.87.309-4.292-1.07-5.891a10.747,10.747,0,0,0-3.032-2.406s.488,5.464,1.037,8.07,1.12,9.816,1.12,9.816-5.314.358-10.758-4.21a51,51,0,0,1-9.3-10.836,7.758,7.758,0,0,1,.037-6.463,17.085,17.085,0,0,1,3.85-5.789s-3.417-1.4-5.182.69-1.006,10.717-1.006,10.718-3.439-2.54-8.62-6.6a53.817,53.817,0,0,1-9.579-10.637,5.587,5.587,0,0,1-7.836-.051c-4.121-3.716-4.181-6.676-4.181-6.676s-6.352-1.195-6.683-4.395,3.232-3.264,7.6-2.509,14.446,4.358,14.446,4.358-3.042-4.475.96-6.939,14.372-2.713,17.718-2.319a34.547,34.547,0,0,1,6.191,1.351A16.934,16.934,0,0,1,2394.084,297.423Zm-4.684,2.612a27.049,27.049,0,0,0-5.159,3.133c-1.58,1.451-2.627,3.82-1.368,3.214s1.554-1.622,4.707-4.776A19.283,19.283,0,0,1,2389.4,300.035Zm11.377,4.049s-5.393,1.36-7.3,2.59-2.826,2.226-1.664,2.509,2.3-1.525,4.305-2.678S2400.778,304.084,2400.778,304.084Zm13.2,7.872a31.6,31.6,0,0,0-7.442.8c-4.747,1.161-9.73,2.935-8.614,4.336s1.5.859,4.438-.293a44.213,44.213,0,0,1,9.869-2.758,25.35,25.35,0,0,1,10.532.242,21.1,21.1,0,0,0-3.272-1.592A17.066,17.066,0,0,0,2413.98,311.956Zm-9.533,10.667c-.508,0-1.01.017-1.425.037-1.651.078-3.56.494-4.01,2.619s2.89.752,5.633-.052,2.719-.112,2.867-1.422C2407.627,322.821,2405.978,322.627,2404.448,322.623Zm15.931,1.665c-1,.055-2.194.226-3.959.41-3.532.37-6.666,1.176-5.791,2.267s5.721.147,10.45-.28,6.615.676,6.975-.154-2.812-1.4-4.84-1.959A8.286,8.286,0,0,0,2420.378,324.288Z" transform="translate(-2204.678 -226.5)" fill="#fef6e8" fill-rule="evenodd"/>
          <path id="Trazado_989181" data-name="Trazado 989181" d="M2367.04,400.8c.761-1.559,4.063-3.043,4.086-1.342Z" transform="translate(-2206.592 -234.406)" fill="#fef6e8" fill-rule="evenodd"/>
        </g>
      </g>
      <g id="Grupo_1153720" data-name="Grupo 1153720" transform="translate(7588.607 6574.852)">
        <g id="Grupo_1153690" data-name="Grupo 1153690" transform="translate(91.282 137.19)">
          <path id="Trazado_989387" data-name="Trazado 989387" d="M1656.994,1262.147c-10.485,1.163-21.648,9.68-32.789,23.86-11.459,14.6-22.464,34.82-30.928,56.65-8.973,23.131-13.406,49.758-12.282,72.228,1.2,24.061,8.539,41.145,21.887,45.749a20.65,20.65,0,0,0,10.046.855c10.262-1.609,21.14-10.416,31.956-24.773,12.634-16.76,24.711-40.65,33.376-65.691,9.006-26.018,13.6-51.111,12.389-70.249a79.734,79.734,0,0,0-.917-8.111c-3.059-17.963-12.426-29.069-28.283-30.565A21.577,21.577,0,0,0,1656.994,1262.147Zm-.594,6.1a23.677,23.677,0,0,1,5.864-.178c12.709,1.2,17.877,14.6,19.063,33.28,1.13,17.751-3.257,41.7-11.892,66.665-17.656,51.037-46.76,89.644-63.478,83.882-8.677-2.989-14.609-16.8-15.641-37.477-1.056-21.174,3.16-46.525,11.671-68.463C1617.874,1305,1638.455,1271.113,1656.4,1268.251Z" transform="translate(-1579.114 -1260.293)" fill="#360b1e" fill-rule="evenodd"/>
          <path id="Trazado_989388" data-name="Trazado 989388" d="M1609.791,1463.675a22.179,22.179,0,0,1-7.249-1.213c-13.572-4.682-21.755-21.473-23.042-47.283-1.153-23.069,3.365-49.651,12.4-72.931,8.585-22.138,19.657-42.414,31.177-57.087,11.842-15.072,23.262-23.316,33.941-24.505h0a23.242,23.242,0,0,1,4.808-.048c16.2,1.527,26.509,12.585,29.81,31.978a82.422,82.422,0,0,1,.939,8.289c1.2,19.014-3.229,44.2-12.48,70.918-8.764,25.323-21.019,49.438-33.628,66.162-11.478,15.237-22.6,23.795-33.058,25.433A22.588,22.588,0,0,1,1609.791,1463.675Zm49.867-199.741a20.19,20.19,0,0,0-2.256.127h-.005c-9.734,1.081-20.376,8.892-31.632,23.218-11.317,14.415-22.212,34.377-30.678,56.211-8.864,22.848-13.3,48.918-12.168,71.523,1.212,24.32,8.577,40.024,20.737,44.218a19.033,19.033,0,0,0,9.221.782c9.55-1.5,19.929-9.609,30.854-24.112,12.4-16.45,24.476-40.223,33.125-65.22,9.105-26.3,13.474-51.014,12.3-69.581a77.749,77.749,0,0,0-.9-7.936c-2.1-12.341-8.447-27.419-26.754-29.145A17.623,17.623,0,0,0,1659.658,1263.933Zm-2.453-1.574h0ZM1609.6,1454.388a12.165,12.165,0,0,1-3.986-.652c-9.459-3.258-15.738-17.841-16.794-39.008-1.074-21.523,3.332-47.38,11.784-69.168,8.688-22.4,31.51-74.922,55.739-78.781h0a25.331,25.331,0,0,1,6.3-.191c12.449,1.173,19.191,12.58,20.608,34.875,1.133,17.809-3.122,41.722-11.984,67.334C1654.239,1418.006,1627.623,1454.388,1609.6,1454.388Zm47.288-184.226c-15.594,2.484-35.439,31.133-53.087,76.639-8.288,21.363-12.609,46.693-11.558,67.759.97,19.427,6.521,33.2,14.489,35.945a9.309,9.309,0,0,0,3.049.5c16.014,0,42.2-36.921,58.254-83.318,8.717-25.193,12.908-48.633,11.8-66-1.291-20.331-7.02-30.694-17.517-31.684a21.306,21.306,0,0,0-5.433.161Z" transform="translate(-1579.324 -1260.505)" fill="#fff"/>
        </g>
        <path id="Trazado_989389" data-name="Trazado 989389" d="M1588.25,1392.144a31.392,31.392,0,0,1,.96,9.943c-.566,7.638-2.5,16.953,1.527,17.695,6.869,1.255,17.079-10.1,15.323-18.014s2.527-15.773.462-21.779a14.883,14.883,0,0,0-10.439-9.589Z" transform="translate(-1486.787 -1107.836)" fill="#fdaf2f" fill-rule="evenodd"/>
        <path id="Trazado_989390" data-name="Trazado 989390" d="M1553.45,1324.807s34.425,76.815,39.491,77.819,13.41-1.307,12.31-9.983-17.239-87.92-23.844-92.518S1553.45,1324.807,1553.45,1324.807Z" transform="translate(-1491.687 -1117.803)" fill="#97c2e6" fill-rule="evenodd"/>
        <g id="Grupo_1153691" data-name="Grupo 1153691" transform="translate(7.561 308.848)">
          <path id="Trazado_989391" data-name="Trazado 989391" d="M1552.487,1420.5h-41.738a4.764,4.764,0,1,1,0-9.528h41.738a4.764,4.764,0,1,1,0,9.528Zm-41.733-8.385a3.623,3.623,0,1,0,0,7.245h41.738a3.623,3.623,0,1,0,0-7.245Z" transform="translate(-1505.939 -1410.969)" fill="#12130f"/>
        </g>
        <path id="Trazado_989392" data-name="Trazado 989392" d="M1608.57,1193.495s.176-36.633-2.887-36.406-5.8,24.341-5.8,24.341l-29.379-11.785-2.584,21.573s9.641,3.428,14.4,5.453,11.237,9.413,11.237,9.413S1609.173,1199.622,1608.57,1193.495Z" transform="translate(-1489.648 -1137.882)" fill="#ffbfbe" fill-rule="evenodd"/>
        <g id="Grupo_1153692" data-name="Grupo 1153692" transform="translate(116.655 18.922)">
          <path id="Trazado_989393" data-name="Trazado 989393" d="M1605.757,1198.983s-1.829-3.205-3.415-5.954c-1.623-2.814-.229-32.293-.065-35.646a.559.559,0,0,1,.6-.542.572.572,0,0,1,.543.6c-.641,13.031-1.189,33.109-.087,35.021,1.587,2.75,3.418,5.957,3.418,5.957Z" transform="translate(-1601.565 -1156.84)" fill="#12130f"/>
        </g>
        <path id="Trazado_989394" data-name="Trazado 989394" d="M1611.293,1318.21h99.581a5.263,5.263,0,0,1,5.292,5.236v3.823a5.264,5.264,0,0,1-5.292,5.237h-99.581a5.267,5.267,0,0,1-5.294-5.237v-3.823A5.263,5.263,0,0,1,1611.293,1318.21Z" transform="translate(-1484.285 -1115.187)" fill="#360b1e" fill-rule="evenodd"/>
        <g id="Grupo_1153693" data-name="Grupo 1153693" transform="translate(114.69 140.073)">
          <path id="Trazado_989395" data-name="Trazado 989395" d="M1668.942,1398.278c-21.6,0-46.508-14.014-68.083-39.423a4.278,4.278,0,0,1,6.523-5.536c25.623,30.174,56.852,43.3,77.708,32.675,8.8-4.486,15.406-12.985,19.114-24.581,7.82-24.449,2.2-59.749-14.664-92.125a4.279,4.279,0,0,1,7.591-3.953c18.15,34.847,23.841,71.74,15.224,98.685-4.418,13.817-12.5,24.052-23.378,29.6A43.621,43.621,0,0,1,1668.942,1398.278Z" transform="translate(-1599.842 -1263.032)" fill="#360b1e"/>
        </g>
        <path id="Trazado_989396" data-name="Trazado 989396" d="M1672.759,1286.787s-101.988-35.646-113.836-29.577-14.289,19.469-14.289,19.469-8.843-2.208-11.17,14.461.645,117.948.645,117.948l-.672,12.845,9.384-.079,37.528-101.572s107.31,17.621,121.651,6.692,17.6-39.457,17.6-39.457Z" transform="translate(-1494.628 -1123.877)" fill="#97c2e6" fill-rule="evenodd"/>
        <g id="Grupo_1153694" data-name="Grupo 1153694" transform="translate(60.047 180.588)">
          <path id="Trazado_989397" data-name="Trazado 989397" d="M1644.907,1323.456h-.027c-60.623-3.136-92.365-23.656-92.677-23.865a.569.569,0,1,1,.626-.951c.311.207,31.824,20.558,92.107,23.677a.57.57,0,0,1,.541.6A.583.583,0,0,1,1644.907,1323.456Z" transform="translate(-1551.946 -1298.544)" fill="#12130f"/>
        </g>
        <path id="Trazado_989398" data-name="Trazado 989398" d="M1743.487,1159.188s-18.692-12.4-28.914-7.364-15.385,11.967-20.587,17.814-16.081,20.918-16.081,20.918,5.226,11.021,23.559,15.447,27.449,7.838,34.5,9.344a47.4,47.4,0,0,0,11.192,1.284l3.023-14.369,1.746,14.311s5.471,2.83,6.372-6.337-3.172-37.141-8.106-46.809S1743.487,1159.188,1743.487,1159.188Z" transform="translate(-1474.157 -1138.793)" fill="#360b1e" fill-rule="evenodd"/>
        <path id="Trazado_989399" data-name="Trazado 989399" d="M1555.338,1401.979s-39.491.828-53.648,4.746c-3.521.976-2.105,3.857-2.043,4.969.13,2.549,17.05,1.027,31.687.771,10.93-.194,20.467,1.443,21.46-.074C1555.109,1408.836,1555.338,1401.979,1555.338,1401.979Z" transform="translate(-1499.313 -1103.387)" fill="#360b1e" fill-rule="evenodd"/>
        <path id="Trazado_989400" data-name="Trazado 989400" d="M1499.749,1411.71s.89-8.9,6.908-10.765,19.691-2.275,23.457-2.9,9.411-5.51,9.411-5.51l12.008-.827s1.385,18.567-.268,19.23S1499.749,1411.71,1499.749,1411.71Z" transform="translate(-1499.251 -1104.834)" fill="#fdaf2f" fill-rule="evenodd"/>
        <path id="Trazado_989401" data-name="Trazado 989401" d="M1717.2,1203.859s-15.315-6.03-23.649.7-50.392,39.382-50.392,39.382l-37.683-56.034-15.39,14.232s28.806,61.863,43.135,68.024,29.668-6.634,29.668-6.634l-8.465,14.437,41.094,5.636s-60.99-8.767-59.861-4.209c.256,1.032-.37,5.059,4.495,7.637,16.628,8.819,57.392,20.952,70.026,14.027,16.326-8.946,47.579-75.811,42.292-84.429S1728.829,1208.924,1717.2,1203.859Z" transform="translate(-1486.526 -1133.541)" fill="#70e8ad" fill-rule="evenodd"/>
        <path id="Trazado_989402" data-name="Trazado 989402" d="M1730.09,1187.3s-6.605,10.826-8.852,16.24c-.542,1.3-1.654,7.785-1.654,7.785s-7.507,3.976-14.045,4.319a19.194,19.194,0,0,1-11.5-3.434l8.716-24.483Z" transform="translate(-1471.884 -1133.627)" fill="#ffbfbe" fill-rule="evenodd"/>
        <path id="Trazado_989403" data-name="Trazado 989403" d="M1698.921,1196.609l-2.521,7.895s12.646.451,18.72-3.793a30.771,30.771,0,0,0,9.168-10.9Z" transform="translate(-1471.551 -1133.273)" fill="#ef5e7f" fill-rule="evenodd"/>
        <path id="Trazado_989404" data-name="Trazado 989404" d="M1710.1,1158.26s-11.386,10.176-15.311,19.463-7.969,20.376-1.477,23.889c10.2,5.527,28.875-2.584,35.042-8.167a36.822,36.822,0,0,0,8.87-12.92l-6.582-2.721s3.308-8.516,4.667-10.969a8.613,8.613,0,0,0,.877-5.14l-9.726,12.555C1726.464,1174.255,1711.359,1163.04,1710.1,1158.26Z" transform="translate(-1472.468 -1137.717)" fill="#ffbfbe" fill-rule="evenodd"/>
        <path id="Trazado_989405" data-name="Trazado 989405" d="M1725.232,1185.927s10.941-8.921,13.246-2.532-13.137,11.363-16.074,7.667S1725.232,1185.927,1725.232,1185.927Z" transform="translate(-1468.006 -1134.502)" fill="#ffbfbe" fill-rule="evenodd"/>
        <path id="Trazado_989406" data-name="Trazado 989406" d="M1752.808,1191.574s2.864-32.356-7.866-34.443c-1.78-15.23-22.2-16.354-26.588-15.253s-18.174,7.307-18.174,7.307,7.079,12.367,14.221,19.189,10.85,8.226,10.85,8.226,7.1-6.954,9.925-10.547,7.182-.685,7.012,2.858S1752.808,1191.574,1752.808,1191.574Z" transform="translate(-1471.019 -1140.069)" fill="#360b1e" fill-rule="evenodd"/>
        <g id="Grupo_1153695" data-name="Grupo 1153695" transform="translate(272.74 6.467)">
          <path id="Trazado_989407" data-name="Trazado 989407" d="M1741.757,1160.751a9.828,9.828,0,0,1-2.772-.344.57.57,0,0,1,.329-1.091c2.374.715,7.411.075,10.1-1.8a3.261,3.261,0,0,0,1.638-2.374c.023-.381-.113-.464-.17-.5-1.252-.779-6.8,1.782-10.341,3.839a.575.575,0,0,1-.733-.138.567.567,0,0,1,.028-.743c1.573-1.686,5.514-6.6,4.862-9.076a1.925,1.925,0,0,0-1.456-1.315,2.009,2.009,0,0,0-2.008.256c-2.017,1.658-1.8,7.869-1.549,10.124a.57.57,0,0,1-1.134.128c-.1-.891-.9-8.781,1.957-11.131a3.1,3.1,0,0,1,3.077-.462,3.01,3.01,0,0,1,2.216,2.113c.6,2.285-1.469,5.588-3.171,7.812,2.933-1.5,7.245-3.369,8.849-2.376a1.557,1.557,0,0,1,.713,1.54,4.385,4.385,0,0,1-2.125,3.243A15.725,15.725,0,0,1,1741.757,1160.751Z" transform="translate(-1738.378 -1145.923)" fill="#360b1e"/>
        </g>
        <path id="Trazado_989408" data-name="Trazado 989408" d="M1564.86,1303.8s44.871,12.606,79.592,13.759c30.758,1.02,52.138-9.031,48.168-14.164-8.454-10.941-85.685-8.843-85.685-8.843Z" transform="translate(-1490.08 -1118.542)" fill="#fff" fill-rule="evenodd"/>
        <path id="Trazado_989409" data-name="Trazado 989409" d="M1598.629,1273.488s3.218-7.131,12.756-5.379c3.639.667,19.406,5.538,37.472,9.811,29.332,6.937,65.075,14.661,67.412,17.986,3.788,5.379-44.852-1.278-78.685-8.334S1598.629,1273.488,1598.629,1273.488Z" transform="translate(-1485.323 -1122.284)" fill="#360b1e" fill-rule="evenodd"/>
        <g id="Grupo_1153696" data-name="Grupo 1153696" transform="translate(37.808 150.65)">
          <path id="Trazado_989410" data-name="Trazado 989410" d="M1533.465,1408.723a.571.571,0,0,1-.57-.561c-.017-1.021-1.549-102.264,1.19-125.286,1.53-12.866,27.583-11.1,52.782-9.385l.521.036c21.964,1.489,42.663,3.806,42.868,3.829a.57.57,0,0,1,.5.631.581.581,0,0,1-.631.5c-.207-.024-20.881-2.338-42.819-3.826l-.52-.035c-24.669-1.677-50.17-3.407-51.571,8.382-2.732,22.947-1.2,124.113-1.183,125.132a.57.57,0,0,1-.562.58Z" transform="translate(-1532.453 -1272.303)" fill="#12130f"/>
        </g>
        <path id="Trazado_989411" data-name="Trazado 989411" d="M1639.14,1265.639s-20.535-7.614-28.15-4.8-18.425,12.5-18.425,12.5,2.134,6.058,5.527,3.811,9.293-7.553,17.119-5.722a132.167,132.167,0,0,0,14.175,2.521,29.631,29.631,0,0,1-5.323,1.17c-5.053.651-11.5,1.329-7.552,3.645,6.372,3.73,22.6,1.216,26.833-1.746S1649.613,1268.561,1639.14,1265.639Z" transform="translate(-1486.177 -1123.356)" fill="#ffbfbe" fill-rule="evenodd"/>
        <g id="Grupo_1153697" data-name="Grupo 1153697" transform="translate(107.59 138.619)">
          <path id="Trazado_989412" data-name="Trazado 989412" d="M1594.191,1273.83a.57.57,0,0,1-.358-1.016c.651-.52,16.032-12.751,23-10.858,6.686,1.822,17.848,4.761,17.958,4.791a.57.57,0,0,1-.29,1.1c-.113-.029-11.278-2.971-17.968-4.793-6.4-1.735-21.831,10.525-21.986,10.648A.514.514,0,0,1,1594.191,1273.83Z" transform="translate(-1593.619 -1261.757)" fill="#12130f"/>
        </g>
        <g id="Grupo_1153698" data-name="Grupo 1153698" transform="translate(109.04 133.396)">
          <path id="Trazado_989413" data-name="Trazado 989413" d="M1595.46,1273.026a.57.57,0,0,1-.379-1c.568-.506,13.914-12.416,16.934-14.461,3.116-2.1,21.137,4.936,24.718,6.371a.569.569,0,1,1-.423,1.057c-8.073-3.229-21.639-7.849-23.654-6.485-2.957,2-16.676,14.244-16.814,14.368A.549.549,0,0,1,1595.46,1273.026Z" transform="translate(-1594.89 -1257.18)" fill="#12130f"/>
        </g>
        <g id="Grupo_1153701" data-name="Grupo 1153701" transform="translate(47.516 140.678)">
          <g id="Grupo_1153699" data-name="Grupo 1153699">
            <path id="Trazado_989414" data-name="Trazado 989414" d="M1649.05,1265.093c-11.176-.542-24.317,6.492-38.413,19.458-14.5,13.348-29.492,32.651-42.1,54.071-13.36,22.691-22.578,49.81-25.264,73.518-2.881,25.372,1.865,44.482,15.042,51.544a21.833,21.833,0,0,0,10.364,2.588c11.015.041,23.907-7.34,37.7-20.546,16.1-15.413,32.844-38.378,46.216-63.124,13.89-25.709,23.017-51.2,25.036-71.418a82.822,82.822,0,0,0,.433-8.643c-.113-19.313-8-32.508-24.339-36.74A22.847,22.847,0,0,0,1649.05,1265.093Zm-1.677,6.3a25.237,25.237,0,0,1,6.166.8c13.092,3.394,16.2,18.282,14.227,38.03-1.871,18.767-10.576,43.091-23.907,67.762-27.243,50.426-64.333,85.93-80.835,77.093-8.568-4.592-12.4-20.033-9.926-41.852,2.534-22.333,11.306-48.144,23.982-69.673C1600.746,1303.358,1628.1,1271.356,1647.373,1271.392Z" transform="translate(-1540.751 -1263.352)" fill="#360b1e" fill-rule="evenodd"/>
            <path id="Trazado_989415" data-name="Trazado 989415" d="M1568.98,1468.195h-.094a23.62,23.62,0,0,1-11.168-2.794c-13.36-7.161-19.02-26.07-15.933-53.244,2.756-24.317,12.047-51.36,25.489-74.193,12.782-21.706,27.847-41.048,42.421-54.461,14.959-13.761,28.315-20.475,39.654-19.907h0a24.852,24.852,0,0,1,5.012.76c16.638,4.309,25.5,17.583,25.619,38.387a84.449,84.449,0,0,1-.44,8.822c-2,20.058-10.965,45.65-25.234,72.059-13.51,25-30.474,48.165-46.54,63.547C1593.2,1461.122,1580.147,1468.195,1568.98,1468.195Zm79.048-201.213c-10.172,0-22.281,6.4-36.02,19.036-14.332,13.191-29.172,32.256-41.788,53.68-13.208,22.435-22.335,48.985-25.039,72.842-2.916,25.688,2.108,43.388,14.151,49.843a20.243,20.243,0,0,0,9.565,2.388h.083c10.259,0,22.51-6.752,36.419-20.073,15.817-15.146,32.546-38,45.895-62.7,14.058-26.022,22.88-51.156,24.837-70.775a81.025,81.025,0,0,0,.425-8.46c-.114-19.084-8.086-31.219-23.058-35.1a21.477,21.477,0,0,0-4.321-.655C1648.794,1266.993,1648.417,1266.982,1648.028,1266.982Zm-79.117,191.345a13.517,13.517,0,0,1-6.477-1.536c-9.3-4.985-13.347-21.267-10.818-43.552,2.57-22.671,11.62-48.97,24.205-70.348,12.924-21.954,45.781-73,71.743-73,.013,0,.025,0,.029,0a26.971,26.971,0,0,1,6.591.853c12.781,3.313,17.852,16.351,15.5,39.859-1.876,18.816-10.436,43.109-24.1,68.4C1620.42,1425.561,1588.111,1458.326,1568.911,1458.326Zm78.65-185.014c-16.787,0-42.5,26.654-68.791,71.317-12.356,20.987-21.235,46.779-23.755,69-2.33,20.532,1.131,35.915,9.034,40.151,15.378,8.241,52.079-27.457,78.521-76.4,13.457-24.9,21.876-48.741,23.709-67.116,2.154-21.545-2.083-33.387-12.954-36.2a23.575,23.575,0,0,0-5.741-.744Z" transform="translate(-1540.962 -1263.563)" fill="#fff"/>
          </g>
          <path id="Trazado_989416" data-name="Trazado 989416" d="M1608.55,1340.9l46.313-54.34-45.1,61.494Z" transform="translate(-1531.441 -1260.323)" fill="#fff" fill-rule="evenodd"/>
          <path id="Trazado_989417" data-name="Trazado 989417" d="M1603.058,1354.867l-8.648,70.563,3.673-75.885Z" transform="translate(-1533.434 -1251.451)" fill="#fff" fill-rule="evenodd"/>
          <path id="Trazado_989418" data-name="Trazado 989418" d="M1606,1336.42l28.049-65.44-24.758,71.92Z" transform="translate(-1531.8 -1262.518)" fill="#fff" fill-rule="evenodd"/>
          <g id="Grupo_1153700" data-name="Grupo 1153700" transform="translate(59.05 76.462)">
            <path id="Trazado_989419" data-name="Trazado 989419" d="M1597.379,1353.333c-3.713-1.968-4.221-8.185-1.135-13.884s8.6-8.734,12.309-6.765,4.221,8.18,1.136,13.885S1601.086,1355.307,1597.379,1353.333Z" transform="translate(-1592.509 -1330.373)" fill="#360b1e" fill-rule="evenodd"/>
            <path id="Trazado_989420" data-name="Trazado 989420" d="M1600.1,1355.872a7.02,7.02,0,0,1-3.316-.808,7.463,7.463,0,0,1-3.594-4.606c-1.016-3.36-.358-7.7,1.756-11.6,3.586-6.629,10.006-9.9,14.616-7.462a7.45,7.45,0,0,1,3.592,4.6c1.018,3.357.36,7.7-1.753,11.606C1608.622,1352.746,1604.128,1355.872,1600.1,1355.872Zm6.139-21.871c-2.733,0-6.169,2.569-8.283,6.476-1.665,3.074-2.235,6.516-1.489,8.985a4.2,4.2,0,0,0,1.92,2.574h0c2.833,1.5,7.412-1.278,10.005-6.067,1.664-3.077,2.234-6.52,1.488-8.986a4.2,4.2,0,0,0-1.92-2.572A3.7,3.7,0,0,0,1606.239,1334Z" transform="translate(-1592.721 -1330.584)" fill="#fff"/>
          </g>
          <path id="Trazado_989421" data-name="Trazado 989421" d="M1602.84,1349.738l53.432-63.644-50.523,64.025Z" transform="translate(-1532.246 -1260.388)" fill="#360b1e" fill-rule="evenodd"/>
          <path id="Trazado_989422" data-name="Trazado 989422" d="M1603.676,1344.69l-9.452,82.2,6.8-80.95Z" transform="translate(-1533.459 -1252.135)" fill="#360b1e" fill-rule="evenodd"/>
          <path id="Trazado_989423" data-name="Trazado 989423" d="M1602.84,1346.783l32.07-76.4-29.178,75.925Z" transform="translate(-1532.246 -1262.602)" fill="#360b1e" fill-rule="evenodd"/>
        </g>
        <g id="Grupo_1153702" data-name="Grupo 1153702" transform="translate(154.453 94.252)">
          <path id="Trazado_989424" data-name="Trazado 989424" d="M1689.951,1279.64c-.025,0-.05,0-.076-.005-.5-.07-50.439-6.862-54.552-6.461a.57.57,0,0,1-.117-1.134c4.1-.436,49.423,5.728,54.441,6.412l31.41-55.294a.571.571,0,0,1,.993.564l-31.6,55.629A.557.557,0,0,1,1689.951,1279.64Z" transform="translate(-1634.696 -1222.869)" fill="#360b1e"/>
        </g>
        <g id="Grupo_1153703" data-name="Grupo 1153703" transform="translate(201.666 12.967)">
          <path id="Trazado_989425" data-name="Trazado 989425" d="M1676.65,1187.329a.569.569,0,0,1-.487-.868c13.516-22.125,35.791-34.645,36.015-34.77a.57.57,0,1,1,.554,1c-.22.123-22.241,12.506-35.594,34.367A.56.56,0,0,1,1676.65,1187.329Z" transform="translate(-1676.079 -1151.62)" fill="#360b1e"/>
        </g>
        <g id="Grupo_1153704" data-name="Grupo 1153704" transform="translate(227.662 0)">
          <path id="Trazado_989426" data-name="Trazado 989426" d="M1743.625,1155.548a.57.57,0,0,1-.553-.427c-.142-.557-3.72-13.654-19.777-13.726h-.348c-16.046,0-23.109,4.932-23.178,4.982a.571.571,0,0,1-.668-.925c.3-.214,7.388-5.2,23.838-5.2l.36,0c16.956.074,20.841,14.434,20.88,14.582a.571.571,0,0,1-.41.692A1.059,1.059,0,0,1,1743.625,1155.548Z" transform="translate(-1698.866 -1140.254)" fill="#360b1e"/>
        </g>
        <path id="Trazado_989427" data-name="Trazado 989427" d="M1698.357,1177.35l6.447,5.237a8.153,8.153,0,0,1-5.552-.565C1696.84,1180.607,1698.357,1177.35,1698.357,1177.35Z" transform="translate(-1471.341 -1135.029)" fill="#ef5e7f" fill-rule="evenodd"/>
        <path id="Trazado_989428" data-name="Trazado 989428" d="M1715.458,1171.9c1.324-1.021,9.989,4.09,8.721,6.11-.633,1.015-3.644-1.175-5.921-2.767S1714.454,1172.672,1715.458,1171.9Z" transform="translate(-1468.911 -1135.815)" fill="#360b1e" fill-rule="evenodd"/>
        <path id="Trazado_989429" data-name="Trazado 989429" d="M1712.711,1169.176c.622-1.541-6.771-8.335-8.374-6.56-.805.884,2.162,3.132,4.348,4.843S1712.243,1170.339,1712.711,1169.176Z" transform="translate(-1470.452 -1137.145)" fill="#360b1e" fill-rule="evenodd"/>
        <g id="Grupo_1153705" data-name="Grupo 1153705" transform="translate(222.169 53.747)">
          <path id="Trazado_989430" data-name="Trazado 989430" d="M1701.944,1192.242a8.805,8.805,0,0,1-7.829-4.043.571.571,0,0,1,1.012-.528c.118.226,3.034,5.505,11.577,2.542a.571.571,0,0,1,.374,1.079A15.83,15.83,0,0,1,1701.944,1192.242Z" transform="translate(-1694.051 -1187.365)" fill="#360b1e"/>
        </g>
        <path id="Trazado_989431" data-name="Trazado 989431" d="M1703.289,1167.876c.872-.9,2.1-1.13,2.738-.519s.445,1.83-.433,2.726-2.1,1.13-2.739.52S1702.411,1168.777,1703.289,1167.876Z" transform="translate(-1470.694 -1136.484)" fill="#360b1e" fill-rule="evenodd"/>
        <path id="Trazado_989432" data-name="Trazado 989432" d="M1715.1,1177.225c.874-.9,2.1-1.124,2.739-.519s.445,1.831-.429,2.727-2.1,1.129-2.738.519S1714.231,1178.116,1715.1,1177.225Z" transform="translate(-1469.029 -1135.166)" fill="#360b1e" fill-rule="evenodd"/>
        <g id="Grupo_1153706" data-name="Grupo 1153706" transform="translate(258.721 48.854)">
          <path id="Trazado_989433" data-name="Trazado 989433" d="M1726.66,1187.747a.569.569,0,0,1-.341-1.026c.232-.174,5.719-4.249,9.469-3.568a.573.573,0,0,1,.458.664.583.583,0,0,1-.664.459c-3.244-.6-8.527,3.318-8.58,3.357A.543.543,0,0,1,1726.66,1187.747Z" transform="translate(-1726.09 -1183.075)" fill="#360b1e"/>
        </g>
        <g id="Grupo_1153707" data-name="Grupo 1153707" transform="translate(262.508 48.751)">
          <path id="Trazado_989434" data-name="Trazado 989434" d="M1729.98,1190.348a.57.57,0,0,1-.32-1.042c1.634-1.106,2.875-4.634,3.214-5.9a.57.57,0,0,1,1.1.3c-.054.2-1.359,4.979-3.677,6.547A.555.555,0,0,1,1729.98,1190.348Z" transform="translate(-1729.41 -1182.985)" fill="#360b1e"/>
        </g>
        <g id="Grupo_1153708" data-name="Grupo 1153708" transform="translate(232.865 29.572)">
          <path id="Trazado_989435" data-name="Trazado 989435" d="M1708.552,1171.633a.569.569,0,0,1-.522-.343,7.8,7.8,0,0,0-4.215-4.006.57.57,0,0,1,.36-1.083,8.829,8.829,0,0,1,4.9,4.632.571.571,0,0,1-.3.751A.83.83,0,0,1,1708.552,1171.633Z" transform="translate(-1703.426 -1166.174)" fill="#360b1e"/>
        </g>
        <g id="Grupo_1153709" data-name="Grupo 1153709" transform="translate(245.688 39.713)">
          <path id="Trazado_989436" data-name="Trazado 989436" d="M1719.792,1180.524a.572.572,0,0,1-.523-.343,7.793,7.793,0,0,0-4.215-4.005.571.571,0,0,1,.36-1.083,8.831,8.831,0,0,1,4.9,4.632.571.571,0,0,1-.3.751A.52.52,0,0,1,1719.792,1180.524Z" transform="translate(-1714.666 -1175.064)" fill="#360b1e"/>
        </g>
        <g id="Grupo_1153710" data-name="Grupo 1153710" transform="translate(55.535 345.151)">
          <path id="Trazado_989437" data-name="Trazado 989437" d="M1637.627,1443.931h-89.066a.571.571,0,0,1,0-1.141h89.066a.571.571,0,1,1,0,1.141Z" transform="translate(-1547.991 -1442.79)" fill="#12130f"/>
        </g>
        <g id="Grupo_1153711" data-name="Grupo 1153711" transform="translate(154.492 345.151)">
          <path id="Trazado_989438" data-name="Trazado 989438" d="M1655.093,1443.931H1635.3a.571.571,0,0,1,0-1.141h19.793a.571.571,0,1,1,0,1.141Z" transform="translate(-1634.73 -1442.79)" fill="#12130f"/>
        </g>
        <path id="Trazado_989439" data-name="Trazado 989439" d="M1703.565,1164.819s-6.479,6.617-8.242,10.427a45.492,45.492,0,0,0-2.733,9.241,99.766,99.766,0,0,1,5.607-11.072C1700.748,1169.418,1703.565,1164.819,1703.565,1164.819Z" transform="translate(-1472.088 -1136.793)" fill="#fff" fill-rule="evenodd"/>
        <g id="Grupo_1153712" data-name="Grupo 1153712" transform="translate(167.771 86.65)">
          <path id="Trazado_989440" data-name="Trazado 989440" d="M1646.941,1275.181a.6.6,0,0,1-.167-.024.57.57,0,0,1-.38-.711c.957-3.159,5.355-11.724,10.448-21.645,6.46-12.588,17.276-33.654,15.87-35.477a.554.554,0,0,1-.55-.57.566.566,0,0,1,.59-.548,1.086,1.086,0,0,1,.943.538c1.472,2.46-5.316,16.081-15.838,36.579-4.856,9.46-9.443,18.4-10.371,21.457A.545.545,0,0,1,1646.941,1275.181Z" transform="translate(-1646.369 -1216.205)" fill="#360b1e"/>
        </g>
        <g id="Grupo_1153713" data-name="Grupo 1153713" transform="translate(222.197 77.328)">
          <path id="Trazado_989441" data-name="Trazado 989441" d="M1705.9,1213.676c-5.63,0-11.264-3.133-11.532-3.284a.57.57,0,1,1,.559-.994c.072.039,7.257,4.039,13.153,2.948a48.511,48.511,0,0,0,11.969-4.244.571.571,0,1,1,.536,1.008,48.793,48.793,0,0,1-12.3,4.357A12.508,12.508,0,0,1,1705.9,1213.676Z" transform="translate(-1694.076 -1208.035)" fill="#360b1e"/>
        </g>
        <g id="Grupo_1153714" data-name="Grupo 1153714" transform="translate(250.346 41.646)">
          <path id="Trazado_989442" data-name="Trazado 989442" d="M1719.32,1194.934a.571.571,0,0,1-.359-1.014c.1-.08,9.959-8.1,14.435-16.851a.571.571,0,0,1,1.018.518c-4.588,8.973-14.326,16.886-14.736,17.218A.592.592,0,0,1,1719.32,1194.934Z" transform="translate(-1718.749 -1176.758)" fill="#360b1e"/>
        </g>
        <g id="Grupo_1153715" data-name="Grupo 1153715" transform="translate(65.322 184.403)">
          <path id="Trazado_989443" data-name="Trazado 989443" d="M1557.14,1348.083a.569.569,0,0,1-.54-.757c6.9-19.823,1.409-44.491,1.354-44.737a.57.57,0,0,1,1.112-.254c.056.25,5.625,25.228-1.387,45.366A.553.553,0,0,1,1557.14,1348.083Z" transform="translate(-1556.569 -1301.889)" fill="#12130f"/>
        </g>
        <g id="Grupo_1153716" data-name="Grupo 1153716" transform="translate(186.821 90.413)">
          <path id="Trazado_989444" data-name="Trazado 989444" d="M1690.051,1289.948c-8.9,0-24.3-3.218-26.531-3.7a.572.572,0,0,1-.44-.678.582.582,0,0,1,.679-.439c10.965,2.343,29.185,5.173,31.407,2.8,3.177-3.4,38.587-67.485,38.947-68.133a.571.571,0,0,1,1,.553c-1.462,2.646-35.838,64.852-39.111,68.359C1695.162,1289.6,1692.95,1289.948,1690.051,1289.948Z" transform="translate(-1663.068 -1219.504)" fill="#d3f7e6"/>
        </g>
        <path id="Trazado_989445" data-name="Trazado 989445" d="M1599.621,1344.219l-47.636,55.406,49.644-50.592Z" transform="translate(-1491.893 -1111.523)" fill="#fff" fill-rule="evenodd"/>
        <path id="Trazado_989446" data-name="Trazado 989446" d="M1600.679,1348.64l-48.185,78,51.231-75.536Z" transform="translate(-1491.822 -1110.901)" fill="#fff" fill-rule="evenodd"/>
        <path id="Trazado_989447" data-name="Trazado 989447" d="M1564.329,1163.5s18.721,11.318,10.769,13.479S1557.859,1162.886,1564.329,1163.5Z" transform="translate(-1490.461 -1136.981)" fill="#ffbfbe" fill-rule="evenodd"/>
        <path id="Trazado_989448" data-name="Trazado 989448" d="M1562.371,1170.37s20.672,7.279,13.337,11.009S1555.925,1171.066,1562.371,1170.37Z" transform="translate(-1490.683 -1136.012)" fill="#ffbfbe" fill-rule="evenodd"/>
        <path id="Trazado_989449" data-name="Trazado 989449" d="M1562.38,1175.49s20.7,7.193,13.377,10.952S1555.924,1176.22,1562.38,1175.49Z" transform="translate(-1490.681 -1135.291)" fill="#ffbfbe" fill-rule="evenodd"/>
        <g id="Grupo_1153717" data-name="Grupo 1153717" transform="translate(71.375 30.863)">
          <path id="Trazado_989450" data-name="Trazado 989450" d="M1580.7,1179.312a.589.589,0,0,1-.185-.031c-15.517-5.343-18.466-10.914-18.583-11.149a.57.57,0,0,1,1.018-.515h0c.028.053,2.962,5.43,17.938,10.586a.57.57,0,0,1-.187,1.109Z" transform="translate(-1561.876 -1167.307)" fill="#360b1e"/>
        </g>
        <g id="Grupo_1153718" data-name="Grupo 1153718" transform="translate(71.54 39.574)">
          <path id="Trazado_989451" data-name="Trazado 989451" d="M1581.631,1184.387a.579.579,0,0,1-.228-.049l-19.042-8.3a.57.57,0,1,1,.456-1.045l19.041,8.3a.569.569,0,0,1,.295.75A.575.575,0,0,1,1581.631,1184.387Z" transform="translate(-1562.02 -1174.942)" fill="#360b1e"/>
        </g>
        <g id="Grupo_1153719" data-name="Grupo 1153719" transform="translate(76.104 49.166)">
          <path id="Trazado_989452" data-name="Trazado 989452" d="M1583.976,1190.948a.6.6,0,0,1-.2-.035l-17.385-6.456a.571.571,0,0,1,.4-1.071l17.386,6.457a.573.573,0,0,1,.337.734A.553.553,0,0,1,1583.976,1190.948Z" transform="translate(-1566.02 -1183.349)" fill="#360b1e"/>
        </g>
      </g>
      <g id="Grupo_1153723" data-name="Grupo 1153723" transform="translate(7508.753 6659.819)">
        <path id="Trazado_989468" data-name="Trazado 989468" d="M1429.513,1243.939c0-2.054-.952-8.169,1.347-10.069,11.973-9.856,55.2-13,103.989-13,49.57,0,93.231,3.8,104.447,13.9,1.945,1.757.883,7.29.883,9.172,0,12.744-47.157,23.069-105.329,23.069S1429.513,1256.682,1429.513,1243.939Z" transform="translate(-1429.318 -1213.864)" fill="#360b1e" fill-rule="evenodd"/>
        <path id="Trazado_989469" data-name="Trazado 989469" d="M1429.49,1237.8c0-12.744,47.164-23.069,105.336-23.069s105.33,10.325,105.33,23.069-47.157,23.068-105.33,23.068S1429.49,1250.541,1429.49,1237.8Z" transform="translate(-1429.294 -1214.73)" fill="#fdd9b7" fill-rule="evenodd"/>
      </g>
      <g id="Grupo_1153749" data-name="Grupo 1153749" transform="translate(7372 6510.27)">
        <g id="Grupo_1153724" data-name="Grupo 1153724" transform="translate(2.333 166.457)">
          <path id="Trazado_989470" data-name="Trazado 989470" d="M1317.593,1315.49a.574.574,0,0,1-.571-.534l-5.527-84.8a.57.57,0,1,1,1.139-.073l5.528,84.8a.569.569,0,0,1-.531.606Z" transform="translate(-1311.494 -1229.55)" fill="#70e8ad"/>
        </g>
        <path id="Trazado_989471" data-name="Trazado 989471" d="M1314.743,1188.89h5.192a5.267,5.267,0,0,1,5.294,5.236v40.655a5.267,5.267,0,0,1-5.294,5.236h-5.192a5.264,5.264,0,0,1-5.293-5.236v-40.655A5.263,5.263,0,0,1,1314.743,1188.89Z" transform="translate(-1309.45 -1068.821)" fill="#70e8ad" fill-rule="evenodd"/>
        <path id="Trazado_989472" data-name="Trazado 989472" d="M1477.789,1171.827s8.694-12.772,10.429-14.98,6.422-13.233,8.38-11.345-.874,9.006-.97,10.626-3.036,4.1-3.036,4.1,20.337-19.245,21.254-17.688-2.019,5.984-2.019,5.984,6.9-6.942,9.144-5.334c1.238.885.086,3.679.547,5.294a4.242,4.242,0,0,1-.61,4.1c-2.589,3.183-8.249,8.272-8.693,8.944-.264.4,1.836,1.569-.736,4.279-5.682,5.989-18.386,12.938-21.613,15.088C1485.183,1184.023,1477.789,1171.827,1477.789,1171.827Z" transform="translate(-1285.737 -1075.362)" fill="#ffbfbe" fill-rule="evenodd"/>
        <g id="Grupo_1153726" data-name="Grupo 1153726" transform="translate(40.687 351.758)">
          <g id="Grupo_1153725" data-name="Grupo 1153725" transform="translate(0 5.503)">
            <path id="Trazado_989473" data-name="Trazado 989473" d="M1350.995,1397.29s-7.171,2.881-4.957,6.93,10.838,13.713,12.509,12.738,4.307.536,3.748,2.606,2.886,8.506,5.327,11.1,11.369,11.9,17.336,12.749,7.992-5.5,6.332-7.552S1350.995,1397.29,1350.995,1397.29Z" transform="translate(-1345.043 -1396.727)" fill="#fff" fill-rule="evenodd"/>
            <path id="Trazado_989474" data-name="Trazado 989474" d="M1386.123,1444.146a8.2,8.2,0,0,1-1.178-.087c-5.216-.743-12.486-7.438-17.668-12.923-2.261-2.4-6.135-9.16-5.463-11.641a1.61,1.61,0,0,0-.647-1.713,2.1,2.1,0,0,0-2.264-.251,1.311,1.311,0,0,1-1.034.076c-2.727-.757-10.212-9.283-12.262-13.034a3.6,3.6,0,0,1-.276-3.053c1.02-2.845,5.337-4.607,5.52-4.682a.566.566,0,0,1,.6.115c1.579,1.493,38.683,36.572,40.347,38.629.979,1.213.9,3.475-.178,5.38A6.2,6.2,0,0,1,1386.123,1444.146Zm-26.343-27.985a3.435,3.435,0,0,1,2.073.715,2.712,2.712,0,0,1,1.055,2.918c-.481,1.778,2.78,8,5.194,10.56,7.146,7.567,13.183,12.032,17,12.576a5.154,5.154,0,0,0,5.525-2.532c.928-1.635.875-3.367.284-4.1-1.545-1.91-36.5-34.972-39.969-38.258-.979.451-3.843,1.907-4.543,3.865a2.46,2.46,0,0,0,.2,2.118c2.33,4.264,10.33,12.769,11.746,12.51A2.766,2.766,0,0,1,1359.78,1416.161Z" transform="translate(-1345.113 -1396.796)" fill="#360b1e"/>
          </g>
          <path id="Trazado_989475" data-name="Trazado 989475" d="M1360.933,1392.072s-8.323,3.218-11.329,6.822,10.177,12.339,13.525,18.283,9.657,17.444,14.8,20.211c6.634,3.571,14.37,1.95,12.435-2.174s-5.538-9.857-8.248-14.71c-3.143-5.637-9.88-18.482-7.912-24.027S1360.933,1392.072,1360.933,1392.072Z" transform="translate(-1344.543 -1391.973)" fill="#fdaf2f" fill-rule="evenodd"/>
        </g>
        <g id="Grupo_1153728" data-name="Grupo 1153728" transform="translate(135.106 378.479)">
          <g id="Grupo_1153727" data-name="Grupo 1153727" transform="translate(0 12.944)">
            <path id="Trazado_989476" data-name="Trazado 989476" d="M1429.042,1429.784s-2.236,5.87,1.461,6.8,14.364,1.17,14.7-.37,2.72-2.259,3.667-.782,6.782,3.018,9.715,3,13.559-.148,17.4-3.229,1.1-7.815-1.078-7.969S1429.042,1429.784,1429.042,1429.784Z" transform="translate(-1427.805 -1426.67)" fill="#fdaf2f" fill-rule="evenodd"/>
            <path id="Trazado_989477" data-name="Trazado 989477" d="M1458.614,1439.084c-2.753,0-9-1.461-10.154-3.262a1.256,1.256,0,0,0-1.331-.518,1.588,1.588,0,0,0-1.3,1.114,1.152,1.152,0,0,1-.566.725c-2.131,1.319-11.626.882-14.83.078a3.109,3.109,0,0,1-2.088-1.61c-1.16-2.232.176-5.8.234-5.951a.567.567,0,0,1,.5-.367c1.785-.11,43.737-2.716,45.939-2.545,1.345.1,2.723,1.456,3.279,3.235a5.143,5.143,0,0,1-1.884,5.747c-3.4,2.727-11.526,3.33-17.753,3.354Zm-11.179-4.95a2.307,2.307,0,0,1,1.99,1.072c.727,1.138,6.109,2.736,9.182,2.736h.05c8.542-.035,14.6-1.136,17.044-3.1a3.99,3.99,0,0,0,1.508-4.518,3.315,3.315,0,0,0-2.27-2.437c-1.661-.122-30.2,1.582-45.405,2.522-.281.878-.916,3.243-.169,4.676a1.97,1.97,0,0,0,1.354,1.03c3.807.956,13.247.957,14.028,0a2.81,2.81,0,0,1,2.688-1.977Z" transform="translate(-1427.875 -1426.74)" fill="#fdaf2f"/>
          </g>
          <path id="Trazado_989478" data-name="Trazado 989478" d="M1431.134,1421.926s-2.67,6.737-2.146,10.53,13.16.81,18.637,2.117,15.983,3.947,20.519,2.43c5.864-1.968,9.178-7.473,5.6-8.613s-9.081-2.185-13.536-3.269c-5.174-1.261-16.731-4.393-19.013-8.648S1431.134,1421.926,1431.134,1421.926Z" transform="translate(-1427.727 -1415.394)" fill="#fdaf2f" fill-rule="evenodd"/>
        </g>
        <path id="Trazado_989479" data-name="Trazado 989479" d="M1357.522,1293.59c-17.444,0-32.315,2.681-38.3,6.462a5.137,5.137,0,0,0-1.979,1.609c-.018.024-.028.047-.046.069a4.417,4.417,0,0,0-.461.719,2.854,2.854,0,0,0-.371,1.289c0,.047.029.1.029.143s-.029.08-.029.12v10.216c0,2.533,2.459,4.576,5.471,4.576h71.423c3.017,0,5.458-2.043,5.458-4.576V1304c0-.08-.057-.143-.062-.222,0-.018.018-.029.018-.041a2.732,2.732,0,0,0-.3-1.169,4.863,4.863,0,0,0-2.738-2.646C1389.523,1296.2,1374.772,1293.59,1357.522,1293.59Z" transform="translate(-1308.476 -1054.073)" fill="#70e8ad" fill-rule="evenodd"/>
        <path id="Trazado_989480" data-name="Trazado 989480" d="M1395.187,1245.84s99.448,4.975,100.464,20.444-27.016,118.381-28.659,133.11-7.033,46.685-7.033,46.685l-18.893,1.711s-3.941-102.969.052-122.409,1.221-39.615,1.221-39.615l-89.883-12.967Z" transform="translate(-1303.392 -1060.799)" fill="#8b454e" fill-rule="evenodd"/>
        <path id="Trazado_989481" data-name="Trazado 989481" d="M1428.17,1354.008l.742,17.6s48.594-61.354,50.01-71.177-46.223-13.964-46.223-13.964Z" transform="translate(-1292.727 -1055.077)" fill="#360b1e" fill-rule="evenodd"/>
        <path id="Trazado_989482" data-name="Trazado 989482" d="M1397.367,1097.8s-9.652-3.48-14.233,5.168-6.527,29.417-11.8,35.132-27.928,23.491-26.155,35.253,17.569,38.412,30.552,39.662,46.941-11.3,59.427-47.87c5.162-15.116,11.968-46.644,11.968-46.644s-6.372-32.213-28.407-32.469C1398.848,1085.813,1397.367,1097.8,1397.367,1097.8Z" transform="translate(-1304.432 -1083.309)" fill="#360b1e" fill-rule="evenodd"/>
        <path id="Trazado_989483" data-name="Trazado 989483" d="M1397.572,1127.94l-11.277,33.188,23.781,3.365s7.724-13.833,9.976-19.013S1397.572,1127.94,1397.572,1127.94Z" transform="translate(-1298.625 -1077.406)" fill="#ffbfbe" fill-rule="evenodd"/>
        <path id="Trazado_989484" data-name="Trazado 989484" d="M1394.82,1128.895s4.889,16.869,10.992,24.033,6.931,5.414,6.931,5.414l6.657-12.526C1419.394,1145.815,1396.542,1127.1,1394.82,1128.895Z" transform="translate(-1297.425 -1077.289)" fill="#ef5e7f" fill-rule="evenodd"/>
        <path id="Trazado_989485" data-name="Trazado 989485" d="M1394.13,1245.25s-67.419,26.9-62.7,49.6c3.617,17.4,57.808,14.689,71.993,15.106s48.367-9.2,48.367-9.2-20.376,17.941-31.619,29.988c-4.187,4.489-17.467,26.285-26.764,38.3a428.689,428.689,0,0,0-28.859,43.364l15.145,16.52s11.386-16.583,32.007-35.11c8.209-7.371,19.155-19.337,27.711-27.461,24.733-23.467,47.163-50.141,52.143-57.253,12.1-17.307,12.122-29.714,6.012-32.379S1394.13,1245.25,1394.13,1245.25Z" transform="translate(-1306.387 -1060.882)" fill="#8b454e" fill-rule="evenodd"/>
        <path id="Trazado_989486" data-name="Trazado 989486" d="M1515.98,1214.73l-76.729,36.81-8.726-16.5s25.434-11.848,47.464-15.693A341.606,341.606,0,0,1,1515.98,1214.73Z" transform="translate(-1292.395 -1065.181)" fill="#360b1e" fill-rule="evenodd"/>
        <g id="Grupo_1153729" data-name="Grupo 1153729" transform="translate(48.487 402.625)">
          <path id="Trazado_989487" data-name="Trazado 989487" d="M1441.586,1437.7H1352.52a.571.571,0,0,1,0-1.141h89.066a.571.571,0,0,1,0,1.141Z" transform="translate(-1351.95 -1436.56)" fill="#12130f"/>
        </g>
        <g id="Grupo_1153730" data-name="Grupo 1153730" transform="translate(147.45 402.625)">
          <path id="Trazado_989488" data-name="Trazado 989488" d="M1459.053,1437.7h-19.789a.571.571,0,0,1,0-1.141h19.789a.571.571,0,0,1,0,1.141Z" transform="translate(-1438.695 -1436.56)" fill="#12130f"/>
        </g>
        <path id="Trazado_989489" data-name="Trazado 989489" d="M1389.852,1166.286s-17.735,18.231-20.12,40.631-3.565,32.572-10.929,41.915c-3.73,4.734-18.846,21.083-26.839,33.062-7.775,11.66.736,29.759.736,29.759s5.494-20.1,23.314-28.8c12.709-6.206,14.917-9.35,26.394-13.24,12.412-4.21,24.391-5.425,27.883-6.577,5.721-1.882-4.193-.867-2.6-6.138,1.757-5.784,10.233-12.829,15.048-16.269,9.212-6.566,29.668-14.649,24.477-25.543s-22.864-35.321-26.046-42.5,4.186-20.968,4.186-20.968l-31.493-2.8Z" transform="translate(-1306.739 -1074.465)" fill="#fdaf2f" fill-rule="evenodd"/>
        <path id="Trazado_989490" data-name="Trazado 989490" d="M1380.061,1188.95s-.559,3.56,7.5,15.551,25.469,32.411,25.469,32.411l6.948-4.54Z" transform="translate(-1299.504 -1068.813)" fill="#360b1e" fill-rule="evenodd"/>
        <path id="Trazado_989491" data-name="Trazado 989491" d="M1400.919,1169.927s-30.324-4.638-24.21,14.813,60.649,76.626,71.606,72.513,25.761-37.91,35.607-50.956,22.5-29.822,22.5-29.822l-12.7-10.49-48.048,57.727C1445.664,1223.706,1416.527,1167.873,1400.919,1169.927Z" transform="translate(-1300.09 -1072.048)" fill="#fdaf2f" fill-rule="evenodd"/>
        <g id="Grupo_1153731" data-name="Grupo 1153731" transform="translate(89.02 99.362)">
          <path id="Trazado_989492" data-name="Trazado 989492" d="M1444.078,1242.546a.567.567,0,0,1-.41-.174c-1.082-1.117-2.427-2.507-3.974-4.113a.57.57,0,1,1,.822-.791c1.546,1.6,2.891,3,3.972,4.111a.57.57,0,0,1-.014.807A.581.581,0,0,1,1444.078,1242.546Zm6.914-3.081a.561.561,0,0,1-.313-.094.57.57,0,0,1-.164-.789c.924-1.406,1.984-3.013,3.153-4.778a.57.57,0,0,1,.951.63c-1.169,1.763-2.226,3.37-3.151,4.774A.523.523,0,0,1,1450.992,1239.465Zm-18.79-9.287a.567.567,0,0,1-.413-.175c-1.274-1.334-2.592-2.719-3.941-4.138a.571.571,0,0,1,.828-.786c1.349,1.419,2.665,2.8,3.938,4.136a.57.57,0,0,1-.018.807A.545.545,0,0,1,1432.2,1230.178Zm28.281-5.007a.571.571,0,0,1-.473-.888c1.033-1.544,2.1-3.131,3.191-4.747a.569.569,0,1,1,.944.637c-1.088,1.615-2.155,3.2-3.188,4.745A.574.574,0,0,1,1460.483,1225.171Zm-40.067-7.427a.573.573,0,0,1-.416-.179q-1.957-2.09-3.9-4.177a.571.571,0,0,1,.835-.779q1.936,2.082,3.9,4.174a.572.572,0,0,1-.026.807A.619.619,0,0,1,1420.416,1217.743Zm49.685-6.765a.555.555,0,0,1-.321-.1.568.568,0,0,1-.148-.793c1.08-1.577,2.166-3.152,3.246-4.711a.57.57,0,1,1,.937.65c-1.079,1.556-2.162,3.129-3.244,4.705A.571.571,0,0,1,1470.1,1210.978Zm-61.321-5.818a.571.571,0,0,1-.422-.187c-1.331-1.465-2.612-2.89-3.825-4.255a.571.571,0,0,1,.854-.757c1.21,1.361,2.487,2.782,3.814,4.245a.568.568,0,0,1-.038.8A.618.618,0,0,1,1408.78,1205.16Zm71.144-8.248a.571.571,0,0,1-.464-.9c1.151-1.609,2.274-3.162,3.355-4.639a.57.57,0,0,1,.92.673c-1.079,1.475-2.2,3.023-3.35,4.631A.551.551,0,0,1,1479.924,1196.911Zm-82.336-4.712a.571.571,0,0,1-.452-.221c-1.221-1.583-2.351-3.152-3.354-4.662a.571.571,0,0,1,.952-.63c.987,1.489,2.1,3.034,3.3,4.594a.57.57,0,0,1-.1.8A.591.591,0,0,1,1397.588,1192.2Zm92.649-9a.57.57,0,0,1-.44-.932,41.624,41.624,0,0,1,3.911-4.3.57.57,0,0,1,.76.851,40.45,40.45,0,0,0-3.788,4.167A.566.566,0,0,1,1490.237,1183.2Zm-101.195-5.739a.571.571,0,0,1-.541-.387,16.523,16.523,0,0,1-1.023-5.161,4.4,4.4,0,0,1,.042-.7.571.571,0,0,1,1.125.191,3.562,3.562,0,0,0-.026.509,15.349,15.349,0,0,0,.964,4.8.571.571,0,0,1-.357.724A.663.663,0,0,1,1389.043,1177.459Z" transform="translate(-1387.479 -1170.74)" fill="#fff"/>
        </g>
        <path id="Trazado_989493" data-name="Trazado 989493" d="M1420.344,1098.34s9.584,5.088,7.581,16.37c-.531,2.967,5.893,10.137,7.546,12.139,1.575,1.911-3.176,3.063-2.669,5.652,1.471,7.535,4.506,15.6-.153,17.872a25.443,25.443,0,0,1-22.476.382c-9.11-4.187-14.666-18.488-14.666-18.488s-3.115-8.168-2.019-12.127.194-2.264,7.553-3.257C1409.564,1115.738,1423.208,1108.813,1420.344,1098.34Z" transform="translate(-1297.645 -1081.576)" fill="#ffbfbe" fill-rule="evenodd"/>
        <path id="Trazado_989494" data-name="Trazado 989494" d="M1399.362,1124.063s-8.756-5.641-11.2-1.512,7.029,12.692,11.711,6.748S1399.362,1124.063,1399.362,1124.063Z" transform="translate(-1298.418 -1078.378)" fill="#ffbfbe" fill-rule="evenodd"/>
        <g id="Grupo_1153732" data-name="Grupo 1153732" transform="translate(91.103 45.082)">
          <path id="Trazado_989495" data-name="Trazado 989495" d="M1396.247,1125.168a.5.5,0,0,1-.078-.006l-6.371-.861a.57.57,0,0,1-.488-.642.553.553,0,0,1,.642-.489l6.371.862a.571.571,0,0,1-.076,1.136Z" transform="translate(-1389.304 -1123.161)" fill="#360b1e"/>
        </g>
        <path id="Trazado_989496" data-name="Trazado 989496" d="M1426.17,1126.525l5.419-2.63s.182,1.831-2.185,2.926S1426.17,1126.525,1426.17,1126.525Z" transform="translate(-1293.009 -1077.976)" fill="#ef5e7f" fill-rule="evenodd"/>
        <g id="Grupo_1153733" data-name="Grupo 1153733" transform="translate(124.729 54.332)">
          <path id="Trazado_989497" data-name="Trazado 989497" d="M1428.329,1137.054c-5.179,0-9.218-4.616-9.413-4.843a.57.57,0,1,1,.865-.743c.05.058,5.128,5.85,10.756,4.111a.57.57,0,1,1,.336,1.089A8.549,8.549,0,0,1,1428.329,1137.054Z" transform="translate(-1418.779 -1131.269)" fill="#360b1e"/>
        </g>
        <g id="Grupo_1153734" data-name="Grupo 1153734" transform="translate(91.097)">
          <path id="Trazado_989498" data-name="Trazado 989498" d="M1389.871,1106.8h-.021a.571.571,0,0,1-.551-.591c.007-.206.892-20.6,15.337-22.388,9.665-1.19,19.6,3.924,24.42,9.6,2.152,2.531,3.046,4.92,2.517,6.725a.57.57,0,0,1-1.094-.32c.409-1.4-.426-3.469-2.294-5.667-4.623-5.439-14.143-10.337-23.409-9.2-13.479,1.672-14.331,21.1-14.337,21.3A.566.566,0,0,1,1389.871,1106.8Z" transform="translate(-1389.3 -1083.646)" fill="#360b1e"/>
        </g>
        <g id="Grupo_1153735" data-name="Grupo 1153735" transform="translate(35.264 126.616)">
          <path id="Trazado_989499" data-name="Trazado 989499" d="M1340.931,1277.788a.561.561,0,0,1-.269-.069.569.569,0,0,1-.233-.773c2.391-4.457,8.425-11.864,14.816-19.7,7.592-9.321,16.2-19.886,19.468-26.6,5.881-12.067,6.491-35.228,6.5-35.461a.612.612,0,0,1,.585-.557.57.57,0,0,1,.556.584c-.023.959-.619,23.643-6.612,35.934-3.325,6.828-11.6,16.991-19.61,26.817-6.352,7.8-12.353,15.161-14.692,19.522A.58.58,0,0,1,1340.931,1277.788Z" transform="translate(-1340.36 -1194.629)" fill="#360b1e"/>
        </g>
        <g id="Grupo_1153736" data-name="Grupo 1153736" transform="translate(118.353 33.9)">
          <path id="Trazado_989500" data-name="Trazado 989500" d="M1413.761,1118.642a.57.57,0,0,1-.443-.929c.144-.178,3.572-4.354,8.514-4.354h.105a.57.57,0,0,1-.007,1.14.347.347,0,0,1-.094,0c-4.394,0-7.6,3.893-7.631,3.931A.571.571,0,0,1,1413.761,1118.642Z" transform="translate(-1413.19 -1113.36)" fill="#360b1e"/>
        </g>
        <path id="Trazado_989501" data-name="Trazado 989501" d="M1418.2,1115.617c.37-1.437,1.318-2.424,2.116-2.213s1.146,1.54.782,2.972-1.318,2.424-2.116,2.213S1417.833,1117.054,1418.2,1115.617Z" transform="translate(-1294.152 -1079.458)" fill="#360b1e" fill-rule="evenodd"/>
        <path id="Trazado_989502" data-name="Trazado 989502" d="M1410.756,1115.456c-1.722-1.38,7.381-8.6,8.928-5.938S1412.651,1116.972,1410.756,1115.456Z" transform="translate(-1295.21 -1080.083)" fill="#360b1e" fill-rule="evenodd"/>
        <g id="Grupo_1153737" data-name="Grupo 1153737" transform="translate(88.622 22.018)">
          <path id="Trazado_989503" data-name="Trazado 989503" d="M1387.7,1122.813a.563.563,0,0,1-.28-.073.569.569,0,0,1-.217-.776c.12-.215,3.073-5.24,11.791-4.183,8,.96,18.461-9.214,20.03-14.429a.571.571,0,0,1,1.093.329c-1.7,5.656-12.646,16.29-21.259,15.233-7.994-.964-10.636,3.564-10.661,3.61A.553.553,0,0,1,1387.7,1122.813Z" transform="translate(-1387.13 -1102.945)" fill="#360b1e"/>
        </g>
        <g id="Grupo_1153738" data-name="Grupo 1153738" transform="translate(78.047 194.61)">
          <path id="Trazado_989504" data-name="Trazado 989504" d="M1409.2,1386.182a.57.57,0,0,1-.373-1c29.085-25.028,95.544-85.464,84.517-106.072-9.668-18.074-113.892-23.684-114.943-23.738a.571.571,0,0,1-.54-.6.542.542,0,0,1,.6-.539c4.32.224,105.92,5.7,115.887,24.338,11.418,21.333-55.483,82.268-84.776,107.474A.555.555,0,0,1,1409.2,1386.182Z" transform="translate(-1377.86 -1254.228)" fill="#360b1e"/>
        </g>
        <g id="Grupo_1153739" data-name="Grupo 1153739" transform="translate(47.984 215.332)">
          <path id="Trazado_989505" data-name="Trazado 989505" d="M1474.78,1288.11h-.022c-.3-.011-29.875-1.1-54.542-3.116-24.692-2.021-67.826-11.382-68.259-11.477a.57.57,0,1,1,.243-1.115c.432.093,43.493,9.437,68.109,11.454,24.641,2.018,54.193,3.1,54.49,3.113a.57.57,0,0,1-.021,1.14Z" transform="translate(-1351.509 -1272.391)" fill="#360b1e"/>
        </g>
        <g id="Grupo_1153740" data-name="Grupo 1153740" transform="translate(71.019 229.014)">
          <path id="Trazado_989506" data-name="Trazado 989506" d="M1372.27,1400.348a.57.57,0,0,1-.39-.987c.554-.518,55.6-52.038,72.372-75.316,16.726-23.229,21.391-39.089,21.437-39.246a.564.564,0,0,1,.705-.391.57.57,0,0,1,.392.705c-.046.16-4.751,16.189-21.606,39.6-16.834,23.367-71.964,74.965-72.518,75.483A.552.552,0,0,1,1372.27,1400.348Z" transform="translate(-1371.7 -1284.384)" fill="#360b1e"/>
        </g>
        <g id="Grupo_1153741" data-name="Grupo 1153741" transform="translate(192.509 69.152)">
          <path id="Trazado_989507" data-name="Trazado 989507" d="M1478.76,1171.343a.57.57,0,0,1-.464-.9c.089-.127,8.921-12.615,10.123-15.293.928-2.08,5.465-10.118,7.434-10.825a.956.956,0,0,1,.762.022.573.573,0,0,1,.257.765.58.58,0,0,1-.665.3c-1.152.4-5.375,7.138-6.748,10.207-1.247,2.781-9.865,14.969-10.232,15.486A.573.573,0,0,1,1478.76,1171.343Z" transform="translate(-1478.19 -1144.259)" fill="#360b1e"/>
        </g>
        <g id="Grupo_1153742" data-name="Grupo 1153742" transform="translate(207.328 68.217)">
          <path id="Trazado_989508" data-name="Trazado 989508" d="M1491.751,1164.317a.57.57,0,0,1-.367-1.005l23.36-19.738a.57.57,0,1,1,.735.872l-23.359,19.737A.56.56,0,0,1,1491.751,1164.317Z" transform="translate(-1491.18 -1143.44)" fill="#360b1e"/>
        </g>
        <g id="Grupo_1153743" data-name="Grupo 1153743" transform="translate(210.819 71.422)">
          <path id="Trazado_989509" data-name="Trazado 989509" d="M1494.81,1168.337a.57.57,0,0,1-.36-1.013l25.7-20.946a.57.57,0,1,1,.72.884l-25.7,20.946A.526.526,0,0,1,1494.81,1168.337Z" transform="translate(-1494.239 -1146.25)" fill="#360b1e"/>
        </g>
        <path id="Trazado_989510" data-name="Trazado 989510" d="M1522.493,1269.16h0a5.1,5.1,0,0,1,5.122,5.065v124.159a5.1,5.1,0,0,1-5.122,5.072h0a5.1,5.1,0,0,1-5.122-5.072V1274.225A5.1,5.1,0,0,1,1522.493,1269.16Z" transform="translate(-1280.163 -1057.514)" fill="#360b1e" fill-rule="evenodd"/>
        <g id="Grupo_1153747" data-name="Grupo 1153747" transform="translate(92.326 180.892)">
          <path id="Trazado_989511" data-name="Trazado 989511" d="M1414.093,1242.234s-21.652,16.138-15.315,19.554,22.561,3.2,26.639.742,8.973-11.757,6.292-16.349S1414.093,1242.234,1414.093,1242.234Z" transform="translate(-1389.358 -1242.203)" fill="#fdaf2f" fill-rule="evenodd"/>
          <path id="Trazado_989512" data-name="Trazado 989512" d="M1404.7,1258.781s-7.285,4.479-9.646,10.611-6.337,14.471-2.6,17.05c1.849,1.277,3.012-3.793,4.889-6.8,1.917-3.075,3.12-4.661,3.12-4.661s-5.208,22.241-.245,23.627,11.054-4.244,11.054-4.244,11.306-24.928,12.624-33.587S1404.7,1258.781,1404.7,1258.781Z" transform="translate(-1390.3 -1240.213)" fill="#ffbfbe" fill-rule="evenodd"/>
          <g id="Grupo_1153744" data-name="Grupo 1153744" transform="translate(9.063 27.401)">
            <path id="Trazado_989513" data-name="Trazado 989513" d="M1398.89,1296.92a.541.541,0,0,1-.118-.013.571.571,0,0,1-.438-.678c.223-1.034,5.494-25.4,7.437-29.674a.57.57,0,1,1,1.038.472c-1.891,4.166-7.3,29.191-7.36,29.443A.569.569,0,0,1,1398.89,1296.92Z" transform="translate(-1398.32 -1266.221)" fill="#360b1e"/>
          </g>
          <g id="Grupo_1153745" data-name="Grupo 1153745" transform="translate(14.903 27.223)">
            <path id="Trazado_989514" data-name="Trazado 989514" d="M1404.01,1296.76a.6.6,0,0,1-.138-.017.571.571,0,0,1-.416-.691c.257-1.024,6.291-25.135,8.709-29.685a.574.574,0,0,1,.772-.235.568.568,0,0,1,.235.77c-2.353,4.429-8.546,29.177-8.608,29.425A.565.565,0,0,1,1404.01,1296.76Z" transform="translate(-1403.44 -1266.065)" fill="#360b1e"/>
          </g>
          <g id="Grupo_1153746" data-name="Grupo 1153746" transform="translate(0 16.532)">
            <path id="Trazado_989515" data-name="Trazado 989515" d="M1393.164,1287.573a1.816,1.816,0,0,1-.33-.032c-.641-.125-1.561-.691-2.31-2.672-1.008-2.665,3.414-16.107,5.554-19.074,2.123-2.949,9.314-8.731,9.62-8.975a.57.57,0,0,1,.714.889c-.073.058-7.374,5.928-9.408,8.753-2.047,2.84-6.2,15.909-5.412,18,.426,1.128.974,1.859,1.462,1.956a.875.875,0,0,0,.776-.367.57.57,0,1,1,.836.776A2.016,2.016,0,0,1,1393.164,1287.573Z" transform="translate(-1390.377 -1256.695)" fill="#360b1e"/>
          </g>
        </g>
        <path id="Trazado_989516" data-name="Trazado 989516" d="M1395.03,1131.1s12.356,22.384,9.236,31.629c-1.746,5.163-7.022,4.667-12.721,5.255-4.5.462-9.452,2.191-11.8,3.77-5.316,3.589-2.413-16.6-1.311-20.187S1395.03,1131.1,1395.03,1131.1Z" transform="translate(-1299.985 -1076.962)" fill="#360b1e" fill-rule="evenodd"/>
        <g id="Grupo_1153748" data-name="Grupo 1153748" transform="translate(78.673 89.982)">
          <path id="Trazado_989517" data-name="Trazado 989517" d="M1428.847,1200.169a.568.568,0,0,1-.479-.262c-1.162-1.8-2.42-4.037-3.876-6.626-5.884-10.449-14.775-26.242-27.45-29.058-4.939-1.1-9.016-.588-12.115,1.516a13.927,13.927,0,0,0-5.383,8.456.57.57,0,1,1-1.126-.181,14.88,14.88,0,0,1,5.869-9.218c3.37-2.289,7.747-2.857,13-1.687,13.172,2.926,22.213,18.986,28.2,29.613,1.448,2.572,2.7,4.794,3.84,6.568a.568.568,0,0,1-.171.787A.557.557,0,0,1,1428.847,1200.169Z" transform="translate(-1378.409 -1162.518)" fill="#fff"/>
        </g>
      </g>
    </g>
  </g>
</svg>
